<svg xmlns="http://www.w3.org/2000/svg" xmlns:xlink="http://www.w3.org/1999/xlink" viewBox="0 0 961.95 1000"><defs><style>.cls-1,.cls-101,.cls-105{fill:none;}.cls-2{fill:#694e81;}.cls-3{isolation:isolate;}.cls-4,.cls-5,.cls-6{mix-blend-mode:multiply;}.cls-4{fill:url(#radial-gradient);}.cls-5{opacity:0.5;fill:url(#radial-gradient-2);}.cls-6{fill:url(#radial-gradient-3);}.cls-7{fill:#595959;}.cls-8{fill:#5a5a5a;}.cls-9{fill:#5b5b5b;}.cls-10{fill:#5c5c5c;}.cls-11{fill:#5d5d5d;}.cls-12{fill:#5e5e5e;}.cls-13{fill:#5f5f5f;}.cls-14{fill:#606060;}.cls-15{fill:#616161;}.cls-16{fill:#626262;}.cls-17{fill:#636363;}.cls-18{fill:#646464;}.cls-19{fill:#656565;}.cls-20{fill:#666;}.cls-21{fill:#676767;}.cls-22{fill:#686868;}.cls-23{fill:#696969;}.cls-24{fill:#6a6a6a;}.cls-25{fill:#6b6b6b;}.cls-26{fill:#6c6c6c;}.cls-27{fill:#6d6d6d;}.cls-28{fill:#6e6e6e;}.cls-29{fill:#6f6f6f;}.cls-30{fill:#707070;}.cls-31{fill:#717171;}.cls-32{fill:#727272;}.cls-33{fill:#737373;}.cls-34{fill:#747474;}.cls-35{fill:#757575;}.cls-36{fill:#767676;}.cls-37{fill:#777;}.cls-38{fill:#787878;}.cls-39{fill:#797979;}.cls-40{fill:#7a7a7a;}.cls-41{fill:#7b7b7b;}.cls-42{fill:#7c7c7c;}.cls-43{fill:#7d7d7d;}.cls-44{fill:#7e7e7e;}.cls-45{fill:#7f7f7f;}.cls-46{fill:gray;}.cls-47{fill:#818181;}.cls-48{fill:#828282;}.cls-49{fill:#838383;}.cls-50{fill:#848484;}.cls-51{fill:#858585;}.cls-52{fill:#868686;}.cls-53{fill:#878787;}.cls-54{fill:#888;}.cls-55{fill:#898989;}.cls-56{fill:#8a8a8a;}.cls-57{fill:#8b8b8b;}.cls-58{fill:#8c8c8c;}.cls-59{fill:#8d8d8d;}.cls-60{fill:#8e8e8e;}.cls-61{fill:#8f8f8f;}.cls-62{fill:#909090;}.cls-63{fill:#919191;}.cls-64{fill:#929292;}.cls-65{fill:#939393;}.cls-66{fill:#949494;}.cls-67{fill:#959595;}.cls-68{fill:#969696;}.cls-69{fill:#979797;}.cls-70{fill:#989898;}.cls-71{fill:#999;}.cls-72{fill:url(#radial-gradient-4);}.cls-73{fill:url(#radial-gradient-5);}.cls-74{fill:url(#radial-gradient-6);}.cls-75{fill:url(#linear-gradient);}.cls-76{fill:url(#linear-gradient-2);}.cls-77{fill:url(#radial-gradient-7);}.cls-78{fill:url(#radial-gradient-8);}.cls-79{fill:url(#linear-gradient-3);}.cls-80{fill:url(#linear-gradient-4);}.cls-81{fill:url(#radial-gradient-9);}.cls-82{fill:url(#radial-gradient-10);}.cls-83{fill:url(#radial-gradient-11);}.cls-84{fill:url(#radial-gradient-12);}.cls-85{fill:url(#radial-gradient-13);}.cls-86{opacity:0.8;fill:url(#radial-gradient-14);}.cls-87,.cls-88{opacity:0.6;}.cls-87{fill:url(#radial-gradient-15);}.cls-88{fill:url(#radial-gradient-16);}.cls-89{fill:#87bd40;}.cls-90{fill:#ffdd0f;}.cls-91{fill:#36954a;}.cls-92{fill:#917a2e;}.cls-93{fill:#f2d42e;}.cls-94{fill:#3f3368;}.cls-95{fill:#8a96aa;}.cls-96{clip-path:url(#clip-path);}.cls-97{fill:#d7b828;}.cls-98{fill:#f1d32e;}.cls-99{fill:#b49530;}.cls-100{clip-path:url(#clip-path-2);}.cls-101{stroke:#c5e5f8;stroke-width:1.25px;}.cls-101,.cls-105{stroke-miterlimit:10;}.cls-102{clip-path:url(#clip-path-3);}.cls-103{fill:#c5e5f8;}.cls-104{fill:#d6b728;}.cls-105{stroke:#929497;stroke-width:3px;}.cls-106{fill:#572b7e;}.cls-107{clip-path:url(#clip-path-4);}</style><radialGradient id="radial-gradient" cx="457.33" cy="1736.8" r="397.11" gradientTransform="translate(-52.45 -121.36) scale(1.11 0.53)" gradientUnits="userSpaceOnUse"><stop offset="0" stop-color="#4c4c4c"/><stop offset="0.16" stop-color="#4c4c4c" stop-opacity="0.75"/><stop offset="0.46" stop-color="#4c4c4c" stop-opacity="0.34"/><stop offset="0.72" stop-color="#4c4c4c" stop-opacity="0.09"/><stop offset="0.9" stop-color="#4c4c4c" stop-opacity="0"/></radialGradient><radialGradient id="radial-gradient-2" cx="358.37" cy="3272.65" r="260.06" gradientTransform="translate(-121.37 -484.41) scale(1.32 0.41)" gradientUnits="userSpaceOnUse"><stop offset="0.6" stop-color="#262626"/><stop offset="0.61" stop-color="#262626" stop-opacity="0.92"/><stop offset="0.67" stop-color="#262626" stop-opacity="0.41"/><stop offset="0.73" stop-color="#262626" stop-opacity="0.1"/><stop offset="0.8" stop-color="#262626" stop-opacity="0"/></radialGradient><radialGradient id="radial-gradient-3" cx="310.6" cy="3384.98" r="260.06" gradientTransform="translate(-16.1 -474.36) scale(1.21 0.39)" xlink:href="#radial-gradient-2"/><radialGradient id="radial-gradient-4" cx="630.52" cy="10106.11" r="243.78" gradientTransform="matrix(0.65, -0.2, 0.02, 0.05, 73.46, -143.12)" gradientUnits="userSpaceOnUse"><stop offset="0" stop-color="#d9d9d9"/><stop offset="0.18" stop-color="#d9d9d9" stop-opacity="0.79"/><stop offset="0.47" stop-color="#d9d9d9" stop-opacity="0.45"/><stop offset="0.72" stop-color="#d9d9d9" stop-opacity="0.21"/><stop offset="0.9" stop-color="#d9d9d9" stop-opacity="0.06"/><stop offset="1" stop-color="#d9d9d9" stop-opacity="0"/></radialGradient><radialGradient id="radial-gradient-5" cx="834.05" cy="-8541.81" r="269.16" gradientTransform="matrix(-0.98, 0.69, -0.03, -0.04, 1164.58, -237.64)" gradientUnits="userSpaceOnUse"><stop offset="0" stop-color="#ccc"/><stop offset="0.06" stop-color="#ccc" stop-opacity="0.92"/><stop offset="0.4" stop-color="#ccc" stop-opacity="0.53"/><stop offset="0.68" stop-color="#ccc" stop-opacity="0.24"/><stop offset="0.89" stop-color="#ccc" stop-opacity="0.07"/><stop offset="1" stop-color="#ccc" stop-opacity="0"/></radialGradient><radialGradient id="radial-gradient-6" cx="2769.24" cy="247.52" r="243.9" gradientTransform="matrix(0.11, 0.28, -0.06, 0.02, 653.74, -497.34)" gradientUnits="userSpaceOnUse"><stop offset="0" stop-color="#d9d9d9"/><stop offset="0.1" stop-color="#d9d9d9" stop-opacity="0.78"/><stop offset="0.21" stop-color="#d9d9d9" stop-opacity="0.57"/><stop offset="0.32" stop-color="#d9d9d9" stop-opacity="0.4"/><stop offset="0.44" stop-color="#d9d9d9" stop-opacity="0.25"/><stop offset="0.56" stop-color="#d9d9d9" stop-opacity="0.14"/><stop offset="0.69" stop-color="#d9d9d9" stop-opacity="0.06"/><stop offset="0.83" stop-color="#d9d9d9" stop-opacity="0.02"/><stop offset="1" stop-color="#d9d9d9" stop-opacity="0"/></radialGradient><linearGradient id="linear-gradient" y1="456.62" x2="704.85" y2="456.62" gradientUnits="userSpaceOnUse"><stop offset="0.4" stop-color="#b8b8b8"/><stop offset="0.6" stop-color="#a4a4a4"/><stop offset="1" stop-color="#737373"/></linearGradient><linearGradient id="linear-gradient-2" x1="709.53" y1="688.16" x2="-27.48" y2="71.2" gradientUnits="userSpaceOnUse"><stop offset="0.05" stop-color="#404040"/><stop offset="0.05" stop-color="#404040"/><stop offset="0.15" stop-color="#404040" stop-opacity="0.56"/><stop offset="0.25" stop-color="#404040" stop-opacity="0.25"/><stop offset="0.35" stop-color="#404040" stop-opacity="0.06"/><stop offset="0.45" stop-color="#404040" stop-opacity="0"/></linearGradient><radialGradient id="radial-gradient-7" cx="551.46" cy="414.75" r="261.67" gradientTransform="translate(654.37 -133.69) rotate(91.84) scale(1 0.21)" gradientUnits="userSpaceOnUse"><stop offset="0" stop-color="gray"/><stop offset="0.54" stop-color="gray" stop-opacity="0.37"/><stop offset="0.88" stop-color="gray" stop-opacity="0"/></radialGradient><radialGradient id="radial-gradient-8" cx="354.75" cy="47.28" r="414.76" gradientTransform="matrix(1, 0.01, 0, 0.11, 0.05, 39.16)" gradientUnits="userSpaceOnUse"><stop offset="0" stop-color="#fff" stop-opacity="0"/><stop offset="0.14" stop-color="#fefefe" stop-opacity="0.01"/><stop offset="0.23" stop-color="#fcfcfc" stop-opacity="0.05"/><stop offset="0.3" stop-color="#f9f9f9" stop-opacity="0.11"/><stop offset="0.36" stop-color="#f5f5f5" stop-opacity="0.2"/><stop offset="0.42" stop-color="#efefef" stop-opacity="0.32"/><stop offset="0.47" stop-color="#e7e7e7" stop-opacity="0.46"/><stop offset="0.49" stop-color="#e5e5e5" stop-opacity="0.5"/><stop offset="0.52" stop-color="#e5e5e5" stop-opacity="0.68"/><stop offset="0.55" stop-color="#e5e5e5" stop-opacity="0.85"/><stop offset="0.58" stop-color="#e5e5e5" stop-opacity="0.96"/><stop offset="0.6" stop-color="#e5e5e5"/><stop offset="0.62" stop-color="#e5e5e5" stop-opacity="0.97"/><stop offset="0.65" stop-color="#e5e5e5" stop-opacity="0.89"/><stop offset="0.69" stop-color="#e5e5e5" stop-opacity="0.77"/><stop offset="0.73" stop-color="#e5e5e5" stop-opacity="0.59"/><stop offset="0.77" stop-color="#e5e5e5" stop-opacity="0.36"/><stop offset="0.82" stop-color="#e5e5e5" stop-opacity="0.09"/><stop offset="0.83" stop-color="#e5e5e5" stop-opacity="0"/></radialGradient><linearGradient id="linear-gradient-3" x1="192.87" y1="-126.44" x2="267.38" y2="-48.58" gradientUnits="userSpaceOnUse"><stop offset="0" stop-color="#adadad"/><stop offset="0.17" stop-color="#bbb"/><stop offset="0.39" stop-color="#c8c8c8"/><stop offset="0.6" stop-color="#ccc"/></linearGradient><linearGradient id="linear-gradient-4" x1="10.73" y1="39.02" x2="696.08" y2="39.02" gradientUnits="userSpaceOnUse"><stop offset="0" stop-color="#737373"/><stop offset="0.11" stop-color="gray"/><stop offset="0.54" stop-color="#b3b3b3"/><stop offset="0.76" stop-color="#c7c7c7"/></linearGradient><radialGradient id="radial-gradient-9" cx="356.6" cy="1538.18" r="1348.55" gradientTransform="translate(0 -134.34) scale(1 0.49)" gradientUnits="userSpaceOnUse"><stop offset="0.85" stop-color="#404040" stop-opacity="0.4"/><stop offset="0.87" stop-color="#5f5f5f" stop-opacity="0.51"/><stop offset="0.91" stop-color="#ababab" stop-opacity="0.8"/><stop offset="0.94" stop-color="#e0e0e0"/></radialGradient><radialGradient id="radial-gradient-10" cx="-4210.38" cy="163.58" r="243.9" gradientTransform="matrix(0.1, 1.13, -0.2, 0.02, 508.43, 5107.99)" gradientUnits="userSpaceOnUse"><stop offset="0" stop-color="#ccc"/><stop offset="0.08" stop-color="#ccc" stop-opacity="0.83"/><stop offset="0.19" stop-color="#ccc" stop-opacity="0.61"/><stop offset="0.31" stop-color="#ccc" stop-opacity="0.42"/><stop offset="0.43" stop-color="#ccc" stop-opacity="0.27"/><stop offset="0.55" stop-color="#ccc" stop-opacity="0.15"/><stop offset="0.68" stop-color="#ccc" stop-opacity="0.07"/><stop offset="0.83" stop-color="#ccc" stop-opacity="0.02"/><stop offset="1" stop-color="#ccc" stop-opacity="0"/></radialGradient><radialGradient id="radial-gradient-11" cx="413.95" cy="3166.93" r="156.89" gradientTransform="translate(-229.91 -320.39) scale(1.55 0.11)" gradientUnits="userSpaceOnUse"><stop offset="0.15" stop-color="#c7c7c7"/><stop offset="0.24" stop-color="#c7c7c7" stop-opacity="0.81"/><stop offset="0.38" stop-color="#c7c7c7" stop-opacity="0.57"/><stop offset="0.51" stop-color="#c7c7c7" stop-opacity="0.36"/><stop offset="0.64" stop-color="#c7c7c7" stop-opacity="0.2"/><stop offset="0.77" stop-color="#c7c7c7" stop-opacity="0.09"/><stop offset="0.89" stop-color="#c7c7c7" stop-opacity="0.02"/><stop offset="1" stop-color="#c7c7c7" stop-opacity="0"/></radialGradient><radialGradient id="radial-gradient-12" cx="487.85" cy="3.91" r="152.71" gradientTransform="translate(2.74 -47.76) rotate(5.79) scale(1 0.63)" gradientUnits="userSpaceOnUse"><stop offset="0.2" stop-color="#e5e5e5" stop-opacity="0.6"/><stop offset="0.45" stop-color="#e5e5e5" stop-opacity="0.37"/><stop offset="0.75" stop-color="#e5e5e5" stop-opacity="0.1"/><stop offset="0.9" stop-color="#e5e5e5" stop-opacity="0"/></radialGradient><radialGradient id="radial-gradient-13" cx="655.68" cy="8741.69" r="313.87" gradientTransform="matrix(0.46, 0.04, -0.01, 0.07, 210.99, -583.46)" gradientUnits="userSpaceOnUse"><stop offset="0" stop-color="#e5e5e5" stop-opacity="0.8"/><stop offset="0.03" stop-color="#e5e5e5" stop-opacity="0.74"/><stop offset="0.15" stop-color="#e5e5e5" stop-opacity="0.54"/><stop offset="0.27" stop-color="#e5e5e5" stop-opacity="0.38"/><stop offset="0.4" stop-color="#e5e5e5" stop-opacity="0.24"/><stop offset="0.53" stop-color="#e5e5e5" stop-opacity="0.13"/><stop offset="0.67" stop-color="#e5e5e5" stop-opacity="0.06"/><stop offset="0.82" stop-color="#e5e5e5" stop-opacity="0.01"/><stop offset="1" stop-color="#e5e5e5" stop-opacity="0"/></radialGradient><radialGradient id="radial-gradient-14" cx="644.88" cy="597.56" fx="756.564411074134" fy="792.415065145289" r="547" gradientTransform="translate(551.34 1236.26) rotate(-84.22) scale(1 0.05)" gradientUnits="userSpaceOnUse"><stop offset="0" stop-color="#8c8c8c"/><stop offset="0.07" stop-color="#8c8c8c" stop-opacity="0.91"/><stop offset="0.38" stop-color="#8c8c8c" stop-opacity="0.52"/><stop offset="0.65" stop-color="#8c8c8c" stop-opacity="0.24"/><stop offset="0.87" stop-color="#8c8c8c" stop-opacity="0.06"/><stop offset="1" stop-color="#8c8c8c" stop-opacity="0"/></radialGradient><radialGradient id="radial-gradient-15" cx="697.93" cy="206.29" r="69.34" gradientUnits="userSpaceOnUse"><stop offset="0" stop-color="#ccc"/><stop offset="0.05" stop-color="#ccc" stop-opacity="0.92"/><stop offset="0.24" stop-color="#ccc" stop-opacity="0.64"/><stop offset="0.42" stop-color="#ccc" stop-opacity="0.41"/><stop offset="0.59" stop-color="#ccc" stop-opacity="0.23"/><stop offset="0.75" stop-color="#ccc" stop-opacity="0.1"/><stop offset="0.89" stop-color="#ccc" stop-opacity="0.03"/><stop offset="1" stop-color="#ccc" stop-opacity="0"/></radialGradient><radialGradient id="radial-gradient-16" cx="645.12" cy="665.95" r="63.13" xlink:href="#radial-gradient-15"/><clipPath id="clip-path"><path class="cls-1" d="M376.84,417.71c-6.72,19.22-30.61,20.63-46,16.54-14.26-3.79-4.14-15.24-.16-18.89-19.74,5.14-24.89,11.27-24.89,11.27s-26.37,40.76-23.38,82c0,0,14.43,63.38,20.4,67.85.34.26.75.61,1.23,1,1.3-.64,2.41-1.95,2.75-4.51,1-7.45-.77-22.12,13.93-21.12s15.43,19.88,31.36,26.84,22.89,3,31.85-2.49c0,0,17.41-41.25,19.4-82C405.18,456.79,415,430.26,376.84,417.71Z"/></clipPath><clipPath id="clip-path-2"><polygon class="cls-2" points="335.4 509.82 293.77 502.87 300.38 473.14 343.2 477.03 335.4 509.82"/></clipPath><clipPath id="clip-path-3"><path class="cls-1" d="M296.58,431.94l-6.5-24.88s-.28-2.11.41-2.63c1.67-1.27,6.28-1.3,14.43,1.89,11.53,4.5,17,15.94,17,15.94l-12.52,16.23Z"/></clipPath><clipPath id="clip-path-4"><path class="cls-1" d="M325.32,544l22.09-1.86s2,0,2.38.75c.92,1.72.29,6-3.81,13-2.1,3.6,0,7.51-3.64,8-9.93,1.4-23.94-4.82-23.94-4.82s-3.66-4.69-1.4-10.07C319.17,543.84,325.32,544,325.32,544Z"/></clipPath></defs><g class="cls-3"><g id="shadow"><g id="shadow-2" data-name="shadow"><ellipse class="cls-4" cx="453.68" cy="791.32" rx="439.49" ry="208.68"/><ellipse class="cls-5" cx="351.1" cy="849" rx="342.87" ry="105.95"/><ellipse class="cls-6" cx="360.09" cy="849.78" rx="314.99" ry="101.73"/></g></g><g id="merchandise"><g id="mug"><g id="handle"><g id="handle-2" data-name="handle"><path class="cls-7" d="M961.56,314.93a138.7,138.7,0,0,0-21.68-69.07,138.7,138.7,0,0,0-101.65-63.34c-.91-.1-1.82-.15-2.74-.23l-1.08-.15c-35.91-4-68.39-.87-93-5.2-12.58-2.21-23.12-6.37-31-14.41-6-6.05-11.13-16.67-11.13-16.67l-10.05,53.73L679,278.81a141.09,141.09,0,0,1,44.57-33.73,143.5,143.5,0,0,1,45.06-12.84c35.76-4.24,70.78,4.13,96,15.58a81,81,0,0,1,10.17,5.08A81.88,81.88,0,0,1,909.94,295a80.55,80.55,0,0,1,4.83,22.64c2.12,19.9-1.08,40.37-8.27,60.87C885.24,439.1,829.05,499.89,772.26,546.4s-114.19,78.75-137.89,82.29l-11.64,91.23c13.14-7.5,41.67-25,76.89-50s77.1-57.32,117-94.53C896.29,501,967.86,407.25,961.56,314.93Z"/><path class="cls-8" d="M699.2,145.86s5.17,10.62,11.13,16.67c7.92,8,18.46,12.2,31,14.41,24.65,4.33,57.15,1,93,5.2l1.08.15c.92.1,1.83.13,2.74.23A139,139,0,0,1,959.51,296a155.49,155.49,0,0,1,2,18.92c1.88,35.22-6.51,70.58-22.88,105-26.57,55.89-72.76,109.26-121.93,155.17-33.43,31.21-68.49,59.16-99.83,82.18q-8.83,6.5-17.25,12.45c-35.16,24.93-63.72,42.5-76.93,50.06l1.61-12.65,1.21-9.34c0-.12,9-68.5,9.51-68.8,5.93-.93,13.92-3.63,23.46-7.87,28.87-12.86,71.77-39.73,114.26-74.58,9-7.39,18-15.14,26.83-23.19,46.71-42.58,89.31-93.69,107.28-144.74,7.2-20.47,10.44-40.93,8.38-60.82a81.31,81.31,0,0,0-4.75-22.65c-.73-2-1.54-4-2.42-5.91A81.92,81.92,0,0,0,875.7,253a92,92,0,0,0-10.1-5.13,200.1,200.1,0,0,0-37.15-12.52c-4.51-1-9.14-1.88-13.86-2.58a174.49,174.49,0,0,0-44.75-.94,150.35,150.35,0,0,0-21.69,4.07,139.61,139.61,0,0,0-68.1,41.73c-.34,0,7-60.1,6.8-60L689,201.08l.2-1.51Z"/><path class="cls-9" d="M699.2,145.86s5.17,10.62,11.13,16.67c7.92,8,18.46,12.2,31,14.41,24.65,4.33,57.15,1,93,5.2l1.08.15c.92.1,1.83.13,2.74.23A139,139,0,0,1,959.51,296a155.49,155.49,0,0,1,2,18.92c1.88,35.18-6.5,70.51-22.83,104.93-26.58,55.87-72.76,109.19-121.81,155C783.59,606,748.45,634,717,657.1q-8.85,6.49-17.26,12.46c-35.12,24.91-63.69,42.53-77,50.16l1.62-12.64,1.22-9.34c0-.24,9.25-67.76,10.19-68.37,5.93-1,13.9-3.7,23.41-8,28.93-13,71.76-39.86,114.13-74.66,9-7.4,18-15.15,26.79-23.21,46.55-42.52,89.14-93.64,107.18-144.73,7.22-20.45,10.49-40.89,8.49-60.77a81.73,81.73,0,0,0-4.66-22.65q-1.08-3-2.39-5.92A82.22,82.22,0,0,0,876.6,253a90.74,90.74,0,0,0-10.05-5.19,196.75,196.75,0,0,0-37-12.72c-4.5-1-9.12-1.92-13.83-2.63a176.09,176.09,0,0,0-44.7-1.14,151.82,151.82,0,0,0-21.69,4,140.12,140.12,0,0,0-68.25,41.08c-.7.08,6.22-59,5.79-58.81L689,201.06l.19-1.51Z"/><path class="cls-10" d="M699.2,145.86s5.17,10.62,11.13,16.67c7.92,8,18.46,12.2,31,14.41,24.65,4.33,57.15,1,93,5.2l1.08.15c.92.1,1.83.13,2.74.23A139,139,0,0,1,959.51,296a155.49,155.49,0,0,1,2,18.92c1.88,35.15-6.48,70.43-22.78,104.82C912.2,475.61,866,528.88,817.09,574.55c-33.23,31-68.45,59.11-100,82.33q-8.85,6.51-17.28,12.48c-35.07,24.9-63.65,42.57-77,50.26L624.38,707l1.23-9.33c0-.35,9.46-67,10.87-67.94,5.94-1,13.9-3.78,23.36-8,29-13.13,71.77-40,114-74.75,9-7.4,18-15.16,26.76-23.22,46.38-42.45,89-93.58,107.08-144.72,7.23-20.43,10.54-40.85,8.61-60.73a82.38,82.38,0,0,0-4.58-22.64c-.72-2-1.5-4-2.37-5.92a82.13,82.13,0,0,0-31.84-36.58,91.22,91.22,0,0,0-10-5.26A193.61,193.61,0,0,0,830.63,235c-4.49-1.06-9.1-2-13.8-2.69a177.69,177.69,0,0,0-44.65-1.34,151.48,151.48,0,0,0-21.68,3.84,141.12,141.12,0,0,0-68.42,40.44c-1,.12,5.43-58,4.78-57.64L689,201l.2-1.5Z"/><path class="cls-11" d="M699.2,145.86s5.17,10.62,11.13,16.67c7.92,8,18.46,12.2,31,14.41,24.65,4.33,57.15,1,93,5.2l1.08.15c.92.1,1.83.13,2.74.23A139,139,0,0,1,959.51,296a155.49,155.49,0,0,1,2,18.92c1.88,35.11-6.46,70.36-22.73,104.71-26.58,55.84-72.78,109.07-121.57,154.62-33.12,30.93-68.43,59.09-100.14,82.41q-8.85,6.5-17.28,12.49c-35,24.88-63.63,42.6-77.06,50.36l1.61-12.63,1.25-9.33c.05-.47,9.66-66.29,11.54-67.5,6-1.09,13.9-3.84,23.32-8.12,29.07-13.21,71.76-40.13,113.87-74.83,9-7.41,17.94-15.17,26.72-23.24,46.21-42.39,88.8-93.52,107-144.71,7.24-20.4,10.59-40.81,8.72-60.68a82.67,82.67,0,0,0-4.51-22.64q-1-3-2.33-5.93a82.21,82.21,0,0,0-31.57-36.72,92.35,92.35,0,0,0-9.92-5.32,190.14,190.14,0,0,0-36.75-13.11c-4.47-1.07-9.08-2-13.78-2.74a177.36,177.36,0,0,0-44.6-1.54,151,151,0,0,0-21.66,3.72,145,145,0,0,0-23.41,8A143.1,143.1,0,0,0,683.09,274c-1.39.15,4.63-56.94,3.78-56.47L689,201l.2-1.5Z"/><path class="cls-12" d="M699.2,145.86s5.17,10.62,11.13,16.67c7.92,8,18.46,12.2,31,14.41,24.65,4.33,57.15,1,93,5.2l1.08.15c.92.1,1.83.13,2.74.23A139,139,0,0,1,959.51,296a155.49,155.49,0,0,1,2,18.92c1.88,35.07-6.44,70.29-22.68,104.6C912.3,475.36,866.1,528.54,817.43,574c-33,30.83-68.42,59-100.24,82.47Q708.34,663,699.89,669c-35,24.87-63.59,42.64-77.1,50.45l1.61-12.62,1.26-9.32c.07-.58,9.88-65.56,12.22-67.07,6-1.13,13.89-3.91,23.27-8.2,29.14-13.33,71.76-40.26,113.75-74.91,9-7.42,17.91-15.19,26.68-23.26,46-42.33,88.64-93.46,106.89-144.69,7.26-20.39,10.64-40.79,8.83-60.64a83,83,0,0,0-4.42-22.64q-1-3-2.3-5.93a82.34,82.34,0,0,0-31.29-36.87,92,92,0,0,0-9.87-5.38,186.46,186.46,0,0,0-36.61-13.3c-4.46-1.1-9.06-2-13.75-2.81A179,179,0,0,0,774.51,230a152.44,152.44,0,0,0-21.66,3.6,148.55,148.55,0,0,0-23.42,7.86,143.73,143.73,0,0,0-45.33,31.3c-1.74.19,3.84-55.89,2.77-55.3L689,201l.2-1.5Z"/><path class="cls-13" d="M699.2,145.86s5.17,10.62,11.13,16.67c7.92,8,18.46,12.2,31,14.41,24.65,4.33,57.15,1,93,5.2l1.08.15c.92.1,1.83.13,2.74.23A139,139,0,0,1,959.51,296a155.49,155.49,0,0,1,2,18.92c1.87,35-6.42,70.21-22.63,104.49-26.59,55.82-72.79,109-121.33,154.27-32.92,30.74-68.4,59-100.34,82.55q-8.87,6.51-17.31,12.52c-34.94,24.85-63.57,42.67-77.15,50.55l1.61-12.61,1.28-9.32c.07-.7,10.08-64.82,12.9-66.64,6-1.18,13.87-4,23.21-8.28,29.21-13.45,71.76-40.39,113.63-75,9-7.43,17.89-15.2,26.64-23.28,45.88-42.27,88.47-93.4,106.8-144.68,7.27-20.37,10.68-40.75,8.94-60.59a84.17,84.17,0,0,0-4.34-22.64c-.68-2-1.44-4-2.27-5.94a82.67,82.67,0,0,0-31-37,93.36,93.36,0,0,0-9.81-5.44,184,184,0,0,0-36.47-13.5c-4.46-1.11-9-2.08-13.73-2.86a180,180,0,0,0-44.5-1.93A152.12,152.12,0,0,0,754,233.09a148.12,148.12,0,0,0-23.43,7.7,144.35,144.35,0,0,0-45.49,30.81c-2.08.23,3-54.84,1.76-54.13L689,201l.2-1.5Z"/><path class="cls-14" d="M699.2,145.86s5.17,10.62,11.13,16.67c7.92,8,18.46,12.2,31,14.41,24.65,4.33,57.15,1,93,5.2l1.08.15c.92.1,1.83.13,2.74.23A139,139,0,0,1,959.51,296a155.49,155.49,0,0,1,2,18.92c1.87,35-6.41,70.14-22.58,104.39-26.59,55.8-72.79,108.88-121.21,154.08C785,604,749.39,632.4,717.33,656q-8.87,6.53-17.33,12.55c-34.89,24.83-63.53,42.7-77.18,50.64l1.61-12.61,1.28-9.31c.09-.81,10.29-64.08,13.58-66.21,6-1.23,13.87-4.05,23.17-8.36,29.28-13.57,71.76-40.53,113.49-75.08,9-7.42,17.88-15.21,26.61-23.29,45.71-42.21,88.3-93.34,106.7-144.67,7.28-20.34,10.74-40.71,9-60.55a84.24,84.24,0,0,0-4.25-22.64c-.68-2-1.42-4-2.24-5.93a83,83,0,0,0-15.51-24.21,82.15,82.15,0,0,0-15.23-12.94,92,92,0,0,0-9.75-5.51A181.78,181.78,0,0,0,835,234.2c-4.45-1.13-9-2.11-13.71-2.91a181,181,0,0,0-44.44-2.13,148.72,148.72,0,0,0-45.09,10.91,145.21,145.21,0,0,0-45.64,30.32c-2.43.28,2.26-53.78.76-52.95l2.1-16.5.2-1.5Z"/><path class="cls-15" d="M699.2,145.86s5.17,10.62,11.13,16.67c7.92,8,18.46,12.2,31,14.41,24.65,4.33,57.15,1,93,5.2l1.08.15c.92.1,1.83.13,2.74.23A139,139,0,0,1,959.51,296a155.49,155.49,0,0,1,2,18.92c1.87,35-6.39,70.06-22.53,104.28C912.44,475,866.23,528,817.94,573.11c-32.72,30.55-68.36,59-100.54,82.69q-8.88,6.54-17.34,12.57c-34.85,24.82-63.5,42.73-77.23,50.74l1.61-12.6,1.3-9.31c.1-.93,10.5-63.35,14.25-65.77,6-1.29,13.86-4.13,23.12-8.45,29.35-13.69,71.76-40.66,113.37-75.16,8.95-7.43,17.86-15.22,26.57-23.31,45.54-42.15,88.13-93.28,106.61-144.66,7.29-20.32,10.78-40.67,9.16-60.5a85.42,85.42,0,0,0-4.17-22.64q-1-3-2.22-5.94a82.68,82.68,0,0,0-15.34-24.26,81.86,81.86,0,0,0-15.11-13,92.55,92.55,0,0,0-9.69-5.57A178.15,178.15,0,0,0,836.09,234c-4.44-1.16-9-2.16-13.68-3A182,182,0,0,0,778,228.72a148.89,148.89,0,0,0-45.09,10.64,145.82,145.82,0,0,0-45.8,29.83c-2.77.31,1.47-52.73-.25-51.78L689,200.92l.2-1.5Z"/><path class="cls-16" d="M699.2,145.86s5.17,10.62,11.13,16.67c7.92,8,18.46,12.2,31,14.41,24.65,4.33,57.15,1,93,5.2l1.08.15c.92.1,1.83.13,2.74.23A139,139,0,0,1,959.51,296a155.49,155.49,0,0,1,2,18.92c1.87,34.93-6.37,70-22.48,104.17-26.6,55.77-72.8,108.76-121,153.72-32.63,30.46-68.35,58.95-100.65,82.77q-8.88,6.54-17.36,12.58C665.32,693,636.64,710.94,622.84,719l1.61-12.6,1.32-9.3c.11-1,10.7-62.61,14.93-65.34,6-1.33,13.85-4.2,23.06-8.53C693.18,609.43,735.52,582.45,777,548c8.94-7.44,17.83-15.23,26.53-23.33,45.38-42.08,88-93.22,106.51-144.64,7.31-20.31,10.83-40.64,9.27-60.46a85.35,85.35,0,0,0-4.09-22.64q-1-3-2.18-5.95a83.78,83.78,0,0,0-15.18-24.32,82,82,0,0,0-15-13.11,91,91,0,0,0-9.62-5.63,175.59,175.59,0,0,0-36.07-14.09c-4.43-1.17-9-2.19-13.65-3a183.57,183.57,0,0,0-44.34-2.53,151.37,151.37,0,0,0-21.63,3.13,152.91,152.91,0,0,0-23.47,7.23,146.64,146.64,0,0,0-46,29.35c-3.12.35.68-51.68-1.25-50.62l2.1-16.48.2-1.49Z"/><path class="cls-17" d="M699.2,145.86s5.17,10.62,11.13,16.67c7.92,8,18.46,12.2,31,14.41,24.65,4.33,57.15,1,93,5.2l1.08.15c.92.1,1.83.13,2.74.23A139,139,0,0,1,959.51,296a155.49,155.49,0,0,1,2,18.92c1.87,34.89-6.35,69.92-22.43,104.06-26.6,55.76-72.81,108.7-120.84,153.54-32.52,30.36-68.34,58.92-100.76,82.84q-8.88,6.55-17.36,12.6c-34.75,24.79-63.44,42.8-77.31,50.94l1.6-12.59,1.33-9.3c.13-1.16,10.91-61.88,15.61-64.91,6-1.38,13.84-4.27,23-8.61,29.48-13.94,71.76-40.93,113.11-75.32,8.94-7.45,17.82-15.25,26.5-23.34,45.21-42,87.79-93.17,106.42-144.64,7.32-20.28,10.88-40.6,9.38-60.42a86.08,86.08,0,0,0-4-22.63c-.64-2-1.37-4-2.15-5.95a83.73,83.73,0,0,0-15-24.38,81.75,81.75,0,0,0-14.88-13.2,94.24,94.24,0,0,0-9.57-5.69,173,173,0,0,0-35.93-14.29c-4.42-1.19-9-2.24-13.63-3.08a183.45,183.45,0,0,0-44.28-2.72,149.44,149.44,0,0,0-21.62,3,151.69,151.69,0,0,0-23.48,7.07,147.64,147.64,0,0,0-46.11,28.86c-3.47.39-.11-50.63-2.26-49.45l2.1-16.47.21-1.49Z"/><path class="cls-18" d="M699.2,145.86s5.17,10.62,11.13,16.67c7.92,8,18.46,12.2,31,14.41,24.65,4.33,57.15,1,93,5.2l1.08.15c.92.1,1.83.13,2.74.23A139,139,0,0,1,959.51,296a155.49,155.49,0,0,1,2,18.92c1.86,34.85-6.34,69.84-22.38,104-26.6,55.75-72.82,108.64-120.72,153.36-32.42,30.27-68.32,58.9-100.86,82.92-5.92,4.37-11.73,8.58-17.38,12.61-34.7,24.77-63.41,42.84-77.35,51l1.6-12.59,1.35-9.28c.14-1.28,11.12-61.15,16.28-64.49,6-1.43,13.83-4.34,23-8.69,29.55-14.06,71.76-41.06,113-75.41,8.93-7.45,17.8-15.25,26.47-23.35,45-42,87.61-93.11,106.31-144.63,7.33-20.26,10.93-40.56,9.5-60.37a87,87,0,0,0-3.93-22.63c-.64-2-1.35-4-2.12-6A84,84,0,0,0,899.44,267a82.55,82.55,0,0,0-14.77-13.28,91.33,91.33,0,0,0-9.51-5.75,169.75,169.75,0,0,0-35.8-14.49c-4.41-1.22-9-2.28-13.6-3.14a184.41,184.41,0,0,0-44.23-2.92,150.79,150.79,0,0,0-21.62,2.9,155.59,155.59,0,0,0-23.49,6.91,148.57,148.57,0,0,0-46.26,28.38c-3.81.43-.91-49.57-3.27-48.28L689,200.85l.2-1.5Z"/><path class="cls-19" d="M699.2,145.86s5.17,10.62,11.13,16.67c7.92,8,18.46,12.2,31,14.41,24.65,4.33,57.15,1,93,5.2l1.08.15c.92.1,1.83.13,2.74.23A139,139,0,0,1,959.51,296a155.49,155.49,0,0,1,2,18.92c1.86,34.82-6.32,69.77-22.33,103.85C912.63,474.5,866.41,527.35,818.63,572c-32.32,30.17-68.3,58.86-101,83q-8.88,6.57-17.39,12.63c-34.66,24.76-63.38,42.88-77.4,51.14l1.61-12.58,1.35-9.28c.15-1.4,11.33-60.42,17-64.05A126,126,0,0,0,665.72,624c29.62-14.18,71.76-41.19,112.87-75.49,8.92-7.46,17.77-15.27,26.43-23.37,44.86-41.91,87.44-93,106.22-144.62,7.34-20.24,11-40.52,9.6-60.32A87.33,87.33,0,0,0,917,297.59c-.63-2-1.33-4-2.09-6a84.31,84.31,0,0,0-14.69-24.5,82.35,82.35,0,0,0-14.66-13.36,91.48,91.48,0,0,0-9.44-5.81,167.78,167.78,0,0,0-35.66-14.69c-4.4-1.23-9-2.32-13.58-3.19A184.85,184.85,0,0,0,782.7,227a150.38,150.38,0,0,0-21.61,2.77,154.41,154.41,0,0,0-23.51,6.75,149.14,149.14,0,0,0-46.41,27.89c-4.16.47-1.7-48.51-4.27-47.1l2.1-16.46.2-1.49Z"/><path class="cls-20" d="M699.2,145.86s5.17,10.62,11.13,16.67c7.92,8,18.46,12.2,31,14.41,24.65,4.33,57.15,1,93,5.2l1.08.15c.92.1,1.83.13,2.74.23A139,139,0,0,1,959.51,296a155.49,155.49,0,0,1,2,18.92c1.86,34.78-6.3,69.7-22.28,103.74-26.61,55.71-72.83,108.5-120.48,153-32.22,30.08-68.28,58.84-101.06,83.06q-8.9,6.56-17.41,12.65c-34.61,24.73-63.34,42.9-77.43,51.23L624.5,706l1.37-9.27c.16-1.51,11.54-59.68,17.64-63.62a128.92,128.92,0,0,0,22.87-8.86C696.06,610,738.14,583,779.12,548.71c8.91-7.47,17.75-15.28,26.39-23.39,44.7-41.85,87.27-93,106.12-144.6,7.36-20.22,11-40.49,9.72-60.28a88.12,88.12,0,0,0-3.76-22.63c-.62-2-1.32-4-2.07-6A84.46,84.46,0,0,0,901,267.29a82.48,82.48,0,0,0-14.54-13.45,93,93,0,0,0-9.39-5.87,164.94,164.94,0,0,0-35.52-14.88c-4.39-1.26-8.93-2.36-13.56-3.25a185.67,185.67,0,0,0-44.12-3.31,150,150,0,0,0-21.6,2.65,156.63,156.63,0,0,0-23.52,6.6,149.88,149.88,0,0,0-46.57,27.4c-4.5.51-2.49-47.46-5.28-45.93L689,200.8l.21-1.49Z"/><path class="cls-21" d="M699.2,145.86s5.17,10.62,11.13,16.67c7.92,8,18.46,12.2,31,14.41,24.65,4.33,57.15,1,93,5.2l1.08.15c.92.1,1.83.13,2.74.23A139,139,0,0,1,959.51,296a155.49,155.49,0,0,1,2,18.92c1.86,34.74-6.28,69.62-22.23,103.63C912.72,474.26,866.5,527,819,571.38c-32.12,30-68.27,58.81-101.16,83.13q-8.89,6.57-17.42,12.67c-34.57,24.72-63.32,42.94-77.48,51.33l1.6-12.58,1.38-9.26c.18-1.63,11.75-58.94,18.32-63.19A131.65,131.65,0,0,0,667,624.54c29.75-14.43,71.76-41.46,112.61-75.65,8.91-7.48,17.74-15.29,26.36-23.41,44.53-41.79,87.1-92.93,106-144.59,7.37-20.2,11.07-40.45,9.82-60.24A88.71,88.71,0,0,0,918.17,298c-.6-2-1.29-4-2-6a84.61,84.61,0,0,0-14.36-24.62,83,83,0,0,0-14.42-13.53A93.76,93.76,0,0,0,878,248a162.77,162.77,0,0,0-35.39-15.08c-4.38-1.28-8.91-2.4-13.53-3.3A186.59,186.59,0,0,0,785,226.09a150,150,0,0,0-21.59,2.53,158,158,0,0,0-23.53,6.44A151.2,151.2,0,0,0,693.19,262c-4.85.55-3.28-46.41-6.28-44.76L689,200.78l.21-1.49Z"/><path class="cls-22" d="M699.2,145.86s5.17,10.62,11.13,16.67c7.92,8,18.46,12.2,31,14.41,24.65,4.33,57.15,1,93,5.2l1.08.15c.92.1,1.83.13,2.74.23A139,139,0,0,1,959.51,296a155.49,155.49,0,0,1,2,18.92c1.86,34.71-6.26,69.55-22.18,103.52-26.61,55.69-72.84,108.38-120.24,152.64-32,29.89-68.25,58.79-101.26,83.21Q709,660.87,700.44,667c-34.52,24.7-63.28,43-77.52,51.43l1.6-12.57,1.4-9.26c.19-1.74,12-58.21,19-62.76a134.43,134.43,0,0,0,22.76-9c29.82-14.56,71.76-41.59,112.49-75.74,8.9-7.47,17.72-15.3,26.32-23.42,44.36-41.72,86.93-92.88,105.93-144.58,7.38-20.17,11.13-40.41,9.94-60.19a89.16,89.16,0,0,0-3.6-22.63q-.9-3-2-6a84.86,84.86,0,0,0-14.19-24.67A82.8,82.8,0,0,0,888.25,254a92.2,92.2,0,0,0-9.26-6,162.05,162.05,0,0,0-35.26-15.28c-4.37-1.28-8.89-2.44-13.51-3.36a187.86,187.86,0,0,0-44-3.7,151,151,0,0,0-21.58,2.42,157.8,157.8,0,0,0-23.54,6.28,152,152,0,0,0-46.88,26.43c-5.2.58-4.07-45.36-7.29-43.59l2.1-16.44.21-1.48Z"/><path class="cls-23" d="M699.2,145.86s5.17,10.62,11.13,16.67c7.92,8,18.46,12.2,31,14.41,24.65,4.33,57.15,1,93,5.2l1.08.15c.92.1,1.83.13,2.74.23A139,139,0,0,1,959.51,296a155.49,155.49,0,0,1,2,18.92c1.85,34.67-6.25,69.47-22.13,103.41C912.81,474,866.58,526.66,819.31,570.8c-31.91,29.8-68.23,58.76-101.37,83.28q-8.9,6.58-17.44,12.7c-34.48,24.69-63.26,43-77.57,51.53l1.61-12.57,1.4-9.25c.21-1.86,12.17-57.47,19.68-62.32a138.82,138.82,0,0,0,22.72-9.11c29.88-14.68,71.75-41.73,112.36-75.82,8.88-7.48,17.69-15.31,26.28-23.44,44.19-41.66,86.76-92.82,105.83-144.57,7.4-20.15,11.18-40.38,10.05-60.14a90,90,0,0,0-3.51-22.63q-.89-3-2-6a85.26,85.26,0,0,0-14-24.74,83.29,83.29,0,0,0-14.2-13.69,93.16,93.16,0,0,0-9.21-6.06,159.42,159.42,0,0,0-35.12-15.47c-4.36-1.31-8.87-2.48-13.48-3.42a188.69,188.69,0,0,0-44-3.9,150.75,150.75,0,0,0-21.57,2.3,160.51,160.51,0,0,0-23.56,6.12,152.89,152.89,0,0,0-47,25.95c-5.55.62-4.87-44.31-8.31-42.42l2.1-16.43.21-1.49Z"/><path class="cls-24" d="M699.2,145.86s5.17,10.62,11.13,16.67c7.92,8,18.46,12.2,31,14.41,24.65,4.33,57.15,1,93,5.2l1.08.15c.92.1,1.83.13,2.74.23A139,139,0,0,1,959.51,296a155.49,155.49,0,0,1,2,18.92c1.85,34.63-6.23,69.4-22.08,103.31-26.62,55.65-72.85,108.25-120,152.27-31.81,29.7-68.21,58.73-101.47,83.36q-8.91,6.58-17.46,12.71c-34.42,24.67-63.22,43-77.6,51.63l1.6-12.56L626,696.4c.22-2,12.37-56.74,20.35-61.89A140.59,140.59,0,0,0,669,625.32c30-14.81,71.76-41.86,112.23-75.9,8.88-7.49,17.68-15.33,26.25-23.46,44-41.6,86.59-92.76,105.74-144.56,7.41-20.13,11.22-40.34,10.16-60.1a90.91,90.91,0,0,0-3.43-22.62c-.58-2-1.24-4-1.94-6a85.45,85.45,0,0,0-13.87-24.79,83.08,83.08,0,0,0-14.08-13.78A94.64,94.64,0,0,0,880.9,248a157.63,157.63,0,0,0-35-15.67c-4.35-1.32-8.85-2.52-13.45-3.47a189.53,189.53,0,0,0-43.92-4.1A151.91,151.91,0,0,0,767,227a161.82,161.82,0,0,0-23.56,6,154,154,0,0,0-47.18,25.46c-5.9.66-5.66-43.26-9.31-41.25L689,200.71l.21-1.49Z"/><path class="cls-25" d="M699.2,145.86s5.17,10.62,11.13,16.67c7.92,8,18.46,12.2,31,14.41,24.65,4.33,57.15,1,93,5.2l1.08.15c.92.1,1.83.13,2.74.23A139,139,0,0,1,959.51,296a155.49,155.49,0,0,1,2,18.92c1.85,34.6-6.21,69.33-22,103.2-26.62,55.64-72.86,108.19-119.88,152.09-31.71,29.61-68.2,58.71-101.57,83.43q-8.91,6.6-17.47,12.73C666.23,691,637.41,709.46,623,718.11l1.6-12.56,1.44-9.24c.22-2.09,12.57-56,21-61.46a144.05,144.05,0,0,0,22.61-9.27c30-14.93,71.76-42,112.11-76,8.87-7.5,17.66-15.34,26.21-23.48,43.86-41.54,86.42-92.7,105.64-144.54,7.43-20.11,11.28-40.31,10.27-60.06a90.85,90.85,0,0,0-3.35-22.62c-.56-2-1.21-4-1.91-6a85.44,85.44,0,0,0-13.7-24.85,82.9,82.9,0,0,0-14-13.86,94.76,94.76,0,0,0-9.08-6.18A155.82,155.82,0,0,0,847,232.15c-4.35-1.34-8.84-2.55-13.44-3.52a190.14,190.14,0,0,0-43.86-4.3,153,153,0,0,0-21.56,2.06,164.65,164.65,0,0,0-23.58,5.81,155.71,155.71,0,0,0-47.33,25c-6.24.71-6.46-42.2-10.32-40.07l2.1-16.42.21-1.48Z"/><path class="cls-26" d="M699.2,145.86s5.17,10.62,11.13,16.67c7.92,8,18.46,12.2,31,14.41,24.65,4.33,57.15,1,93,5.2l1.08.15c.92.1,1.83.13,2.74.23A139,139,0,0,1,959.51,296a155.49,155.49,0,0,1,2,18.92c1.85,34.56-6.19,69.25-22,103.09C913,473.65,866.72,526.15,819.82,569.94c-31.61,29.51-68.18,58.67-101.67,83.5q-8.92,6.6-17.48,12.75C666.33,690.82,637.5,709.29,623,718l1.6-12.55,1.45-9.24c.24-2.21,12.79-55.27,21.71-61a148.38,148.38,0,0,0,22.57-9.35c30.08-15.06,71.75-42.13,112-76.07,8.86-7.5,17.63-15.35,26.17-23.49C852.14,484.8,894.71,433.64,914,381.75c7.43-20.09,11.32-40.27,10.38-60a91.73,91.73,0,0,0-3.27-22.62c-.56-2-1.19-4-1.88-6a86.12,86.12,0,0,0-13.53-24.91,83.53,83.53,0,0,0-13.86-14,95.86,95.86,0,0,0-9-6.24A153.4,153.4,0,0,0,848.1,232c-4.34-1.37-8.82-2.6-13.41-3.59a192,192,0,0,0-43.81-4.49,151.1,151.1,0,0,0-21.55,2,166.12,166.12,0,0,0-23.6,5.64A157.35,157.35,0,0,0,698.25,256c-6.59.74-7.25-41.14-11.32-38.9L689,200.66l.21-1.48Z"/><path class="cls-27" d="M699.2,145.86s5.17,10.62,11.13,16.67c7.92,8,18.46,12.2,31,14.41,24.65,4.33,57.15,1,93,5.2l1.08.15c.92.1,1.83.13,2.74.23A139,139,0,0,1,959.51,296a155.49,155.49,0,0,1,2,18.92c1.85,34.52-6.17,69.18-21.93,103C913,473.52,866.76,526,820,569.65c-31.51,29.41-68.16,58.65-101.77,83.57q-8.93,6.62-17.5,12.77c-34.29,24.62-63.13,43.14-77.73,51.92l1.59-12.55,1.47-9.23c.25-2.32,13-54.53,22.38-60.59A153.08,153.08,0,0,0,671,626.1c30.14-15.19,71.76-42.26,111.86-76.15,8.85-7.51,17.61-15.36,26.13-23.51C852.46,485,895,433.86,914.39,381.92c7.45-20.07,11.37-40.23,10.5-60a93.42,93.42,0,0,0-3.19-22.63c-.55-2-1.18-4-1.85-6a86.39,86.39,0,0,0-13.37-25,83.61,83.61,0,0,0-13.74-14,95.65,95.65,0,0,0-9-6.31,151.79,151.79,0,0,0-34.58-16.26c-4.33-1.38-8.8-2.63-13.38-3.64a192.77,192.77,0,0,0-43.76-4.69,152.4,152.4,0,0,0-21.55,1.83,167.47,167.47,0,0,0-23.6,5.49,158.51,158.51,0,0,0-47.64,24c-6.94.78-8-40.09-12.33-37.73l2.09-16.4.22-1.48Z"/><path class="cls-28" d="M699.2,145.86s5.17,10.62,11.13,16.67c7.92,8,18.46,12.2,31,14.41,24.65,4.33,57.15,1,93,5.2l1.08.15c.92.1,1.83.13,2.74.23A139,139,0,0,1,959.51,296a155.49,155.49,0,0,1,2,18.92c1.85,34.49-6.16,69.1-21.88,102.87-26.63,55.6-72.87,108-119.52,151.56C788.75,598.68,752,628,718.29,653q-8.94,6.62-17.51,12.79c-34.25,24.6-63.11,43.17-77.78,52l1.6-12.54,1.47-9.22c.27-2.45,13.2-53.8,23.07-60.17a155.94,155.94,0,0,0,22.46-9.52C701.81,611,743.36,584,783.33,550.13c8.85-7.52,17.6-15.37,26.1-23.53,43.36-41.35,85.92-92.52,105.36-144.51,7.46-20,11.42-40.19,10.6-59.92a93.35,93.35,0,0,0-3.1-22.62c-.54-2-1.16-4-1.82-6a86.53,86.53,0,0,0-13.21-25,83.5,83.5,0,0,0-13.63-14.11,94.58,94.58,0,0,0-8.91-6.37,149.52,149.52,0,0,0-34.44-16.45c-4.32-1.41-8.78-2.68-13.36-3.7a193.21,193.21,0,0,0-43.7-4.89,153.44,153.44,0,0,0-21.54,1.71,170.12,170.12,0,0,0-23.62,5.33,160.19,160.19,0,0,0-47.79,23.52c-7.28.82-8.83-39-13.34-36.57l2.1-16.39.21-1.48Z"/><path class="cls-29" d="M699.2,145.86s5.17,10.62,11.13,16.67c7.92,8,18.46,12.2,31,14.41,24.65,4.33,57.15,1,93,5.2l1.08.15c.92.1,1.83.13,2.74.23A139,139,0,0,1,959.51,296a155.49,155.49,0,0,1,2,18.92c1.84,34.45-6.14,69-21.83,102.77-26.63,55.58-72.88,107.94-119.4,151.37-31.3,29.23-68.12,58.6-102,83.72-6,4.41-11.81,8.69-17.52,12.8-34.2,24.59-63.07,43.21-77.82,52.11l1.6-12.53L626.1,696c.28-2.56,13.41-53.07,23.74-59.74a159.68,159.68,0,0,0,22.42-9.6c30.27-15.45,71.75-42.52,111.6-76.31,8.84-7.53,17.58-15.39,26.06-23.54,43.19-41.3,85.75-92.47,105.26-144.5,7.48-20,11.47-40.16,10.72-59.88a94.8,94.8,0,0,0-3-22.62c-.53-2-1.14-4-1.79-6A86.92,86.92,0,0,0,908,268.68a84,84,0,0,0-13.51-14.19,95,95,0,0,0-8.85-6.42,147,147,0,0,0-34.31-16.66c-4.3-1.42-8.76-2.71-13.33-3.75a193.89,193.89,0,0,0-43.65-5.09,154.51,154.51,0,0,0-21.53,1.59,171.31,171.31,0,0,0-23.63,5.18,161.48,161.48,0,0,0-48,23c-7.63.85-9.62-38-14.34-35.4L689,200.59l.22-1.48Z"/><path class="cls-30" d="M699.2,145.86s5.17,10.62,11.13,16.67c7.92,8,18.46,12.2,31,14.41,24.65,4.33,57.15,1,93,5.2l1.08.15c.92.1,1.83.13,2.74.23A139,139,0,0,1,959.51,296a155.49,155.49,0,0,1,2,18.92c1.84,34.41-6.12,69-21.78,102.66-26.64,55.57-72.89,107.88-119.28,151.19-31.2,29.14-68.11,58.57-102.08,83.79q-8.94,6.63-17.53,12.82c-34.16,24.58-63,43.24-77.87,52.21l1.6-12.52,1.5-9.21c.3-2.68,13.62-52.33,24.42-59.31a164.75,164.75,0,0,0,22.37-9.68c30.34-15.57,71.75-42.66,111.48-76.4,8.83-7.53,17.55-15.39,26-23.55,43-41.24,85.58-92.41,105.17-144.49,7.48-20,11.52-40.12,10.82-59.83A94.32,94.32,0,0,0,923.46,300c-.52-2-1.12-4-1.76-6a87,87,0,0,0-12.87-25.15,84.38,84.38,0,0,0-13.41-14.28,95.08,95.08,0,0,0-8.78-6.48,145.6,145.6,0,0,0-34.18-16.86c-4.29-1.44-8.75-2.75-13.3-3.8a195.05,195.05,0,0,0-43.6-5.29A154.29,154.29,0,0,0,774,223.6a173.08,173.08,0,0,0-23.64,5,163.43,163.43,0,0,0-48.1,22.55c-8,.89-10.41-36.94-15.35-34.23L689,200.57l.22-1.48Z"/><path class="cls-31" d="M699.2,145.86s5.17,10.62,11.13,16.67c7.92,8,18.46,12.2,31,14.41,24.65,4.33,57.15,1,93,5.2l1.08.15c.92.1,1.83.13,2.74.23A139,139,0,0,1,959.51,296a155.49,155.49,0,0,1,2,18.92c1.84,34.38-6.1,68.88-21.73,102.55-26.64,55.55-72.89,107.82-119.16,151-31.1,29-68.09,58.55-102.18,83.87-6,4.42-11.83,8.71-17.55,12.83-34.11,24.56-63,43.28-77.9,52.31L624.63,705l1.52-9.2c.3-2.79,13.82-51.6,25.1-58.87a170.88,170.88,0,0,0,22.31-9.77c30.41-15.7,71.76-42.79,111.35-76.48,8.83-7.53,17.54-15.41,26-23.57,42.84-41.18,85.4-92.35,105.06-144.48,7.5-20,11.57-40.08,10.94-59.78a95.87,95.87,0,0,0-2.86-22.62c-.51-2-1.1-4-1.73-6A87.3,87.3,0,0,0,909.61,269a84.49,84.49,0,0,0-13.29-14.35,92,92,0,0,0-8.73-6.55,143.54,143.54,0,0,0-34-17.05c-4.28-1.47-8.73-2.79-13.28-3.87a196.14,196.14,0,0,0-43.55-5.48,155.25,155.25,0,0,0-21.51,1.36,174.21,174.21,0,0,0-23.65,4.86A165.1,165.1,0,0,0,703.3,250c-8.32.94-11.2-35.88-16.35-33.05L689,200.54l.22-1.47Z"/><path class="cls-32" d="M699.2,145.86s5.17,10.62,11.13,16.67c7.92,8,18.46,12.2,31,14.41,24.65,4.33,57.15,1,93,5.2l1.08.15c.92.1,1.83.13,2.74.23A139,139,0,0,1,959.51,296a155.49,155.49,0,0,1,2,18.92c1.84,34.34-6.09,68.81-21.68,102.44-26.64,55.54-72.9,107.76-119,150.83-31,28.95-68.08,58.52-102.29,83.94q-9,6.65-17.56,12.86c-34.07,24.54-63,43.3-78,52.4l1.59-12.51,1.53-9.2c.32-2.91,14-50.86,25.78-58.44a174.39,174.39,0,0,0,22.27-9.85c30.47-15.83,71.75-42.92,111.22-76.56,8.82-7.54,17.52-15.42,26-23.59,42.68-41.12,85.23-92.29,105-144.47,7.51-20,11.61-40,11-59.74a96.33,96.33,0,0,0-2.77-22.61c-.5-2-1.08-4-1.7-6a87.91,87.91,0,0,0-12.55-25.26,84.37,84.37,0,0,0-13.17-14.44,96.22,96.22,0,0,0-8.67-6.61,142.12,142.12,0,0,0-33.9-17.25c-4.28-1.48-8.72-2.83-13.26-3.92a197.83,197.83,0,0,0-43.5-5.68,154.77,154.77,0,0,0-21.5,1.24,177.35,177.35,0,0,0-23.67,4.7,167.1,167.1,0,0,0-48.41,21.57c-8.67,1-12-34.83-17.36-31.88L689,200.52l.22-1.47Z"/><path class="cls-33" d="M699.2,145.86s5.17,10.62,11.13,16.67c7.92,8,18.46,12.2,31,14.41,24.65,4.33,57.15,1,93,5.2l1.08.15c.92.1,1.83.13,2.74.23A139,139,0,0,1,959.51,296a155.49,155.49,0,0,1,2,18.92c1.84,34.3-6.07,68.73-21.63,102.33C913.28,472.79,867,525,821,567.92c-30.91,28.85-68.06,58.48-102.39,84q-9,6.65-17.58,12.87c-34,24.52-62.95,43.34-78,52.5l1.6-12.51,1.54-9.19c.33-3,14.24-50.13,26.45-58a179.62,179.62,0,0,0,22.22-9.93C705.4,611.7,746.62,584.6,786,551c8.81-7.55,17.49-15.43,25.92-23.61C854.4,486.35,897,435.18,916.76,383c7.52-19.94,11.67-40,11.16-59.69a97.58,97.58,0,0,0-2.69-22.62c-.49-2-1.06-4-1.67-6a88.49,88.49,0,0,0-12.38-25.33,85.05,85.05,0,0,0-13.07-14.52,96.28,96.28,0,0,0-8.6-6.67,140.82,140.82,0,0,0-33.77-17.45c-4.27-1.5-8.7-2.86-13.23-4a198.29,198.29,0,0,0-43.45-5.88,156.15,156.15,0,0,0-21.5,1.12,180.76,180.76,0,0,0-23.68,4.54,169.36,169.36,0,0,0-48.56,21.09c-9,1-12.79-33.78-18.37-30.71L689,200.5l.22-1.48Z"/><path class="cls-34" d="M699.2,145.86s5.17,10.62,11.13,16.67c7.92,8,18.46,12.2,31,14.41,24.65,4.33,57.15,1,93,5.2l1.08.15c.92.1,1.83.13,2.74.23A139,139,0,0,1,959.51,296a155.49,155.49,0,0,1,2,18.92c1.83,34.26-6,68.66-21.58,102.23-26.65,55.51-72.91,107.63-118.79,150.47-30.81,28.75-68.05,58.46-102.49,84.08q-9,6.66-17.59,12.89c-34,24.51-62.92,43.37-78,52.6l1.59-12.5,1.56-9.19c.34-3.14,14.44-49.39,27.13-57.58a184.87,184.87,0,0,0,22.16-10c30.6-16.09,71.76-43.19,111-76.72,8.8-7.56,17.47-15.45,25.88-23.63,42.34-41,84.89-92.18,104.78-144.44,7.53-19.92,11.71-40,11.27-59.65a98.09,98.09,0,0,0-2.62-22.62c-.48-2-1-4-1.63-6A88.48,88.48,0,0,0,912,269.46a85.32,85.32,0,0,0-13-14.61,94.77,94.77,0,0,0-8.55-6.73,138.93,138.93,0,0,0-33.63-17.64,135.09,135.09,0,0,0-13.21-4,198.53,198.53,0,0,0-43.39-6.08,157.22,157.22,0,0,0-21.49,1,182,182,0,0,0-23.69,4.39,171.29,171.29,0,0,0-48.72,20.6c-9.36,1-13.58-32.72-19.37-29.54L689,200.47l.23-1.47Z"/><path class="cls-35" d="M699.2,145.86s5.17,10.62,11.13,16.67c7.92,8,18.46,12.2,31,14.41,24.65,4.33,57.15,1,93,5.2l1.08.15c.92.1,1.83.13,2.74.23A139,139,0,0,1,959.51,296a155.49,155.49,0,0,1,2,18.92c1.83,34.23-6,68.59-21.53,102.12-26.65,55.49-72.92,107.56-118.67,150.29-30.7,28.66-68,58.43-102.6,84.16q-9,6.66-17.6,12.9c-33.92,24.49-62.89,43.41-78.07,52.7l1.59-12.5,1.57-9.18c.36-3.25,14.66-48.65,27.81-57.14a192.46,192.46,0,0,0,22.12-10.1C706.84,612,747.93,584.86,787,551.37c8.79-7.56,17.46-15.45,25.85-23.64,42.18-40.93,84.72-92.12,104.68-144.43,7.55-19.9,11.76-39.94,11.38-59.61a98.58,98.58,0,0,0-2.53-22.61c-.47-2-1-4-1.61-6a88.55,88.55,0,0,0-12-25.45,85.47,85.47,0,0,0-12.83-14.68,95.74,95.74,0,0,0-8.49-6.8,137.15,137.15,0,0,0-46.68-21.92,199.51,199.51,0,0,0-43.34-6.28,156.75,156.75,0,0,0-21.48.89A185,185,0,0,0,756.21,225a173.46,173.46,0,0,0-48.87,20.12c-9.7,1.09-14.37-31.67-20.38-28.37l2.09-16.34.22-1.47Z"/><path class="cls-36" d="M699.2,145.86s5.17,10.62,11.13,16.67c7.92,8,18.46,12.2,31,14.41,24.65,4.33,57.15,1,93,5.2l1.08.15c.92.1,1.83.13,2.74.23A139,139,0,0,1,959.51,296a155.49,155.49,0,0,1,2,18.92c1.83,34.19-6,68.51-21.48,102-26.65,55.48-72.92,107.5-118.55,150.11-30.6,28.57-68,58.41-102.7,84.23-6,4.45-11.86,8.76-17.61,12.92-33.88,24.48-62.86,43.44-78.12,52.8l1.59-12.49,1.59-9.18c.37-3.37,14.86-47.92,28.48-56.71a197.6,197.6,0,0,0,22.07-10.18c30.73-16.36,71.75-43.46,110.72-76.89,8.78-7.57,17.44-15.47,25.81-23.66,42-40.87,84.55-92.06,104.58-144.42,7.57-19.88,11.82-39.9,11.5-59.56A99.79,99.79,0,0,0,927,301.3c-.46-2-1-4-1.58-6a88.94,88.94,0,0,0-11.89-25.5A85,85,0,0,0,900.8,255a97.61,97.61,0,0,0-8.42-6.86,135.86,135.86,0,0,0-33.37-18A134.29,134.29,0,0,0,845.86,226a200.58,200.58,0,0,0-43.29-6.47,158,158,0,0,0-21.48.77,184.67,184.67,0,0,0-23.71,4.07,175.28,175.28,0,0,0-49,19.63c-10.06,1.13-15.17-30.62-21.39-27.2l2.08-16.33.22-1.47Z"/><path class="cls-37" d="M699.2,145.86s5.17,10.62,11.13,16.67c7.92,8,18.46,12.2,31,14.41,24.65,4.33,57.15,1,93,5.2l1.08.15c.92.1,1.83.13,2.74.23A139,139,0,0,1,959.51,296a155.49,155.49,0,0,1,2,18.92c1.83,34.15-6,68.44-21.43,101.9C913.47,472.3,867.2,524.27,821.7,566.76c-30.5,28.47-68,58.38-102.8,84.31q-9,6.66-17.63,12.93c-33.83,24.46-62.82,43.48-78.15,52.9l1.58-12.49,1.6-9.17c.38-3.48,15.08-47.18,29.16-56.28a202.06,202.06,0,0,0,22-10.26c30.79-16.49,71.76-43.59,110.6-77,8.77-7.58,17.41-15.48,25.77-23.68,41.84-40.81,84.38-92,104.49-144.41,7.57-19.85,11.86-39.86,11.6-59.51a100.33,100.33,0,0,0-2.36-22.61c-.46-2-1-4-1.55-6a89.43,89.43,0,0,0-11.72-25.57,86.11,86.11,0,0,0-12.61-14.85,96.05,96.05,0,0,0-8.37-6.92A134.82,134.82,0,0,0,847,225.72a201.91,201.91,0,0,0-43.23-6.67,159.12,159.12,0,0,0-21.47.65,188.06,188.06,0,0,0-23.73,3.91,178,178,0,0,0-49.17,19.14c-10.41,1.17-16-29.56-22.4-26l2.08-16.33.23-1.46Z"/><path class="cls-38" d="M699.2,145.86s5.17,10.62,11.13,16.67c7.92,8,18.46,12.2,31,14.41,24.65,4.33,57.15,1,93,5.2l1.08.15c.92.1,1.83.13,2.74.23A139,139,0,0,1,959.51,296a155.49,155.49,0,0,1,2,18.92c1.83,34.12-6,68.36-21.38,101.79-26.66,55.46-72.93,107.38-118.31,149.75-30.4,28.38-68,58.36-102.9,84.38-6,4.45-11.88,8.78-17.64,13-33.79,24.44-62.8,43.5-78.2,53l1.59-12.48,1.61-9.16c.39-3.61,15.28-46.46,29.84-55.86a209.42,209.42,0,0,0,22-10.34c30.85-16.62,71.75-43.72,110.46-77.05,8.77-7.59,17.4-15.49,25.74-23.7,41.67-40.75,84.21-91.94,104.39-144.39,7.59-19.84,11.91-39.83,11.72-59.47a102.06,102.06,0,0,0-2.28-22.61c-.45-2-1-4-1.52-6a90,90,0,0,0-11.56-25.62,86.42,86.42,0,0,0-12.49-14.94,100.92,100.92,0,0,0-8.31-7,133,133,0,0,0-46.2-22.68,202.14,202.14,0,0,0-43.18-6.87,160.22,160.22,0,0,0-21.46.53,193.28,193.28,0,0,0-23.74,3.75,180.47,180.47,0,0,0-49.33,18.66C699.63,242.76,693.63,213,687,216.7l2.09-16.32.22-1.46Z"/><path class="cls-39" d="M699.2,145.86s5.17,10.62,11.13,16.67c7.92,8,18.46,12.2,31,14.41,24.65,4.33,57.15,1,93,5.2l1.08.15c.92.09,1.83.13,2.74.23A139,139,0,0,1,959.51,296a155.49,155.49,0,0,1,2,18.92c1.82,34.08-6,68.29-21.33,101.69C913.57,472.05,867.29,523.93,822,566.18c-30.3,28.29-68,58.33-103,84.46q-9,6.68-17.66,13c-33.74,24.42-62.76,43.54-78.24,53.09l1.59-12.48,1.62-9.15c.41-3.72,15.49-45.72,30.52-55.42a218.91,218.91,0,0,0,21.92-10.43c30.91-16.76,71.75-43.86,110.34-77.14,8.76-7.58,17.38-15.5,25.7-23.71,41.51-40.69,84-91.88,104.3-144.38,7.6-19.81,12-39.79,11.82-59.43a101.47,101.47,0,0,0-2.2-22.6c-.43-2-.94-4-1.48-6a90.38,90.38,0,0,0-11.4-25.69,86.21,86.21,0,0,0-12.38-15,94,94,0,0,0-8.25-7,131.85,131.85,0,0,0-46-22.94,203,203,0,0,0-43.13-7.07,158.2,158.2,0,0,0-21.46.42,191,191,0,0,0-23.75,3.59,183,183,0,0,0-49.48,18.17c-11.1,1.25-17.55-27.46-24.41-23.68l2.08-16.31.23-1.47Z"/><path class="cls-40" d="M699.2,145.86s5.17,10.62,11.13,16.67c7.92,8,18.46,12.2,31,14.41,24.65,4.33,57.15,1,93,5.2l1.08.15c.92.09,1.83.13,2.74.23A139,139,0,0,1,959.51,296a155.49,155.49,0,0,1,2,18.92c1.82,34-5.94,68.22-21.28,101.58-26.67,55.42-72.94,107.25-118.07,149.39-30.2,28.19-67.94,58.3-103.1,84.52-6,4.46-11.9,8.8-17.67,13-33.7,24.41-62.74,43.58-78.29,53.19l1.59-12.47,1.64-9.15c.42-3.84,15.7-45,31.19-55a224,224,0,0,0,21.88-10.51c31-16.89,71.74-44,110.21-77.22,8.75-7.59,17.35-15.51,25.66-23.73,41.34-40.62,83.88-91.82,104.2-144.37,7.62-19.79,12-39.75,11.94-59.38a103.46,103.46,0,0,0-2.12-22.61c-.42-2-.93-4-1.46-6a90.34,90.34,0,0,0-11.23-25.74,86.16,86.16,0,0,0-12.26-15.1,93.85,93.85,0,0,0-8.19-7.1A130.23,130.23,0,0,0,850.32,225a204.26,204.26,0,0,0-43.07-7.27,161,161,0,0,0-21.45.3A196.46,196.46,0,0,0,762,221.46a185.66,185.66,0,0,0-49.63,17.69C701,240.43,694.06,212.74,687,216.64l2.08-16.31.23-1.46Z"/><path class="cls-41" d="M699.2,145.86s5.17,10.62,11.13,16.67c7.92,8,18.46,12.2,31,14.41,24.65,4.33,57.15,1,93,5.2l1.08.15c.92.09,1.83.13,2.74.23A139,139,0,0,1,959.51,296a155.27,155.27,0,0,1,2,18.92c1.82,34-5.92,68.14-21.23,101.47-26.67,55.41-73,107.19-118,149.21-30.09,28.09-67.92,58.27-103.21,84.59q-9,6.7-17.68,13c-33.64,24.39-62.7,43.61-78.32,53.29L624.75,704l1.66-9.14c.43-3.95,15.9-44.25,31.87-54.56a234.05,234.05,0,0,0,21.82-10.59c31-17,71.75-44.12,110.09-77.3,8.74-7.6,17.33-15.53,25.62-23.75,41.17-40.56,83.71-91.76,104.11-144.36,7.62-19.77,12.05-39.71,12-59.33a103.44,103.44,0,0,0-2-22.61c-.42-2-.91-4.05-1.43-6.05a90.93,90.93,0,0,0-11.06-25.8,87.32,87.32,0,0,0-12.15-15.18,98.84,98.84,0,0,0-8.13-7.16,129,129,0,0,0-32.69-19,132,132,0,0,0-13-4.42,205,205,0,0,0-43-7.46,162.11,162.11,0,0,0-21.44.18,197.88,197.88,0,0,0-23.77,3.28A188.53,188.53,0,0,0,713.41,238c-11.79,1.32-19.13-25.36-26.42-21.35l2.08-16.29.23-1.46Z"/><path class="cls-42" d="M699.2,145.86s5.17,10.62,11.13,16.67c7.92,8,18.46,12.2,31,14.41,24.65,4.33,57.15,1,93,5.2l1.08.15c.92.09,1.83.13,2.74.23A139,139,0,0,1,959.51,296a155.27,155.27,0,0,1,2,18.92c1.82,34-5.91,68.07-21.18,101.36-26.67,55.4-73,107.13-117.83,149-30,28-67.9,58.24-103.31,84.67-6,4.47-11.91,8.82-17.69,13-33.6,24.38-62.67,43.65-78.37,53.39l1.59-12.46,1.66-9.14c.45-4.07,16.11-43.52,32.55-54.13A241,241,0,0,0,680.75,630c31.1-17.16,71.75-44.26,110-77.38,8.74-7.61,17.32-15.54,25.59-23.76,41-40.51,83.54-91.71,104-144.35,7.64-19.75,12.11-39.68,12.16-59.3a105.32,105.32,0,0,0-2-22.6c-.41-2-.89-4.05-1.4-6.05a91.31,91.31,0,0,0-10.9-25.86,87.25,87.25,0,0,0-12-15.27,97.1,97.1,0,0,0-8.07-7.22,128.14,128.14,0,0,0-45.56-23.7,207.69,207.69,0,0,0-43-7.66,163.22,163.22,0,0,0-21.43.06A201.29,201.29,0,0,0,764.36,220a191.84,191.84,0,0,0-49.94,16.71c-12.14,1.37-19.92-24.29-27.43-20.17l2.08-16.28.23-1.46Z"/><path class="cls-43" d="M699.2,145.86s5.17,10.62,11.13,16.67c7.92,8,18.46,12.2,31,14.41,24.65,4.33,57.15,1.05,93,5.2l1.08.15c.92.09,1.83.13,2.74.23A139,139,0,0,1,959.51,296a155.27,155.27,0,0,1,2,18.92c1.82,33.93-5.89,68-21.13,101.25-26.68,55.38-73,107.07-117.71,148.85-29.89,27.91-67.89,58.22-103.41,84.74q-9,6.72-17.71,13c-33.55,24.37-62.64,43.68-78.41,53.49l1.59-12.46,1.68-9.13c.45-4.18,16.32-42.78,33.22-53.69,6.19-2.69,13.57-6.24,21.73-10.76,31.16-17.29,71.74-44.39,109.83-77.47,8.73-7.61,17.3-15.55,25.56-23.77,40.83-40.45,83.36-91.65,103.91-144.34C928.36,365,932.86,345,933,325.43a106.6,106.6,0,0,0-1.87-22.6c-.4-2-.87-4.05-1.37-6.06A91.66,91.66,0,0,0,919,270.85a87.47,87.47,0,0,0-11.92-15.34,95.37,95.37,0,0,0-8-7.29,126.16,126.16,0,0,0-32.42-19.42,130.61,130.61,0,0,0-13-4.53,208.2,208.2,0,0,0-42.92-7.86,166.12,166.12,0,0,0-21.42-.06,202.6,202.6,0,0,0-23.8,3,194.73,194.73,0,0,0-50.1,16.22C703,237,694.72,212.3,687,216.54l2.08-16.27.23-1.46Z"/><path class="cls-44" d="M699.2,145.86s5.17,10.62,11.13,16.67c7.92,8,18.46,12.2,31,14.41,24.65,4.33,57.15,1.05,93,5.2l1.08.15c.92.09,1.83.13,2.74.23A139,139,0,0,1,959.51,296a155.27,155.27,0,0,1,2,18.92c1.81,33.9-5.87,67.92-21.08,101.15-26.68,55.36-73,107-117.59,148.66C793.1,592.55,755,622.93,719.38,649.56q-9,6.72-17.72,13.06c-33.51,24.34-62.61,43.71-78.45,53.58l1.58-12.45,1.69-9.13c.47-4.3,16.53-42,33.91-53.26,6.19-2.73,13.55-6.31,21.67-10.84C713.28,613.09,753.81,586,791.77,553c8.72-7.62,17.27-15.56,25.52-23.79C858,488.79,900.48,437.59,921.1,384.85c7.67-19.71,12.21-39.6,12.38-59.2a106.58,106.58,0,0,0-1.79-22.6c-.38-2-.85-4.06-1.33-6.06a92.18,92.18,0,0,0-10.58-26A87.83,87.83,0,0,0,908,255.58a98.69,98.69,0,0,0-8-7.35A125.7,125.7,0,0,0,854.79,224,208.11,208.11,0,0,0,811.92,216a163.88,163.88,0,0,0-21.42-.17,206.63,206.63,0,0,0-23.81,2.8,198,198,0,0,0-50.25,15.74c-12.83,1.44-21.5-22.19-29.44-17.83l2.07-16.27.24-1.46Z"/><path class="cls-45" d="M699.2,145.86s5.17,10.62,11.13,16.67c7.92,8,18.46,12.2,31,14.41,24.65,4.33,57.14,1.05,93,5.2l1.08.15c.92.09,1.83.13,2.74.23A139,139,0,0,1,959.51,296a155.27,155.27,0,0,1,2,18.92c1.81,33.86-5.85,67.85-21,101-26.68,55.35-73,106.94-117.47,148.48-29.69,27.72-67.85,58.17-103.61,84.89q-9,6.72-17.74,13.08c-33.46,24.33-62.58,43.74-78.49,53.68l1.58-12.45,1.71-9.12c.48-4.41,16.73-41.31,34.58-52.83,6.2-2.78,13.54-6.39,21.62-10.92a682,682,0,0,0,109.58-77.63c8.72-7.63,17.26-15.57,25.49-23.81C858.27,489,900.8,437.81,921.5,385c7.67-19.68,12.25-39.56,12.49-59.15a108,108,0,0,0-1.71-22.6c-.38-2-.83-4.06-1.31-6.07a92.66,92.66,0,0,0-10.4-26,88.25,88.25,0,0,0-11.7-15.51,97,97,0,0,0-7.89-7.41,123.63,123.63,0,0,0-32.14-19.81,126.93,126.93,0,0,0-12.94-4.64,208.53,208.53,0,0,0-42.81-8.26,166.78,166.78,0,0,0-21.41-.29,210.07,210.07,0,0,0-23.82,2.64,201.43,201.43,0,0,0-50.41,15.26C704.28,234.62,695.16,212,687,216.48l2.08-16.26.23-1.46Z"/><path class="cls-46" d="M699.2,145.86s5.17,10.62,11.13,16.67c7.92,8,18.46,12.2,31,14.41,24.65,4.33,57.14,1.05,93,5.2l1.08.15c.92.09,1.83.13,2.74.23A139,139,0,0,1,959.51,296a155.27,155.27,0,0,1,2,18.92c1.81,33.82-5.84,67.77-21,100.93-26.68,55.34-73,106.88-117.35,148.3-29.59,27.63-67.83,58.14-103.71,85q-9,6.72-17.75,13.09C668.35,686.53,639.22,706,623.23,716l1.58-12.45,1.72-9.11c.5-4.53,17-40.57,35.26-52.4,6.21-2.83,13.53-6.46,21.58-11a686,686,0,0,0,109.45-77.71c8.71-7.64,17.24-15.59,25.45-23.83,40.32-40.26,82.85-91.47,103.62-144.31,7.69-19.66,12.3-39.53,12.6-59.11a109.46,109.46,0,0,0-1.62-22.6c-.37-2-.81-4.05-1.28-6.06a92.9,92.9,0,0,0-10.24-26.1,89,89,0,0,0-11.58-15.6,100.52,100.52,0,0,0-7.83-7.47,122.67,122.67,0,0,0-32-20,126.61,126.61,0,0,0-12.91-4.7,209.73,209.73,0,0,0-42.76-8.45,166.15,166.15,0,0,0-21.4-.41A211.54,211.54,0,0,0,769,217.17a205,205,0,0,0-50.56,14.77c-13.52,1.52-23.09-20.09-31.45-15.49l2.07-16.25.24-1.46Z"/><path class="cls-46" d="M699.2,145.86s5.17,10.62,11.13,16.67c7.92,8,18.46,12.2,31,14.41,24.65,4.33,57.14,1.05,93,5.2l1.08.15c.92.09,1.83.13,2.74.23A139,139,0,0,1,959.51,296a155.27,155.27,0,0,1,2,18.92c1.81,33.79-5.82,67.7-20.94,100.82-26.68,55.32-73,106.82-117.22,148.12-29.48,27.53-67.81,58.12-103.82,85q-9,6.74-17.76,13.11c-33.37,24.3-62.52,43.81-78.57,53.87l1.58-12.43,1.73-9.11c.51-4.65,17.15-39.84,35.94-52,6.21-2.89,13.51-6.55,21.52-11.09a689.75,689.75,0,0,0,109.33-77.8c8.69-7.63,17.21-15.59,25.41-23.84,40.16-40.2,82.68-91.42,103.53-144.29,7.7-19.65,12.35-39.5,12.71-59.07a110.15,110.15,0,0,0-1.54-22.6c-.36-2-.8-4.06-1.25-6.07a93.26,93.26,0,0,0-10.08-26.16,88.94,88.94,0,0,0-11.47-15.67,98.63,98.63,0,0,0-7.76-7.54A121.37,121.37,0,0,0,871,228.06a124.83,124.83,0,0,0-12.88-4.76,210.29,210.29,0,0,0-42.71-8.65,169.25,169.25,0,0,0-21.4-.53,215.56,215.56,0,0,0-23.85,2.33,208.91,208.91,0,0,0-50.71,14.29c-13.87,1.55-23.88-19-32.46-14.32l2.07-16.25.24-1.45Z"/><path class="cls-47" d="M699.2,145.86s5.17,10.62,11.13,16.67c7.92,8,18.46,12.2,31,14.41,24.65,4.33,57.14,1.05,93,5.2l1.08.15c.92.09,1.83.13,2.74.23A139,139,0,0,1,959.51,296a155.27,155.27,0,0,1,2,18.92c1.81,33.75-5.8,67.62-20.89,100.71-26.68,55.31-73,106.76-117.1,148-29.38,27.43-67.8,58.08-103.92,85.11q-9,6.74-17.77,13.12c-33.33,24.28-62.49,43.85-78.62,54l1.58-12.43,1.74-9.09c.53-4.77,17.36-39.11,36.62-51.54,6.22-2.93,13.5-6.62,21.47-11.17a694.66,694.66,0,0,0,109.21-77.88c8.68-7.64,17.19-15.61,25.37-23.86,40-40.14,82.51-91.36,103.43-144.28,7.72-19.62,12.4-39.46,12.82-59a110.9,110.9,0,0,0-1.46-22.6c-.34-2-.77-4.06-1.21-6.08a94,94,0,0,0-9.91-26.21,89.91,89.91,0,0,0-11.36-15.76,97,97,0,0,0-7.71-7.6,120.27,120.27,0,0,0-31.74-20.4,123.82,123.82,0,0,0-12.86-4.81,210.25,210.25,0,0,0-42.65-8.85,168.53,168.53,0,0,0-21.39-.64,216.72,216.72,0,0,0-23.86,2.17,213.27,213.27,0,0,0-50.87,13.79c-14.21,1.6-24.67-18-33.47-13.14l2.08-16.24.23-1.45Z"/><path class="cls-48" d="M699.2,145.86s5.17,10.62,11.13,16.67c7.92,8,18.46,12.2,31,14.41,24.65,4.33,57.14,1.06,93,5.2l1.08.15c.92.09,1.83.13,2.74.23A139,139,0,0,1,959.51,296a155.27,155.27,0,0,1,2,18.92c1.8,33.71-5.78,67.55-20.84,100.61-26.68,55.29-73,106.69-117,147.76-29.29,27.34-67.79,58.06-104,85.18q-9,6.75-17.79,13.14c-33.27,24.27-62.45,43.88-78.66,54.07l1.58-12.42,1.76-9.09c.53-4.89,17.57-38.38,37.29-51.11,6.23-3,13.5-6.7,21.43-11.25a699.33,699.33,0,0,0,109.07-78c8.68-7.65,17.18-15.62,25.34-23.88,39.82-40.08,82.34-91.3,103.33-144.27,7.73-19.6,12.45-39.42,12.94-59a111.61,111.61,0,0,0-1.38-22.59c-.34-2-.75-4.06-1.18-6.08a94.47,94.47,0,0,0-9.75-26.28,89.74,89.74,0,0,0-11.24-15.84,98.6,98.6,0,0,0-7.65-7.65,119.19,119.19,0,0,0-31.61-20.61,123.5,123.5,0,0,0-12.83-4.86,210,210,0,0,0-42.6-9,169.68,169.68,0,0,0-21.38-.76,220.74,220.74,0,0,0-23.88,2,217.14,217.14,0,0,0-51,13.31C706.93,230,696,211.4,687,216.36l2.07-16.23.24-1.46Z"/><path class="cls-49" d="M699.2,145.86s5.17,10.62,11.13,16.67c7.92,8,18.46,12.2,31,14.41,24.65,4.33,57.14,1.06,93,5.2l1.08.15c.92.09,1.83.13,2.74.23A139,139,0,0,1,959.51,296a155.27,155.27,0,0,1,2,18.92c1.8,33.68-5.76,67.48-20.79,100.5-26.69,55.28-73,106.62-116.85,147.58-29.19,27.25-67.77,58-104.13,85.26q-9,6.75-17.8,13.16c-33.23,24.24-62.43,43.91-78.71,54.16l1.58-12.42,1.78-9.08c.54-5,17.77-37.64,38-50.68,6.23-3,13.48-6.77,21.37-11.33a704.11,704.11,0,0,0,108.95-78c8.67-7.66,17.16-15.63,25.3-23.9,39.66-40,82.17-91.24,103.24-144.26,7.74-19.58,12.5-39.38,13-58.93a113.82,113.82,0,0,0-1.3-22.59c-.33-2-.74-4.07-1.16-6.09a94.53,94.53,0,0,0-9.58-26.33A90.07,90.07,0,0,0,913.35,256a98.48,98.48,0,0,0-7.58-7.71,119,119,0,0,0-44.28-25.72,211,211,0,0,0-42.55-9.25,172.85,172.85,0,0,0-21.38-.88,229,229,0,0,0-75,14.68c-14.91,1.68-26.26-15.87-35.49-10.8l2.07-16.23.24-1.45Z"/><path class="cls-50" d="M699.2,145.86s5.17,10.62,11.13,16.67c7.92,8,18.46,12.2,31,14.41,24.65,4.33,57.14,1.06,93,5.2l1.08.15c.92.09,1.83.13,2.74.23A139,139,0,0,1,959.51,296a155.27,155.27,0,0,1,2,18.92c1.8,33.64-5.75,67.4-20.74,100.39-26.69,55.26-73,106.56-116.73,147.4-29.09,27.15-67.75,58-104.23,85.33-6,4.51-12,8.91-17.82,13.18-33.18,24.23-62.39,43.94-78.74,54.26l1.57-12.41,1.79-9.08c.56-5.12,18-36.9,38.65-50.24,6.24-3.09,13.47-6.86,21.32-11.42,31.64-18.4,71.75-45.45,108.83-78.13,8.66-7.66,17.13-15.64,25.26-23.91,39.49-40,82-91.18,103.14-144.24,7.76-19.56,12.55-39.35,13.16-58.89a114.63,114.63,0,0,0-1.21-22.59c-.32-2.05-.72-4.07-1.13-6.09a95,95,0,0,0-9.42-26.4,90,90,0,0,0-11-16,97,97,0,0,0-7.53-7.78,116.89,116.89,0,0,0-31.33-21,123.33,123.33,0,0,0-12.79-5,211.77,211.77,0,0,0-42.49-9.44,172.07,172.07,0,0,0-21.37-1,233,233,0,0,0-75.22,14c-15.26,1.71-27-14.82-36.49-9.63l2.07-16.22.24-1.45Z"/><path class="cls-51" d="M699.2,145.86s5.17,10.62,11.13,16.67c7.92,8,18.46,12.2,31,14.41,24.65,4.33,57.14,1.06,93,5.2l1.08.15c.92.09,1.83.13,2.74.23A139,139,0,0,1,959.51,296a155.27,155.27,0,0,1,2,18.92c1.8,33.6-5.73,67.33-20.69,100.28-26.69,55.25-73,106.5-116.61,147.22-29,27.06-67.74,58-104.33,85.41q-9,6.76-17.83,13.19c-33.14,24.21-62.37,44-78.79,54.36L624.89,703l1.8-9.07c.57-5.23,18.19-36.17,39.32-49.81,6.25-3.13,13.46-6.93,21.28-11.5C719,614.06,759,587,796,554.39c8.66-7.67,17.12-15.65,25.23-23.93,39.32-39.89,81.83-91.12,103-144.23,7.77-19.54,12.59-39.31,13.27-58.84a116.33,116.33,0,0,0-1.13-22.6c-.31-2-.7-4.07-1.1-6.09a95.8,95.8,0,0,0-9.25-26.45,91,91,0,0,0-10.9-16.09,98.73,98.73,0,0,0-7.47-7.84,116,116,0,0,0-31.2-21.19,117.93,117.93,0,0,0-12.76-5,211.85,211.85,0,0,0-42.45-9.64,175,175,0,0,0-21.35-1.12,237.21,237.21,0,0,0-75.39,13.4c-15.61,1.75-27.84-13.77-37.5-8.46l2.07-16.21.24-1.45Z"/><path class="cls-52" d="M699.2,145.86s5.17,10.62,11.13,16.67c7.92,8,18.46,12.2,31,14.41,24.65,4.33,57.14,1.06,93,5.2l1.08.15c.92.09,1.83.13,2.74.23A139,139,0,0,1,959.51,296a155.27,155.27,0,0,1,2,18.92c1.8,33.57-5.71,67.25-20.64,100.17-26.69,55.24-73,106.44-116.49,147-28.88,27-67.72,58-104.44,85.48-6,4.51-12,8.93-17.84,13.21-33.09,24.2-62.33,44-78.83,54.46l1.58-12.4,1.81-9.07c.59-5.35,18.4-35.43,40-49.38,6.25-3.18,13.44-7,21.22-11.58,31.76-18.68,71.74-45.72,108.57-78.29,8.65-7.68,17.1-15.67,25.19-24,39.15-39.83,81.66-91.06,102.95-144.22,7.78-19.52,12.65-39.27,13.38-58.8A116.27,116.27,0,0,0,937,305c-.3-2-.67-4.07-1.06-6.09a96.15,96.15,0,0,0-9.09-26.52A90.91,90.91,0,0,0,916,256.23a98.77,98.77,0,0,0-7.41-7.9,115.09,115.09,0,0,0-31.06-21.39,117.66,117.66,0,0,0-12.73-5.09,212.08,212.08,0,0,0-42.4-9.84,176.35,176.35,0,0,0-21.35-1.23,231.29,231.29,0,0,0-23.92,1.38,235,235,0,0,0-51.63,11.37c-15.95,1.79-28.64-12.72-38.51-7.29L689.1,200l.25-1.44Z"/><path class="cls-53" d="M699.2,145.86s5.17,10.62,11.13,16.67c7.92,8,18.46,12.2,31,14.41,24.65,4.33,57.14,1.06,93,5.2l1.08.15c.92.09,1.83.13,2.74.23A139,139,0,0,1,959.51,296a155.27,155.27,0,0,1,2,18.92c1.8,33.53-5.69,67.18-20.59,100.06-26.7,55.23-73,106.38-116.37,146.86-28.78,26.87-67.7,57.93-104.54,85.56-6,4.51-12,8.93-17.85,13.22-33.05,24.18-62.3,44-78.87,54.56l1.57-12.4,1.83-9.06c.6-5.46,18.61-34.7,40.68-49,6.26-3.23,13.43-7.09,21.17-11.66,31.82-18.82,71.75-45.85,108.45-78.37,8.64-7.69,17.07-15.68,25.15-24,39-39.78,81.5-91,102.86-144.22,7.79-19.49,12.69-39.23,13.49-58.75a118.77,118.77,0,0,0-1-22.59c-.29-2-.66-4.07-1-6.1a96.36,96.36,0,0,0-8.93-26.57,91.74,91.74,0,0,0-10.67-16.26,98.83,98.83,0,0,0-7.35-8,114.16,114.16,0,0,0-30.93-21.59A119.63,119.63,0,0,0,866,221.61a213.2,213.2,0,0,0-42.34-10,175.52,175.52,0,0,0-21.34-1.35,238.26,238.26,0,0,0-23.94,1.22,240.82,240.82,0,0,0-51.78,10.88c-16.3,1.83-29.43-11.66-39.51-6.12L689.1,200l.25-1.45Z"/><path class="cls-54" d="M699.2,145.86s5.17,10.62,11.13,16.67c7.92,8,18.46,12.2,31,14.41,24.65,4.33,57.14,1.07,93,5.2l1.08.15c.92.09,1.83.13,2.74.23A139,139,0,0,1,959.51,296a155.27,155.27,0,0,1,2,18.92c1.79,33.49-5.67,67.11-20.54,100-26.7,55.2-73,106.31-116.25,146.68-28.68,26.77-67.68,57.89-104.64,85.62-6,4.52-12,8.95-17.87,13.24-33,24.17-62.27,44.08-78.91,54.66l1.57-12.39,1.84-9.06c.61-5.58,18.82-34,41.36-48.51,6.28-3.29,13.42-7.17,21.13-11.75,31.87-19,71.74-46,108.32-78.46,8.63-7.69,17-15.68,25.12-24,38.81-39.72,81.32-91,102.75-144.2,7.81-19.48,12.74-39.2,13.6-58.71a118.78,118.78,0,0,0-.88-22.59c-.28-2.05-.64-4.08-1-6.1a96.69,96.69,0,0,0-8.76-26.64,91.7,91.7,0,0,0-10.55-16.33,99,99,0,0,0-7.29-8,113.18,113.18,0,0,0-30.8-21.78,117.34,117.34,0,0,0-12.68-5.2,213.84,213.84,0,0,0-42.29-10.24,178.77,178.77,0,0,0-21.33-1.47,236.49,236.49,0,0,0-24,1.07,245.46,245.46,0,0,0-51.94,10.39c-16.64,1.87-30.22-10.61-40.52-5L689.11,200l.24-1.45Z"/><path class="cls-55" d="M699.2,145.86s5.17,10.62,11.13,16.67c7.92,8,18.46,12.2,31,14.41,24.65,4.33,57.14,1.07,93,5.2l1.08.15c.92.09,1.83.13,2.74.23A139,139,0,0,1,959.51,296a155.27,155.27,0,0,1,2,18.92c1.79,33.46-5.66,67-20.49,99.85C914.37,470,868,521,824.94,561.28,796.36,588,757.28,619.15,720.2,647c-6,4.53-12,9-17.88,13.27-33,24.14-62.24,44.11-79,54.75l1.58-12.39,1.85-9.05c.62-5.69,19-33.23,42-48.08,6.28-3.33,13.4-7.25,21.07-11.83,31.93-19.1,71.74-46.12,108.19-78.54,8.63-7.69,17-15.7,25.09-24,38.64-39.66,81.15-90.89,102.66-144.19,7.82-19.45,12.79-39.16,13.71-58.66a121.32,121.32,0,0,0-.8-22.59c-.27-2.05-.62-4.08-1-6.11a97.57,97.57,0,0,0-8.59-26.69,92.29,92.29,0,0,0-10.45-16.42,97.3,97.3,0,0,0-7.23-8.09,112.33,112.33,0,0,0-30.66-22,119.19,119.19,0,0,0-12.65-5.26A214.67,214.67,0,0,0,826,210.69a182,182,0,0,0-21.33-1.59c-7.35-.11-15.46.19-24,.91a251.93,251.93,0,0,0-52.09,9.91c-17,1.91-31-9.56-41.52-3.78L689.11,200l.25-1.44Z"/><path class="cls-56" d="M699.2,145.86s5.17,10.62,11.13,16.67c7.92,8,18.46,12.2,31,14.41,24.65,4.33,57.14,1.07,93,5.2l1.08.15c.92.09,1.83.13,2.74.23A139,139,0,0,1,959.51,296a155.27,155.27,0,0,1,2,18.92c1.79,33.42-5.64,67-20.44,99.74-26.71,55.18-73,106.19-116,146.32-28.48,26.58-67.65,57.84-104.84,85.77q-9.06,6.79-17.9,13.28c-32.9,24.13-62.21,44.14-79,54.85L625,702.51l1.87-9c.63-5.81,19.23-32.49,42.71-47.65,6.29-3.38,13.39-7.32,21-11.91,32-19.25,71.75-46.25,108.07-78.62,8.62-7.7,17-15.71,25-24,38.47-39.6,81-90.83,102.56-144.18,7.83-19.43,12.84-39.12,13.83-58.62a123,123,0,0,0-.72-22.58c-.27-2.05-.61-4.08-1-6.12A98.09,98.09,0,0,0,930,273a93.28,93.28,0,0,0-10.33-16.5,102.66,102.66,0,0,0-7.17-8.15,111.6,111.6,0,0,0-30.52-22.18,119.27,119.27,0,0,0-12.64-5.31,215.08,215.08,0,0,0-42.18-10.63,181.09,181.09,0,0,0-21.32-1.7c-7.34-.16-15.45.08-24,.75a257.72,257.72,0,0,0-52.25,9.42c-17.34,1.95-31.8-8.51-42.53-2.61l2.06-16.17.25-1.44Z"/><path class="cls-57" d="M699.2,145.86s5.17,10.62,11.13,16.67c7.92,8,18.46,12.2,31,14.41,24.65,4.33,57.14,1.07,93,5.2l1.08.15c.92.09,1.83.13,2.74.23A139,139,0,0,1,959.51,296a153.32,153.32,0,0,1,2,18.92c1.79,33.38-5.62,66.89-20.39,99.63-26.71,55.17-73,106.13-115.89,146.14-28.37,26.49-67.63,57.82-104.94,85.84q-9.08,6.81-17.91,13.3c-32.86,24.12-62.18,44.18-79,54.95L625,702.41l1.88-9c.65-5.93,19.44-31.76,43.39-47.23,6.3-3.43,13.38-7.4,21-12,32-19.39,71.74-46.39,107.94-78.7,8.6-7.71,17-15.73,25-24C862.47,491.9,905,440.66,926.63,387.26c7.84-19.41,12.89-39.09,13.93-58.57a123.08,123.08,0,0,0-.64-22.58c-.25-2.05-.58-4.09-.91-6.12a98.52,98.52,0,0,0-8.27-26.81,94.16,94.16,0,0,0-10.21-16.59,102.76,102.76,0,0,0-7.11-8.21A110.91,110.91,0,0,0,883,226a117,117,0,0,0-12.61-5.37,216.26,216.26,0,0,0-42.13-10.83A182.29,182.29,0,0,0,807,208c-7.34-.2-15.45,0-24,.59a264,264,0,0,0-52.4,8.94c-17.68,2-32.59-7.45-43.54-1.44l2.07-16.16.25-1.44Z"/><path class="cls-58" d="M699.2,145.86s5.17,10.62,11.13,16.67c7.92,8,18.46,12.2,31,14.41,24.65,4.33,57.14,1.07,93,5.2l1.08.15c.92.09,1.83.13,2.74.23A139,139,0,0,1,959.51,296a153.32,153.32,0,0,1,2,18.92c1.79,33.35-5.6,66.81-20.34,99.52-26.71,55.15-73,106.07-115.77,146-28.27,26.4-67.61,57.79-105.05,85.92q-9.06,6.81-17.92,13.31c-32.81,24.1-62.14,44.21-79.08,55.05L625,702.32l1.9-9c.66-6,19.64-31,44.06-46.79,6.31-3.49,13.37-7.49,20.93-12.08,32.1-19.53,71.74-46.52,107.81-78.79,8.6-7.71,17-15.73,25-24,38.14-39.47,80.64-90.72,102.37-144.16,7.86-19.38,12.94-39.05,14.05-58.52a125,125,0,0,0-.56-22.59c-.24-2.05-.56-4.08-.88-6.12a99,99,0,0,0-8.11-26.87,93.62,93.62,0,0,0-10.1-16.66,97.64,97.64,0,0,0-7-8.27,109.58,109.58,0,0,0-30.25-22.58,115.26,115.26,0,0,0-12.59-5.42,215.83,215.83,0,0,0-42.07-11,185.91,185.91,0,0,0-21.31-1.94c-7.32-.24-15.44-.1-24,.43a270.5,270.5,0,0,0-52.56,8.46c-18,2-33.38-6.4-44.54-.27l2.06-16.16.25-1.44Z"/><path class="cls-59" d="M699.2,145.86s5.17,10.62,11.13,16.67c7.92,8,18.46,12.2,31,14.41,24.65,4.33,57.14,1.07,93,5.2l1.08.15c.92.09,1.83.13,2.74.23A139,139,0,0,1,959.51,296a153.32,153.32,0,0,1,2,18.92c1.78,33.31-5.59,66.74-20.29,99.42-26.72,55.13-73,106-115.65,145.77-28.17,26.31-67.59,57.76-105.15,86q-9.08,6.82-17.93,13.33c-32.77,24.09-62.12,44.25-79.13,55.15L625,702.22l1.91-9c.68-6.16,19.86-30.29,44.75-46.36,6.31-3.53,13.35-7.56,20.87-12.16C724.67,615,764.25,588,800.2,555.81c8.59-7.72,17-15.75,24.94-24.06,38-39.41,80.47-90.66,102.28-144.14,7.87-19.37,13-39,14.15-58.49a125.91,125.91,0,0,0-.47-22.58c-.23-2.05-.55-4.09-.86-6.12a99.21,99.21,0,0,0-7.93-26.93,94.8,94.8,0,0,0-10-16.75,99.38,99.38,0,0,0-7-8.33,108.81,108.81,0,0,0-30.12-22.77,116,116,0,0,0-12.56-5.49,217.15,217.15,0,0,0-42-11.22,187.16,187.16,0,0,0-21.3-2.06c-7.31-.28-15.44-.2-24,.28a278.09,278.09,0,0,0-52.71,8c-18.37,2.07-34.18-5.34-45.55.91l2.06-16.15.25-1.44Z"/><path class="cls-60" d="M699.2,145.86s5.17,10.62,11.13,16.67c7.92,8,18.46,12.2,31,14.41,24.65,4.33,57.14,1.08,93,5.2l1.08.15c.92.09,1.83.13,2.74.23A139,139,0,0,1,959.51,296a153.32,153.32,0,0,1,2,18.92c1.78,33.27-5.57,66.66-20.24,99.31-26.72,55.12-73.06,105.94-115.53,145.59C797.72,586,758.21,617.57,720.54,645.9q-9.07,6.83-17.95,13.35c-32.72,24.06-62.08,44.28-79.16,55.24L625,702.13l1.92-9c.68-6.28,20.06-29.56,45.42-45.93,6.32-3.58,13.34-7.64,20.83-12.25,32.21-19.81,71.74-46.78,107.56-78.94,8.58-7.73,16.93-15.76,24.9-24.08,37.8-39.35,80.3-90.6,102.18-144.13,7.88-19.35,13-39,14.27-58.44a127.82,127.82,0,0,0-.39-22.58c-.23-2.05-.53-4.09-.83-6.13a100,100,0,0,0-7.77-27,94.66,94.66,0,0,0-9.87-16.83,99.53,99.53,0,0,0-6.93-8.39,108.29,108.29,0,0,0-30-23,115.75,115.75,0,0,0-12.53-5.54,217.43,217.43,0,0,0-42-11.42,186.19,186.19,0,0,0-21.29-2.17c-7.31-.33-15.44-.29-24,.11a287.84,287.84,0,0,0-52.87,7.48c-18.72,2.11-35-4.29-46.55,2.08l2.06-16.14.25-1.44Z"/><path class="cls-61" d="M699.2,145.86s5.17,10.62,11.13,16.67c7.92,8,18.46,12.2,31,14.41,24.65,4.33,57.14,1.08,93,5.2l1.08.15c.92.09,1.83.13,2.74.23A139,139,0,0,1,959.51,296a153.32,153.32,0,0,1,2,18.92c1.78,33.24-5.55,66.59-20.19,99.2C914.65,469.24,868.31,520,826,559.55c-28,26.11-67.56,57.7-105.35,86.13q-9.09,6.83-18,13.37c-32.68,24.05-62.06,44.31-79.21,55.34L625,702l1.93-9c.7-6.39,20.27-28.82,46.1-45.5,6.33-3.63,13.33-7.72,20.78-12.33,32.26-20,71.74-46.91,107.44-79,8.57-7.74,16.91-15.77,24.86-24.1C863.76,492.78,906.25,441.53,928.2,388c7.9-19.32,13.09-38.94,14.38-58.39a128.82,128.82,0,0,0-.31-22.58c-.21-2.05-.5-4.09-.79-6.13a100.56,100.56,0,0,0-7.61-27.05,95,95,0,0,0-9.76-16.92,101.31,101.31,0,0,0-6.87-8.45,107.41,107.41,0,0,0-29.85-23.17,114.83,114.83,0,0,0-12.51-5.59A217.44,217.44,0,0,0,833,208.05a189.23,189.23,0,0,0-21.28-2.29c-7.29-.37-15.43-.38-24,0a294.49,294.49,0,0,0-53,7c-19.07,2.14-35.76-3.24-47.56,3.25l2.06-16.14.25-1.43Z"/><path class="cls-62" d="M699.2,145.86s5.17,10.62,11.13,16.67c7.92,8,18.46,12.2,31,14.41,24.65,4.33,57.14,1.08,93,5.2l1.08.15c.92.09,1.83.13,2.74.23A139,139,0,0,1,959.51,296a153.32,153.32,0,0,1,2,18.92c1.78,33.2-5.53,66.52-20.14,99.09-26.72,55.09-73.07,105.82-115.29,145.24-27.87,26-67.54,57.68-105.45,86.21q-9.09,6.82-18,13.38c-32.63,24-62,44.35-79.25,55.44L625,701.94l2-9c.71-6.51,20.48-28.09,46.78-45.06,6.33-3.69,13.31-7.8,20.72-12.42,32.32-20.11,71.74-47,107.31-79.11,8.57-7.74,16.9-15.78,24.83-24.11,37.47-39.23,80-90.48,102-144.11,7.91-19.3,13.13-38.9,14.49-58.34a129.86,129.86,0,0,0-.23-22.58c-.2-2.06-.48-4.1-.76-6.14A101.35,101.35,0,0,0,934.66,274,95.7,95.7,0,0,0,925,257a101.64,101.64,0,0,0-6.81-8.52,107,107,0,0,0-29.71-23.36A115.69,115.69,0,0,0,876,219.43a217.15,217.15,0,0,0-41.87-11.81,188.08,188.08,0,0,0-21.27-2.42c-7.28-.42-15.42-.48-24.05-.2a302.28,302.28,0,0,0-53.16,6.51c-19.42,2.18-36.56-2.19-48.58,4.42l2.06-16.13.26-1.43Z"/><path class="cls-63" d="M699.2,145.86s5.17,10.62,11.13,16.67c7.92,8,18.46,12.2,31,14.41,24.65,4.33,57.14,1.08,93,5.2l1.08.15c.92.09,1.83.13,2.74.23A139,139,0,0,1,959.51,296a153.32,153.32,0,0,1,2,18.92c1.78,33.16-5.51,66.44-20.09,99C914.74,469,868.4,519.67,826.3,559c-27.76,25.92-67.52,57.65-105.55,86.28q-9.11,6.84-18,13.4c-32.59,24-62,44.38-79.29,55.53L625,701.84l2-9c.73-6.62,20.69-27.35,47.46-44.63,6.34-3.73,13.3-7.88,20.68-12.5,32.37-20.25,71.74-47.18,107.18-79.19,8.56-7.74,16.88-15.79,24.79-24.13C864.4,493.23,906.89,442,929,388.3c7.93-19.29,13.19-38.87,14.6-58.31a131.79,131.79,0,0,0-.14-22.57c-.19-2.06-.47-4.1-.73-6.15a102,102,0,0,0-7.28-27.16A95.7,95.7,0,0,0,925.9,257a99.72,99.72,0,0,0-6.74-8.58,106.33,106.33,0,0,0-29.58-23.56,114.45,114.45,0,0,0-12.46-5.7,217.45,217.45,0,0,0-41.82-12A191.65,191.65,0,0,0,814,204.64c-7.27-.46-15.42-.57-24.06-.35a310.54,310.54,0,0,0-53.32,6c-19.77,2.22-37.35-1.14-49.58,5.59l2-16.12.26-1.43Z"/><path class="cls-64" d="M699.2,145.86s5.17,10.62,11.13,16.67c7.92,8,18.46,12.2,31,14.41,24.65,4.33,57.14,1.08,93,5.2l1.08.15c.92.09,1.83.13,2.74.23A139,139,0,0,1,959.51,296a153.32,153.32,0,0,1,2,18.92c1.77,33.13-5.5,66.37-20,98.88-26.73,55.06-73.08,105.68-115,144.87C798.81,584.51,759,616.31,720.81,645c-6.06,4.56-12.08,9-18,13.41-32.53,24-62,44.42-79.33,55.63L625,701.75l2-9c.74-6.74,20.89-26.61,48.13-44.2,6.35-3.78,13.29-8,20.63-12.58,32.43-20.4,71.74-47.31,107.06-79.27,8.55-7.75,16.85-15.81,24.75-24.15,37.13-39.1,79.62-90.36,101.8-144.08,7.93-19.26,13.23-38.83,14.71-58.26a134,134,0,0,0-.06-22.58c-.19-2.05-.45-4.1-.71-6.14a102.1,102.1,0,0,0-7.11-27.23,96.19,96.19,0,0,0-9.42-17.16,101.6,101.6,0,0,0-6.69-8.64,105.53,105.53,0,0,0-29.44-23.76,114.62,114.62,0,0,0-12.44-5.76,217.92,217.92,0,0,0-41.76-12.2,192.78,192.78,0,0,0-21.26-2.66c-7.26-.5-15.41-.67-24.07-.51a320.49,320.49,0,0,0-53.47,5.53c-20.11,2.26-38.14-.08-50.59,6.77l2.06-16.12.26-1.43Z"/><path class="cls-65" d="M699.2,145.86s5.17,10.62,11.13,16.67c7.92,8,18.46,12.2,31,14.41,24.65,4.33,57.14,1.08,93,5.2l1.08.15c.92.09,1.83.13,2.74.23A139,139,0,0,1,959.51,296a153.32,153.32,0,0,1,2,18.92c1.77,33.09-5.48,66.29-20,98.77-26.73,55.05-73.09,105.62-114.92,144.69-27.57,25.74-67.5,57.6-105.77,86.43-6.06,4.57-12.09,9.06-18,13.43-32.49,24-61.93,44.45-79.38,55.73l1.57-12.33,2-9c.75-6.85,21.1-25.88,48.81-43.77,6.35-3.83,13.27-8,20.57-12.66,32.48-20.55,71.74-47.44,106.93-79.35,8.55-7.76,16.84-15.82,24.72-24.16,37-39.05,79.45-90.31,101.7-144.08,8-19.24,13.28-38.79,14.83-58.21a136.2,136.2,0,0,0,0-22.58c-.18-2.05-.43-4.1-.68-6.15a102.27,102.27,0,0,0-7-27.28,97.77,97.77,0,0,0-9.3-17.25,101.81,101.81,0,0,0-6.63-8.7,104.43,104.43,0,0,0-29.31-23.95,112.62,112.62,0,0,0-12.41-5.82,218.82,218.82,0,0,0-41.71-12.4,194.06,194.06,0,0,0-21.25-2.77c-7.25-.55-15.41-.77-24.08-.68a329.72,329.72,0,0,0-53.63,5.05c-20.46,2.3-38.93,1-51.59,7.93l2-16.1.26-1.43Z"/><path class="cls-66" d="M699.2,145.86s5.17,10.62,11.13,16.67c7.92,8,18.46,12.2,31,14.41,24.65,4.33,57.14,1.09,93,5.2l1.08.15c.92.09,1.83.13,2.74.23A139,139,0,0,1,959.51,296a153.32,153.32,0,0,1,2,18.92c1.77,33.05-5.46,66.22-19.94,98.66-26.74,55-73.09,105.56-114.8,144.51-27.47,25.64-67.48,57.58-105.87,86.51-6.07,4.57-12.1,9.06-18,13.45-32.44,24-61.9,44.48-79.42,55.82l1.57-12.32,2-9c.76-7,21.31-25.14,49.49-43.33,6.36-3.89,13.26-8.12,20.53-12.75,32.53-20.7,71.74-47.58,106.8-79.44,8.54-7.76,16.82-15.82,24.69-24.17,36.79-39,79.27-90.25,101.6-144.07,8-19.22,13.33-38.75,14.93-58.17a136.12,136.12,0,0,0,.1-22.57c-.16-2.06-.41-4.1-.64-6.15a103.92,103.92,0,0,0-6.78-27.35,98.3,98.3,0,0,0-9.2-17.32,96.76,96.76,0,0,0-6.57-8.77,103.69,103.69,0,0,0-29.17-24.15,112.44,112.44,0,0,0-12.38-5.87,218.21,218.21,0,0,0-41.66-12.6A200.35,200.35,0,0,0,817.57,203c-7.24-.57-15.41-.87-24.1-.83a338.3,338.3,0,0,0-53.78,4.56c-20.81,2.34-39.72,2-52.6,9.1l2-16.09.26-1.43Z"/><path class="cls-67" d="M699.2,145.86s5.17,10.62,11.13,16.67c7.92,8,18.46,12.2,31,14.41,24.65,4.33,57.14,1.09,93,5.2l1.08.15c.92.09,1.83.13,2.74.23A139,139,0,0,1,959.51,296a153.32,153.32,0,0,1,2,18.92c1.77,33-5.44,66.15-19.89,98.55C914.93,468.5,868.57,519,827,557.81c-27.37,25.55-67.46,57.55-106,86.58-6.07,4.58-12.11,9.08-18,13.47-32.4,23.95-61.87,44.51-79.46,55.92l1.56-12.32,2-9c.77-7.09,21.52-24.42,50.16-42.91,6.37-3.93,13.25-8.2,20.48-12.83,32.58-20.85,71.74-47.71,106.68-79.52,8.53-7.77,16.8-15.84,24.65-24.19,36.62-38.93,79.11-90.19,101.5-144,8-19.2,13.38-38.72,15-58.13a139.5,139.5,0,0,0,.18-22.57c-.15-2.06-.39-4.11-.61-6.16a104.11,104.11,0,0,0-6.62-27.4,98.57,98.57,0,0,0-9.08-17.41,104,104,0,0,0-6.51-8.83,103,103,0,0,0-29-24.34,109.85,109.85,0,0,0-12.36-5.93,220.82,220.82,0,0,0-41.6-12.8,207.24,207.24,0,0,0-21.24-3c-7.23-.62-15.4-1-24.1-1a348.45,348.45,0,0,0-53.94,4.08c-21.15,2.38-40.52,3.08-53.61,10.27l2.06-16.09.26-1.42Z"/><path class="cls-68" d="M699.2,145.86s5.17,10.62,11.13,16.67c7.92,8,18.46,12.2,31,14.41,24.65,4.33,57.14,1.09,93,5.2l1.08.15c.92.09,1.83.13,2.74.23A139,139,0,0,1,959.51,296a153.32,153.32,0,0,1,2,18.92c1.77,33-5.42,66.07-19.84,98.44-26.74,55-73.1,105.44-114.56,144.16C799.89,583,759.72,615,721.09,644.17Q712,651.06,703,657.66c-32.35,23.93-61.84,44.55-79.5,56l1.56-12.31,2-9c.79-7.21,21.73-23.68,50.85-42.48,6.37-4,13.23-8.29,20.43-12.91,32.6-21,71.73-47.84,106.55-79.6,8.52-7.78,16.77-15.85,24.61-24.21C866,494.33,908.5,443.07,931,389.16c8-19.18,13.43-38.68,15.15-58.08a139.55,139.55,0,0,0,.27-22.57c-.15-2.06-.37-4.11-.58-6.16a104.63,104.63,0,0,0-6.46-27.47,99.07,99.07,0,0,0-15.41-26.37A102.19,102.19,0,0,0,895,224a109.68,109.68,0,0,0-12.33-6,220.07,220.07,0,0,0-41.55-13,208.59,208.59,0,0,0-21.23-3.13c-7.22-.66-15.4-1.06-24.12-1.14a359.25,359.25,0,0,0-54.09,3.59c-21.5,2.41-41.31,4.13-54.61,11.44l2-16.08.26-1.42Z"/><path class="cls-69" d="M699.2,145.86s5.17,10.62,11.13,16.67c7.92,8,18.46,12.2,31,14.41,24.65,4.33,57.14,1.09,93,5.2l1.08.15c.92.09,1.83.13,2.74.23A139,139,0,0,1,959.51,296a153.32,153.32,0,0,1,2,18.92c1.76,32.94-5.41,66-19.79,98.34-26.74,55-73.11,105.37-114.44,144C800.17,582.6,759.9,614.73,721.16,644c-6.08,4.58-12.12,9.1-18.07,13.5-32.31,23.92-61.81,44.58-79.55,56.12l1.57-12.31,2-9c.8-7.33,21.93-22.95,51.52-42,6.38-4,13.22-8.36,20.38-13,32.66-21.18,71.73-48,106.42-79.68,8.51-7.79,16.76-15.87,24.58-24.23,36.29-38.8,78.77-90.07,101.31-144,8-19.16,13.48-38.65,15.27-58a141.92,141.92,0,0,0,.35-22.57c-.14-2.06-.36-4.11-.56-6.17A104.5,104.5,0,0,0,940.13,275a99.58,99.58,0,0,0-15.24-26.52,101.78,101.78,0,0,0-28.76-24.75,112.35,112.35,0,0,0-12.31-6,220.57,220.57,0,0,0-41.5-13.19,207.23,207.23,0,0,0-21.22-3.24c-7.21-.71-15.4-1.16-24.14-1.31a370.46,370.46,0,0,0-54.24,3.11c-21.84,2.45-42.1,5.18-55.62,12.61l2-16.07.27-1.43Z"/><path class="cls-70" d="M699.2,145.86s5.17,10.62,11.13,16.67c7.92,8,18.46,12.2,31,14.41,24.65,4.33,57.14,1.09,93,5.2l1.08.15c.92.09,1.83.13,2.74.23A139,139,0,0,1,959.51,296a153.32,153.32,0,0,1,2,18.92c1.76,32.91-5.39,65.92-19.74,98.23-26.75,55-73.11,105.31-114.32,143.79-27.06,25.26-67.41,57.46-106.28,86.79q-9.12,6.88-18.08,13.52c-32.26,23.9-61.77,44.62-79.58,56.22l1.56-12.3,2-9c.82-7.44,22.15-22.21,52.2-41.62,6.4-4.08,13.21-8.44,20.33-13.07,32.72-21.32,71.74-48.11,106.3-79.77,8.5-7.79,16.74-15.87,24.54-24.24,36.12-38.74,78.6-90,101.22-144,8-19.13,13.52-38.61,15.37-58a143,143,0,0,0,.44-22.56c-.13-2.06-.34-4.12-.53-6.17a105.73,105.73,0,0,0-6.12-27.59,101.47,101.47,0,0,0-43.7-51.6,111.52,111.52,0,0,0-12.29-6.1,220.05,220.05,0,0,0-41.44-13.39,208.32,208.32,0,0,0-21.22-3.36c-7.2-.76-15.38-1.26-24.14-1.46a382.32,382.32,0,0,0-54.4,2.61c-22.19,2.5-42.89,6.24-56.62,13.79l2-16.07.26-1.42Z"/><path class="cls-71" d="M941.87,413.05c-26.75,55-73.12,105.25-114.2,143.61-27,25.17-67.39,57.44-106.38,86.87s-76.53,56-97.72,69.85l1.56-12.3,2.07-9c1-9.14,32.28-27.59,73.16-54.34S791.68,576,831,533.68C886,474.53,956.24,385.93,947.66,303a100.18,100.18,0,0,0-6-27.64,100.92,100.92,0,0,0-55.65-58.1,210.07,210.07,0,0,0-62.6-17.07c-38.32-4.26-105.23-1.63-136.34,15.47l2-16.06,10-53.73s5.17,10.62,11.13,16.67c7.92,8,18.46,12.2,31,14.41,24.65,4.33,57.13,1.2,93,5.2l1.08.15c.92.08,1.83.13,2.74.23A138.7,138.7,0,0,1,961.56,314.93C963.8,347.77,956.19,380.78,941.87,413.05Z"/></g><g id="highlightt"><path class="cls-72" d="M796,190.5c2,6.74-67.45,33.77-155.25,60.37s-160.59,42.71-162.63,36,67.46-33.77,155.24-60.37S793.93,183.75,796,190.5Z"/><path class="cls-73" d="M444.39,831.41c-5.05,6.24-10,12.45-15.08,18.61,45.45-28.68,115.05-68.85,184.68-124.7C760.17,608.07,846.64,542.46,842.58,536.7S726.73,612.5,592.84,702.33c-43.11,28.92-75.14,54.3-109.39,85.79C466.87,800.5,456.63,816.26,444.39,831.41Z"/><path class="cls-74" d="M955.3,350.86c-8.72,3.29-27.29-24.56-41.48-62.21s-18.65-70.82-9.92-74.11,27.3,24.56,41.49,62.21S964,347.57,955.3,350.86Z"/></g></g><path id="outside" class="cls-75" d="M704.84,42.92s2.93,549.24-129.39,804.6c-1.28,2.46-4,4.92-7.84,7.35-30.38,34-114.74,58.37-214.12,58.37h-2.13c-99.38,0-183.74-24.42-214.12-58.37-3.85-2.43-6.56-4.89-7.84-7.35C-2.92,592.16,0,42.92,0,42.92v-2.6C0,18.06,157.79.38,352.43,0c199.31-.38,352.42,18,352.42,40.31C704.85,41.18,704.84,42.05,704.84,42.92Z"/><g id="shading"><path class="cls-76" d="M704.85,42.92s3.28,549.24-129,804.6c-1.27,2.46-4,4.92-7.84,7.35-30.38,34-115.09,58.37-214.47,58.37h-2.13c-99.39,0-183.74-24.42-214.12-58.37-3.86-2.43-6.57-4.89-7.84-7.35C-2.92,592.16,0,42.92,0,42.92v-2.6C0,18.06,157.79.38,352.43,0c199.31-.38,352.42,18,352.42,40.31h0C704.86,41.2,704.85,42.05,704.85,42.92Z"/><path class="cls-77" d="M505.23,133c-4.36,46.15-7.71,96.13-9.73,148.33-9,233,11.86,421.68,46.58,421.48s70.23-189.23,79.24-422.2c2.1-54.36,2.57-106.3,1.63-154Z"/></g><g id="inside"><path class="cls-78" d="M704.85,42.92s.08,12.84-.27,35.52c-83.33,9-194,34.16-319.73,34.16-158.46,0-298.72-29-384.68-42.83C0,52.52,0,42.92,0,42.92v-2.6C0,18.06,157.79.38,352.43,0c199.31-.38,352.42,18,352.42,40.31h0C704.86,41.2,704.85,42.05,704.85,42.92Z"/><path class="cls-79" d="M352.43,0C157.79.38,0,18.06,0,40.32S157.79,80.64,352.43,80.64s352.41-18,352.41-40.32S551.74-.37,352.43,0Z"/><ellipse class="cls-80" cx="353.4" cy="39.02" rx="342.68" ry="36.96"/><ellipse class="cls-81" cx="353.4" cy="39.02" rx="342.67" ry="36.96"/></g><g id="highlight"><path class="cls-82" d="M89.25,613c-27.17,2.32-59.81-119.58-72.9-272.32S14.6,62.27,41.8,60s59.82,119.58,72.92,272.29S116.45,610.66,89.25,613Z"/><ellipse class="cls-83" cx="411.42" cy="40.32" rx="243.03" ry="17.87"/><path class="cls-84" d="M656,21.66c-8.48,13.1-22.09,27.75-39.45,41C563.18,69.6,487,74.36,400.43,75.64,364.89,55.19,338,27.17,325.18,2.19q13.95-.13,28.22-.13C484.48,2.06,598.37,10,656,21.66Z"/><path class="cls-85" d="M601.32,56.75c-1,11.94-65.91,16.14-144.91,9.35S314.2,44.17,315.23,32.21s65.89-16.14,144.9-9.36S602.33,44.79,601.32,56.75Z"/><path class="cls-86" d="M704.84,42.92s2.88,480.14-104.91,751.29c5.64-75.82,16.34-196.37,27.92-312.41,20.81-208.42,60.69-398.41,75.24-441.48h1.76C704.85,41.2,704.84,42.05,704.84,42.92Z"/><path class="cls-87" d="M767.5,213.17a121.88,121.88,0,0,1-2.26,19.52,139,139,0,0,0-68.32,29.15s-.47,6.92-1.44,18.66c-90.05-17.8-95.55-141.15,7.61-143.58-.31,7.59-.46,14.94-.46,14.94,10.64,20.23,30.54,25.42,56.27,27C764.17,188.41,767.5,201.86,767.5,213.17Z"/><path class="cls-88" d="M676.53,611.87c-17.35,9.13-27.39,12.79-27.39,12.79.91-2.74,3.83-17.76,4.56-21A78.63,78.63,0,0,0,645,603a63,63,0,0,0-23,121.63c1.31-4.3.73-4.66,8.7-9.33,14.59-8.54,38-23.26,77.58-51.48C707.8,642,693.71,622.81,676.53,611.87Z"/></g></g></g><g id="character_art" data-name="character art"><g id="art"><g id="slogan"><g id="slogan-2" data-name="slogan"><path class="cls-2" d="M159.88,562.4l-2.51-4.29,30-17.52,2.5,4.29Z"/><path class="cls-2" d="M192.93,575.42l-3-4,5.94-4.5a2.37,2.37,0,0,0,1-1.63,2.4,2.4,0,0,0-.48-1.83,2.36,2.36,0,0,0-1.64-1,2.4,2.4,0,0,0-1.83.48L177,575a2.34,2.34,0,0,0-1,1.63,2.48,2.48,0,0,0,4,2.31l5.94-4.49,3,4L183,582.91a7.44,7.44,0,1,1-9-11.86l15.85-12a7.44,7.44,0,1,1,9,11.86Z"/><path class="cls-2" d="M212.69,576a7.5,7.5,0,0,1,.46,4.46,7.15,7.15,0,0,1-2.24,3.95l-14.6,13.47a7.14,7.14,0,0,1-5.36,2,7.55,7.55,0,0,1-3.17-.86,7.07,7.07,0,0,1-2-1.52,7.48,7.48,0,0,1-1.83-6.58,7.14,7.14,0,0,1,2.25-3.94l14.59-13.47a7.17,7.17,0,0,1,5.34-2,7.39,7.39,0,0,1,3.18.85,7.09,7.09,0,0,1,2,1.54A7,7,0,0,1,212.69,576Zm-19.76,18.23,14.6-13.47a2.44,2.44,0,0,0,.14-3.5,2.47,2.47,0,0,0-3.51-.15l-14.6,13.47a2.39,2.39,0,0,0-.79,1.74,2.34,2.34,0,0,0,.67,1.77,2.39,2.39,0,0,0,1.72.8A2.42,2.42,0,0,0,192.93,594.21Z"/><path class="cls-2" d="M230.8,592.31a7.24,7.24,0,0,1,2.63,5.07,7.13,7.13,0,0,1-1.73,5.43l-17.63,20.86-3.8-3.21,17.63-20.85a2.48,2.48,0,0,0-.31-3.5,2.47,2.47,0,0,0-3.49.29l-17.63,20.86-3.8-3.21L220.3,593.2a2.44,2.44,0,0,0-.3-3.49,2.36,2.36,0,0,0-1.8-.57,2.39,2.39,0,0,0-1.69.86l-17.63,20.86-3.8-3.21,17.63-20.85a7.5,7.5,0,0,1,10.5-.89,7.21,7.21,0,0,1,2.58,4.66A7.18,7.18,0,0,1,230.8,592.31Z"/><path class="cls-2" d="M238.24,598.26l6.22,4a7.48,7.48,0,0,1,2.19,10.33L244,616.77A7.5,7.5,0,0,1,233.62,619l-2.06-1.34-8.12,12.48-4.17-2.71Zm-2.32,16.26a3,3,0,0,0,4.14-.87l2.15-3.31a2.86,2.86,0,0,0,.43-2.25,2.9,2.9,0,0,0-1.3-1.88l-1.65-1.07-5.41,8.31Z"/><path class="cls-2" d="M252.73,607.72l4.42,2.29-12.58,24.23a2.46,2.46,0,0,0,1.06,3.34,2.42,2.42,0,0,0,1.9.16,2.38,2.38,0,0,0,1.46-1.21l12.57-24.23,4.4,2.27-12.57,24.24a7.43,7.43,0,0,1-10,3.18,7.44,7.44,0,0,1-3.18-10Z"/><path class="cls-2" d="M280.07,625.83l-4.6-1.83-11,27.65-4.63-1.84,11-27.65-4.62-1.84,1.84-4.62,13.84,5.51Z"/><path class="cls-2" d="M290.35,639.44l-1.43,4.76-5.53-1.65L280.54,652l5.53,1.66-1.43,4.76-10.29-3.08,10-33.28,10.29,3.08-1.43,4.76-5.53-1.65-2.85,9.5Z"/><path class="cls-2" d="M294.48,660.92l-2.06,2.25-1.68-.39,1.77-2.32-2.85-.66,1.13-4.84,4.82,1.13Z"/><path class="cls-2" d="M327.75,636.1l-4.91-.58-3.53,29.56-4.94-.59,3.53-29.56-4.94-.59.59-4.93,14.79,1.76Z"/><path class="cls-2" d="M345.06,666.35l-5-.07.21-14.88-5-.07-.21,14.88-5-.07.49-34.73,5,.07-.2,14.88,5,.07.21-14.88,5,.07Z"/><path class="cls-2" d="M360,645.63l.36,5-5.75.42.73,9.89,5.76-.42.36,4.95-10.71.79-2.57-34.64,10.72-.79.37,5-5.76.43.73,9.89Z"/><path class="cls-2" d="M378.23,643.07a7.63,7.63,0,0,1-2.81,4.6l.36.83,2,4.71,2,4.68,2,4.7-4.91.8-2-4.7-2-4.69-2-4.7-1.23.2,2.4,14.69-4.9.8-5.61-34.28,7.33-1.2a7.48,7.48,0,0,1,6.54,2.12,7.12,7.12,0,0,1,2.06,4l.8,4.86A7.21,7.21,0,0,1,378.23,643.07Zm-9.39,1.53,2-.32a2.85,2.85,0,0,0,1.92-1.16,3.09,3.09,0,0,0,.55-2.23v0l-.64-3.89a.13.13,0,0,0,0-.06,3,3,0,0,0-1.24-1.92,2.84,2.84,0,0,0-2.18-.49l-2,.32Z"/><path class="cls-2" d="M392.87,639.59l1.23,4.82-5.59,1.42,2.45,9.61,5.59-1.42,1.23,4.81-10.41,2.66-8.6-33.66,10.41-2.66,1.23,4.81-5.59,1.43,2.45,9.61Z"/><path class="cls-2" d="M401.39,637l5.44-1.85,1.6,4.71L403,641.69l4.8,14.1-4.72,1.6-11.17-32.9L402,621.05l1.6,4.7-5.44,1.85Z"/><path class="cls-2" d="M413.78,616.72a7.59,7.59,0,0,1,4.37,1,7.14,7.14,0,0,1,3,3.4l8,18.17a7.18,7.18,0,0,1,.12,5.71,7.55,7.55,0,0,1-1.84,2.71,7.44,7.44,0,0,1-4.55,2,7.42,7.42,0,0,1-4.37-1,7.22,7.22,0,0,1-3-3.4l-8-18.17a7.15,7.15,0,0,1-.13-5.68,7.37,7.37,0,0,1,1.84-2.73,7.44,7.44,0,0,1,4.55-2Zm10.84,24.59-8-18.17a2.45,2.45,0,0,0-3.26-1.27,2.41,2.41,0,0,0-1.33,1.38,2.35,2.35,0,0,0,0,1.89l8,18.17a2.49,2.49,0,0,0,4.55-2Z"/><path class="cls-2" d="M440.35,619.24a7.61,7.61,0,0,1-1.06,5.29l.63.65,3.51,3.73,3.52,3.7,3.53,3.71-4.33,2.44L442.62,635l-3.5-3.7-3.53-3.72-1.09.61,7.31,13-4.33,2.44-17.07-30.27,6.47-3.64a7.35,7.35,0,0,1,2.41-.86,7.59,7.59,0,0,1,4.46.6,7.21,7.21,0,0,1,3.33,3.09l2.42,4.29A7.28,7.28,0,0,1,440.35,619.24Zm-8.29,4.66,1.73-1a2.82,2.82,0,0,0,1.39-1.75,3,3,0,0,0-.24-2.28l0,0L433,615.42l0,0a3.1,3.1,0,0,0-1.82-1.37,2.87,2.87,0,0,0-2.23.29l-1.73,1Z"/><path class="cls-2" d="M452.94,610.93l2.81,4.11L451,618.29l5.61,8.18,4.76-3.25,2.81,4.1-8.87,6.06-19.64-28.67,8.87-6.06,2.81,4.1L442.57,606l5.61,8.18Z"/><path class="cls-2" d="M480.08,614.79,476.3,618l-22.64-26.36,3.77-3.23Z"/><path class="cls-2" d="M471.43,585.9a7.44,7.44,0,0,1,10.06-11l20.15,18.44L498.28,597l-11-10-3.37,3.66,11,10.05-3.34,3.65Zm12.2-2.28-5.5-5a2.49,2.49,0,0,0-3.5.16,2.48,2.48,0,0,0,.14,3.51l5.5,5Z"/><path class="cls-2" d="M487.77,554.43a7.47,7.47,0,0,1,10.4-1.78l22.28,15.81-2.88,4-22.28-15.8a2.47,2.47,0,0,0-3.46.6,2.32,2.32,0,0,0-.42,1.84,2.39,2.39,0,0,0,1,1.61l22.28,15.8-2.88,4.05-22.28-15.8a2.43,2.43,0,0,0-1.85-.44,2.47,2.47,0,0,0-1.6,1,2.47,2.47,0,0,0,.59,3.45L509,584.64l-2.88,4.06-22.28-15.81a7.43,7.43,0,0,1,2.67-13.32A7.1,7.1,0,0,1,487.77,554.43Z"/></g><g id="art-2" data-name="art"><path class="cls-89" d="M488.9,362.56h0l8.32-5a183.75,183.75,0,0,0-113.61-83.45l-2.31,9.34A174,174,0,0,1,488.9,362.56Z"/><path class="cls-89" d="M509,494.51l9.35,2.31a183.35,183.35,0,0,0-21.1-139.28l-8.32,5A173.63,173.63,0,0,1,509,494.51Z"/><path class="cls-90" d="M531.05,377.28l-.14.05a207.14,207.14,0,0,0-32.61-57l-7.64,6.15a196.53,196.53,0,0,1,41.52,94.27c0,.26.09.51.12.77.14.94.26,1.88.38,2.82.1.72.2,1.43.28,2.15,0,.35.08.71.12,1.07a195.29,195.29,0,0,1-16.55,103.58l8.83,4h0a206,206,0,0,0,17.51-63.26h0s0-.08,0-.12A206.1,206.1,0,0,0,531.05,377.28Z"/><path class="cls-91" d="M405.72,250a206.27,206.27,0,0,0-157.6,13.47h0l4.47,8.62,5.82,11.22A184.61,184.61,0,0,1,506.84,362l11.23-5.81,8.63-4.46A205.94,205.94,0,0,0,405.72,250Z"/><path class="cls-89" d="M485.31,544.76A173.64,173.64,0,0,0,504,412.6h0a174.57,174.57,0,0,0-338.09,87.14h0l11.28-2.91h0A162.92,162.92,0,0,1,294.22,298.59h0A163.13,163.13,0,0,1,492.69,415.51h0a162.08,162.08,0,0,1-17.48,123.3Z"/><path class="cls-91" d="M183.71,423.43a153.5,153.5,0,0,1,65.63-97.91l-4.87-7.28a162.24,162.24,0,0,0-69.36,103.48Z"/><path class="cls-91" d="M365,302.51l1.71-8.59a162.58,162.58,0,0,0-122.27,24.32l4.87,7.28A153.79,153.79,0,0,1,365,302.51Z"/><path class="cls-2" d="M222.78,530.59a136,136,0,0,1,18.14-182.44l12.37,15.08a116.54,116.54,0,0,0-15.41,155Z"/><path class="cls-2" d="M409.57,541.29A116.49,116.49,0,0,0,437.12,388l16-11.14A136,136,0,0,1,420.72,557.3Z"/><path class="cls-90" d="M162,382.16A183.63,183.63,0,0,1,263.4,284.29l-4.64-11.74A196.32,196.32,0,0,0,147.94,527.64L159.7,523A183.32,183.32,0,0,1,162,382.16Z"/></g></g><g id="character"><path class="cls-2" d="M280.43,459.94c0,18,14.06,25.84,21.57,25.84s13.6-11.57,13.6-25.84-6.09-25.85-13.6-25.85S280.43,441.9,280.43,459.94Z"/><path class="cls-92" d="M305.81,426.63s-26.37,40.76-23.38,82c0,0,14.43,63.38,20.4,67.85,3.73,2.8,10.78,14.67,40,15.33,12,.27,23.41-.66,41.14-15.58,0,0,17.41-41.25,19.4-82s13.44-68.6-37.82-79.54C330.69,407.27,305.81,426.63,305.81,426.63Z"/><ellipse class="cls-2" cx="259.31" cy="555.73" rx="10.08" ry="10.07"/><path class="cls-93" d="M249.5,549.55a26.26,26.26,0,0,0,10,7.2,25.45,25.45,0,0,0,11.82,1.39L313.2,471c-3.24.2-12.11-3.05-19.48-8.86-8.07-6.37-11-14.39-9.94-19.55Z"/><path class="cls-94" d="M373.72,548.94v-.09c.65-10.17-10.9-18.11-26.28-18.49s-29.15,9.37-29.88,21v.11Z"/><path class="cls-2" d="M326.2,603.91c5.35,2.68,12.31,3.47,19.23,2.3a41.13,41.13,0,0,0,18.6-8c4.84-3.91,8.11-8.74,8.66-13.59-.18-12.15.09-24.44.78-35.66l-56.25,2.51q-1.23,20-.78,39.89C317.29,596.7,320.82,601.23,326.2,603.91Z"/><path class="cls-95" d="M316.74,591.33a13.48,13.48,0,0,0,.09,3.36c0-1.12-.06-2.23-.09-3.35Z"/><path class="cls-95" d="M373,584.46s0,.09,0,.14l.06,3.46A10.85,10.85,0,0,0,373,584.46Z"/><path class="cls-95" d="M324.66,605.59c5.49,3.33,13.4,4.36,21.23,3s15.4-4.9,20.43-9.46c3.82-3.4,6.17-7.34,6.73-11.1L373,584.6c-.55,4.85-3.82,9.68-8.67,13.59a41,41,0,0,1-18.6,8c-6.91,1.17-13.88.38-19.23-2.3s-8.9-7.21-9.75-12.57c0,1.12.05,2.23.09,3.35A15.29,15.29,0,0,0,324.66,605.59Z"/><path class="cls-95" d="M373.5,553.09c.45,4.82-2.37,10.16-7.78,14.37a41.14,41.14,0,0,1-20.94,8c-7.81.76-15.63-.84-20.78-4.56s-7.73-9.31-6.71-14.83c.38,5.44,3.6,10.22,8.67,13.27s11.9,4.36,18.84,3.69a40.5,40.5,0,0,0,19-6.75C369,562.69,372.58,558,373.5,553.09Z"/><path class="cls-2" d="M331,359.45c.08-3.77,6.35-6.64,13.9-6.21s13.53,3.38,13.45,6.81Z"/><path class="cls-2" d="M331.43,387.22c-.52-9.3-.66-18.51-.47-27.77l27.35.6c-.18,8.53,0,17.13.43,25.6Z"/><path class="cls-95" d="M358.25,363.09a11.93,11.93,0,0,1-.68,5.4,12.72,12.72,0,0,1-3.05,4.62,14.9,14.9,0,0,1-9.82,4.18,13.94,13.94,0,0,1-10-3.84,12.57,12.57,0,0,1-3.77-10.7,13.3,13.3,0,0,0,4.78,9.25,13.78,13.78,0,0,0,8.93,3,14.67,14.67,0,0,0,8.83-3.21A13.25,13.25,0,0,0,358.25,363.09Z"/><path class="cls-2" d="M334.6,415.39a241.89,241.89,0,0,1-3.17-28.17l27.31-1.57a214.18,214.18,0,0,0,2.78,24.87Z"/><path class="cls-95" d="M358.92,388.67a11.64,11.64,0,0,1-.23,5.37,12.75,12.75,0,0,1-2.63,4.8,15.2,15.2,0,0,1-9.38,5.07,13.67,13.67,0,0,1-10.33-2.9,12.74,12.74,0,0,1-3.57-4.64,13,13,0,0,1-1.12-5.83,13.4,13.4,0,0,0,5.56,8.91,13.58,13.58,0,0,0,9.17,2.17,15,15,0,0,0,8.5-4A13.1,13.1,0,0,0,358.92,388.67Z"/><path class="cls-2" d="M344.15,444.92A76.4,76.4,0,0,1,338,429.87a133.26,133.26,0,0,1-3.42-14.48l26.92-4.87a107.53,107.53,0,0,0,2.7,11.5,50.36,50.36,0,0,0,3.86,9.65Z"/><path class="cls-95" d="M362.05,413.35a10.27,10.27,0,0,1,.54,2.47,12.18,12.18,0,0,1-.06,2.56,12.79,12.79,0,0,1-1.87,4.88,16.76,16.76,0,0,1-8.25,6.67,12.67,12.67,0,0,1-10.73-.94,12.88,12.88,0,0,1-4.39-4.27,12.72,12.72,0,0,1-1.35-2.87,13.1,13.1,0,0,1-.66-3.05,13.64,13.64,0,0,0,7,8.43,12.73,12.73,0,0,0,9.43.52,16.33,16.33,0,0,0,7.65-5.41A12.84,12.84,0,0,0,362.05,413.35Z"/><path class="cls-2" d="M344.15,444.92a5.41,5.41,0,0,0,2.66,2.36,7.27,7.27,0,0,0,1.84.54,10,10,0,0,0,2.13.08c2.94-.21,6.06-1.77,9-4.2a42.18,42.18,0,0,0,6.64-7.24c.38-.53.71-1,1-1.47a8.72,8.72,0,0,0,.67-1.33,2.36,2.36,0,0,0,.06-2Z"/><g class="cls-96"><rect class="cls-97" x="278" y="406.75" width="127.79" height="189.39"/><polygon class="cls-98" points="289.89 453.97 337.17 431.11 377.48 470.21 417.29 435.58 371.5 410.73 321.24 410.73 292.88 424.64 289.89 453.97"/><path class="cls-99" d="M406.84,440.05s-8-10.93-18.41-6-28.87,49.71-31.36,61.64-4.62,42.19-4.31,49.7c.33,8.12-1.31,38,20.9,40.43S415.3,537,415.3,537,435.2,444,406.84,440.05Z"/><path class="cls-99" d="M329.7,414.37s-6,5.54-7.3,8.62c-1.41,3.27-3,9.11,8.46,11.26S335,417.68,335,417.68,340.15,412.55,329.7,414.37Z"/><path class="cls-99" d="M322.57,552.56a15.73,15.73,0,0,0-10.78-1c-4.26,1.21-6.12,8.29-6.47,11.59-.4,3.74,0,12.76-4.81,14.25s12.94,5.47,12.94,5.47Z"/><polygon class="cls-99" points="335.11 511.01 291.53 503.74 298.45 472.61 343.27 476.68 335.11 511.01"/><polygon class="cls-2" points="335.4 509.82 293.77 502.87 300.38 473.14 343.2 477.03 335.4 509.82"/><g class="cls-100"><polyline class="cls-101" points="293.62 491.43 301.35 483.14 304.43 493.6 307.16 488.33 307.32 496.5 313.37 481.86 314.21 496.05 320.84 486.32 323.54 496.99 329.73 483.32 328.18 502.17 333.41 491.4 333.48 499.36 341.78 486.09"/></g></g><path class="cls-2" d="M415.13,464.58c0,18-14.05,25.84-21.56,25.84S380,478.85,380,464.58s6.09-25.85,13.6-25.85S415.13,446.54,415.13,464.58Z"/><ellipse class="cls-2" cx="309.63" cy="530.66" rx="10.08" ry="10.07"/><path class="cls-93" d="M318.13,538.54s.93-7.82-3-13.14c-3.77-5.15-10.95-5.69-10.95-5.69l75.69-65.93c3.77-1.58,10.8-2.79,19.07,1.65,9.7,5.22,13.73,24.9,8.09,30.2Z"/><path class="cls-98" d="M296.57,429.39l11.38-.67L321.09,528.8s-3.46-1.46-10.8-.9c-7.71.59-11.08,2.61-11.08,2.61Z"/><g class="cls-102"><polygon class="cls-98" points="306.85 441.94 326.24 420.19 302.67 402.79 287.38 405.69 294.03 435.43 306.85 441.94"/><path class="cls-97" d="M304,448.13l9.59-11.88s-8.57-7-15-7.61-12.2,2.94-12.2,2.94l4.18,11.5Z"/></g><path class="cls-2" d="M308.21,410.6a38.82,38.82,0,0,0-10.45-3.36c-6.62-1-7.33-.08-7.33-.08s-.57-1.67.16-2.41,5.67-.56,6.75-.4,11,3.91,11,3.91Z"/><ellipse class="cls-2" cx="317.59" cy="418.95" rx="5.04" ry="5.03"/><path class="cls-93" d="M307,409.18s-1,4.5,2.45,5.54c3,.91,4.57-2.63,4.57-2.63l2.29-13.17s6.08-5.4,3.29-9.39l-8.86,5Z"/><path class="cls-97" d="M290.21,405.45l5.8-12.9,13.22-4.72,10.37,1.7-8.86,5L307,409.18a32,32,0,0,0-10.13-4.25C294.84,404.51,291.82,404.6,290.21,405.45Z"/><polygon class="cls-99" points="296.01 392.55 310.74 394.55 319.6 389.53 309.23 387.83 296.01 392.55"/><ellipse class="cls-2" cx="310.5" cy="410.92" rx="2.85" ry="3.27" transform="translate(-38.96 32.58) rotate(-5.65)"/><path class="cls-98" d="M322.71,401.56a11.69,11.69,0,0,1,8.39-.88l-8.35,20.18a5.6,5.6,0,0,1-6.46.87,5.21,5.21,0,0,1-3.46-5l4.06-8.27S319.81,403,322.71,401.56Z"/><path class="cls-99" d="M313.78,419.78a.38.38,0,0,1,0-.08l4-8.27s2.93-5.53,5.82-6.94a12.35,12.35,0,0,1,6.38-1.24l1.06-2.57a11.69,11.69,0,0,0-8.39.88c-2.9,1.4-5.82,6.94-5.82,6.94l-4.06,8.27A4.88,4.88,0,0,0,313.78,419.78Z"/><ellipse class="cls-2" cx="298.59" cy="357.73" rx="8.55" ry="1.65" transform="translate(-109.69 582.29) rotate(-78.96)"/><ellipse class="cls-2" cx="303.47" cy="358.68" rx="8.55" ry="1.65" transform="translate(-106.68 587.85) rotate(-78.96)"/><rect class="cls-2" x="298.55" y="349.65" width="4.96" height="17.11" transform="translate(73.97 -50.91) rotate(11.01)"/><ellipse class="cls-2" cx="377.55" cy="380.89" rx="8.55" ry="1.65" transform="translate(-116.04 590.62) rotate(-68.27)"/><ellipse class="cls-2" cx="372.93" cy="379.05" rx="8.55" ry="1.65" transform="translate(-117.24 585.17) rotate(-68.27)"/><rect class="cls-2" x="372.76" y="371.41" width="4.96" height="17.11" transform="translate(583.56 871.67) rotate(-158.32)"/><path class="cls-98" d="M302.79,360.19v0c-4.8,16.36,7,28.93,26.55,34.66s39.47,2.47,44.28-13.89v0Z"/><ellipse class="cls-92" cx="338.2" cy="370.62" rx="9.51" ry="36.9" transform="translate(-112.62 590.86) rotate(-73.66)"/><path class="cls-98" d="M377.33,377.35s-15.08,4.9-42.73-3.21-33.13-19-33.13-19l14.31-94.59,96.15,28.65Z"/><ellipse class="cls-103" cx="377.21" cy="344.5" rx="16.42" ry="16.4"/><ellipse class="cls-94" cx="371.62" cy="341.24" rx="7.73" ry="7.72"/><path class="cls-99" d="M381.84,328.76s-15.27-4.82-20.46,12.83c0,0,11.33-7.22,18.58-5.86,10.49,1.95,14.08,11.81,14.08,11.81S395.45,332.75,381.84,328.76Z"/><path class="cls-104" d="M372.16,361.68a17.9,17.9,0,1,1,22.25-12.13A17.91,17.91,0,0,1,372.16,361.68Zm9.26-31.48a14.91,14.91,0,1,0,10.11,18.5A15,15,0,0,0,381.42,330.2Z"/><path class="cls-94" d="M360.23,340.13a37.49,37.49,0,0,1,5.08-3.12,31.9,31.9,0,0,1,5.5-2.25,19.64,19.64,0,0,1,6-.9,15.06,15.06,0,0,1,3.06.39,22.68,22.68,0,0,1,2.88.77,21.05,21.05,0,0,1,5.37,2.62,22.82,22.82,0,0,1,4.39,4c1.28,1.46,2.36,3.06,3.57,4.29a4.16,4.16,0,0,0,2,1.19,4.09,4.09,0,0,0,2.33-.28.75.75,0,0,1,.58,1.39h0a5.75,5.75,0,0,1-3.19.51,5.81,5.81,0,0,1-2.9-1.5c-1.5-1.39-2.61-2.89-3.89-4.19a18.88,18.88,0,0,0-9-5.45,21,21,0,0,0-2.62-.56,11.7,11.7,0,0,0-2.54-.2,16.66,16.66,0,0,0-5.06,1,33,33,0,0,0-9.25,5.23l-.06,0a1.86,1.86,0,0,1-2.31-2.91Z"/><ellipse class="cls-103" cx="319.43" cy="327.56" rx="16.42" ry="16.4"/><ellipse class="cls-94" cx="312.41" cy="323.87" rx="7.73" ry="7.72"/><path class="cls-99" d="M324.06,311.82s15.45,4.18,10.27,21.83c0,0-5.62-12.18-12.46-15-9.88-4-18.24,2.33-18.24,2.33S310.45,307.83,324.06,311.82Z"/><path class="cls-104" d="M314.39,344.73a17.9,17.9,0,1,1,22.24-12.13A17.91,17.91,0,0,1,314.39,344.73Zm9.25-31.48a14.91,14.91,0,1,0,10.11,18.51A14.94,14.94,0,0,0,323.64,313.25Z"/><path class="cls-94" d="M332.57,334.25a33.08,33.08,0,0,0-4.95-9.4,17,17,0,0,0-3.72-3.58,12.65,12.65,0,0,0-2.25-1.2,21.64,21.64,0,0,0-2.5-.94,18.9,18.9,0,0,0-10.52-.27c-1.79.4-3.53,1.06-5.54,1.42a5.82,5.82,0,0,1-3.25-.3,5.76,5.76,0,0,1-2.41-2.15h0a.75.75,0,0,1,1.23-.85,3.56,3.56,0,0,0,4.11,1.55c1.68-.38,3.46-1.14,5.32-1.68a23.17,23.17,0,0,1,5.84-1,20.87,20.87,0,0,1,5.94.7,23.27,23.27,0,0,1,2.83.9,14.2,14.2,0,0,1,2.79,1.33,19.68,19.68,0,0,1,4.59,4,32.38,32.38,0,0,1,3.42,4.87,38.18,38.18,0,0,1,2.59,5.38,1.86,1.86,0,0,1-3.47,1.33l0-.06Z"/><path class="cls-104" d="M308.6,261s2.95,10.57,3.35,16.59a71.79,71.79,0,0,1-.3,10.27s4.77,7.82,41.7,18.71c39.62,11.68,48.43,7.73,48.43,7.73s2.61-4.94,5.44-9.41c2.27-3.58,9.63-12.14,9.63-12.14Z"/><ellipse class="cls-2" cx="362.8" cy="276.63" rx="7.98" ry="56.4" transform="translate(-4.75 546.91) rotate(-73.65)"/><path class="cls-98" d="M364.62,270.4c36.58,10.73,49.88,19.46,50.79,21.61l1.52.45c1.07-4.26-22.09-14.75-51.88-23.49s-55-12.42-56.36-8.26l1.51.44C312.14,259.84,328.05,259.68,364.62,270.4Z"/><path class="cls-104" d="M319.28,242.87s2.37,14.19,2.47,17.57-.2,14.36-.2,14.36S323,283,356.89,292.94c35.49,10.45,41.59,4.43,41.59,4.43s5.74-9.46,7.54-12.07c1.94-2.81,11.65-13.57,11.65-13.57Z"/><ellipse class="cls-2" cx="368.52" cy="257.15" rx="7.26" ry="51.27" transform="translate(18.05 538.41) rotate(-73.65)"/><path class="cls-98" d="M320.87,243.17c.69-.34,3.79-1.27,15.4.53a279.11,279.11,0,0,1,33.87,7.93,279.43,279.43,0,0,1,32.79,11.62c10.74,4.76,12.85,7.22,13.25,7.88l-.18.07,1.66.49a.6.6,0,0,0,.06-.11c1.13-3.85-20-13.42-47.15-21.39s-50.12-11.31-51.25-7.47c0,0,0,.08,0,.12l1.66.49A1,1,0,0,1,320.87,243.17Z"/><line class="cls-105" x1="371.66" y1="245.74" x2="366.34" y2="263.84"/><ellipse class="cls-106" cx="372.95" cy="241.35" rx="16.42" ry="16.4"/><path class="cls-98" d="M415.41,292l0,.06c-1.73,1.34-17.61,1.59-54.47-9.22s-50.09-19.6-50.82-21.67l.05,0-1.51-.44a.05.05,0,0,1,0,0c-1.24,4.23,22,14.77,51.87,23.53s55.14,12.45,56.38,8.22a.06.06,0,0,1,0,0Z"/><path class="cls-98" d="M416,271.2c-1,.38-4.4,1.08-15.23-.6a279.11,279.11,0,0,1-33.87-7.93,279.43,279.43,0,0,1-32.79-11.62c-10-4.44-12.52-6.88-13.14-7.72l-1.66-.49c-.67,3.92,20.27,13.38,47.16,21.27s49.63,11.24,51.19,7.58Z"/><path class="cls-93" d="M332.42,557.54l-1.08-13.06-73.83-.38s-3.39,3.95-2.89,11.29C255.14,563.09,259,566,259,566Z"/><ellipse class="cls-2" cx="333.44" cy="556.94" rx="4.7" ry="4.69"/><path class="cls-97" d="M349.14,563.26a10.85,10.85,0,0,1,.07,7.86l-18-9.56a5.23,5.23,0,0,1-.23-6.07,4.87,4.87,0,0,1,4.93-2.77l7.32,4.51S348.1,560.44,349.14,563.26Z"/><path class="cls-99" d="M333,553.33h.08l7.32,4.51s4.88,3.22,5.93,6a11.46,11.46,0,0,1,.58,6l2.3,1.21a10.85,10.85,0,0,0-.07-7.86c-1-2.82-5.93-6-5.93-6l-7.32-4.51A4.57,4.57,0,0,0,333,553.33Z"/><g class="cls-107"><polygon class="cls-93" points="312.81 552.56 330.11 573.53 349.55 554.31 349.07 539.82 320.66 541.68 312.81 552.56"/><path class="cls-97" d="M312.28,555.92l9.52,9.79s7.79-6.14,9.25-12a20.8,20.8,0,0,0-1-11.65l-11.22,2.2Z"/></g><path class="cls-2" d="M341.55,558.3a36.15,36.15,0,0,0,4.6-9.15c1.85-6,1.12-6.74,1.12-6.74s1.63-.28,2.2.5-.3,5.3-.6,6.27-5.18,9.59-5.18,9.59Z"/><path class="cls-93" d="M343,557.39s-4-1.58-5.47,1.47c-1.27,2.64,1.77,4.58,1.77,4.58l11.84,4s4.11,6.37,8.2,4.37L356,562.92Z"/><path class="cls-97" d="M348.88,542.45l11.08,7.2,2.46,12.85-3,9.31L356,562.92l-13-5.53a29.77,29.77,0,0,0,5.37-8.72C349.08,546.85,349.44,544.06,348.88,542.45Z"/><polygon class="cls-99" points="359.96 549.65 356.01 562.92 359.38 571.81 362.43 562.5 359.96 549.65"/><ellipse class="cls-2" cx="340.92" cy="560.36" rx="2.66" ry="3.06" transform="translate(-237.54 869.58) rotate(-86.81)"/></g></g></g></g></svg>