<svg xmlns="http://www.w3.org/2000/svg" xmlns:xlink="http://www.w3.org/1999/xlink" viewBox="0 0 961.95 1000"><defs><style>.cls-1,.cls-86,.cls-90{fill:none;}.cls-2{fill:#694e81;}.cls-3{isolation:isolate;}.cls-4,.cls-5,.cls-6{mix-blend-mode:multiply;}.cls-4{fill:url(#radial-gradient);}.cls-5{opacity:0.5;fill:url(#radial-gradient-2);}.cls-6{fill:url(#radial-gradient-3);}.cls-7{fill:#020202;}.cls-8{fill:#030303;}.cls-9{fill:#040404;}.cls-10{fill:#050505;}.cls-11{fill:#060606;}.cls-12{fill:#070707;}.cls-13{fill:#080808;}.cls-14{fill:#090909;}.cls-15{fill:#0a0a0a;}.cls-16{fill:#0b0b0b;}.cls-17{fill:#0c0c0c;}.cls-18{fill:#0d0d0d;}.cls-19{fill:#0e0e0e;}.cls-20{fill:#0f0f0f;}.cls-21{fill:#101010;}.cls-22{fill:#111;}.cls-23{fill:#121212;}.cls-24{fill:#131313;}.cls-25{fill:#141414;}.cls-26{fill:#151515;}.cls-27{fill:#161616;}.cls-28{fill:#171717;}.cls-29{fill:#181818;}.cls-30{fill:#191919;}.cls-31{fill:#1a1a1a;}.cls-32{fill:#1b1b1b;}.cls-33{fill:#1c1c1c;}.cls-34{fill:#1d1d1d;}.cls-35{fill:#1e1e1e;}.cls-36{fill:#1f1f1f;}.cls-37{fill:#202020;}.cls-38{fill:#212121;}.cls-39{fill:#222;}.cls-40{fill:#232323;}.cls-41{fill:#242424;}.cls-42{fill:#252525;}.cls-43{fill:#262626;}.cls-44{fill:#272727;}.cls-45{fill:#282828;}.cls-46{fill:#292929;}.cls-47{fill:#2a2a2a;}.cls-48{fill:#2b2b2b;}.cls-49{fill:#2c2c2c;}.cls-50{fill:#2d2d2d;}.cls-51{fill:#2e2e2e;}.cls-52{fill:#2f2f2f;}.cls-53{fill:#303030;}.cls-54{fill:#313131;}.cls-55{fill:#323232;}.cls-56{fill:#333;}.cls-57{fill:url(#radial-gradient-4);}.cls-58{fill:url(#radial-gradient-5);}.cls-59{fill:url(#radial-gradient-6);}.cls-60{fill:url(#linear-gradient);}.cls-61{fill:url(#linear-gradient-2);}.cls-62{fill:url(#radial-gradient-7);}.cls-63{fill:url(#radial-gradient-8);}.cls-64{fill:url(#linear-gradient-3);}.cls-65{fill:url(#linear-gradient-4);}.cls-66{fill:url(#radial-gradient-9);}.cls-67{opacity:0.8;fill:url(#radial-gradient-10);}.cls-68{fill:url(#radial-gradient-11);}.cls-69{fill:url(#radial-gradient-12);}.cls-70{fill:url(#radial-gradient-13);}.cls-71{fill:url(#radial-gradient-14);}.cls-72,.cls-73{opacity:0.6;}.cls-72{fill:url(#radial-gradient-15);}.cls-73{fill:url(#radial-gradient-16);}.cls-74{fill:#87bd40;}.cls-75{fill:#ffdd0f;}.cls-76{fill:#36954a;}.cls-77{fill:#917a2e;}.cls-78{fill:#f2d42e;}.cls-79{fill:#3f3368;}.cls-80{fill:#8a96aa;}.cls-81{clip-path:url(#clip-path);}.cls-82{fill:#d7b828;}.cls-83{fill:#f1d32e;}.cls-84{fill:#b49530;}.cls-85{clip-path:url(#clip-path-2);}.cls-86{stroke:#c5e5f8;stroke-width:1.25px;}.cls-86,.cls-90{stroke-miterlimit:10;}.cls-87{clip-path:url(#clip-path-3);}.cls-88{fill:#c5e5f8;}.cls-89{fill:#d6b728;}.cls-90{stroke:#929497;stroke-width:3px;}.cls-91{fill:#572b7e;}.cls-92{clip-path:url(#clip-path-4);}</style><radialGradient id="radial-gradient" cx="345.3" cy="1736.8" r="397.11" gradientTransform="translate(71.53 -121.36) scale(1.11 0.53)" gradientUnits="userSpaceOnUse"><stop offset="0" stop-color="#4c4c4c"/><stop offset="0.16" stop-color="#4c4c4c" stop-opacity="0.75"/><stop offset="0.46" stop-color="#4c4c4c" stop-opacity="0.34"/><stop offset="0.72" stop-color="#4c4c4c" stop-opacity="0.09"/><stop offset="0.9" stop-color="#4c4c4c" stop-opacity="0"/></radialGradient><radialGradient id="radial-gradient-2" cx="77.77" cy="3272.65" r="260.06" gradientTransform="translate(248.57 -484.41) scale(1.32 0.41)" gradientUnits="userSpaceOnUse"><stop offset="0.6" stop-color="#262626"/><stop offset="0.61" stop-color="#262626" stop-opacity="0.92"/><stop offset="0.67" stop-color="#262626" stop-opacity="0.41"/><stop offset="0.73" stop-color="#262626" stop-opacity="0.1"/><stop offset="0.8" stop-color="#262626" stop-opacity="0"/></radialGradient><radialGradient id="radial-gradient-3" cx="108.01" cy="3384.98" r="260.06" gradientTransform="translate(229.27 -474.36) scale(1.21 0.39)" xlink:href="#radial-gradient-2"/><radialGradient id="radial-gradient-4" cx="1102.07" cy="16545.53" r="243.78" gradientTransform="matrix(0.65, -0.2, 0.02, 0.05, -331.13, -372.61)" gradientUnits="userSpaceOnUse"><stop offset="0" stop-color="#8c8c8c"/><stop offset="0.25" stop-color="#8c8c8c" stop-opacity="0.7"/><stop offset="0.6" stop-color="#8c8c8c" stop-opacity="0.32"/><stop offset="0.86" stop-color="#8c8c8c" stop-opacity="0.09"/><stop offset="1" stop-color="#8c8c8c" stop-opacity="0"/></radialGradient><radialGradient id="radial-gradient-5" cx="-1120.02" cy="-21336.11" r="269.16" gradientTransform="matrix(-0.98, 0.69, -0.03, -0.04, -1136.89, 565.61)" gradientUnits="userSpaceOnUse"><stop offset="0" stop-color="#666"/><stop offset="0.04" stop-color="#666" stop-opacity="0.96"/><stop offset="0.48" stop-color="#666" stop-opacity="0.44"/><stop offset="0.82" stop-color="#666" stop-opacity="0.12"/><stop offset="1" stop-color="#666" stop-opacity="0"/></radialGradient><radialGradient id="radial-gradient-6" cx="2979.88" cy="-15475.42" r="243.9" gradientTransform="matrix(0.11, 0.28, -0.06, 0.02, -385.74, -172.58)" gradientUnits="userSpaceOnUse"><stop offset="0" stop-color="#8c8c8c"/><stop offset="0.05" stop-color="#8c8c8c" stop-opacity="0.88"/><stop offset="0.19" stop-color="#8c8c8c" stop-opacity="0.61"/><stop offset="0.33" stop-color="#8c8c8c" stop-opacity="0.39"/><stop offset="0.47" stop-color="#8c8c8c" stop-opacity="0.22"/><stop offset="0.63" stop-color="#8c8c8c" stop-opacity="0.1"/><stop offset="0.8" stop-color="#8c8c8c" stop-opacity="0.02"/><stop offset="1" stop-color="#8c8c8c" stop-opacity="0"/></radialGradient><linearGradient id="linear-gradient" y1="456.62" x2="704.85" y2="456.62" gradientUnits="userSpaceOnUse"><stop offset="0.4" stop-color="#383838"/><stop offset="0.7" stop-color="#242424"/><stop offset="1" stop-color="#0d0d0d"/></linearGradient><linearGradient id="linear-gradient-2" x1="709.53" y1="688.16" x2="-27.48" y2="71.2" gradientUnits="userSpaceOnUse"><stop offset="0.05"/><stop offset="0.05" stop-opacity="0.99"/><stop offset="0.45" stop-opacity="0"/></linearGradient><radialGradient id="radial-gradient-7" cx="551.46" cy="414.75" r="261.67" gradientTransform="translate(654.37 -133.69) rotate(91.84) scale(1 0.21)" gradientUnits="userSpaceOnUse"><stop offset="0"/><stop offset="0.9" stop-opacity="0"/></radialGradient><radialGradient id="radial-gradient-8" cx="354.75" cy="47.28" r="414.76" gradientTransform="matrix(1, 0.01, 0, 0.11, 0.05, 39.16)" gradientUnits="userSpaceOnUse"><stop offset="0" stop-color="gray" stop-opacity="0"/><stop offset="0.16" stop-color="#818181" stop-opacity="0.02"/><stop offset="0.26" stop-color="#858585" stop-opacity="0.07"/><stop offset="0.34" stop-color="#8c8c8c" stop-opacity="0.15"/><stop offset="0.41" stop-color="#959595" stop-opacity="0.28"/><stop offset="0.48" stop-color="#a1a1a1" stop-opacity="0.43"/><stop offset="0.5" stop-color="#a6a6a6" stop-opacity="0.5"/><stop offset="0.51" stop-color="#a6a6a6" stop-opacity="0.55"/><stop offset="0.55" stop-color="#a6a6a6" stop-opacity="0.79"/><stop offset="0.58" stop-color="#a6a6a6" stop-opacity="0.94"/><stop offset="0.6" stop-color="#a6a6a6"/><stop offset="0.63" stop-color="#a6a6a6" stop-opacity="0.96"/><stop offset="0.67" stop-color="#a6a6a6" stop-opacity="0.86"/><stop offset="0.71" stop-color="#a6a6a6" stop-opacity="0.68"/><stop offset="0.76" stop-color="#a6a6a6" stop-opacity="0.44"/><stop offset="0.81" stop-color="#a6a6a6" stop-opacity="0.13"/><stop offset="0.83" stop-color="#a6a6a6" stop-opacity="0"/></radialGradient><linearGradient id="linear-gradient-3" x1="192.87" y1="-126.44" x2="267.38" y2="-48.58" gradientUnits="userSpaceOnUse"><stop offset="0" stop-color="#333"/><stop offset="0.15" stop-color="#4e4e4e"/><stop offset="0.3" stop-color="#626262"/><stop offset="0.45" stop-color="#6f6f6f"/><stop offset="0.6" stop-color="#737373"/></linearGradient><linearGradient id="linear-gradient-4" x1="10.73" y1="39.02" x2="696.08" y2="39.02" gradientUnits="userSpaceOnUse"><stop offset="0" stop-color="#191919"/><stop offset="0.49" stop-color="#454545"/><stop offset="0.76" stop-color="#595959"/></linearGradient><radialGradient id="radial-gradient-9" cx="355.29" cy="1537.95" r="1348.55" gradientTransform="matrix(1, 0, 0, 0.49, 1.23, -134.05)" gradientUnits="userSpaceOnUse"><stop offset="0.85" stop-opacity="0.4"/><stop offset="0.87" stop-color="#262626" stop-opacity="0.55"/><stop offset="0.93" stop-color="#858585" stop-opacity="0.92"/><stop offset="0.94" stop-color="#999"/></radialGradient><radialGradient id="radial-gradient-10" cx="644.88" cy="597.56" fx="756.5644110741316" fy="792.4150651452895" r="547" gradientTransform="translate(551.34 1236.26) rotate(-84.22) scale(1 0.05)" gradientUnits="userSpaceOnUse"><stop offset="0" stop-color="#4c4c4c"/><stop offset="0.03" stop-color="#4c4c4c" stop-opacity="0.96"/><stop offset="0.46" stop-color="#4c4c4c" stop-opacity="0.44"/><stop offset="0.79" stop-color="#4c4c4c" stop-opacity="0.12"/><stop offset="1" stop-color="#4c4c4c" stop-opacity="0"/></radialGradient><radialGradient id="radial-gradient-11" cx="1.99" cy="3166.93" r="156.89" gradientTransform="translate(408.34 -320.39) scale(1.55 0.11)" gradientUnits="userSpaceOnUse"><stop offset="0.15" stop-color="#737373"/><stop offset="0.16" stop-color="#737373" stop-opacity="0.98"/><stop offset="0.34" stop-color="#737373" stop-opacity="0.63"/><stop offset="0.52" stop-color="#737373" stop-opacity="0.35"/><stop offset="0.69" stop-color="#737373" stop-opacity="0.16"/><stop offset="0.86" stop-color="#737373" stop-opacity="0.04"/><stop offset="1" stop-color="#737373" stop-opacity="0"/></radialGradient><radialGradient id="radial-gradient-12" cx="487.85" cy="3.91" r="152.71" gradientTransform="translate(2.74 -47.76) rotate(5.79) scale(1 0.63)" gradientUnits="userSpaceOnUse"><stop offset="0.2" stop-color="gray" stop-opacity="0.6"/><stop offset="0.65" stop-color="gray" stop-opacity="0.19"/><stop offset="0.9" stop-color="gray" stop-opacity="0"/></radialGradient><radialGradient id="radial-gradient-13" cx="2024.39" cy="7305.57" r="313.87" gradientTransform="matrix(0.46, 0.04, -0.01, 0.07, -421.34, -538.03)" gradientUnits="userSpaceOnUse"><stop offset="0" stop-color="#999" stop-opacity="0.8"/><stop offset="0.14" stop-color="#999" stop-opacity="0.56"/><stop offset="0.29" stop-color="#999" stop-opacity="0.36"/><stop offset="0.44" stop-color="#999" stop-opacity="0.2"/><stop offset="0.61" stop-color="#999" stop-opacity="0.09"/><stop offset="0.78" stop-color="#999" stop-opacity="0.02"/><stop offset="1" stop-color="#999" stop-opacity="0"/></radialGradient><radialGradient id="radial-gradient-14" cx="-5284.88" cy="-8710.5" r="243.9" gradientTransform="matrix(0.1, 1.13, -0.19, 0.02, -1057.57, 6469.95)" gradientUnits="userSpaceOnUse"><stop offset="0" stop-color="#595959"/><stop offset="0.02" stop-color="#595959" stop-opacity="0.96"/><stop offset="0.19" stop-color="#595959" stop-opacity="0.62"/><stop offset="0.36" stop-color="#595959" stop-opacity="0.34"/><stop offset="0.55" stop-color="#595959" stop-opacity="0.15"/><stop offset="0.75" stop-color="#595959" stop-opacity="0.04"/><stop offset="1" stop-color="#595959" stop-opacity="0"/></radialGradient><radialGradient id="radial-gradient-15" cx="645.12" cy="665.95" r="63.13" gradientUnits="userSpaceOnUse"><stop offset="0" stop-color="#737373"/><stop offset="0.18" stop-color="#737373" stop-opacity="0.73"/><stop offset="0.42" stop-color="#737373" stop-opacity="0.41"/><stop offset="0.64" stop-color="#737373" stop-opacity="0.19"/><stop offset="0.84" stop-color="#737373" stop-opacity="0.05"/><stop offset="1" stop-color="#737373" stop-opacity="0"/></radialGradient><radialGradient id="radial-gradient-16" cx="697.93" cy="206.29" r="69.34" gradientUnits="userSpaceOnUse"><stop offset="0" stop-color="gray"/><stop offset="0.23" stop-color="gray" stop-opacity="0.65"/><stop offset="0.45" stop-color="gray" stop-opacity="0.37"/><stop offset="0.66" stop-color="gray" stop-opacity="0.17"/><stop offset="0.85" stop-color="gray" stop-opacity="0.04"/><stop offset="1" stop-color="gray" stop-opacity="0"/></radialGradient><clipPath id="clip-path"><path class="cls-1" d="M376.84,417.71c-6.72,19.22-30.61,20.63-46,16.54-14.26-3.79-4.14-15.24-.16-18.89-19.74,5.14-24.89,11.27-24.89,11.27s-26.37,40.76-23.38,82c0,0,14.43,63.38,20.4,67.85.34.26.75.61,1.23,1,1.3-.64,2.41-1.95,2.75-4.51,1-7.45-.77-22.12,13.93-21.12s15.43,19.88,31.36,26.84,22.89,3,31.85-2.49c0,0,17.41-41.25,19.4-82C405.18,456.79,415,430.26,376.84,417.71Z"/></clipPath><clipPath id="clip-path-2"><polygon class="cls-2" points="335.4 509.82 293.77 502.87 300.38 473.14 343.2 477.03 335.4 509.82"/></clipPath><clipPath id="clip-path-3"><path class="cls-1" d="M296.58,431.94l-6.5-24.88s-.28-2.11.41-2.63c1.67-1.27,6.28-1.3,14.43,1.89,11.53,4.5,17,15.94,17,15.94l-12.52,16.23Z"/></clipPath><clipPath id="clip-path-4"><path class="cls-1" d="M325.32,544l22.09-1.86s2,0,2.38.75c.92,1.72.29,6-3.81,13-2.1,3.6,0,7.51-3.64,8-9.93,1.4-23.94-4.82-23.94-4.82s-3.66-4.69-1.4-10.07C319.17,543.84,325.32,544,325.32,544Z"/></clipPath></defs><g class="cls-3"><g id="shadow"><g id="shadow-2" data-name="shadow"><ellipse class="cls-4" cx="453.68" cy="791.32" rx="439.49" ry="208.68"/><ellipse class="cls-5" cx="351.1" cy="849" rx="342.87" ry="105.95"/><ellipse class="cls-6" cx="360.09" cy="849.78" rx="314.99" ry="101.73"/></g></g><g id="merchandise"><g id="mug"><g id="handle"><g id="handle-2" data-name="handle"><path d="M961.56,314.93a138.7,138.7,0,0,0-21.68-69.07,138.7,138.7,0,0,0-101.65-63.34c-.91-.1-1.82-.15-2.74-.23l-1.08-.15c-35.91-4-68.39-.87-93-5.2-12.58-2.21-23.12-6.37-31-14.41-6-6.05-10.58-15.93-10.58-15.93l-10.6,53L679,278.81a141.09,141.09,0,0,1,44.57-33.73,143.5,143.5,0,0,1,45.06-12.84c35.76-4.24,70.78,4.13,96,15.58a81,81,0,0,1,10.17,5.08A81.88,81.88,0,0,1,909.94,295a80.55,80.55,0,0,1,4.83,22.64c2.12,19.9-1.08,40.37-8.27,60.87C885.24,439.1,829.05,499.89,772.26,546.4s-114.19,78.75-137.89,82.29l-11.64,91.23c13.14-7.5,41.67-25,76.89-50s77.1-57.32,117-94.53C896.29,501,967.86,407.25,961.56,314.93Z"/><path d="M699.75,146.6s4.62,9.88,10.58,15.93c7.92,8,18.46,12.2,31,14.41,24.65,4.33,57.15,1,93,5.2l1.08.15c.92.1,1.83.13,2.74.23A139,139,0,0,1,959.51,296a155.49,155.49,0,0,1,2,18.92c1.88,35.21-6.51,70.56-22.86,105-26.58,55.88-72.77,109.24-121.91,155.12-33.4,31.19-68.48,59.15-99.85,82.2q-8.85,6.5-17.25,12.45c-35.16,24.92-63.71,42.51-77,50.08l1.62-12.64,1.21-9.35c0-.14,9.09-68.31,9.68-68.69,5.92-.94,13.92-3.64,23.45-7.89,28.88-12.89,71.76-39.76,114.22-74.6,9-7.39,18-15.14,26.82-23.2C846.42,480.87,889,429.75,907,378.69c7.21-20.47,10.46-40.92,8.41-60.81a81.29,81.29,0,0,0-4.72-22.64q-1.09-3-2.42-5.93A82.08,82.08,0,0,0,875.93,253a92.87,92.87,0,0,0-10.09-5.15,199.59,199.59,0,0,0-37.13-12.57q-6.76-1.53-13.85-2.59a175.16,175.16,0,0,0-44.73-1,150.41,150.41,0,0,0-21.7,4.05,139.62,139.62,0,0,0-68.12,41.56c-.44.05,6.81-59.85,6.55-59.7L689,201.06l.19-1.49Z"/><path class="cls-7" d="M699.75,146.6s4.62,9.88,10.58,15.93c7.92,8,18.46,12.2,31,14.41,24.65,4.33,57.15,1,93,5.2l1.08.15c.92.1,1.83.13,2.74.23A139,139,0,0,1,959.51,296a155.49,155.49,0,0,1,2,18.92c1.88,35.16-6.49,70.47-22.8,104.87C912.18,475.67,866,529,817,574.7c-33.28,31.07-68.47,59.12-100,82.29q-8.85,6.5-17.26,12.47c-35.1,24.91-63.68,42.55-77,50.21L624.37,707l1.23-9.34c0-.29,9.35-67.39,10.53-68.15,5.93-1,13.9-3.74,23.39-8,29-13.07,71.76-39.93,114.06-74.7,9-7.41,18-15.16,26.78-23.22,46.46-42.49,89-93.61,107.13-144.72C914.71,358.47,918,338,916,318.16a82.06,82.06,0,0,0-4.63-22.65q-1.08-3-2.38-5.93a82.09,82.09,0,0,0-32-36.5,93.23,93.23,0,0,0-10-5.23,195.21,195.21,0,0,0-37-12.81c-4.49-1-9.1-1.94-13.81-2.66a176.61,176.61,0,0,0-44.67-1.24A151.6,151.6,0,0,0,749.9,235a140.57,140.57,0,0,0-68.33,40.76c-.87.1,5.83-58.54,5.29-58.24L689,201l.2-1.49Z"/><path class="cls-8" d="M699.75,146.6s4.62,9.88,10.58,15.93c7.92,8,18.46,12.2,31,14.41,24.65,4.33,57.15,1,93,5.2l1.08.15c.92.1,1.83.13,2.74.23A139,139,0,0,1,959.51,296a155.49,155.49,0,0,1,2,18.92c1.88,35.12-6.46,70.38-22.74,104.74C912.24,475.51,866,528.75,817.22,574.34c-33.15,30.95-68.44,59.09-100.11,82.38-5.9,4.34-11.68,8.51-17.29,12.49-35,24.89-63.63,42.59-77,50.33l1.61-12.63,1.24-9.33c0-.44,9.61-66.47,11.38-67.61,5.94-1.07,13.89-3.84,23.32-8.1,29-13.23,71.77-40.09,113.91-74.8,9-7.41,17.94-15.18,26.73-23.24,46.25-42.41,88.84-93.53,107-144.71,7.24-20.41,10.58-40.83,8.69-60.69a82.69,82.69,0,0,0-4.52-22.64q-1.06-3-2.35-5.94a82.27,82.27,0,0,0-31.63-36.68,89.86,89.86,0,0,0-9.94-5.3,190.81,190.81,0,0,0-36.79-13.06c-4.48-1.07-9.09-2-13.79-2.74a178.89,178.89,0,0,0-44.6-1.48,154.48,154.48,0,0,0-21.68,3.75A145.61,145.61,0,0,0,728,242.4a143,143,0,0,0-45.15,31.9c-1.3.15,4.84-57.22,4-56.78L689,201l.19-1.49Z"/><path class="cls-9" d="M699.75,146.6s4.62,9.88,10.58,15.93c7.92,8,18.46,12.2,31,14.41,24.65,4.33,57.15,1,93,5.2l1.08.15c.92.1,1.83.13,2.74.23A139,139,0,0,1,959.51,296a155.49,155.49,0,0,1,2,18.92c1.88,35.07-6.44,70.29-22.68,104.6C912.3,475.36,866.1,528.54,817.43,574c-33,30.83-68.42,59-100.24,82.47Q708.34,663,699.89,669c-35,24.87-63.59,42.64-77.1,50.45l1.61-12.62,1.26-9.32c.07-.58,9.88-65.56,12.22-67.07,6-1.13,13.89-3.91,23.27-8.2,29.15-13.33,71.76-40.26,113.75-74.91,9-7.42,17.92-15.19,26.68-23.26,46-42.33,88.64-93.46,106.89-144.69,7.26-20.39,10.64-40.79,8.83-60.64a83,83,0,0,0-4.42-22.64q-1-3-2.3-5.94a82.54,82.54,0,0,0-31.29-36.86,91.08,91.08,0,0,0-9.87-5.38,187,187,0,0,0-36.62-13.31c-4.46-1.09-9.06-2-13.75-2.8A178.87,178.87,0,0,0,774.51,230a152.61,152.61,0,0,0-21.67,3.61,147,147,0,0,0-23.41,7.85,144,144,0,0,0-45.33,31.3c-1.74.19,3.84-55.91,2.77-55.32L689,201l.2-1.48Z"/><path class="cls-10" d="M699.75,146.6s4.62,9.88,10.58,15.93c7.92,8,18.46,12.2,31,14.41,24.65,4.33,57.15,1,93,5.2l1.08.15c.92.1,1.83.13,2.74.23A139,139,0,0,1,959.51,296a155.49,155.49,0,0,1,2,18.92c1.87,35-6.42,70.19-22.61,104.47-26.6,55.81-72.8,108.93-121.3,154.22-32.9,30.71-68.4,59-100.37,82.56q-8.87,6.52-17.32,12.53c-34.92,24.85-63.55,42.68-77.15,50.58l1.61-12.62,1.27-9.31c.08-.73,10.14-64.64,13.07-66.53,6-1.2,13.88-4,23.21-8.31,29.23-13.47,71.76-40.42,113.59-75,9-7.42,17.89-15.2,26.64-23.28C848,482,890.62,430.85,909,379.55c7.27-20.36,10.69-40.73,9-60.58a84.22,84.22,0,0,0-4.31-22.64c-.69-2-1.44-4-2.27-5.94a82.58,82.58,0,0,0-30.94-37,92.21,92.21,0,0,0-9.79-5.46,183.58,183.58,0,0,0-36.45-13.55c-4.46-1.12-9-2.09-13.73-2.87a180.08,180.08,0,0,0-44.46-2A150.64,150.64,0,0,0,754.31,233a147.11,147.11,0,0,0-23.42,7.66,144.76,144.76,0,0,0-45.53,30.68c-2.17.25,2.86-54.58,1.52-53.85l2.1-16.5.2-1.48Z"/><path class="cls-11" d="M699.75,146.6s4.62,9.88,10.58,15.93c7.92,8,18.46,12.2,31,14.41,24.65,4.33,57.15,1,93,5.2l1.08.15c.92.1,1.83.13,2.74.23A139,139,0,0,1,959.51,296a155.49,155.49,0,0,1,2,18.92c1.87,35-6.4,70.1-22.55,104.33-26.6,55.79-72.8,108.85-121.15,154-32.77,30.6-68.38,59-100.5,82.66q-8.86,6.54-17.33,12.56c-34.87,24.82-63.52,42.72-77.21,50.69l1.61-12.61,1.3-9.3c.09-.88,10.39-63.72,13.91-66,6-1.25,13.87-4.09,23.14-8.4,29.32-13.63,71.76-40.59,113.44-75.12,8.95-7.43,17.86-15.21,26.59-23.3,45.62-42.18,88.21-93.31,106.65-144.66,7.29-20.33,10.76-40.69,9.11-60.53a85,85,0,0,0-4.22-22.64c-.67-2-1.41-4-2.23-6a82.81,82.81,0,0,0-30.59-37.21,93.46,93.46,0,0,0-9.72-5.53,179.27,179.27,0,0,0-36.28-13.8c-4.44-1.15-9-2.14-13.69-2.94a181.4,181.4,0,0,0-44.4-2.23,148.62,148.62,0,0,0-45.09,10.77,145.56,145.56,0,0,0-45.72,30.08c-2.61.29,1.86-53.27.25-52.38l2.11-16.5.2-1.48Z"/><path class="cls-12" d="M699.75,146.6s4.62,9.88,10.58,15.93c7.92,8,18.46,12.2,31,14.41,24.65,4.33,57.15,1,93,5.2l1.08.15c.92.1,1.83.13,2.74.23A139,139,0,0,1,959.51,296a155.49,155.49,0,0,1,2,18.92c1.87,34.94-6.38,70-22.49,104.2-26.6,55.77-72.81,108.77-121,153.76-32.64,30.48-68.35,59-100.62,82.75q-8.88,6.54-17.35,12.58C665.29,693,636.62,711,622.84,719l1.61-12.61,1.31-9.29c.11-1,10.65-62.8,14.76-65.46,6-1.32,13.85-4.18,23.08-8.51C693,609.39,735.36,582.41,776.87,548c9-7.45,17.85-15.24,26.55-23.33,45.42-42.1,88-93.24,106.53-144.65,7.31-20.3,10.82-40.64,9.25-60.47a85.29,85.29,0,0,0-4.11-22.63c-.66-2-1.4-4-2.2-6a83.46,83.46,0,0,0-15.22-24.3,82,82,0,0,0-15-13.09,92.86,92.86,0,0,0-9.64-5.61,176.76,176.76,0,0,0-36.11-14c-4.43-1.16-9-2.18-13.66-3a183.24,183.24,0,0,0-44.34-2.47,150.07,150.07,0,0,0-45.1,10.43,146.56,146.56,0,0,0-45.91,29.47c-3,.34.87-52-1-50.92l2.1-16.49.2-1.47Z"/><path class="cls-13" d="M699.75,146.6s4.62,9.88,10.58,15.93c7.92,8,18.46,12.2,31,14.41,24.65,4.33,57.15,1,93,5.2l1.08.15c.92.1,1.83.13,2.74.23A139,139,0,0,1,959.51,296a155.49,155.49,0,0,1,2,18.92c1.87,34.89-6.35,69.92-22.43,104.06-26.6,55.76-72.81,108.7-120.84,153.54-32.52,30.36-68.34,58.92-100.76,82.84q-8.88,6.55-17.36,12.6c-34.75,24.79-63.44,42.8-77.31,50.94l1.6-12.59,1.33-9.3c.13-1.16,10.91-61.88,15.61-64.91,6-1.38,13.84-4.27,23-8.61,29.48-13.94,71.76-40.93,113.11-75.32,8.94-7.45,17.82-15.25,26.51-23.35,45.2-42,87.78-93.16,106.41-144.63,7.32-20.28,10.88-40.6,9.38-60.41a86.16,86.16,0,0,0-4-22.64c-.65-2-1.37-4-2.15-6a83.94,83.94,0,0,0-15-24.38,82.75,82.75,0,0,0-14.88-13.19,91.32,91.32,0,0,0-9.57-5.68,172.34,172.34,0,0,0-35.94-14.3c-4.42-1.19-9-2.24-13.63-3.08a182.84,182.84,0,0,0-44.27-2.71,148.16,148.16,0,0,0-21.63,3,151.58,151.58,0,0,0-23.47,7.07,147.64,147.64,0,0,0-46.11,28.86c-3.46.39-.11-50.64-2.26-49.46l2.1-16.47.21-1.48Z"/><path class="cls-14" d="M699.75,146.6s4.62,9.88,10.58,15.93c7.92,8,18.46,12.2,31,14.41,24.65,4.33,57.15,1,93,5.2l1.08.15c.92.1,1.83.13,2.74.23A139,139,0,0,1,959.51,296a155.49,155.49,0,0,1,2,18.92c1.86,34.84-6.33,69.82-22.37,103.93-26.6,55.74-72.81,108.61-120.69,153.31-32.39,30.25-68.31,58.89-100.88,82.93-5.92,4.37-11.73,8.59-17.38,12.62-34.7,24.77-63.4,42.85-77.37,51.07l1.61-12.59,1.34-9.29c.15-1.31,11.18-61,16.46-64.37,6-1.45,13.83-4.37,23-8.72,29.57-14.09,71.76-41.09,113-75.42,8.93-7.46,17.8-15.26,26.46-23.37,45-41.95,87.57-93.09,106.29-144.62,7.33-20.25,10.94-40.55,9.52-60.35a87,87,0,0,0-3.9-22.64q-1-3-2.12-6A84,84,0,0,0,899.62,267a82.05,82.05,0,0,0-14.73-13.29A91.89,91.89,0,0,0,875.4,248a169.51,169.51,0,0,0-35.77-14.54c-4.41-1.22-9-2.29-13.6-3.15a184.07,184.07,0,0,0-44.21-3,150.84,150.84,0,0,0-21.62,2.86A153.88,153.88,0,0,0,736.71,237a148.08,148.08,0,0,0-46.29,28.26c-3.9.43-1.11-49.33-3.52-48l2.1-16.46.2-1.48Z"/><path class="cls-15" d="M699.75,146.6s4.62,9.88,10.58,15.93c7.92,8,18.46,12.2,31,14.41,24.65,4.33,57.15,1,93,5.2l1.08.15c.92.1,1.83.13,2.74.23A139,139,0,0,1,959.51,296a155.49,155.49,0,0,1,2,18.92c1.86,34.8-6.31,69.73-22.3,103.79-26.61,55.72-72.83,108.54-120.55,153.09-32.27,30.13-68.29,58.85-101,83q-8.88,6.55-17.39,12.64c-34.64,24.74-63.37,42.88-77.42,51.18l1.6-12.58,1.36-9.28c.16-1.45,11.44-60,17.31-63.83a127.42,127.42,0,0,0,22.89-8.82c29.65-14.25,71.76-41.26,112.8-75.53,8.92-7.46,17.77-15.27,26.41-23.39,44.79-41.87,87.36-93,106.17-144.6,7.35-20.23,11-40.51,9.66-60.3a87.3,87.3,0,0,0-3.8-22.63c-.62-2-1.32-4-2.08-6A84.36,84.36,0,0,0,900.6,267.2,82.11,82.11,0,0,0,886,253.81,91.37,91.37,0,0,0,876.6,248,166.67,166.67,0,0,0,841,233.18c-4.39-1.25-8.93-2.34-13.57-3.22a185.14,185.14,0,0,0-44.14-3.21,150.52,150.52,0,0,0-21.61,2.71,155.37,155.37,0,0,0-23.5,6.68,149.28,149.28,0,0,0-46.49,27.64c-4.33.49-2.1-48-4.78-46.53L689,200.8l.21-1.48Z"/><path class="cls-16" d="M699.75,146.6s4.62,9.88,10.58,15.93c7.92,8,18.46,12.2,31,14.41,24.65,4.33,57.15,1,93,5.2l1.08.15c.92.1,1.83.13,2.74.23A139,139,0,0,1,959.51,296a155.49,155.49,0,0,1,2,18.92c1.86,34.75-6.29,69.64-22.24,103.66-26.61,55.7-72.83,108.46-120.39,152.86-32.15,30-68.27,58.82-101.14,83.12q-8.89,6.57-17.41,12.66c-34.58,24.72-63.33,42.93-77.48,51.3L624.51,706l1.38-9.27c.17-1.6,11.69-59.13,18.15-63.29a130.24,130.24,0,0,0,22.83-8.93c29.73-14.4,71.76-41.42,112.64-75.63,8.91-7.47,17.74-15.29,26.37-23.4,44.57-41.8,87.14-93,106-144.59,7.36-20.2,11.06-40.46,9.8-60.25A89.09,89.09,0,0,0,918,298c-.61-2-1.3-4-2-6a84.49,84.49,0,0,0-14.4-24.6,82.59,82.59,0,0,0-14.45-13.5,90.94,90.94,0,0,0-9.34-5.92,163.79,163.79,0,0,0-35.43-15c-4.39-1.27-8.91-2.39-13.54-3.29a186.8,186.8,0,0,0-44.07-3.45,148.63,148.63,0,0,0-21.61,2.57,158,158,0,0,0-23.52,6.47,150.83,150.83,0,0,0-46.68,27c-4.76.54-3.08-46.69-6-45.07l2.1-16.44.2-1.47Z"/><path class="cls-17" d="M699.75,146.6s4.62,9.88,10.58,15.93c7.92,8,18.46,12.2,31,14.41,24.65,4.33,57.15,1,93,5.2l1.08.15c.92.1,1.83.13,2.74.23A139,139,0,0,1,959.51,296a155.49,155.49,0,0,1,2,18.92c1.86,34.71-6.26,69.55-22.18,103.52-26.61,55.69-72.84,108.38-120.24,152.64-32,29.89-68.25,58.79-101.26,83.21Q709,660.87,700.44,667c-34.52,24.7-63.28,43-77.52,51.43l1.6-12.57,1.4-9.26c.19-1.74,12-58.21,19-62.76a134.43,134.43,0,0,0,22.76-9c29.82-14.56,71.76-41.59,112.49-75.73,8.9-7.49,17.72-15.31,26.32-23.43,44.36-41.73,86.93-92.88,105.93-144.58,7.38-20.17,11.13-40.41,9.94-60.19a89.16,89.16,0,0,0-3.6-22.63q-.9-3-2-6a85,85,0,0,0-14.2-24.67A82.32,82.32,0,0,0,888.25,254a92.2,92.2,0,0,0-9.26-6,161.93,161.93,0,0,0-35.27-15.28c-4.37-1.28-8.89-2.44-13.51-3.36a187.74,187.74,0,0,0-44-3.7,151.28,151.28,0,0,0-21.6,2.42,158.9,158.9,0,0,0-23.53,6.28,151.89,151.89,0,0,0-46.87,26.43c-5.2.58-4.08-45.37-7.3-43.6l2.1-16.44.21-1.47Z"/><path class="cls-18" d="M699.75,146.6s4.62,9.88,10.58,15.93c7.92,8,18.46,12.2,31,14.41,24.65,4.33,57.15,1,93,5.2l1.08.15c.92.1,1.83.13,2.74.23A139,139,0,0,1,959.51,296a155.49,155.49,0,0,1,2,18.92c1.85,34.66-6.24,69.45-22.12,103.39C912.83,474,866.6,526.62,819.35,570.73,787.46,600.5,751.13,629.48,718,654q-8.91,6.59-17.45,12.7c-34.46,24.68-63.25,43-77.57,51.55l1.6-12.56,1.41-9.25c.21-1.89,12.21-57.29,19.85-62.22a137.82,137.82,0,0,0,22.7-9.13c29.9-14.71,71.76-41.75,112.33-75.83,8.88-7.49,17.69-15.32,26.28-23.45,44.15-41.65,86.71-92.8,105.8-144.56,7.4-20.15,11.19-40.37,10.08-60.14a90.42,90.42,0,0,0-3.49-22.62c-.59-2-1.25-4-2-6a85.33,85.33,0,0,0-14-24.75,83.47,83.47,0,0,0-14.16-13.7,94.92,94.92,0,0,0-9.2-6.07,158.77,158.77,0,0,0-35.09-15.53c-4.37-1.31-8.87-2.49-13.48-3.43a188.76,188.76,0,0,0-43.94-4,150.76,150.76,0,0,0-21.59,2.27,161.61,161.61,0,0,0-23.54,6.08,153.23,153.23,0,0,0-47.07,25.83c-5.63.63-5.07-44.06-8.55-42.14L689,200.71l.22-1.47Z"/><path class="cls-19" d="M699.75,146.6s4.62,9.88,10.58,15.93c7.92,8,18.46,12.2,31,14.41,24.65,4.33,57.15,1,93,5.2l1.08.15c.92.1,1.83.13,2.74.23A139,139,0,0,1,959.51,296a155.49,155.49,0,0,1,2,18.92c1.85,34.61-6.22,69.36-22,103.25-26.63,55.65-72.86,108.23-119.94,152.19C787.8,600,751.36,629.09,718.05,653.76q-8.92,6.59-17.47,12.72c-34.4,24.67-63.21,43.06-77.63,51.68l1.6-12.56,1.43-9.24c.23-2,12.48-56.37,20.69-61.68a143.31,143.31,0,0,0,22.65-9.23c30-14.87,71.75-41.93,112.17-75.94,8.87-7.5,17.67-15.34,26.23-23.47,43.94-41.57,86.5-92.73,105.69-144.55,7.41-20.12,11.24-40.32,10.21-60.07a90.89,90.89,0,0,0-3.39-22.63c-.57-2-1.23-4-1.93-6A85.49,85.49,0,0,0,904.52,268a82.9,82.9,0,0,0-14-13.81,94.48,94.48,0,0,0-9.12-6.15,156.35,156.35,0,0,0-34.93-15.77c-4.35-1.34-8.84-2.54-13.44-3.5a189.78,189.78,0,0,0-43.88-4.2,151.87,151.87,0,0,0-21.58,2.13A163.2,163.2,0,0,0,744,232.56a155,155,0,0,0-47.25,25.21c-6.07.69-6.06-42.73-9.82-40.67l2.1-16.42.21-1.46Z"/><path class="cls-20" d="M699.75,146.6s4.62,9.88,10.58,15.93c7.92,8,18.46,12.2,31,14.41,24.65,4.33,57.15,1,93,5.2l1.08.15c.92.1,1.83.13,2.74.23A139,139,0,0,1,959.51,296a155.49,155.49,0,0,1,2,18.92c1.85,34.57-6.2,69.27-22,103.12-26.63,55.63-72.86,108.14-119.79,152-31.64,29.53-68.18,58.68-101.65,83.48q-8.91,6.6-17.48,12.75C666.3,690.88,637.48,709.33,623,718l1.6-12.55,1.44-9.23c.24-2.18,12.74-55.46,21.54-61.14a146.2,146.2,0,0,0,22.58-9.34c30.07-15,71.76-42.09,112-76,8.86-7.5,17.64-15.35,26.18-23.49,43.73-41.49,86.29-92.65,105.57-144.53,7.43-20.1,11.31-40.28,10.35-60A91.89,91.89,0,0,0,921,299.06c-.57-2-1.21-4-1.9-6a85.94,85.94,0,0,0-13.57-24.9,83.79,83.79,0,0,0-13.88-13.91,94.78,94.78,0,0,0-9-6.23,154.11,154.11,0,0,0-34.75-16c-4.34-1.36-8.83-2.58-13.42-3.57A191.75,191.75,0,0,0,790.59,224,151.61,151.61,0,0,0,769,226a164.33,164.33,0,0,0-23.57,5.68A156.94,156.94,0,0,0,698,256.27c-6.5.73-7-41.42-11.07-39.21L689,200.65l.22-1.46Z"/><path class="cls-21" d="M699.75,146.6s4.62,9.88,10.58,15.93c7.92,8,18.46,12.2,31,14.41,24.65,4.33,57.15,1,93,5.2l1.08.15c.92.1,1.83.13,2.74.23A139,139,0,0,1,959.51,296a155.49,155.49,0,0,1,2,18.92c1.85,34.52-6.17,69.18-21.93,103C913,473.52,866.76,526,820,569.65c-31.51,29.41-68.16,58.65-101.77,83.57q-8.93,6.62-17.5,12.77c-34.29,24.62-63.13,43.14-77.73,51.92l1.59-12.55,1.47-9.23c.25-2.32,13-54.53,22.38-60.59A153.08,153.08,0,0,0,671,626.1C701.1,610.91,742.71,583.84,782.8,550c8.86-7.51,17.62-15.36,26.15-23.51C852.47,485,895,433.86,914.39,381.92c7.45-20.06,11.37-40.23,10.5-60a93.27,93.27,0,0,0-3.19-22.62c-.55-2-1.18-4-1.85-6a86,86,0,0,0-13.38-25,83.93,83.93,0,0,0-13.73-14,95.55,95.55,0,0,0-9-6.3,151.26,151.26,0,0,0-34.59-16.27c-4.32-1.38-8.8-2.63-13.38-3.64a192.61,192.61,0,0,0-43.75-4.69,152.54,152.54,0,0,0-21.56,1.83,167.34,167.34,0,0,0-23.59,5.49,158.63,158.63,0,0,0-47.64,24c-6.93.78-8-40.11-12.33-37.75L689,200.63l.22-1.47Z"/><path class="cls-22" d="M699.75,146.6s4.62,9.88,10.58,15.93c7.92,8,18.46,12.2,31,14.41,24.65,4.33,57.15,1,93,5.2l1.08.15c.92.1,1.83.13,2.74.23A139,139,0,0,1,959.51,296a155.49,155.49,0,0,1,2,18.92c1.84,34.48-6.15,69.09-21.87,102.85-26.63,55.59-72.87,108-119.48,151.51C788.82,598.59,752.07,627.9,718.3,653q-8.92,6.62-17.51,12.79c-34.23,24.6-63.1,43.18-77.79,52l1.6-12.54,1.48-9.22c.27-2.47,13.25-53.61,23.23-60.06a155.42,155.42,0,0,0,22.46-9.54C702,611.08,743.52,584,783.46,550.18c8.85-7.52,17.6-15.38,26.1-23.54,43.31-41.34,85.87-92.51,105.33-144.5,7.46-20,11.43-40.18,10.63-59.91a93.34,93.34,0,0,0-3.09-22.62c-.53-2-1.15-4-1.81-6a86.84,86.84,0,0,0-13.17-25,83.7,83.7,0,0,0-13.59-14.12,97.05,97.05,0,0,0-8.89-6.38,149.13,149.13,0,0,0-34.43-16.51c-4.31-1.41-8.77-2.69-13.35-3.71a193.26,193.26,0,0,0-43.68-4.94A153.59,153.59,0,0,0,772,224.58a169.91,169.91,0,0,0-23.6,5.29,160.58,160.58,0,0,0-47.83,23.4c-7.37.83-9-38.79-13.59-36.28L689,200.6l.22-1.46Z"/><path class="cls-23" d="M699.75,146.6s4.62,9.88,10.58,15.93c7.92,8,18.46,12.2,31,14.41,24.65,4.33,57.15,1,93,5.2l1.08.15c.92.1,1.83.13,2.74.23A139,139,0,0,1,959.51,296a155.49,155.49,0,0,1,2,18.92c1.84,34.43-6.13,69-21.81,102.71-26.63,55.58-72.88,107.91-119.33,151.29-31.26,29.18-68.12,58.58-102,83.75q-8.94,6.63-17.53,12.81c-34.18,24.58-63.06,43.23-77.84,52.16l1.59-12.52,1.5-9.22c.29-2.61,13.51-52.7,24.08-59.52a162.37,162.37,0,0,0,22.4-9.64c30.3-15.51,71.75-42.59,111.53-76.35,8.84-7.53,17.57-15.4,26-23.56,43.1-41.26,85.66-92.43,105.21-144.49,7.48-20,11.49-40.13,10.77-59.85a94.4,94.4,0,0,0-3-22.62c-.53-2-1.13-4-1.78-6a87.09,87.09,0,0,0-13-25.12A84.24,84.24,0,0,0,895,254.53a96.83,96.83,0,0,0-8.82-6.46,147.14,147.14,0,0,0-34.25-16.76c-4.3-1.43-8.76-2.73-13.32-3.77A194.63,194.63,0,0,0,795,222.35a153.07,153.07,0,0,0-21.54,1.54A171.33,171.33,0,0,0,749.81,229a162.48,162.48,0,0,0-48,22.79c-7.8.87-10-37.48-14.85-34.82L689,200.57l.22-1.46Z"/><path class="cls-24" d="M699.75,146.6s4.62,9.88,10.58,15.93c7.92,8,18.46,12.2,31,14.41,24.65,4.33,57.15,1,93,5.2l1.08.15c.92.1,1.83.13,2.74.23A139,139,0,0,1,959.51,296a155.49,155.49,0,0,1,2,18.92c1.84,34.38-6.11,68.9-21.74,102.58-26.64,55.55-72.89,107.83-119.19,151-31.13,29.07-68.1,58.55-102.16,83.85q-8.94,6.63-17.54,12.83c-34.12,24.56-63,43.27-77.9,52.29l1.6-12.52,1.51-9.21c.3-2.76,13.78-51.78,24.93-59a168.39,168.39,0,0,0,22.33-9.75c30.39-15.67,71.75-42.75,111.38-76.45,8.83-7.54,17.54-15.41,26-23.58,42.89-41.19,85.44-92.36,105.08-144.47,7.5-20,11.56-40.09,10.91-59.8a95.28,95.28,0,0,0-2.88-22.61c-.51-2-1.1-4-1.74-6A87.17,87.17,0,0,0,909.41,269a84.11,84.11,0,0,0-13.31-14.33,95,95,0,0,0-8.74-6.53,144.41,144.41,0,0,0-34.09-17c-4.28-1.46-8.73-2.78-13.28-3.85a196,196,0,0,0-43.55-5.43,155.54,155.54,0,0,0-21.53,1.39,174,174,0,0,0-23.64,4.89,165,165,0,0,0-48.22,22.18c-8.23.93-11-36.15-16.1-33.35L689,200.54l.22-1.46Z"/><path class="cls-25" d="M699.75,146.6s4.62,9.88,10.58,15.93c7.92,8,18.46,12.2,31,14.41,24.65,4.33,57.15,1,93,5.2l1.08.15c.92.1,1.83.13,2.74.23A139,139,0,0,1,959.51,296a155.49,155.49,0,0,1,2,18.92c1.84,34.34-6.09,68.81-21.68,102.44-26.64,55.54-72.9,107.76-119,150.83-31,28.95-68.08,58.52-102.29,83.94q-9,6.65-17.56,12.86c-34.07,24.54-63,43.3-78,52.4l1.59-12.51,1.53-9.2c.32-2.91,14-50.86,25.78-58.44a174.39,174.39,0,0,0,22.27-9.85c30.47-15.83,71.75-42.92,111.22-76.56,8.82-7.54,17.52-15.42,26-23.59,42.68-41.12,85.23-92.29,105-144.46,7.51-20,11.61-40.05,11-59.74a96.42,96.42,0,0,0-2.77-22.62c-.5-2-1.08-4-1.7-6a88,88,0,0,0-12.55-25.27,84.68,84.68,0,0,0-13.17-14.43,95.25,95.25,0,0,0-8.67-6.61,142.2,142.2,0,0,0-33.91-17.25c-4.28-1.48-8.71-2.83-13.26-3.92a197.72,197.72,0,0,0-43.48-5.68,155.06,155.06,0,0,0-21.52,1.24,177.08,177.08,0,0,0-23.65,4.7,167.1,167.1,0,0,0-48.41,21.57c-8.67,1-12-34.84-17.37-31.89L689,200.51l.22-1.46Z"/><path class="cls-26" d="M699.75,146.6s4.62,9.88,10.58,15.93c7.92,8,18.46,12.2,31,14.41,24.65,4.33,57.15,1,93,5.2l1.08.15c.92.1,1.83.13,2.74.23A139,139,0,0,1,959.51,296a155.49,155.49,0,0,1,2,18.92c1.83,34.29-6.06,68.72-21.62,102.31C913.3,472.76,867,524.91,821.06,567.84c-30.88,28.83-68.06,58.49-102.42,84-6,4.44-11.84,8.73-17.58,12.88-34,24.52-62.94,43.35-78,52.53l1.59-12.51,1.55-9.19c.33-3.05,14.29-49.94,26.62-57.9a181.87,181.87,0,0,0,22.21-10c30.54-16,71.75-43.09,111.06-76.66,8.81-7.55,17.49-15.43,25.91-23.61,42.47-41,85-92.22,104.85-144.45,7.53-19.93,11.68-40,11.19-59.68a97.57,97.57,0,0,0-2.68-22.62c-.49-2-1-4-1.66-6a88.06,88.06,0,0,0-12.34-25.34,85.75,85.75,0,0,0-13-14.54,94.42,94.42,0,0,0-8.59-6.68A140.06,140.06,0,0,0,856,230.62a138,138,0,0,0-13.22-4,198.19,198.19,0,0,0-43.42-5.93,157.77,157.77,0,0,0-21.51,1.09,180,180,0,0,0-23.67,4.5,170,170,0,0,0-48.6,21c-9.1,1-13-33.52-18.62-30.43L689,200.48l.23-1.45Z"/><path class="cls-27" d="M699.75,146.6s4.62,9.88,10.58,15.93c7.92,8,18.46,12.2,31,14.41,24.65,4.33,57.15,1,93,5.2l1.08.15c.92.1,1.83.13,2.74.23A139,139,0,0,1,959.51,296a155.49,155.49,0,0,1,2,18.92c1.83,34.25-6,68.62-21.56,102.17-26.65,55.5-72.91,107.6-118.73,150.38-30.75,28.71-68,58.45-102.54,84.12q-9,6.66-17.6,12.9c-33.94,24.5-62.9,43.39-78,52.65l1.59-12.5,1.57-9.18c.35-3.2,14.55-49,27.47-57.37a186.91,186.91,0,0,0,22.14-10.05c30.63-16.16,71.75-43.26,110.91-76.76,8.79-7.56,17.47-15.46,25.87-23.64,42.25-41,84.8-92.14,104.72-144.43,7.54-19.91,11.74-40,11.33-59.63A98.53,98.53,0,0,0,926.11,301c-.48-2-1-4-1.63-6a88.37,88.37,0,0,0-12.14-25.42,85.07,85.07,0,0,0-12.88-14.64,94.66,94.66,0,0,0-8.52-6.76,137.56,137.56,0,0,0-46.77-21.8,199.18,199.18,0,0,0-43.35-6.18,155.61,155.61,0,0,0-21.5.95,181.48,181.48,0,0,0-23.68,4.3,172.16,172.16,0,0,0-48.79,20.36c-9.54,1.07-14-32.21-19.89-29l2.09-16.35.22-1.45Z"/><path class="cls-28" d="M699.75,146.6s4.62,9.88,10.58,15.93c7.92,8,18.46,12.2,31,14.41,24.65,4.33,57.15,1,93,5.2l1.08.15c.92.1,1.83.13,2.74.23A139,139,0,0,1,959.51,296a155.49,155.49,0,0,1,2,18.92c1.83,34.2-6,68.53-21.49,102-26.66,55.48-72.92,107.52-118.59,150.15-30.62,28.59-68,58.42-102.67,84.22-6,4.44-11.86,8.75-17.61,12.91-33.89,24.48-62.86,43.44-78.1,52.78l1.59-12.5,1.58-9.17c.37-3.35,14.81-48.11,28.31-56.83a193.56,193.56,0,0,0,22.09-10.16c30.71-16.32,71.75-43.42,110.75-76.86,8.78-7.57,17.44-15.47,25.82-23.66,42-40.89,84.59-92.07,104.6-144.42,7.56-19.88,11.8-39.9,11.47-59.57a99.17,99.17,0,0,0-2.47-22.61c-.46-2-1-4-1.59-6a88.72,88.72,0,0,0-11.93-25.49A85.23,85.23,0,0,0,900.58,255a95.94,95.94,0,0,0-8.44-6.85A136.6,136.6,0,0,0,845.57,226a200.33,200.33,0,0,0-43.29-6.42,158.23,158.23,0,0,0-21.49.8,186.61,186.61,0,0,0-23.7,4.11,175.11,175.11,0,0,0-49,19.74c-10,1.12-15-30.89-21.14-27.49l2.08-16.34.23-1.45Z"/><path class="cls-29" d="M699.75,146.6s4.62,9.88,10.58,15.93c7.92,8,18.46,12.2,31,14.41,24.65,4.33,57.15,1,93,5.2l1.08.15c.92.1,1.83.13,2.74.23A139,139,0,0,1,959.51,296a155.49,155.49,0,0,1,2,18.92c1.83,34.15-6,68.44-21.43,101.9C913.47,472.3,867.2,524.27,821.7,566.76c-30.5,28.47-68,58.38-102.8,84.31q-9,6.66-17.63,12.93c-33.83,24.46-62.82,43.48-78.15,52.9l1.58-12.49,1.6-9.17c.38-3.48,15.08-47.18,29.16-56.28a203,203,0,0,0,22-10.26c30.78-16.49,71.75-43.59,110.59-77,8.77-7.58,17.41-15.48,25.77-23.68,41.84-40.81,84.38-92,104.49-144.4,7.57-19.86,11.86-39.86,11.6-59.52a100.33,100.33,0,0,0-2.36-22.61c-.46-2-1-4-1.55-6a89.52,89.52,0,0,0-11.73-25.56,85.61,85.61,0,0,0-12.6-14.84,95.6,95.6,0,0,0-8.36-6.92A134.79,134.79,0,0,0,847,225.72a201.91,201.91,0,0,0-43.23-6.67,159.31,159.31,0,0,0-21.48.65,189.59,189.59,0,0,0-23.71,3.91,178.11,178.11,0,0,0-49.18,19.14c-10.4,1.17-16-29.57-22.4-26l2.08-16.32.24-1.45Z"/><path class="cls-30" d="M699.75,146.6s4.62,9.88,10.58,15.93c7.92,8,18.46,12.2,31,14.41,24.65,4.33,57.15,1,93,5.2l1.08.15c.92.09,1.83.13,2.74.23A139,139,0,0,1,959.51,296a155.49,155.49,0,0,1,2,18.92c1.83,34.11-6,68.35-21.37,101.77-26.66,55.45-72.93,107.36-118.28,149.7-30.37,28.36-68,58.35-102.92,84.4q-9,6.68-17.65,13c-33.77,24.43-62.79,43.51-78.21,53l1.59-12.48,1.61-9.16c.4-3.63,15.34-46.27,30-55.74a212.53,212.53,0,0,0,22-10.37c30.87-16.65,71.75-43.75,110.43-77.07,8.77-7.58,17.4-15.49,25.74-23.7,41.62-40.73,84.16-91.92,104.36-144.39,7.59-19.83,11.92-39.81,11.74-59.46a101.43,101.43,0,0,0-2.26-22.6c-.44-2-1-4.05-1.51-6.05a90,90,0,0,0-11.52-25.64,85.8,85.8,0,0,0-12.46-14.94,94.07,94.07,0,0,0-8.29-7,132.53,132.53,0,0,0-33.07-18.49,134.64,134.64,0,0,0-13.1-4.26,202.7,202.7,0,0,0-43.15-6.92,158.83,158.83,0,0,0-21.48.51A191.18,191.18,0,0,0,760,222.72a180.8,180.8,0,0,0-49.36,18.53c-10.84,1.22-17-28.26-23.66-24.57l2.08-16.31.23-1.45Z"/><path class="cls-30" d="M699.75,146.6s4.62,9.88,10.58,15.93c7.92,8,18.46,12.2,31,14.41,24.65,4.33,57.15,1,93,5.2l1.08.15c.92.09,1.83.13,2.74.23A139,139,0,0,1,959.51,296a155.49,155.49,0,0,1,2,18.92c1.82,34.06-5.95,68.25-21.31,101.63C913.59,472,867.31,523.85,822.12,566c-30.24,28.24-67.94,58.31-103,84.49q-9,6.69-17.66,13c-33.72,24.42-62.75,43.56-78.26,53.14l1.59-12.48,1.63-9.15c.41-3.78,15.59-45.35,30.85-55.2a220.29,220.29,0,0,0,21.9-10.47c30.94-16.82,71.75-43.92,110.27-77.18,8.76-7.59,17.37-15.51,25.69-23.72C856.5,487.79,899,436.6,919.32,384.08c7.61-19.8,12-39.77,11.89-59.4a102.75,102.75,0,0,0-2.16-22.61c-.43-2-.94-4.05-1.48-6.05a90.4,90.4,0,0,0-11.31-25.71,85.78,85.78,0,0,0-12.32-15.05,95.26,95.26,0,0,0-8.21-7.07,130.87,130.87,0,0,0-32.9-18.74,133.37,133.37,0,0,0-13.07-4.33A203.51,203.51,0,0,0,806.67,218a161.5,161.5,0,0,0-21.47.36,194.21,194.21,0,0,0-23.74,3.51,184.39,184.39,0,0,0-49.56,17.93C700.63,241,694,212.81,687,216.64l2.08-16.3.24-1.45Z"/><path class="cls-31" d="M699.75,146.6s4.62,9.88,10.58,15.93c7.92,8,18.46,12.2,31,14.41,24.65,4.33,57.15,1,93,5.2l1.08.15c.92.09,1.83.13,2.74.23A139,139,0,0,1,959.51,296a155.49,155.49,0,0,1,2,18.92c1.82,34-5.93,68.16-21.25,101.5-26.66,55.41-72.94,107.2-118,149.25C792.22,593.8,754.41,624,719.16,650.26q-9,6.69-17.68,13c-33.66,24.4-62.71,43.6-78.32,53.26l1.59-12.47,1.65-9.14c.43-3.92,15.85-44.43,31.7-54.66a230,230,0,0,0,21.84-10.58c31-17,71.74-44.08,110.11-77.27,8.75-7.6,17.35-15.53,25.64-23.75,41.21-40.58,83.74-91.77,104.13-144.36,7.62-19.77,12-39.72,12-59.34a104.06,104.06,0,0,0-2.06-22.61c-.41-2-.91-4-1.44-6a90.85,90.85,0,0,0-11.1-25.79,86.81,86.81,0,0,0-12.18-15.15,94,94,0,0,0-8.14-7.15,129,129,0,0,0-32.73-19,131.32,131.32,0,0,0-13-4.41,204.83,204.83,0,0,0-43-7.41,162.52,162.52,0,0,0-21.46.21,197.68,197.68,0,0,0-23.75,3.32,187.89,187.89,0,0,0-49.76,17.32c-11.7,1.31-18.93-25.63-26.17-21.65l2.08-16.29.23-1.44Z"/><path class="cls-32" d="M699.75,146.6s4.62,9.88,10.58,15.93c7.92,8,18.46,12.2,31,14.41,24.65,4.33,57.15,1,93,5.2l1.08.15c.92.09,1.83.13,2.74.23A139,139,0,0,1,959.51,296a155.27,155.27,0,0,1,2,18.92c1.82,34-5.91,68.07-21.18,101.36-26.67,55.4-73,107.13-117.83,149-30,28-67.9,58.24-103.31,84.67-6,4.47-11.91,8.82-17.69,13-33.6,24.38-62.67,43.65-78.37,53.39l1.59-12.46,1.66-9.14c.45-4.07,16.11-43.51,32.55-54.13A239.69,239.69,0,0,0,680.75,630c31.1-17.16,71.75-44.26,110-77.38,8.74-7.61,17.32-15.54,25.6-23.77,41-40.5,83.52-91.7,104-144.34,7.64-19.75,12.11-39.68,12.16-59.29a105.26,105.26,0,0,0-2-22.6c-.41-2-.89-4.06-1.4-6.07a91.43,91.43,0,0,0-10.9-25.86,87.9,87.9,0,0,0-12-15.25,98.85,98.85,0,0,0-8.07-7.23A127.57,127.57,0,0,0,865.56,229a129.34,129.34,0,0,0-13-4.48,207.58,207.58,0,0,0-43-7.66,163.37,163.37,0,0,0-21.44.06A203,203,0,0,0,764.37,220a191.84,191.84,0,0,0-49.94,16.71c-12.14,1.37-19.93-24.3-27.44-20.17l2.08-16.29.24-1.44Z"/><path class="cls-33" d="M699.75,146.6s4.62,9.88,10.58,15.93c7.92,8,18.46,12.2,31,14.41,24.65,4.33,57.15,1.05,93,5.2l1.08.15c.92.09,1.83.13,2.74.23A139,139,0,0,1,959.51,296a155.27,155.27,0,0,1,2,18.92c1.82,33.93-5.88,68-21.12,101.23-26.67,55.37-73,107.05-117.68,148.8-29.86,27.88-67.88,58.21-103.43,84.76q-9,6.71-17.71,13c-33.55,24.35-62.64,43.68-78.42,53.5l1.58-12.45,1.68-9.13c.46-4.22,16.37-42.6,33.4-53.59,6.19-2.69,13.56-6.25,21.71-10.78,31.17-17.32,71.75-44.42,109.8-77.48,8.73-7.62,17.29-15.55,25.55-23.78,40.79-40.43,83.32-91.64,103.88-144.33,7.66-19.73,12.17-39.64,12.3-59.24a105.94,105.94,0,0,0-1.85-22.6c-.39-2-.86-4.06-1.36-6.07a91.62,91.62,0,0,0-10.7-25.93,87.87,87.87,0,0,0-11.88-15.36,95.36,95.36,0,0,0-8-7.3,125.68,125.68,0,0,0-32.39-19.48,130.65,130.65,0,0,0-13-4.54,208.06,208.06,0,0,0-42.89-7.91,164.41,164.41,0,0,0-21.43-.08,202.2,202.2,0,0,0-23.79,2.92,195.51,195.51,0,0,0-50.14,16.1c-12.57,1.41-20.91-23-28.69-18.71l2.07-16.28.24-1.44Z"/><path class="cls-34" d="M699.75,146.6s4.62,9.88,10.58,15.93c7.92,8,18.46,12.2,31,14.41,24.65,4.33,57.15,1.05,93,5.2l1.08.15c.92.09,1.83.13,2.74.23A139,139,0,0,1,959.51,296a155.27,155.27,0,0,1,2,18.92c1.81,33.88-5.86,67.88-21.06,101.09-26.67,55.36-73,107-117.52,148.58-29.74,27.76-67.86,58.18-103.57,84.85q-9,6.72-17.73,13.07c-33.48,24.33-62.59,43.72-78.47,53.63l1.59-12.45,1.69-9.12c.48-4.36,16.64-41.68,34.25-53.05,6.19-2.76,13.54-6.35,21.65-10.88,31.25-17.5,71.74-44.59,109.64-77.59,8.72-7.62,17.27-15.57,25.5-23.8,40.58-40.36,83.11-91.56,103.77-144.32,7.67-19.7,12.23-39.58,12.43-59.18a108,108,0,0,0-1.74-22.6c-.38-2-.84-4.06-1.33-6.07a92,92,0,0,0-10.49-26,88.1,88.1,0,0,0-11.74-15.46,97,97,0,0,0-7.92-7.38,124.59,124.59,0,0,0-32.22-19.72,127.86,127.86,0,0,0-12.95-4.61,208.56,208.56,0,0,0-42.83-8.16,165.41,165.41,0,0,0-21.42-.23,208,208,0,0,0-23.81,2.72A199.55,199.55,0,0,0,717,233.74c-13,1.46-21.91-21.67-30-17.25l2.08-16.27.24-1.44Z"/><path class="cls-35" d="M699.75,146.6s4.62,9.88,10.58,15.93c7.92,8,18.46,12.2,31,14.41,24.65,4.33,57.14,1.05,93,5.2l1.08.15c.92.09,1.83.13,2.74.23A139,139,0,0,1,959.51,296a155.27,155.27,0,0,1,2,18.92c1.81,33.83-5.84,67.79-21,101-26.68,55.34-73,106.89-117.37,148.35-29.61,27.64-67.84,58.14-103.69,84.94q-9,6.74-17.75,13.09C668.33,686.58,639.2,706,623.23,716l1.58-12.44,1.72-9.11C627,690,643.42,653.71,661.62,642c6.2-2.82,13.53-6.45,21.58-11a683.86,683.86,0,0,0,109.49-77.69c8.7-7.63,17.24-15.58,25.46-23.82C858.51,489.18,901,438,921.79,385.16c7.69-19.67,12.29-39.54,12.58-59.13a108.63,108.63,0,0,0-1.65-22.59c-.37-2.05-.82-4.07-1.28-6.08a92.89,92.89,0,0,0-10.29-26.08,88.15,88.15,0,0,0-11.6-15.57,96.93,96.93,0,0,0-7.85-7.45,122.38,122.38,0,0,0-32.05-20,127.45,127.45,0,0,0-12.91-4.69A209.86,209.86,0,0,0,814,215.2a166.58,166.58,0,0,0-21.42-.38,211.65,211.65,0,0,0-23.82,2.53,203.63,203.63,0,0,0-50.52,14.89c-13.44,1.51-22.9-20.36-31.21-15.79l2.07-16.26.24-1.43Z"/><path class="cls-36" d="M699.75,146.6s4.62,9.88,10.58,15.93c7.92,8,18.46,12.2,31,14.41,24.65,4.33,57.14,1.05,93,5.2l1.08.15c.92.09,1.83.13,2.74.23A139,139,0,0,1,959.51,296a155.27,155.27,0,0,1,2,18.92c1.81,33.79-5.82,67.7-20.94,100.82-26.68,55.32-73,106.82-117.22,148.12-29.48,27.53-67.81,58.12-103.82,85q-9,6.74-17.76,13.11c-33.37,24.3-62.52,43.81-78.57,53.87l1.58-12.43,1.73-9.11c.51-4.65,17.15-39.84,35.94-52,6.21-2.89,13.51-6.55,21.52-11.09a690.72,690.72,0,0,0,109.33-77.79c8.69-7.64,17.22-15.6,25.41-23.85,40.16-40.2,82.68-91.41,103.52-144.29,7.71-19.64,12.35-39.49,12.72-59.06a110.15,110.15,0,0,0-1.54-22.6c-.36-2-.8-4.07-1.25-6.08a93.14,93.14,0,0,0-10.08-26.16,88.88,88.88,0,0,0-11.46-15.67,96.88,96.88,0,0,0-7.77-7.53A121,121,0,0,0,871,228.06a125,125,0,0,0-12.89-4.76,209.93,209.93,0,0,0-42.69-8.65,169.41,169.41,0,0,0-21.41-.53,215.16,215.16,0,0,0-23.84,2.33,209.33,209.33,0,0,0-50.71,14.28c-13.87,1.56-23.88-19-32.47-14.32l2.07-16.24.25-1.44Z"/><path class="cls-37" d="M699.75,146.6s4.62,9.88,10.58,15.93c7.92,8,18.46,12.2,31,14.41,24.65,4.33,57.14,1.06,93,5.2l1.08.15c.92.09,1.83.13,2.74.23A139,139,0,0,1,959.51,296a155.27,155.27,0,0,1,2,18.92c1.81,33.74-5.79,67.61-20.87,100.69-26.69,55.3-73,106.73-117.07,147.89-29.36,27.42-67.8,58.08-104,85.13-6,4.5-12,8.88-17.78,13.13-33.31,24.28-62.48,43.86-78.63,54l1.58-12.43,1.75-9.1c.53-4.79,17.41-38.92,36.78-51.43,6.23-2.94,13.51-6.63,21.47-11.19A695.88,695.88,0,0,0,794,553.73c8.68-7.65,17.19-15.61,25.36-23.87,40-40.12,82.47-91.34,103.41-144.27,7.72-19.62,12.41-39.45,12.85-59a111.62,111.62,0,0,0-1.44-22.6c-.34-2-.77-4.07-1.21-6.09a94.19,94.19,0,0,0-9.87-26.23,90,90,0,0,0-11.32-15.77,98.61,98.61,0,0,0-7.69-7.61,120.23,120.23,0,0,0-31.72-20.46A123.69,123.69,0,0,0,859.53,223a210.3,210.3,0,0,0-42.63-8.9,170.44,170.44,0,0,0-21.4-.67,216.29,216.29,0,0,0-23.85,2.13,214.05,214.05,0,0,0-50.9,13.67c-14.31,1.61-24.88-17.72-33.73-12.85l2.07-16.24.25-1.44Z"/><path class="cls-38" d="M699.75,146.6s4.62,9.88,10.58,15.93c7.92,8,18.46,12.2,31,14.41,24.65,4.33,57.14,1.06,93,5.2l1.08.15c.92.09,1.83.13,2.74.23A139,139,0,0,1,959.51,296a155.27,155.27,0,0,1,2,18.92c1.8,33.7-5.77,67.51-20.81,100.55-26.69,55.29-73,106.66-116.92,147.67-29.23,27.3-67.78,58.05-104.08,85.22-6,4.5-12,8.9-17.79,13.16-33.25,24.25-62.44,43.89-78.68,54.11l1.58-12.42,1.76-9.09c.54-4.94,17.67-38,37.63-50.89,6.24-3,13.49-6.73,21.4-11.29a700.44,700.44,0,0,0,109-78c8.68-7.66,17.17-15.63,25.33-23.89,39.73-40,82.25-91.26,103.28-144.26,7.74-19.59,12.47-39.4,13-58.95a113,113,0,0,0-1.33-22.59c-.34-2.05-.75-4.08-1.18-6.1a94.52,94.52,0,0,0-9.66-26.3A90.63,90.63,0,0,0,912.91,256a96.87,96.87,0,0,0-7.62-7.68,118.4,118.4,0,0,0-31.55-20.71,120.41,120.41,0,0,0-12.82-4.89,211,211,0,0,0-42.56-9.15,171.41,171.41,0,0,0-21.39-.82,225.14,225.14,0,0,0-23.87,1.93A219.35,219.35,0,0,0,722,227.73c-14.74,1.66-25.87-16.41-35-11.39l2.07-16.23.25-1.43Z"/><path class="cls-39" d="M699.75,146.6s4.62,9.88,10.58,15.93c7.92,8,18.46,12.2,31,14.41,24.65,4.33,57.14,1.06,93,5.2l1.08.15c.92.09,1.83.13,2.74.23A139,139,0,0,1,959.51,296a155.27,155.27,0,0,1,2,18.92c1.8,33.65-5.75,67.42-20.75,100.42-26.69,55.26-73,106.58-116.77,147.44-29.1,27.18-67.75,58-104.2,85.32q-9,6.75-17.81,13.17c-33.2,24.23-62.4,43.93-78.74,54.24l1.58-12.42,1.79-9.08c.55-5.08,17.93-37.08,38.47-50.35,6.24-3.07,13.47-6.83,21.34-11.4a706.78,706.78,0,0,0,108.85-78.1c8.67-7.66,17.15-15.64,25.28-23.91,39.53-40,82-91.19,103.16-144.24,7.76-19.56,12.54-39.36,13.13-58.9a113.87,113.87,0,0,0-1.23-22.59c-.32-2-.72-4.08-1.13-6.1a95.46,95.46,0,0,0-9.46-26.38,90.88,90.88,0,0,0-11-16,98.58,98.58,0,0,0-7.54-7.76,117.26,117.26,0,0,0-31.38-20.95,120.23,120.23,0,0,0-12.79-5,211.8,211.8,0,0,0-42.5-9.39,172.37,172.37,0,0,0-21.38-1,232.06,232.06,0,0,0-75.17,14.2c-15.17,1.7-26.85-15.09-36.24-9.93l2.07-16.22.25-1.43Z"/><path class="cls-40" d="M699.75,146.6s4.62,9.88,10.58,15.93c7.92,8,18.46,12.2,31,14.41,24.65,4.33,57.14,1.06,93,5.2l1.08.15c.92.09,1.83.13,2.74.23A139,139,0,0,1,959.51,296a155.27,155.27,0,0,1,2,18.92c1.8,33.6-5.73,67.33-20.69,100.28-26.69,55.25-73,106.5-116.61,147.22-29,27.06-67.74,58-104.33,85.41q-9,6.76-17.83,13.19c-33.14,24.21-62.37,44-78.79,54.36L624.89,703l1.8-9.07c.57-5.23,18.19-36.17,39.32-49.81,6.25-3.13,13.46-6.93,21.28-11.5C719,614.06,759,587,796,554.39c8.66-7.67,17.12-15.65,25.23-23.93,39.32-39.89,81.83-91.12,103-144.23,7.76-19.53,12.59-39.3,13.27-58.84a116.26,116.26,0,0,0-1.13-22.59c-.31-2.05-.7-4.08-1.1-6.1A95.39,95.39,0,0,0,926,272.25a90,90,0,0,0-10.89-16.08,95.41,95.41,0,0,0-7.47-7.84,115.83,115.83,0,0,0-31.21-21.21,119.81,119.81,0,0,0-12.75-5,211.74,211.74,0,0,0-42.44-9.64,173.35,173.35,0,0,0-21.37-1.11,236.62,236.62,0,0,0-75.37,13.39c-15.61,1.75-27.85-13.78-37.51-8.47l2.07-16.21.25-1.43Z"/><path class="cls-41" d="M699.75,146.6s4.62,9.88,10.58,15.93c7.92,8,18.46,12.2,31,14.41,24.65,4.33,57.14,1.06,93,5.2l1.08.15c.92.09,1.83.13,2.74.23A139,139,0,0,1,959.51,296a155.27,155.27,0,0,1,2,18.92c1.8,33.56-5.71,67.24-20.62,100.15-26.7,55.23-73,106.42-116.47,147C795.61,589,756.76,620,720,647.57q-9,6.76-17.84,13.21c-33.08,24.19-62.33,44-78.84,54.49l1.57-12.41,1.82-9.06c.59-5.38,18.45-35.25,40.17-49.27,6.26-3.2,13.44-7,21.21-11.61,31.78-18.71,71.75-45.75,108.54-78.3,8.65-7.68,17.09-15.67,25.19-24,39.1-39.82,81.61-91,102.92-144.21,7.78-19.51,12.66-39.26,13.41-58.79a117,117,0,0,0-1-22.58c-.3-2.05-.67-4.09-1.06-6.11A96.24,96.24,0,0,0,927,272.44a91.33,91.33,0,0,0-10.75-16.18,97.12,97.12,0,0,0-7.39-7.92,114.86,114.86,0,0,0-31-21.45,117.71,117.71,0,0,0-12.73-5.1,212.16,212.16,0,0,0-42.37-9.89,176.26,176.26,0,0,0-21.36-1.26A233.35,233.35,0,0,0,777.47,212a237,237,0,0,0-51.67,11.24c-16,1.81-28.84-12.45-38.77-7L689.1,200l.26-1.42Z"/><path class="cls-42" d="M699.75,146.6s4.62,9.88,10.58,15.93c7.92,8,18.46,12.2,31,14.41,24.65,4.33,57.14,1.07,93,5.2l1.08.15c.92.09,1.83.13,2.74.23A139,139,0,0,1,959.51,296a155.27,155.27,0,0,1,2,18.92c1.79,33.51-5.68,67.14-20.56,100-26.7,55.21-73,106.35-116.32,146.77C796,588.53,757,619.62,720.1,647.3q-9.06,6.78-17.86,13.23c-33,24.18-62.29,44.07-78.9,54.61l1.58-12.39,1.83-9.06c.61-5.52,18.71-34.33,41-48.74,6.27-3.25,13.43-7.12,21.15-11.7,31.84-18.89,71.74-45.92,108.38-78.41,8.64-7.69,17.07-15.69,25.14-24,38.9-39.74,81.4-91,102.8-144.19,7.8-19.49,12.72-39.22,13.55-58.73a118.7,118.7,0,0,0-.92-22.59c-.29-2.05-.65-4.08-1-6.11A96.55,96.55,0,0,0,928,272.63a91.24,91.24,0,0,0-10.61-16.28,97.19,97.19,0,0,0-7.32-8,113.71,113.71,0,0,0-30.87-21.69,116.54,116.54,0,0,0-12.69-5.17,213.76,213.76,0,0,0-42.3-10.13,177.41,177.41,0,0,0-21.35-1.42,237.16,237.16,0,0,0-23.93,1.15,242.67,242.67,0,0,0-51.86,10.63c-16.48,1.85-29.83-11.14-40-5.54L689.11,200l.25-1.42Z"/><path class="cls-43" d="M699.75,146.6s4.62,9.88,10.58,15.93c7.92,8,18.46,12.2,31,14.41,24.65,4.33,57.14,1.07,93,5.2l1.08.15c.92.09,1.83.13,2.74.23A139,139,0,0,1,959.51,296a155.27,155.27,0,0,1,2,18.92c1.79,33.47-5.66,67.05-20.5,99.88C914.35,470,868,521.07,824.9,561.35c-28.61,26.7-67.67,57.88-104.72,85.68-6,4.52-12,9-17.88,13.26-33,24.15-62.24,44.1-78.94,54.72l1.57-12.38,1.85-9c.62-5.67,19-33.42,41.87-48.2,6.28-3.32,13.41-7.22,21.09-11.81,31.91-19.06,71.74-46.08,108.22-78.51,8.63-7.7,17-15.7,25.09-24,38.69-39.67,81.19-90.9,102.69-144.19,7.81-19.46,12.78-39.17,13.68-58.67a120.46,120.46,0,0,0-.82-22.59c-.27-2.05-.63-4.08-1-6.12A97.2,97.2,0,0,0,929,272.83a92.14,92.14,0,0,0-10.47-16.39,97.15,97.15,0,0,0-7.24-8.07,112.35,112.35,0,0,0-30.7-21.94,117.42,117.42,0,0,0-12.67-5.25,214.06,214.06,0,0,0-42.23-10.37,178.33,178.33,0,0,0-21.34-1.57c-7.36-.1-15.46.21-24,.95a249.74,249.74,0,0,0-52,10c-16.91,1.9-30.82-9.83-41.29-4.07L689.11,200l.26-1.42Z"/><path class="cls-44" d="M699.75,146.6s4.62,9.88,10.58,15.93c7.92,8,18.46,12.2,31,14.41,24.65,4.33,57.14,1.07,93,5.2l1.08.15c.92.09,1.83.13,2.74.23A139,139,0,0,1,959.51,296a155.27,155.27,0,0,1,2,18.92c1.79,33.42-5.64,67-20.44,99.74-26.71,55.18-73,106.19-116,146.32-28.48,26.58-67.65,57.84-104.84,85.77q-9.06,6.79-17.9,13.28c-32.9,24.13-62.21,44.14-79,54.85L625,702.51l1.87-9c.63-5.81,19.23-32.49,42.71-47.65,6.29-3.38,13.39-7.32,21-11.91,32-19.25,71.74-46.25,108.07-78.62,8.61-7.7,17-15.71,25-24,38.47-39.59,81-90.83,102.56-144.17,7.83-19.43,12.84-39.13,13.82-58.62a122.26,122.26,0,0,0-.71-22.59c-.27-2.05-.61-4.08-1-6.12A98.32,98.32,0,0,0,930,273a93,93,0,0,0-10.33-16.49,97.28,97.28,0,0,0-7.16-8.15,111.52,111.52,0,0,0-30.54-22.19,118.23,118.23,0,0,0-12.63-5.31,215.21,215.21,0,0,0-42.17-10.62,179.27,179.27,0,0,0-21.33-1.71c-7.34-.16-15.45.09-24,.75a257.85,257.85,0,0,0-52.25,9.42c-17.34,1.94-31.81-8.51-42.54-2.61l2.06-16.17.26-1.43Z"/><path class="cls-45" d="M699.75,146.6s4.62,9.88,10.58,15.93c7.92,8,18.46,12.2,31,14.41,24.65,4.33,57.14,1.07,93,5.2l1.08.15c.92.09,1.83.13,2.74.23A139,139,0,0,1,959.51,296a153.32,153.32,0,0,1,2,18.92c1.79,33.37-5.62,66.87-20.38,99.61-26.71,55.15-73,106.11-115.86,146.09-28.35,26.47-67.62,57.81-105,85.86-6,4.54-12,9-17.91,13.3-32.85,24.11-62.17,44.19-79.05,55L625,702.39l1.89-9c.65-6,19.49-31.57,43.56-47.11,6.29-3.45,13.38-7.42,21-12,32.06-19.42,71.74-46.41,107.91-78.72,8.6-7.71,17-15.73,25-24,38.27-39.52,80.77-90.76,102.44-144.16,7.85-19.4,12.9-39.08,14-58.56a124,124,0,0,0-.62-22.58c-.25-2.05-.58-4.09-.91-6.13a98.6,98.6,0,0,0-8.22-26.82,93.2,93.2,0,0,0-10.19-16.6,99.15,99.15,0,0,0-7.09-8.23A110.6,110.6,0,0,0,883.3,226a116.23,116.23,0,0,0-12.61-5.38,215.25,215.25,0,0,0-42.1-10.87,182.27,182.27,0,0,0-21.32-1.86c-7.33-.21-15.44,0-24,.55a265.46,265.46,0,0,0-52.43,8.82c-17.78,2-32.8-7.2-43.81-1.15l2.07-16.16.26-1.42Z"/><path class="cls-46" d="M699.75,146.6s4.62,9.88,10.58,15.93c7.92,8,18.46,12.2,31,14.41,24.65,4.33,57.14,1.07,93,5.2l1.08.15c.92.09,1.83.13,2.74.23A139,139,0,0,1,959.51,296a153.32,153.32,0,0,1,2,18.92c1.78,33.33-5.59,66.77-20.31,99.47-26.72,55.14-73,106-115.71,145.87-28.23,26.35-67.61,57.77-105.1,86q-9.08,6.81-17.93,13.32c-32.79,24.09-62.13,44.23-79.1,55.1L625,702.27l1.9-9c.67-6.1,19.75-30.66,44.41-46.57,6.3-3.51,13.36-7.53,20.9-12.13,32.12-19.6,71.74-46.58,107.75-78.81,8.59-7.72,17-15.75,24.95-24.06C863,492.23,905.45,441,927.22,387.53c7.86-19.38,13-39,14.1-58.51a125.88,125.88,0,0,0-.51-22.58c-.24-2.05-.56-4.09-.88-6.13a99.07,99.07,0,0,0-8-26.9,94.57,94.57,0,0,0-10-16.7,101.25,101.25,0,0,0-7-8.3,109.3,109.3,0,0,0-30.2-22.68,114,114,0,0,0-12.57-5.45,215.3,215.3,0,0,0-42-11.12,183.13,183.13,0,0,0-21.31-2c-7.32-.26-15.43-.15-24,.36a273.78,273.78,0,0,0-52.63,8.2c-18.21,2-33.79-5.87-45.06.32l2.06-16.15.26-1.42Z"/><path class="cls-47" d="M699.75,146.6s4.62,9.88,10.58,15.93c7.92,8,18.46,12.2,31,14.41,24.65,4.33,57.14,1.08,93,5.2l1.08.15c.92.09,1.83.13,2.74.23A139,139,0,0,1,959.51,296a153.32,153.32,0,0,1,2,18.92c1.78,33.28-5.57,66.68-20.25,99.34-26.72,55.12-73.06,106-115.56,145.64-28.1,26.23-67.58,57.74-105.23,86-6,4.55-12,9-17.94,13.34-32.74,24.08-62.09,44.28-79.16,55.22L625,702.15l1.92-9c.68-6.25,20-29.74,45.25-46,6.32-3.57,13.35-7.63,20.84-12.23,32.2-19.78,71.74-46.75,107.59-78.92,8.59-7.73,16.95-15.76,24.92-24.08,37.84-39.36,80.34-90.61,102.2-144.13,7.88-19.35,13-39,14.24-58.45a126.87,126.87,0,0,0-.41-22.58c-.23-2-.53-4.09-.83-6.13a99.9,99.9,0,0,0-7.82-27A94.5,94.5,0,0,0,923,256.8a99.62,99.62,0,0,0-7-8.38,108.27,108.27,0,0,0-30-22.92A116.73,116.73,0,0,0,873.49,220a217,217,0,0,0-42-11.36,184,184,0,0,0-21.3-2.15c-7.3-.32-15.43-.26-24,.15a285.89,285.89,0,0,0-52.83,7.6c-18.64,2.09-34.78-4.56-46.32,1.78l2.07-16.14.26-1.42Z"/><path class="cls-48" d="M699.75,146.6s4.62,9.88,10.58,15.93c7.92,8,18.46,12.2,31,14.41,24.65,4.33,57.14,1.08,93,5.2l1.08.15c.92.09,1.83.13,2.74.23A139,139,0,0,1,959.51,296a153.32,153.32,0,0,1,2,18.92c1.78,33.24-5.55,66.59-20.19,99.2C914.65,469.24,868.31,520,826,559.55c-28,26.11-67.56,57.7-105.35,86.13q-9.09,6.83-18,13.37c-32.68,24.05-62.06,44.31-79.21,55.34L625,702l1.93-9c.7-6.39,20.27-28.82,46.1-45.5,6.33-3.63,13.33-7.72,20.78-12.33,32.26-20,71.74-46.91,107.43-79,8.58-7.74,16.92-15.77,24.87-24.1C863.76,492.78,906.25,441.54,928.2,388c7.9-19.33,13.09-38.94,14.38-58.39a129.8,129.8,0,0,0-.3-22.58c-.22-2.06-.51-4.1-.8-6.15a100.6,100.6,0,0,0-7.61-27,95.13,95.13,0,0,0-9.75-16.91,99.71,99.71,0,0,0-6.87-8.45,107.45,107.45,0,0,0-29.86-23.18,114.83,114.83,0,0,0-12.51-5.59A217.47,217.47,0,0,0,833,208.06a187.49,187.49,0,0,0-21.3-2.3c-7.29-.37-15.42-.38-24,0a294.38,294.38,0,0,0-53,7c-19.08,2.14-35.77-3.24-47.58,3.25l2.06-16.14.27-1.41Z"/><path class="cls-49" d="M699.75,146.6s4.62,9.88,10.58,15.93c7.92,8,18.46,12.2,31,14.41,24.65,4.33,57.14,1.08,93,5.2l1.08.15c.92.09,1.83.13,2.74.23A139,139,0,0,1,959.51,296a153.32,153.32,0,0,1,2,18.92c1.78,33.19-5.53,66.5-20.13,99.07-26.72,55.08-73.07,105.79-115.25,145.19-27.85,26-67.54,57.67-105.49,86.22-6.05,4.56-12.06,9-18,13.39-32.62,24-62,44.35-79.26,55.46L625,701.91l2-9c.71-6.54,20.53-27.9,46.94-45,6.34-3.69,13.32-7.82,20.72-12.43,32.33-20.15,71.73-47.08,107.27-79.13,8.57-7.74,16.9-15.79,24.83-24.12,37.42-39.21,79.91-90.46,102-144.1,7.91-19.29,13.14-38.89,14.51-58.33a130.86,130.86,0,0,0-.2-22.58c-.2-2.06-.48-4.1-.76-6.15a101.07,101.07,0,0,0-7.4-27.12,96,96,0,0,0-9.61-17,99.68,99.68,0,0,0-6.8-8.53A106.55,106.55,0,0,0,888.76,225a113.68,113.68,0,0,0-12.48-5.66,217.42,217.42,0,0,0-41.84-11.86,190.62,190.62,0,0,0-21.29-2.45c-7.27-.42-15.41-.5-24-.24a304.54,304.54,0,0,0-53.21,6.39c-19.51,2.19-36.76-1.93-48.84,4.71l2.06-16.13.27-1.41Z"/><path class="cls-50" d="M699.75,146.6s4.62,9.88,10.58,15.93c7.92,8,18.46,12.2,31,14.41,24.65,4.33,57.14,1.08,93,5.2l1.08.15c.92.09,1.83.13,2.74.23A139,139,0,0,1,959.51,296a153.32,153.32,0,0,1,2,18.92c1.78,33.14-5.5,66.4-20.06,98.93-26.73,55.07-73.08,105.72-115.11,145-27.72,25.88-67.52,57.64-105.61,86.32-6.06,4.57-12.08,9.05-18,13.41-32.57,24-62,44.4-79.32,55.58L625,701.79l2-9c.73-6.69,20.79-27,47.79-44.42,6.35-3.76,13.3-7.92,20.65-12.54,32.4-20.33,71.74-47.24,107.12-79.23,8.56-7.75,16.87-15.8,24.78-24.14,37.21-39.13,79.7-90.39,101.84-144.08,7.93-19.27,13.21-38.85,14.66-58.28a131.93,131.93,0,0,0-.11-22.58c-.18-2-.45-4.1-.72-6.15a101.66,101.66,0,0,0-7.19-27.19,96.7,96.7,0,0,0-9.47-17.12,101.5,101.5,0,0,0-6.72-8.61,105.74,105.74,0,0,0-29.52-23.66,112.74,112.74,0,0,0-12.45-5.73A216.93,216.93,0,0,0,835.9,207a193.8,193.8,0,0,0-21.28-2.6c-7.26-.48-15.41-.62-24-.43a315.94,315.94,0,0,0-53.39,5.77c-19.95,2.24-37.76-.6-50.1,6.18l2.06-16.12.27-1.41Z"/><path class="cls-51" d="M699.75,146.6s4.62,9.88,10.58,15.93c7.92,8,18.46,12.2,31,14.41,24.65,4.33,57.14,1.08,93,5.2l1.08.15c.92.09,1.83.13,2.74.23A139,139,0,0,1,959.51,296a153.32,153.32,0,0,1,2,18.92c1.77,33.1-5.48,66.31-20,98.8-26.73,55-73.09,105.64-115,144.73-27.59,25.76-67.49,57.61-105.74,86.41-6.06,4.57-12.08,9.06-18,13.43-32.51,24-61.94,44.44-79.37,55.71l1.56-12.34,2-9c.75-6.83,21.05-26.07,48.64-43.88,6.35-3.82,13.28-8,20.59-12.64,32.46-20.52,71.74-47.41,107-79.33,8.55-7.76,16.84-15.82,24.73-24.17,37-39,79.49-90.31,101.72-144.07,8-19.24,13.27-38.8,14.8-58.22a135,135,0,0,0,0-22.57c-.18-2.06-.44-4.11-.68-6.16a102.65,102.65,0,0,0-7-27.27,97.65,97.65,0,0,0-9.33-17.22,100.07,100.07,0,0,0-6.64-8.68,104.64,104.64,0,0,0-29.35-23.92,113.52,113.52,0,0,0-12.42-5.8,217.7,217.7,0,0,0-41.71-12.35,194.94,194.94,0,0,0-21.27-2.74c-7.24-.54-15.4-.75-24.06-.64a327.37,327.37,0,0,0-53.59,5.17c-20.38,2.29-38.75.71-51.36,7.64l2.06-16.11.27-1.4Z"/><path class="cls-52" d="M699.75,146.6s4.62,9.88,10.58,15.93c7.92,8,18.46,12.2,31,14.41,24.65,4.33,57.14,1.09,93,5.2l1.08.15c.92.09,1.83.13,2.74.23A139,139,0,0,1,959.51,296a153.32,153.32,0,0,1,2,18.92c1.77,33.05-5.46,66.22-19.94,98.66-26.74,55-73.09,105.56-114.8,144.51-27.47,25.64-67.48,57.58-105.87,86.51-6.07,4.57-12.1,9.06-18,13.45-32.44,24-61.9,44.48-79.42,55.82l1.57-12.32,2-9c.76-7,21.31-25.14,49.49-43.33,6.36-3.89,13.26-8.12,20.53-12.75,32.53-20.7,71.73-47.57,106.8-79.43,8.54-7.77,16.82-15.83,24.69-24.18,36.79-39,79.27-90.25,101.59-144.06,8-19.22,13.34-38.75,14.94-58.17a136.13,136.13,0,0,0,.1-22.57c-.16-2.06-.41-4.11-.64-6.16a103.92,103.92,0,0,0-6.78-27.35,98.25,98.25,0,0,0-9.19-17.32,102,102,0,0,0-6.57-8.76,103.76,103.76,0,0,0-29.18-24.16,112.44,112.44,0,0,0-12.38-5.87,218.08,218.08,0,0,0-41.65-12.6A200.55,200.55,0,0,0,817.57,203c-7.24-.57-15.4-.87-24.09-.83a338.39,338.39,0,0,0-53.78,4.56c-20.81,2.34-39.73,2-52.61,9.1l2-16.09.28-1.41Z"/><path class="cls-53" d="M699.75,146.6s4.62,9.88,10.58,15.93c7.92,8,18.46,12.2,31,14.41,24.65,4.33,57.14,1.09,93,5.2l1.08.15c.92.09,1.83.13,2.74.23A139,139,0,0,1,959.51,296a153.32,153.32,0,0,1,2,18.92c1.77,33-5.44,66.13-19.88,98.53-26.74,55-73.1,105.48-114.65,144.28-27.34,25.53-67.45,57.54-106,86.6-6.08,4.57-12.11,9.08-18,13.47-32.39,24-61.86,44.52-79.47,56l1.56-12.32,2-9c.78-7.12,21.57-24.23,50.34-42.8,6.37-3.94,13.24-8.23,20.47-12.84,32.55-21,71.73-47.75,106.64-79.54,8.52-7.77,16.79-15.85,24.64-24.2,36.58-38.91,79.06-90.17,101.48-144,8-19.2,13.39-38.71,15.07-58.12a138.38,138.38,0,0,0,.21-22.57c-.15-2.06-.39-4.11-.61-6.16a103.79,103.79,0,0,0-6.58-27.42,97.82,97.82,0,0,0-9-17.42,100.84,100.84,0,0,0-6.49-8.84,103,103,0,0,0-29-24.41,110.74,110.74,0,0,0-12.36-5.94,220.42,220.42,0,0,0-41.58-12.85,206.64,206.64,0,0,0-21.24-3c-7.23-.63-15.39-1-24.1-1a351,351,0,0,0-54,4c-21.25,2.38-40.73,3.34-53.88,10.56l2.06-16.08.27-1.41Z"/><path class="cls-54" d="M699.75,146.6s4.62,9.88,10.58,15.93c7.92,8,18.46,12.2,31,14.41,24.65,4.33,57.14,1.09,93,5.2l1.08.15c.92.09,1.83.13,2.74.23A139,139,0,0,1,959.51,296a153.32,153.32,0,0,1,2,18.92c1.77,33-5.42,66-19.82,98.39-26.74,55-73.1,105.41-114.5,144.06-27.21,25.41-67.43,57.51-106.12,86.69q-9.12,6.87-18.06,13.49c-32.33,23.93-61.82,44.56-79.52,56.07l1.56-12.31,2-9c.79-7.26,21.83-23.31,51.18-42.26,6.38-4,13.22-8.33,20.4-13,32.63-21.11,71.74-47.91,106.49-79.64,8.51-7.78,16.76-15.86,24.59-24.22,36.37-38.83,78.85-90.1,101.36-144,8-19.16,13.45-38.66,15.22-58.05a140.72,140.72,0,0,0,.3-22.57c-.14-2.06-.36-4.12-.57-6.18A104.33,104.33,0,0,0,939.74,275a99.72,99.72,0,0,0-15.32-26.44,101.77,101.77,0,0,0-28.84-24.65,109.7,109.7,0,0,0-12.32-6,219.62,219.62,0,0,0-41.52-13.1,207.77,207.77,0,0,0-21.23-3.19c-7.21-.68-15.39-1.11-24.11-1.22a364.72,364.72,0,0,0-54.17,3.35c-21.68,2.43-41.72,4.65-55.13,12l2-16.08.28-1.41Z"/><path class="cls-55" d="M699.75,146.6s4.62,9.88,10.58,15.93c7.92,8,18.46,12.2,31,14.41,24.65,4.33,57.14,1.09,93,5.2l1.08.15c.92.09,1.83.13,2.74.23A139,139,0,0,1,959.51,296a153.32,153.32,0,0,1,2,18.92c1.76,32.92-5.39,65.94-19.75,98.26-26.75,55-73.12,105.32-114.35,143.83C800.37,582.31,760,614.49,721.21,643.8c-6.08,4.59-12.13,9.1-18.08,13.51-32.27,23.91-61.79,44.61-79.58,56.2l1.56-12.31,2.06-9c.81-7.41,22.09-22.39,52-41.72,6.39-4.07,13.21-8.42,20.34-13,32.7-21.29,71.73-48.08,106.33-79.75,8.5-7.79,16.74-15.87,24.55-24.24,36.16-38.76,78.63-90,101.23-144,8-19.14,13.52-38.62,15.36-58a143.11,143.11,0,0,0,.41-22.57c-.13-2.06-.34-4.12-.53-6.18a105.58,105.58,0,0,0-6.17-27.56A99.52,99.52,0,0,0,932,257.53a101.64,101.64,0,0,0-35-33.9,111.4,111.4,0,0,0-12.29-6.08,220.48,220.48,0,0,0-41.44-13.34A209.17,209.17,0,0,0,822,200.88c-7.2-.74-15.38-1.24-24.13-1.42a379.37,379.37,0,0,0-54.36,2.73c-22.11,2.49-42.7,6-56.39,13.5l2.06-16.07.27-1.4Z"/><path class="cls-56" d="M941.87,413.05c-26.75,55-73.12,105.25-114.2,143.61-27,25.17-67.39,57.44-106.38,86.87s-76.53,56-97.72,69.85l1.56-12.3,2.07-9c1-9.14,32.28-27.59,73.16-54.34S791.68,576,831,533.68C886,474.53,956.24,385.93,947.66,303a100.18,100.18,0,0,0-6-27.64,100.92,100.92,0,0,0-55.65-58.1,210.07,210.07,0,0,0-62.6-17.07c-38.32-4.26-105.23-1.63-136.34,15.47l2-16.06,10.59-53s4.62,9.88,10.58,15.93c7.92,8,18.46,12.2,31,14.41,24.65,4.33,57.13,1.2,93,5.2l1.08.15c.92.08,1.83.13,2.74.23A138.7,138.7,0,0,1,961.56,314.93C963.8,347.77,956.19,380.78,941.87,413.05Z"/></g><g id="highlight"><path class="cls-57" d="M796,190.5c2,6.74-67.45,33.77-155.25,60.37s-160.59,42.71-162.63,36,67.46-33.77,155.24-60.37S793.93,183.75,796,190.5Z"/><path class="cls-58" d="M444.39,831.41c-5.05,6.24-10,12.45-15.08,18.61,45.45-28.68,115.05-68.85,184.68-124.7C760.17,608.07,846.64,542.46,842.58,536.7S726.73,612.5,592.84,702.33c-43.11,28.92-75.14,54.3-109.39,85.79C466.87,800.5,456.63,816.26,444.39,831.41Z"/><path class="cls-59" d="M955.3,350.86c-8.72,3.29-27.29-24.56-41.48-62.21s-18.65-70.82-9.92-74.11,27.3,24.56,41.49,62.21S964,347.57,955.3,350.86Z"/></g></g><path id="outside" class="cls-60" d="M704.84,42.92s2.93,549.24-129.39,804.6c-1.28,2.46-4,4.92-7.84,7.35-30.38,34-114.74,58.37-214.12,58.37h-2.13c-99.38,0-183.74-24.42-214.12-58.37-3.85-2.43-6.56-4.89-7.84-7.35C-2.92,592.16,0,42.92,0,42.92v-2.6C0,18.06,157.79.38,352.43,0c199.31-.38,352.42,18,352.42,40.31C704.85,41.18,704.84,42.05,704.84,42.92Z"/><g id="shading"><path class="cls-61" d="M704.85,42.92s3.28,549.24-129,804.6c-1.27,2.46-4,4.92-7.84,7.35-30.38,34-115.09,58.37-214.47,58.37h-2.13c-99.39,0-183.74-24.42-214.12-58.37-3.86-2.43-6.57-4.89-7.84-7.35C-2.92,592.16,0,42.92,0,42.92v-2.6C0,18.06,157.79.38,352.43,0c199.31-.38,352.42,18,352.42,40.31h0C704.86,41.2,704.85,42.05,704.85,42.92Z"/><path class="cls-62" d="M505.23,133c-4.36,46.15-7.71,96.13-9.73,148.33-9,233,11.86,421.68,46.58,421.48s70.23-189.23,79.24-422.2c2.1-54.36,2.57-106.3,1.63-154Z"/></g><g id="inside"><path class="cls-63" d="M704.85,42.92s.08,12.84-.27,35.52c-83.33,9-194,34.16-319.73,34.16-158.46,0-298.72-29-384.68-42.83C0,52.52,0,42.92,0,42.92v-2.6C0,18.06,157.79.38,352.43,0c199.31-.38,352.42,18,352.42,40.31h0C704.86,41.2,704.85,42.05,704.85,42.92Z"/><path class="cls-64" d="M352.43,0C157.79.38,0,18.06,0,40.32S157.79,80.64,352.43,80.64s352.41-18,352.41-40.32S551.74-.37,352.43,0Z"/><ellipse class="cls-65" cx="353.4" cy="39.02" rx="342.68" ry="36.96"/><ellipse class="cls-66" cx="353.4" cy="39.02" rx="342.67" ry="36.96"/></g><g id="highlight-2" data-name="highlight"><path class="cls-67" d="M704.84,42.92s2.88,480.14-104.91,751.29c5.64-75.82,16.34-196.37,27.92-312.41,20.81-208.42,60.69-398.41,75.24-441.48h1.76C704.85,41.2,704.84,42.05,704.84,42.92Z"/><ellipse class="cls-68" cx="411.42" cy="40.32" rx="243.03" ry="17.87"/><path class="cls-69" d="M656,21.66c-8.48,13.1-22.09,27.75-39.45,41C563.18,69.6,487,74.36,400.43,75.64,364.89,55.19,338,27.17,325.18,2.19q13.95-.13,28.22-.13C484.48,2.06,598.37,10,656,21.66Z"/><path class="cls-70" d="M601.32,56.75c-1,11.94-65.91,16.14-144.91,9.35S314.2,44.17,315.23,32.21s65.89-16.14,144.9-9.36S602.33,44.79,601.32,56.75Z"/><path class="cls-71" d="M85.83,613.29c-25.28,2.16-56.39-119.87-69.48-272.61S13.08,62.4,38.38,60.24s56.41,119.87,69.5,272.59S111.14,611.12,85.83,613.29Z"/><path class="cls-72" d="M676.53,611.87c-17.35,9.13-27.39,12.79-27.39,12.79.91-2.74,3.83-17.76,4.56-21A78.63,78.63,0,0,0,645,603a63,63,0,0,0-23,121.63c1.31-4.3.73-4.66,8.7-9.33,14.59-8.54,38-23.26,77.58-51.48C707.8,642,693.71,622.81,676.53,611.87Z"/><path class="cls-73" d="M767.5,213.17a121.88,121.88,0,0,1-2.26,19.52,139,139,0,0,0-68.32,29.15s-.47,6.92-1.44,18.66c-90.05-17.8-95.55-141.15,7.61-143.58-.31,7.59-.46,14.94-.46,14.94,10.64,20.23,30.54,25.42,56.27,27C764.17,188.41,767.5,201.86,767.5,213.17Z"/></g></g></g><g id="character_art" data-name="character art"><g id="art"><g id="slogan"><g id="slogan-2" data-name="slogan"><path class="cls-2" d="M159.88,562.4l-2.51-4.29,30-17.52,2.5,4.29Z"/><path class="cls-2" d="M192.93,575.42l-3-4,5.94-4.5a2.37,2.37,0,0,0,1-1.63,2.4,2.4,0,0,0-.48-1.83,2.36,2.36,0,0,0-1.64-1,2.4,2.4,0,0,0-1.83.48L177,575a2.34,2.34,0,0,0-1,1.63,2.48,2.48,0,0,0,4,2.31l5.94-4.49,3,4L183,582.91a7.44,7.44,0,1,1-9-11.86l15.85-12a7.44,7.44,0,1,1,9,11.86Z"/><path class="cls-2" d="M212.69,576a7.5,7.5,0,0,1,.46,4.46,7.15,7.15,0,0,1-2.24,3.95l-14.6,13.47a7.14,7.14,0,0,1-5.36,2,7.55,7.55,0,0,1-3.17-.86,7.07,7.07,0,0,1-2-1.52,7.48,7.48,0,0,1-1.83-6.58,7.14,7.14,0,0,1,2.25-3.94l14.59-13.47a7.17,7.17,0,0,1,5.34-2,7.39,7.39,0,0,1,3.18.85,7.09,7.09,0,0,1,2,1.54A7,7,0,0,1,212.69,576Zm-19.76,18.23,14.6-13.47a2.44,2.44,0,0,0,.14-3.5,2.47,2.47,0,0,0-3.51-.15l-14.6,13.47a2.39,2.39,0,0,0-.79,1.74,2.34,2.34,0,0,0,.67,1.77,2.39,2.39,0,0,0,1.72.8A2.42,2.42,0,0,0,192.93,594.21Z"/><path class="cls-2" d="M230.8,592.31a7.24,7.24,0,0,1,2.63,5.07,7.13,7.13,0,0,1-1.73,5.43l-17.63,20.86-3.8-3.21,17.63-20.85a2.48,2.48,0,0,0-.31-3.5,2.47,2.47,0,0,0-3.49.29l-17.63,20.86-3.8-3.21L220.3,593.2a2.44,2.44,0,0,0-.3-3.49,2.36,2.36,0,0,0-1.8-.57,2.39,2.39,0,0,0-1.69.86l-17.63,20.86-3.8-3.21,17.63-20.85a7.5,7.5,0,0,1,10.5-.89,7.21,7.21,0,0,1,2.58,4.66A7.18,7.18,0,0,1,230.8,592.31Z"/><path class="cls-2" d="M238.24,598.26l6.22,4a7.48,7.48,0,0,1,2.19,10.33L244,616.77A7.5,7.5,0,0,1,233.62,619l-2.06-1.34-8.12,12.48-4.17-2.71Zm-2.32,16.26a3,3,0,0,0,4.14-.87l2.15-3.31a2.86,2.86,0,0,0,.43-2.25,2.9,2.9,0,0,0-1.3-1.88l-1.65-1.07-5.41,8.31Z"/><path class="cls-2" d="M252.73,607.72l4.42,2.29-12.58,24.23a2.46,2.46,0,0,0,1.06,3.34,2.42,2.42,0,0,0,1.9.16,2.38,2.38,0,0,0,1.46-1.21l12.57-24.23,4.4,2.27-12.57,24.24a7.43,7.43,0,0,1-10,3.18,7.44,7.44,0,0,1-3.18-10Z"/><path class="cls-2" d="M280.07,625.83l-4.6-1.83-11,27.65-4.63-1.84,11-27.65-4.62-1.84,1.84-4.62,13.84,5.51Z"/><path class="cls-2" d="M290.35,639.44l-1.43,4.76-5.53-1.65L280.54,652l5.53,1.66-1.43,4.76-10.29-3.08,10-33.28,10.29,3.08-1.43,4.76-5.53-1.65-2.85,9.5Z"/><path class="cls-2" d="M294.48,660.92l-2.06,2.25-1.68-.39,1.77-2.32-2.85-.66,1.13-4.84,4.82,1.13Z"/><path class="cls-2" d="M327.75,636.1l-4.91-.58-3.53,29.56-4.94-.59,3.53-29.56-4.94-.59.59-4.93,14.79,1.76Z"/><path class="cls-2" d="M345.06,666.35l-5-.07.21-14.88-5-.07-.21,14.88-5-.07.49-34.73,5,.07-.2,14.88,5,.07.21-14.88,5,.07Z"/><path class="cls-2" d="M360,645.63l.36,5-5.75.42.73,9.89,5.76-.42.36,4.95-10.71.79-2.57-34.64,10.72-.79.37,5-5.76.43.73,9.89Z"/><path class="cls-2" d="M378.23,643.07a7.63,7.63,0,0,1-2.81,4.6l.36.83,2,4.71,2,4.68,2,4.7-4.91.8-2-4.7-2-4.69-2-4.7-1.23.2,2.4,14.69-4.9.8-5.61-34.28,7.33-1.2a7.48,7.48,0,0,1,6.54,2.12,7.12,7.12,0,0,1,2.06,4l.8,4.86A7.21,7.21,0,0,1,378.23,643.07Zm-9.39,1.53,2-.32a2.85,2.85,0,0,0,1.92-1.16,3.09,3.09,0,0,0,.55-2.23v0l-.64-3.89a.13.13,0,0,0,0-.06,3,3,0,0,0-1.24-1.92,2.84,2.84,0,0,0-2.18-.49l-2,.32Z"/><path class="cls-2" d="M392.87,639.59l1.23,4.82-5.59,1.42,2.45,9.61,5.59-1.42,1.23,4.81-10.41,2.66-8.6-33.66,10.41-2.66,1.23,4.81-5.59,1.43,2.45,9.61Z"/><path class="cls-2" d="M401.39,637l5.44-1.85,1.6,4.71L403,641.69l4.8,14.1-4.72,1.6-11.17-32.9L402,621.05l1.6,4.7-5.44,1.85Z"/><path class="cls-2" d="M413.78,616.72a7.59,7.59,0,0,1,4.37,1,7.14,7.14,0,0,1,3,3.4l8,18.17a7.18,7.18,0,0,1,.12,5.71,7.55,7.55,0,0,1-1.84,2.71,7.44,7.44,0,0,1-4.55,2,7.42,7.42,0,0,1-4.37-1,7.22,7.22,0,0,1-3-3.4l-8-18.17a7.15,7.15,0,0,1-.13-5.68,7.37,7.37,0,0,1,1.84-2.73,7.44,7.44,0,0,1,4.55-2Zm10.84,24.59-8-18.17a2.45,2.45,0,0,0-3.26-1.27,2.41,2.41,0,0,0-1.33,1.38,2.35,2.35,0,0,0,0,1.89l8,18.17a2.49,2.49,0,0,0,4.55-2Z"/><path class="cls-2" d="M440.35,619.24a7.61,7.61,0,0,1-1.06,5.29l.63.65,3.51,3.73,3.52,3.7,3.53,3.71-4.33,2.44L442.62,635l-3.5-3.7-3.53-3.72-1.09.61,7.31,13-4.33,2.44-17.07-30.27,6.47-3.64a7.35,7.35,0,0,1,2.41-.86,7.59,7.59,0,0,1,4.46.6,7.21,7.21,0,0,1,3.33,3.09l2.42,4.29A7.28,7.28,0,0,1,440.35,619.24Zm-8.29,4.66,1.73-1a2.82,2.82,0,0,0,1.39-1.75,3,3,0,0,0-.24-2.28l0,0L433,615.42l0,0a3.1,3.1,0,0,0-1.82-1.37,2.87,2.87,0,0,0-2.23.29l-1.73,1Z"/><path class="cls-2" d="M452.94,610.93l2.81,4.11L451,618.29l5.61,8.18,4.76-3.25,2.81,4.1-8.87,6.06-19.64-28.67,8.87-6.06,2.81,4.1L442.57,606l5.61,8.18Z"/><path class="cls-2" d="M480.08,614.79,476.3,618l-22.64-26.36,3.77-3.23Z"/><path class="cls-2" d="M471.43,585.9a7.44,7.44,0,0,1,10.06-11l20.15,18.44L498.28,597l-11-10-3.37,3.66,11,10.05-3.34,3.65Zm12.2-2.28-5.5-5a2.49,2.49,0,0,0-3.5.16,2.48,2.48,0,0,0,.14,3.51l5.5,5Z"/><path class="cls-2" d="M487.77,554.43a7.47,7.47,0,0,1,10.4-1.78l22.28,15.81-2.88,4-22.28-15.8a2.47,2.47,0,0,0-3.46.6,2.32,2.32,0,0,0-.42,1.84,2.39,2.39,0,0,0,1,1.61l22.28,15.8-2.88,4.05-22.28-15.8a2.43,2.43,0,0,0-1.85-.44,2.47,2.47,0,0,0-1.6,1,2.47,2.47,0,0,0,.59,3.45L509,584.64l-2.88,4.06-22.28-15.81a7.43,7.43,0,0,1,2.67-13.32A7.1,7.1,0,0,1,487.77,554.43Z"/></g><g id="art-2" data-name="art"><path class="cls-74" d="M488.9,362.56h0l8.32-5a183.75,183.75,0,0,0-113.61-83.45l-2.31,9.34A174,174,0,0,1,488.9,362.56Z"/><path class="cls-74" d="M509,494.51l9.35,2.31a183.35,183.35,0,0,0-21.1-139.28l-8.32,5A173.63,173.63,0,0,1,509,494.51Z"/><path class="cls-75" d="M531.05,377.28l-.14.05a207.14,207.14,0,0,0-32.61-57l-7.64,6.15a196.53,196.53,0,0,1,41.52,94.27c0,.26.09.51.12.77.14.94.26,1.88.38,2.82.1.72.2,1.43.28,2.15,0,.35.08.71.12,1.07a195.29,195.29,0,0,1-16.55,103.58l8.83,4h0a206,206,0,0,0,17.51-63.26h0s0-.08,0-.12A206.1,206.1,0,0,0,531.05,377.28Z"/><path class="cls-76" d="M405.72,250a206.27,206.27,0,0,0-157.6,13.47h0l4.47,8.62,5.82,11.22A184.61,184.61,0,0,1,506.84,362l11.23-5.81,8.63-4.46A205.94,205.94,0,0,0,405.72,250Z"/><path class="cls-74" d="M485.31,544.76A173.64,173.64,0,0,0,504,412.6h0a174.57,174.57,0,0,0-338.09,87.14h0l11.28-2.91h0A162.92,162.92,0,0,1,294.22,298.59h0A163.13,163.13,0,0,1,492.69,415.51h0a162.08,162.08,0,0,1-17.48,123.3Z"/><path class="cls-76" d="M183.71,423.43a153.5,153.5,0,0,1,65.63-97.91l-4.87-7.28a162.24,162.24,0,0,0-69.36,103.48Z"/><path class="cls-76" d="M365,302.51l1.71-8.59a162.58,162.58,0,0,0-122.27,24.32l4.87,7.28A153.79,153.79,0,0,1,365,302.51Z"/><path class="cls-2" d="M222.78,530.59a136,136,0,0,1,18.14-182.44l12.37,15.08a116.54,116.54,0,0,0-15.41,155Z"/><path class="cls-2" d="M409.57,541.29A116.49,116.49,0,0,0,437.12,388l16-11.14A136,136,0,0,1,420.72,557.3Z"/><path class="cls-75" d="M162,382.16A183.63,183.63,0,0,1,263.4,284.29l-4.64-11.74A196.32,196.32,0,0,0,147.94,527.64L159.7,523A183.32,183.32,0,0,1,162,382.16Z"/></g></g><g id="character"><path class="cls-2" d="M280.43,459.94c0,18,14.06,25.84,21.57,25.84s13.6-11.57,13.6-25.84-6.09-25.85-13.6-25.85S280.43,441.9,280.43,459.94Z"/><path class="cls-77" d="M305.81,426.63s-26.37,40.76-23.38,82c0,0,14.43,63.38,20.4,67.85,3.73,2.8,10.78,14.67,40,15.33,12,.27,23.41-.66,41.14-15.58,0,0,17.41-41.25,19.4-82s13.44-68.6-37.82-79.54C330.69,407.27,305.81,426.63,305.81,426.63Z"/><ellipse class="cls-2" cx="259.31" cy="555.73" rx="10.08" ry="10.07"/><path class="cls-78" d="M249.5,549.55a26.26,26.26,0,0,0,10,7.2,25.45,25.45,0,0,0,11.82,1.39L313.2,471c-3.24.2-12.11-3.05-19.48-8.86-8.07-6.37-11-14.39-9.94-19.55Z"/><path class="cls-79" d="M373.72,548.94v-.09c.65-10.17-10.9-18.11-26.28-18.49s-29.15,9.37-29.88,21v.11Z"/><path class="cls-2" d="M326.2,603.91c5.35,2.68,12.31,3.47,19.23,2.3a41.13,41.13,0,0,0,18.6-8c4.84-3.91,8.11-8.74,8.66-13.59-.18-12.15.09-24.44.78-35.66l-56.25,2.51q-1.23,20-.78,39.89C317.29,596.7,320.82,601.23,326.2,603.91Z"/><path class="cls-80" d="M316.74,591.33a13.48,13.48,0,0,0,.09,3.36c0-1.12-.06-2.23-.09-3.35Z"/><path class="cls-80" d="M373,584.46s0,.09,0,.14l.06,3.46A10.85,10.85,0,0,0,373,584.46Z"/><path class="cls-80" d="M324.66,605.59c5.49,3.33,13.4,4.36,21.23,3s15.4-4.9,20.43-9.46c3.82-3.4,6.17-7.34,6.73-11.1L373,584.6c-.55,4.85-3.82,9.68-8.67,13.59a41,41,0,0,1-18.6,8c-6.91,1.17-13.88.38-19.23-2.3s-8.9-7.21-9.75-12.57c0,1.12.05,2.23.09,3.35A15.29,15.29,0,0,0,324.66,605.59Z"/><path class="cls-80" d="M373.5,553.09c.45,4.82-2.37,10.16-7.78,14.37a41.14,41.14,0,0,1-20.94,8c-7.81.76-15.63-.84-20.78-4.56s-7.73-9.31-6.71-14.83c.38,5.44,3.6,10.22,8.67,13.27s11.9,4.36,18.84,3.69a40.5,40.5,0,0,0,19-6.75C369,562.69,372.58,558,373.5,553.09Z"/><path class="cls-2" d="M331,359.45c.08-3.77,6.35-6.64,13.9-6.21s13.53,3.38,13.45,6.81Z"/><path class="cls-2" d="M331.43,387.22c-.52-9.3-.66-18.51-.47-27.77l27.35.6c-.18,8.53,0,17.13.43,25.6Z"/><path class="cls-80" d="M358.25,363.09a11.93,11.93,0,0,1-.68,5.4,12.72,12.72,0,0,1-3.05,4.62,14.9,14.9,0,0,1-9.82,4.18,13.94,13.94,0,0,1-10-3.84,12.57,12.57,0,0,1-3.77-10.7,13.3,13.3,0,0,0,4.78,9.25,13.78,13.78,0,0,0,8.93,3,14.67,14.67,0,0,0,8.83-3.21A13.25,13.25,0,0,0,358.25,363.09Z"/><path class="cls-2" d="M334.6,415.39a241.89,241.89,0,0,1-3.17-28.17l27.31-1.57a214.18,214.18,0,0,0,2.78,24.87Z"/><path class="cls-80" d="M358.92,388.67a11.64,11.64,0,0,1-.23,5.37,12.75,12.75,0,0,1-2.63,4.8,15.2,15.2,0,0,1-9.38,5.07,13.67,13.67,0,0,1-10.33-2.9,12.74,12.74,0,0,1-3.57-4.64,13,13,0,0,1-1.12-5.83,13.4,13.4,0,0,0,5.56,8.91,13.58,13.58,0,0,0,9.17,2.17,15,15,0,0,0,8.5-4A13.1,13.1,0,0,0,358.92,388.67Z"/><path class="cls-2" d="M344.15,444.92A76.4,76.4,0,0,1,338,429.87a133.26,133.26,0,0,1-3.42-14.48l26.92-4.87a107.53,107.53,0,0,0,2.7,11.5,50.36,50.36,0,0,0,3.86,9.65Z"/><path class="cls-80" d="M362.05,413.35a10.27,10.27,0,0,1,.54,2.47,12.18,12.18,0,0,1-.06,2.56,12.79,12.79,0,0,1-1.87,4.88,16.76,16.76,0,0,1-8.25,6.67,12.67,12.67,0,0,1-10.73-.94,12.88,12.88,0,0,1-4.39-4.27,12.72,12.72,0,0,1-1.35-2.87,13.1,13.1,0,0,1-.66-3.05,13.64,13.64,0,0,0,7,8.43,12.73,12.73,0,0,0,9.43.52,16.33,16.33,0,0,0,7.65-5.41A12.84,12.84,0,0,0,362.05,413.35Z"/><path class="cls-2" d="M344.15,444.92a5.41,5.41,0,0,0,2.66,2.36,7.27,7.27,0,0,0,1.84.54,10,10,0,0,0,2.13.08c2.94-.21,6.06-1.77,9-4.2a42.18,42.18,0,0,0,6.64-7.24c.38-.53.71-1,1-1.47a8.72,8.72,0,0,0,.67-1.33,2.36,2.36,0,0,0,.06-2Z"/><g class="cls-81"><rect class="cls-82" x="278" y="406.75" width="127.79" height="189.39"/><polygon class="cls-83" points="289.89 453.97 337.17 431.11 377.48 470.21 417.29 435.58 371.5 410.73 321.24 410.73 292.88 424.64 289.89 453.97"/><path class="cls-84" d="M406.84,440.05s-8-10.93-18.41-6-28.87,49.71-31.36,61.64-4.62,42.19-4.31,49.7c.33,8.12-1.31,38,20.9,40.43S415.3,537,415.3,537,435.2,444,406.84,440.05Z"/><path class="cls-84" d="M329.7,414.37s-6,5.54-7.3,8.62c-1.41,3.27-3,9.11,8.46,11.26S335,417.68,335,417.68,340.15,412.55,329.7,414.37Z"/><path class="cls-84" d="M322.57,552.56a15.73,15.73,0,0,0-10.78-1c-4.26,1.21-6.12,8.29-6.47,11.59-.4,3.74,0,12.76-4.81,14.25s12.94,5.47,12.94,5.47Z"/><polygon class="cls-84" points="335.11 511.01 291.53 503.74 298.45 472.61 343.27 476.68 335.11 511.01"/><polygon class="cls-2" points="335.4 509.82 293.77 502.87 300.38 473.14 343.2 477.03 335.4 509.82"/><g class="cls-85"><polyline class="cls-86" points="293.62 491.43 301.35 483.14 304.43 493.6 307.16 488.33 307.32 496.5 313.37 481.86 314.21 496.05 320.84 486.32 323.54 496.99 329.73 483.32 328.18 502.17 333.41 491.4 333.48 499.36 341.78 486.09"/></g></g><path class="cls-2" d="M415.13,464.58c0,18-14.05,25.84-21.56,25.84S380,478.85,380,464.58s6.09-25.85,13.6-25.85S415.13,446.54,415.13,464.58Z"/><ellipse class="cls-2" cx="309.63" cy="530.66" rx="10.08" ry="10.07"/><path class="cls-78" d="M318.13,538.54s.93-7.82-3-13.14c-3.77-5.15-10.95-5.69-10.95-5.69l75.69-65.93c3.77-1.58,10.8-2.79,19.07,1.65,9.7,5.22,13.73,24.9,8.09,30.2Z"/><path class="cls-83" d="M296.57,429.39l11.38-.67L321.09,528.8s-3.46-1.46-10.8-.9c-7.71.59-11.08,2.61-11.08,2.61Z"/><g class="cls-87"><polygon class="cls-83" points="306.85 441.94 326.24 420.19 302.67 402.79 287.38 405.69 294.03 435.43 306.85 441.94"/><path class="cls-82" d="M304,448.13l9.59-11.88s-8.57-7-15-7.61-12.2,2.94-12.2,2.94l4.18,11.5Z"/></g><path class="cls-2" d="M308.21,410.6a38.82,38.82,0,0,0-10.45-3.36c-6.62-1-7.33-.08-7.33-.08s-.57-1.67.16-2.41,5.67-.56,6.75-.4,11,3.91,11,3.91Z"/><ellipse class="cls-2" cx="317.59" cy="418.95" rx="5.04" ry="5.03"/><path class="cls-78" d="M307,409.18s-1,4.5,2.45,5.54c3,.91,4.57-2.63,4.57-2.63l2.29-13.17s6.08-5.4,3.29-9.39l-8.86,5Z"/><path class="cls-82" d="M290.21,405.45l5.8-12.9,13.22-4.72,10.37,1.7-8.86,5L307,409.18a32,32,0,0,0-10.13-4.25C294.84,404.51,291.82,404.6,290.21,405.45Z"/><polygon class="cls-84" points="296.01 392.55 310.74 394.55 319.6 389.53 309.23 387.83 296.01 392.55"/><ellipse class="cls-2" cx="310.5" cy="410.92" rx="2.85" ry="3.27" transform="translate(-38.96 32.58) rotate(-5.65)"/><path class="cls-83" d="M322.71,401.56a11.69,11.69,0,0,1,8.39-.88l-8.35,20.18a5.6,5.6,0,0,1-6.46.87,5.21,5.21,0,0,1-3.46-5l4.06-8.27S319.81,403,322.71,401.56Z"/><path class="cls-84" d="M313.78,419.78a.38.38,0,0,1,0-.08l4-8.27s2.93-5.53,5.82-6.94a12.35,12.35,0,0,1,6.38-1.24l1.06-2.57a11.69,11.69,0,0,0-8.39.88c-2.9,1.4-5.82,6.94-5.82,6.94l-4.06,8.27A4.88,4.88,0,0,0,313.78,419.78Z"/><ellipse class="cls-2" cx="298.59" cy="357.73" rx="8.55" ry="1.65" transform="translate(-109.69 582.29) rotate(-78.96)"/><ellipse class="cls-2" cx="303.47" cy="358.68" rx="8.55" ry="1.65" transform="translate(-106.68 587.85) rotate(-78.96)"/><rect class="cls-2" x="298.55" y="349.65" width="4.96" height="17.11" transform="translate(73.97 -50.91) rotate(11.01)"/><ellipse class="cls-2" cx="377.55" cy="380.89" rx="8.55" ry="1.65" transform="translate(-116.04 590.62) rotate(-68.27)"/><ellipse class="cls-2" cx="372.93" cy="379.05" rx="8.55" ry="1.65" transform="translate(-117.24 585.17) rotate(-68.27)"/><rect class="cls-2" x="372.76" y="371.41" width="4.96" height="17.11" transform="translate(583.56 871.67) rotate(-158.32)"/><path class="cls-83" d="M302.79,360.19v0c-4.8,16.36,7,28.93,26.55,34.66s39.47,2.47,44.28-13.89v0Z"/><ellipse class="cls-77" cx="338.2" cy="370.62" rx="9.51" ry="36.9" transform="translate(-112.62 590.86) rotate(-73.66)"/><path class="cls-83" d="M377.33,377.35s-15.08,4.9-42.73-3.21-33.13-19-33.13-19l14.31-94.59,96.15,28.65Z"/><ellipse class="cls-88" cx="377.21" cy="344.5" rx="16.42" ry="16.4"/><ellipse class="cls-79" cx="371.62" cy="341.24" rx="7.73" ry="7.72"/><path class="cls-84" d="M381.84,328.76s-15.27-4.82-20.46,12.83c0,0,11.33-7.22,18.58-5.86,10.49,1.95,14.08,11.81,14.08,11.81S395.45,332.75,381.84,328.76Z"/><path class="cls-89" d="M372.16,361.68a17.9,17.9,0,1,1,22.25-12.13A17.91,17.91,0,0,1,372.16,361.68Zm9.26-31.48a14.91,14.91,0,1,0,10.11,18.5A15,15,0,0,0,381.42,330.2Z"/><path class="cls-79" d="M360.23,340.13a37.49,37.49,0,0,1,5.08-3.12,31.9,31.9,0,0,1,5.5-2.25,19.64,19.64,0,0,1,6-.9,15.06,15.06,0,0,1,3.06.39,22.68,22.68,0,0,1,2.88.77,21.05,21.05,0,0,1,5.37,2.62,22.82,22.82,0,0,1,4.39,4c1.28,1.46,2.36,3.06,3.57,4.29a4.16,4.16,0,0,0,2,1.19,4.09,4.09,0,0,0,2.33-.28.75.75,0,0,1,.58,1.39h0a5.75,5.75,0,0,1-3.19.51,5.81,5.81,0,0,1-2.9-1.5c-1.5-1.39-2.61-2.89-3.89-4.19a18.88,18.88,0,0,0-9-5.45,21,21,0,0,0-2.62-.56,11.7,11.7,0,0,0-2.54-.2,16.66,16.66,0,0,0-5.06,1,33,33,0,0,0-9.25,5.23l-.06,0a1.86,1.86,0,0,1-2.31-2.91Z"/><ellipse class="cls-88" cx="319.43" cy="327.56" rx="16.42" ry="16.4"/><ellipse class="cls-79" cx="312.41" cy="323.87" rx="7.73" ry="7.72"/><path class="cls-84" d="M324.06,311.82s15.45,4.18,10.27,21.83c0,0-5.62-12.18-12.46-15-9.88-4-18.24,2.33-18.24,2.33S310.45,307.83,324.06,311.82Z"/><path class="cls-89" d="M314.39,344.73a17.9,17.9,0,1,1,22.24-12.13A17.91,17.91,0,0,1,314.39,344.73Zm9.25-31.48a14.91,14.91,0,1,0,10.11,18.51A14.94,14.94,0,0,0,323.64,313.25Z"/><path class="cls-79" d="M332.57,334.25a33.08,33.08,0,0,0-4.95-9.4,17,17,0,0,0-3.72-3.58,12.65,12.65,0,0,0-2.25-1.2,21.64,21.64,0,0,0-2.5-.94,18.9,18.9,0,0,0-10.52-.27c-1.79.4-3.53,1.06-5.54,1.42a5.82,5.82,0,0,1-3.25-.3,5.76,5.76,0,0,1-2.41-2.15h0a.75.75,0,0,1,1.23-.85,3.56,3.56,0,0,0,4.11,1.55c1.68-.38,3.46-1.14,5.32-1.68a23.17,23.17,0,0,1,5.84-1,20.87,20.87,0,0,1,5.94.7,23.27,23.27,0,0,1,2.83.9,14.2,14.2,0,0,1,2.79,1.33,19.68,19.68,0,0,1,4.59,4,32.38,32.38,0,0,1,3.42,4.87,38.18,38.18,0,0,1,2.59,5.38,1.86,1.86,0,0,1-3.47,1.33l0-.06Z"/><path class="cls-89" d="M308.6,261s2.95,10.57,3.35,16.59a71.79,71.79,0,0,1-.3,10.27s4.77,7.82,41.7,18.71c39.62,11.68,48.43,7.73,48.43,7.73s2.61-4.94,5.44-9.41c2.27-3.58,9.63-12.14,9.63-12.14Z"/><ellipse class="cls-2" cx="362.8" cy="276.63" rx="7.98" ry="56.4" transform="translate(-4.75 546.91) rotate(-73.65)"/><path class="cls-83" d="M364.62,270.4c36.58,10.73,49.88,19.46,50.79,21.61l1.52.45c1.07-4.26-22.09-14.75-51.88-23.49s-55-12.42-56.36-8.26l1.51.44C312.14,259.84,328.05,259.68,364.62,270.4Z"/><path class="cls-89" d="M319.28,242.87s2.37,14.19,2.47,17.57-.2,14.36-.2,14.36S323,283,356.89,292.94c35.49,10.45,41.59,4.43,41.59,4.43s5.74-9.46,7.54-12.07c1.94-2.81,11.65-13.57,11.65-13.57Z"/><ellipse class="cls-2" cx="368.52" cy="257.15" rx="7.26" ry="51.27" transform="translate(18.05 538.41) rotate(-73.65)"/><path class="cls-83" d="M320.87,243.17c.69-.34,3.79-1.27,15.4.53a279.11,279.11,0,0,1,33.87,7.93,279.43,279.43,0,0,1,32.79,11.62c10.74,4.76,12.85,7.22,13.25,7.88l-.18.07,1.66.49a.6.6,0,0,0,.06-.11c1.13-3.85-20-13.42-47.15-21.39s-50.12-11.31-51.25-7.47c0,0,0,.08,0,.12l1.66.49A1,1,0,0,1,320.87,243.17Z"/><line class="cls-90" x1="371.66" y1="245.74" x2="366.34" y2="263.84"/><ellipse class="cls-91" cx="372.95" cy="241.35" rx="16.42" ry="16.4"/><path class="cls-83" d="M415.41,292l0,.06c-1.73,1.34-17.61,1.59-54.47-9.22s-50.09-19.6-50.82-21.67l.05,0-1.51-.44a.05.05,0,0,1,0,0c-1.24,4.23,22,14.77,51.87,23.53s55.14,12.45,56.38,8.22a.06.06,0,0,1,0,0Z"/><path class="cls-83" d="M416,271.2c-1,.38-4.4,1.08-15.23-.6a279.11,279.11,0,0,1-33.87-7.93,279.43,279.43,0,0,1-32.79-11.62c-10-4.44-12.52-6.88-13.14-7.72l-1.66-.49c-.67,3.92,20.27,13.38,47.16,21.27s49.63,11.24,51.19,7.58Z"/><path class="cls-78" d="M332.42,557.54l-1.08-13.06-73.83-.38s-3.39,3.95-2.89,11.29C255.14,563.09,259,566,259,566Z"/><ellipse class="cls-2" cx="333.44" cy="556.94" rx="4.7" ry="4.69"/><path class="cls-82" d="M349.14,563.26a10.85,10.85,0,0,1,.07,7.86l-18-9.56a5.23,5.23,0,0,1-.23-6.07,4.87,4.87,0,0,1,4.93-2.77l7.32,4.51S348.1,560.44,349.14,563.26Z"/><path class="cls-84" d="M333,553.33h.08l7.32,4.51s4.88,3.22,5.93,6a11.46,11.46,0,0,1,.58,6l2.3,1.21a10.85,10.85,0,0,0-.07-7.86c-1-2.82-5.93-6-5.93-6l-7.32-4.51A4.57,4.57,0,0,0,333,553.33Z"/><g class="cls-92"><polygon class="cls-78" points="312.81 552.56 330.11 573.53 349.55 554.31 349.07 539.82 320.66 541.68 312.81 552.56"/><path class="cls-82" d="M312.28,555.92l9.52,9.79s7.79-6.14,9.25-12a20.8,20.8,0,0,0-1-11.65l-11.22,2.2Z"/></g><path class="cls-2" d="M341.55,558.3a36.15,36.15,0,0,0,4.6-9.15c1.85-6,1.12-6.74,1.12-6.74s1.63-.28,2.2.5-.3,5.3-.6,6.27-5.18,9.59-5.18,9.59Z"/><path class="cls-78" d="M343,557.39s-4-1.58-5.47,1.47c-1.27,2.64,1.77,4.58,1.77,4.58l11.84,4s4.11,6.37,8.2,4.37L356,562.92Z"/><path class="cls-82" d="M348.88,542.45l11.08,7.2,2.46,12.85-3,9.31L356,562.92l-13-5.53a29.77,29.77,0,0,0,5.37-8.72C349.08,546.85,349.44,544.06,348.88,542.45Z"/><polygon class="cls-84" points="359.96 549.65 356.01 562.92 359.38 571.81 362.43 562.5 359.96 549.65"/><ellipse class="cls-2" cx="340.92" cy="560.36" rx="2.66" ry="3.06" transform="translate(-237.54 869.58) rotate(-86.81)"/></g></g></g></g></svg>