<svg xmlns="http://www.w3.org/2000/svg" xmlns:xlink="http://www.w3.org/1999/xlink" viewBox="0 0 961.95 1000"><defs><style>.cls-1,.cls-88,.cls-92{fill:none;}.cls-2{fill:#694e81;}.cls-3{isolation:isolate;}.cls-4,.cls-5,.cls-6{mix-blend-mode:multiply;}.cls-4{fill:url(#radial-gradient);}.cls-5{opacity:0.5;fill:url(#radial-gradient-2);}.cls-6{fill:url(#radial-gradient-3);}.cls-7{fill:#999;}.cls-8{fill:#9a9a9a;}.cls-9{fill:#9b9b9b;}.cls-10{fill:#9c9c9c;}.cls-11{fill:#9d9d9d;}.cls-12{fill:#9e9e9e;}.cls-13{fill:#9f9f9f;}.cls-14{fill:#a0a0a0;}.cls-15{fill:#a1a1a1;}.cls-16{fill:#a2a2a2;}.cls-17{fill:#a3a3a3;}.cls-18{fill:#a4a4a4;}.cls-19{fill:#a5a5a5;}.cls-20{fill:#a6a6a6;}.cls-21{fill:#a7a7a7;}.cls-22{fill:#a8a8a8;}.cls-23{fill:#a9a9a9;}.cls-24{fill:#aaa;}.cls-25{fill:#ababab;}.cls-26{fill:#acacac;}.cls-27{fill:#adadad;}.cls-28{fill:#aeaeae;}.cls-29{fill:#afafaf;}.cls-30{fill:#b0b0b0;}.cls-31{fill:#b1b1b1;}.cls-32{fill:#b2b2b2;}.cls-33{fill:#b3b3b3;}.cls-34{fill:#b4b4b4;}.cls-35{fill:#b5b5b5;}.cls-36{fill:#b6b6b6;}.cls-37{fill:#b7b7b7;}.cls-38{fill:#b8b8b8;}.cls-39{fill:#b9b9b9;}.cls-40{fill:#bababa;}.cls-41{fill:#bbb;}.cls-42{fill:#bcbcbc;}.cls-43{fill:#bdbdbd;}.cls-44{fill:#bebebe;}.cls-45{fill:#bfbfbf;}.cls-46{fill:silver;}.cls-47{fill:#c1c1c1;}.cls-48{fill:#c2c2c2;}.cls-49{fill:#c3c3c3;}.cls-50{fill:#c4c4c4;}.cls-51{fill:#c5c5c5;}.cls-52{fill:#c6c6c6;}.cls-53{fill:#c7c7c7;}.cls-54{fill:#c8c8c8;}.cls-55{fill:#c9c9c9;}.cls-56{fill:#cacaca;}.cls-57{fill:#cbcbcb;}.cls-58{fill:#ccc;}.cls-59{fill:url(#radial-gradient-4);}.cls-60{fill:url(#radial-gradient-5);}.cls-61{fill:url(#radial-gradient-6);}.cls-62{fill:url(#linear-gradient);}.cls-63{fill:url(#linear-gradient-2);}.cls-64{fill:url(#radial-gradient-7);}.cls-65{fill:url(#radial-gradient-8);}.cls-66{fill:url(#linear-gradient-3);}.cls-67{fill:url(#linear-gradient-4);}.cls-68{fill:url(#radial-gradient-9);}.cls-69{opacity:0.8;fill:url(#radial-gradient-10);}.cls-70,.cls-71{opacity:0.6;}.cls-70{fill:url(#radial-gradient-11);}.cls-71{fill:url(#radial-gradient-12);}.cls-72{fill:url(#radial-gradient-13);}.cls-73{fill:url(#radial-gradient-14);}.cls-74{fill:url(#radial-gradient-15);}.cls-75{fill:url(#radial-gradient-16);}.cls-76{fill:#87bd40;}.cls-77{fill:#ffdd0f;}.cls-78{fill:#36954a;}.cls-79{fill:#917a2e;}.cls-80{fill:#f2d42e;}.cls-81{fill:#3f3368;}.cls-82{fill:#8a96aa;}.cls-83{clip-path:url(#clip-path);}.cls-84{fill:#d7b828;}.cls-85{fill:#f1d32e;}.cls-86{fill:#b49530;}.cls-87{clip-path:url(#clip-path-2);}.cls-88{stroke:#c5e5f8;stroke-width:1.25px;}.cls-88,.cls-92{stroke-miterlimit:10;}.cls-89{clip-path:url(#clip-path-3);}.cls-90{fill:#c5e5f8;}.cls-91{fill:#d6b728;}.cls-92{stroke:#929497;stroke-width:3px;}.cls-93{fill:#572b7e;}.cls-94{clip-path:url(#clip-path-4);}</style><radialGradient id="radial-gradient" cx="569.35" cy="1736.8" r="397.11" gradientTransform="translate(-176.43 -121.36) scale(1.11 0.53)" gradientUnits="userSpaceOnUse"><stop offset="0" stop-color="#4c4c4c"/><stop offset="0.16" stop-color="#4c4c4c" stop-opacity="0.75"/><stop offset="0.46" stop-color="#4c4c4c" stop-opacity="0.34"/><stop offset="0.72" stop-color="#4c4c4c" stop-opacity="0.09"/><stop offset="0.9" stop-color="#4c4c4c" stop-opacity="0"/></radialGradient><radialGradient id="radial-gradient-2" cx="638.98" cy="3272.65" r="260.06" gradientTransform="translate(-491.32 -484.41) scale(1.32 0.41)" gradientUnits="userSpaceOnUse"><stop offset="0.6" stop-color="#262626"/><stop offset="0.61" stop-color="#262626" stop-opacity="0.92"/><stop offset="0.67" stop-color="#262626" stop-opacity="0.41"/><stop offset="0.73" stop-color="#262626" stop-opacity="0.1"/><stop offset="0.8" stop-color="#262626" stop-opacity="0"/></radialGradient><radialGradient id="radial-gradient-3" cx="513.18" cy="3384.98" r="260.06" gradientTransform="translate(-261.47 -474.36) scale(1.21 0.39)" xlink:href="#radial-gradient-2"/><radialGradient id="radial-gradient-4" cx="158.97" cy="3666.69" r="243.78" gradientTransform="matrix(0.65, -0.2, 0.02, 0.05, 478.05, 86.36)" gradientUnits="userSpaceOnUse"><stop offset="0" stop-color="#fff"/><stop offset="0.27" stop-color="#fff" stop-opacity="0.67"/><stop offset="0.53" stop-color="#fff" stop-opacity="0.39"/><stop offset="0.75" stop-color="#fff" stop-opacity="0.18"/><stop offset="0.91" stop-color="#fff" stop-opacity="0.05"/><stop offset="1" stop-color="#fff" stop-opacity="0"/></radialGradient><radialGradient id="radial-gradient-5" cx="2788.12" cy="4252.5" r="269.16" gradientTransform="matrix(-0.98, 0.69, -0.03, -0.04, 3466.04, -1040.9)" gradientUnits="userSpaceOnUse"><stop offset="0" stop-color="#ebebeb"/><stop offset="0.23" stop-color="#ebebeb" stop-opacity="0.73"/><stop offset="0.5" stop-color="#ebebeb" stop-opacity="0.42"/><stop offset="0.73" stop-color="#ebebeb" stop-opacity="0.19"/><stop offset="0.91" stop-color="#ebebeb" stop-opacity="0.05"/><stop offset="1" stop-color="#ebebeb" stop-opacity="0"/></radialGradient><radialGradient id="radial-gradient-6" cx="2558.59" cy="15970.47" r="243.9" gradientTransform="matrix(0.11, 0.28, -0.06, 0.02, 1693.22, -822.1)" gradientUnits="userSpaceOnUse"><stop offset="0" stop-color="#fff"/><stop offset="0.06" stop-color="#fff" stop-opacity="0.87"/><stop offset="0.16" stop-color="#fff" stop-opacity="0.67"/><stop offset="0.26" stop-color="#fff" stop-opacity="0.49"/><stop offset="0.37" stop-color="#fff" stop-opacity="0.34"/><stop offset="0.48" stop-color="#fff" stop-opacity="0.22"/><stop offset="0.59" stop-color="#fff" stop-opacity="0.12"/><stop offset="0.71" stop-color="#fff" stop-opacity="0.05"/><stop offset="0.84" stop-color="#fff" stop-opacity="0.01"/><stop offset="1" stop-color="#fff" stop-opacity="0"/></radialGradient><linearGradient id="linear-gradient" y1="456.62" x2="704.85" y2="456.62" gradientUnits="userSpaceOnUse"><stop offset="0.4" stop-color="#ebebeb"/><stop offset="0.6" stop-color="#d7d7d7"/><stop offset="1" stop-color="#a6a6a6"/></linearGradient><linearGradient id="linear-gradient-2" x1="709.53" y1="688.16" x2="-27.48" y2="71.2" gradientUnits="userSpaceOnUse"><stop offset="0.05" stop-color="gray"/><stop offset="0.1" stop-color="gray" stop-opacity="0.78"/><stop offset="0.17" stop-color="gray" stop-opacity="0.5"/><stop offset="0.24" stop-color="gray" stop-opacity="0.28"/><stop offset="0.31" stop-color="gray" stop-opacity="0.12"/><stop offset="0.38" stop-color="gray" stop-opacity="0.03"/><stop offset="0.45" stop-color="gray" stop-opacity="0"/></linearGradient><radialGradient id="radial-gradient-7" cx="551.46" cy="414.75" r="261.67" gradientTransform="translate(654.37 -133.69) rotate(91.84) scale(1 0.21)" gradientUnits="userSpaceOnUse"><stop offset="0" stop-color="#b2b2b2"/><stop offset="0.06" stop-color="#b2b2b2" stop-opacity="0.92"/><stop offset="0.63" stop-color="#b2b2b2" stop-opacity="0.26"/><stop offset="0.88" stop-color="#b2b2b2" stop-opacity="0"/></radialGradient><radialGradient id="radial-gradient-8" cx="354.75" cy="47.28" r="414.76" gradientTransform="matrix(1, 0.01, 0, 0.11, 0.05, 39.16)" gradientUnits="userSpaceOnUse"><stop offset="0" stop-color="#fff" stop-opacity="0"/><stop offset="0.14" stop-color="#fff" stop-opacity="0.01"/><stop offset="0.22" stop-color="#fff" stop-opacity="0.04"/><stop offset="0.29" stop-color="#fff" stop-opacity="0.1"/><stop offset="0.35" stop-color="#fff" stop-opacity="0.18"/><stop offset="0.41" stop-color="#fff" stop-opacity="0.28"/><stop offset="0.46" stop-color="#fff" stop-opacity="0.41"/><stop offset="0.49" stop-color="#fff" stop-opacity="0.5"/><stop offset="0.53" stop-color="#fff" stop-opacity="0.71"/><stop offset="0.56" stop-color="#fff" stop-opacity="0.87"/><stop offset="0.58" stop-color="#fff" stop-opacity="0.96"/><stop offset="0.6" stop-color="#fff"/><stop offset="0.62" stop-color="#fff" stop-opacity="0.98"/><stop offset="0.65" stop-color="#fff" stop-opacity="0.91"/><stop offset="0.68" stop-color="#fff" stop-opacity="0.79"/><stop offset="0.72" stop-color="#fff" stop-opacity="0.63"/><stop offset="0.76" stop-color="#fff" stop-opacity="0.43"/><stop offset="0.8" stop-color="#fff" stop-opacity="0.18"/><stop offset="0.83" stop-color="#fff" stop-opacity="0"/></radialGradient><linearGradient id="linear-gradient-3" x1="192.87" y1="-126.44" x2="267.38" y2="-48.58" gradientUnits="userSpaceOnUse"><stop offset="0" stop-color="#d9d9d9"/><stop offset="0.06" stop-color="#dcdcdc"/><stop offset="0.33" stop-color="#e9e9e9"/><stop offset="0.6" stop-color="#ededed"/></linearGradient><linearGradient id="linear-gradient-4" x1="10.73" y1="39.02" x2="696.08" y2="39.02" gradientUnits="userSpaceOnUse"><stop offset="0" stop-color="#a6a6a6"/><stop offset="0.11" stop-color="#b3b3b3"/><stop offset="0.54" stop-color="#e6e6e6"/><stop offset="0.76" stop-color="#fafafa"/></linearGradient><radialGradient id="radial-gradient-9" cx="356.6" cy="1538.18" r="1348.55" gradientTransform="translate(0 -134.34) scale(1 0.49)" gradientUnits="userSpaceOnUse"><stop offset="0.85" stop-color="gray" stop-opacity="0.3"/><stop offset="0.87" stop-color="#969696" stop-opacity="0.43"/><stop offset="0.91" stop-color="#ccc" stop-opacity="0.75"/><stop offset="0.94" stop-color="#f7f7f7"/></radialGradient><radialGradient id="radial-gradient-10" cx="644.88" cy="597.56" fx="756.5644110741348" fy="792.4150651452887" r="547" gradientTransform="translate(551.34 1236.26) rotate(-84.22) scale(1 0.05)" gradientUnits="userSpaceOnUse"><stop offset="0" stop-color="#bfbfbf"/><stop offset="0.21" stop-color="#bfbfbf" stop-opacity="0.74"/><stop offset="0.48" stop-color="#bfbfbf" stop-opacity="0.42"/><stop offset="0.71" stop-color="#bfbfbf" stop-opacity="0.19"/><stop offset="0.89" stop-color="#bfbfbf" stop-opacity="0.05"/><stop offset="1" stop-color="#bfbfbf" stop-opacity="0"/></radialGradient><radialGradient id="radial-gradient-11" cx="645.12" cy="665.95" r="63.13" gradientUnits="userSpaceOnUse"><stop offset="0" stop-color="#f2f2f2"/><stop offset="0.14" stop-color="#f2f2f2" stop-opacity="0.77"/><stop offset="0.31" stop-color="#f2f2f2" stop-opacity="0.54"/><stop offset="0.47" stop-color="#f2f2f2" stop-opacity="0.35"/><stop offset="0.63" stop-color="#f2f2f2" stop-opacity="0.2"/><stop offset="0.77" stop-color="#f2f2f2" stop-opacity="0.09"/><stop offset="0.9" stop-color="#f2f2f2" stop-opacity="0.02"/><stop offset="1" stop-color="#f2f2f2" stop-opacity="0"/></radialGradient><radialGradient id="radial-gradient-12" cx="697.93" cy="206.29" r="69.34" gradientUnits="userSpaceOnUse"><stop offset="0" stop-color="#fff"/><stop offset="0.17" stop-color="#fff" stop-opacity="0.74"/><stop offset="0.33" stop-color="#fff" stop-opacity="0.51"/><stop offset="0.49" stop-color="#fff" stop-opacity="0.33"/><stop offset="0.64" stop-color="#fff" stop-opacity="0.19"/><stop offset="0.78" stop-color="#fff" stop-opacity="0.08"/><stop offset="0.9" stop-color="#fff" stop-opacity="0.02"/><stop offset="1" stop-color="#fff" stop-opacity="0"/></radialGradient><radialGradient id="radial-gradient-13" cx="825.92" cy="3166.93" r="156.89" gradientTransform="translate(-868.17 -320.39) scale(1.55 0.11)" gradientUnits="userSpaceOnUse"><stop offset="0.15" stop-color="#ededed"/><stop offset="0.18" stop-color="#ededed" stop-opacity="0.93"/><stop offset="0.31" stop-color="#ededed" stop-opacity="0.69"/><stop offset="0.43" stop-color="#ededed" stop-opacity="0.48"/><stop offset="0.56" stop-color="#ededed" stop-opacity="0.31"/><stop offset="0.68" stop-color="#ededed" stop-opacity="0.17"/><stop offset="0.79" stop-color="#ededed" stop-opacity="0.08"/><stop offset="0.9" stop-color="#ededed" stop-opacity="0.02"/><stop offset="1" stop-color="#ededed" stop-opacity="0"/></radialGradient><radialGradient id="radial-gradient-14" cx="487.85" cy="3.91" r="152.71" gradientTransform="translate(2.74 -47.76) rotate(5.79) scale(1 0.63)" gradientUnits="userSpaceOnUse"><stop offset="0.2" stop-color="#fff" stop-opacity="0.6"/><stop offset="0.49" stop-color="#fff" stop-opacity="0.33"/><stop offset="0.77" stop-color="#fff" stop-opacity="0.09"/><stop offset="0.9" stop-color="#fff" stop-opacity="0"/></radialGradient><radialGradient id="radial-gradient-15" cx="-713.03" cy="10177.81" r="313.87" gradientTransform="matrix(0.46, 0.04, -0.01, 0.07, 843.32, -628.9)" gradientUnits="userSpaceOnUse"><stop offset="0" stop-color="#fff" stop-opacity="0.8"/><stop offset="0.08" stop-color="#fff" stop-opacity="0.66"/><stop offset="0.19" stop-color="#fff" stop-opacity="0.49"/><stop offset="0.31" stop-color="#fff" stop-opacity="0.34"/><stop offset="0.43" stop-color="#fff" stop-opacity="0.22"/><stop offset="0.55" stop-color="#fff" stop-opacity="0.12"/><stop offset="0.68" stop-color="#fff" stop-opacity="0.05"/><stop offset="0.83" stop-color="#fff" stop-opacity="0.01"/><stop offset="1" stop-color="#fff" stop-opacity="0"/></radialGradient><radialGradient id="radial-gradient-16" cx="-3135.88" cy="9206.62" r="243.9" gradientTransform="matrix(0.1, 1.13, -0.19, 0.02, 2147.14, 3739.78)" xlink:href="#radial-gradient-6"/><clipPath id="clip-path"><path class="cls-1" d="M376.84,417.71c-6.72,19.22-30.61,20.63-46,16.54-14.26-3.79-4.14-15.24-.16-18.89-19.74,5.14-24.89,11.27-24.89,11.27s-26.37,40.76-23.38,82c0,0,14.43,63.38,20.4,67.85.34.26.75.61,1.23,1,1.3-.64,2.41-1.95,2.75-4.51,1-7.45-.77-22.12,13.93-21.12s15.43,19.88,31.36,26.84,22.89,3,31.85-2.49c0,0,17.41-41.25,19.4-82C405.18,456.79,415,430.26,376.84,417.71Z"/></clipPath><clipPath id="clip-path-2"><polygon class="cls-2" points="335.4 509.82 293.77 502.87 300.38 473.14 343.2 477.03 335.4 509.82"/></clipPath><clipPath id="clip-path-3"><path class="cls-1" d="M296.58,431.94l-6.5-24.88s-.28-2.11.41-2.63c1.67-1.27,6.28-1.3,14.43,1.89,11.53,4.5,17,15.94,17,15.94l-12.52,16.23Z"/></clipPath><clipPath id="clip-path-4"><path class="cls-1" d="M325.32,544l22.09-1.86s2,0,2.38.75c.92,1.72.29,6-3.81,13-2.1,3.6,0,7.51-3.64,8-9.93,1.4-23.94-4.82-23.94-4.82s-3.66-4.69-1.4-10.07C319.17,543.84,325.32,544,325.32,544Z"/></clipPath></defs><g class="cls-3"><g id="shadow"><g id="shadow-2" data-name="shadow"><ellipse class="cls-4" cx="453.68" cy="791.32" rx="439.49" ry="208.68"/><ellipse class="cls-5" cx="351.1" cy="849" rx="342.87" ry="105.95"/><ellipse class="cls-6" cx="360.09" cy="849.78" rx="314.99" ry="101.73"/></g></g><g id="merchandise"><g id="mug"><g id="handle"><g id="handle-2" data-name="handle"><path class="cls-7" d="M961.56,314.93a138.7,138.7,0,0,0-21.68-69.07,138.7,138.7,0,0,0-101.65-63.34c-.91-.1-1.82-.15-2.74-.23l-1.08-.15c-35.91-4-68.39-.87-93-5.2-12.58-2.21-23.12-6.37-31-14.41-6-6.05-13.71-21.41-13.71-21.41l-7.47,58.47L679,278.81a141.09,141.09,0,0,1,44.57-33.73,143.5,143.5,0,0,1,45.06-12.84c35.76-4.24,70.78,4.13,96,15.58a81,81,0,0,1,10.17,5.08A81.88,81.88,0,0,1,909.94,295a80.55,80.55,0,0,1,4.83,22.64c2.12,19.9-1.08,40.37-8.27,60.87C885.24,439.1,829.05,499.89,772.26,546.4s-114.19,78.75-137.89,82.29l-11.64,91.23c13.14-7.5,41.67-25,76.89-50s77.1-57.32,117-94.53C896.29,501,967.86,407.25,961.56,314.93Z"/><path class="cls-8" d="M696.66,141.16s6.39,12.71,12,19.55c.57.68,1.12,1.3,1.67,1.85,7.53,7.64,17.45,11.77,29.23,14.05.6.12,1.2.23,1.81.33,24.64,4.33,57.13,1,93,5.2l1.08.15c.92.1,1.83.13,2.74.23A139,139,0,0,1,959.51,296a155.49,155.49,0,0,1,2,18.92c1.88,35.21-6.51,70.56-22.86,105-26.58,55.88-72.77,109.24-121.91,155.12-33.4,31.19-68.48,59.15-99.85,82.2q-8.85,6.5-17.25,12.45c-35.16,24.92-63.71,42.51-77,50.08l1.62-12.67,1.21-9.36c0-.15,9.09-68.27,9.67-68.64,6-1,14-3.69,23.67-8,28.88-12.93,71.65-39.75,114-74.5,9.16-7.51,18.29-15.4,27.26-23.59,46.5-42.48,88.89-93.44,106.82-144.33,7.2-20.47,10.45-40.92,8.41-60.81a81.29,81.29,0,0,0-4.72-22.64q-1.29-3.56-2.9-7A81.87,81.87,0,0,0,875.94,253a91.08,91.08,0,0,0-10.09-5.15A199.4,199.4,0,0,0,827.42,235c-4.52-1-9.16-1.83-13.89-2.5a174.46,174.46,0,0,0-43.37-.79A148.84,148.84,0,0,0,747,236.14a139.81,139.81,0,0,0-21.9,8.05,141.57,141.57,0,0,0-44.76,33.11c-.45.05,7-61.61,6.74-61.46l2.07-16.25Z"/><path class="cls-9" d="M696.69,141.21s6.39,12.71,12,19.53c.56.68,1.12,1.31,1.66,1.86,7.54,7.62,17.45,11.74,29.24,14l1.8.33c24.64,4.31,57.11,1,93,5.19l1.08.15c.92.1,1.83.13,2.74.23A139,139,0,0,1,959.51,296a155.49,155.49,0,0,1,2,18.92c1.88,35.16-6.49,70.47-22.8,104.87C912.18,475.67,866,529,817,574.7c-33.28,31.07-68.47,59.12-100,82.29q-8.85,6.5-17.26,12.47c-35.1,24.91-63.68,42.55-77,50.21L624.37,707l1.23-9.35c0-.29,9.35-67.35,10.52-68.1,6-1,14-3.79,23.61-8.09,28.95-13.1,71.64-39.92,113.84-74.6,9.14-7.52,18.26-15.41,27.2-23.61,46.3-42.4,88.68-93.36,106.7-144.31C914.7,358.5,918,338.07,916,318.2a81.68,81.68,0,0,0-4.62-22.65q-1.26-3.56-2.85-7a82,82,0,0,0-31.49-35.47,91.31,91.31,0,0,0-10-5.23,194.71,194.71,0,0,0-38.25-13.12c-4.51-1-9.14-1.89-13.86-2.58a176.44,176.44,0,0,0-43.3-1,152.19,152.19,0,0,0-23.15,4.28,140.74,140.74,0,0,0-66.87,40.36c-.89.1,6-60.26,5.45-60l2.07-16.24Z"/><path class="cls-10" d="M696.73,141.25s6.38,12.72,12,19.53c.56.68,1.12,1.3,1.66,1.85,7.55,7.61,17.46,11.73,29.24,14l1.8.34c24.64,4.3,57.1,1,92.94,5.18l1.08.15c.92.1,1.83.13,2.74.23A139,139,0,0,1,959.51,296a155.49,155.49,0,0,1,2,18.92c1.88,35.12-6.46,70.38-22.74,104.74C912.24,475.51,866,528.75,817.22,574.34c-33.15,30.95-68.44,59.09-100.11,82.38-5.9,4.34-11.68,8.51-17.29,12.49-35,24.89-63.63,42.59-77,50.33l1.61-12.65,1.25-9.35c0-.44,9.6-66.43,11.36-67.56,6-1.08,14-3.88,23.54-8.2,29-13.26,71.64-40.07,113.68-74.69,9.13-7.53,18.23-15.43,27.16-23.64,46.08-42.32,88.46-93.27,106.58-144.28,7.24-20.41,10.58-40.82,8.7-60.68a82.3,82.3,0,0,0-4.51-22.64c-.83-2.37-1.77-4.7-2.8-7a82.1,82.1,0,0,0-31.15-35.65,91.49,91.49,0,0,0-9.93-5.31,191.26,191.26,0,0,0-38.07-13.38c-4.49-1-9.11-1.93-13.83-2.64a178,178,0,0,0-43.24-1.29A152,152,0,0,0,750,234.73a141.57,141.57,0,0,0-67.07,39.56c-1.34.14,5-58.91,4.15-58.46l2.07-16.24Z"/><path class="cls-11" d="M696.76,141.3s6.37,12.72,12,19.52c.56.67,1.12,1.29,1.67,1.84,7.54,7.6,17.46,11.71,29.24,14q.88.18,1.8.33c24.63,4.3,57.07,1,92.9,5.18l1.08.15c.92.1,1.83.13,2.74.23A139,139,0,0,1,959.51,296a155.49,155.49,0,0,1,2,18.92c1.88,35.07-6.44,70.29-22.68,104.6C912.3,475.36,866.1,528.54,817.43,574c-33,30.83-68.42,59-100.24,82.47Q708.34,663,699.89,669c-35,24.87-63.59,42.64-77.1,50.45l1.61-12.64,1.27-9.34c.06-.58,9.86-65.51,12.2-67,6-1.14,14-4,23.48-8.3,29.14-13.36,71.64-40.24,113.52-74.79,9.12-7.54,18.21-15.44,27.12-23.66,45.87-42.24,88.24-93.19,106.46-144.26,7.25-20.38,10.64-40.77,8.84-60.62a83.47,83.47,0,0,0-4.4-22.64c-.82-2.37-1.74-4.7-2.76-7a82.35,82.35,0,0,0-30.79-35.83,93.75,93.75,0,0,0-9.86-5.39,187.55,187.55,0,0,0-37.89-13.64c-4.48-1.07-9.09-2-13.79-2.71a178,178,0,0,0-43.18-1.53,150.28,150.28,0,0,0-23.12,4,145.89,145.89,0,0,0-22,7.49,144,144,0,0,0-45.33,31.27c-1.78.19,4-57.56,2.86-56.95l2.07-16.24Z"/><path class="cls-12" d="M696.8,141.34s6.36,12.73,12,19.51c.57.68,1.12,1.29,1.67,1.84,7.55,7.59,17.46,11.69,29.24,13.95l1.8.33c24.63,4.28,57.06,1,92.87,5.17l1.08.15c.92.1,1.83.13,2.74.23A139,139,0,0,1,959.51,296a155.49,155.49,0,0,1,2,18.92c1.87,35-6.42,70.19-22.61,104.47-26.6,55.81-72.8,108.93-121.3,154.22-32.9,30.71-68.4,59-100.37,82.56q-8.87,6.52-17.32,12.53c-34.92,24.85-63.55,42.68-77.15,50.58l1.61-12.64,1.28-9.33c.08-.73,10.12-64.59,13-66.48,6-1.21,14-4.05,23.41-8.4,29.22-13.51,71.64-40.4,113.36-74.9,9.11-7.54,18.19-15.45,27.07-23.67,45.66-42.16,88-93.11,106.34-144.23,7.28-20.36,10.71-40.73,9-60.57a83.68,83.68,0,0,0-4.3-22.63c-.8-2.38-1.71-4.71-2.71-7a82.88,82.88,0,0,0-16-24,82,82,0,0,0-14.47-12,93.06,93.06,0,0,0-9.78-5.46A183.19,183.19,0,0,0,833,234.08c-4.47-1.09-9.07-2-13.76-2.78a179.93,179.93,0,0,0-43.11-1.78,148.63,148.63,0,0,0-23.11,3.8,147.12,147.12,0,0,0-22,7.29,144.79,144.79,0,0,0-45.52,30.67c-2.23.24,2.94-56.21,1.56-55.46l2.07-16.23Z"/><path class="cls-13" d="M696.83,141.39s6.35,12.73,12,19.5c.57.67,1.13,1.29,1.67,1.84,7.56,7.57,17.47,11.66,29.25,13.91q.88.18,1.8.33c24.62,4.28,57,1,92.83,5.17l1.08.15c.92.1,1.83.13,2.74.23A139,139,0,0,1,959.51,296a155.49,155.49,0,0,1,2,18.92c1.87,35-6.4,70.1-22.55,104.33-26.6,55.79-72.8,108.85-121.15,154-32.77,30.6-68.38,59-100.5,82.66q-8.86,6.54-17.33,12.56c-34.87,24.82-63.52,42.72-77.21,50.69l1.61-12.63,1.3-9.32c.1-.87,10.38-63.68,13.89-65.94,6-1.27,14-4.14,23.36-8.51,29.3-13.65,71.63-40.56,113.19-75,9.11-7.55,18.16-15.47,27-23.69C848.64,482,891,431,909.42,379.87c7.29-20.33,10.77-40.68,9.13-60.51a84.89,84.89,0,0,0-4.19-22.63c-.79-2.37-1.68-4.71-2.67-7a83,83,0,0,0-15.76-24.06,82,82,0,0,0-14.33-12.12,91.46,91.46,0,0,0-9.7-5.54,179.24,179.24,0,0,0-37.53-14.16c-4.46-1.12-9-2.08-13.73-2.86a180.83,180.83,0,0,0-43-2,148.21,148.21,0,0,0-45.08,10.74,145.71,145.71,0,0,0-45.7,30c-2.68.29,1.91-54.86.26-53.95l2.07-16.23Z"/><path class="cls-14" d="M696.87,141.43s6.34,12.75,12,19.49c.56.67,1.12,1.29,1.67,1.84,7.55,7.56,17.47,11.64,29.24,13.89l1.8.33c24.61,4.27,57,1,92.8,5.16l1.08.15c.92.1,1.83.13,2.74.23A139,139,0,0,1,959.51,296a155.49,155.49,0,0,1,2,18.92c1.87,34.94-6.38,70-22.49,104.2-26.6,55.77-72.81,108.77-121,153.76-32.64,30.48-68.35,59-100.62,82.75q-8.88,6.54-17.35,12.58C665.29,693,636.62,711,622.84,719l1.61-12.63,1.31-9.31c.11-1,10.64-62.76,14.74-65.4,6-1.33,14-4.23,23.29-8.61,29.38-13.81,71.63-40.73,113-75.09,9.09-7.56,18.13-15.48,27-23.71,45.24-42,87.61-93,106.1-144.19,7.31-20.3,10.84-40.63,9.28-60.45A85,85,0,0,0,915.09,297c-.77-2.37-1.65-4.7-2.62-7a83.53,83.53,0,0,0-15.54-24.14,82.47,82.47,0,0,0-14.19-12.22,93.84,93.84,0,0,0-9.63-5.62,175.59,175.59,0,0,0-37.35-14.42c-4.44-1.14-9-2.13-13.7-2.93a182.7,182.7,0,0,0-43-2.26A147.83,147.83,0,0,0,756,231.91a149.52,149.52,0,0,0-22,6.92,146.53,146.53,0,0,0-45.9,29.44c-3.12.33.9-53.51-1-52.46l2.07-16.22Z"/><path class="cls-15" d="M696.9,141.47s6.33,12.76,12,19.49c.56.67,1.12,1.28,1.67,1.83,7.56,7.55,17.47,11.62,29.24,13.87l1.8.32c24.61,4.27,57,1,92.77,5.16l1.08.15c.92.1,1.83.13,2.74.23A139,139,0,0,1,959.51,296a155.49,155.49,0,0,1,2,18.92c1.87,34.89-6.35,69.92-22.43,104.06-26.6,55.76-72.81,108.7-120.84,153.54-32.52,30.36-68.34,58.92-100.76,82.84q-8.88,6.55-17.36,12.6c-34.75,24.79-63.44,42.8-77.31,50.94l1.61-12.62,1.33-9.3c.12-1.16,10.89-61.84,15.58-64.86,6-1.4,14-4.32,23.22-8.71,29.46-14,71.62-40.89,112.88-75.19,9.08-7.57,18.1-15.5,26.93-23.73,45-41.93,87.39-92.88,106-144.17,7.33-20.27,10.9-40.58,9.42-60.38a86.06,86.06,0,0,0-4-22.63q-1.14-3.57-2.57-7a83.93,83.93,0,0,0-15.34-24.22,82.53,82.53,0,0,0-14-12.32,95.13,95.13,0,0,0-9.55-5.7,173,173,0,0,0-37.17-14.68c-4.43-1.17-9-2.19-13.67-3a182.46,182.46,0,0,0-42.91-2.51,150.13,150.13,0,0,0-45.08,10,147.93,147.93,0,0,0-46.08,28.83c-3.57.38-.13-52.16-2.32-50.95l2.07-16.22Z"/><path class="cls-16" d="M696.94,141.52s6.32,12.76,12,19.47c.56.67,1.13,1.29,1.68,1.83,7.56,7.53,17.47,11.6,29.24,13.84q.89.18,1.8.33c24.6,4.25,57,1,92.73,5.15l1.08.15c.92.1,1.83.13,2.74.23A139,139,0,0,1,959.51,296a155.49,155.49,0,0,1,2,18.92c1.86,34.84-6.33,69.82-22.37,103.93-26.6,55.74-72.81,108.61-120.69,153.31-32.39,30.25-68.31,58.89-100.88,82.93-5.92,4.37-11.73,8.59-17.38,12.62-34.7,24.77-63.4,42.85-77.37,51.07l1.61-12.62,1.35-9.29C626,695.57,637,636,642.25,632.56c6-1.46,14-4.41,23.16-8.82,29.55-14.11,71.62-41,112.72-75.28,9.07-7.58,18.08-15.51,26.88-23.75,44.82-41.85,87.18-92.8,105.87-144.15,7.34-20.24,11-40.53,9.56-60.32a86.94,86.94,0,0,0-3.87-22.63c-.75-2.38-1.6-4.71-2.53-7a84.27,84.27,0,0,0-15.12-24.3A82.67,82.67,0,0,0,885,253.89a91.6,91.6,0,0,0-9.47-5.77,168.82,168.82,0,0,0-37-14.94c-4.42-1.2-9-2.25-13.63-3.08a183.32,183.32,0,0,0-42.85-2.75A149.94,149.94,0,0,0,759,230.5,152.55,152.55,0,0,0,737,237a148.38,148.38,0,0,0-46.28,28.21c-4,.43-1.14-50.8-3.61-49.44l2.07-16.22Z"/><path class="cls-17" d="M697,141.56s6.32,12.77,12,19.47c.57.66,1.13,1.28,1.68,1.83,7.57,7.51,17.48,11.57,29.24,13.81l1.8.33c24.6,4.24,57,1,92.7,5.14l1.08.15c.92.1,1.83.13,2.74.23A139,139,0,0,1,959.51,296a155.49,155.49,0,0,1,2,18.92c1.86,34.8-6.31,69.73-22.3,103.79-26.61,55.72-72.83,108.54-120.55,153.09-32.27,30.13-68.29,58.85-101,83q-8.88,6.55-17.39,12.64c-34.64,24.74-63.37,42.88-77.42,51.18l1.61-12.6,1.36-9.3c.16-1.45,11.41-60,17.27-63.77a128.45,128.45,0,0,0,23.1-8.92c29.62-14.26,71.61-41.21,112.55-75.38,9.06-7.59,18.06-15.53,26.84-23.77,44.6-41.78,87-92.73,105.74-144.12,7.36-20.22,11-40.49,9.71-60.27a87.7,87.7,0,0,0-3.77-22.62q-1.09-3.57-2.48-7a84.17,84.17,0,0,0-14.91-24.37A82.41,82.41,0,0,0,886.13,254a94,94,0,0,0-9.39-5.85A166,166,0,0,0,839.93,233c-4.41-1.22-9-2.29-13.6-3.15a185.64,185.64,0,0,0-42.78-3,152.08,152.08,0,0,0-23.06,3,154.07,154.07,0,0,0-22,6.36A149.27,149.27,0,0,0,692,263.75c-4.46.48-2.17-49.46-4.91-47.95l2.07-16.21Z"/><path class="cls-18" d="M697,141.61s6.3,12.77,12,19.46c.57.66,1.13,1.27,1.68,1.82,7.57,7.5,17.49,11.55,29.25,13.79l1.8.32c24.59,4.24,57,1,92.66,5.14l1.08.15c.92.1,1.83.13,2.74.23A139,139,0,0,1,959.51,296a155.49,155.49,0,0,1,2,18.92c1.86,34.75-6.29,69.64-22.24,103.66-26.61,55.7-72.83,108.46-120.39,152.86-32.15,30-68.27,58.82-101.14,83.12q-8.89,6.57-17.41,12.66c-34.58,24.72-63.33,42.93-77.48,51.3l1.61-12.59,1.38-9.29c.18-1.59,11.67-59.08,18.12-63.23a131.85,131.85,0,0,0,23-9C696.75,610,738.65,583,779.43,548.91c9.05-7.59,18-15.53,26.79-23.79C850.62,483.43,893,432.48,911.85,381c7.38-20.19,11.09-40.43,9.85-60.21A88.55,88.55,0,0,0,918,298.2c-.72-2.38-1.54-4.72-2.44-7a84.54,84.54,0,0,0-14.69-24.45,83.31,83.31,0,0,0-13.64-12.62,95.47,95.47,0,0,0-9.32-5.93,165.12,165.12,0,0,0-36.63-15.46c-4.4-1.24-8.93-2.34-13.57-3.22A186.85,186.85,0,0,0,785,226.26a150.31,150.31,0,0,0-23,2.83,156.32,156.32,0,0,0-22,6.16,150.9,150.9,0,0,0-46.66,27c-4.9.53-3.18-48.1-6.2-46.44l2.07-16.21Z"/><path class="cls-19" d="M697,141.65s6.3,12.78,12,19.45c.56.66,1.12,1.27,1.68,1.82,7.57,7.49,17.48,11.53,29.24,13.76l1.8.33c24.59,4.23,56.93,1,92.63,5.13l1.08.15c.92.1,1.83.13,2.74.23A139,139,0,0,1,959.51,296a155.49,155.49,0,0,1,2,18.92c1.86,34.71-6.26,69.55-22.18,103.52-26.61,55.69-72.84,108.38-120.24,152.64-32,29.89-68.25,58.79-101.26,83.21Q709,660.87,700.44,667c-34.52,24.7-63.28,43-77.52,51.43l1.61-12.59,1.39-9.28c.19-1.74,11.94-58.16,19-62.69a135.3,135.3,0,0,0,23-9.13c29.79-14.57,71.61-41.54,112.23-75.58,9-7.59,18-15.55,26.75-23.81,44.18-41.61,86.53-92.56,105.51-144.07,7.39-20.16,11.15-40.38,10-60.15a88.9,88.9,0,0,0-3.56-22.61q-1-3.58-2.39-7a85,85,0,0,0-14.48-24.53,83,83,0,0,0-13.5-12.72,95,95,0,0,0-9.24-6,162,162,0,0,0-36.45-15.72c-4.38-1.26-8.91-2.39-13.54-3.28a186.82,186.82,0,0,0-42.64-3.49,151.15,151.15,0,0,0-23,2.66,158.26,158.26,0,0,0-22.06,6,152.15,152.15,0,0,0-46.84,26.38c-5.35.57-4.21-46.76-7.5-44.94l2.07-16.21Z"/><path class="cls-20" d="M697.08,141.7s6.28,12.78,12,19.44c.56.66,1.13,1.27,1.68,1.81,7.58,7.48,17.49,11.51,29.25,13.74l1.79.32c24.59,4.22,56.92,1,92.6,5.13l1.08.15c.92.1,1.83.13,2.74.23A139,139,0,0,1,959.51,296a155.49,155.49,0,0,1,2,18.92c1.85,34.66-6.24,69.45-22.12,103.39C912.83,474,866.6,526.62,819.35,570.73,787.46,600.5,751.13,629.48,718,654q-8.91,6.59-17.45,12.7c-34.46,24.68-63.25,43-77.57,51.55l1.6-12.58,1.42-9.27c.2-1.88,12.19-57.24,19.8-62.15a139.39,139.39,0,0,0,22.91-9.23c29.86-14.73,71.6-41.7,112.07-75.68,9-7.6,18-15.56,26.69-23.83,44-41.53,86.32-92.48,105.39-144,7.41-20.13,11.22-40.33,10.14-60.08a89.87,89.87,0,0,0-3.45-22.62c-.69-2.38-1.48-4.73-2.35-7a85.21,85.21,0,0,0-14.26-24.61,83.21,83.21,0,0,0-13.37-12.82,93.22,93.22,0,0,0-9.16-6.08,158.81,158.81,0,0,0-36.27-16c-4.37-1.29-8.89-2.45-13.51-3.36A188.51,188.51,0,0,0,788,225.17a151.94,151.94,0,0,0-23,2.51,159.21,159.21,0,0,0-22.07,5.78,154,154,0,0,0-47,25.77c-5.79.62-5.22-45.4-8.79-43.44l2.07-16.2Z"/><path class="cls-21" d="M697.11,141.74s6.28,12.79,12,19.43c.56.66,1.13,1.27,1.69,1.82,7.57,7.46,17.49,11.49,29.24,13.71l1.8.32c24.58,4.21,56.9,1,92.56,5.12l1.08.15c.92.1,1.83.13,2.74.23A139,139,0,0,1,959.51,296a155.49,155.49,0,0,1,2,18.92c1.85,34.61-6.22,69.36-22,103.25-26.63,55.65-72.86,108.23-119.94,152.19C787.8,600,751.36,629.09,718.05,653.76q-8.92,6.59-17.47,12.72c-34.4,24.67-63.21,43.06-77.63,51.68l1.61-12.58,1.43-9.26c.22-2,12.45-56.32,20.64-61.61a144.27,144.27,0,0,0,22.85-9.33c29.94-14.88,71.6-41.87,111.91-75.78,9-7.61,18-15.58,26.65-23.85,43.76-41.46,86.1-92.41,105.27-144,7.43-20.1,11.28-40.28,10.28-60a90.84,90.84,0,0,0-3.34-22.62q-1-3.57-2.3-7a85.26,85.26,0,0,0-14.06-24.68,82.51,82.51,0,0,0-13.23-12.92,92.86,92.86,0,0,0-9.08-6.17A156.37,156.37,0,0,0,845.49,232c-4.36-1.31-8.87-2.49-13.47-3.43a189.72,189.72,0,0,0-42.52-4,152.79,152.79,0,0,0-23,2.34,162.63,162.63,0,0,0-22.09,5.6,155.32,155.32,0,0,0-47.22,25.16c-6.24.67-6.24-44.06-10.09-41.94l2.07-16.2Z"/><path class="cls-22" d="M697.15,141.79s6.26,12.8,12,19.42c.57.65,1.13,1.26,1.69,1.81,7.58,7.45,17.49,11.47,29.25,13.68l1.79.32c24.58,4.21,56.88,1,92.53,5.12l1.08.15c.92.1,1.83.13,2.74.23A139,139,0,0,1,959.51,296a155.49,155.49,0,0,1,2,18.92c1.85,34.57-6.2,69.27-22,103.12-26.63,55.63-72.86,108.14-119.79,152-31.64,29.53-68.18,58.68-101.65,83.48q-8.91,6.6-17.48,12.75C666.3,690.88,637.48,709.33,623,718l1.6-12.57,1.45-9.25c.24-2.17,12.71-55.4,21.49-61.07a148.16,148.16,0,0,0,22.78-9.44c30-15,71.6-42,111.75-75.87,9-7.62,17.93-15.59,26.6-23.87,43.55-41.38,85.89-92.33,105.15-144,7.45-20.08,11.35-40.24,10.43-60A91.7,91.7,0,0,0,921,299.38c-.66-2.39-1.42-4.73-2.25-7.05a85.75,85.75,0,0,0-13.84-24.75,83.51,83.51,0,0,0-13.09-13,93.82,93.82,0,0,0-9-6.25,154.24,154.24,0,0,0-35.91-16.5c-4.35-1.34-8.84-2.54-13.44-3.5A190.73,190.73,0,0,0,791,224.09a151.09,151.09,0,0,0-23,2.18,162.19,162.19,0,0,0-22.1,5.41,156.91,156.91,0,0,0-47.42,24.54c-6.68.72-7.26-42.7-11.38-40.43l2.07-16.2Z"/><path class="cls-23" d="M697.19,141.83s6.25,12.81,12,19.41c.57.66,1.13,1.26,1.69,1.81,7.59,7.44,17.5,11.45,29.25,13.66l1.79.32c24.58,4.19,56.87,1,92.5,5.11l1.08.15c.92.1,1.83.13,2.74.23A139,139,0,0,1,959.51,296a155.49,155.49,0,0,1,2,18.92c1.85,34.52-6.17,69.18-21.93,103C913,473.52,866.76,526,820,569.65c-31.51,29.41-68.16,58.65-101.77,83.57q-8.93,6.62-17.5,12.77c-34.29,24.62-63.13,43.14-77.73,51.92l1.6-12.56,1.46-9.25c.25-2.32,13-54.49,22.34-60.53A153.52,153.52,0,0,0,671.1,626c30.11-15.19,71.59-42.19,111.59-76,9-7.63,17.9-15.61,26.56-23.89,43.34-41.3,85.68-92.25,105-144,7.46-20.05,11.41-40.19,10.57-59.91a92.73,92.73,0,0,0-3.13-22.61c-.64-2.38-1.39-4.73-2.21-7.05a86.08,86.08,0,0,0-13.63-24.83,83.26,83.26,0,0,0-13-13.12,92.11,92.11,0,0,0-8.93-6.32,151,151,0,0,0-35.73-16.77c-4.33-1.36-8.82-2.59-13.41-3.57a192.26,192.26,0,0,0-42.38-4.47,153.24,153.24,0,0,0-23,2,166.79,166.79,0,0,0-22.12,5.22,158.92,158.92,0,0,0-47.6,23.94c-7.13.76-8.28-41.35-12.68-38.94l2.07-16.19Z"/><path class="cls-24" d="M697.22,141.88s6.25,12.81,12,19.4c.57.65,1.14,1.26,1.7,1.8,7.58,7.43,17.5,11.43,29.25,13.63.59.12,1.19.22,1.79.33,24.57,4.18,56.85,1,92.46,5.1l1.08.15c.92.1,1.83.13,2.74.23A139,139,0,0,1,959.51,296a155.49,155.49,0,0,1,2,18.92c1.84,34.48-6.15,69.09-21.87,102.85-26.63,55.59-72.87,108-119.48,151.51C788.82,598.59,752.07,627.9,718.3,653q-8.92,6.62-17.51,12.79c-34.23,24.6-63.1,43.18-77.79,52l1.6-12.55,1.48-9.24c.27-2.46,13.23-53.57,23.18-60a158.63,158.63,0,0,0,22.66-9.64C702.1,611,743.5,584,783.34,550.29c9-7.64,17.88-15.62,26.51-23.91,43.13-41.23,85.47-92.17,104.92-144,7.48-20,11.47-40.14,10.71-59.85a93.08,93.08,0,0,0-3-22.6c-.62-2.39-1.36-4.74-2.16-7.06A86.29,86.29,0,0,0,906.88,268a83.51,83.51,0,0,0-12.82-13.22,93.5,93.5,0,0,0-8.85-6.4,148.86,148.86,0,0,0-35.55-17c-4.32-1.39-8.8-2.65-13.38-3.65A193.71,193.71,0,0,0,794,223a154.11,154.11,0,0,0-23,1.86,168.25,168.25,0,0,0-22.13,5,160.85,160.85,0,0,0-47.8,23.32c-7.57.81-9.3-40-14-37.43l2.07-16.19Z"/><path class="cls-25" d="M697.26,141.92s6.23,12.82,12,19.4c.56.64,1.13,1.25,1.69,1.8,7.59,7.4,17.5,11.4,29.25,13.6L742,177c24.57,4.18,56.83,1,92.43,5.1l1.08.15c.92.1,1.83.13,2.74.23A139,139,0,0,1,959.51,296a155.49,155.49,0,0,1,2,18.92c1.84,34.43-6.13,69-21.81,102.71-26.63,55.58-72.88,107.91-119.33,151.29-31.26,29.18-68.12,58.58-102,83.75q-8.94,6.63-17.53,12.81c-34.18,24.58-63.06,43.23-77.84,52.16l1.6-12.54,1.49-9.23c.29-2.61,13.49-52.65,24-59.45a162.42,162.42,0,0,0,22.59-9.75C703,611.17,744.31,584.17,784,550.51c9-7.64,17.85-15.63,26.47-23.93,42.92-41.14,85.25-92.09,104.79-143.93,7.5-20,11.54-40.09,10.86-59.79a94.14,94.14,0,0,0-2.92-22.6c-.61-2.39-1.33-4.74-2.12-7.06a86.66,86.66,0,0,0-13.2-25,83.25,83.25,0,0,0-12.68-13.32,93.15,93.15,0,0,0-8.77-6.48,146.62,146.62,0,0,0-35.37-17.28c-4.31-1.42-8.78-2.69-13.35-3.72a194.53,194.53,0,0,0-42.24-5,155.11,155.11,0,0,0-23,1.7A170.13,170.13,0,0,0,750.34,229a162.92,162.92,0,0,0-48,22.7c-8,.86-10.32-38.64-15.27-35.93l2.07-16.18Z"/><path class="cls-26" d="M697.29,142s6.23,12.82,12,19.38c.57.65,1.13,1.25,1.7,1.8,7.59,7.39,17.5,11.38,29.25,13.58l1.79.32c24.56,4.17,56.81.95,92.39,5.09l1.08.15c.92.1,1.83.13,2.74.23A139,139,0,0,1,959.51,296a155.49,155.49,0,0,1,2,18.92c1.84,34.38-6.11,68.9-21.74,102.58-26.64,55.55-72.89,107.83-119.19,151-31.13,29.07-68.1,58.55-102.16,83.85q-8.94,6.63-17.54,12.83c-34.12,24.56-63,43.27-77.9,52.29l1.6-12.54,1.52-9.22c.3-2.75,13.74-51.73,24.86-58.91A169.46,169.46,0,0,0,673.54,627c30.34-15.67,71.58-42.68,111.11-76.27,9-7.65,17.82-15.65,26.41-24,42.71-41.06,85-92,104.68-143.91,7.51-20,11.6-40,11-59.72a95.76,95.76,0,0,0-2.81-22.61c-.6-2.38-1.31-4.74-2.07-7.06a87.27,87.27,0,0,0-13-25.07A84.37,84.37,0,0,0,896.33,255a96.12,96.12,0,0,0-8.7-6.56,144.65,144.65,0,0,0-35.19-17.54c-4.3-1.44-8.75-2.74-13.32-3.79a196,196,0,0,0-42.18-5.2,154.57,154.57,0,0,0-23,1.54,173.18,173.18,0,0,0-22.15,4.65,165.29,165.29,0,0,0-48.18,22.1c-8.46.91-11.34-37.3-16.56-34.43l2.07-16.18Z"/><path class="cls-27" d="M697.33,142s6.21,12.83,12,19.38c.57.64,1.14,1.24,1.7,1.79,7.6,7.38,17.51,11.36,29.25,13.55l1.79.32c24.56,4.16,56.79,1,92.36,5.09l1.08.15c.92.1,1.83.13,2.74.23A139,139,0,0,1,959.51,296a155.49,155.49,0,0,1,2,18.92c1.84,34.34-6.09,68.81-21.68,102.44-26.64,55.54-72.9,107.76-119,150.83-31,28.95-68.08,58.52-102.29,83.94q-9,6.65-17.56,12.86c-34.07,24.54-63,43.3-78,52.4l1.6-12.53,1.53-9.21c.32-2.9,14-50.81,25.71-58.37a174.76,174.76,0,0,0,22.46-9.95C704.77,611.51,745.93,584.5,785.3,551c9-7.66,17.8-15.66,26.37-24,42.5-41,84.82-91.93,104.56-143.88,7.53-19.94,11.66-40,11.14-59.67a96.22,96.22,0,0,0-2.71-22.6c-.58-2.39-1.27-4.75-2-7.08a87.6,87.6,0,0,0-12.78-25.14,84.14,84.14,0,0,0-12.4-13.52,94.33,94.33,0,0,0-8.62-6.63,142.24,142.24,0,0,0-35-17.81c-4.29-1.46-8.73-2.79-13.28-3.86a196.77,196.77,0,0,0-42.12-5.44,155.38,155.38,0,0,0-22.95,1.37,177,177,0,0,0-22.17,4.47A167.63,167.63,0,0,0,705,248.69c-8.91,1-12.36-35.94-17.86-32.92l2.07-16.18Z"/><path class="cls-28" d="M697.36,142.06s6.21,12.83,12,19.36c.57.65,1.14,1.25,1.7,1.79,7.6,7.37,17.52,11.34,29.26,13.53l1.78.32c24.56,4.15,56.78.95,92.33,5.08l1.08.15c.92.1,1.83.13,2.74.23A139,139,0,0,1,959.51,296a155.49,155.49,0,0,1,2,18.92c1.83,34.29-6.06,68.72-21.62,102.31C913.3,472.76,867,524.91,821.06,567.84c-30.88,28.83-68.06,58.49-102.42,84-6,4.44-11.84,8.73-17.58,12.88-34,24.52-62.94,43.35-78,52.53l1.59-12.53,1.55-9.2c.33-3,14.26-49.9,26.56-57.83a182,182,0,0,0,22.4-10.06c30.49-16,71.57-43,110.78-76.46,8.95-7.67,17.77-15.68,26.32-24,42.29-40.91,84.61-91.85,104.44-143.86,7.55-19.91,11.73-40,11.29-59.61a97.91,97.91,0,0,0-2.6-22.6c-.57-2.39-1.25-4.75-2-7.08a88.1,88.1,0,0,0-12.56-25.22,84.44,84.44,0,0,0-12.27-13.62,94,94,0,0,0-8.54-6.71,139.91,139.91,0,0,0-34.83-18.06c-4.27-1.49-8.71-2.84-13.25-3.93a198.09,198.09,0,0,0-42.05-5.7A157.64,157.64,0,0,0,777,222a180.22,180.22,0,0,0-22.18,4.27,170.17,170.17,0,0,0-48.56,20.88c-9.35,1-13.38-34.6-19.15-31.43l2.07-16.17Z"/><path class="cls-29" d="M697.4,142.1s6.2,12.84,12,19.36c.57.64,1.14,1.24,1.71,1.79,7.6,7.35,17.51,11.31,29.25,13.5l1.79.31c24.55,4.15,56.76.95,92.29,5.08l1.08.15c.92.1,1.83.13,2.74.23A139,139,0,0,1,959.51,296a155.49,155.49,0,0,1,2,18.92c1.83,34.25-6,68.62-21.56,102.17-26.65,55.5-72.91,107.6-118.73,150.38-30.75,28.71-68,58.45-102.54,84.12q-9,6.66-17.6,12.9c-33.94,24.5-62.9,43.39-78,52.65l1.6-12.52,1.56-9.19c.35-3.19,14.52-49,27.4-57.29A188.85,188.85,0,0,0,676,628c30.57-16.15,71.57-43.17,110.62-76.56,8.94-7.68,17.75-15.69,26.28-24C855,486.59,897.27,435.64,917.2,383.58c7.56-19.88,11.79-39.9,11.43-59.55a97.84,97.84,0,0,0-2.5-22.59c-.55-2.4-1.21-4.75-1.93-7.09a88.24,88.24,0,0,0-12.35-25.3,85.13,85.13,0,0,0-12.13-13.72,95.57,95.57,0,0,0-8.46-6.79,138.18,138.18,0,0,0-34.65-18.32,135.2,135.2,0,0,0-13.22-4,198.58,198.58,0,0,0-42-5.94,157,157,0,0,0-22.93,1.05,181.94,181.94,0,0,0-22.2,4.09,172.91,172.91,0,0,0-48.74,20.26c-9.8,1-14.4-33.24-20.45-29.92l2.07-16.17Z"/><path class="cls-30" d="M697.43,142.15s6.19,12.85,12,19.34c.56.64,1.13,1.24,1.7,1.79,7.61,7.34,17.52,11.29,29.25,13.47l1.79.32c24.55,4.14,56.74,1,92.26,5.07l1.08.15c.92.1,1.83.13,2.74.23A139,139,0,0,1,959.51,296a155.49,155.49,0,0,1,2,18.92c1.83,34.2-6,68.53-21.49,102-26.66,55.48-72.92,107.52-118.59,150.15-30.62,28.59-68,58.42-102.67,84.22-6,4.44-11.86,8.75-17.61,12.91-33.89,24.48-62.86,43.44-78.1,52.78l1.59-12.51,1.58-9.19c.37-3.34,14.78-48.06,28.25-56.75a197.72,197.72,0,0,0,22.27-10.26C707.44,612,748.36,585,787.25,551.66c8.93-7.68,17.72-15.71,26.23-24,41.87-40.75,84.18-91.7,104.2-143.82,7.59-19.85,11.86-39.85,11.58-59.49a99.53,99.53,0,0,0-2.39-22.59c-.54-2.39-1.19-4.75-1.89-7.09a89,89,0,0,0-12.13-25.38,85.89,85.89,0,0,0-12-13.82,97.3,97.3,0,0,0-8.39-6.87A136.49,136.49,0,0,0,858,230a134,134,0,0,0-13.19-4.07,199.74,199.74,0,0,0-41.91-6.18,156.41,156.41,0,0,0-22.92.89,181.48,181.48,0,0,0-22.21,3.9,175.54,175.54,0,0,0-48.94,19.65c-10.24,1.09-15.42-31.9-21.74-28.42l2.07-16.17Z"/><path class="cls-31" d="M697.47,142.19s6.18,12.86,12,19.34c.57.64,1.14,1.23,1.7,1.78,7.61,7.33,17.53,11.27,29.26,13.45l1.79.32c24.54,4.12,56.72.94,92.22,5.06l1.08.15c.92.1,1.83.13,2.74.23A139,139,0,0,1,959.51,296a155.49,155.49,0,0,1,2,18.92c1.83,34.15-6,68.44-21.43,101.9C913.47,472.3,867.2,524.27,821.7,566.76c-30.5,28.47-68,58.38-102.8,84.31q-9,6.66-17.63,12.93c-33.83,24.46-62.82,43.48-78.15,52.9l1.59-12.5,1.6-9.18c.38-3.48,15-47.14,29.08-56.21a201.27,201.27,0,0,0,22.21-10.37c30.73-16.47,71.56-43.49,110.31-76.75,8.91-7.69,17.69-15.72,26.18-24,41.66-40.68,84-91.62,104.08-143.8,7.6-19.82,11.92-39.8,11.72-59.43A100.62,100.62,0,0,0,927.61,302c-.53-2.4-1.16-4.76-1.84-7.1a89.35,89.35,0,0,0-11.93-25.46A85.27,85.27,0,0,0,902,255.55a95.14,95.14,0,0,0-8.31-6.94,134.74,134.74,0,0,0-47.45-23,201.46,201.46,0,0,0-41.85-6.43,160,160,0,0,0-22.9.73,187,187,0,0,0-22.23,3.71,178.83,178.83,0,0,0-49.12,19c-10.69,1.15-16.44-30.54-23-26.92l2.07-16.16Z"/><path class="cls-32" d="M697.5,142.23s6.17,12.87,12,19.34c.57.63,1.14,1.23,1.71,1.77,7.61,7.32,17.52,11.26,29.25,13.43l1.79.31c24.54,4.12,56.7.95,92.19,5.06l1.08.15c.92.09,1.83.13,2.74.23A139,139,0,0,1,959.51,296a155.49,155.49,0,0,1,2,18.92c1.83,34.11-6,68.35-21.37,101.77-26.66,55.45-72.93,107.36-118.28,149.7-30.37,28.36-68,58.35-102.92,84.4q-9,6.68-17.65,13c-33.77,24.43-62.79,43.51-78.21,53l1.59-12.49,1.62-9.17c.39-3.63,15.29-46.22,29.93-55.67A214.19,214.19,0,0,0,678.42,629c30.8-16.64,71.55-43.66,110.14-76.86,8.9-7.69,17.67-15.73,26.13-24.06,41.45-40.6,83.76-91.54,104-143.77,7.61-19.8,12-39.76,11.86-59.37a101.91,101.91,0,0,0-2.18-22.59c-.51-2.4-1.13-4.76-1.79-7.11a89.84,89.84,0,0,0-11.71-25.53,86.06,86.06,0,0,0-11.72-14,96.75,96.75,0,0,0-8.23-7,133.05,133.05,0,0,0-47.23-23.32,202,202,0,0,0-41.79-6.67,159.37,159.37,0,0,0-22.89.57,186.09,186.09,0,0,0-22.24,3.52,182.07,182.07,0,0,0-49.32,18.42c-11.13,1.2-17.46-29.19-24.33-25.41l2.07-16.16Z"/><path class="cls-32" d="M697.54,142.28s6.16,12.87,12,19.32c.57.63,1.14,1.23,1.71,1.77,7.62,7.3,17.53,11.24,29.26,13.4l1.78.32c24.54,4.11,56.69.94,92.16,5l1.08.15c.92.09,1.83.13,2.74.23A139,139,0,0,1,959.51,296a155.49,155.49,0,0,1,2,18.92c1.82,34.06-5.95,68.25-21.31,101.63C913.59,472,867.31,523.85,822.12,566c-30.24,28.24-67.94,58.31-103,84.49q-9,6.69-17.66,13c-33.72,24.42-62.75,43.56-78.26,53.14l1.59-12.49,1.63-9.16c.41-3.77,15.55-45.31,30.78-55.13a224.18,224.18,0,0,0,22.08-10.57c30.88-16.81,71.55-43.82,110-77,8.9-7.7,17.64-15.74,26.09-24.09,41.23-40.51,83.54-91.46,103.84-143.74,7.64-19.77,12.05-39.71,12-59.31a103.21,103.21,0,0,0-2.07-22.59c-.5-2.39-1.1-4.76-1.75-7.11a90.16,90.16,0,0,0-11.5-25.61,86.32,86.32,0,0,0-11.57-14.12,100.21,100.21,0,0,0-8.16-7.1,131.29,131.29,0,0,0-47-23.65,204.19,204.19,0,0,0-41.72-6.92,163.16,163.16,0,0,0-22.88.41,192.26,192.26,0,0,0-22.26,3.34,184.94,184.94,0,0,0-49.5,17.81c-11.58,1.24-18.48-27.84-25.63-23.91l2.07-16.16Z"/><path class="cls-33" d="M697.57,142.32s6.15,12.88,12,19.32c.57.63,1.14,1.22,1.72,1.77,7.61,7.28,17.53,11.21,29.25,13.37l1.79.31c24.53,4.1,56.67.94,92.12,5l1.08.15c.92.09,1.83.13,2.74.23A139,139,0,0,1,959.51,296a155.49,155.49,0,0,1,2,18.92c1.82,34-5.93,68.16-21.25,101.5-26.66,55.41-72.94,107.2-118,149.25C792.22,593.8,754.41,624,719.16,650.26q-9,6.69-17.68,13c-33.66,24.4-62.71,43.6-78.32,53.26L624.75,704l1.65-9.15c.43-3.92,15.81-44.39,31.62-54.59a232.53,232.53,0,0,0,22-10.67c31-17,71.55-44,109.82-77.06,8.89-7.71,17.62-15.76,26-24.11,41-40.43,83.33-91.38,103.73-143.72,7.65-19.74,12.11-39.65,12.15-59.25a103.77,103.77,0,0,0-2-22.58c-.48-2.4-1.07-4.77-1.7-7.12a90.61,90.61,0,0,0-11.28-25.69,86.72,86.72,0,0,0-11.44-14.22,98.39,98.39,0,0,0-8.08-7.18,129,129,0,0,0-33.75-19.62,132.4,132.4,0,0,0-13.06-4.36,205.2,205.2,0,0,0-41.65-7.16,162.45,162.45,0,0,0-22.87.25A195.49,195.49,0,0,0,763.71,221,188.88,188.88,0,0,0,714,238.15c-12,1.29-19.51-26.49-26.92-22.41l2.06-16.15Z"/><path class="cls-34" d="M697.61,142.37s6.14,12.88,11.95,19.3c.57.63,1.15,1.22,1.72,1.77,7.62,7.27,17.53,11.19,29.26,13.35l1.78.31c24.53,4.09,56.65.94,92.09,5l1.08.15c.92.09,1.83.13,2.74.23A139,139,0,0,1,959.51,296a155.27,155.27,0,0,1,2,18.92c1.82,34-5.91,68.07-21.18,101.36-26.67,55.4-73,107.13-117.83,149-30,28-67.9,58.24-103.31,84.67-6,4.47-11.91,8.82-17.69,13-33.6,24.38-62.67,43.65-78.37,53.39l1.59-12.48,1.66-9.14c.45-4.06,16.07-43.47,32.47-54a241.69,241.69,0,0,0,22-10.78c31-17.13,71.55-44.14,109.66-77.15,8.88-7.72,17.6-15.77,26-24.13,40.81-40.36,83.11-91.3,103.61-143.7,7.66-19.71,12.17-39.6,12.29-59.19a105.11,105.11,0,0,0-1.86-22.58c-.47-2.4-1-4.77-1.66-7.12a90.94,90.94,0,0,0-11.07-25.77A86.55,86.55,0,0,0,906.52,256a98.14,98.14,0,0,0-8-7.25A126.86,126.86,0,0,0,865,228.86a132.12,132.12,0,0,0-13-4.44,207.43,207.43,0,0,0-41.58-7.4,161.87,161.87,0,0,0-22.87.08,199.94,199.94,0,0,0-22.28,3,192.29,192.29,0,0,0-49.88,16.59c-12.47,1.33-20.52-25.14-28.21-20.91l2.06-16.15Z"/><path class="cls-35" d="M697.64,142.41s6.14,12.89,12,19.3c.57.63,1.14,1.22,1.71,1.76,7.63,7.26,17.54,11.17,29.26,13.32l1.79.31c24.52,4.09,56.63.94,92,5l1.08.15c.92.09,1.83.13,2.74.23A139,139,0,0,1,959.51,296a155.27,155.27,0,0,1,2,18.92c1.82,33.93-5.88,68-21.12,101.23-26.67,55.37-73,107.05-117.68,148.8-29.86,27.88-67.88,58.21-103.43,84.76q-9,6.71-17.71,13c-33.55,24.35-62.64,43.68-78.42,53.5l1.58-12.46,1.69-9.14c.46-4.21,16.32-42.55,33.3-53.51,6.23-2.72,13.67-6.31,21.9-10.88C712.77,613,753.21,586,791.16,553c8.87-7.73,17.57-15.79,26-24.15C857.72,488.6,900,437.66,920.6,385.2c7.69-19.68,12.24-39.55,12.44-59.13a106.3,106.3,0,0,0-1.76-22.57c-.45-2.4-1-4.78-1.6-7.13a91.86,91.86,0,0,0-10.86-25.85,87.39,87.39,0,0,0-11.17-14.42,98.18,98.18,0,0,0-7.92-7.33,125.61,125.61,0,0,0-33.39-20.14,127.55,127.55,0,0,0-13-4.51,208,208,0,0,0-41.51-7.65A164.21,164.21,0,0,0,789,216.4a203.34,203.34,0,0,0-22.29,2.76,196.68,196.68,0,0,0-50.07,16c-12.92,1.39-21.54-23.79-29.51-19.41l2.06-16.14Z"/><path class="cls-36" d="M697.68,142.46s6.12,12.89,12,19.28c.57.63,1.14,1.22,1.72,1.76,7.63,7.25,17.54,11.15,29.26,13.3l1.78.31c24.52,4.08,56.62.94,92,5l1.08.15c.92.09,1.83.13,2.74.23A139,139,0,0,1,959.51,296a155.27,155.27,0,0,1,2,18.92c1.81,33.88-5.86,67.88-21.06,101.09-26.67,55.36-73,107-117.52,148.58-29.74,27.76-67.86,58.18-103.57,84.85q-9,6.72-17.73,13.07c-33.48,24.33-62.59,43.72-78.47,53.63l1.59-12.46,1.7-9.13c.47-4.35,16.59-41.63,34.15-53,6.24-2.78,13.65-6.4,21.83-11,31.18-17.47,71.54-44.48,109.34-77.35,8.85-7.74,17.54-15.8,25.9-24.17,40.39-40.2,82.68-91.15,103.37-143.65,7.7-19.66,12.3-39.51,12.58-59.07A107.76,107.76,0,0,0,932,303.79c-.44-2.4-1-4.78-1.56-7.14a92.15,92.15,0,0,0-10.65-25.92,88.26,88.26,0,0,0-11-14.52,99.94,99.94,0,0,0-7.85-7.41,124.1,124.1,0,0,0-33.21-20.4,127.89,127.89,0,0,0-13-4.57,209,209,0,0,0-41.46-7.9,164.8,164.8,0,0,0-22.84-.24,205.57,205.57,0,0,0-22.31,2.58,200.62,200.62,0,0,0-50.26,15.37c-13.36,1.43-22.56-22.44-30.8-17.91l2.06-16.14Z"/><path class="cls-37" d="M697.72,142.5s6.11,12.9,11.94,19.28c.57.62,1.14,1.21,1.72,1.76,7.63,7.23,17.55,11.12,29.26,13.26l1.78.32c24.52,4.06,56.6.93,92,5l1.08.15c.92.09,1.83.13,2.74.23A139,139,0,0,1,959.51,296a155.27,155.27,0,0,1,2,18.92c1.81,33.83-5.84,67.79-21,101-26.68,55.34-73,106.89-117.37,148.35-29.61,27.64-67.84,58.14-103.69,84.94q-9,6.74-17.75,13.09C668.33,686.58,639.2,706,623.23,716l1.58-12.45,1.72-9.12c.49-4.5,16.85-40.72,35-52.43,6.25-2.84,13.63-6.5,21.76-11.09a685.3,685.3,0,0,0,109.18-77.44c8.84-7.75,17.51-15.82,25.85-24.19,40.19-40.12,82.47-91.07,103.25-143.63,7.72-19.63,12.37-39.46,12.73-59a109.22,109.22,0,0,0-1.54-22.58c-.43-2.4-1-4.78-1.52-7.14a92.78,92.78,0,0,0-10.43-26,88.72,88.72,0,0,0-10.89-14.62,98.14,98.14,0,0,0-7.77-7.49,123,123,0,0,0-33-20.66,127.61,127.61,0,0,0-12.93-4.64,208.65,208.65,0,0,0-41.39-8.14A165.57,165.57,0,0,0,792,215a211.39,211.39,0,0,0-72.77,17.14c-13.81,1.48-23.58-21.09-32.1-16.4l2.06-16.14Z"/><path class="cls-38" d="M697.75,142.55s6.1,12.91,11.94,19.27c.57.62,1.15,1.2,1.73,1.75,7.63,7.22,17.54,11.1,29.26,13.24l1.78.31c24.51,4.06,56.58.93,91.95,5l1.08.15c.92.09,1.83.13,2.74.23A139,139,0,0,1,959.51,296a155.27,155.27,0,0,1,2,18.92c1.81,33.79-5.82,67.7-20.94,100.82-26.68,55.32-73,106.82-117.22,148.12-29.48,27.53-67.81,58.12-103.82,85q-9,6.74-17.76,13.11c-33.37,24.3-62.52,43.81-78.57,53.87l1.58-12.44,1.73-9.11c.51-4.64,17.11-39.8,35.84-51.89,6.26-2.91,13.62-6.6,21.7-11.19a691,691,0,0,0,109-77.55c8.83-7.75,17.49-15.82,25.81-24.2,40-40.05,82.25-91,103.13-143.61,7.74-19.6,12.43-39.41,12.87-58.95a109.86,109.86,0,0,0-1.44-22.57c-.41-2.41-.92-4.78-1.47-7.15a93.15,93.15,0,0,0-10.22-26.08,88.58,88.58,0,0,0-10.75-14.72,98,98,0,0,0-7.69-7.56A121.08,121.08,0,0,0,870.51,228a122.73,122.73,0,0,0-12.9-4.72,209.94,209.94,0,0,0-41.32-8.39,168,168,0,0,0-22.82-.56,213.55,213.55,0,0,0-22.34,2.2,210.2,210.2,0,0,0-50.64,14.14c-14.25,1.53-24.6-19.73-33.39-14.9l2.06-16.13Z"/><path class="cls-39" d="M697.79,142.59s6.09,12.92,11.93,19.26c.57.62,1.15,1.21,1.73,1.75,7.64,7.21,17.55,11.08,29.26,13.22l1.78.31c24.51,4.05,56.56.93,91.92,5l1.08.15c.92.09,1.83.13,2.74.23A139,139,0,0,1,959.51,296a155.27,155.27,0,0,1,2,18.92c1.81,33.74-5.79,67.61-20.87,100.69-26.69,55.3-73,106.73-117.07,147.89-29.36,27.42-67.8,58.08-104,85.13-6,4.5-12,8.88-17.78,13.13-33.31,24.28-62.48,43.86-78.63,54l1.58-12.44,1.75-9.1c.53-4.79,17.37-38.88,36.69-51.35,6.27-3,13.61-6.7,21.64-11.29a696.2,696.2,0,0,0,108.85-77.65c8.83-7.76,17.47-15.84,25.76-24.23,39.77-40,82-90.9,103-143.58,7.75-19.57,12.49-39.36,13-58.89a111.37,111.37,0,0,0-1.33-22.57c-.4-2.4-.9-4.78-1.43-7.15a93.81,93.81,0,0,0-10-26.16,90.07,90.07,0,0,0-10.62-14.82,98,98,0,0,0-7.61-7.64,120.72,120.72,0,0,0-45.54-26,210.17,210.17,0,0,0-41.25-8.63,168.73,168.73,0,0,0-22.81-.72,220.51,220.51,0,0,0-73.18,15.54c-14.7,1.57-25.62-18.38-34.69-13.4l2.06-16.13Z"/><path class="cls-40" d="M697.82,142.64s6.08,12.92,11.94,19.25c.57.62,1.14,1.2,1.72,1.74,7.64,7.19,17.56,11.06,29.27,13.19l1.77.31c24.51,4.05,56.55.93,91.89,5l1.08.15c.92.09,1.83.13,2.74.23A139,139,0,0,1,959.51,296a155.27,155.27,0,0,1,2,18.92c1.8,33.7-5.77,67.51-20.81,100.55-26.69,55.29-73,106.66-116.92,147.67-29.23,27.3-67.78,58.05-104.08,85.22-6,4.5-12,8.9-17.79,13.16-33.25,24.25-62.44,43.89-78.68,54.11l1.58-12.43,1.77-9.09c.53-4.94,17.62-38,37.52-50.81,6.28-3,13.6-6.79,21.58-11.4a702,702,0,0,0,108.69-77.74c8.82-7.76,17.44-15.86,25.72-24.25C859.69,490,902,439.09,923,386.36c7.77-19.54,12.56-39.31,13.16-58.83A112.78,112.78,0,0,0,935,305c-.38-2.41-.86-4.79-1.38-7.16a93.88,93.88,0,0,0-9.79-26.24,90,90,0,0,0-10.47-14.91,98.24,98.24,0,0,0-7.54-7.73,118.53,118.53,0,0,0-32.49-21.44,122.83,122.83,0,0,0-12.84-4.86,211.13,211.13,0,0,0-41.18-8.88,171.14,171.14,0,0,0-22.8-.88,226.22,226.22,0,0,0-73.39,14.74c-15.14,1.63-26.64-17-36-11.89l2.06-16.13Z"/><path class="cls-41" d="M697.86,142.68s6.07,12.93,11.93,19.24c.57.62,1.15,1.2,1.73,1.75,7.64,7.17,17.55,11,29.26,13.16l1.78.31c24.5,4,56.53.93,91.85,5l1.08.15c.92.09,1.83.13,2.74.23A139,139,0,0,1,959.51,296a155.27,155.27,0,0,1,2,18.92c1.8,33.65-5.75,67.42-20.75,100.42-26.69,55.26-73,106.58-116.77,147.44-29.1,27.18-67.75,58-104.2,85.32q-9,6.75-17.81,13.17c-33.2,24.23-62.4,43.93-78.74,54.24l1.58-12.43,1.79-9.08c.55-5.08,17.88-37,38.37-50.27,6.29-3.09,13.58-6.89,21.51-11.5A707.4,707.4,0,0,0,795.07,554.4c8.81-7.77,17.42-15.87,25.67-24.27,39.34-39.81,81.62-90.75,102.78-143.53,7.78-19.52,12.62-39.27,13.3-58.78a114.33,114.33,0,0,0-1.12-22.56c-.37-2.41-.84-4.79-1.33-7.17a95.16,95.16,0,0,0-9.58-26.31,89.89,89.89,0,0,0-10.34-15A100,100,0,0,0,907,249a117.45,117.45,0,0,0-32.31-21.7,121.06,121.06,0,0,0-12.8-4.93,211.55,211.55,0,0,0-41.13-9.12,171.66,171.66,0,0,0-22.78-1,219.85,219.85,0,0,0-22.38,1.63,225.78,225.78,0,0,0-51.21,12.31c-15.59,1.67-27.66-15.68-37.28-10.4l2.06-16.12Z"/><path class="cls-42" d="M697.89,142.73S704,155.66,709.82,162c.57.61,1.15,1.19,1.73,1.74,7.65,7.16,17.56,11,29.26,13.14l1.78.3c24.5,4,56.51.93,91.82,5l1.08.15c.92.09,1.83.13,2.74.23A139,139,0,0,1,959.51,296a155.27,155.27,0,0,1,2,18.92c1.8,33.6-5.73,67.33-20.69,100.28-26.69,55.25-73,106.5-116.61,147.22-29,27.06-67.74,58-104.33,85.41q-9,6.76-17.83,13.19c-33.14,24.21-62.37,44-78.79,54.36L624.89,703l1.8-9.08c.57-5.23,18.14-36.13,39.22-49.73,6.29-3.16,13.56-7,21.44-11.6,31.62-18.5,71.52-45.45,108.38-77.94,8.79-7.78,17.38-15.89,25.62-24.29,39.13-39.73,81.4-90.67,102.66-143.51,7.8-19.49,12.68-39.22,13.44-58.71a116.69,116.69,0,0,0-1-22.56c-.35-2.41-.81-4.8-1.29-7.18A95.56,95.56,0,0,0,925.78,272a89.77,89.77,0,0,0-10.2-15.11A96.47,96.47,0,0,0,908.2,249a115.77,115.77,0,0,0-32.13-22,118.78,118.78,0,0,0-12.77-5,211.47,211.47,0,0,0-41.06-9.36,172.33,172.33,0,0,0-22.77-1.21,224.18,224.18,0,0,0-22.4,1.45,231.76,231.76,0,0,0-51.4,11.69c-16,1.72-28.68-14.33-38.57-8.89l2.06-16.12Z"/><path class="cls-43" d="M697.93,142.77S704,155.71,709.85,162q.85.93,1.74,1.74c7.64,7.15,17.56,11,29.26,13.11l1.78.31c24.49,4,56.49.92,91.78,5l1.08.15c.92.09,1.83.13,2.74.23A139,139,0,0,1,959.51,296a155.27,155.27,0,0,1,2,18.92c1.8,33.56-5.71,67.24-20.62,100.15-26.7,55.23-73,106.42-116.47,147C795.61,589,756.76,620,720,647.57q-9,6.76-17.84,13.21c-33.08,24.19-62.33,44-78.84,54.49l1.57-12.41,1.82-9.07c.59-5.37,18.4-35.21,40.06-49.19,6.31-3.22,13.55-7.09,21.39-11.71,31.68-18.66,71.51-45.61,108.21-78,8.78-7.79,17.36-15.9,25.57-24.31C860.87,490.9,903.14,440,924.49,387.06c7.82-19.46,12.75-39.17,13.59-58.65a116.78,116.78,0,0,0-.91-22.56c-.33-2.41-.78-4.8-1.24-7.18a95.53,95.53,0,0,0-9.16-26.47A90.66,90.66,0,0,0,916.71,257a98.21,98.21,0,0,0-7.3-8,114.59,114.59,0,0,0-31.95-22.22,119.87,119.87,0,0,0-12.74-5.08,213.06,213.06,0,0,0-41-9.61A175,175,0,0,0,801,210.76c-6.94,0-14.5.44-22.4,1.26A237.39,237.39,0,0,0,727,223.1c-16.48,1.76-29.7-13-39.87-7.4l2.06-16.11Z"/><path class="cls-44" d="M698,142.82s6,12.94,11.92,19.21c.57.61,1.15,1.19,1.74,1.73,7.65,7.14,17.56,11,29.26,13.09l1.78.31c24.48,4,56.48.92,91.75,5l1.08.15c.92.09,1.83.13,2.74.23A139,139,0,0,1,959.51,296a155.27,155.27,0,0,1,2,18.92c1.79,33.51-5.68,67.14-20.56,100-26.7,55.21-73,106.35-116.32,146.77C796,588.53,757,619.62,720.1,647.3q-9.06,6.78-17.86,13.23c-33,24.18-62.29,44.07-78.9,54.61l1.58-12.4,1.83-9.07c.61-5.51,18.66-34.28,40.91-48.64,6.31-3.28,13.53-7.19,21.32-11.81,31.76-18.84,71.51-45.77,108-78.14,8.77-7.79,17.34-15.91,25.53-24.32,38.71-39.57,81-90.51,102.42-143.47,7.83-19.43,12.81-39.12,13.73-58.59a119.31,119.31,0,0,0-.8-22.56c-.32-2.41-.75-4.8-1.2-7.18a96.58,96.58,0,0,0-8.94-26.55,91.8,91.8,0,0,0-9.92-15.31,100.13,100.13,0,0,0-7.23-8,113.72,113.72,0,0,0-31.77-22.48,119.68,119.68,0,0,0-12.71-5.15,213.71,213.71,0,0,0-40.92-9.85,177.41,177.41,0,0,0-22.76-1.53c-6.93,0-14.5.33-22.42,1.07a244.56,244.56,0,0,0-51.78,10.47c-16.92,1.82-30.72-11.63-41.16-5.89l2.06-16.11Z"/><path class="cls-45" d="M698,142.86s6,12.95,11.92,19.21c.57.6,1.15,1.18,1.73,1.73,7.66,7.12,17.57,10.95,29.27,13.06l1.77.3c24.48,4,56.46.92,91.72,5l1.08.15c.92.09,1.83.13,2.74.23A139,139,0,0,1,959.51,296a155.27,155.27,0,0,1,2,18.92c1.79,33.47-5.66,67.05-20.5,99.88C914.35,470,868,521.07,824.9,561.35c-28.61,26.7-67.67,57.88-104.72,85.68-6,4.52-12,9-17.88,13.26-33,24.15-62.24,44.1-78.94,54.72l1.57-12.39,1.85-9.06c.62-5.65,18.92-33.36,41.75-48.1,6.33-3.35,13.52-7.29,21.26-11.91,31.83-19,71.51-45.94,107.89-78.24,8.76-7.8,17.31-15.92,25.48-24.34,38.5-39.5,80.76-90.44,102.3-143.45,7.86-19.4,12.88-39.07,13.88-58.53a120.09,120.09,0,0,0-.7-22.55c-.3-2.41-.72-4.81-1.15-7.19a96.9,96.9,0,0,0-8.73-26.63A91.69,91.69,0,0,0,919,257.21a100.26,100.26,0,0,0-7.15-8.12,112.54,112.54,0,0,0-31.59-22.73,115.44,115.44,0,0,0-12.68-5.22A214.12,214.12,0,0,0,826.71,211,180,180,0,0,0,804,209.35c-6.92-.08-14.49.21-22.43.88a251.48,251.48,0,0,0-52,9.85c-17.37,1.87-31.74-10.27-42.46-4.38l2.06-16.11Z"/><path class="cls-46" d="M698,142.91s6,13,11.92,19.19c.57.61,1.15,1.18,1.74,1.73,7.66,7.11,17.57,10.93,29.26,13l1.78.31c24.47,4,56.44.91,91.68,5l1.08.15c.92.09,1.83.13,2.74.23A139,139,0,0,1,959.51,296a155.27,155.27,0,0,1,2,18.92c1.79,33.42-5.64,67-20.44,99.74-26.71,55.18-73,106.19-116,146.32-28.48,26.58-67.65,57.84-104.84,85.77q-9.06,6.79-17.9,13.28c-32.9,24.13-62.21,44.14-79,54.85L625,702.5l1.87-9c.63-5.8,19.17-32.44,42.59-47.56,6.33-3.41,13.5-7.38,21.19-12,31.9-19.19,71.5-46.1,107.73-78.33,8.76-7.81,17.29-15.94,25.44-24.36,38.29-39.42,80.54-90.36,102.18-143.42,7.87-19.38,12.94-39,14-58.48a122.77,122.77,0,0,0-.59-22.55c-.29-2.41-.69-4.81-1.1-7.2a98.06,98.06,0,0,0-8.52-26.7,92.28,92.28,0,0,0-9.65-15.51,98.37,98.37,0,0,0-7.07-8.19,111.2,111.2,0,0,0-31.41-23A117.12,117.12,0,0,0,869,220.84a214.88,214.88,0,0,0-40.79-10.35,182.5,182.5,0,0,0-22.74-1.85c-6.9-.13-14.49.1-22.45.69a258.87,258.87,0,0,0-52.16,9.25c-17.81,1.91-32.76-8.93-43.75-2.89l2.06-16.1Z"/><path class="cls-47" d="M698.07,143s6,13,11.91,19.19c.57.6,1.15,1.18,1.74,1.72,7.66,7.1,17.57,10.91,29.27,13,.58.1,1.18.21,1.77.3,24.47,4,56.42.92,91.65,5l1.08.15c.92.09,1.83.13,2.74.23A139,139,0,0,1,959.51,296a153.32,153.32,0,0,1,2,18.92c1.79,33.37-5.62,66.87-20.38,99.61-26.71,55.15-73,106.11-115.86,146.09-28.35,26.47-67.62,57.81-105,85.86-6,4.54-12,9-17.91,13.3-32.85,24.11-62.17,44.19-79.05,55L625,702.38l1.89-9c.65-5.94,19.43-31.53,43.44-47,6.34-3.47,13.48-7.48,21.13-12.12,32-19.37,71.49-46.26,107.57-78.43,8.74-7.82,17.25-15.95,25.38-24.39C862.45,492.05,904.7,441.11,926.44,388c7.88-19.35,13-39,14.16-58.42a124.49,124.49,0,0,0-.48-22.54c-.28-2.42-.67-4.82-1.06-7.21A98,98,0,0,0,930.75,273a93.24,93.24,0,0,0-9.51-15.61,98.53,98.53,0,0,0-7-8.27A110.4,110.4,0,0,0,883,225.9a116.13,116.13,0,0,0-12.61-5.36A215.91,215.91,0,0,0,829.68,210a181.11,181.11,0,0,0-22.72-2c-6.89-.19-14.48,0-22.46.5a266.5,266.5,0,0,0-52.35,8.63c-18.26,2-33.78-7.57-45-1.38l2.06-16.1Z"/><path class="cls-48" d="M698.1,143s6,13,11.91,19.18c.57.61,1.15,1.18,1.74,1.72,7.67,7.09,17.58,10.89,29.27,13l1.78.3c24.46,4,56.4.91,91.61,5l1.08.15c.92.09,1.83.13,2.74.23A139,139,0,0,1,959.51,296a153.32,153.32,0,0,1,2,18.92c1.78,33.33-5.59,66.77-20.31,99.47-26.72,55.14-73,106-115.71,145.87-28.23,26.35-67.61,57.77-105.1,86q-9.08,6.81-17.93,13.32c-32.79,24.09-62.13,44.23-79.1,55.1L625,702.26l1.9-9c.67-6.09,19.69-30.61,44.28-46.48,6.35-3.53,13.47-7.58,21.07-12.22,32-19.55,71.49-46.43,107.41-78.53,8.73-7.83,17.23-16,25.34-24.41,37.87-39.26,80.11-90.19,101.94-143.37,7.91-19.32,13.07-38.93,14.31-58.35a125.58,125.58,0,0,0-.38-22.55c-.26-2.42-.63-4.81-1-7.21a99.18,99.18,0,0,0-8.09-26.86,94.49,94.49,0,0,0-9.37-15.71,100.8,100.8,0,0,0-6.92-8.35,109.5,109.5,0,0,0-31.05-23.52,116,116,0,0,0-12.58-5.43,217.05,217.05,0,0,0-40.66-10.84,185.6,185.6,0,0,0-22.71-2.17c-6.88-.23-14.48-.13-22.48.32a274.85,274.85,0,0,0-52.54,8c-18.7,2-34.79-6.23-46.34.12l2.06-16.1Z"/><path class="cls-49" d="M698.14,143s6,13,11.9,19.17c.57.6,1.16,1.17,1.75,1.72,7.67,7.06,17.58,10.86,29.27,12.95q.87.17,1.77.3c24.46,4,56.39.92,91.58,5l1.08.15c.92.09,1.83.13,2.74.23A139,139,0,0,1,959.51,296a153.32,153.32,0,0,1,2,18.92c1.78,33.28-5.57,66.68-20.25,99.34-26.72,55.12-73.06,106-115.56,145.64-28.1,26.23-67.58,57.74-105.23,86-6,4.55-12,9-17.94,13.34-32.74,24.08-62.09,44.28-79.16,55.22L625,702.15l1.92-9c.68-6.23,20-29.69,45.13-45.94,6.36-3.6,13.45-7.68,21-12.33,32.1-19.72,71.49-46.58,107.25-78.62,8.72-7.84,17.21-16,25.29-24.43,37.66-39.18,79.91-90.12,101.83-143.35,7.92-19.29,13.13-38.87,14.45-58.29a127.41,127.41,0,0,0-.27-22.54c-.25-2.42-.61-4.82-1-7.22a99.64,99.64,0,0,0-7.88-26.94,93.72,93.72,0,0,0-9.23-15.81,100.68,100.68,0,0,0-6.84-8.43,108.39,108.39,0,0,0-30.87-23.77,115.92,115.92,0,0,0-12.55-5.51,217.19,217.19,0,0,0-40.59-11.08,186.43,186.43,0,0,0-22.7-2.33c-6.87-.29-14.47-.26-22.49.12a284.29,284.29,0,0,0-52.73,7.41c-19.15,2.06-35.82-4.87-47.64,1.62l2.06-16.09Z"/><path class="cls-50" d="M698.17,143.08s6,13,11.9,19.16c.58.6,1.16,1.18,1.75,1.72,7.67,7,17.59,10.84,29.27,12.93l1.77.3c24.46,4,56.37.91,91.55,4.95l1.08.15c.92.09,1.83.13,2.74.23A139,139,0,0,1,959.51,296a153.32,153.32,0,0,1,2,18.92c1.78,33.24-5.55,66.59-20.19,99.2C914.65,469.24,868.31,520,826,559.55c-28,26.11-67.56,57.7-105.35,86.13q-9.09,6.83-18,13.37c-32.68,24.05-62.06,44.31-79.21,55.34L625,702l1.93-9c.7-6.38,20.21-28.77,46-45.4,6.37-3.66,13.43-7.78,20.94-12.43,32.17-19.91,71.49-46.75,107.09-78.72,8.71-7.85,17.18-16,25.25-24.45,37.45-39.1,79.69-90,101.71-143.33,7.93-19.26,13.19-38.82,14.59-58.23a129.42,129.42,0,0,0-.17-22.54c-.23-2.42-.57-4.82-.92-7.22a100,100,0,0,0-7.66-27,95.05,95.05,0,0,0-9.1-15.91,100.78,100.78,0,0,0-6.76-8.5,107.43,107.43,0,0,0-30.69-24,113.88,113.88,0,0,0-12.52-5.58,217.22,217.22,0,0,0-40.52-11.32,187,187,0,0,0-22.69-2.5c-6.86-.34-14.47-.35-22.51-.06a296.53,296.53,0,0,0-52.92,6.8c-19.59,2.1-36.83-3.53-48.93,3.12l2.06-16.09Z"/><path class="cls-51" d="M698.21,143.13s6,13,11.9,19.15c.57.6,1.15,1.17,1.75,1.71,7.67,7,17.58,10.82,29.27,12.9l1.77.31c24.45,3.94,56.35.9,91.51,4.94l1.08.15c.92.09,1.83.13,2.74.23A139,139,0,0,1,959.51,296a153.32,153.32,0,0,1,2,18.92c1.78,33.19-5.53,66.5-20.13,99.07-26.72,55.08-73.07,105.79-115.25,145.19-27.85,26-67.54,57.67-105.49,86.22-6.05,4.56-12.06,9-18,13.39-32.62,24-62,44.35-79.26,55.46L625,701.91l2-9c.71-6.53,20.46-27.85,46.81-44.86,6.38-3.72,13.41-7.88,20.88-12.53,32.23-20.09,71.48-46.92,106.92-78.83,8.7-7.84,17.16-16,25.2-24.46,37.24-39,79.48-90,101.59-143.3,8-19.24,13.26-38.78,14.74-58.18a131.49,131.49,0,0,0-.06-22.54c-.22-2.42-.55-4.82-.87-7.23a100.87,100.87,0,0,0-7.46-27.09,96,96,0,0,0-9-16,101.17,101.17,0,0,0-6.69-8.58A106.75,106.75,0,0,0,888.58,225a115.53,115.53,0,0,0-12.48-5.65,218.19,218.19,0,0,0-40.46-11.57A191.74,191.74,0,0,0,813,205.12c-6.85-.4-14.46-.47-22.52-.25a306.29,306.29,0,0,0-53.11,6.18c-20,2.15-37.86-2.17-50.22,4.63l2-16.09Z"/><path class="cls-52" d="M698.25,143.17s6,13,11.89,19.15c.57.59,1.16,1.16,1.75,1.7,7.68,7,17.59,10.8,29.27,12.88q.89.16,1.77.3c24.45,3.94,56.33.91,91.48,4.94l1.08.15c.92.09,1.83.13,2.74.23A139,139,0,0,1,959.51,296a153.32,153.32,0,0,1,2,18.92c1.78,33.14-5.5,66.4-20.06,98.93-26.73,55.07-73.08,105.72-115.11,145-27.72,25.88-67.52,57.64-105.61,86.32-6.06,4.57-12.08,9.05-18,13.41-32.57,24-62,44.4-79.32,55.58L625,701.79l2-9c.73-6.67,20.72-26.94,47.66-44.32,6.38-3.79,13.39-8,20.81-12.64,32.29-20.26,71.48-47.07,106.76-78.92,8.69-7.85,17.13-16,25.16-24.48,37-38.95,79.26-89.88,101.47-143.28,8-19.21,13.32-38.73,14.88-58.12a133.49,133.49,0,0,0,0-22.53c-.21-2.42-.52-4.83-.83-7.24a102.08,102.08,0,0,0-7.24-27.17A96.71,96.71,0,0,0,926.91,258a101,101,0,0,0-6.61-8.66A105.84,105.84,0,0,0,890,224.76,117.4,117.4,0,0,0,877.52,219a218.14,218.14,0,0,0-40.4-11.81,193.94,193.94,0,0,0-22.66-2.82c-6.84-.44-14.46-.59-22.54-.44a318.08,318.08,0,0,0-53.3,5.57c-20.48,2.2-38.87-.82-51.51,6.13l2-16.08Z"/><path class="cls-53" d="M698.28,143.22s6,13,11.89,19.13c.57.59,1.16,1.16,1.75,1.71,7.68,7,17.6,10.78,29.28,12.85l1.76.3c24.45,3.93,56.32.9,91.45,4.93l1.08.15c.92.09,1.83.13,2.74.23A139,139,0,0,1,959.51,296a153.32,153.32,0,0,1,2,18.92c1.77,33.1-5.48,66.31-20,98.8-26.73,55-73.09,105.64-115,144.73-27.59,25.76-67.49,57.61-105.74,86.41-6.06,4.57-12.08,9.06-18,13.43-32.51,24-61.94,44.44-79.37,55.71l1.56-12.34,2-9c.75-6.82,21-26,48.5-43.78,6.4-3.85,13.38-8.08,20.75-12.74,32.36-20.45,71.48-47.24,106.61-79,8.68-7.86,17.1-16,25.1-24.5,36.82-38.87,79-89.81,101.35-143.26,8-19.18,13.39-38.68,15-58.05a134.73,134.73,0,0,0,.15-22.54c-.19-2.42-.49-4.83-.78-7.24a102.57,102.57,0,0,0-7-27.25A96.64,96.64,0,0,0,928,258.09a102.86,102.86,0,0,0-6.53-8.74,104.49,104.49,0,0,0-30.15-24.81,112.66,112.66,0,0,0-12.42-5.8,219.56,219.56,0,0,0-40.33-12.06,198.76,198.76,0,0,0-22.66-3c-6.82-.49-14.45-.7-22.54-.62a328.23,328.23,0,0,0-53.49,5c-20.93,2.24-39.9.53-52.81,7.63l2-16.08Z"/><path class="cls-54" d="M698.32,143.26s5.95,13,11.88,19.13c.58.59,1.16,1.16,1.76,1.7,7.68,7,17.59,10.76,29.27,12.82.59.11,1.17.21,1.77.3,24.44,3.93,56.3.91,91.41,4.93l1.08.15c.92.09,1.83.13,2.74.23A139,139,0,0,1,959.51,296a153.32,153.32,0,0,1,2,18.92c1.77,33.05-5.46,66.22-19.94,98.66-26.74,55-73.09,105.56-114.8,144.51-27.47,25.64-67.48,57.58-105.87,86.51-6.07,4.57-12.1,9.06-18,13.45-32.44,24-61.9,44.48-79.42,55.82l1.57-12.33,2-9c.76-7,21.24-25.1,49.35-43.24,6.41-3.91,13.36-8.18,20.69-12.84,32.42-20.64,71.47-47.4,106.44-79.12,8.67-7.87,17.08-16,25.06-24.52,36.6-38.79,78.83-89.73,101.23-143.24,8-19.15,13.45-38.63,15.17-58a136.85,136.85,0,0,0,.26-22.53c-.18-2.43-.46-4.84-.74-7.25a103,103,0,0,0-6.81-27.33,98.09,98.09,0,0,0-8.55-16.31,101.47,101.47,0,0,0-6.45-8.81,103.83,103.83,0,0,0-30-25.08,110.74,110.74,0,0,0-12.39-5.86,218.3,218.3,0,0,0-40.26-12.31A197.35,197.35,0,0,0,817.45,203c-6.81-.55-14.44-.82-22.56-.82a341.52,341.52,0,0,0-53.68,4.35c-21.37,2.3-40.91,1.88-54.1,9.13l2-16.07Z"/><path class="cls-55" d="M698.35,143.31s5.94,13,11.88,19.11c.58.59,1.16,1.16,1.76,1.7,7.69,7,17.6,10.74,29.28,12.8l1.76.3c24.44,3.91,56.28.9,91.38,4.92l1.08.15c.92.09,1.83.13,2.74.23A139,139,0,0,1,959.51,296a153.32,153.32,0,0,1,2,18.92c1.77,33-5.44,66.13-19.88,98.53-26.74,55-73.1,105.48-114.65,144.28-27.34,25.53-67.45,57.54-106,86.6-6.08,4.57-12.11,9.08-18,13.47-32.39,24-61.86,44.52-79.47,56l1.56-12.32,2-9c.78-7.11,21.51-24.18,50.19-42.7,6.42-4,13.34-8.3,20.63-13,32.44-20.88,71.46-47.56,106.28-79.21,8.66-7.88,17-16.07,25-24.55,36.4-38.71,78.62-89.64,101.12-143.21,8-19.12,13.51-38.58,15.31-57.93a139.13,139.13,0,0,0,.36-22.53c-.16-2.42-.42-4.84-.69-7.25a103.85,103.85,0,0,0-6.6-27.41,98.73,98.73,0,0,0-8.4-16.41,103.29,103.29,0,0,0-36.17-34.23,112.47,112.47,0,0,0-12.36-5.93,220.38,220.38,0,0,0-40.19-12.55A207,207,0,0,0,819,202.29c-6.8-.58-14.44-.93-22.57-1A352.9,352.9,0,0,0,742.51,205c-21.82,2.34-41.94,3.23-55.4,10.63l2-16.07Z"/><path class="cls-56" d="M698.39,143.35s5.93,13,11.88,19.11c.57.59,1.16,1.15,1.76,1.69,7.68,7,17.6,10.72,29.27,12.78l1.77.29c24.43,3.91,56.26.9,91.34,4.92l1.08.15c.92.09,1.83.13,2.74.23A139,139,0,0,1,959.51,296a153.32,153.32,0,0,1,2,18.92c1.77,33-5.42,66-19.82,98.39-26.74,55-73.1,105.41-114.5,144.06-27.21,25.41-67.43,57.51-106.12,86.69q-9.12,6.87-18.06,13.49c-32.33,23.93-61.82,44.56-79.52,56.07l1.56-12.31,2-9c.79-7.25,21.76-23.26,51-42.16,6.43-4,13.32-8.39,20.56-13.05,32.52-21,71.46-47.73,106.12-79.31,8.65-7.89,17-16.08,25-24.57,36.18-38.63,78.4-89.56,101-143.18,8-19.1,13.58-38.54,15.46-57.88a141.49,141.49,0,0,0,.47-22.53c-.15-2.42-.4-4.84-.64-7.26a105.08,105.08,0,0,0-6.39-27.48,99.49,99.49,0,0,0-8.27-16.51,102.5,102.5,0,0,0-35.91-34.57,113.15,113.15,0,0,0-12.32-6,221.11,221.11,0,0,0-40.13-12.8,210.42,210.42,0,0,0-22.63-3.46c-6.79-.64-14.43-1.05-22.59-1.19a366.37,366.37,0,0,0-54.05,3.12c-22.27,2.39-43,4.59-56.7,12.14l2-16.07Z"/><path class="cls-57" d="M698.42,143.4s5.92,13,11.88,19.09c.57.59,1.16,1.15,1.76,1.7,7.69,6.95,17.6,10.69,29.27,12.74l1.77.3c24.43,3.9,56.25.9,91.31,4.91l1.08.15c.92.09,1.83.13,2.74.23A139,139,0,0,1,959.51,296a153.32,153.32,0,0,1,2,18.92c1.76,32.92-5.39,65.94-19.75,98.26-26.75,55-73.12,105.32-114.35,143.83C800.37,582.31,760,614.49,721.21,643.8c-6.08,4.59-12.13,9.1-18.08,13.51-32.27,23.91-61.79,44.61-79.58,56.2l1.56-12.31,2.06-9c.81-7.4,22-22.35,51.88-41.62,6.43-4.1,13.3-8.49,20.49-13.15,32.59-21.21,71.46-47.89,106-79.41,8.64-7.9,17-16.1,24.92-24.59,36-38.55,78.19-89.49,100.88-143.16,8.06-19.07,13.64-38.49,15.6-57.82a145,145,0,0,0,.58-22.52c-.14-2.43-.37-4.85-.6-7.27a105.2,105.2,0,0,0-6.18-27.56,98.66,98.66,0,0,0-8.13-16.61,101.65,101.65,0,0,0-35.65-34.9,110.52,110.52,0,0,0-12.29-6.08,220.11,220.11,0,0,0-40.06-13A210.8,210.8,0,0,0,822,200.88c-6.78-.69-14.43-1.17-22.6-1.38A381,381,0,0,0,745.1,202c-22.71,2.43-44,5.93-58,13.63l2-16.06Z"/><path class="cls-58" d="M941.87,413.05c-26.75,55-73.12,105.25-114.2,143.61-27,25.17-67.39,57.44-106.38,86.87s-76.53,56-97.72,69.85l1.56-12.3,2.07-9c1-9.14,32.28-27.59,73.16-54.34S791.68,576,831,533.68C886,474.53,956.24,385.93,947.66,303a100.18,100.18,0,0,0-6-27.64,100.92,100.92,0,0,0-55.65-58.1,210.07,210.07,0,0,0-62.6-17.07c-38.32-4.26-105.23-1.63-136.34,15.47l2-16.06,9.3-56.15s5.91,13,11.87,19.09c7.92,8,18.46,12.2,31,14.41,24.65,4.33,57.13,1.2,93,5.2l1.08.15c.92.08,1.83.13,2.74.23A138.7,138.7,0,0,1,961.56,314.93C963.8,347.77,956.19,380.78,941.87,413.05Z"/></g><g id="highlight"><path class="cls-59" d="M796,190.5c2,6.74-67.45,33.77-155.25,60.37s-160.59,42.71-162.63,36,67.46-33.77,155.24-60.37S793.93,183.75,796,190.5Z"/><path class="cls-60" d="M444.39,831.41c-5.05,6.24-10,12.45-15.08,18.61,45.45-28.68,115.05-68.85,184.68-124.7C760.17,608.07,846.64,542.46,842.58,536.7S726.73,612.5,592.84,702.33c-43.11,28.92-75.14,54.3-109.39,85.79C466.87,800.5,456.63,816.26,444.39,831.41Z"/><path class="cls-61" d="M955.3,350.86c-8.72,3.29-27.29-24.56-41.48-62.21s-18.65-70.82-9.92-74.11,27.3,24.56,41.49,62.21S964,347.57,955.3,350.86Z"/></g></g><path id="ouside" class="cls-62" d="M704.84,42.92s2.93,549.24-129.39,804.6c-1.28,2.46-4,4.92-7.84,7.35-30.38,34-114.74,58.37-214.12,58.37h-2.13c-99.38,0-183.74-24.42-214.12-58.37-3.85-2.43-6.56-4.89-7.84-7.35C-2.92,592.16,0,42.92,0,42.92v-2.6C0,18.06,157.79.38,352.43,0c199.31-.38,352.42,18,352.42,40.31C704.85,41.18,704.84,42.05,704.84,42.92Z"/><g id="shading"><path class="cls-63" d="M704.85,42.92s3.28,549.24-129,804.6c-1.27,2.46-4,4.92-7.84,7.35-30.38,34-115.09,58.37-214.47,58.37h-2.13c-99.39,0-183.74-24.42-214.12-58.37-3.86-2.43-6.57-4.89-7.84-7.35C-2.92,592.16,0,42.92,0,42.92v-2.6C0,18.06,157.79.38,352.43,0c199.31-.38,352.42,18,352.42,40.31h0C704.86,41.2,704.85,42.05,704.85,42.92Z"/><path class="cls-64" d="M505.23,133c-4.36,46.15-7.71,96.13-9.73,148.33-9,233,11.86,421.68,46.58,421.48s70.23-189.23,79.24-422.2c2.1-54.36,2.57-106.3,1.63-154Z"/></g><g id="inside"><path class="cls-65" d="M704.85,42.92s.08,12.84-.27,35.52c-83.33,9-194,34.16-319.73,34.16-158.46,0-298.72-29-384.68-42.83C0,52.52,0,42.92,0,42.92v-2.6C0,18.06,157.79.38,352.43,0c199.31-.38,352.42,18,352.42,40.31h0C704.86,41.2,704.85,42.05,704.85,42.92Z"/><g id="inside-2" data-name="inside"><path class="cls-66" d="M352.43,0C157.79.38,0,18.06,0,40.32S157.79,80.64,352.43,80.64s352.41-18,352.41-40.32S551.74-.37,352.43,0Z"/><ellipse class="cls-67" cx="353.4" cy="39.02" rx="342.68" ry="36.96"/><ellipse class="cls-68" cx="353.4" cy="39.02" rx="342.67" ry="36.96"/></g></g><g id="highlight-2" data-name="highlight"><path class="cls-69" d="M704.84,42.92s2.88,480.14-104.91,751.29c5.64-75.82,16.34-196.37,27.92-312.41,20.81-208.42,60.69-398.41,75.24-441.48h1.76C704.85,41.2,704.84,42.05,704.84,42.92Z"/><path class="cls-70" d="M676.53,611.87c-17.35,9.13-27.39,12.79-27.39,12.79.91-2.74,3.83-17.76,4.56-21A78.63,78.63,0,0,0,645,603a63,63,0,0,0-23,121.63c1.31-4.3.73-4.66,8.7-9.33,14.59-8.54,38-23.26,77.58-51.48C707.8,642,693.71,622.81,676.53,611.87Z"/><path class="cls-71" d="M767.5,213.17a121.88,121.88,0,0,1-2.26,19.52,139,139,0,0,0-68.32,29.15s-.47,6.92-1.44,18.66c-90.05-17.8-95.55-141.15,7.61-143.58-.31,7.59-.46,14.94-.46,14.94,10.64,20.23,30.54,25.42,56.27,27C764.17,188.41,767.5,201.86,767.5,213.17Z"/><ellipse class="cls-72" cx="411.42" cy="40.32" rx="243.03" ry="17.87"/><path class="cls-73" d="M656,21.66c-8.48,13.1-22.09,27.75-39.45,41C563.18,69.6,487,74.36,400.43,75.64,364.89,55.19,338,27.17,325.18,2.19q13.95-.13,28.22-.13C484.48,2.06,598.37,10,656,21.66Z"/><path class="cls-74" d="M601.32,56.75c-1,11.94-65.91,16.14-144.91,9.35S314.2,44.17,315.23,32.21s65.89-16.14,144.9-9.36S602.33,44.79,601.32,56.75Z"/><path class="cls-75" d="M87.18,613.18c-26,2.22-57.74-119.76-70.83-272.5S13.68,62.35,39.74,60.12,97.49,179.88,110.59,332.6,113.24,610.94,87.18,613.18Z"/></g></g></g><g id="character_art" data-name="character art"><g id="art"><g id="slogan"><g id="slogan-2" data-name="slogan"><path class="cls-2" d="M159.88,562.4l-2.51-4.29,30-17.52,2.5,4.29Z"/><path class="cls-2" d="M192.93,575.42l-3-4,5.94-4.5a2.37,2.37,0,0,0,1-1.63,2.4,2.4,0,0,0-.48-1.83,2.36,2.36,0,0,0-1.64-1,2.4,2.4,0,0,0-1.83.48L177,575a2.34,2.34,0,0,0-1,1.63,2.48,2.48,0,0,0,4,2.31l5.94-4.49,3,4L183,582.91a7.44,7.44,0,1,1-9-11.86l15.85-12a7.44,7.44,0,1,1,9,11.86Z"/><path class="cls-2" d="M212.69,576a7.5,7.5,0,0,1,.46,4.46,7.15,7.15,0,0,1-2.24,3.95l-14.6,13.47a7.14,7.14,0,0,1-5.36,2,7.55,7.55,0,0,1-3.17-.86,7.07,7.07,0,0,1-2-1.52,7.48,7.48,0,0,1-1.83-6.58,7.14,7.14,0,0,1,2.25-3.94l14.59-13.47a7.17,7.17,0,0,1,5.34-2,7.39,7.39,0,0,1,3.18.85,7.09,7.09,0,0,1,2,1.54A7,7,0,0,1,212.69,576Zm-19.76,18.23,14.6-13.47a2.44,2.44,0,0,0,.14-3.5,2.47,2.47,0,0,0-3.51-.15l-14.6,13.47a2.39,2.39,0,0,0-.79,1.74,2.34,2.34,0,0,0,.67,1.77,2.39,2.39,0,0,0,1.72.8A2.42,2.42,0,0,0,192.93,594.21Z"/><path class="cls-2" d="M230.8,592.31a7.24,7.24,0,0,1,2.63,5.07,7.13,7.13,0,0,1-1.73,5.43l-17.63,20.86-3.8-3.21,17.63-20.85a2.48,2.48,0,0,0-.31-3.5,2.47,2.47,0,0,0-3.49.29l-17.63,20.86-3.8-3.21L220.3,593.2a2.44,2.44,0,0,0-.3-3.49,2.36,2.36,0,0,0-1.8-.57,2.39,2.39,0,0,0-1.69.86l-17.63,20.86-3.8-3.21,17.63-20.85a7.5,7.5,0,0,1,10.5-.89,7.21,7.21,0,0,1,2.58,4.66A7.18,7.18,0,0,1,230.8,592.31Z"/><path class="cls-2" d="M238.24,598.26l6.22,4a7.48,7.48,0,0,1,2.19,10.33L244,616.77A7.5,7.5,0,0,1,233.62,619l-2.06-1.34-8.12,12.48-4.17-2.71Zm-2.32,16.26a3,3,0,0,0,4.14-.87l2.15-3.31a2.86,2.86,0,0,0,.43-2.25,2.9,2.9,0,0,0-1.3-1.88l-1.65-1.07-5.41,8.31Z"/><path class="cls-2" d="M252.73,607.72l4.42,2.29-12.58,24.23a2.46,2.46,0,0,0,1.06,3.34,2.42,2.42,0,0,0,1.9.16,2.38,2.38,0,0,0,1.46-1.21l12.57-24.23,4.4,2.27-12.57,24.24a7.43,7.43,0,0,1-10,3.18,7.44,7.44,0,0,1-3.18-10Z"/><path class="cls-2" d="M280.07,625.83l-4.6-1.83-11,27.65-4.63-1.84,11-27.65-4.62-1.84,1.84-4.62,13.84,5.51Z"/><path class="cls-2" d="M290.35,639.44l-1.43,4.76-5.53-1.65L280.54,652l5.53,1.66-1.43,4.76-10.29-3.08,10-33.28,10.29,3.08-1.43,4.76-5.53-1.65-2.85,9.5Z"/><path class="cls-2" d="M294.48,660.92l-2.06,2.25-1.68-.39,1.77-2.32-2.85-.66,1.13-4.84,4.82,1.13Z"/><path class="cls-2" d="M327.75,636.1l-4.91-.58-3.53,29.56-4.94-.59,3.53-29.56-4.94-.59.59-4.93,14.79,1.76Z"/><path class="cls-2" d="M345.06,666.35l-5-.07.21-14.88-5-.07-.21,14.88-5-.07.49-34.73,5,.07-.2,14.88,5,.07.21-14.88,5,.07Z"/><path class="cls-2" d="M360,645.63l.36,5-5.75.42.73,9.89,5.76-.42.36,4.95-10.71.79-2.57-34.64,10.72-.79.37,5-5.76.43.73,9.89Z"/><path class="cls-2" d="M378.23,643.07a7.63,7.63,0,0,1-2.81,4.6l.36.83,2,4.71,2,4.68,2,4.7-4.91.8-2-4.7-2-4.69-2-4.7-1.23.2,2.4,14.69-4.9.8-5.61-34.28,7.33-1.2a7.48,7.48,0,0,1,6.54,2.12,7.12,7.12,0,0,1,2.06,4l.8,4.86A7.21,7.21,0,0,1,378.23,643.07Zm-9.39,1.53,2-.32a2.85,2.85,0,0,0,1.92-1.16,3.09,3.09,0,0,0,.55-2.23v0l-.64-3.89a.13.13,0,0,0,0-.06,3,3,0,0,0-1.24-1.92,2.84,2.84,0,0,0-2.18-.49l-2,.32Z"/><path class="cls-2" d="M392.87,639.59l1.23,4.82-5.59,1.42,2.45,9.61,5.59-1.42,1.23,4.81-10.41,2.66-8.6-33.66,10.41-2.66,1.23,4.81-5.59,1.43,2.45,9.61Z"/><path class="cls-2" d="M401.39,637l5.44-1.85,1.6,4.71L403,641.69l4.8,14.1-4.72,1.6-11.17-32.9L402,621.05l1.6,4.7-5.44,1.85Z"/><path class="cls-2" d="M413.78,616.72a7.59,7.59,0,0,1,4.37,1,7.14,7.14,0,0,1,3,3.4l8,18.17a7.18,7.18,0,0,1,.12,5.71,7.55,7.55,0,0,1-1.84,2.71,7.44,7.44,0,0,1-4.55,2,7.42,7.42,0,0,1-4.37-1,7.22,7.22,0,0,1-3-3.4l-8-18.17a7.15,7.15,0,0,1-.13-5.68,7.37,7.37,0,0,1,1.84-2.73,7.44,7.44,0,0,1,4.55-2Zm10.84,24.59-8-18.17a2.45,2.45,0,0,0-3.26-1.27,2.41,2.41,0,0,0-1.33,1.38,2.35,2.35,0,0,0,0,1.89l8,18.17a2.49,2.49,0,0,0,4.55-2Z"/><path class="cls-2" d="M440.35,619.24a7.61,7.61,0,0,1-1.06,5.29l.63.65,3.51,3.73,3.52,3.7,3.53,3.71-4.33,2.44L442.62,635l-3.5-3.7-3.53-3.72-1.09.61,7.31,13-4.33,2.44-17.07-30.27,6.47-3.64a7.35,7.35,0,0,1,2.41-.86,7.59,7.59,0,0,1,4.46.6,7.21,7.21,0,0,1,3.33,3.09l2.42,4.29A7.28,7.28,0,0,1,440.35,619.24Zm-8.29,4.66,1.73-1a2.82,2.82,0,0,0,1.39-1.75,3,3,0,0,0-.24-2.28l0,0L433,615.42l0,0a3.1,3.1,0,0,0-1.82-1.37,2.87,2.87,0,0,0-2.23.29l-1.73,1Z"/><path class="cls-2" d="M452.94,610.93l2.81,4.11L451,618.29l5.61,8.18,4.76-3.25,2.81,4.1-8.87,6.06-19.64-28.67,8.87-6.06,2.81,4.1L442.57,606l5.61,8.18Z"/><path class="cls-2" d="M480.08,614.79,476.3,618l-22.64-26.36,3.77-3.23Z"/><path class="cls-2" d="M471.43,585.9a7.44,7.44,0,0,1,10.06-11l20.15,18.44L498.28,597l-11-10-3.37,3.66,11,10.05-3.34,3.65Zm12.2-2.28-5.5-5a2.49,2.49,0,0,0-3.5.16,2.48,2.48,0,0,0,.14,3.51l5.5,5Z"/><path class="cls-2" d="M487.77,554.43a7.47,7.47,0,0,1,10.4-1.78l22.28,15.81-2.88,4-22.28-15.8a2.47,2.47,0,0,0-3.46.6,2.32,2.32,0,0,0-.42,1.84,2.39,2.39,0,0,0,1,1.61l22.28,15.8-2.88,4.05-22.28-15.8a2.43,2.43,0,0,0-1.85-.44,2.47,2.47,0,0,0-1.6,1,2.47,2.47,0,0,0,.59,3.45L509,584.64l-2.88,4.06-22.28-15.81a7.43,7.43,0,0,1,2.67-13.32A7.1,7.1,0,0,1,487.77,554.43Z"/></g><g id="art-2" data-name="art"><path class="cls-76" d="M488.9,362.56h0l8.32-5a183.75,183.75,0,0,0-113.61-83.45l-2.31,9.34A174,174,0,0,1,488.9,362.56Z"/><path class="cls-76" d="M509,494.51l9.35,2.31a183.35,183.35,0,0,0-21.1-139.28l-8.32,5A173.63,173.63,0,0,1,509,494.51Z"/><path class="cls-77" d="M531.05,377.28l-.14.05a207.14,207.14,0,0,0-32.61-57l-7.64,6.15a196.53,196.53,0,0,1,41.52,94.27c0,.26.09.51.12.77.14.94.26,1.88.38,2.82.1.72.2,1.43.28,2.15,0,.35.08.71.12,1.07a195.29,195.29,0,0,1-16.55,103.58l8.83,4h0a206,206,0,0,0,17.51-63.26h0s0-.08,0-.12A206.1,206.1,0,0,0,531.05,377.28Z"/><path class="cls-78" d="M405.72,250a206.27,206.27,0,0,0-157.6,13.47h0l4.47,8.62,5.82,11.22A184.61,184.61,0,0,1,506.84,362l11.23-5.81,8.63-4.46A205.94,205.94,0,0,0,405.72,250Z"/><path class="cls-76" d="M485.31,544.76A173.64,173.64,0,0,0,504,412.6h0a174.57,174.57,0,0,0-338.09,87.14h0l11.28-2.91h0A162.92,162.92,0,0,1,294.22,298.59h0A163.13,163.13,0,0,1,492.69,415.51h0a162.08,162.08,0,0,1-17.48,123.3Z"/><path class="cls-78" d="M183.71,423.43a153.5,153.5,0,0,1,65.63-97.91l-4.87-7.28a162.24,162.24,0,0,0-69.36,103.48Z"/><path class="cls-78" d="M365,302.51l1.71-8.59a162.58,162.58,0,0,0-122.27,24.32l4.87,7.28A153.79,153.79,0,0,1,365,302.51Z"/><path class="cls-2" d="M222.78,530.59a136,136,0,0,1,18.14-182.44l12.37,15.08a116.54,116.54,0,0,0-15.41,155Z"/><path class="cls-2" d="M409.57,541.29A116.49,116.49,0,0,0,437.12,388l16-11.14A136,136,0,0,1,420.72,557.3Z"/><path class="cls-77" d="M162,382.16A183.63,183.63,0,0,1,263.4,284.29l-4.64-11.74A196.32,196.32,0,0,0,147.94,527.64L159.7,523A183.32,183.32,0,0,1,162,382.16Z"/></g></g><g id="character"><path class="cls-2" d="M280.43,459.94c0,18,14.06,25.84,21.57,25.84s13.6-11.57,13.6-25.84-6.09-25.85-13.6-25.85S280.43,441.9,280.43,459.94Z"/><path class="cls-79" d="M305.81,426.63s-26.37,40.76-23.38,82c0,0,14.43,63.38,20.4,67.85,3.73,2.8,10.78,14.67,40,15.33,12,.27,23.41-.66,41.14-15.58,0,0,17.41-41.25,19.4-82s13.44-68.6-37.82-79.54C330.69,407.27,305.81,426.63,305.81,426.63Z"/><ellipse class="cls-2" cx="259.31" cy="555.73" rx="10.08" ry="10.07"/><path class="cls-80" d="M249.5,549.55a26.26,26.26,0,0,0,10,7.2,25.45,25.45,0,0,0,11.82,1.39L313.2,471c-3.24.2-12.11-3.05-19.48-8.86-8.07-6.37-11-14.39-9.94-19.55Z"/><path class="cls-81" d="M373.72,548.94v-.09c.65-10.17-10.9-18.11-26.28-18.49s-29.15,9.37-29.88,21v.11Z"/><path class="cls-2" d="M326.2,603.91c5.35,2.68,12.31,3.47,19.23,2.3a41.13,41.13,0,0,0,18.6-8c4.84-3.91,8.11-8.74,8.66-13.59-.18-12.15.09-24.44.78-35.66l-56.25,2.51q-1.23,20-.78,39.89C317.29,596.7,320.82,601.23,326.2,603.91Z"/><path class="cls-82" d="M316.74,591.33a13.48,13.48,0,0,0,.09,3.36c0-1.12-.06-2.23-.09-3.35Z"/><path class="cls-82" d="M373,584.46s0,.09,0,.14l.06,3.46A10.85,10.85,0,0,0,373,584.46Z"/><path class="cls-82" d="M324.66,605.59c5.49,3.33,13.4,4.36,21.23,3s15.4-4.9,20.43-9.46c3.82-3.4,6.17-7.34,6.73-11.1L373,584.6c-.55,4.85-3.82,9.68-8.67,13.59a41,41,0,0,1-18.6,8c-6.91,1.17-13.88.38-19.23-2.3s-8.9-7.21-9.75-12.57c0,1.12.05,2.23.09,3.35A15.29,15.29,0,0,0,324.66,605.59Z"/><path class="cls-82" d="M373.5,553.09c.45,4.82-2.37,10.16-7.78,14.37a41.14,41.14,0,0,1-20.94,8c-7.81.76-15.63-.84-20.78-4.56s-7.73-9.31-6.71-14.83c.38,5.44,3.6,10.22,8.67,13.27s11.9,4.36,18.84,3.69a40.5,40.5,0,0,0,19-6.75C369,562.69,372.58,558,373.5,553.09Z"/><path class="cls-2" d="M331,359.45c.08-3.77,6.35-6.64,13.9-6.21s13.53,3.38,13.45,6.81Z"/><path class="cls-2" d="M331.43,387.22c-.52-9.3-.66-18.51-.47-27.77l27.35.6c-.18,8.53,0,17.13.43,25.6Z"/><path class="cls-82" d="M358.25,363.09a11.93,11.93,0,0,1-.68,5.4,12.72,12.72,0,0,1-3.05,4.62,14.9,14.9,0,0,1-9.82,4.18,13.94,13.94,0,0,1-10-3.84,12.57,12.57,0,0,1-3.77-10.7,13.3,13.3,0,0,0,4.78,9.25,13.78,13.78,0,0,0,8.93,3,14.67,14.67,0,0,0,8.83-3.21A13.25,13.25,0,0,0,358.25,363.09Z"/><path class="cls-2" d="M334.6,415.39a241.89,241.89,0,0,1-3.17-28.17l27.31-1.57a214.18,214.18,0,0,0,2.78,24.87Z"/><path class="cls-82" d="M358.92,388.67a11.64,11.64,0,0,1-.23,5.37,12.75,12.75,0,0,1-2.63,4.8,15.2,15.2,0,0,1-9.38,5.07,13.67,13.67,0,0,1-10.33-2.9,12.74,12.74,0,0,1-3.57-4.64,13,13,0,0,1-1.12-5.83,13.4,13.4,0,0,0,5.56,8.91,13.58,13.58,0,0,0,9.17,2.17,15,15,0,0,0,8.5-4A13.1,13.1,0,0,0,358.92,388.67Z"/><path class="cls-2" d="M344.15,444.92A76.4,76.4,0,0,1,338,429.87a133.26,133.26,0,0,1-3.42-14.48l26.92-4.87a107.53,107.53,0,0,0,2.7,11.5,50.36,50.36,0,0,0,3.86,9.65Z"/><path class="cls-82" d="M362.05,413.35a10.27,10.27,0,0,1,.54,2.47,12.18,12.18,0,0,1-.06,2.56,12.79,12.79,0,0,1-1.87,4.88,16.76,16.76,0,0,1-8.25,6.67,12.67,12.67,0,0,1-10.73-.94,12.88,12.88,0,0,1-4.39-4.27,12.72,12.72,0,0,1-1.35-2.87,13.1,13.1,0,0,1-.66-3.05,13.64,13.64,0,0,0,7,8.43,12.73,12.73,0,0,0,9.43.52,16.33,16.33,0,0,0,7.65-5.41A12.84,12.84,0,0,0,362.05,413.35Z"/><path class="cls-2" d="M344.15,444.92a5.41,5.41,0,0,0,2.66,2.36,7.27,7.27,0,0,0,1.84.54,10,10,0,0,0,2.13.08c2.94-.21,6.06-1.77,9-4.2a42.18,42.18,0,0,0,6.64-7.24c.38-.53.71-1,1-1.47a8.72,8.72,0,0,0,.67-1.33,2.36,2.36,0,0,0,.06-2Z"/><g class="cls-83"><rect class="cls-84" x="278" y="406.75" width="127.79" height="189.39"/><polygon class="cls-85" points="289.89 453.97 337.17 431.11 377.48 470.21 417.29 435.58 371.5 410.73 321.24 410.73 292.88 424.64 289.89 453.97"/><path class="cls-86" d="M406.84,440.05s-8-10.93-18.41-6-28.87,49.71-31.36,61.64-4.62,42.19-4.31,49.7c.33,8.12-1.31,38,20.9,40.43S415.3,537,415.3,537,435.2,444,406.84,440.05Z"/><path class="cls-86" d="M329.7,414.37s-6,5.54-7.3,8.62c-1.41,3.27-3,9.11,8.46,11.26S335,417.68,335,417.68,340.15,412.55,329.7,414.37Z"/><path class="cls-86" d="M322.57,552.56a15.73,15.73,0,0,0-10.78-1c-4.26,1.21-6.12,8.29-6.47,11.59-.4,3.74,0,12.76-4.81,14.25s12.94,5.47,12.94,5.47Z"/><polygon class="cls-86" points="335.11 511.01 291.53 503.74 298.45 472.61 343.27 476.68 335.11 511.01"/><polygon class="cls-2" points="335.4 509.82 293.77 502.87 300.38 473.14 343.2 477.03 335.4 509.82"/><g class="cls-87"><polyline class="cls-88" points="293.62 491.43 301.35 483.14 304.43 493.6 307.16 488.33 307.32 496.5 313.37 481.86 314.21 496.05 320.84 486.32 323.54 496.99 329.73 483.32 328.18 502.17 333.41 491.4 333.48 499.36 341.78 486.09"/></g></g><path class="cls-2" d="M415.13,464.58c0,18-14.05,25.84-21.56,25.84S380,478.85,380,464.58s6.09-25.85,13.6-25.85S415.13,446.54,415.13,464.58Z"/><ellipse class="cls-2" cx="309.63" cy="530.66" rx="10.08" ry="10.07"/><path class="cls-80" d="M318.13,538.54s.93-7.82-3-13.14c-3.77-5.15-10.95-5.69-10.95-5.69l75.69-65.93c3.77-1.58,10.8-2.79,19.07,1.65,9.7,5.22,13.73,24.9,8.09,30.2Z"/><path class="cls-85" d="M296.57,429.39l11.38-.67L321.09,528.8s-3.46-1.46-10.8-.9c-7.71.59-11.08,2.61-11.08,2.61Z"/><g class="cls-89"><polygon class="cls-85" points="306.85 441.94 326.24 420.19 302.67 402.79 287.38 405.69 294.03 435.43 306.85 441.94"/><path class="cls-84" d="M304,448.13l9.59-11.88s-8.57-7-15-7.61-12.2,2.94-12.2,2.94l4.18,11.5Z"/></g><path class="cls-2" d="M308.21,410.6a38.82,38.82,0,0,0-10.45-3.36c-6.62-1-7.33-.08-7.33-.08s-.57-1.67.16-2.41,5.67-.56,6.75-.4,11,3.91,11,3.91Z"/><ellipse class="cls-2" cx="317.59" cy="418.95" rx="5.04" ry="5.03"/><path class="cls-80" d="M307,409.18s-1,4.5,2.45,5.54c3,.91,4.57-2.63,4.57-2.63l2.29-13.17s6.08-5.4,3.29-9.39l-8.86,5Z"/><path class="cls-84" d="M290.21,405.45l5.8-12.9,13.22-4.72,10.37,1.7-8.86,5L307,409.18a32,32,0,0,0-10.13-4.25C294.84,404.51,291.82,404.6,290.21,405.45Z"/><polygon class="cls-86" points="296.01 392.55 310.74 394.55 319.6 389.53 309.23 387.83 296.01 392.55"/><ellipse class="cls-2" cx="310.5" cy="410.92" rx="2.85" ry="3.27" transform="translate(-38.96 32.58) rotate(-5.65)"/><path class="cls-85" d="M322.71,401.56a11.69,11.69,0,0,1,8.39-.88l-8.35,20.18a5.6,5.6,0,0,1-6.46.87,5.21,5.21,0,0,1-3.46-5l4.06-8.27S319.81,403,322.71,401.56Z"/><path class="cls-86" d="M313.78,419.78a.38.38,0,0,1,0-.08l4-8.27s2.93-5.53,5.82-6.94a12.35,12.35,0,0,1,6.38-1.24l1.06-2.57a11.69,11.69,0,0,0-8.39.88c-2.9,1.4-5.82,6.94-5.82,6.94l-4.06,8.27A4.88,4.88,0,0,0,313.78,419.78Z"/><ellipse class="cls-2" cx="298.59" cy="357.73" rx="8.55" ry="1.65" transform="translate(-109.69 582.29) rotate(-78.96)"/><ellipse class="cls-2" cx="303.47" cy="358.68" rx="8.55" ry="1.65" transform="translate(-106.68 587.85) rotate(-78.96)"/><rect class="cls-2" x="298.55" y="349.65" width="4.96" height="17.11" transform="translate(73.97 -50.91) rotate(11.01)"/><ellipse class="cls-2" cx="377.55" cy="380.89" rx="8.55" ry="1.65" transform="translate(-116.04 590.62) rotate(-68.27)"/><ellipse class="cls-2" cx="372.93" cy="379.05" rx="8.55" ry="1.65" transform="translate(-117.24 585.17) rotate(-68.27)"/><rect class="cls-2" x="372.76" y="371.41" width="4.96" height="17.11" transform="translate(583.56 871.67) rotate(-158.32)"/><path class="cls-85" d="M302.79,360.19v0c-4.8,16.36,7,28.93,26.55,34.66s39.47,2.47,44.28-13.89v0Z"/><ellipse class="cls-79" cx="338.2" cy="370.62" rx="9.51" ry="36.9" transform="translate(-112.62 590.86) rotate(-73.66)"/><path class="cls-85" d="M377.33,377.35s-15.08,4.9-42.73-3.21-33.13-19-33.13-19l14.31-94.59,96.15,28.65Z"/><ellipse class="cls-90" cx="377.21" cy="344.5" rx="16.42" ry="16.4"/><ellipse class="cls-81" cx="371.62" cy="341.24" rx="7.73" ry="7.72"/><path class="cls-86" d="M381.84,328.76s-15.27-4.82-20.46,12.83c0,0,11.33-7.22,18.58-5.86,10.49,1.95,14.08,11.81,14.08,11.81S395.45,332.75,381.84,328.76Z"/><path class="cls-91" d="M372.16,361.68a17.9,17.9,0,1,1,22.25-12.13A17.91,17.91,0,0,1,372.16,361.68Zm9.26-31.48a14.91,14.91,0,1,0,10.11,18.5A15,15,0,0,0,381.42,330.2Z"/><path class="cls-81" d="M360.23,340.13a37.49,37.49,0,0,1,5.08-3.12,31.9,31.9,0,0,1,5.5-2.25,19.64,19.64,0,0,1,6-.9,15.06,15.06,0,0,1,3.06.39,22.68,22.68,0,0,1,2.88.77,21.05,21.05,0,0,1,5.37,2.62,22.82,22.82,0,0,1,4.39,4c1.28,1.46,2.36,3.06,3.57,4.29a4.16,4.16,0,0,0,2,1.19,4.09,4.09,0,0,0,2.33-.28.75.75,0,0,1,.58,1.39h0a5.75,5.75,0,0,1-3.19.51,5.81,5.81,0,0,1-2.9-1.5c-1.5-1.39-2.61-2.89-3.89-4.19a18.88,18.88,0,0,0-9-5.45,21,21,0,0,0-2.62-.56,11.7,11.7,0,0,0-2.54-.2,16.66,16.66,0,0,0-5.06,1,33,33,0,0,0-9.25,5.23l-.06,0a1.86,1.86,0,0,1-2.31-2.91Z"/><ellipse class="cls-90" cx="319.43" cy="327.56" rx="16.42" ry="16.4"/><ellipse class="cls-81" cx="312.41" cy="323.87" rx="7.73" ry="7.72"/><path class="cls-86" d="M324.06,311.82s15.45,4.18,10.27,21.83c0,0-5.62-12.18-12.46-15-9.88-4-18.24,2.33-18.24,2.33S310.45,307.83,324.06,311.82Z"/><path class="cls-91" d="M314.39,344.73a17.9,17.9,0,1,1,22.24-12.13A17.91,17.91,0,0,1,314.39,344.73Zm9.25-31.48a14.91,14.91,0,1,0,10.11,18.51A14.94,14.94,0,0,0,323.64,313.25Z"/><path class="cls-81" d="M332.57,334.25a33.08,33.08,0,0,0-4.95-9.4,17,17,0,0,0-3.72-3.58,12.65,12.65,0,0,0-2.25-1.2,21.64,21.64,0,0,0-2.5-.94,18.9,18.9,0,0,0-10.52-.27c-1.79.4-3.53,1.06-5.54,1.42a5.82,5.82,0,0,1-3.25-.3,5.76,5.76,0,0,1-2.41-2.15h0a.75.75,0,0,1,1.23-.85,3.56,3.56,0,0,0,4.11,1.55c1.68-.38,3.46-1.14,5.32-1.68a23.17,23.17,0,0,1,5.84-1,20.87,20.87,0,0,1,5.94.7,23.27,23.27,0,0,1,2.83.9,14.2,14.2,0,0,1,2.79,1.33,19.68,19.68,0,0,1,4.59,4,32.38,32.38,0,0,1,3.42,4.87,38.18,38.18,0,0,1,2.59,5.38,1.86,1.86,0,0,1-3.47,1.33l0-.06Z"/><path class="cls-91" d="M308.6,261s2.95,10.57,3.35,16.59a71.79,71.79,0,0,1-.3,10.27s4.77,7.82,41.7,18.71c39.62,11.68,48.43,7.73,48.43,7.73s2.61-4.94,5.44-9.41c2.27-3.58,9.63-12.14,9.63-12.14Z"/><ellipse class="cls-2" cx="362.8" cy="276.63" rx="7.98" ry="56.4" transform="translate(-4.75 546.91) rotate(-73.65)"/><path class="cls-85" d="M364.62,270.4c36.58,10.73,49.88,19.46,50.79,21.61l1.52.45c1.07-4.26-22.09-14.75-51.88-23.49s-55-12.42-56.36-8.26l1.51.44C312.14,259.84,328.05,259.68,364.62,270.4Z"/><path class="cls-91" d="M319.28,242.87s2.37,14.19,2.47,17.57-.2,14.36-.2,14.36S323,283,356.89,292.94c35.49,10.45,41.59,4.43,41.59,4.43s5.74-9.46,7.54-12.07c1.94-2.81,11.65-13.57,11.65-13.57Z"/><ellipse class="cls-2" cx="368.52" cy="257.15" rx="7.26" ry="51.27" transform="translate(18.05 538.41) rotate(-73.65)"/><path class="cls-85" d="M320.87,243.17c.69-.34,3.79-1.27,15.4.53a279.11,279.11,0,0,1,33.87,7.93,279.43,279.43,0,0,1,32.79,11.62c10.74,4.76,12.85,7.22,13.25,7.88l-.18.07,1.66.49a.6.6,0,0,0,.06-.11c1.13-3.85-20-13.42-47.15-21.39s-50.12-11.31-51.25-7.47c0,0,0,.08,0,.12l1.66.49A1,1,0,0,1,320.87,243.17Z"/><line class="cls-92" x1="371.66" y1="245.74" x2="366.34" y2="263.84"/><ellipse class="cls-93" cx="372.95" cy="241.35" rx="16.42" ry="16.4"/><path class="cls-85" d="M415.41,292l0,.06c-1.73,1.34-17.61,1.59-54.47-9.22s-50.09-19.6-50.82-21.67l.05,0-1.51-.44a.05.05,0,0,1,0,0c-1.24,4.23,22,14.77,51.87,23.53s55.14,12.45,56.38,8.22a.06.06,0,0,1,0,0Z"/><path class="cls-85" d="M416,271.2c-1,.38-4.4,1.08-15.23-.6a279.11,279.11,0,0,1-33.87-7.93,279.43,279.43,0,0,1-32.79-11.62c-10-4.44-12.52-6.88-13.14-7.72l-1.66-.49c-.67,3.92,20.27,13.38,47.16,21.27s49.63,11.24,51.19,7.58Z"/><path class="cls-80" d="M332.42,557.54l-1.08-13.06-73.83-.38s-3.39,3.95-2.89,11.29C255.14,563.09,259,566,259,566Z"/><ellipse class="cls-2" cx="333.44" cy="556.94" rx="4.7" ry="4.69"/><path class="cls-84" d="M349.14,563.26a10.85,10.85,0,0,1,.07,7.86l-18-9.56a5.23,5.23,0,0,1-.23-6.07,4.87,4.87,0,0,1,4.93-2.77l7.32,4.51S348.1,560.44,349.14,563.26Z"/><path class="cls-86" d="M333,553.33h.08l7.32,4.51s4.88,3.22,5.93,6a11.46,11.46,0,0,1,.58,6l2.3,1.21a10.85,10.85,0,0,0-.07-7.86c-1-2.82-5.93-6-5.93-6l-7.32-4.51A4.57,4.57,0,0,0,333,553.33Z"/><g class="cls-94"><polygon class="cls-80" points="312.81 552.56 330.11 573.53 349.55 554.31 349.07 539.82 320.66 541.68 312.81 552.56"/><path class="cls-84" d="M312.28,555.92l9.52,9.79s7.79-6.14,9.25-12a20.8,20.8,0,0,0-1-11.65l-11.22,2.2Z"/></g><path class="cls-2" d="M341.55,558.3a36.15,36.15,0,0,0,4.6-9.15c1.85-6,1.12-6.74,1.12-6.74s1.63-.28,2.2.5-.3,5.3-.6,6.27-5.18,9.59-5.18,9.59Z"/><path class="cls-80" d="M343,557.39s-4-1.58-5.47,1.47c-1.27,2.64,1.77,4.58,1.77,4.58l11.84,4s4.11,6.37,8.2,4.37L356,562.92Z"/><path class="cls-84" d="M348.88,542.45l11.08,7.2,2.46,12.85-3,9.31L356,562.92l-13-5.53a29.77,29.77,0,0,0,5.37-8.72C349.08,546.85,349.44,544.06,348.88,542.45Z"/><polygon class="cls-86" points="359.96 549.65 356.01 562.92 359.38 571.81 362.43 562.5 359.96 549.65"/><ellipse class="cls-2" cx="340.92" cy="560.36" rx="2.66" ry="3.06" transform="translate(-237.54 869.58) rotate(-86.81)"/></g></g></g></g></svg>