<svg width="200" height="200" viewBox="0 0 200 200" fill="none" xmlns="http://www.w3.org/2000/svg">
<mask id="mask0_618_13866" style="mask-type:alpha" maskUnits="userSpaceOnUse" x="0" y="0" width="200" height="200">
<circle cx="100" cy="100" r="100" fill="#FF00FF"/>
</mask>
<g mask="url(#mask0_618_13866)">
<circle cx="100" cy="100" r="100" fill="#F5F5F5"/>
<path d="M115.477 163.931H84.8065C84.8065 163.931 90.7349 222.912 100.172 222.912C109.609 222.912 115.477 163.931 115.477 163.931Z" fill="#C9175F"/>
<path d="M104.769 204.159C104.769 204.159 108.157 212.023 113.601 212.265C119.772 212.507 124.732 204.522 124.732 204.522C124.732 204.522 136.649 183.107 137.012 169.436C137.617 146.872 133.685 135.378 133.685 135.378C133.685 135.378 109.064 150.259 108.822 164.052C108.58 177.481 107.249 190.911 104.769 204.159Z" fill="#FF4280"/>
<path d="M94.9692 204.159C94.9692 204.159 91.5816 212.023 86.1372 212.265C79.9669 212.507 75.0064 204.522 75.0064 204.522C75.0064 204.522 63.0892 183.107 62.7262 169.436C62.1818 146.811 66.0534 135.378 66.0534 135.378C66.0534 135.378 90.6742 150.259 90.9162 164.052C91.2186 177.481 92.5495 190.911 94.9692 204.159Z" fill="#FF4280"/>
<path d="M141.368 107.369C141.368 107.369 152.317 121.162 158.245 128.663C164.113 136.164 156.673 143.907 149.716 141.004C142.759 138.1 134.774 131.385 130.116 124.913C125.458 118.44 125.881 98.4769 141.368 107.369Z" fill="#43DCFF"/>
<path d="M158.911 127.695C158.911 127.695 165.565 138.947 171.373 141.609C177.18 144.271 178.874 147.114 177.301 148.324C175.184 149.897 171.191 147.537 170.405 148.263C168.59 149.836 173.853 153.405 169.497 155.159C167.441 156.006 162.057 148.868 159.274 152.8C156.915 156.188 154.858 158.124 152.922 155.704C151.047 153.405 153.951 148.929 149.293 142.698C149.111 142.456 145.361 140.097 145.119 139.794C138.585 132.051 148.446 123.884 158.911 127.695Z" fill="#FFA400"/>
<path d="M163.448 131.809C163.448 131.809 157.822 130.297 153.285 131.567C148.748 132.837 146.389 138.04 147.901 141.609C148.809 143.605 149.232 145.783 149.293 148.021" stroke="#ED6100" stroke-width="1.20987" stroke-miterlimit="10"/>
<path d="M58.3706 107.369C58.3706 107.369 47.4213 121.162 41.493 128.663C35.5646 136.164 43.1263 143.907 50.083 141.004C57.0398 138.1 65.0249 131.385 69.6829 124.973C74.3409 118.561 73.9174 98.4769 58.3706 107.369Z" fill="#43DCFF"/>
<path d="M40.8281 127.695C40.8281 127.695 34.1739 138.947 28.3665 141.609C22.5591 144.271 20.8653 147.114 22.4381 148.324C24.5554 149.897 28.4875 147.537 29.3344 148.263C31.1492 149.836 25.8863 153.405 30.2418 155.159C32.2986 156.006 37.6825 148.868 40.4047 152.8C42.7639 156.188 44.8207 158.124 46.7565 155.704C48.6318 153.405 45.7281 148.929 50.3861 142.698C50.5676 142.456 54.3182 140.097 54.5601 139.794C61.2144 132.051 51.2935 123.884 40.8281 127.695Z" fill="#FFA400"/>
<path d="M36.4115 131.809C36.4115 131.809 42.0374 130.297 46.5744 131.567C51.1114 132.837 53.4706 138.04 51.9583 141.609C51.0509 143.605 50.6274 145.783 50.6274 148.021" stroke="#ED6100" stroke-width="1.20987" stroke-miterlimit="10"/>
<path d="M138.525 99.0215L149.233 109.608C149.233 109.608 145.542 120.436 137.073 126.304L132.657 107.188L138.525 99.0215Z" fill="#FF4280"/>
<path d="M61.275 99.0215L50.5677 109.608C50.5677 109.608 54.2578 120.436 62.7874 126.304L67.2034 107.188L61.275 99.0215Z" fill="#FF4280"/>
<path d="M138.585 90.5524H61.4564V181.413H138.585V90.5524Z" fill="#FF4280"/>
<path d="M132.596 107.188C132.596 107.188 132.354 136.104 116.807 155.341C107.31 167.077 108.157 177.602 108.157 177.602H91.5815C91.5815 177.602 92.4284 167.077 82.9309 155.341C67.3841 136.104 67.1422 107.188 67.1422 107.188H132.596Z" stroke="#E82169" stroke-width="1.20987" stroke-miterlimit="10"/>
<path d="M149.958 67.3229C149.958 96.3598 105.919 121.767 99.8693 121.767C93.82 121.767 49.7808 96.2993 49.7808 67.3229C49.7808 38.3466 73.3127 14.7542 99.9298 14.7542C126.547 14.7542 149.958 38.2861 149.958 67.3229Z" fill="#9AE0E2" fill-opacity="0.2" stroke="#9AE0E2" stroke-width="1.91764" stroke-miterlimit="10"/>
<path d="M123.462 61.9995C119.288 55.8291 113.178 43.8514 99.8694 43.8514C86.5609 43.8514 80.5115 55.8291 76.3375 61.9995C68.7153 73.3117 64.8438 93.2745 64.8438 93.2745C64.8438 93.2745 73.9178 120.436 99.9299 120.436C125.942 120.436 134.956 93.2745 134.956 93.2745C134.956 93.2745 131.084 73.3722 123.462 61.9995Z" fill="#43DCFF"/>
<path d="M126.002 105.555C120.194 116.746 111.241 123.4 99.8687 123.4C88.4959 123.4 78.817 115.355 73.7355 105.555C71.0738 100.473 68.9565 87.7091 68.9565 87.7091C68.9565 87.7091 69.9849 99.6867 73.7355 87.5276C77.3651 75.7314 99.8687 86.4387 99.8687 86.4387C99.8687 86.4387 124.006 81.2968 126.062 87.5276C130.115 99.9892 130.72 87.7091 130.72 87.7091C130.72 87.7091 128.603 100.413 126.002 105.555Z" fill="#00B0FF"/>
<path d="M130.782 87.5277C130.963 88.4351 131.084 89.3425 131.145 90.2499C131.145 90.7339 131.145 91.2178 131.145 91.6413C131.145 92.1857 131.024 92.6697 130.842 93.2141C130.721 93.5771 130.479 93.94 130.177 94.182C129.935 94.3635 129.632 94.545 129.269 94.545C128.967 94.6055 128.604 94.545 128.301 94.424C127.878 94.2425 127.515 94.0005 127.213 93.6981C127.092 93.5771 126.971 93.4561 126.91 93.3351L126.668 92.9721C126.366 92.5487 126.124 92.1252 125.882 91.7018L125.156 90.5524C124.43 89.1611 123.401 87.9512 122.252 86.9228C121.829 86.5598 121.345 86.3179 120.8 86.2574C120.437 86.1969 120.014 86.2574 119.651 86.3784C119.53 86.3784 119.469 86.4389 119.409 86.4993L119.288 86.5598L119.046 86.6203C118.743 86.6808 118.441 86.8018 118.139 86.9228C117.534 87.1648 116.989 87.4067 116.445 87.7092C115.295 88.3141 114.025 89.1006 112.392 89.9475C110.577 90.9154 108.641 91.7018 106.645 92.2462C104.467 92.8512 102.229 93.1536 99.9905 93.1536C97.7523 93.1536 95.514 92.8512 93.3363 92.2462C91.34 91.7018 89.4647 90.9154 87.6499 89.887C86.0166 89.0401 84.7462 88.1932 83.5968 87.5882C83.0524 87.2858 82.4474 86.9833 81.8425 86.7413C81.54 86.6203 81.2376 86.4993 80.9351 86.4389L80.5721 86.3784L80.4512 86.3179C80.3302 86.2574 80.2697 86.2574 80.1487 86.1969C79.7857 86.0154 79.3623 86.0154 78.9388 86.0759C78.3944 86.1969 77.8499 86.4389 77.4265 86.8018C76.2166 87.8302 75.2487 89.0401 74.4623 90.4314L73.7364 91.5808C73.4944 92.0043 73.2524 92.3672 72.95 92.8512C72.7685 93.0931 72.587 93.3351 72.4055 93.5166C72.1031 93.819 71.8006 94.061 71.4376 94.182C71.1957 94.303 70.8932 94.303 70.5907 94.303C70.2883 94.2425 70.0463 94.1215 69.8043 93.94C69.5019 93.6981 69.3204 93.3956 69.1994 93.0326C69.0179 92.5487 68.9574 92.0647 68.8969 91.5203C68.8364 91.0364 68.8364 90.6129 68.8364 90.1289C68.8364 89.2215 68.8969 88.3142 69.0179 87.4672C69.1994 88.3142 69.4414 89.2215 69.6833 90.008C69.8043 90.4314 69.9858 90.8549 70.1673 91.2178C70.3488 91.5808 70.5302 91.8833 70.7722 92.1857C70.8932 92.3067 71.0142 92.3672 70.9537 92.3067C70.8932 92.2462 70.8327 92.1857 70.7722 92.1857C70.7117 92.1857 70.6512 92.1857 70.5907 92.1857C70.5302 92.1252 70.5907 92.1252 70.5907 92.0042C70.5907 91.8833 70.7117 91.7623 70.7117 91.5808C70.8932 90.9154 71.0747 90.008 71.1957 89.1611C71.4981 87.1648 72.0426 85.229 72.8895 83.4142C73.4339 82.2648 74.1598 81.2969 75.0672 80.45C76.0956 79.4821 77.366 78.7562 78.6969 78.3327C79.0598 78.2117 79.3623 78.1513 79.7252 78.0303L80.2092 77.9093L80.6326 77.8488C81.1771 77.7278 81.782 77.6673 82.3265 77.6068C83.4758 77.4858 84.6252 77.4858 85.7746 77.6068C87.7709 77.8488 89.7671 78.1513 91.7029 78.6352C94.3646 79.3006 97.0868 79.6636 99.8695 79.6636C102.592 79.6031 105.314 79.2401 107.976 78.5142C109.911 78.0303 111.908 77.6673 113.904 77.4253C115.053 77.3043 116.203 77.3043 117.352 77.4253C117.957 77.4858 118.502 77.5463 119.106 77.6673L119.53 77.7278L120.074 77.8488C120.437 77.9093 120.8 78.0303 121.103 78.1513C122.494 78.5747 123.764 79.3006 124.793 80.2685C125.7 81.1154 126.487 82.1438 127.031 83.2932C127.878 85.108 128.483 87.1043 128.785 89.1006C128.967 89.9475 129.088 90.8549 129.269 91.5203L129.39 91.9438C129.451 92.0042 129.39 92.0647 129.33 92.0647C129.209 92.0647 129.088 92.0647 129.027 92.0647C128.906 92.0647 128.785 92.1252 128.725 92.2462C128.664 92.3672 128.785 92.3067 128.846 92.1857C129.088 91.8833 129.269 91.5808 129.39 91.2783C129.572 90.8549 129.753 90.4919 129.874 90.0685C130.177 89.2215 130.479 88.3746 130.782 87.5277Z" fill="#0049FF"/>
<path d="M98.4775 51.8969L95.3318 31.8131C94.9689 29.3329 96.6627 26.9736 99.1429 26.5502C101.623 26.1872 103.982 27.881 104.406 30.3613C104.466 30.8452 104.466 31.3291 104.406 31.7526L101.26 51.8969C101.139 52.6833 100.413 53.1673 99.6874 53.1068C99.0824 53.0463 98.5985 52.5623 98.4775 51.8969Z" fill="#FFA400"/>
<path d="M99.8693 62.7253C100.905 62.7253 101.745 61.8857 101.745 60.85C101.745 59.8143 100.905 58.9747 99.8693 58.9747C98.8336 58.9747 97.994 59.8143 97.994 60.85C97.994 61.8857 98.8336 62.7253 99.8693 62.7253Z" fill="#00B0FF"/>
<path d="M95.5741 69.1983C96.6098 69.1983 97.4494 68.3587 97.4494 67.323C97.4494 66.2874 96.6098 65.4478 95.5741 65.4478C94.5384 65.4478 93.6988 66.2874 93.6988 67.323C93.6988 68.3587 94.5384 69.1983 95.5741 69.1983Z" fill="#00B0FF"/>
<path d="M104.164 69.1983C105.2 69.1983 106.039 68.3587 106.039 67.323C106.039 66.2874 105.2 65.4478 104.164 65.4478C103.128 65.4478 102.289 66.2874 102.289 67.323C102.289 68.3587 103.128 69.1983 104.164 69.1983Z" fill="#00B0FF"/>
<path d="M91.5206 46.5131V49.1144C91.5206 49.1144 86.9231 49.4168 84.9268 50.8687C83.7774 51.6551 82.9305 52.8045 82.5676 54.1353C82.5676 54.1353 82.9305 47.481 85.8342 46.8761C87.649 46.5131 89.5848 46.3922 91.5206 46.5131Z" fill="#0049FF"/>
<path d="M108.278 46.5131V49.1144C108.278 49.1144 112.875 49.4168 114.871 50.8687C116.021 51.6551 116.868 52.8045 117.231 54.1353C117.231 54.1353 116.868 47.481 113.964 46.8761C112.089 46.5131 110.153 46.3922 108.278 46.5131Z" fill="#0049FF"/>
<path d="M76.1557 59.2167C73.857 64.4191 75.1878 68.8956 77.9705 71.2549C80.7532 73.6141 84.0803 68.8956 86.3791 63.6932C88.6778 58.4908 89.8272 52.4414 86.2581 52.381C82.689 52.3205 78.4544 54.0143 76.1557 59.2167Z" fill="#E9FCFF"/>
<path d="M85.637 63.5452C87.4619 59.4937 87.5337 55.5752 85.7973 54.7931C84.0609 54.011 81.1739 56.6614 79.349 60.713C77.524 64.7645 77.4522 68.683 79.1886 69.4651C80.925 70.2472 83.812 67.5968 85.637 63.5452Z" fill="#FFA400"/>
<path d="M84.4787 63.0235C85.6313 60.4646 85.6766 57.9898 84.5799 57.4958C83.4833 57.0018 81.6599 58.6758 80.5073 61.2347C79.3547 63.7935 79.3094 66.2684 80.406 66.7623C81.5027 67.2563 83.3261 65.5824 84.4787 63.0235Z" fill="black"/>
<path d="M123.582 59.2167C125.881 64.4191 124.55 68.8956 121.768 71.2549C118.985 73.6141 115.658 68.8956 113.359 63.6932C111.06 58.4908 109.911 52.4414 113.48 52.381C117.049 52.3205 121.284 54.0143 123.582 59.2167Z" fill="#E9FCFF"/>
<path d="M120.537 69.4706C122.274 68.6885 122.202 64.77 120.377 60.7184C118.552 56.6669 115.665 54.0165 113.929 54.7986C112.192 55.5807 112.264 59.4992 114.089 63.5507C115.914 67.6023 118.801 70.2527 120.537 69.4706Z" fill="#FFA400"/>
<path d="M119.32 66.7677C120.417 66.2738 120.371 63.799 119.219 61.2401C118.066 58.6812 116.243 57.0073 115.146 57.5012C114.049 57.9952 114.095 60.47 115.247 63.0289C116.4 65.5878 118.223 67.2617 119.32 66.7677Z" fill="black"/>
<path d="M117.231 40.3429C119.336 40.3429 121.042 38.6366 121.042 36.5318C121.042 34.427 119.336 32.7207 117.231 32.7207C115.126 32.7207 113.42 34.427 113.42 36.5318C113.42 38.6366 115.126 40.3429 117.231 40.3429Z" fill="white"/>
<path d="M129.813 54.1353C131.049 54.1353 132.052 53.1332 132.052 51.8971C132.052 50.6609 131.049 49.6588 129.813 49.6588C128.577 49.6588 127.575 50.6609 127.575 51.8971C127.575 53.1332 128.577 54.1353 129.813 54.1353Z" fill="white"/>
<path d="M129.45 43.3675C130.887 43.3675 132.051 42.2029 132.051 40.7663C132.051 39.3296 130.887 38.165 129.45 38.165C128.014 38.165 126.849 39.3296 126.849 40.7663C126.849 42.2029 128.014 43.3675 129.45 43.3675Z" fill="white"/>
<path opacity="0.7" d="M65.6907 56.3735C63.6944 55.3451 61.7586 54.1352 59.9438 52.8649C55.4068 78.4536 67.203 90.5523 67.203 90.5523C63.029 76.0943 63.3919 64.9031 65.6907 56.3735Z" fill="white"/>
<path d="M84.806 24.2516C84.806 24.2516 66.174 31.0268 60.9111 48.7514C62.7864 50.2033 64.8431 51.5341 66.9604 52.623C72.3443 37.9836 83.5961 32.6602 83.5961 32.6602C82.7492 30.4824 84.806 24.2516 84.806 24.2516Z" fill="white"/>
<path opacity="0.7" d="M137.072 54.1352C137.072 54.1352 142.456 75.4289 124.732 97.8114C124.732 97.8114 141.307 84.4424 143.001 67.2018C144.695 49.9611 137.072 54.1352 137.072 54.1352Z" fill="white"/>
<path d="M62.4845 92.246C62.4845 92.246 61.0327 88.7374 57.4635 92.246C53.8339 95.7546 55.4673 96.9645 57.4635 101.381C59.4598 105.797 69.7437 137.011 99.9299 137.011V121.767C93.1547 121.162 84.7461 120.98 75.0671 107.49C64.8437 93.2744 62.4845 92.246 62.4845 92.246Z" fill="#E82169"/>
<path d="M137.315 92.246C137.315 92.246 138.766 88.7374 142.336 92.246C145.965 95.7546 144.332 96.9645 142.336 101.381C140.339 105.797 130.055 137.011 99.9296 137.011V121.767C106.705 121.162 115.113 120.98 124.792 107.49C134.955 93.2744 137.315 92.246 137.315 92.246Z" fill="#E82169"/>
</g>
</svg>
