<svg width="200" height="200" viewBox="0 0 200 200" fill="none" xmlns="http://www.w3.org/2000/svg">
<mask id="mask0_618_13825" style="mask-type:alpha" maskUnits="userSpaceOnUse" x="0" y="0" width="200" height="200">
<circle cx="100" cy="100" r="100" fill="#FF00FF"/>
</mask>
<g mask="url(#mask0_618_13825)">
<circle cx="100" cy="100" r="100" fill="#F5F5F5"/>
<path d="M91.5717 162.824C91.796 166.825 91.983 171.013 89.7394 174.602C88.9168 175.911 87.7576 177.332 88.3933 178.716C89.029 180.174 91.2725 180.698 93.217 180.66C95.1614 180.623 97.4798 179.987 98.1528 178.454C98.6763 177.332 98.1902 176.136 97.8537 174.976C96.6945 171.312 96.9189 167.348 98.452 163.796L91.5717 162.824Z" fill="#FD7922"/>
<path d="M119.317 163.572C119.093 167.573 118.906 171.761 121.15 175.35C121.972 176.659 123.132 178.08 122.496 179.464C121.86 180.922 119.617 181.445 117.672 181.408C115.69 181.371 113.409 180.735 112.736 179.202C112.213 178.08 112.699 176.884 113.036 175.724C114.195 172.06 113.97 168.096 112.475 164.544L119.317 163.572Z" fill="#FD7922"/>
<path d="M145.753 139.566C151.063 140.351 155.887 144.277 158.242 149.662C160.598 155.196 160.449 161.478 157.831 166.862C157.083 168.321 156.148 169.742 155.775 171.424C155.401 173.107 155.887 175.164 157.308 175.837C158.841 176.584 160.785 175.351 162.281 176.211C163.964 177.145 163.851 180.099 162.505 181.52C161.159 182.941 159.102 183.166 157.27 182.979C154.69 182.754 151.848 181.857 150.54 179.426C149.493 177.482 149.605 174.977 150.053 172.77C150.502 170.564 151.4 168.395 151.773 166.152C152.447 162.151 151.512 158.038 149.156 154.747C146.838 151.643 143.285 149.699 139.658 149.699L145.753 139.566Z" fill="#FD7922"/>
<path d="M68.7986 135.826C63.4888 136.611 58.6652 140.538 56.3094 145.922C53.9537 151.456 54.1032 157.738 56.7581 163.123C57.506 164.581 58.4408 166.002 58.8147 167.685C59.1887 169.368 58.7026 171.424 57.2816 172.097C55.7485 172.845 53.8041 171.611 52.3084 172.471C50.6257 173.406 50.7379 176.36 52.084 177.781C53.4302 179.202 55.4868 179.426 57.319 179.239C59.8991 179.015 62.741 178.117 64.0497 175.687C65.0967 173.743 64.9846 171.237 64.5358 169.031C64.0871 166.825 63.1523 164.693 62.8158 162.412C62.1427 158.411 63.0775 154.298 65.4333 151.008C67.7516 147.904 71.3039 145.96 74.9311 145.96L68.7986 135.826Z" fill="#E46D1F"/>
<path d="M81.5126 141.622C83.8684 147.156 82.2605 153.139 77.9229 155.009C73.5854 156.879 68.0886 153.924 65.7329 148.428C63.3771 142.931 62.704 131.676 67.079 129.843C71.4166 127.936 79.1569 136.088 81.5126 141.622Z" fill="#DDEE64"/>
<path d="M131.208 143.193C129.899 149.063 132.554 154.635 137.191 155.682C141.79 156.729 146.651 152.803 147.96 146.97C149.269 141.136 147.848 129.956 143.248 128.946C138.574 127.862 132.517 137.322 131.208 143.193Z" fill="#DDEE64"/>
<path d="M120.999 81.4197C121.486 94.0211 130.759 104.678 138.761 114.961C140.743 117.504 142.351 120.346 143.51 123.374C146.763 131.788 146.277 141.061 143.248 149.998C140.892 156.916 134.835 162.525 127.768 165.815C120.962 168.956 113.184 170.153 105.519 170.153C97.8532 170.153 90.0755 168.956 83.27 165.815C76.1654 162.487 70.1451 156.953 67.7894 149.998C64.9475 141.772 64.3866 133.246 66.8546 125.356C68.0511 121.58 69.8834 118.065 72.3139 114.961C80.2786 104.603 89.5894 94.0211 90.0755 81.4197H120.999Z" fill="#02799E"/>
<path d="M85.8131 147.493C85.8131 153.476 81.999 158.374 77.2501 158.374C72.5012 158.374 68.6871 153.476 68.6871 147.493C68.6871 141.51 72.5012 130.965 77.2501 130.965C81.999 130.965 85.8131 141.473 85.8131 147.493Z" fill="#DDEE64"/>
<path d="M129.6 149.624C129.6 156.168 125.412 161.515 120.215 161.515C115.017 161.515 110.829 156.168 110.829 149.624C110.829 143.081 115.017 131.489 120.215 131.489C125.412 131.489 129.6 143.006 129.6 149.624Z" fill="#DDEE64"/>
<path d="M65.5836 116.158C91.5343 124.384 119.392 124.384 145.343 116.158" stroke="#026684" stroke-width="1.90704" stroke-miterlimit="10"/>
<path d="M80.1296 120.159C88.8047 112.119 93.3293 99.8918 96.0963 87.4026" stroke="#026684" stroke-width="1.90704" stroke-miterlimit="10"/>
<path d="M117.074 121.206C109.707 111.97 107.09 99.1439 106.267 86.3929" stroke="#026684" stroke-width="1.90704" stroke-miterlimit="10"/>
<path d="M106.08 88.9356C102.415 88.9356 98.6759 88.8234 95.0488 88.6365C92.3565 88.4869 88.8041 87.7016 87.2336 84.6354C86.224 82.6536 86.4858 80.2978 87.9067 78.6152C88.9911 77.269 91.3095 75.6611 95.8714 75.6611H96.8062C99.835 75.8107 102.939 75.9229 106.005 75.9229C109.071 75.9229 112.212 75.8107 115.203 75.6611H116.176C118.681 75.6611 122.121 76.1846 124.178 78.6152C125.599 80.2978 125.898 82.691 124.851 84.6354C124.028 86.3181 121.972 88.3747 117.036 88.6365C113.483 88.8234 109.782 88.9356 106.08 88.9356Z" fill="#DDEE64"/>
<path d="M120.176 78.0169C120.176 78.503 119.092 78.9517 117.447 79.0265C109.893 79.5126 102.303 79.5126 94.7118 79.0265C92.8047 78.9143 91.6829 78.3534 92.0195 77.7551C92.3934 77.269 93.7021 76.9699 95.1605 76.9699H95.7588C102.602 77.3812 109.445 77.3812 116.287 76.9699C117.97 76.8577 119.653 77.1942 120.064 77.7551C120.139 77.7925 120.176 77.9047 120.176 78.0169Z" fill="#9FAC48"/>
<path d="M141.303 33.7812C137.19 33.7064 133.339 35.763 131.058 39.2031C128.59 39.7266 126.234 38.3057 126.234 38.2683C120.251 34.8656 113.483 32.9585 106.603 32.809C99.9843 32.6968 93.4779 34.2673 87.6073 37.3335C87.6073 37.3709 85.6254 38.717 83.9428 37.2213C82.634 34.4542 80.4278 32.7342 78.0347 32.8837C74.2954 33.1455 71.3788 37.9318 71.5283 43.5407C71.6779 49.1496 74.8189 53.6368 78.5582 53.5246C81.0261 53.4498 83.1575 51.3932 84.3167 48.4018C85.8498 47.6539 87.2707 49.0001 87.2707 49.0001C94.1884 52.702 95.3476 65.0416 95.3102 73.4176C95.3102 76.1473 95.1606 78.8396 94.8615 81.5319L105.182 82.3545L115.764 83.2145C115.764 83.2145 113.969 55.469 125.86 50.4958C127.019 49.9723 128.291 49.7479 129.562 49.7853C131.058 54.6838 135.433 58.0865 140.556 58.3483C147.249 58.6474 152.933 53.3002 153.157 46.42C153.381 39.5397 147.997 33.8934 141.303 33.7812Z" fill="#FD7922"/>
<path d="M77.0994 37.3336C79.2308 37.2214 81.0631 39.7267 81.1379 42.9799C81.2126 46.2331 79.53 48.9254 77.3986 49.0375C75.2672 49.1497 73.4723 46.607 73.3975 43.3912C73.3227 40.1754 74.968 37.4832 77.0994 37.3336Z" fill="white"/>
<path d="M78.1841 37.9317C79.5677 37.8569 80.7642 39.5022 80.8016 41.5962C80.839 43.6902 79.7546 45.4476 78.3711 45.5224C76.9876 45.5972 75.8284 43.9519 75.7536 41.8579C75.6788 39.7639 76.8006 38.0064 78.1841 37.9317Z" fill="#754C24"/>
<path d="M139.845 39.1283C143.696 39.1657 146.763 42.2693 146.763 46.1208C146.763 49.9722 143.584 53.0385 139.77 53.0385C135.919 53.0011 132.853 49.8975 132.853 46.046C132.853 45.9712 132.853 45.9338 132.853 45.859C132.927 42.0823 136.068 39.0535 139.845 39.1283Z" fill="white"/>
<path d="M137.9 39.8387C140.368 39.876 142.387 41.8953 142.35 44.3632C142.313 46.8311 140.293 48.8503 137.826 48.8129C135.358 48.7755 133.338 46.7563 133.376 44.2884C133.376 44.251 133.376 44.251 133.376 44.2136C133.451 41.7831 135.47 39.8013 137.9 39.8387Z" fill="#754C24"/>
<path d="M103.425 37.7074C108.959 37.8195 113.334 42.718 113.147 48.5887C112.96 54.4594 108.286 59.0213 102.789 58.7595C97.3297 58.4978 93.1417 53.6367 93.2912 47.8782C93.4408 42.1197 97.9653 37.5952 103.425 37.7074Z" fill="white"/>
<path d="M103.425 37.7821C106.528 37.8569 108.959 40.5866 108.884 43.8771C108.809 47.1677 106.192 49.7478 103.088 49.6356C99.9846 49.5235 97.6289 46.7938 97.7036 43.5406C97.7784 40.2874 100.321 37.7073 103.425 37.7821Z" fill="#754C24"/>
<path d="M97.4794 67.4346C99.0499 66.425 100.882 65.9763 102.752 66.0885C104.659 66.2007 106.491 66.9111 107.987 68.1077C106.341 67.3224 104.584 66.8363 102.752 66.6868C100.957 66.612 99.162 66.8737 97.4794 67.4346Z" fill="#754C24"/>
<path d="M104.284 33.0332V18.1882" stroke="#FD7922" stroke-width="1.14422" stroke-miterlimit="10"/>
<path d="M104.284 19.9831C105.276 19.9831 106.079 19.1796 106.079 18.1883C106.079 17.197 105.276 16.3934 104.284 16.3934C103.293 16.3934 102.489 17.197 102.489 18.1883C102.489 19.1796 103.293 19.9831 104.284 19.9831Z" fill="#FD7922"/>
<path d="M104.285 28.8826C107.919 28.8826 110.866 28.464 110.866 27.9478C110.866 27.4315 107.919 27.0129 104.285 27.0129C100.65 27.0129 97.7035 27.4315 97.7035 27.9478C97.7035 28.464 100.65 28.8826 104.285 28.8826Z" stroke="#FD7922" stroke-width="1.047" stroke-miterlimit="10"/>
<path d="M104.284 24.0588C106.659 24.0588 108.584 23.7742 108.584 23.4232C108.584 23.0721 106.659 22.7875 104.284 22.7875C101.909 22.7875 99.984 23.0721 99.984 23.4232C99.984 23.7742 101.909 24.0588 104.284 24.0588Z" stroke="#FD7922" stroke-width="0.762814" stroke-miterlimit="10"/>
<path d="M124.215 78.5776H119.653C118.98 78.8394 118.232 79.0264 117.484 79.0637C109.931 79.5499 102.34 79.5499 94.7493 79.0637C94.0015 79.0637 93.2536 78.9142 92.5805 78.5776H88.0186C86.5603 80.2603 86.2985 82.6535 87.3455 84.5979C88.916 87.6267 92.431 88.412 95.1606 88.5989C98.7877 88.8233 102.527 88.8981 106.192 88.8981C109.856 88.8981 113.595 88.7859 117.222 88.5989C122.121 88.3372 124.14 86.2806 125.038 84.5979C125.898 82.6161 125.598 80.2603 124.215 78.5776Z" fill="#DDEE64"/>
<path d="M81.5126 147.68C80.7647 151.531 76.6889 154.485 72.4635 154.298C67.6398 154.149 62.9657 152.466 59.1143 149.549C53.3558 144.913 50.3643 137.696 51.187 130.367C51.4113 128.31 51.9722 126.216 51.6357 124.197C51.2991 122.178 49.6913 120.196 47.5225 120.233C45.1293 120.308 43.2223 122.739 40.8665 122.701C38.249 122.664 36.9403 119.336 37.9873 117.018C39.0343 114.699 41.6144 113.278 44.0823 112.343C47.5225 111.035 51.6357 110.474 54.5897 112.343C56.9455 113.877 58.0299 116.681 58.4786 119.411C58.9273 122.14 58.8525 124.982 59.4134 127.675C60.5726 132.536 63.9005 136.574 68.4625 138.631C70.4443 139.528 72.6131 140.052 74.7819 140.164C74.894 140.164 74.9688 140.201 75.081 140.201C79.4934 140.426 82.41 143.791 81.5126 147.68Z" fill="#FD7922"/>
<path d="M126.197 151.045C124.701 154.971 119.84 157.402 115.391 156.467C110.305 155.42 105.669 152.84 102.079 149.063C96.8064 143.155 94.9368 134.929 97.1055 127.301C97.7038 125.169 98.676 123.038 98.676 120.832C98.676 118.626 97.3299 116.232 95.0115 115.896C92.4688 115.559 90.0009 117.766 87.4956 117.317C84.7285 116.793 83.9433 113.054 85.4764 110.773C87.0095 108.529 89.9635 107.445 92.768 106.922C96.6568 106.136 101.107 106.286 103.948 108.829C106.155 110.885 106.828 114.026 106.828 117.018C106.828 120.009 106.229 123.001 106.342 125.955C106.716 131.302 109.52 136.2 113.97 139.192C115.914 140.5 118.12 141.435 120.401 141.959C120.513 141.996 120.588 142.033 120.738 142.033C125.262 142.968 127.73 147.082 126.197 151.045Z" fill="#FD7922"/>
</g>
</svg>
