<svg width="200" height="200" viewBox="0 0 200 200" fill="none" xmlns="http://www.w3.org/2000/svg">
<mask id="mask0_618_13586" style="mask-type:alpha" maskUnits="userSpaceOnUse" x="0" y="0" width="201" height="200">
<circle cx="100" cy="100" r="100" fill="#FF00FF"/>
</mask>
<g mask="url(#mask0_618_13586)">
<circle cx="100" cy="100" r="100" fill="#F5F5F5"/>
<path d="M140.432 97.4316C140.432 110.202 135.196 124.369 133.014 129.197C131.938 131.583 127.226 135.044 122.135 137.575C119.837 138.739 117.422 139.641 114.921 140.281C112.39 140.891 110.208 140.921 108.841 140.106C108.347 139.815 107.823 139.612 107.27 139.466C103.285 138.332 96.3034 139.292 89.1765 140.135C85.1621 140.63 81.1187 141.066 77.5697 141.095C72.3918 141.124 68.0284 140.222 64.8576 139.001C61.425 137.663 59.3887 135.975 59.2142 134.754C59.0106 133.212 60.2323 132.252 59.5051 131.437C59.1269 131.03 58.1961 130.652 56.2471 130.274C53.7163 129.75 52.2036 128.587 51.3891 127.132C50.371 125.358 50.4001 123.205 50.7782 121.46C51.4473 118.289 44.2622 116.078 44.2622 116.078C44.2622 116.078 46.4148 112.587 51.2146 108.777C56.0144 104.966 71.1118 94.8718 71.81 76.1672C72.5081 57.4626 84.3767 53.7682 84.3767 53.7682C103.576 47.3976 123.269 55.2517 123.269 55.2517C123.269 55.2517 132.433 66.5967 134.876 73.8691C137.32 81.1415 140.403 88.7339 140.432 97.4316Z" fill="#AE1D9E"/>
<path d="M84.6683 68.2837C84.581 68.72 81.5848 83.1776 75.6505 95.2206C69.5708 107.467 51.3898 127.103 51.3898 127.103C50.3717 125.328 50.4008 123.176 50.7789 121.43C75.8832 99.5259 84.4647 68.9528 84.6683 68.2837Z" fill="#770D7B"/>
<path d="M81.264 113.14C74.777 126.289 67.9991 135.161 64.8284 138.972C61.3958 137.634 59.3595 135.946 59.185 134.725C58.9814 133.183 60.2031 132.223 59.4759 131.408C59.4759 131.408 72.3917 120.122 78.3259 106.275C84.2602 92.4283 87.0819 74.5091 86.6165 65.5786C86.6456 65.5786 90.1654 95.1918 81.264 113.14Z" fill="#770D7B"/>
<path d="M135.807 97.6937C134.876 111.831 127.866 125.242 127.866 125.242L122.106 137.546C119.808 138.71 117.393 139.612 114.892 140.252C115.037 139.99 126.004 121.46 129.756 109.62C133.538 97.6937 132.025 80.5308 122.513 57.9282C122.949 58.7136 136.738 83.7598 135.807 97.6937Z" fill="#770D7B"/>
<path d="M129 94.872C127.342 104.035 119.43 119.133 117.539 122.333C116.201 124.572 110.528 133.997 107.241 139.437C103.256 138.303 96.2744 139.263 89.1475 140.106C93.1036 134.667 112.361 107.439 116.317 87.0469C120.739 64.2988 122.542 57.9282 122.542 57.9282C122.542 57.9282 131.647 80.3563 129 94.872Z" fill="#770D7B"/>
<path d="M87.81 70.1455C87.7227 74.0726 81.992 80.8214 76.7268 86.203C72.2179 90.8282 68.0581 94.4353 68.0581 94.4353C68.0581 94.4353 63.4911 94.7553 61.0185 93.3299C59.0985 92.2245 59.0695 89.6355 59.3313 87.9193C59.5349 86.4939 59.884 85.1267 60.3203 83.7594C60.6403 82.7704 61.9202 80.1814 63.8111 77.0397C66.4582 72.6472 70.3271 67.2075 74.516 63.6295C78.0068 60.6914 81.9339 58.3351 86.1809 56.6479C86.1519 56.6479 87.8681 67.3529 87.81 70.1455Z" fill="#7A4338"/>
<path d="M87.8097 70.1455C87.7224 74.0726 81.9917 80.8214 76.7265 86.203C75.3884 85.883 73.3521 85.1267 70.5013 83.4976C67.7669 81.9268 65.4689 79.716 63.8107 77.0397C66.4579 72.6472 70.3268 67.2075 74.5157 63.6295C78.0065 60.6914 81.9336 58.3351 86.1806 56.6479C86.1806 56.6479 87.8678 67.3529 87.8097 70.1455Z" fill="#3A5CF9"/>
<path d="M102.674 148.571C52.5236 148.571 69.0465 119.423 73.8172 110.667C77.3079 104.238 77.7442 98.1879 77.017 85.5921C75.708 62.7277 83.0386 61.9713 84.4058 58.1024C85.0166 56.2698 85.4821 54.3789 85.773 52.4881C85.8893 51.8191 86.0057 51.15 86.093 50.4809C86.3548 48.6774 86.5875 46.932 86.8202 45.4775L115.328 44.5176C115.328 44.5176 115.473 46.4375 115.823 48.881C115.881 49.4046 115.968 49.9573 116.055 50.51C116.55 53.5935 117.306 56.997 118.382 58.2188C123.793 64.3567 125.538 65.7821 126.266 84.1667C126.586 92.3118 125.975 99.9041 130.92 108.66C137.174 119.627 152.824 148.571 102.674 148.571Z" fill="#7A4338"/>
<path d="M102.674 148.571C52.5236 148.571 69.0465 119.423 73.8172 110.667C74.8935 108.718 75.7371 106.624 76.2898 104.442C76.7261 102.726 76.9879 100.98 77.1334 99.2058C77.4534 95.5696 77.3661 91.2353 77.0461 85.5919C75.7371 62.6984 83.0676 61.9711 84.4349 58.1022C84.6094 57.6368 84.7548 57.1714 84.8712 56.6768C84.8712 60.9821 92.4054 68.2545 100.23 68.2545C107.503 68.2545 116.084 62.4075 117.364 56.0369C117.597 56.8223 117.946 57.5495 118.441 58.1895C123.851 64.3274 125.597 65.7528 126.324 84.1374C126.498 88.7336 126.382 93.1261 127.138 97.6641C127.429 99.4094 127.836 101.155 128.418 102.842C129.087 104.849 129.96 106.798 131.007 108.631C137.174 119.627 152.824 148.571 102.674 148.571Z" fill="#3A5CF9"/>
<path d="M128.36 102.842C119.662 105.926 110.528 107.497 101.306 107.526C90.1649 107.526 81.7871 105.984 76.2892 104.471C76.7255 102.755 76.9874 101.01 77.1328 99.2351C77.5691 99.3515 78.0055 99.4969 78.5 99.6133C83.1543 100.835 90.9213 102.29 101.306 102.29C110.12 102.26 118.847 100.719 127.109 97.6934C127.4 99.4387 127.807 101.155 128.36 102.842Z" fill="#F5D900"/>
<path d="M116.084 50.4809C114.891 51.3827 113.408 52.5172 112.797 53.3026C111.749 54.4662 110.644 55.6007 109.51 56.6479L108.404 55.048C108.055 55.9207 107.793 56.8225 107.648 57.7533C107.328 59.4696 106.106 60.9532 106.106 60.9532L105.146 58.8587C105.146 58.8587 105.175 60.6332 104.797 61.6804C104.419 62.6404 102.237 65.3166 101.364 65.5784C101.684 64.0658 100.986 60.4587 100.986 60.4587L99.2409 63.164C99.2409 63.164 98.281 60.6623 97.001 59.266C95.9247 58.0733 93.2194 55.8625 93.2194 55.8625C92.9576 56.5607 92.7831 57.2588 92.7249 58.0151C91.5031 57.317 88.0705 54.408 85.8306 52.4881C85.947 51.8191 86.0634 51.15 86.1506 50.4809L110.993 48.1829L115.909 48.8519C115.909 49.4046 115.997 49.9282 116.084 50.4809Z" fill="#68312C"/>
<path d="M71.898 110.173C71.898 110.173 69.1345 108.369 69.629 106.158C70.4145 107.264 71.578 108.049 72.8871 108.34C74.3997 108.66 71.898 110.173 71.898 110.173Z" fill="#CBCBCB"/>
<path d="M72.8289 108.864C72.8289 108.864 70.0654 107.06 70.5599 104.849C71.3453 105.955 72.5089 106.74 73.8179 107.031C75.3306 107.351 72.8289 108.864 72.8289 108.864Z" fill="#CBCBCB"/>
<path d="M74.1663 107.817C74.1663 107.817 71.4028 106.013 71.8973 103.802C72.6827 104.908 73.8463 105.693 75.1553 105.984C76.668 106.304 74.1663 107.817 74.1663 107.817Z" fill="#CBCBCB"/>
<path d="M75.5919 107.206C75.5919 107.206 72.8284 105.402 73.323 103.191C74.1084 104.297 75.272 105.082 76.581 105.373C78.0646 105.693 75.5919 107.206 75.5919 107.206Z" fill="#CBCBCB"/>
<path d="M81.3809 96.966C81.3809 96.966 84.2317 99.5841 84.2899 101.329C84.348 103.075 81.8463 106.653 80.4209 108.166C78.9955 109.678 76.1739 111.773 72.0722 110.26C67.9706 108.747 75.0685 103.482 75.0685 103.482C75.0685 103.482 77.9192 95.2207 81.3809 96.966Z" fill="#7A4338"/>
<path d="M72.4216 105.402C71.5489 106.624 71.0835 107.642 72.1889 107.787C73.2943 107.933 74.6033 107.176 75.1269 105.78C75.5633 104.617 75.5342 104.006 75.3596 103.395C74.2542 103.22 73.2943 104.18 72.4216 105.402Z" fill="#481F05"/>
<path d="M136.942 93.7954C136.942 93.7954 141.509 93.9408 143.923 92.4573C145.814 91.2937 145.727 88.7047 145.436 86.9593C144.825 83.3813 143.72 81.5196 143.72 81.5196C144.011 81.9268 144.36 82.305 144.738 82.6541C141.044 73.9272 133.771 66.0148 129.408 63.1931C125.597 60.7496 121.612 58.5388 117.51 56.6189C117.51 56.6189 116.172 67.382 116.317 70.1746C116.754 77.4761 136.942 93.7954 136.942 93.7954Z" fill="#7A4338"/>
<path d="M116.346 70.2035C116.23 75.2359 123.532 81.5775 128.942 86.8136C130.28 86.4354 132.287 85.65 135.08 83.9046C138.658 81.6938 140.636 77.9995 141.596 76.3414C138.833 72.0361 135.022 67.4399 130.746 63.9492C125.131 59.3821 117.539 56.6477 117.539 56.6477C117.539 56.6477 116.405 67.4109 116.346 70.2035Z" fill="#3A5CF9"/>
<path d="M81.6136 97.1988C81.6136 97.1988 82.5736 99.2642 80.5082 101.737C78.3556 104.297 76.0284 103.715 76.0284 103.715C76.0284 103.715 71.3741 101.242 67.0688 98.3333C66.1379 97.6933 65.2362 96.9952 64.3926 96.2389C64.4798 96.5879 64.5962 96.937 64.7998 97.257C62.7345 95.977 60.3782 93.4753 59.651 91.9336C58.4583 89.3737 68.4942 84.2249 68.4942 84.2249L81.6136 97.1988Z" fill="#7A4338"/>
<path d="M133.509 109.591C133.509 109.591 136.273 107.788 135.778 105.577C134.993 106.682 133.829 107.468 132.52 107.759C131.008 108.108 133.509 109.591 133.509 109.591Z" fill="#CBCBCB"/>
<path d="M132.579 108.282C132.579 108.282 135.342 106.479 134.848 104.268C134.062 105.373 132.899 106.159 131.59 106.45C130.077 106.799 132.579 108.282 132.579 108.282Z" fill="#CBCBCB"/>
<path d="M131.24 107.235C131.24 107.235 134.004 105.432 133.509 103.221C132.724 104.326 131.56 105.112 130.251 105.402C128.768 105.751 131.24 107.235 131.24 107.235Z" fill="#CBCBCB"/>
<path d="M129.815 106.653C129.815 106.653 132.578 104.849 132.084 102.639C131.298 103.744 130.135 104.529 128.826 104.82C127.342 105.14 129.815 106.653 129.815 106.653Z" fill="#CBCBCB"/>
<path d="M124.026 96.4136C124.026 96.4136 121.175 99.0316 121.117 100.777C121.059 102.522 123.59 106.1 125.015 107.613C126.441 109.126 129.262 111.22 133.364 109.707C137.466 108.195 130.368 102.93 130.368 102.93C130.368 102.93 127.488 94.6682 124.026 96.4136Z" fill="#7A4338"/>
<path d="M132.986 104.821C133.859 106.042 134.324 107.061 133.219 107.206C132.113 107.351 130.804 106.595 130.281 105.199C129.844 104.035 129.873 103.424 130.048 102.813C131.153 102.668 132.113 103.628 132.986 104.821Z" fill="#481F05"/>
<path d="M123.502 96.9951C123.502 96.9951 122.629 99.0896 124.753 101.475C126.993 103.977 129.291 103.278 129.291 103.278C129.291 103.278 133.858 100.66 138.076 97.5769C138.978 96.9079 139.85 96.1515 140.665 95.3661C140.607 95.7152 140.461 96.0643 140.287 96.3842C142.294 95.0461 144.563 92.4281 145.232 90.8863C146.337 88.2973 136.127 83.4976 136.127 83.4976L123.502 96.9951Z" fill="#7A4338"/>
<path d="M103.197 143.393C103.197 143.393 99.0956 146.68 96.0994 150.52C94.005 153.226 92.4341 156.193 93.1905 158.491C95.2849 164.803 73.1186 163.931 70.1224 157.385C67.5625 151.829 66.3117 145.197 66.1371 138.797C65.9044 129.518 67.9989 120.733 71.7223 116.34C85.249 100.486 103.197 143.393 103.197 143.393Z" fill="#7A4338"/>
<path d="M103.197 143.393C103.197 143.393 99.0956 146.68 96.0994 150.52C93.9177 150.608 87.9543 150.637 79.4893 148.571C72.4787 146.855 68.2316 141.997 66.1371 138.797C65.9044 129.518 67.9989 120.733 71.7223 116.34C85.249 100.486 103.197 143.393 103.197 143.393Z" fill="#3A5CF9"/>
<path d="M112.303 158.491C114.135 152.935 102.296 143.393 102.296 143.393C102.296 143.393 120.244 100.486 133.771 116.369C140.083 123.787 141.683 143.742 135.4 157.385C132.374 163.93 110.237 164.803 112.303 158.491Z" fill="#7A4338"/>
<path d="M102.296 143.393C102.296 143.393 106.397 146.68 109.394 150.52C111.575 150.607 117.539 150.636 126.004 148.571C133.014 146.855 137.261 141.997 139.356 138.826C139.589 129.547 137.494 120.761 133.771 116.369C120.244 100.486 102.296 143.393 102.296 143.393Z" fill="#3A5CF9"/>
<path d="M96.2747 174.228C90.6022 177.079 82.2826 174.228 82.2826 174.228C82.2826 174.228 78.3264 171.523 72.683 161.981C71.8685 160.614 71.0249 159.072 70.1232 157.385C67.796 152.935 75.7375 152.615 80.7118 152.935C85.6861 153.255 92.2894 156.338 92.2894 156.338C92.9585 157.676 93.5403 159.072 94.0348 160.527C96.2747 167.363 96.2747 174.228 96.2747 174.228Z" fill="#7A4338"/>
<path d="M82.9808 172.628C82.9808 172.628 74.7485 174.607 73.2649 175.654C71.4032 176.963 71.4614 178.563 71.4614 179.784C71.4614 181.53 76.552 181.995 81.1773 181.966C84.9589 181.937 88.3915 180.395 89.9042 180.134C93.2495 179.552 96.8275 178.999 97.002 177.515C97.2347 175.246 96.013 170.301 96.013 170.301L82.9808 172.628Z" fill="#F5D900"/>
<path d="M96.2741 174.228C90.6017 177.079 82.2821 174.228 82.2821 174.228C82.2821 174.228 79.1986 172.134 74.6024 165.065C73.9915 164.134 73.3516 163.087 72.6825 161.981C74.6315 160.905 76.755 160.178 78.9658 159.887C83.8238 159.189 89.9908 159.48 94.0052 160.556C94.3833 161.69 94.7033 162.825 94.9651 163.93C95.7505 167.305 96.1869 170.766 96.2741 174.228Z" fill="#F5D900"/>
<path d="M94.9362 163.931C90.7182 162.738 84.3476 162.069 80.0133 162.796C78.0352 163.116 76.1734 163.901 74.5735 165.094C73.9626 164.163 73.3227 163.116 72.6536 162.011C74.6026 160.934 76.7261 160.207 78.9369 159.916C83.7949 159.218 89.9619 159.509 93.9763 160.585C94.3835 161.662 94.7035 162.825 94.9362 163.931Z" fill="#3A5CF9"/>
<path d="M80.5962 165.115C83.0417 164.051 84.0735 161.003 82.9007 158.307C81.728 155.611 78.7947 154.288 76.3492 155.352C73.9036 156.415 72.8718 159.463 74.0446 162.159C75.2174 164.855 78.1506 166.179 80.5962 165.115Z" fill="#3A5CF9"/>
<path d="M113.234 156.338C109.249 164.192 109.249 174.228 109.249 174.228C114.921 177.079 123.241 174.228 123.241 174.228C123.241 174.228 128.419 170.708 135.4 157.385C137.727 152.935 129.786 152.615 124.811 152.935C119.837 153.255 113.234 156.338 113.234 156.338Z" fill="#7A4338"/>
<path d="M109.249 174.228C114.921 177.079 123.241 174.228 123.241 174.228C123.241 174.228 126.324 172.134 130.92 165.065C131.531 164.134 132.171 163.087 132.84 161.981C130.891 160.905 128.768 160.178 126.557 159.887C121.699 159.189 115.532 159.48 111.517 160.556C111.139 161.69 110.819 162.825 110.558 163.93C109.772 167.305 109.336 170.766 109.249 174.228Z" fill="#F5D900"/>
<path d="M110.558 163.931C114.776 162.738 121.146 162.069 125.481 162.796C127.459 163.116 129.32 163.901 130.92 165.094C131.531 164.163 132.171 163.116 132.84 162.011C130.891 160.934 128.768 160.207 126.557 159.916C121.699 159.218 115.532 159.509 111.518 160.585C111.139 161.662 110.819 162.825 110.558 163.931Z" fill="#3A5CF9"/>
<path d="M131.471 162.176C132.644 159.48 131.612 156.432 129.167 155.368C126.721 154.304 123.788 155.628 122.615 158.324C121.442 161.02 122.474 164.067 124.92 165.131C127.365 166.195 130.299 164.872 131.471 162.176Z" fill="#3A5CF9"/>
<path d="M122.601 172.628C122.601 172.628 130.833 174.607 132.316 175.654C134.178 176.963 134.12 178.563 134.12 179.784C134.12 181.53 129.029 181.995 124.404 181.966C120.622 181.937 117.19 180.395 115.677 180.134C112.332 179.552 108.754 178.999 108.579 177.515C108.347 175.246 109.568 170.301 109.568 170.301L122.601 172.628Z" fill="#F5D900"/>
<path d="M117.335 56.066C115.211 63.4548 106.165 68.2837 100.201 68.2837C96.0414 68.2837 86.3255 64.0366 85.2782 55.0188C85.2782 55.0188 77.1332 58.3059 75.8241 60.9822C75.8241 60.9822 89.1181 86.2319 101.51 86.2319C113.902 86.2319 126.004 60.604 126.004 60.604C124.695 57.9568 117.335 56.066 117.335 56.066Z" fill="#F5D900"/>
<path d="M98.9211 74.3637H100.783V77.5635L101.423 78.6689L102.063 77.5635V74.3637H103.924L104.652 73.0837H98.1938L98.9211 74.3637Z" fill="#A81A97"/>
<path d="M108.434 70.9019H94.3838L101.394 83.0613L108.434 70.9019ZM108.056 71.1346L107.445 72.2109H106.456C106.398 71.9782 106.165 71.8327 105.961 71.8909C105.787 71.92 105.671 72.0654 105.641 72.2109H97.2637C97.2055 72.0073 97.0601 71.8909 96.8564 71.8909C96.8273 71.8909 96.7692 71.8909 96.7401 71.92L96.3037 71.1637L108.056 71.1346ZM105.729 72.6181L101.569 79.8614C101.54 79.8614 101.482 79.8324 101.453 79.8324C101.423 79.8324 101.365 79.8324 101.336 79.8614L97.1182 72.6181C97.1764 72.56 97.2346 72.4727 97.2346 72.3854H105.612C105.641 72.4727 105.671 72.56 105.729 72.6181ZM96.0419 71.1346L96.5364 72.0073C96.3619 72.1527 96.3619 72.4436 96.5074 72.6181C96.5946 72.7054 96.711 72.7636 96.8273 72.7636C96.8564 72.7636 96.9146 72.7636 96.9437 72.7345L101.133 79.9778C101.045 80.0651 100.987 80.1814 100.987 80.2978C100.987 80.4141 101.045 80.5305 101.133 80.6178L100.696 81.345L94.7911 71.1055L96.0419 71.1346ZM101.423 82.625L100.784 81.5486L101.278 80.676C101.307 80.676 101.365 80.705 101.394 80.705C101.627 80.705 101.831 80.5305 101.831 80.2687C101.831 80.1523 101.773 80.036 101.685 79.9487L105.874 72.7054C105.903 72.7054 105.961 72.7345 105.991 72.7345C106.194 72.7345 106.369 72.5891 106.398 72.4145H107.3L101.423 82.625Z" fill="#A81A97"/>
<path d="M131.647 63.0768C130.891 64.5022 126.993 63.8622 122.949 61.6514C118.906 59.4406 116.288 56.5317 117.044 55.1354C117.801 53.7391 120.128 51.4701 126.586 54.9899C133.044 58.5098 132.404 61.6514 131.647 63.0768Z" fill="#F5D900"/>
<path d="M132.113 61.128C132.142 61.797 131.967 62.4661 131.647 63.077C130.891 64.5024 126.993 63.8624 122.949 61.6516C118.906 59.4408 116.288 56.5318 117.044 55.1355C117.277 54.6992 117.597 54.2919 118.004 53.9719C118.586 55.4846 120.826 57.579 123.909 59.2662C127.371 61.128 130.775 61.8843 132.113 61.128Z" fill="#D9B600"/>
<path d="M71.5193 63.7167C72.3629 65.0839 76.2318 64.2403 80.1007 61.7968C83.9696 59.3533 86.4713 56.2989 85.6277 54.9317C84.7841 53.5645 82.3406 51.4409 76.0864 55.3389C69.8321 59.2369 70.6466 62.3495 71.5193 63.7167Z" fill="#F5D900"/>
<path d="M70.9375 61.826C70.9666 62.4951 71.1703 63.1641 71.5193 63.7459C72.3629 65.1131 76.2319 64.2695 80.1008 61.826C83.9697 59.3825 86.4714 56.3281 85.6278 54.9609C85.366 54.5245 85.0169 54.1464 84.6097 53.8555C84.1151 55.3972 81.9916 57.6371 79.0245 59.4698C75.6501 61.5642 72.3338 62.4951 70.9375 61.826Z" fill="#D9B600"/>
<path d="M110.266 22.8459C110.266 22.8459 112.506 19.5588 116.666 19.6751C120.826 19.7915 122.397 22.1478 122.193 23.8931C121.989 25.6385 120.244 29.3329 115.182 27.6748C110.121 26.0167 110.266 22.8459 110.266 22.8459Z" fill="#7A4338"/>
<path d="M118.266 22.4094C117.567 22.1185 116.52 21.7695 115.298 22.4094C114.6 22.7585 114.251 23.5439 114.484 24.3002C114.484 24.3002 116.346 23.893 117.684 24.6202C117.684 24.6202 117.044 24.4748 115.997 25.0275C116.491 25.0275 117.655 25.5511 117.655 25.5511L116.142 26.162C117.044 26.3365 118.004 26.1329 118.76 25.6093C119.924 24.7366 119.4 22.8749 118.266 22.4094Z" fill="#CB544E"/>
<path d="M91.2126 22.7296C90.4272 21.915 86.6456 19.2388 82.7476 20.1988C78.8496 21.1587 77.8023 24.0968 79.4314 26.4239C81.0604 28.7511 83.7948 29.6238 86.7037 29.042C89.6127 28.4602 91.2126 22.7296 91.2126 22.7296Z" fill="#7A4338"/>
<path d="M83.4163 23.0496C84.1145 22.7587 85.1617 22.4096 86.3835 23.0496C87.0816 23.3986 87.4307 24.1841 87.198 24.9404C87.198 24.9404 85.3362 24.5331 83.9981 25.2604C83.9981 25.2604 84.6381 25.1149 85.6853 25.6676C85.1908 25.6676 84.0272 26.1912 84.0272 26.1912L85.5398 26.8021C84.6381 26.9767 83.6781 26.773 82.9218 26.2494C81.7582 25.3767 82.2818 23.5441 83.4163 23.0496Z" fill="#CB544E"/>
<path d="M90.4268 21.9151C86.4997 24.6786 83.8526 29.042 81.2345 34.3072C78.6165 39.5724 78.4128 43.0341 80.4491 46.0885C80.42 45.5358 80.5946 44.954 80.9436 44.5177C80.9436 44.5177 81.38 47.8921 83.4163 49.2302C83.4163 49.2302 82.8345 47.4557 83.5617 46.1467C83.5617 46.1467 82.9799 53.5645 96.2448 54.9027C109.51 56.2408 116.986 49.4047 118.411 46.583C119.4 44.6049 119.778 41.7542 119.226 40.3288C119.924 41.1433 120.36 42.1614 120.476 43.2377C120.476 43.2377 121.785 41.9287 121.204 37.7107C120.622 33.4927 116.113 25.0277 111.139 21.9732C106.164 18.9188 94.5285 19.0352 90.4268 21.9151Z" fill="#7A4338"/>
<path d="M109.888 40.8233C109.888 45.9721 104.39 48.212 99.9099 48.212C95.4301 48.212 89.9322 45.9721 89.9322 40.8233C89.9322 35.6744 95.4301 29.2456 99.9099 29.2456C104.39 29.2456 109.888 35.6744 109.888 40.8233Z" fill="#AB7656"/>
<path d="M102.877 38.2342C102.877 38.2342 101.772 40.3868 99.9102 40.3868C98.0484 40.3868 96.9139 38.2342 96.9139 38.2342C96.9139 38.2342 95.0522 37.5651 95.0522 34.8598C95.0522 33.7544 96.8558 32.7944 99.9102 32.7944C102.965 32.7944 104.768 33.7544 104.768 34.8598C104.739 37.3615 102.877 38.2342 102.877 38.2342Z" fill="#1A1A1A"/>
<path d="M108.376 24.1259C103.023 22.875 97.4379 22.875 92.0563 24.1259C85.6857 25.6676 81.2932 28.9838 81.2932 32.8237C81.2932 34.3654 81.7586 36.169 83.3003 37.158C84.2603 37.798 85.5693 37.7689 86.8202 37.7689C88.3037 37.7689 89.7582 37.4489 91.0672 36.838C92.8126 36.0526 94.2089 34.6854 95.0525 32.9982C95.8961 31.0783 97.7288 29.7984 99.8232 29.682C99.9396 29.682 100.056 29.682 100.172 29.682C100.289 29.682 100.405 29.682 100.521 29.682C102.616 29.7984 104.448 31.0783 105.292 32.9982C106.136 34.7145 107.532 36.0817 109.277 36.838C110.615 37.4489 112.07 37.7689 113.554 37.7689C114.804 37.7689 116.113 37.7689 117.073 37.158C118.615 36.169 119.081 34.3945 119.081 32.8237C119.139 28.9838 114.746 25.6676 108.376 24.1259ZM96.3906 29.3038C95.3725 30.8747 94.3544 31.5728 92.9581 32.3582C92.6381 32.5328 91.0963 33.3764 90.1364 32.7364C89.1764 32.0964 88.3619 30.642 88.4492 28.9838C88.5074 27.6748 89.2055 25.5804 93.7726 25.2022C98.3396 24.824 97.2924 27.9366 96.3906 29.3038ZM109.568 32.5037C108.608 33.1727 107.096 32.3291 106.747 32.1255C105.35 31.3401 104.332 30.6419 103.314 29.0711C102.412 27.7039 101.336 24.5913 105.932 24.9695C110.528 25.3476 111.197 27.4421 111.255 28.7511C111.314 30.4092 110.499 31.8637 109.568 32.5037Z" fill="#3A5CF9"/>
<path d="M93.8889 31.3402C93.598 31.5148 92.2599 32.242 91.4163 31.6602C90.3981 30.8748 89.8454 29.624 89.9327 28.344C89.9909 27.2095 90.6017 25.3478 94.6452 25.0278C98.6887 24.7078 97.7287 27.4131 96.9433 28.6349C96.0124 30.0312 95.1397 30.6712 93.8889 31.3402Z" fill="#6E362D"/>
<path d="M105.903 31.3402C106.194 31.5148 107.532 32.242 108.376 31.6602C109.394 30.8748 109.946 29.624 109.859 28.344C109.801 27.2095 109.19 25.3478 105.147 25.0278C101.103 24.7078 102.063 27.4131 102.849 28.6349C103.808 30.0312 104.681 30.6712 105.903 31.3402Z" fill="#6E362D"/>
<path d="M91.0964 40.7942C91.4745 41.5506 91.9981 42.2196 92.6381 42.7432C93.2781 43.2087 94.0926 43.3832 94.8489 43.2087C95.6634 43.0341 96.4779 42.7723 97.2633 42.4523C98.1069 42.1033 99.0087 41.8705 99.9396 41.8124C100.929 41.8415 101.801 42.1905 102.616 42.5105C103.372 42.8596 104.158 43.1214 104.972 43.2959C105.758 43.4123 106.543 43.2087 107.154 42.685C107.474 42.4232 107.765 42.1323 108.026 41.8124C108.288 41.4633 108.521 41.1142 108.754 40.7651L108.957 40.8524C108.783 41.2597 108.608 41.6669 108.376 42.0451C108.143 42.4523 107.881 42.8014 107.532 43.1214C107.183 43.4705 106.776 43.7323 106.339 43.8777C105.874 44.0523 105.379 44.1104 104.914 44.0523C103.954 43.9941 103.11 43.6159 102.296 43.325C101.481 43.0341 100.696 42.7141 99.9687 42.7141C99.2414 42.7141 98.3978 42.9759 97.5833 43.2378C96.7397 43.5577 95.867 43.7905 94.9944 43.9068C94.5289 43.965 94.0344 43.9359 93.569 43.8195C93.1035 43.7032 92.6381 43.4414 92.289 43.1214C91.6491 42.4814 91.1836 41.696 90.9218 40.8233L91.0964 40.7942Z" fill="#3A0F0D"/>
<path d="M109.335 40.6777C109.597 41.0558 109.51 41.5504 109.131 41.8122C108.782 42.0158 108.899 41.434 108.666 40.9977C108.433 40.5613 107.91 40.445 108.259 40.2413C108.695 40.0959 109.16 40.2704 109.335 40.6777Z" fill="#3A0F0D"/>
<path d="M90.4559 40.6777C90.1941 41.0558 90.2814 41.5504 90.6595 41.8122C91.0086 42.0158 90.8923 41.434 91.125 40.9977C91.3577 40.5613 91.8813 40.445 91.5322 40.2413C91.125 40.0959 90.6595 40.2704 90.4559 40.6777Z" fill="#3A0F0D"/>
<path d="M99.9099 49.3173C102.4 49.3173 104.419 48.1191 104.419 46.6411C104.419 45.163 102.4 43.9648 99.9099 43.9648C97.4197 43.9648 95.401 45.163 95.401 46.6411C95.401 48.1191 97.4197 49.3173 99.9099 49.3173Z" fill="#AB7656"/>
<path d="M94.3831 30.7874C95.2828 30.7874 96.0121 29.8366 96.0121 28.6638C96.0121 27.491 95.2828 26.5403 94.3831 26.5403C93.4834 26.5403 92.7541 27.491 92.7541 28.6638C92.7541 29.8366 93.4834 30.7874 94.3831 30.7874Z" fill="black"/>
<path d="M94.7034 28.6639C95.0408 28.6639 95.3143 28.3122 95.3143 27.8784C95.3143 27.4447 95.0408 27.093 94.7034 27.093C94.366 27.093 94.0925 27.4447 94.0925 27.8784C94.0925 28.3122 94.366 28.6639 94.7034 28.6639Z" fill="#CBCBCB"/>
<path d="M95.7214 27.4712C95.4305 27.2385 95.0814 27.0639 94.7323 26.9476C94.5869 26.9185 94.4414 26.9185 94.3251 26.9476C94.1796 26.9767 94.0633 27.0058 93.9469 27.0639C93.8305 27.1221 93.7142 27.2094 93.6269 27.3258C93.5687 27.3839 93.5106 27.4421 93.4815 27.5003L93.3069 27.733C93.1906 27.9366 93.016 28.1112 92.8124 28.2566C92.5797 28.4021 92.2888 28.373 92.1143 28.1403C92.2015 28.1403 92.3179 28.1112 92.4052 28.0821C92.4633 28.053 92.5215 27.9948 92.5215 27.9366C92.5797 27.8203 92.6088 27.6166 92.667 27.4421C92.696 27.3548 92.7251 27.2385 92.7833 27.1512C92.8415 27.0349 92.8997 26.9476 92.9579 26.8312C93.1033 26.5985 93.3069 26.424 93.5396 26.3076C93.7724 26.1913 94.0342 26.104 94.296 26.1331C94.5578 26.1331 94.8196 26.2203 95.0523 26.3367C95.4305 26.5985 95.6923 27.0058 95.7214 27.4712Z" fill="black"/>
<path d="M105.408 30.7874C106.308 30.7874 107.037 29.8366 107.037 28.6638C107.037 27.491 106.308 26.5403 105.408 26.5403C104.508 26.5403 103.779 27.491 103.779 28.6638C103.779 29.8366 104.508 30.7874 105.408 30.7874Z" fill="black"/>
<path d="M105.699 28.6639C106.037 28.6639 106.31 28.3122 106.31 27.8784C106.31 27.4447 106.037 27.093 105.699 27.093C105.362 27.093 105.089 27.4447 105.089 27.8784C105.089 28.3122 105.362 28.6639 105.699 28.6639Z" fill="#CBCBCB"/>
<path d="M104.07 27.4712C104.128 27.0057 104.39 26.5694 104.768 26.3367C105.001 26.1912 105.263 26.1331 105.524 26.1331C105.786 26.1331 106.048 26.1912 106.281 26.3076C106.513 26.424 106.717 26.6276 106.863 26.8312C106.921 26.9185 106.979 27.0348 107.037 27.1512C107.066 27.2385 107.124 27.3548 107.153 27.4421C107.212 27.6166 107.27 27.8203 107.299 27.9366C107.328 27.9948 107.357 28.053 107.415 28.0821C107.503 28.1111 107.619 28.1402 107.706 28.1402C107.532 28.3439 107.241 28.402 107.008 28.2566C106.804 28.1111 106.63 27.9657 106.513 27.7621L106.339 27.5294C106.281 27.4712 106.252 27.413 106.193 27.3548C106.106 27.2385 105.99 27.1512 105.873 27.093C105.757 27.0348 105.612 26.9767 105.495 26.9767C105.35 26.9476 105.204 26.9476 105.088 26.9767C104.71 27.0639 104.361 27.2385 104.07 27.4712Z" fill="black"/>
<path d="M94.4708 23.6311C95.7216 23.6311 96.3907 25.2019 96.3907 25.2019C94.9362 25.0856 93.4526 25.2601 92.0563 25.7256C91.3582 25.9292 92.26 23.6311 94.4708 23.6311Z" fill="#3A0F0D"/>
<path d="M105.35 23.6313C104.099 23.6022 103.43 25.173 103.43 25.173C104.884 25.0566 106.368 25.2603 107.764 25.7257C108.433 25.9875 107.56 23.6603 105.35 23.6313Z" fill="#3A0F0D"/>
</g>
</svg>
