<svg width="200" height="200" viewBox="0 0 200 200" fill="none" xmlns="http://www.w3.org/2000/svg">
<mask id="mask0_618_13929" style="mask-type:alpha" maskUnits="userSpaceOnUse" x="0" y="0" width="200" height="200">
<circle cx="100" cy="100" r="100" fill="#FF00FF"/>
</mask>
<g mask="url(#mask0_618_13929)">
<circle cx="100" cy="100" r="100" fill="#F5F5F5"/>
<path d="M82.963 140.026C78.405 148.578 75.7571 157.998 75.2361 167.635L63.3853 168.373C61.4753 156.652 62.2133 144.628 65.4256 133.211L82.963 140.026Z" fill="#7333A3"/>
<path d="M62.4743 152.224C62.8216 153.136 63.3859 153.917 64.0804 154.612C65.3827 155.914 67.2059 156.479 68.9857 156.175C69.9407 156.001 70.8523 155.654 71.6771 155.133C71.1128 156.045 70.2446 156.739 69.2462 157.043C67.0757 157.824 64.6882 157.043 63.3859 155.176C62.7347 154.352 62.4309 153.266 62.4743 152.224Z" fill="#612B89"/>
<path d="M83.3973 192.813L83.2671 188.385C83.2237 186.301 81.2268 184.652 78.8827 184.652L76.1045 184.695L76.4518 196.676L79.23 196.633C81.6175 196.589 83.4841 194.896 83.3973 192.813Z" fill="#8463BE"/>
<path d="M79.8817 197.978C79.6212 198.977 79.3173 199.975 78.9266 200.973C76.4089 207.572 45.4145 209.308 40.8565 201.798C40.4658 200.93 40.2487 200.018 40.2053 199.107C39.5976 188.558 62.5612 180.745 62.5612 180.745L78.4925 180.397C80.8801 186.258 81.3576 192.248 79.8817 197.978Z" fill="#8463BE"/>
<path d="M79.8818 197.978C72.589 202.363 48.9742 203.448 40.1621 199.063C39.5978 188.558 62.5614 180.745 62.5614 180.745L78.4927 180.397C80.8802 186.258 81.3577 192.248 79.8818 197.978Z" fill="#2E047A"/>
<path d="M76.9729 182.351C71.894 183.219 66.6849 183.219 61.606 182.351C58.003 181.743 55.9193 178.661 56.8309 176.056C57.7425 173.452 60.6075 172.106 63.2989 172.54C67.2492 173.235 71.3297 173.235 75.28 172.54C77.9714 172.106 80.793 173.452 81.7046 176.056C82.6162 178.617 80.5325 181.7 76.9729 182.351Z" fill="#FAAF3B"/>
<path d="M76.9729 175.926C71.894 176.794 66.6849 176.794 61.606 175.926C58.003 175.318 55.9193 172.236 56.8309 169.632C57.7425 167.027 60.6075 165.682 63.2989 166.116C67.2492 166.81 71.3297 166.81 75.28 166.116C77.9714 165.682 80.793 167.027 81.7046 169.632C82.6162 172.236 80.5325 175.318 76.9729 175.926Z" fill="#FAC26C"/>
<path d="M126.504 81.8142C126.634 81.8142 126.764 81.7708 126.894 81.7274L127.372 81.5971L128.414 81.3367C129.108 81.163 129.803 80.946 130.497 80.7289C131.887 80.2949 133.276 79.7739 134.665 79.253C137.4 78.1678 140.048 76.9089 142.609 75.433C143.868 74.695 145.083 73.9136 146.255 73.0889C147.427 72.2641 148.512 71.3525 149.598 70.3975C150.639 69.4425 151.595 68.444 152.506 67.3588C153.374 66.2736 154.156 65.1015 154.894 63.9295L154.98 63.7558C155.979 61.9326 158.323 61.2381 160.146 62.2799C161.752 63.1481 162.49 65.0581 161.926 66.7945C161.362 68.5743 160.667 70.3107 159.842 72.0036C158.974 73.6532 158.019 75.2593 156.977 76.7787C155.892 78.2546 154.763 79.6871 153.548 81.0762C152.332 82.4219 151.03 83.7242 149.728 84.9397C147.08 87.3272 144.258 89.5411 141.263 91.5379C139.787 92.5363 138.268 93.4914 136.705 94.3595C135.924 94.7936 135.142 95.2711 134.318 95.6618L133.059 96.313L132.407 96.6168C132.147 96.7471 132.017 96.8339 131.626 96.9641L127.285 98.7439C122.727 100.611 117.475 98.44 115.608 93.882C113.741 89.324 115.912 84.0715 120.47 82.2049C122.38 81.2933 124.507 81.2065 126.504 81.8142Z" fill="#7333A3"/>
<path d="M164.965 63.2781C162.056 62.3665 159.365 60.8472 157.064 58.8069C155.501 57.4613 152.984 57.5047 151.204 59.2845C149.337 61.2379 149.424 64.32 151.334 66.1432C151.377 66.1866 151.377 66.1866 151.421 66.23C153.895 69.4423 157.542 71.4825 161.535 71.9166C164.096 72.6546 166.788 71.1787 167.569 68.6175C167.569 68.5741 167.569 68.5741 167.613 68.5307C168.177 66.0563 166.918 63.8859 164.965 63.2781Z" fill="#FAAA2D"/>
<path d="M156.76 53.4242C159.321 50.3421 161.231 46.7825 162.317 42.9191V42.8757C162.707 41.4432 164.01 40.4013 165.182 40.6184C166.224 40.792 166.831 41.9207 166.701 43.1795C166.354 45.7407 165.746 48.215 164.834 50.646C163.923 53.1203 162.751 55.5078 161.362 57.7217L161.318 57.8085C160.146 59.6318 158.106 60.2829 156.76 59.2411C155.415 58.1992 155.241 55.8551 156.413 54.0319C156.456 53.7715 156.587 53.5978 156.76 53.4242Z" fill="#90BD4A"/>
<path d="M159.278 52.6864C162.838 50.0818 165.746 46.7393 167.83 42.8324L167.873 42.789C168.654 41.3131 170.304 40.5751 171.563 41.1394C172.692 41.6603 173.126 43.006 172.648 44.3517C171.693 46.9997 170.434 49.5609 168.871 51.9484C167.309 54.3793 165.442 56.5932 163.402 58.6335L163.315 58.7203C161.622 60.3699 159.191 60.5001 157.932 58.9373C156.673 57.3746 157.021 54.8134 158.714 53.1639C158.887 52.9902 159.061 52.8166 159.278 52.6864Z" fill="#90BD4A"/>
<path d="M163.359 53.1637C167.092 50.863 170.261 47.6507 172.518 43.874L172.561 43.8306C173.43 42.3981 175.123 41.7904 176.425 42.5283C177.554 43.1795 177.944 44.6554 177.423 45.9577C176.338 48.6057 174.949 51.1234 173.256 53.4241C171.563 55.7683 169.61 57.8953 167.396 59.8053L167.309 59.8922C165.486 61.4549 163.011 61.2813 161.752 59.5449C160.494 57.8085 160.928 55.1605 162.751 53.6412C162.925 53.4241 163.142 53.2939 163.359 53.1637Z" fill="#90BD4A"/>
<path d="M165.356 56.5064C169.219 54.3359 172.431 51.2104 174.689 47.3904L174.732 47.347C175.514 45.9579 177.25 45.4369 178.639 46.2183C178.682 46.2183 178.682 46.2617 178.726 46.2617C179.898 47.0865 180.375 48.6058 179.811 49.9515C178.726 52.6429 177.337 55.1607 175.6 57.4614C173.864 59.8055 171.867 61.8892 169.61 63.7124L169.523 63.7992C167.873 65.1883 165.443 65.0147 164.01 63.4085C163.923 63.3217 163.836 63.1915 163.75 63.1046C162.447 61.1078 162.881 58.4598 164.705 56.9839C164.965 56.7668 165.139 56.6366 165.356 56.5064Z" fill="#90BD4A"/>
<path d="M155.588 60.9776C154.025 58.6334 154.285 55.6382 156.239 54.0754L160.797 50.3856C163.749 48.302 168.567 49.8647 170.781 52.6863C173.603 56.2459 172.821 61.8892 168.828 64.103L168.48 64.2767C164.096 66.751 158.366 65.1883 155.588 60.9776Z" fill="#90BD4A"/>
<path d="M154.98 59.8489C151.421 54.4661 153.548 48.3888 156.196 44.5253C156.413 44.1346 156.76 43.8308 157.194 43.6571C157.758 43.4835 158.366 43.6137 158.844 44.0044C159.061 44.178 159.191 44.3951 159.278 44.6555C159.408 45.0028 159.408 45.3935 159.321 45.7408C159.017 47.1299 158.149 51.7313 159.972 53.294L154.98 59.8489Z" fill="#90BD4A"/>
<path d="M169.957 53.2507L171.78 50.8197C172.388 49.9949 172.995 49.2136 173.56 48.3888C173.82 47.9547 174.124 47.564 174.385 47.1299C174.688 46.6524 175.123 46.2617 175.643 45.9578C176.642 45.3935 177.901 45.5238 178.726 46.2617C177.814 45.9144 176.815 46.0447 176.034 46.609C175.687 46.8694 175.383 47.2167 175.166 47.6074C174.905 48.0415 174.645 48.519 174.341 48.9097C173.733 49.7779 173.082 50.5593 172.344 51.2972C171.606 52.0352 170.825 52.6863 169.957 53.2507Z" fill="#7EA540"/>
<path d="M158.887 50.5159C159.799 50.6461 160.667 50.8631 161.535 51.2104C162.403 51.5577 163.228 52.0352 163.923 52.6429C164.617 53.2941 165.182 54.0755 165.529 54.9436C165.876 55.8118 165.92 56.8103 165.659 57.6784C165.616 56.8103 165.399 55.9421 165.008 55.1607C164.617 54.4227 164.096 53.7282 163.445 53.1639C162.794 52.5995 162.056 52.122 161.275 51.6879C160.493 51.2972 159.712 50.95 158.887 50.5159Z" fill="#7EA540"/>
<path d="M167.178 50.6459C167.873 49.7777 168.567 48.9095 169.219 48.0413C169.87 47.1732 170.564 46.305 171.172 45.4368C171.476 45.0027 171.823 44.5686 172.084 44.0911L172.301 43.7438C172.387 43.6136 172.474 43.4833 172.561 43.3965C172.735 43.1795 172.952 42.9624 173.212 42.7454C173.69 42.3981 174.254 42.1811 174.862 42.0942C175.166 42.0942 175.426 42.0942 175.73 42.1811C175.99 42.2679 176.251 42.3981 176.511 42.5717C175.513 42.2245 174.384 42.4415 173.603 43.1795C173.429 43.3531 173.256 43.5268 173.125 43.7438C173.039 43.8306 172.995 43.9608 172.908 44.0477L172.691 44.3949C172.387 44.8725 172.084 45.35 171.736 45.784C171.085 46.6957 170.347 47.5204 169.609 48.3452C168.871 49.17 168.047 49.9514 167.178 50.6459Z" fill="#7EA540"/>
<path d="M163.488 49.0399C164.617 47.3903 165.745 45.7408 166.787 44.0478C167.048 43.6137 167.308 43.1796 167.525 42.7455C167.786 42.268 168.133 41.8339 168.567 41.5301C169.001 41.1828 169.479 40.9657 170.043 40.9223C170.303 40.8789 170.564 40.8789 170.824 40.9223C171.085 40.9657 171.302 41.0526 171.519 41.1828C170.564 40.9657 169.565 41.2262 168.871 41.9207C168.524 42.2246 168.263 42.6153 168.046 43.0494C167.829 43.4835 167.569 43.9176 167.308 44.3517C166.787 45.2199 166.223 46.0447 165.572 46.826C164.964 47.6074 164.27 48.3454 163.488 49.0399Z" fill="#7EA540"/>
<path d="M59.3925 96.7469C57.4391 97.0942 55.6159 97.8321 53.9663 98.9174C52.4904 99.9158 51.4052 101.348 50.7974 103.041C50.1463 105.038 50.1029 107.165 50.6672 109.205C51.3183 111.55 52.4904 113.763 54.0531 115.587L54.14 115.717C55.4856 117.323 55.312 119.754 53.7059 121.1C52.3602 122.228 50.4067 122.315 48.9742 121.273C45.979 119.103 43.5046 116.281 41.7248 113.025C39.7714 109.466 38.8598 105.385 39.1203 101.305C39.2505 99.1344 39.7714 97.0073 40.5528 94.9671C41.3775 92.9268 42.5062 91.0168 43.9387 89.3239C45.2844 87.6743 46.8471 86.2418 48.5835 84.9829C50.2331 83.7674 51.9695 82.7256 53.8361 81.8574L54.2268 81.6838C58.2204 79.7738 63.0389 81.4667 64.9489 85.4604C66.8589 89.4541 65.166 94.2725 61.1723 96.1826C60.6514 96.443 60.0436 96.6167 59.3925 96.7469Z" fill="#7333A3"/>
<path d="M124.42 133.254C127.675 144.671 128.37 156.696 126.46 168.416L114.652 167.678C114.131 157.998 111.483 148.578 106.882 140.07L124.42 133.254Z" fill="#7333A3"/>
<path d="M127.371 152.224C127.458 153.309 127.154 154.351 126.503 155.22C125.201 157.086 122.77 157.867 120.643 157.086C119.601 156.739 118.733 156.088 118.212 155.176C119.037 155.697 119.948 156.044 120.903 156.175C121.771 156.305 122.683 156.261 123.551 156.001C124.419 155.74 125.157 155.263 125.808 154.612C126.46 153.917 126.981 153.092 127.371 152.224Z" fill="#612B89"/>
<path d="M106.448 192.812L106.578 188.384C106.622 186.301 108.618 184.651 110.963 184.651L113.741 184.695L113.394 196.676L110.615 196.632C108.228 196.589 106.361 194.896 106.448 192.812Z" fill="#8463BE"/>
<path d="M109.964 197.978C110.224 198.976 110.528 199.975 110.919 200.973C113.436 207.571 144.387 209.308 148.989 201.798C149.38 200.93 149.597 200.018 149.683 199.107C150.248 188.558 127.284 180.744 127.284 180.744L111.353 180.397C108.965 186.257 108.488 192.248 109.964 197.978Z" fill="#8463BE"/>
<path d="M109.964 197.978C117.257 202.362 140.871 203.448 149.683 199.063C150.248 188.558 127.284 180.744 127.284 180.744L111.353 180.397C108.965 186.257 108.488 192.248 109.964 197.978Z" fill="#2E047A"/>
<path d="M112.872 182.351C117.951 183.219 123.16 183.219 128.239 182.351C131.842 181.743 133.926 178.661 133.014 176.056C132.103 173.452 129.238 172.106 126.59 172.54C122.639 173.235 118.559 173.235 114.609 172.54C111.917 172.106 109.096 173.452 108.141 176.056C107.229 178.617 109.313 181.699 112.872 182.351Z" fill="#FAAF3B"/>
<path d="M112.872 175.926C117.951 176.794 123.16 176.794 128.239 175.926C131.842 175.318 133.926 172.236 133.014 169.631C132.103 167.027 129.238 165.681 126.59 166.115C122.639 166.81 118.559 166.81 114.609 166.115C111.917 165.681 109.096 167.027 108.141 169.631C107.229 172.236 109.313 175.318 112.872 175.926Z" fill="#FAC26C"/>
<path d="M118.426 141.353C127.021 136.39 131.482 128.025 128.39 122.668C125.297 117.312 115.822 116.993 107.226 121.955C98.6309 126.918 94.1701 135.283 97.2628 140.64C100.355 145.997 109.831 146.316 118.426 141.353Z" fill="#8463BE"/>
<path d="M92.5616 140.627C95.6543 135.27 91.1935 126.905 82.5981 121.942C74.0027 116.979 64.5276 117.298 61.4349 122.655C58.3422 128.012 62.803 136.377 71.3984 141.34C79.9939 146.302 89.4689 145.983 92.5616 140.627Z" fill="#8463BE"/>
<path d="M64.6778 92.2393C66.2151 85.705 64.4154 79.6914 60.6582 78.8075C56.901 77.9236 52.609 82.5041 51.0717 89.0384C49.5345 95.5727 51.3341 101.586 55.0914 102.47C58.8486 103.354 63.1406 98.7736 64.6778 92.2393Z" fill="#8463BE"/>
<path d="M134.755 102.457C138.512 101.573 140.311 95.559 138.774 89.0247C137.237 82.4904 132.945 77.9099 129.188 78.7938C125.43 79.6777 123.631 85.6914 125.168 92.2256C126.705 98.7599 130.997 103.34 134.755 102.457Z" fill="#8463BE"/>
<path d="M129.238 78.6885C106.361 86.5456 83.528 86.5456 60.6512 78.6885C59.3489 81.5101 58.1768 84.3751 57.2218 87.327C49.0174 112.201 68.2044 137.595 94.9447 137.595C121.685 137.595 140.872 112.157 132.668 87.2836C131.713 84.3751 130.541 81.5101 129.238 78.6885Z" fill="#2E047A"/>
<path d="M113.307 106.427C101.239 109.292 88.6502 109.292 76.5824 106.427C73.6305 105.733 70.6353 107.296 69.5501 110.074V110.117C64.037 124.399 76.9297 138.984 94.988 138.984C113.046 138.984 125.939 124.399 120.426 110.117V110.074C119.254 107.252 116.215 105.689 113.307 106.427Z" fill="#F1F1F1"/>
<path d="M121.337 88.6295C114.695 91.4945 105.449 93.3611 94.9441 93.3611C70.2006 93.3611 52.4461 83.2467 59.4351 73.2191C59.5219 73.0889 59.6087 73.0021 59.6521 72.8718C59.6521 72.8718 59.6521 72.8284 59.6955 72.8284C61.3451 70.658 64.0365 69.5293 66.7279 69.8766C85.4374 72.3509 104.407 72.3509 123.117 69.8766C125.808 69.5293 128.5 70.658 130.149 72.8284L130.193 72.8718C130.279 73.0021 130.366 73.0889 130.453 73.2191C134.447 78.9492 130.279 84.7227 121.337 88.6295Z" fill="#A87DF1"/>
<path d="M102.15 116.802C103.373 116.802 104.364 115.811 104.364 114.588C104.364 113.366 103.373 112.375 102.15 112.375C100.928 112.375 99.9365 113.366 99.9365 114.588C99.9365 115.811 100.928 116.802 102.15 116.802Z" fill="#90BD4A"/>
<path d="M108.401 116.064C109.624 116.064 110.615 115.073 110.615 113.85C110.615 112.628 109.624 111.636 108.401 111.636C107.179 111.636 106.187 112.628 106.187 113.85C106.187 115.073 107.179 116.064 108.401 116.064Z" fill="#EE8031"/>
<path d="M114.696 115.066C115.919 115.066 116.91 114.075 116.91 112.852C116.91 111.629 115.919 110.638 114.696 110.638C113.473 110.638 112.482 111.629 112.482 112.852C112.482 114.075 113.473 115.066 114.696 115.066Z" fill="#90BD4A"/>
<path d="M64.905 126.309C67.2925 126.917 67.9871 127.611 69.1157 128.914C69.3328 129.131 69.5933 129.261 69.8971 129.217C70.7219 129.261 71.373 128.349 71.5033 127.655C71.7637 126.396 71.5033 125.093 70.8087 124.008C68.9421 120.839 64.2539 117.15 59.6525 117.15L64.905 126.309Z" fill="#90BD4A"/>
<path d="M66.381 126.266L59.6525 117.15L48.7133 122.749C47.932 126.048 51.014 134.557 56.6139 136.467L66.381 126.266Z" fill="#90BD4A"/>
<path d="M66.2078 127.221C66.7287 129.825 68.0744 132.169 70.0279 133.992L70.0713 134.036C70.8092 134.73 70.7658 135.902 69.9411 136.64C69.2465 137.335 68.2047 137.465 67.3365 136.988C64.3846 135.164 62.0405 132.473 60.6948 129.261L60.6514 129.217C60.0871 127.915 60.8685 126.309 62.3444 125.658C63.8203 125.007 65.5133 125.528 66.0776 126.83C66.121 126.917 66.1644 127.047 66.2078 127.221Z" fill="#90BD4A"/>
<path d="M62.2573 128.132C62.7348 130.737 64.0805 133.124 66.1207 134.904L66.1641 134.947C66.9455 135.599 66.8153 136.814 65.9037 137.639C65.1657 138.333 64.0371 138.507 63.1255 138.073C61.6061 137.205 60.217 136.119 59.045 134.774C57.8729 133.472 56.9613 132.039 56.2668 130.433L56.2233 130.389C55.659 129.087 56.5272 127.394 58.1768 126.7C59.8263 126.005 61.5627 126.439 62.0836 127.785C62.1705 127.828 62.2139 128.002 62.2573 128.132Z" fill="#90BD4A"/>
<path d="M59.045 128.566C59.5225 131.171 60.9116 133.558 62.9084 135.338L62.9519 135.382C63.7332 136.033 63.603 137.248 62.6914 138.03C61.9534 138.724 60.8248 138.898 59.9132 138.464C58.3938 137.596 57.0047 136.51 55.8327 135.208C54.6606 133.906 53.749 132.473 53.0545 130.867L53.0111 130.824C52.4467 129.521 53.3149 127.828 54.9645 127.134C56.6141 126.439 58.3504 126.873 58.8714 128.219C59.0016 128.262 59.045 128.393 59.045 128.566Z" fill="#90BD4A"/>
<path d="M67.5102 136.857C66.6854 136.554 65.8606 136.119 65.1661 135.599C64.4281 135.078 63.777 134.47 63.1692 133.819C61.9538 132.516 61.0856 130.91 60.6515 129.174C61.129 129.912 61.5631 130.65 62.084 131.344C63.0824 132.734 64.2545 134.036 65.5134 135.164C66.1645 135.772 66.8156 136.293 67.5102 136.857Z" fill="#7EA540"/>
<path d="M62.9516 137.943C62.1268 137.639 61.3455 137.205 60.6075 136.684C59.8695 136.163 59.2184 135.555 58.6107 134.904C57.3952 133.602 56.527 131.995 56.0929 130.259C56.5704 130.997 57.0479 131.735 57.5254 132.43C58.0463 133.124 58.5672 133.775 59.1316 134.426C59.6959 135.077 60.3036 135.685 60.9548 136.25C61.5625 136.814 62.2571 137.378 62.9516 137.943Z" fill="#7EA540"/>
<path d="M59.5228 138.203C58.7848 137.899 58.0469 137.552 57.3957 137.075C56.7446 136.64 56.0935 136.076 55.5291 135.512C54.9648 134.947 54.4439 134.296 54.0098 133.602C53.5757 132.907 53.3152 132.126 53.1416 131.344C53.5757 131.996 54.0098 132.69 54.4873 133.298C54.9648 133.906 55.4857 134.47 56.0066 135.034C56.5275 135.599 57.0919 136.163 57.6996 136.684C58.3073 137.205 58.9151 137.682 59.5228 138.203Z" fill="#7EA540"/>
<path d="M59.4794 119.363C57.2655 122.011 54.5741 124.182 51.5354 125.788C49.365 126.917 46.8472 125.962 46.1093 124.095C45.3713 122.315 46.1093 120.275 47.7588 119.363C50.1463 118.105 52.23 116.412 53.9664 114.371C55.2253 112.939 57.3957 112.635 58.9585 113.764C60.6514 114.805 61.0421 117.497 59.4794 119.363Z" fill="#FAAA2D"/>
<path d="M44.8503 43.006L41.6814 54.4661L44.8937 65.9262C44.8937 56.3761 60.825 58.4164 60.825 58.4164V50.5158C60.7816 50.5158 44.8503 52.5561 44.8503 43.006Z" fill="#612B88"/>
<path d="M43.8085 42.4417C41.5946 50.2988 41.5946 58.6334 43.8085 66.4471" stroke="#853BBC" stroke-width="2.43528" stroke-miterlimit="10" stroke-linecap="round"/>
<path d="M144.996 43.006L148.208 54.4661L144.996 65.9262C144.996 56.3761 129.064 58.4164 129.064 58.4164V50.5158C129.064 50.5158 144.996 52.5561 144.996 43.006Z" fill="#612B88"/>
<path d="M146.038 42.4417C148.252 50.2988 148.252 58.6334 146.038 66.4471" stroke="#853BBC" stroke-width="2.43528" stroke-miterlimit="10" stroke-linecap="round"/>
<path d="M133.232 52.6863C133.232 55.3343 130.41 57.5916 129.716 60.0659C129.021 62.5403 130.28 65.9696 128.934 68.1835C127.589 70.3974 124.072 70.9617 122.206 72.8283C120.339 74.6949 119.992 78.2545 117.778 79.687C115.651 81.0761 112.178 80.0777 109.704 81.0327C107.316 81.9877 105.537 85.1132 102.889 85.5907C100.371 86.0682 97.5492 83.8109 94.9012 83.8109C92.2532 83.8109 89.4316 86.0682 86.9139 85.5907C84.3093 85.1132 82.4861 81.9877 80.0986 81.0327C77.6242 80.0777 74.1515 81.0761 72.0244 79.687C69.8105 78.2545 69.3764 74.6515 67.5966 72.8283C65.8168 71.0051 62.1704 70.3974 60.8681 68.1401C59.5659 65.8828 60.8247 62.5837 60.1302 60.0659C59.4356 57.5482 56.614 55.3343 56.614 52.6863C56.614 50.0383 59.4356 47.781 60.1302 45.3067C60.8247 42.8323 59.5659 39.4464 60.9116 37.1891C62.2573 34.9318 65.7734 34.4109 67.64 32.5443C69.5066 30.6777 69.8539 27.1615 72.0678 25.6856C74.1949 24.2964 77.6676 25.2949 80.142 24.2964C82.5295 23.3414 84.3093 20.216 86.9573 19.7384C89.475 19.2609 92.2967 21.5182 94.9446 21.5182C97.5926 21.5182 100.414 19.2609 102.932 19.7384C105.537 20.216 107.36 23.3414 109.747 24.2964C112.222 25.2515 115.694 24.253 117.821 25.6421C120.035 27.0747 120.469 30.6777 122.249 32.5009C124.029 34.3241 127.675 34.9318 128.978 37.1891C130.28 39.4464 129.065 42.7889 129.759 45.3067C130.454 47.8244 133.232 50.0383 133.232 52.6863Z" fill="#7333A2"/>
<path d="M78.2754 34.324C77.7979 33.9768 77.1467 33.8899 76.6258 34.1938C76.1049 34.4543 75.6274 34.8449 75.3235 35.3224C74.9763 35.8 74.7158 36.3643 74.3251 36.9286C74.1081 37.2325 73.891 37.4929 73.6306 37.71C73.3701 37.9704 73.0662 38.1441 72.7624 38.3177C71.5035 38.9254 70.288 39.1859 69.5935 39.837C68.7687 40.6184 68.378 41.7905 68.5517 42.9191L68.4648 42.9625C68.0307 42.3982 67.8571 41.7037 67.9005 41.0091C67.9439 40.2711 68.2478 39.5766 68.7253 39.0123C68.9857 38.7084 69.2462 38.4913 69.5935 38.3177C69.8973 38.1441 70.2446 38.0138 70.5485 37.927C71.1562 37.7968 71.7206 37.6232 72.3283 37.4495C73.3701 37.1022 73.9778 35.9736 74.846 34.9752C75.2801 34.4543 75.8445 34.0636 76.4956 33.8465C76.7995 33.7597 77.1467 33.7163 77.494 33.7597C77.8413 33.8031 78.1452 33.9768 78.3622 34.2372L78.2754 34.324Z" fill="#612B89"/>
<path d="M111.484 34.2374C111.701 33.9769 112.005 33.8033 112.352 33.7598C112.699 33.7164 113.047 33.7164 113.351 33.8467C114.002 34.0637 114.566 34.4544 115 34.9753C115.825 35.9737 116.433 37.1024 117.518 37.4497C118.082 37.6233 118.69 37.7969 119.298 37.9272C119.645 38.014 119.949 38.1442 120.296 38.3179C120.643 38.4915 120.904 38.7519 121.164 39.0124C121.642 39.5767 121.946 40.2713 121.989 41.0092C122.076 41.7038 121.859 42.3983 121.425 42.9627L121.295 42.9193C121.468 41.7906 121.078 40.662 120.253 39.8372C119.558 39.186 118.343 38.9256 117.084 38.3179C116.78 38.1442 116.476 37.9706 116.216 37.7101C115.955 37.4931 115.738 37.2326 115.521 36.9287C115.13 36.3644 114.87 35.8435 114.523 35.3226C114.219 34.8451 113.741 34.411 113.22 34.1939C112.699 33.9335 112.048 33.9769 111.571 34.3242L111.484 34.2374Z" fill="#612B89"/>
<path d="M75.6274 72.7848C75.4538 72.9585 75.2367 73.0887 74.9763 73.1321C74.7158 73.1755 74.4988 73.1321 74.2383 73.0887C73.7608 72.9585 73.3267 72.6546 73.0228 72.2639C72.4151 71.526 71.981 70.7012 71.1996 70.4407C70.7655 70.3105 70.3315 70.1803 69.8974 70.0934C69.6369 70.0066 69.4199 69.9198 69.1594 69.7896C67.9873 69.1384 67.5532 67.7059 68.2044 66.5339C68.2478 66.4905 68.2478 66.4036 68.2912 66.3602L68.378 66.4036C68.2478 67.2284 68.5517 68.0532 69.1594 68.6609C69.6803 69.1384 70.5485 69.3555 71.4601 69.7896C71.9376 70.0066 72.3283 70.3973 72.5887 70.788C72.8926 71.1787 73.0663 71.6128 73.3267 71.9601C73.5438 72.3073 73.891 72.6112 74.2817 72.7848C74.6724 73.0019 75.1499 72.9585 75.4972 72.698L75.6274 72.7848Z" fill="#612B89"/>
<path d="M114.696 72.3941C115.044 72.6546 115.478 72.698 115.825 72.4809C116.216 72.3073 116.52 72.0469 116.737 71.6996C116.997 71.3523 117.171 70.9616 117.431 70.6143C117.692 70.2237 118.082 69.8764 118.516 69.6593C119.385 69.2252 120.209 69.095 120.687 68.6175C121.251 68.0532 121.512 67.2718 121.425 66.4904L121.512 66.447C122.076 67.2718 121.989 68.4005 121.338 69.1818C120.991 69.5725 120.557 69.833 120.036 69.9198C119.602 70.0066 119.211 70.1368 118.82 70.2671C118.082 70.5275 117.692 71.2655 117.084 71.96C116.78 72.3073 116.389 72.6112 115.955 72.7414C115.738 72.8282 115.478 72.8282 115.261 72.7848C115.044 72.7414 114.827 72.6112 114.653 72.4375L114.696 72.3941Z" fill="#612B89"/>
<path d="M88.2161 29.853C88.1727 29.115 88.4331 28.3771 88.9541 27.8562C89.2579 27.5957 89.6052 27.3787 89.9959 27.2918C90.3866 27.205 90.7773 27.1616 91.1679 27.2484C91.9059 27.3352 92.557 27.5523 93.2082 27.6825C93.7725 27.8128 94.3803 27.8128 94.9446 27.6825C95.5523 27.5523 96.16 27.2484 96.8112 27.0314C97.1585 26.9012 97.5057 26.8143 97.8964 26.7709C98.2871 26.6841 98.6778 26.6841 99.0685 26.7709C99.8499 26.9012 100.544 27.2484 101.065 27.8128C101.586 28.3337 101.934 28.9848 102.107 29.6794C101.716 29.115 101.239 28.6809 100.675 28.2903C100.154 27.943 99.546 27.7693 98.9383 27.7259C98.6344 27.7259 98.3739 27.7693 98.0701 27.8128C97.7662 27.8996 97.4623 27.9864 97.2019 28.1166C96.5507 28.4205 95.8996 28.6809 95.205 28.8546C94.4237 29.0716 93.6423 29.0282 92.9043 28.8112C92.2098 28.5941 91.5586 28.3771 90.9943 28.2034C90.6904 28.1166 90.43 28.0732 90.1261 28.1166C89.8222 28.1166 89.5618 28.2034 89.3013 28.3771C88.7804 28.7244 88.3897 29.2453 88.2161 29.853Z" fill="#612B89"/>
<path d="M90.6912 79.0359C90.8214 79.4266 91.1253 79.7304 91.4725 79.9475C91.8198 80.0777 92.2105 80.0777 92.5578 79.9475C92.9485 79.8173 93.2957 79.6002 93.7732 79.47C94.2507 79.2963 94.7282 79.2529 95.2492 79.2963C96.2042 79.47 96.9421 79.9475 97.6801 79.8607C98.5049 79.7304 99.1994 79.2095 99.5901 78.4716C99.5033 78.9057 99.3297 79.3397 99.0258 79.687C98.7219 80.0777 98.2878 80.3382 97.8103 80.4684C97.5499 80.5118 97.2894 80.5552 97.0724 80.5118C96.8553 80.4684 96.5949 80.4684 96.3778 80.3816C95.9437 80.2514 95.553 80.1211 95.1623 80.0777C94.7717 79.9909 94.4244 80.0343 94.0337 80.1645C93.643 80.2514 93.2523 80.4684 92.7748 80.5552C92.5144 80.5986 92.2973 80.5986 92.0369 80.5986C91.7764 80.5552 91.5594 80.4684 91.3423 80.2948C90.9516 79.9475 90.7346 79.5134 90.6912 79.0359Z" fill="#612B89"/>
<path d="M87.3922 58.807C87.3922 58.807 84.397 47.2167 71.4609 53.1204C71.4609 53.1204 76.236 68.8346 87.3922 58.807Z" fill="#3B224D"/>
<path d="M86.9578 58.6335C86.9578 58.6335 84.6137 48.1284 72.676 53.598C72.676 53.598 76.3658 66.317 86.9578 58.6335Z" fill="white"/>
<path d="M80.8369 60.717C83.1384 60.717 85.0042 58.8512 85.0042 56.5496C85.0042 54.2481 83.1384 52.3823 80.8369 52.3823C78.5353 52.3823 76.6696 54.2481 76.6696 56.5496C76.6696 58.8512 78.5353 60.717 80.8369 60.717Z" fill="#90BD4A"/>
<path d="M81.3577 54.2925C81.6182 54.6832 81.7918 55.1607 81.8787 55.6816C81.9221 56.1157 81.9221 56.5064 81.8352 56.9405C81.7484 57.3312 81.5748 57.7218 81.3577 58.0691C81.0973 58.5032 80.75 58.8505 80.3159 59.1109C80.0555 58.7203 79.8818 58.2427 79.795 57.7652C79.7516 57.3311 79.7516 56.9405 79.8384 56.5064C79.9252 56.0723 80.0989 55.6816 80.3159 55.3343C80.6198 54.9002 80.9671 54.5529 81.3577 54.2925Z" fill="#261234"/>
<path d="M70.4624 50.9499C70.2888 52.2088 71.5911 52.9902 72.8499 53.294C74.1088 53.5979 75.4111 53.3809 76.67 53.4243C78.9273 53.4677 81.0978 54.2491 82.8776 55.6382C83.7892 56.3761 84.5705 57.2443 85.5689 57.8955C86.5674 58.5466 87.8262 58.8939 88.9115 58.4164C89.9967 57.9389 90.6479 56.1157 89.8665 55.2041L88.6076 53.9886C86.5674 51.8181 83.9194 50.5592 81.0544 49.8213C77.6684 48.9531 75.3243 48.9531 72.112 50.2988L70.4624 50.9499Z" fill="#7333A2"/>
<path d="M70.4618 50.95C70.5052 51.4709 70.7222 51.9484 71.0695 52.2956C71.4168 52.6429 71.8075 52.9034 72.285 53.077C72.7191 53.2507 73.1966 53.2941 73.6741 53.2941C74.1516 53.2941 74.6725 53.2507 75.15 53.1638C76.2353 52.9902 77.2771 52.9902 78.3623 53.077C79.4476 53.2072 80.4894 53.5545 81.4878 53.9886C82.4862 54.4661 83.3544 55.0739 84.1792 55.8118C84.8738 56.5064 85.6551 57.1141 86.5233 57.5916C86.9574 57.8087 87.3915 57.8955 87.869 57.9389C88.3031 57.9823 88.7806 57.8955 89.1713 57.635C89.562 57.3746 89.8659 57.0273 89.9961 56.5498C90.1697 56.0723 90.1263 55.5514 89.8224 55.1173C90.0395 55.2909 90.1697 55.508 90.2565 55.7684C90.3434 56.0289 90.3434 56.3327 90.2999 56.5932C90.2131 57.1575 89.9093 57.6784 89.4752 58.0691C88.9977 58.4598 88.4333 58.6334 87.8256 58.6769C87.2613 58.7203 86.6535 58.59 86.1326 58.4164C85.0474 58.0257 84.2226 57.2877 83.3978 56.68C83.0071 56.3761 82.6165 56.0723 82.2258 55.7684C81.8351 55.508 81.401 55.2475 80.9669 55.0739C80.0987 54.6398 79.1437 54.3793 78.1887 54.2057C77.1903 54.0754 76.1918 54.032 75.1934 54.0754C74.1516 54.1188 73.0229 54.0754 71.9811 53.5545C71.5036 53.2941 71.0695 52.9034 70.7657 52.4259C70.4618 52.0786 70.3316 51.5143 70.4618 50.95Z" fill="#3B224D"/>
<path d="M72.0685 50.2555C73.2839 49.2571 74.7599 48.6493 76.3226 48.4323C76.4963 48.3889 76.7133 48.3455 76.8869 48.3455H77.4947C77.6683 48.3455 77.8854 48.3455 78.1024 48.3455L78.7101 48.3889L79.3179 48.4323C79.5349 48.4323 79.7086 48.5191 79.8822 48.5191C80.2729 48.6059 80.6636 48.6493 81.0543 48.7796C82.5736 49.2136 84.0061 49.9516 85.265 50.8632C85.9161 51.2973 86.4804 51.8182 87.0882 52.3391C87.6091 52.9035 88.13 53.4678 88.6509 54.0755C87.9998 53.6414 87.392 53.2073 86.7843 52.7298L85.8293 52.1221C85.482 51.9484 85.2216 51.688 84.8743 51.5144C84.2232 51.1671 83.572 50.8198 82.8775 50.5159C82.5302 50.3857 82.1829 50.2121 81.879 50.0818L80.8372 49.7346C79.4481 49.3439 77.9722 49.1702 76.4963 49.2136C74.9335 49.3439 73.4576 49.6912 72.0685 50.2555Z" fill="#8F5CB5"/>
<path d="M93.9467 65.796C93.2956 65.4921 92.7313 65.2316 92.1669 64.9712C91.8631 64.841 91.6026 64.7107 91.2988 64.6239C90.9949 64.5371 90.691 64.4069 90.3438 64.2766C90.691 64.1464 91.0383 64.103 91.3856 64.1464C91.7329 64.1898 92.0801 64.2766 92.384 64.4069C92.6879 64.5371 92.9917 64.7541 93.2522 64.9712C93.5995 65.1882 93.8165 65.4487 93.9467 65.796Z" fill="#3B224D"/>
<path d="M102.455 58.807C102.455 58.807 105.45 47.2167 118.386 53.1204C118.386 53.1204 113.611 68.8346 102.455 58.807Z" fill="#3B224D"/>
<path d="M102.889 58.6335C102.889 58.6335 105.276 48.1284 117.17 53.598C117.17 53.598 113.481 66.317 102.889 58.6335Z" fill="white"/>
<path d="M108.966 60.717C111.267 60.717 113.133 58.8512 113.133 56.5496C113.133 54.2481 111.267 52.3823 108.966 52.3823C106.664 52.3823 104.798 54.2481 104.798 56.5496C104.798 58.8512 106.664 60.717 108.966 60.717Z" fill="#90BD4A"/>
<path d="M108.488 54.2925C108.922 54.5529 109.27 54.9002 109.53 55.2909C109.747 55.6382 109.921 56.0289 110.007 56.463C110.094 56.8536 110.094 57.2877 110.051 57.7218C110.007 58.1993 109.79 58.6768 109.53 59.0675C109.096 58.8071 108.749 58.4598 108.488 58.0257C108.271 57.6784 108.097 57.2877 108.011 56.8971C107.924 56.5064 107.924 56.0723 107.967 55.6382C108.011 55.1607 108.184 54.6832 108.488 54.2925Z" fill="#261234"/>
<path d="M119.384 50.9499C119.558 52.2088 118.255 52.9902 116.997 53.294C115.738 53.5979 114.435 53.3809 113.133 53.4243C110.876 53.4677 108.705 54.2491 106.926 55.6382C106.014 56.3761 105.189 57.2443 104.234 57.8955C103.279 58.5466 101.977 58.8939 100.892 58.4164C99.8064 57.9389 99.1553 56.1157 99.9366 55.2041L101.152 53.9886C103.192 51.8181 105.84 50.5592 108.705 49.8213C112.091 48.9531 114.435 48.9531 117.648 50.2988L119.384 50.9499Z" fill="#7333A2"/>
<path d="M119.385 50.95C119.472 51.4709 119.385 52.0352 119.038 52.5127C118.734 52.9902 118.3 53.3375 117.822 53.6413C116.78 54.1623 115.652 54.1623 114.61 54.1623C113.611 54.0754 112.613 54.1188 111.615 54.2925C110.182 54.5529 108.793 55.0739 107.534 55.8986C107.143 56.1591 106.753 56.463 106.362 56.8102C105.537 57.418 104.712 58.1993 103.627 58.5466C103.106 58.7637 102.499 58.8505 101.934 58.8071C101.326 58.8071 100.762 58.59 100.285 58.1993C99.8506 57.8087 99.5467 57.2877 99.4599 56.7234C99.4165 56.463 99.4599 56.1591 99.5033 55.8986C99.5901 55.6382 99.7203 55.4211 99.9374 55.2475C99.6769 55.6816 99.5901 56.2025 99.7637 56.68C99.894 57.1141 100.198 57.5048 100.589 57.7652C100.979 57.9823 101.457 58.1125 101.891 58.0691C102.368 58.0257 102.802 57.8955 103.237 57.7218C104.105 57.2443 104.886 56.6366 105.581 55.942C106.362 55.2041 107.274 54.5964 108.272 54.1188C109.27 53.6413 110.312 53.3375 111.397 53.2072C112.483 53.077 113.568 53.1204 114.61 53.2941C115.087 53.3375 115.608 53.3809 116.086 53.3809C116.563 53.3809 117.041 53.3375 117.475 53.1638C117.952 52.9902 118.343 52.7297 118.69 52.3825C119.168 51.905 119.385 51.4275 119.385 50.95Z" fill="#3B224D"/>
<path d="M117.779 50.2555C116.39 49.6477 114.957 49.3005 113.438 49.2136C111.962 49.1268 110.486 49.3005 109.097 49.7346L108.055 50.0818C107.708 50.2121 107.36 50.3857 107.013 50.5159C106.319 50.8198 105.667 51.1237 105.016 51.5144C104.669 51.688 104.409 51.905 104.061 52.1221L103.106 52.7298C102.498 53.1639 101.891 53.6414 101.24 54.0755C101.717 53.4678 102.281 52.9035 102.802 52.3391C103.41 51.8616 103.974 51.2973 104.582 50.8632C105.884 49.9516 107.274 49.2571 108.793 48.7796C109.184 48.6927 109.574 48.6059 109.965 48.5191C110.139 48.4757 110.356 48.4323 110.529 48.4323L111.137 48.3889L111.745 48.3455C111.962 48.3455 112.135 48.3455 112.352 48.3455H112.917C113.09 48.3455 113.307 48.3889 113.525 48.4323C115.044 48.6493 116.52 49.3005 117.779 50.2555Z" fill="#8F5CB5"/>
<path d="M95.8998 65.796C96.0734 65.4921 96.2905 65.1882 96.5509 64.9712C96.8114 64.7541 97.1152 64.5371 97.4191 64.4069C97.723 64.2766 98.0703 64.1898 98.4609 64.1464C98.8082 64.103 99.1555 64.1464 99.5028 64.2766C99.1555 64.4069 98.8516 64.4937 98.5478 64.6239C98.2439 64.7541 97.94 64.841 97.6796 64.9712C97.0718 65.1882 96.5075 65.4921 95.8998 65.796Z" fill="#3B224D"/>
<path d="M103.453 66.447C103.453 68.4439 102.671 70.3105 101.282 71.743C100.978 72.0469 100.674 72.3507 100.327 72.6112C97.1149 74.9987 92.7305 74.9987 89.5182 72.6112C89.1709 72.3507 88.867 72.0469 88.5632 71.743C87.1741 70.3105 86.3927 68.4439 86.3927 66.447C91.8189 68.6175 97.8962 68.6609 103.322 66.5338L103.453 66.447Z" fill="#CE75D0"/>
<path d="M100.328 72.6112C97.1152 74.9988 92.7309 74.9988 89.5186 72.6112C92.5138 69.6594 97.3323 69.6594 100.328 72.6112Z" fill="#9F619F"/>
</g>
</svg>
