<svg width="200" height="200" viewBox="0 0 200 200" fill="none" xmlns="http://www.w3.org/2000/svg">
<mask id="mask0_618_13690" style="mask-type:alpha" maskUnits="userSpaceOnUse" x="0" y="0" width="200" height="200">
<circle cx="100" cy="100" r="100" fill="#FF00FF"/>
</mask>
<g mask="url(#mask0_618_13690)">
<circle cx="100" cy="100" r="100" fill="#F5F5F5"/>
<path d="M113.608 61.8762C115.631 62.0134 117.655 62.2535 119.678 62.5964C122.491 63.0765 118.821 81.5962 115.906 85.986L109.321 82.625C109.321 82.625 116.626 63.248 111.55 61.0874L113.608 61.8762Z" fill="#770D7B"/>
<path d="M68.6465 72.8509C68.8179 72.4393 69.4696 71.8563 70.567 71.6505C70.4641 71.0332 70.4298 70.4159 70.4641 69.7986C69.4353 69.9701 68.5093 70.5531 67.892 71.3762C66.3487 73.5025 68.2349 77.0007 68.2349 77.0007C68.2349 77.0007 73.345 85.2316 75.4027 86.9121L76.2258 85.9518C76.2258 85.9518 71.493 80.053 69.1952 76.1433C69.1609 76.1776 68.0977 74.1198 68.6465 72.8509Z" fill="#770D7B"/>
<path d="M73.2076 68.0151C73.2076 68.0151 69.9496 69.3869 67.8918 71.3761C65.8341 73.3652 71.3214 85.7117 74.2365 90.1015L79.8267 86.7405C79.8267 86.7405 72.5217 67.3635 77.5975 65.2029L73.2076 68.0151Z" fill="#770D7B"/>
<path d="M130.618 103.545C130.618 130.708 109.046 147.478 97.1459 147.478C85.2453 147.478 63.6733 130.708 63.6733 103.545C63.6733 76.3833 78.6605 63.9683 97.1459 63.9683C115.631 63.9683 130.618 76.4176 130.618 103.545Z" fill="#AE1D9E"/>
<path d="M112.751 63.1796C111.207 61.019 104.177 59.9558 97.1461 59.9558C90.1155 59.9558 83.0849 61.019 81.5416 63.1796C78.455 67.4665 72.5904 74.1885 71.0471 79.8473H123.211C121.702 74.1885 115.837 67.4665 112.751 63.1796Z" fill="#AE1D9E"/>
<path d="M76.1915 76.4862C77.8034 73.6739 80.0669 70.7245 82.0218 68.1523C82.8106 67.1235 83.5651 66.1289 84.2167 65.2372C85.0398 64.6199 89.2925 63.3167 97.1462 63.3167C105 63.3167 109.253 64.6199 110.076 65.2372C110.727 66.1289 111.482 67.1235 112.271 68.1523C114.225 70.6902 116.455 73.6396 118.101 76.4862H76.1915Z" fill="#770D7B"/>
<path d="M115.768 107.729C110.007 111.125 101.364 113.388 97.4203 113.388C93.5449 113.388 85.0053 111.193 79.4494 107.901C66.7257 100.39 72.0415 87.1521 74.4079 81.2532C77.8375 72.6107 84.7309 65.2029 97.4203 65.2029C106.063 65.2029 111.962 68.8725 115.974 73.7768C117.518 75.6973 118.855 77.7894 119.884 80.0529C120.09 80.4644 120.261 80.876 120.433 81.2532C123.108 87.3578 128.458 100.253 115.768 107.729Z" fill="#6E983B"/>
<path d="M119.883 80.0185C119.609 81.699 118.923 83.0022 117.38 82.7965C113.436 82.2134 113.161 79.1954 113.161 79.1954L116.9 78.4409L115.974 73.7424C117.517 75.6973 118.82 77.7893 119.883 80.0185Z" fill="#577E2A"/>
<path d="M109.081 69.7986C109.081 69.7986 107.778 75.7317 97.1462 75.7317C86.5145 75.7317 85.2113 69.7986 85.2113 69.7986C85.2113 69.7986 89.7383 65.9575 89.7383 51.3818C89.704 47.3349 88.7438 43.3223 86.9604 39.687H107.332C105.549 43.3223 104.588 47.3349 104.554 51.3818C104.554 66.0946 109.081 69.7986 109.081 69.7986Z" fill="#6E983B"/>
<path d="M98.6893 60.47C98.4836 63.5223 97.146 72.5077 97.146 72.5077C97.146 72.5077 95.8085 63.5223 95.6027 60.47C95.3627 57.1776 94.2309 50.0441 93.7165 47.2662C93.202 44.4882 88.5035 40.0984 88.5035 40.0984H105.789C105.789 40.0984 101.124 44.4882 100.576 47.2662C100.027 50.0441 98.9294 57.1776 98.6893 60.47Z" fill="#577E2A"/>
<path d="M72.8642 70.2444C72.8985 70.9303 73.0014 71.6162 73.2071 72.2678C73.5844 73.8111 71.218 74.4627 70.8064 72.9194C70.5664 72.0621 70.4292 71.1361 70.3949 70.2444H66.9653V144.769H127.223V70.2444H72.8642Z" fill="#F5D900"/>
<path d="M109.835 130.262L103.49 136.435H90.8009L84.4905 130.262" stroke="#D9B600" stroke-width="1.58137" stroke-miterlimit="10"/>
<path d="M111.961 119.459L104.554 126.661H89.7378L82.3643 119.459" stroke="#D9B600" stroke-width="1.58137" stroke-miterlimit="10"/>
<path d="M114.087 108.073L105.616 116.303H88.6741L80.2031 108.073" stroke="#D9B600" stroke-width="1.58137" stroke-miterlimit="10"/>
<path d="M116.214 96.1033L106.679 105.397H87.6111L78.0769 96.1033" stroke="#D9B600" stroke-width="1.58137" stroke-miterlimit="10"/>
<path d="M118.341 84.374L107.743 94.697H86.5485L75.9512 84.374" stroke="#D9B600" stroke-width="1.58137" stroke-miterlimit="10"/>
<path d="M83.9076 92.0906C83.9076 92.0906 72.3842 99.4298 65.285 106.735" stroke="#D9B600" stroke-width="1.58137" stroke-miterlimit="10"/>
<path d="M85.7588 103.888C85.7588 103.888 74.2354 111.227 67.1362 118.532" stroke="#D9B600" stroke-width="1.58137" stroke-miterlimit="10"/>
<path d="M87.6458 115.72C87.6458 115.72 76.1225 123.059 69.0233 130.364" stroke="#D9B600" stroke-width="1.58137" stroke-miterlimit="10"/>
<path d="M89.5313 126.661C89.5313 126.661 78.008 134 70.9088 141.305" stroke="#D9B600" stroke-width="1.58137" stroke-miterlimit="10"/>
<path d="M109.767 92.0906C109.767 92.0906 121.29 99.4298 128.389 106.735" stroke="#D9B600" stroke-width="1.58137" stroke-miterlimit="10"/>
<path d="M107.914 103.888C107.914 103.888 119.437 111.227 126.537 118.532" stroke="#D9B600" stroke-width="1.58137" stroke-miterlimit="10"/>
<path d="M106.029 115.72C106.029 115.72 117.552 123.059 124.651 130.364" stroke="#D9B600" stroke-width="1.58137" stroke-miterlimit="10"/>
<path d="M104.141 126.661C104.141 126.661 115.665 134 122.764 141.305" stroke="#D9B600" stroke-width="1.58137" stroke-miterlimit="10"/>
<path d="M80.1349 83.7225C80.1349 83.7225 87.4056 85.9174 97.5571 85.9174C107.537 85.9174 114.705 83.7225 114.705 83.7225L113.23 69.9014L81.8497 70.4501L80.1349 83.7225Z" fill="#AE1D9E"/>
<path d="M66.4855 92.0218C73.7219 89.8269 80.3409 87.1861 83.4618 77.4119C86.8914 76.2801 92.2072 75.5256 97.1458 75.5256C102.427 75.5256 107.366 76.2801 111.653 77.8577C114.122 86.6374 122.97 90.4099 127.806 92.0218" stroke="#AE1D9E" stroke-width="6.99151" stroke-miterlimit="10"/>
<path d="M90.0125 78.5095H104.279L97.1459 90.8559L90.0125 78.5095Z" fill="#F5D800"/>
<path d="M94.6074 82.0077H96.4937V85.3001L97.1453 86.3975L97.7969 85.3001V82.0077H99.6832L100.403 80.7388H93.8872L94.6074 82.0077Z" fill="#A81A97"/>
<path d="M104.279 78.5095H90.0125L97.1459 90.8559L104.279 78.5095ZM103.868 78.7496L103.216 79.8471H102.187C102.119 79.607 101.913 79.4698 101.673 79.5384C101.501 79.5727 101.399 79.7099 101.364 79.8471H92.8933C92.859 79.6413 92.6875 79.5041 92.4817 79.5041C92.4474 79.5041 92.3788 79.5041 92.3446 79.5384L91.8987 78.7496H103.868ZM101.536 80.2586L97.2831 87.5979C97.2145 87.5636 97.1116 87.5636 97.0431 87.5979L92.7904 80.2586C92.859 80.19 92.8933 80.1214 92.9276 80.0528H101.399C101.399 80.1214 101.467 80.19 101.536 80.2586ZM91.6929 78.7496L92.2074 79.6413C92.0359 79.8128 92.0359 80.0871 92.1731 80.2586C92.2417 80.3615 92.3788 80.3958 92.4817 80.3958C92.516 80.3958 92.5846 80.3958 92.6189 80.3615L96.8716 87.7007C96.7001 87.8722 96.7001 88.1466 96.8373 88.3181C96.8373 88.3181 96.8373 88.3181 96.8716 88.3524L96.4257 89.1412L90.424 78.7496H91.6929ZM97.1459 90.4101L96.4943 89.3126L97.0088 88.421C97.0431 88.421 97.0773 88.4553 97.1459 88.4553C97.386 88.4553 97.5918 88.2495 97.5918 88.0094C97.5918 87.8722 97.5575 87.7693 97.4546 87.7007L101.707 80.3615C101.742 80.3615 101.776 80.3958 101.844 80.3958C102.05 80.3958 102.222 80.2586 102.256 80.0528H103.148L97.1459 90.4101Z" fill="#A81A97"/>
<path d="M83.0499 71.4792C83.0499 71.4792 81.198 69.4558 75.3677 70.5533C69.5375 71.6507 60.6892 76.9323 57.8427 81.1506C55.7163 84.2715 57.4311 88.2498 60.2091 90.2732C62.987 92.2967 67.6855 92.0909 71.5266 87.2895C74.9562 83.0026 81.8496 83.0026 83.8044 80.9105C85.7593 78.8185 85.9308 72.611 83.0499 71.4792Z" fill="#6E983B"/>
<path d="M112.956 77.6868C112.956 77.6868 115.048 79.4701 120.707 77.6525C126.366 75.8348 134.46 69.4901 136.792 64.9288C138.506 61.5335 136.311 57.8296 133.293 56.1491C130.275 54.4686 125.68 55.2917 122.456 60.539C119.575 65.2032 112.682 67.3638 107.88 69.0786C105.171 70.0731 109.938 76.898 112.956 77.6868Z" fill="#6E983B"/>
<path d="M72.2126 102.757C73.3101 103.546 74.3733 105.329 73.7902 106.152C73.2072 106.975 71.1838 106.529 70.0863 105.741C68.9888 104.952 68.5773 103.648 69.1603 102.825C69.7433 102.002 71.1152 101.968 72.2126 102.757Z" fill="#F1EFDB"/>
<path d="M75.7794 101.591C76.8769 102.38 77.94 104.163 77.357 104.986C76.774 105.809 74.7505 105.363 73.6531 104.575C72.5556 103.786 72.1441 102.482 72.7271 101.659C73.3101 100.836 74.6819 100.802 75.7794 101.591Z" fill="#F1EFDB"/>
<path d="M78.4209 98.9841C79.5183 99.7729 80.5815 101.556 79.9985 102.379C79.4155 103.202 77.392 102.757 76.2946 101.968C75.1971 101.179 74.7855 99.8758 75.3686 99.0527C75.9516 98.2296 77.3234 98.1953 78.4209 98.9841Z" fill="#F1EFDB"/>
<path d="M79.3461 94.217C80.6493 94.5942 82.2612 95.8975 82.1583 96.892C82.0555 97.8866 80.032 98.9498 78.7288 98.5725C77.4255 98.1953 76.6024 97.0978 76.8768 96.1375C77.1512 95.1772 78.0429 93.8397 79.3461 94.217Z" fill="#F1EFDB"/>
<path d="M56.0252 88.1468C56.8826 91.0276 61.8554 100.836 67.137 104.06C72.4185 107.284 77.1856 101.831 79.4834 97.681C81.7812 93.5312 76.2939 87.4609 73.3788 84.8544C70.4636 82.248 65.868 78.6469 64.2904 78.2011C61.5125 77.378 54.2075 82.0422 56.0252 88.1468Z" fill="#6E983B"/>
<path d="M120.638 125.838C125.611 130.228 128.252 141.648 126.674 150.668C125.097 159.688 110.727 156.498 109.149 152.794C107.572 149.09 108.738 144.152 107.297 140.585C104.588 133.932 113.711 127.964 114.328 127.45C117.62 124.672 120.638 125.838 120.638 125.838Z" fill="#6E983B"/>
<path d="M105.479 142.06C103.799 137.91 111.447 128.719 113.607 126.867C117.414 123.643 122.318 125.015 122.318 125.015" stroke="#AE1D9E" stroke-width="2.33039" stroke-miterlimit="10"/>
<path d="M135.694 66.6093C137.82 64.4829 144.096 55.4632 144.439 49.29C144.782 43.1168 137.717 41.5049 132.984 41.4706C128.252 41.4363 125.474 49.1185 124.582 52.9253C123.69 56.7321 122.696 62.4595 123.039 64.0714C123.622 66.9522 131.201 71.1363 135.694 66.6093Z" fill="#6E983B"/>
<path d="M141.558 46.1007C141.833 44.7632 143.033 43.0827 144.028 43.2885C145.022 43.4942 145.434 45.5177 145.159 46.8552C144.885 48.1927 143.856 49.0844 142.862 48.8786C141.867 48.6729 141.284 47.4382 141.558 46.1007Z" fill="#E3DFB8"/>
<path d="M139.089 43.2882C139.363 41.9507 140.564 40.2702 141.558 40.476C142.553 40.6817 142.964 42.7052 142.69 44.0427C142.415 45.3802 141.387 46.2719 140.392 46.0661C139.397 45.8604 138.814 44.6257 139.089 43.2882Z" fill="#E3DFB8"/>
<path d="M135.625 41.9164C135.9 40.5788 137.1 38.8984 138.094 39.1041C139.089 39.3099 139.501 41.3333 139.226 42.6709C138.952 44.0084 137.923 44.9001 136.928 44.6943C135.934 44.4885 135.351 43.2539 135.625 41.9164Z" fill="#E3DFB8"/>
<path d="M130.892 42.9796C130.721 41.642 131.27 39.6529 132.23 39.3442C133.19 39.0356 134.974 40.476 135.145 41.8135C135.317 43.151 134.665 44.3514 133.636 44.4886C132.607 44.6258 131.064 44.3514 130.892 42.9796Z" fill="#E3DFB8"/>
<path d="M73.6528 125.838C68.68 130.228 66.0392 141.648 67.6168 150.668C69.1944 159.687 83.5643 156.498 85.1419 152.794C86.7195 149.09 85.5534 142.608 86.9938 139.007C88.4343 135.406 81.8495 128.993 79.9632 127.415C76.6709 124.672 73.6528 125.838 73.6528 125.838Z" fill="#6E983B"/>
<path d="M88.5373 142.06C90.2178 137.91 82.5698 128.719 80.4092 126.867C76.6024 123.643 71.6981 125.015 71.6981 125.015" stroke="#AE1D9E" stroke-width="2.33039" stroke-miterlimit="10"/>
<path d="M75.6426 169.53C75.6426 169.53 79.6552 176.424 83.0847 179.304V177.075C83.0847 177.075 89.841 184.037 93.442 185.992C93.442 185.992 92.4474 181.877 91.5557 178.756L93.4763 180.265C93.4763 180.265 92.1388 171.211 90.2525 168.227C88.3663 165.243 75.6426 169.53 75.6426 169.53Z" fill="#F5D900"/>
<path d="M77.6316 166.409C77.1515 168.913 81.8843 174.572 81.8843 174.572L82.0558 171.382L88.7434 179.442L88.3319 173.714L89.7037 174.846C89.7037 174.846 89.4979 169.942 86.3084 166.204C83.1189 162.465 78.0775 164.283 77.6316 166.409Z" fill="#FF9C00"/>
<path d="M77.2542 162.671C76.6712 160.511 75.5051 158.762 74.1676 157.801L73.756 156.361L71.1839 157.081C68.8861 157.733 67.8572 161.265 68.8861 164.969C69.9149 168.673 72.6243 171.177 74.9221 170.525L77.4943 169.805L77.0827 168.364C77.7686 166.89 77.8372 164.798 77.2542 162.671Z" fill="#D9B600"/>
<path d="M77.5272 169.857C79.8264 169.217 80.8505 165.681 79.8146 161.958C78.7786 158.236 76.075 155.737 73.7758 156.377C71.4765 157.016 70.4525 160.553 71.4884 164.275C72.5243 167.998 75.228 170.497 77.5272 169.857Z" fill="#F5D900"/>
<path d="M63.262 143.088C63.3991 141.236 63.9136 137.292 69.1951 136.298C74.4766 135.303 83.8393 141.579 86.7202 145.352C89.601 149.124 87.7833 151.491 88.0234 153.514C88.2635 155.538 94.8825 164.626 93.202 168.021C91.5215 171.417 83.4278 172.926 77.2203 170.593C72.0073 168.639 66.4857 159.585 65.2511 156.498C63.5363 152.28 62.8504 147.684 63.262 143.088Z" fill="#3A5CF9"/>
<path d="M70.8409 130.811L67.48 133.246C67.48 133.246 66.6569 138.287 67.48 141.374C68.1316 143.809 69.2633 145.146 69.9492 145.763C69.9492 145.763 71.9384 142.883 72.3499 141.168C72.7615 139.453 73.8589 136.298 74.3391 134.789C74.8192 133.28 70.8409 130.811 70.8409 130.811Z" fill="#F5D900"/>
<path d="M91.83 163.803C91.247 161.642 90.0809 159.893 88.7434 158.933L88.3319 157.493L85.7597 158.213C83.4619 158.864 82.433 162.397 83.4619 166.101C84.4907 169.805 87.2001 172.308 89.4979 171.657L92.0701 170.937L91.6585 169.496C92.3444 168.056 92.4473 165.964 91.83 163.803Z" fill="#D9B600"/>
<path d="M92.1308 170.983C94.43 170.343 95.4541 166.807 94.4182 163.085C93.3823 159.362 90.6786 156.863 88.3794 157.503C86.0802 158.143 85.0561 161.679 86.092 165.402C87.1279 169.124 89.8316 171.623 92.1308 170.983Z" fill="#F5D900"/>
<path d="M118.649 169.53C118.649 169.53 114.636 176.424 111.206 179.304V177.075C111.206 177.075 104.45 184.037 100.849 185.992C100.849 185.992 101.844 181.877 102.735 178.756L100.815 180.265C100.815 180.265 102.152 171.211 104.039 168.227C105.925 165.243 118.649 169.53 118.649 169.53Z" fill="#F5D900"/>
<path d="M116.66 166.41C117.14 168.913 112.407 174.572 112.407 174.572L112.235 171.382L105.548 179.442L105.994 173.68L104.622 174.812C104.622 174.812 104.828 169.908 108.017 166.169C111.207 162.431 116.248 164.283 116.66 166.41Z" fill="#FF9C00"/>
<path d="M117.037 162.671C117.62 160.511 118.786 158.762 120.123 157.801L120.535 156.361L123.107 157.081C125.405 157.733 126.434 161.265 125.405 164.969C124.376 168.673 121.667 171.177 119.369 170.525L116.797 169.805L117.208 168.364C116.557 166.89 116.454 164.798 117.037 162.671Z" fill="#D9B600"/>
<path d="M122.827 164.274C123.863 160.552 122.839 157.015 120.54 156.376C118.24 155.736 115.537 158.235 114.501 161.957C113.465 165.68 114.489 169.216 116.788 169.856C119.087 170.496 121.791 167.997 122.827 164.274Z" fill="#F5D900"/>
<path d="M131.03 143.088C130.893 141.236 130.378 137.292 125.097 136.298C119.815 135.303 110.453 141.579 107.572 145.352C104.691 149.124 106.509 151.491 106.268 153.514C106.028 155.538 99.4093 164.626 101.09 168.021C102.77 171.417 110.864 172.926 117.072 170.593C122.285 168.639 127.806 159.585 129.041 156.498C130.756 152.28 131.441 147.684 131.03 143.088Z" fill="#3A5CF9"/>
<path d="M123.45 130.811L126.811 133.246C126.811 133.246 127.634 138.287 126.811 141.374C126.159 143.809 125.028 145.146 124.342 145.763C124.342 145.763 122.353 142.883 121.941 141.168C121.53 139.453 120.432 136.298 119.952 134.789C119.472 133.28 123.45 130.811 123.45 130.811Z" fill="#F5D900"/>
<path d="M102.461 163.803C103.044 161.642 104.21 159.893 105.548 158.933L105.96 157.493L108.532 158.213C110.83 158.864 111.858 162.397 110.83 166.101C109.801 169.805 107.091 172.308 104.793 171.657L102.221 170.937L102.633 169.496C101.947 168.056 101.878 165.964 102.461 163.803Z" fill="#D9B600"/>
<path d="M108.178 165.423C109.214 161.701 108.19 158.165 105.891 157.525C103.592 156.885 100.888 159.384 99.8523 163.106C98.8163 166.829 99.8404 170.365 102.14 171.005C104.439 171.645 107.143 169.146 108.178 165.423Z" fill="#F5D900"/>
<path d="M119.678 62.5967C116.969 61.8422 114.225 61.1905 111.447 60.7447C107.297 60.0588 103.936 68.1183 104.725 84.7516L111.07 84.3744C111.07 84.3744 111.927 74.12 114.499 68.1183C117.003 62.2194 119.678 62.5967 119.678 62.5967Z" fill="#AE1D9E"/>
<path d="M111.001 84.5801C111.001 84.5801 111.756 69.6958 116.386 64.4142C116.386 64.4142 118.032 62.4594 119.678 62.5623L119.095 63.9684C119.095 63.9684 117.689 64.0027 115.94 67.1579C114.945 68.9756 112.613 72.9538 111.31 84.8887L111.001 84.5801Z" fill="#770D7B"/>
<path d="M68.9542 70.3817C68.9542 70.3817 73.0354 66.5406 77.5967 65.2031C81.6436 64.0027 89.8403 69.4557 89.8403 85.5404L83.4956 85.1631C83.4956 85.1631 81.6436 75.1145 76.3278 71.4449C72.178 68.5983 68.9542 70.3817 68.9542 70.3817Z" fill="#AE1D9E"/>
<path d="M74.613 70.382C72.761 69.5246 70.4975 69.3874 68.9199 70.382C69.2286 70.8621 69.5372 71.3422 69.8116 71.8567C71.0805 71.3422 73.3441 71.3079 76.2935 73.5029C80.7862 76.8638 82.9811 85.9522 82.9811 85.9522L83.4613 85.1291C80.8891 73.3657 76.9451 71.4451 74.613 70.382Z" fill="#770D7B"/>
<path d="M109.012 38.8982C106.92 41.2989 102.976 41.9848 97.1454 41.9848C91.3151 41.9848 87.3711 41.2989 85.2791 38.8982C83.1528 36.4632 83.4957 30.9416 83.4957 28.198C83.4957 25.4543 85.6221 24.8027 88.0914 22.1619C89.4289 20.7558 93.7158 19.8298 97.1454 19.8298C100.575 19.8298 104.965 20.6872 106.199 22.1619C108.497 24.9056 110.795 25.42 110.795 28.198C110.795 30.9759 111.104 36.4632 109.012 38.8982Z" fill="#6E983B"/>
<path d="M95.9109 29.2956C96.3654 29.2956 96.734 28.8964 96.734 28.4039C96.734 27.9114 96.3654 27.5122 95.9109 27.5122C95.4563 27.5122 95.0878 27.9114 95.0878 28.4039C95.0878 28.8964 95.4563 29.2956 95.9109 29.2956Z" fill="#2A4500"/>
<path d="M98.38 29.2956C98.8346 29.2956 99.2031 28.8964 99.2031 28.4039C99.2031 27.9114 98.8346 27.5122 98.38 27.5122C97.9254 27.5122 97.5569 27.9114 97.5569 28.4039C97.5569 28.8964 97.9254 29.2956 98.38 29.2956Z" fill="#2A4500"/>
<path d="M108.771 32.4851C108.394 33.5483 107.537 34.3714 106.474 34.7143C105.411 35.0916 104.244 35.023 103.181 34.8858C102.118 34.7486 101.089 34.5771 100.129 34.8515C99.1344 35.1259 98.2084 35.5717 97.4196 36.189L97.1796 36.3948L96.9395 36.189C96.1164 35.5717 95.1904 35.1259 94.2301 34.8515C93.2699 34.5771 92.241 34.7486 91.1778 34.8858C90.6291 34.9544 90.0804 35.023 89.5316 34.9887C88.9829 34.9887 88.3999 34.8858 87.8855 34.7143C86.8223 34.3714 85.9649 33.5483 85.5876 32.4851C86.0678 33.4454 86.9595 34.1313 87.9883 34.3714C88.9829 34.6457 90.0461 34.5085 91.0749 34.3028C91.5894 34.1999 92.1381 34.097 92.6868 34.0284C93.2699 33.9598 93.8529 33.9941 94.4016 34.1313C94.9503 34.2685 95.4991 34.44 95.9792 34.68C96.4937 34.9201 96.9738 35.2288 97.4196 35.5717H96.9052C97.351 35.2288 97.8312 34.9201 98.3456 34.68C98.8601 34.44 99.3745 34.2342 99.9232 34.1313C100.472 33.9941 101.055 33.9598 101.638 34.0284C102.187 34.0627 102.735 34.1999 103.25 34.3028C104.279 34.5085 105.342 34.6457 106.336 34.3714C107.4 34.1313 108.291 33.4454 108.771 32.4851Z" fill="#2A4500"/>
<path d="M88.023 23.534C88.023 23.534 89.1547 22.5394 90.2179 22.6766C91.2811 22.8137 92.6529 23.774 93.3388 25.2144C93.3388 25.2144 91.041 27.1007 90.2179 29.1241C89.3948 31.1476 87.0627 30.2902 86.6169 29.1241C85.9652 27.135 86.514 24.9401 88.023 23.534Z" fill="#648530"/>
<path d="M106.2 23.534C106.2 23.534 105.068 22.5394 104.005 22.6766C102.942 22.8137 101.57 23.774 100.884 25.2144C100.884 25.2144 103.182 27.1007 104.005 29.1241C104.828 31.1476 107.16 30.2902 107.606 29.1241C108.223 27.135 107.675 24.9401 106.2 23.534Z" fill="#648530"/>
<path d="M92.2069 26.0718C91.521 26.7577 90.3892 27.6151 89.5318 27.3407C88.5715 27.0321 88.3315 25.5917 88.8802 24.4256C89.4289 23.2596 90.6293 22.6765 91.5552 23.1567C92.4812 23.6368 93.1328 25.1458 92.2069 26.0718Z" fill="#242D24"/>
<path d="M91.4619 25.1791C91.767 25.0763 91.9017 24.6583 91.7626 24.2455C91.6236 23.8326 91.2635 23.5812 90.9583 23.684C90.6531 23.7868 90.5185 24.2048 90.6575 24.6177C90.7966 25.0305 91.1567 25.2819 91.4619 25.1791Z" fill="#E5E5E5"/>
<path d="M102.084 26.0718C102.77 26.7577 103.902 27.6151 104.759 27.3407C105.719 27.0321 105.959 25.5917 105.411 24.4256C104.862 23.2596 103.662 22.6765 102.736 23.1567C101.81 23.6368 101.158 25.1458 102.084 26.0718Z" fill="#242D24"/>
<path d="M104.775 25.0298C105.023 24.8243 104.999 24.3858 104.721 24.0504C104.443 23.715 104.016 23.6097 103.769 23.8152C103.521 24.0207 103.545 24.4592 103.823 24.7946C104.101 25.13 104.527 25.2353 104.775 25.0298Z" fill="#E5E5E5"/>
<path d="M92.3444 27.8894C92.2415 27.3407 92.3444 26.7577 92.6188 26.2432C92.9275 25.7288 93.339 25.3173 93.8877 25.0429C94.9166 24.5628 96.0484 24.3227 97.1801 24.357C98.3119 24.3227 99.4436 24.5628 100.472 25.0429C100.987 25.3173 101.433 25.7288 101.741 26.2432C102.016 26.7577 102.084 27.3064 102.016 27.8894C101.913 26.8606 101.193 25.9689 100.232 25.6259C99.7523 25.4544 99.2722 25.3173 98.7577 25.283C97.7288 25.1458 96.7 25.1458 95.6711 25.283C95.1567 25.3516 94.6765 25.4544 94.1964 25.6259C93.1675 26.0032 92.4473 26.8606 92.3444 27.8894Z" fill="#648530"/>
<path d="M101.672 20.3443L97.1452 21.819L92.6182 20.3443L93.6127 16.126C93.7842 15.3372 94.7102 14.7542 95.842 14.7542H98.4484C99.5459 14.7542 100.506 15.3372 100.678 16.126L101.672 20.3443Z" fill="#AE1D9E"/>
<path opacity="0.5" d="M109.388 22.2649C105.342 22.9851 101.26 23.3624 97.1449 23.3281C90.2515 23.3281 85.6902 22.2649 85.6902 22.2649C85.6902 22.2649 83.4952 22.6421 83.4952 25.2486C83.4952 28.7811 88.7425 31.6276 91.246 27.8208C93.7496 23.9797 97.1792 24.2197 97.1792 24.2197C97.1792 24.2197 100.609 23.9797 103.112 27.8208C105.616 31.6619 110.863 28.8154 110.863 25.2486C110.795 24.0826 110.28 23.0194 109.388 22.2649Z" fill="#F5D900"/>
<path d="M109.972 22.2305C105.719 22.9507 101.432 23.3279 97.1455 23.3279C92.8586 23.3279 88.5716 22.9507 84.319 22.2305" stroke="#AE1D9E" stroke-width="1.03573" stroke-miterlimit="10" stroke-linecap="round"/>
</g>
</svg>
