<?xml version="1.0" encoding="utf-8"?>
<!-- Generator: Adobe Illustrator 26.3.1, SVG Export Plug-In . SVG Version: 6.00 Build 0)  -->
<svg version="1.1" id="Layer_1" xmlns="http://www.w3.org/2000/svg" xmlns:xlink="http://www.w3.org/1999/xlink" x="0px" y="0px"
	 viewBox="0 0 165 318.6" style="enable-background:new 0 0 165 318.6;" xml:space="preserve">
<style type="text/css">
	.st0{fill:#97A849;}
	.st1{fill:#3D2C4D;}
	.st2{clip-path:url(#SVGID_00000021105238707900446890000018153807868975292569_);fill:#8D66B3;}
	.st3{clip-path:url(#SVGID_00000021105238707900446890000018153807868975292569_);fill:#7A589A;}
	.st4{clip-path:url(#SVGID_00000183957978442717337700000011267001015129868433_);fill:#8D66B3;}
	.st5{clip-path:url(#SVGID_00000183957978442717337700000011267001015129868433_);fill:#7A589A;}
	.st6{clip-path:url(#SVGID_00000052087084157291441110000006978135881227228060_);fill:#A6BA50;}
	.st7{clip-path:url(#SVGID_00000052087084157291441110000006978135881227228060_);fill:#97A849;}
	.st8{fill:#3F3268;}
	.st9{clip-path:url(#SVGID_00000122682832300109503440000003993174674131583923_);fill:#8D66B3;}
	.st10{clip-path:url(#SVGID_00000122682832300109503440000003993174674131583923_);fill:#7A589A;}
	.st11{fill:none;stroke:#B8C1CA;stroke-miterlimit:10;}
	.st12{fill:#8D66B3;}
	.st13{fill:#7A589A;}
	.st14{fill:#758239;}
	.st15{fill:#818F3E;}
	.st16{clip-path:url(#SVGID_00000163031533176075866210000008947544994668292281_);fill:#4A3B7A;}
	.st17{clip-path:url(#SVGID_00000163031533176075866210000008947544994668292281_);fill:#C5E6F9;}
	.st18{clip-path:url(#SVGID_00000163031533176075866210000008947544994668292281_);fill:#1E1833;}
	.st19{clip-path:url(#SVGID_00000163031533176075866210000008947544994668292281_);fill:#97A849;}
	.st20{fill:#4A3B7A;}
	.st21{fill:none;stroke:#1E1833;stroke-width:1.5;stroke-miterlimit:10;}
	.st22{fill:#1E1833;}
</style>
<g>
	<path class="st0" d="M136.5,67.8c0,0.1,0,0.1,0,0.1c-0.7,5.6-3,9.7-5.9,11.8h0c-0.4,0.3-0.8,0.6-1.2,0.8c-0.4,0.2-0.8,0.4-1.3,0.6
		c-0.4,0.1-0.9,0.3-1.3,0.3c-0.2,0-0.4,0.1-0.7,0.1s-0.4,0-0.6,0c-0.4,0-0.9,0-1.3-0.1c0,0-0.1,0-0.1,0l-7.9-0.7v0l-11.7-1.1h0
		l-0.2,0L86.4,78l0.9-24.9l0.9-24L109,39.7l17.1,8.7c0.1,0,0.1,0,0.2,0.1c2.6,1,5.3,2.9,7.3,5.7C135.8,57.4,137.1,61.8,136.5,67.8z"
		/>
	<g>
		<circle class="st1" cx="26.6" cy="284.3" r="13.4"/>
		<g>
			<defs>
				<path id="SVGID_1_" d="M41.4,284.4c3.4-7.1,6.4-18.4,6.4-28.9c0-19.6-9.1-35.5-24.2-35.5c-15.1,0-23.7,16-22.2,35.5
					c0.8,10.5,4.5,22.7,10.4,28.9c0,0,4.4,2.7,14.9,2.7C37.1,287,41.4,284.4,41.4,284.4z"/>
			</defs>
			<clipPath id="SVGID_00000089576533136915318650000014486597074683570569_">
				<use xlink:href="#SVGID_1_"  style="overflow:visible;"/>
			</clipPath>
			
				<rect x="-0.4" y="217.1" style="clip-path:url(#SVGID_00000089576533136915318650000014486597074683570569_);fill:#8D66B3;" width="51.5" height="71.7"/>
			<path style="clip-path:url(#SVGID_00000089576533136915318650000014486597074683570569_);fill:#7A589A;" d="M-3,236
				c0,0,4.1,31.5,26.2,31.5S49,248.3,49,248.3l2.5,17.9l-8.4,22.1l-50.5,0.4l1-40.1L-3,236z"/>
		</g>
	</g>
	<g>
		<circle class="st1" cx="139.5" cy="284.3" r="13.4"/>
		<g>
			<defs>
				<path id="SVGID_00000162351082767968816270000014788616428831419786_" d="M124.7,284.4c-3.4-7.1-6.4-18.4-6.4-28.9
					c0-19.6,9.1-35.5,24.2-35.5c15.1,0,23.7,16,22.2,35.5c-0.8,10.5-4.5,22.7-10.4,28.9c0,0-4.4,2.7-14.9,2.7
					C129,287,124.7,284.4,124.7,284.4z"/>
			</defs>
			<clipPath id="SVGID_00000147205729901202486960000003620822510660033444_">
				<use xlink:href="#SVGID_00000162351082767968816270000014788616428831419786_"  style="overflow:visible;"/>
			</clipPath>
			
				<rect x="115" y="217.1" transform="matrix(-1 -4.482293e-11 4.482293e-11 -1 281.5816 505.889)" style="clip-path:url(#SVGID_00000147205729901202486960000003620822510660033444_);fill:#8D66B3;" width="51.5" height="71.7"/>
			<path style="clip-path:url(#SVGID_00000147205729901202486960000003620822510660033444_);fill:#7A589A;" d="M166.4,217.3
				c0,0,3.5,32.5-22.1,37.8c-21.7,4.5-27.2-6.8-27.2-6.8l-2.5,17.9l8.4,22.1l50.5,0.4l-1-40.1L166.4,217.3z"/>
		</g>
	</g>
	<g>
		<defs>
			<path id="SVGID_00000178200987323733339030000013376463739066630061_" d="M139.3,272.5l-46.1,13.3l-60.7-13.3c0,0-5.1-3.3-5-12.9
				c0.1-8.3,5-13.9,5-13.9s26-9.9,52.4-10c27.4-0.1,54.4,10,54.4,10s4.7,4.4,4.6,13.6C143.9,267.9,139.3,272.5,139.3,272.5z"/>
		</defs>
		<use xlink:href="#SVGID_00000178200987323733339030000013376463739066630061_"  style="overflow:visible;fill:#818F3E;"/>
		<clipPath id="SVGID_00000103265951921557783800000007900829457788784300_">
			<use xlink:href="#SVGID_00000178200987323733339030000013376463739066630061_"  style="overflow:visible;"/>
		</clipPath>
		<polygon style="clip-path:url(#SVGID_00000103265951921557783800000007900829457788784300_);fill:#A6BA50;" points="28.8,239.3 
			84.5,229.4 145.9,243.7 145.6,277.2 93.8,293.1 23.2,275.8 		"/>
		<path style="clip-path:url(#SVGID_00000103265951921557783800000007900829457788784300_);fill:#97A849;" d="M21.8,256.3
			c0,0,1.3,5.3,16.6,8.3c15.3,3,53,8.6,53,8.6s48.6-7.3,55.5-18.9l-1.7,22.2l-53.8,15.8l-69.7-12.1V256.3z"/>
	</g>
	<path class="st8" d="M109.8,240.2c0,1.7-9.8,3.2-21.9,3.2S66,241.9,66,240.2c0-1.7,2.5-23.7,21.9-23.7S109.8,238.4,109.8,240.2z"/>
	<g>
		<ellipse class="st1" cx="91.5" cy="305.5" rx="10.3" ry="13.2"/>
		<g>
			<defs>
				<path id="SVGID_00000039844653280767322010000006799053642633703324_" d="M106.5,304.6c3.4-7.1,7.4-18.4,7.4-28.9
					c0-19.6-7.1-35.5-22.2-35.5c-15.1,0-22.2,15.9-22.2,35.5c0,10.5,4.4,21.8,7.4,28.9c0,0,4.4,2.7,14.9,2.7
					C102.2,307.2,106.5,304.6,106.5,304.6z"/>
			</defs>
			<clipPath id="SVGID_00000167391026407604161640000006198927555824667805_">
				<use xlink:href="#SVGID_00000039844653280767322010000006799053642633703324_"  style="overflow:visible;"/>
			</clipPath>
			
				<rect x="65.6" y="237.4" style="clip-path:url(#SVGID_00000167391026407604161640000006198927555824667805_);fill:#8D66B3;" width="51.5" height="71.7"/>
			<path style="clip-path:url(#SVGID_00000167391026407604161640000006198927555824667805_);fill:#7A589A;" d="M70.1,265.9
				c0,0-0.6,18,21.6,18s22.5-18,22.5-18l3.5,20.6l-8.4,22.1l-40.5-0.4L64.5,269L70.1,265.9z"/>
		</g>
	</g>
	<g>
		<g>
			<path class="st8" d="M120.2,95.9c0.7,3.4,1.3,7,1.4,10.7c0.2,3.7,0,7.3-0.5,10.9c-0.9,7.2-2.8,13.8-5.1,20
				c-2.2,6.2-4.8,12.1-7.4,17.7c-2.7,5.7-5.4,11.2-8.3,16.7c-4.5,9-6.7,18.1-6.3,26.8c0.2,4.4,1,8.7,2.4,12.9
				c0.7,2.1,1.5,4.2,2.5,6.3c0.5,1.1,1,2.1,1.6,3.2l0.9,1.8c0.3,0.6,0.7,1.4,1.1,2.2l-35.9,15c-0.2-0.5-0.4-1.1-0.7-1.9l-0.8-2.3
				c-0.6-1.6-1.2-3.4-1.7-5.1c-1.1-3.5-2-7.1-2.7-10.8c-1.4-7.4-1.8-15.1-1.1-22.7c0.7-7.6,2.4-15,5.1-21.8c2.6-6.9,6.1-13.3,10-19
				c6.6-9.6,13-19.3,17.9-28.9c2.4-4.8,4.4-9.5,5.6-14.2c1.2-4.6,1.6-9.1,1.2-14.1L120.2,95.9z"/>
		</g>
		<g>
			<path class="st11" d="M62.4,226.1c0,0,19.3,5.6,37.5-6"/>
			<path class="st11" d="M60.2,204.8c0,0,16.4,7.8,34.2-0.3"/>
			<path class="st11" d="M64.5,177.6c0,0,13.5,10,30.8,5.5"/>
			<path class="st11" d="M75.5,156.1c0,0,10.6,12.2,27.5,11.2"/>
			<path class="st11" d="M86.2,140.2c0,0,10.8,10.2,26.2,8.2"/>
			<path class="st11" d="M93.3,124.7c0,0,11.1,8.3,25,5.2"/>
			<path class="st11" d="M97.5,113.2c0,0,11.4,6.3,23.8,2.2"/>
			<path class="st11" d="M99.1,109.6c0,0,11.6,4.4,22.6-0.8"/>
		</g>
		<ellipse transform="matrix(0.9901 -0.1401 0.1401 0.9901 -12.6198 16.3565)" class="st8" cx="109.9" cy="97.8" rx="10.5" ry="9"/>
	</g>
	<g>
		<ellipse class="st12" cx="110.1" cy="94" rx="21.7" ry="8.1"/>
		<path class="st13" d="M110.1,94.6c-9.1,0-16.9-1.1-20.1-4.3c-1,1-1.6,2.3-1.6,3.8c0,6.2,9.7,8.1,21.7,8.1c12,0,21.7-1.9,21.7-8.1
			c0-1.5-0.6-2.7-1.6-3.8C127,93.5,119.2,94.6,110.1,94.6z"/>
	</g>
	<path class="st14" d="M116,80.8V91c0,0-2,1.2-6.1,1.2c-3.9,0-5.8-1.2-5.8-1.2V70.4h7c-1.7,4-4.1,7.3-6.8,9.3L116,80.8z"/>
	<path class="st0" d="M163.6,74.1c-0.1,1-0.4,2-0.7,2.9c-0.1,0.2-0.2,0.5-0.3,0.7v0c-0.3,0.7-0.6,1.4-1.1,1.9
		c-0.2,0.3-0.4,0.5-0.6,0.8c-0.2,0.2-0.4,0.5-0.6,0.7c-0.2,0.2-0.4,0.5-0.6,0.7c0,0,0,0,0,0c-0.2,0.2-0.4,0.4-0.7,0.6
		c-0.5,0.4-1,0.7-1.5,1c-0.3,0.2-0.5,0.3-0.8,0.4c-0.2,0.1-0.5,0.2-0.8,0.3c-0.1,0-0.1,0-0.1,0.1c-0.3,0.1-0.5,0.2-0.8,0.3
		c0,0-0.1,0-0.1,0c-0.2,0.1-0.4,0.1-0.6,0.2c-0.1,0-0.1,0-0.1,0c-0.2,0.1-0.5,0.1-0.8,0.2c-0.3,0-0.6,0.1-0.8,0.1
		c-0.1,0-0.2,0-0.3,0c-0.2,0-0.4,0-0.6,0c-0.5,0-1,0-1.5-0.1c-0.3,0-0.5-0.1-0.8-0.1c-0.2-0.1-0.5-0.1-0.7-0.2
		c5.4-0.6,8.2-4.9,9.1-10.5c-0.3,0-0.9,0.1-1.7-0.3c-1.2-0.5-1.4-1.2-1.4-1.2s0,0,0,0c0,0.1-0.3,0.5-1.4,0.6c-0.9,0-1.3-0.3-1.5-0.6
		c-0.7,5.9-4.6,8.7-8,8.5c-2-2.6-3-6.2-2.5-10c0-0.2,0.1-0.4,0.1-0.6c0.8-4.1,3.2-7.5,6.3-9.2c0.4-0.2,0.7-0.4,1.1-0.5
		c1.5-0.6,3-0.8,4.7-0.6c0.3,0,0.5,0.1,0.8,0.1C159.8,61.7,164.5,67.6,163.6,74.1z"/>
	<path class="st12" d="M148.7,84.7L148.7,84.7c-0.8,0.1-1.6,0.1-2.5,0C147.1,84.8,147.9,84.8,148.7,84.7
		C148.7,84.7,148.7,84.7,148.7,84.7C148.7,84.7,148.7,84.7,148.7,84.7z"/>
	<path class="st12" d="M158,72.3c-0.1,0.6-0.1,1.2-0.2,1.9c-0.9,5.6-3.7,9.9-9.1,10.5c0,0,0,0,0,0s0,0,0,0h0c-0.8,0.1-1.6,0.1-2.4,0
		c-0.4,0-0.9-0.1-1.3-0.2c-0.4-0.1-0.8-0.2-1.1-0.3c-0.3-0.1-0.6-0.2-0.8-0.3c-0.2-0.1-0.3-0.1-0.5-0.2c-0.1,0-0.2-0.1-0.3-0.1
		c-0.2-0.1-0.3-0.2-0.5-0.2c-0.2-0.1-0.3-0.2-0.5-0.3c-0.3-0.2-0.5-0.3-0.8-0.5c-0.2-0.2-0.5-0.4-0.7-0.6c-0.4-0.4-0.8-0.9-1.2-1.4
		v0c-1.3-1.9-2-4.3-2.1-7c-0.1-1,0-2,0.1-3c0-0.6,0.1-1.1,0.2-1.7v0c0.1-0.8,0.3-1.6,0.5-2.4c0,0,0,0,0,0c1-3.6,3-6.5,6.2-7.7h0
		c1.4-0.5,3-0.8,4.9-0.6c2.6,0.2,4.5,1,6,2.3C157.4,63,158.4,67.4,158,72.3z"/>
	<path class="st0" d="M154.7,71.5c0,0.4,0,0.8-0.1,1.2c0,0.1-0.3,0.5-1.4,0.6c-0.9,0-1.3-0.3-1.5-0.6c-0.7,5.9-4.6,8.7-8,8.5
		c-0.1,0-0.3,0-0.4,0l-3-0.3h0c-2-1.6-3.4-4.2-3.9-7.2c-0.1-0.7-0.2-1.4-0.2-2.2c0-1,0.1-2,0.3-2.9v0c0.2-0.7,0.4-1.4,0.6-2
		c0,0,0,0,0,0c1.5-3.8,4.7-6.4,8.3-6.4c0.2,0,0.4,0,0.6,0c0,0,0,0,0,0c1,0.1,1.9,0.3,2.8,0.8C152.3,62.6,154.7,66.7,154.7,71.5z"/>
	<path class="st12" d="M151.9,72.5c0,0.1,0,0.2,0,0.2c0,0,0,0,0,0c-0.7,5.9-4.6,8.7-8,8.5c-0.1,0-0.3,0-0.4,0l-3-0.3h0l-1.8-0.2h0v0
		l-8.1-0.8l0,0h0c2.9-2.2,5.2-6.2,5.9-11.8l0-0.1l-18.8-3.8l0.6-17.1c0,0,8.1,3.8,15.2,7.1c4.2,2,8.1,3.8,9.9,4.6h0
		c0.7,0.3,1.1,0.5,1.1,0.5c0.5,0.2,1,0.5,1.5,0.8c0,0,0,0,0,0c0.6,0.4,1.1,0.8,1.7,1.3C150.3,63.8,152.3,67.7,151.9,72.5z"/>
	<path class="st0" d="M126.7,81.6c0.4-0.1,0.9-0.2,1.3-0.3C127.6,81.4,127.1,81.5,126.7,81.6z"/>
	<path class="st0" d="M128,81.2c0.4-0.2,0.9-0.3,1.3-0.6C128.9,80.9,128.4,81.1,128,81.2z"/>
	<path class="st0" d="M130.5,79.8L130.5,79.8L130.5,79.8c-0.4,0.3-0.8,0.6-1.2,0.8C129.7,80.4,130.1,80.1,130.5,79.8z"/>
	<path class="st0" d="M136.5,67.8c0,0.1,0,0.1,0,0.1L136.5,67.8l-18.8-3.7l-3.7-0.7l-0.2-3.7l-0.1,0v0.1c-0.3,3.9-1.3,7.5-2.6,10.6
		c-1.7,4-4.1,7.3-6.8,9.3h0l-0.2,0L86.4,78l0.9-24.9l0.9-24l20.8,10.6l17.1,8.7c0.1,0,0.1,0,0.2,0c2.6,1,5.3,2.9,7.2,5.7
		C135.8,57.4,137.1,61.8,136.5,67.8z"/>
	<g>
		<path class="st12" d="M113.7,59.7L113.7,59.7c-0.3,3.9-1.3,7.5-2.6,10.6c-1.7,4-4.1,7.3-6.8,9.3c-0.1,0-0.1,0.1-0.2,0.2
			c-0.4,0.3-0.9,0.6-1.3,0.9c-0.4,0.2-0.8,0.4-1.2,0.6c-0.3,0.1-0.5,0.2-0.8,0.3c-0.1,0-0.3,0.1-0.4,0.1c-0.3,0.1-0.6,0.2-0.9,0.2
			c-0.1,0-0.2,0-0.3,0.1c-0.2,0-0.4,0.1-0.6,0.1c-0.2,0-0.4,0-0.6,0H98v0.1L42,79l2.5-40.7l-5.8-35l-0.3-1.7v0l0.4,0.2
			c0,0,0.1,0,0.1,0l60.8,30.5c0,0,0,0,0.1,0c3.3,1.3,6.7,3.7,9.2,7.3C112.3,44.3,114.4,50.9,113.7,59.7z"/>
	</g>
	<path class="st15" d="M136.4,68c-0.7,5.6-3,9.7-5.9,11.8h0c-0.4,0.3-0.8,0.6-1.2,0.8c-0.4,0.2-0.9,0.4-1.3,0.6
		c-0.4,0.2-0.9,0.3-1.3,0.3c-0.2,0-0.4,0.1-0.7,0.1c-0.2,0-0.4,0-0.6,0c-0.4,0-0.9,0-1.3-0.1c0,0-0.1,0-0.1,0l-7.9-0.7v0l-11.7-1.1
		c2.7-2.1,5-5.3,6.8-9.3c1.3-3.1,2.2-6.7,2.6-10.6v-0.1l0.1,0l0.2,3.7l3.7,0.7L136.4,68L136.4,68z"/>
	<path class="st13" d="M104.4,79.7L104.4,79.7c-0.1,0-0.1,0.1-0.2,0.1c-0.4,0.3-0.9,0.6-1.3,0.9c-0.4,0.2-0.8,0.4-1.2,0.6
		c-0.3,0.1-0.5,0.2-0.8,0.3c-0.1,0-0.3,0.1-0.4,0.1c-0.3,0.1-0.6,0.2-0.9,0.2c-0.1,0-0.2,0-0.3,0.1c-0.2,0-0.4,0.1-0.6,0.1
		c-0.2,0-0.4,0-0.6,0H98v0.1L42,79l3.3-36.3l42,10.4l26.4,6.6v0.1c-0.3,3.9-1.3,7.5-2.6,10.6C109.4,74.4,107,77.6,104.4,79.7z"/>
	<path class="st15" d="M154.7,72.7c-0.5,5.7-4.4,10.1-9.1,10.1h-0.2c-1.8,0-3.5-0.7-4.9-1.9l3,0.3c0.1,0,0.3,0,0.4,0
		c3.4,0.2,7.3-2.6,8-8.5c0.2,0.2,0.6,0.6,1.5,0.6C154.4,73.2,154.6,72.8,154.7,72.7z"/>
	<path class="st13" d="M157.8,74.1c-0.9,5.6-3.7,9.9-9.1,10.5c0,0,0,0,0,0s0,0,0,0h0c-0.8,0.1-1.6,0.1-2.4,0c-0.4,0-0.9-0.1-1.3-0.2
		c-0.4-0.1-0.8-0.2-1.1-0.3c-0.3-0.1-0.6-0.2-0.8-0.3c-0.2,0-0.3-0.1-0.5-0.2c-0.1,0-0.2-0.1-0.3-0.2c-0.2-0.1-0.3-0.2-0.5-0.2
		c-0.2-0.1-0.3-0.2-0.5-0.3c-0.5-0.3-1-0.7-1.4-1.1c-0.4-0.4-0.8-0.9-1.1-1.4l1.8,0.2h0c1.4,1.2,3.1,1.9,4.9,1.9h0.2
		c4.8,0,8.6-4.4,9.1-10.1c0,0,0,0,0,0s0.2,0.7,1.4,1.2C156.9,74.2,157.5,74.2,157.8,74.1z"/>
	<path class="st13" d="M143.9,81.2c-0.1,0-0.3,0-0.4,0l-3-0.3h0l-1.8-0.2c0,0,0,0,0,0h0l-8.1-0.9c2.9-2.2,5.2-6.2,5.9-11.8l0.2,0.6
		v0l0.1,0.4v0l0.2,0.9l4.5,0.8l10.3,1.9c0,0,0,0.1,0.1,0.2c0,0,0,0,0,0C151.2,78.7,147.3,81.4,143.9,81.2z"/>
	<path class="st15" d="M162.9,77c-0.1,0.2-0.2,0.5-0.3,0.7v0c-0.3,0.7-0.7,1.4-1.1,1.9c-0.2,0.3-0.4,0.5-0.6,0.8
		c-0.2,0.2-0.4,0.5-0.6,0.7c-0.2,0.2-0.4,0.5-0.6,0.7c0,0,0,0,0,0c-0.2,0.2-0.4,0.4-0.7,0.6c-0.5,0.4-1,0.7-1.5,1
		c-0.3,0.2-0.5,0.3-0.8,0.4c-0.2,0.1-0.5,0.2-0.8,0.3c-0.1,0-0.1,0-0.1,0.1c-0.3,0.1-0.5,0.2-0.8,0.3c0,0-0.1,0-0.1,0
		c-0.2,0.1-0.4,0.1-0.6,0.2c-0.1,0-0.1,0-0.1,0c-0.2,0.1-0.5,0.1-0.8,0.2c-0.3,0-0.6,0.1-0.8,0.1c-0.1,0-0.2,0-0.3,0
		c-0.2,0-0.4,0-0.6,0c-0.5,0-1,0-1.5-0.1c-0.3,0-0.5-0.1-0.8-0.1c-0.2-0.1-0.5-0.1-0.7-0.2c5.4-0.6,8.2-4.9,9.1-10.5
		c0.1,0,0.2,0,0.2,0S160.2,77,162.9,77z"/>
	<g>
		<defs>
			<path id="SVGID_00000093857540281743170570000010405652095190470272_" d="M68.4,41c0,21-12.2,38-27.3,38S13.8,62,13.8,41
				C6.4,20.5,16.3,0,31.4,0S57,22.8,68.4,41z"/>
		</defs>
		<clipPath id="SVGID_00000067922034119356308020000011340059661661954965_">
			<use xlink:href="#SVGID_00000093857540281743170570000010405652095190470272_"  style="overflow:visible;"/>
		</clipPath>
		
			<rect x="9.6" y="-3.1" style="clip-path:url(#SVGID_00000067922034119356308020000011340059661661954965_);fill:#4A3B7A;" width="62.1" height="84.2"/>
		
			<ellipse style="clip-path:url(#SVGID_00000067922034119356308020000011340059661661954965_);fill:#C5E6F9;" cx="39.7" cy="42" rx="24.6" ry="32.8"/>
		
			<ellipse style="clip-path:url(#SVGID_00000067922034119356308020000011340059661661954965_);fill:#1E1833;" cx="36.3" cy="46.2" rx="8" ry="13.1"/>
		<path style="clip-path:url(#SVGID_00000067922034119356308020000011340059661661954965_);fill:#1E1833;" d="M64.4,45.7
			C59.2,35.2,45.6,25.1,31.5,27c-10.5,1.3-14.9,9-16.7,13.6c-0.1,0.2-0.1,0.3-0.2,0.5v0c0,0.1-0.1,0.2-0.1,0.2l-0.3-0.1L13.8,41
			l0-0.1c0-0.7,0.1-1.5,0.2-2.3v0c0-0.2,0.1-0.4,0.1-0.7C15.9,25,25.4,4.9,43.9,10c18.3,5.1,20.4,26.6,20.5,33.5
			C64.4,44.9,64.4,45.7,64.4,45.7z"/>
		<path style="clip-path:url(#SVGID_00000067922034119356308020000011340059661661954965_);fill:#97A849;" d="M13.8,41
			c0,0,2.6-15.1,17.8-17.1c14.1-1.8,27.7,8.3,32.8,18.7c0,0,1.4-29.5-20.5-35.7C22.1,0.9,12.8,29.9,13.8,41z"/>
		<path style="clip-path:url(#SVGID_00000067922034119356308020000011340059661661954965_);fill:#4A3B7A;" d="M15.1,41.4l-0.5-0.1
			l-0.3-0.1L13.8,41l0-0.1l0-0.1c0-0.2,0-0.4,0-0.6v0c0-1,0-2,0.1-3.2c0,0.2,0.1,0.4,0.1,0.6v0c0,0.1,0.1,0.2,0.1,0.3
			c0.1,0.3,0.2,0.7,0.3,1v0c0.1,0.3,0.2,0.7,0.3,1v0c0.1,0.2,0.1,0.4,0.2,0.5C14.9,40.8,15,41.1,15.1,41.4z"/>
	</g>
	<path class="st20" d="M68.4,41L67,40.7c-1-1.5-1.9-3.1-2.9-4.7c-0.1-0.2-0.2-0.4-0.4-0.6C58.3,26.3,52.9,16.8,47,10.1
		c-1-1.1-2-2.1-3.1-3.1c-3.8-3.4-7.8-5.5-12.3-5.5C18.3,1.5,9.4,18.9,13.8,37c-0.1,1.1-0.1,2.2-0.1,3.2v0c0,0.2,0,0.4,0,0.6
		C6.4,20.4,16.4,0,31.4,0C37,0,41.9,3.1,46.5,7.9c1,1.1,2,2.2,3,3.4c4.8,5.9,9.2,13.5,13.7,21c0.2,0.3,0.4,0.6,0.6,0.9
		C65.3,35.9,66.9,38.5,68.4,41z"/>
	<path class="st21" d="M22,29.1c0,0-7-1-15-7"/>
	<path class="st21" d="M30,25.1c0,0-11-3-11-13"/>
	<path class="st21" d="M40,25.1c0,0-6-3-7-8"/>
	<circle class="st22" cx="5" cy="19.1" r="5"/>
	<circle class="st22" cx="19" cy="9.1" r="5"/>
	<circle class="st22" cx="33" cy="13.1" r="5"/>
</g>
</svg>
