<?xml version="1.0" encoding="utf-8"?>
<!-- Generator: Adobe Illustrator 26.3.1, SVG Export Plug-In . SVG Version: 6.00 Build 0)  -->
<svg version="1.1" id="Layer_1" xmlns="http://www.w3.org/2000/svg" xmlns:xlink="http://www.w3.org/1999/xlink" x="0px" y="0px"
	 viewBox="0 0 401.8 541.4" style="enable-background:new 0 0 401.8 541.4;" xml:space="preserve">
<style type="text/css">
	.st0{fill:#0C2A51;}
	.st1{clip-path:url(#SVGID_00000087386072925039421840000014439826360645218180_);fill:#D4AC3F;}
	.st2{clip-path:url(#SVGID_00000087386072925039421840000014439826360645218180_);fill:#EABD46;}
	.st3{clip-path:url(#SVGID_00000083055233910796727990000003987956560045575103_);fill:#D4AC3F;}
	.st4{clip-path:url(#SVGID_00000083055233910796727990000003987956560045575103_);fill:#EABD46;}
	.st5{fill:#265F8E;}
	.st6{fill:#3B79B0;}
	.st7{clip-path:url(#SVGID_00000041978369848511111770000010935043924432811452_);fill:#3B79B0;}
	.st8{clip-path:url(#SVGID_00000041978369848511111770000010935043924432811452_);fill:#DDDDDD;}
	.st9{fill:#4793D6;}
	.st10{fill:none;stroke:#0C2A51;stroke-miterlimit:10;}
	.st11{fill:#EABD46;}
	.st12{fill:#F4F4F4;}
	.st13{fill:#B1963A;}
	.st14{fill:#D4AC3F;}
	.st15{clip-path:url(#SVGID_00000158749141812737495150000003905936247751810689_);fill:#4793D6;}
	.st16{clip-path:url(#SVGID_00000158749141812737495150000003905936247751810689_);fill:#3B79B0;}
	.st17{clip-path:url(#SVGID_00000158749141812737495150000003905936247751810689_);fill:none;stroke:#265F8E;stroke-miterlimit:10;}
	.st18{clip-path:url(#SVGID_00000158749141812737495150000003905936247751810689_);fill:#265F8E;}
	.st19{clip-path:url(#SVGID_00000119825630313855475510000014565450432990607000_);fill:#EABD46;}
	.st20{clip-path:url(#SVGID_00000119825630313855475510000014565450432990607000_);fill:#D4AC3F;}
	.st21{clip-path:url(#SVGID_00000180326574645249263490000001131546129069648545_);fill:#EABD46;}
	.st22{clip-path:url(#SVGID_00000180326574645249263490000001131546129069648545_);fill:#D4AC3F;}
	.st23{clip-path:url(#SVGID_00000183930454705899228260000003426367468449431428_);fill:#EABD46;}
	.st24{clip-path:url(#SVGID_00000183930454705899228260000003426367468449431428_);fill:#D4AC3F;}
	.st25{clip-path:url(#SVGID_00000166650239166374212420000004703497998188957874_);fill:#EABD46;}
	.st26{clip-path:url(#SVGID_00000166650239166374212420000004703497998188957874_);fill:#D4AC3F;}
	.st27{clip-path:url(#SVGID_00000111173567535741282170000016905232274187614890_);fill:#EABD46;}
	.st28{clip-path:url(#SVGID_00000111173567535741282170000016905232274187614890_);fill:#D4AC3F;}
	.st29{fill:#234E82;}
	.st30{fill:none;stroke:#8995AB;stroke-width:6;stroke-linecap:round;stroke-miterlimit:10;}
	.st31{fill:#676F80;}
	.st32{fill:#C5E6F9;}
</style>
<g>
	<g>
		
			<ellipse transform="matrix(0.1497 -0.9887 0.9887 0.1497 -143.832 400.5152)" class="st0" cx="160.9" cy="283.9" rx="23.9" ry="18"/>
		<g>
			<circle class="st0" cx="122.3" cy="235" r="15.4"/>
			<g>
				<defs>
					<path id="SVGID_1_" d="M108.9,245.7c0,0,7.8-2.2,15.6-8.4c7.6-6.1,11.2-13,11.2-13l42.6,45.5c0,0,0.5,8-12.7,18.7
						c-13.7,11-21.7,8.8-21.7,8.8L108.9,245.7z"/>
				</defs>
				<use xlink:href="#SVGID_1_"  style="overflow:visible;fill:#EABD46;"/>
				<clipPath id="SVGID_00000049219787624079080690000006194506661272155018_">
					<use xlink:href="#SVGID_1_"  style="overflow:visible;"/>
				</clipPath>
				<polygon style="clip-path:url(#SVGID_00000049219787624079080690000006194506661272155018_);fill:#D4AC3F;" points="188,273.2 
					146.2,309.6 101.7,242.3 139.3,213.8 				"/>
				<polygon style="clip-path:url(#SVGID_00000049219787624079080690000006194506661272155018_);fill:#EABD46;" points="
					159.3,300.2 110.3,237.3 97.4,240 145.8,306 				"/>
			</g>
			<g>
				<g>
					<defs>
						<path id="SVGID_00000075144290734829410040000014511245828578744993_" d="M107.1,235.3c0,0,6.3,2.1,15.2,0.1
							c8.8-2,15-7.4,15-7.4l-16.6-47.5c0,0-4.2-2.2-9.7-1c-6,1.3-9.4,5.3-9.4,5.3L107.1,235.3z"/>
					</defs>
					<clipPath id="SVGID_00000176757351004470591560000003657963443562617015_">
						<use xlink:href="#SVGID_00000075144290734829410040000014511245828578744993_"  style="overflow:visible;"/>
					</clipPath>
					<polygon style="clip-path:url(#SVGID_00000176757351004470591560000003657963443562617015_);fill:#D4AC3F;" points="
						141.8,232.9 97.3,243.1 97.1,181.6 126.3,177.4 					"/>
					<polygon style="clip-path:url(#SVGID_00000176757351004470591560000003657963443562617015_);fill:#EABD46;" points="116,239.6 
						108.7,183.8 96.3,181.9 102.6,237.9 					"/>
				</g>
				
					<ellipse transform="matrix(0.9822 -0.1876 0.1876 0.9822 -32.253 24.034)" class="st5" cx="110.8" cy="182.4" rx="8.9" ry="2.3"/>
			</g>
			<g>
				<g>
					<g>
						<path class="st5" d="M107,148.4c5.3,2.8,8.5,11.9,7.2,20.3c-1.3,8.4-6.6,12.9-11.8,10l0.8-5.3c3.4,1.8,6.9-1.1,7.7-6.6
							c0.8-5.5-1.3-11.4-4.7-13.2L107,148.4z"/>
					</g>
					<g>
						
							<ellipse transform="matrix(0.996 -8.887140e-02 8.887140e-02 0.996 -15.3256 9.705)" class="st5" cx="101.3" cy="177" rx="4.4" ry="7.2"/>
					</g>
				</g>
				<polygon class="st6" points="106.2,153.7 121,151.8 121.8,146.6 107,148.4 				"/>
				<path class="st5" d="M106.2,153.7l4.7,1.3l2.2,11.1l-2.5,6.8l11.4,0.4l5.5-6.4c0,0-0.5-3.8-1-9.9c-0.4-4.6-5.4-5.2-5.4-5.2
					L106.2,153.7z"/>
				<g>
					<defs>
						<path id="SVGID_00000087386790577078724650000009796194667549621921_" d="M109.6,153.8l-1,9l3.2,10.4l-11.5,1.4l-0.4,2.8
							c-1.1-0.6-2-1.4-2.9-2.4l0,0l0,0c-3.5-4-5.4-11.2-4.4-17.9c1-6.5,4.4-10.6,8.3-10.9l0,0l14.5-1.8l-1.3,1.9L109.6,153.8z"/>
					</defs>
					<clipPath id="SVGID_00000082351042967539153970000003226994602295454640_">
						<use xlink:href="#SVGID_00000087386790577078724650000009796194667549621921_"  style="overflow:visible;"/>
					</clipPath>
					<polygon style="clip-path:url(#SVGID_00000082351042967539153970000003226994602295454640_);fill:#3B79B0;" points="
						94.9,177.1 88.5,164.3 89.8,152.5 96.1,145.2 118.5,142.3 118,147.5 110.3,156.1 111,166.9 115.1,175.1 					"/>
					<path style="clip-path:url(#SVGID_00000082351042967539153970000003226994602295454640_);fill:#DDDDDD;" d="M91.1,150.5
						c0.3,0,22.9-3.3,22.9-3.3l5.1-4c0,0-21.9,1.9-22.2,1.9C96.6,145.2,91.1,150.5,91.1,150.5z"/>
				</g>
				<polygon class="st5" points="102,184.1 117,182.2 111.8,173.2 97,175 				"/>
				<g>
					<g>
						<path class="st9" d="M119.3,145.2c-5.3-2.8-10.6,1.7-11.8,10c-1.3,8.4,2,17.5,7.2,20.3l0.8-5.3c-3.4-1.8-5.6-7.8-4.7-13.2
							c0.8-5.5,4.3-8.4,7.7-6.6L119.3,145.2z"/>
					</g>
					<g>
						<path class="st9" d="M121.8,146.6c5.3,2.8,8.5,11.9,7.2,20.3c-1.3,8.4-6.6,12.9-11.8,10l0.8-5.3c3.4,1.8,6.9-1.1,7.7-6.6
							c0.8-5.5-1.3-11.4-4.7-13.2L121.8,146.6z"/>
					</g>
					<g>
						
							<ellipse transform="matrix(0.996 -8.887140e-02 8.887140e-02 0.996 -15.1004 11.0129)" class="st6" cx="116.1" cy="175.1" rx="4.4" ry="7.2"/>
					</g>
				</g>
			</g>
		</g>
	</g>
	<line class="st10" x1="259.4" y1="26.9" x2="259.4" y2="252.8"/>
	<path class="st9" d="M233.5,265.2L233.5,265.2c-6.7,0-12.2-5.5-12.2-12.2V12.2c0-6.7,5.5-12.2,12.2-12.2h0
		c6.7,0,12.2,5.5,12.2,12.2V253C245.7,259.7,240.3,265.2,233.5,265.2z"/>
	<path class="st5" d="M236.9,265.6L236.9,265.6c-6.7,0-12.2-5.5-12.2-12.2V12.6c0-6.7,5.5-12.2,12.2-12.2h0
		c6.7,0,12.2,5.5,12.2,12.2v240.8C249,260.2,243.6,265.6,236.9,265.6z"/>
	<ellipse class="st0" cx="237.8" cy="218.3" rx="7.3" ry="10"/>
	<ellipse class="st0" cx="237.8" cy="22.6" rx="7.3" ry="10"/>
	<polygon class="st0" points="238.8,12.7 281.8,19.4 280.1,39 236.7,32.4 	"/>
	<ellipse class="st0" cx="79.8" cy="456.6" rx="19.1" ry="21.4"/>
	<ellipse class="st0" cx="344.2" cy="472.5" rx="19.1" ry="21.4"/>
	<g>
		<g>
			<path class="st11" d="M353.2,238.5L35.3,91.6l0.2-0.1L34,91l-0.4-0.2c-11-5.1-24.7-2.4-30.7,8.9l0,0c-6,11.3-2.1,26.9,8.9,32
				l319.7,147.7c11,5.1,25,1.8,31.1-9.5l0,0C368.5,258.7,364.2,243.5,353.2,238.5z"/>
			<polygon class="st12" points="349.7,280.1 345.1,280.9 339.3,277 353.9,277.8 			"/>
		</g>
		<path class="st13" d="M368.1,271.9L368.1,271.9c-6,11.3-20.1,14.5-31.1,9.5L17.4,133.7c-11-5.1-13.9-20.7-7.9-32l0,0
			c6-11.3,18.7-14,29.7-9l319.7,147.7C369.9,245.5,374.1,260.6,368.1,271.9z"/>
		
			<ellipse transform="matrix(0.9991 -4.138737e-02 4.138737e-02 0.9991 -4.6792 1.2869)" class="st0" cx="28.7" cy="113.7" rx="7.4" ry="9.3"/>
		<polygon class="st0" points="30,104.5 61.3,114.4 58.4,132.5 27.4,122.8 		"/>
	</g>
	<polyline class="st10" points="26.2,286.3 26.2,107.8 260.8,17.3 	"/>
	<g>
		<g>
			<path class="st11" d="M384.2,248.2L66.3,101.4l0.2-0.1l-1.6-0.6l-0.4-0.2c-11-5.1-24.7-2.4-30.7,8.9c-6,11.3-2.1,26.9,8.9,32
				l319.7,147.7c11,5.1,25,1.8,31.1-9.5l0,0C399.4,268.4,395.2,253.3,384.2,248.2z"/>
			<polygon class="st12" points="380.7,289.8 376.1,290.7 370.3,286.8 384.8,287.6 			"/>
		</g>
		<path class="st14" d="M399.1,281.7L399.1,281.7c-6,11.3-20.1,14.5-31.1,9.5L48.4,143.5c-11-5.1-13.9-20.7-7.9-32l0,0
			c6-11.3,18.7-14,29.7-9l319.7,147.7C400.8,255.3,405.1,270.4,399.1,281.7z"/>
		
			<ellipse transform="matrix(0.9991 -4.138737e-02 4.138737e-02 0.9991 -5.0555 2.5769)" class="st0" cx="59.7" cy="123.4" rx="7.4" ry="9.3"/>
	</g>
	<g>
		<polygon class="st11" points="235,482.3 62.4,422.5 201.7,380.5 366.9,437.3 		"/>
		<polygon class="st14" points="62.4,422.5 69.4,454.7 234,511.8 235,482.3 		"/>
		<polygon class="st13" points="235,482.3 234,511.8 359.9,469 366.9,437.3 		"/>
	</g>
	<path class="st9" d="M276.7,271.8L276.7,271.8c-6.7,0-12.2-5.5-12.2-12.2V18.8c0-6.7,5.5-12.2,12.2-12.2h0
		c6.7,0,12.2,5.5,12.2,12.2v240.8C288.9,266.4,283.4,271.8,276.7,271.8z"/>
	<path class="st6" d="M280,272.3L280,272.3c-6.7,0-12.2-5.5-12.2-12.2V19.3c0-6.7,5.5-12.2,12.2-12.2h0c6.7,0,12.2,5.5,12.2,12.2
		v240.8C292.2,266.8,286.7,272.3,280,272.3z"/>
	<ellipse class="st0" cx="280.9" cy="225" rx="7.3" ry="10"/>
	<ellipse class="st0" cx="280.9" cy="29.2" rx="7.3" ry="10"/>
	<g>
		<defs>
			<path id="SVGID_00000165206793745541742020000005838330023351027133_" d="M198.5,229.9c-3.9-1.5-8.7-0.5-13.4,3.4l-52.7,44.5
				c-7.5,6.3-11.5,18.2-9.3,27.6l13.1,50.3l-3.6,65.8l96.4,33.2l68.1-198.1L198.5,229.9z"/>
		</defs>
		<clipPath id="SVGID_00000032620972763732806320000008928343292250978749_">
			<use xlink:href="#SVGID_00000165206793745541742020000005838330023351027133_"  style="overflow:visible;"/>
		</clipPath>
		<path style="clip-path:url(#SVGID_00000032620972763732806320000008928343292250978749_);fill:#4793D6;" d="M211,228.7l-27.9-4.3
			l-70,61.4l11.3,138.4c0,0,107.5,36.8,107.5,35.8s75.6-209,75.6-209L211,228.7z"/>
		<polygon style="clip-path:url(#SVGID_00000032620972763732806320000008928343292250978749_);fill:#3B79B0;" points="117.8,303.3 
			224.3,333.8 232.7,386.9 136.2,355.6 		"/>
		
			<polygon style="clip-path:url(#SVGID_00000032620972763732806320000008928343292250978749_);fill:none;stroke:#265F8E;stroke-miterlimit:10;" points="
			143,320.2 199.1,337.1 207,369.6 152.3,352.7 		"/>
		
			<rect x="119.8" y="435.4" transform="matrix(0.9462 0.3236 -0.3236 0.9462 151.6438 -34.7628)" style="clip-path:url(#SVGID_00000032620972763732806320000008928343292250978749_);fill:#265F8E;" width="121.2" height="6.6"/>
	</g>
	<path class="st5" d="M304.7,431.3L229,454.5l3.7-67.6l-13.7-52.4c-2.3-9.7,1.9-22,9.6-28.5l54.6-46c10.8-9.1,22.6-2.5,22.5,12.7
		L304.7,431.3z"/>
	<g>
		<ellipse class="st0" cx="232.4" cy="518.6" rx="12.2" ry="22.8"/>
		<g>
			<defs>
				<path id="SVGID_00000090271497391693885750000010137410608504306606_" d="M247.4,523.8c3.4-7.1,7.4-18.4,7.4-28.9
					c0-19.6-7.1-35.5-22.2-35.5c-15.1,0-22.2,15.9-22.2,35.5c0,10.5,4.4,21.8,7.4,28.9c0,0,4.4,2.7,14.9,2.7
					C243.1,526.4,247.4,523.8,247.4,523.8z"/>
			</defs>
			<clipPath id="SVGID_00000067947709787657463320000004474888818122025663_">
				<use xlink:href="#SVGID_00000090271497391693885750000010137410608504306606_"  style="overflow:visible;"/>
			</clipPath>
			
				<rect x="206.5" y="456.5" style="clip-path:url(#SVGID_00000067947709787657463320000004474888818122025663_);fill:#EABD46;" width="51.5" height="71.7"/>
			<path style="clip-path:url(#SVGID_00000067947709787657463320000004474888818122025663_);fill:#D4AC3F;" d="M210.9,485.1
				c0,0-0.6,18,21.6,18s22.5-18,22.5-18l3.5,20.6l-8.4,22.1l-40.5-0.4l-4.2-39.2L210.9,485.1z"/>
		</g>
	</g>
	<g>
		<defs>
			<path id="SVGID_00000155834205034710501030000000073612364507689888_" d="M338.2,434.7c0,0,0.3,3,4.2,4.3c4.2,1.4,13.3,2,13.3,2
				s-2.3,19.2-9,32.8c0,0-2.4,6.3,6.6,10.3c10.2,4.4,13.3-1.3,13.3-1.3s10.5-15,14.6-34.5c1.9-9,0.2-20.9-7.4-26.7
				C364,414.2,347.3,414.9,338.2,434.7z"/>
		</defs>
		<clipPath id="SVGID_00000129889310915201859580000007694375477787816617_">
			<use xlink:href="#SVGID_00000155834205034710501030000000073612364507689888_"  style="overflow:visible;"/>
		</clipPath>
		<polygon style="clip-path:url(#SVGID_00000129889310915201859580000007694375477787816617_);fill:#EABD46;" points="333.9,434.5 
			344.2,414.1 377.9,412.9 389.7,440.5 365.9,489.6 341.2,484.3 346.9,450.1 		"/>
		<path style="clip-path:url(#SVGID_00000129889310915201859580000007694375477787816617_);fill:#D4AC3F;" d="M337.5,480.4
			c0,0,10.1-26.1,13.3-38c2.6-10,25.2-6.6,23-20.8c19,11.9,3.6,55.4,3.6,55.4l-14.3,12.8L337.5,480.4z"/>
	</g>
	<g>
		<defs>
			<path id="SVGID_00000001652006793405241570000006757479987817801105_" d="M85.8,418.7c0,0-0.3,3-4.2,4.3c-4.2,1.4-13.3,2-13.3,2
				s2.3,19.2,9,32.8c0,0,2.4,6.3-6.6,10.3c-10.2,4.4-13.3-1.3-13.3-1.3s-10.5-15-14.6-34.5c-1.9-9-0.2-20.9,7.4-26.7
				C60,398.3,76.7,398.9,85.8,418.7z"/>
		</defs>
		<clipPath id="SVGID_00000178185152681928929880000001234514272515950978_">
			<use xlink:href="#SVGID_00000001652006793405241570000006757479987817801105_"  style="overflow:visible;"/>
		</clipPath>
		<polygon style="clip-path:url(#SVGID_00000178185152681928929880000001234514272515950978_);fill:#EABD46;" points="90.1,418.6 
			79.8,398.2 46.1,397 34.3,424.5 58.1,473.6 82.8,468.3 77.1,434.2 		"/>
		<path style="clip-path:url(#SVGID_00000178185152681928929880000001234514272515950978_);fill:#D4AC3F;" d="M86.5,464.5
			c0,0-10.1-26.1-13.3-38c-2.6-10-25.2-6.6-23-20.8c-19.4,9.7-3.6,55.4-3.6,55.4l14.3,12.8L86.5,464.5z"/>
	</g>
	
		<ellipse transform="matrix(1.943989e-02 -0.9998 0.9998 1.943989e-02 -43.179 586.3868)" class="st0" cx="277.4" cy="315.2" rx="23.9" ry="18"/>
	<g>
		<circle class="st0" cx="318" cy="267.4" r="15.4"/>
		<g>
			<defs>
				<path id="SVGID_00000045614981425711521970000000043890829146247553_" d="M331.1,278.5c0,0-7.7-2.4-15.4-8.9
					c-7.4-6.3-10.8-13.3-10.8-13.3l-44,44.3c0,0-0.8,8,12.2,19.1c13.4,11.4,21.4,9.4,21.4,9.4L331.1,278.5z"/>
			</defs>
			<clipPath id="SVGID_00000049194289935408248750000011271487863023799218_">
				<use xlink:href="#SVGID_00000045614981425711521970000000043890829146247553_"  style="overflow:visible;"/>
			</clipPath>
			<path style="clip-path:url(#SVGID_00000049194289935408248750000011271487863023799218_);fill:#EABD46;" d="M296.4,334.6
				c0,0-28.3-4-35.2-12.6c-3.2-4-5.8-10.6-7.7-18.1c-2-7.5,46.9-54.2,47.8-54.6c0.9-0.4,37.4,30.7,37.4,30.7L296.4,334.6z"/>
			<polygon style="clip-path:url(#SVGID_00000049194289935408248750000011271487863023799218_);fill:#D4AC3F;" points="281.1,331.5 
				327.6,269.8 341.5,275.1 295.1,338.8 			"/>
		</g>
		<g>
			<g>
				<defs>
					<path id="SVGID_00000018221855385529595390000015577352129623963540_" d="M333.2,268.2c0,0-6.4,1.9-15.2-0.3
						c-8.7-2.2-14.8-7.8-14.8-7.8l18-47c0,0,4.3-2.1,9.7-0.7c6,1.5,9.2,5.6,9.2,5.6L333.2,268.2z"/>
				</defs>
				<clipPath id="SVGID_00000075148392720449262250000011638301231174174353_">
					<use xlink:href="#SVGID_00000018221855385529595390000015577352129623963540_"  style="overflow:visible;"/>
				</clipPath>
				<path style="clip-path:url(#SVGID_00000075148392720449262250000011638301231174174353_);fill:#EABD46;" d="M294.8,262.5
					c0,0,38.5,14.4,43.4,10.4c4.9-4,8.6-59.9,8.6-59.9l-30.7-4.6L294.8,262.5z"/>
				<polygon style="clip-path:url(#SVGID_00000075148392720449262250000011638301231174174353_);fill:#D4AC3F;" points="
					320.5,274.4 335.1,210.7 345.3,216.9 337.3,274.6 				"/>
			</g>
			
				<ellipse transform="matrix(0.2167 -0.9762 0.9762 0.2167 49.1829 491.7826)" class="st29" cx="331.1" cy="215.2" rx="2.3" ry="8.9"/>
		</g>
		<g>
			<g>
				<ellipse transform="matrix(0.4116 -0.9114 0.9114 0.4116 1.8295 418.516)" class="st5" cx="325" cy="207.8" rx="7.2" ry="4.4"/>
			</g>
			<path class="st5" d="M356.7,202.8c-2.6,5.6-4,9.2-4,9.2l-7.9,2.9l-7.5-4.6c-4.6,3.8-9.6,3.9-12.2-0.2l3.3-4.2
				c2.1,3.3,6.6,2.4,10-1.9c3.4-4.3,4.5-10.6,2.4-13.9l3.3-4.2c1.1,1.7,1.6,3.8,1.6,6.2l8.9,3.6
				C354.6,195.6,358.6,198.6,356.7,202.8z"/>
			<polygon class="st6" points="340.7,190 354.6,195.6 357.8,191.4 344,185.8 			"/>
			<polygon class="st5" points="322.1,214.4 336.1,220.1 336.1,209.7 322.2,204 			"/>
			<polygon class="st5" points="341.7,206.9 328,201.3 323.5,206.3 336.9,211.9 			"/>
			<path class="st6" d="M329,200.4l-0.4,8.6l0.9,6.5l-13.7-5.7l0,0c-0.9-0.4-1.7-1-2.4-1.9c-3.4-3.8-4-14.1,3.1-21.6l13.9,5.8
				L329,200.4z"/>
			<g>
				<g>
					<path class="st9" d="M330.3,192.1c-7.1,7.5-6.7,17.2-3.1,21.6c3.1,3.7,7.6,3.3,12.5-2.2c0.4-0.5,0.5-1.4,0.1-2.2l0,0
						c-0.4-0.8-1.2-1.1-1.7-0.6c-3.1,3.2-5.3,3.9-7.8,1c-2.4-2.9-1.4-10.1,2-14.2L330.3,192.1z"/>
				</g>
				<g>
					<path class="st9" d="M357.8,191.4c3.2,5,1.6,14.6-3.7,21.2c-5.2,6.7-12.1,8-15.3,2.9l3.3-4.2c2.1,3.3,6.6,2.4,10-1.9
						c3.4-4.3,4.5-10.6,2.4-13.9L357.8,191.4z"/>
				</g>
				<g>
					
						<ellipse transform="matrix(0.4116 -0.9114 0.9114 0.4116 4.8226 434.4208)" class="st6" cx="338.9" cy="213.5" rx="7.2" ry="4.4"/>
				</g>
			</g>
		</g>
	</g>
	<g>
		<path class="st30" d="M26.2,287.2v8.7l6.1,11.5c0,0-0.2,8.7-7.1,8.7s-7.5-8.7-7.5-8.7"/>
		<ellipse class="st31" cx="25.9" cy="287.7" rx="7" ry="3.6"/>
	</g>
	<path class="st0" d="M199.7,286.6c-1.4,1.5-12.2,2.7-17.8,1.4c-5.6-1.5-5.5-4.6-5.1-7c0.4-2,4-1,11.5,1
		C195.8,284,201.1,285.3,199.7,286.6z"/>
	<g>
		<g>
			<path class="st5" d="M210.3,256.3l7.2,1.9l1.2-1.4l-6.9-2c1.5-1.4,2.3-2.3,2.3-2.4c0.3-0.3,0.4-0.8,0.3-1.1
				c-0.1-0.4-0.4-0.6-0.9-0.8l-46.1-13.2c-0.6-0.2-1.3,0-1.9,0.4c-0.8,0.6-19.9,15-18.4,26c0.6,4.6,4.7,7.8,12.2,9.6
				c2.8,0.7,5.5,1,8.1,1.2C186.9,275.4,203.2,262.8,210.3,256.3L210.3,256.3z"/>
			<path class="st5" d="M273.5,267.3l-47-13.5c-0.6-0.2-1.3,0-1.9,0.4c-0.8,0.6-20.4,15.4-18.8,26.6c0.7,4.7,4.8,8,12.4,9.8
				c2.8,0.7,5.6,1.1,8.3,1.2c26.6,1.1,47.5-22.3,47.7-22.6c0.2-0.2,0,0.3,0,0l0.3-0.7l-0.4-1.8L273.5,267.3z"/>
		</g>
		<g>
			<path class="st13" d="M214.1,250c-0.1-0.4-0.4-0.6-0.9-0.8L167.1,236c-0.6-0.2-1.3,0-1.9,0.4c-0.8,0.6-19.9,15-18.4,26
				c0.6,4.6,4.7,7.8,12.2,9.6c2.8,0.7,5.5,1,8.1,1.2c25.9,1.1,46.4-21.8,46.6-22C214.1,250.7,214.2,250.3,214.1,250z"/>
			<polygon class="st11" points="214.1,250.5 214.5,247.7 211,250.4 213,251.4 			"/>
			<g>
				<path class="st32" d="M210.2,248.4c-5.3,5.3-25.7,23.9-49.2,18.2c-6.3-1.5-9.8-4.1-10.3-7.8c-1.2-8.3,12.6-19.9,16.3-22.8
					L210.2,248.4z"/>
				<path class="st11" d="M214.5,247.1c-0.1-0.4-0.4-0.7-0.9-0.8l-46.1-13.2c-0.6-0.2-1.3,0-1.9,0.4c-0.8,0.6-19.9,15-18.4,26
					c0.6,4.6,4.7,7.8,12.2,9.6c2.8,0.7,5.5,1,8.1,1.2c25.9,1.1,46.4-21.8,46.6-22C214.5,247.9,214.6,247.5,214.5,247.1z
					 M160.9,266.5c-6.3-1.5-9.8-4.1-10.3-7.8c-1.2-8.3,12.6-19.9,16.3-22.8l43.2,12.4C204.9,253.7,184.4,272.2,160.9,266.5z"/>
			</g>
		</g>
		
			<ellipse transform="matrix(0.7951 -0.6065 0.6065 0.7951 -117.3536 160.9034)" class="st0" cx="179.4" cy="254.1" rx="7.5" ry="3.7"/>
		<polygon class="st13" points="209.3,252.8 210,254.9 217.2,256.8 218.4,255.4 		"/>
		<polygon class="st11" points="221.2,256.1 208.8,252.8 211,249.1 223.4,252.5 		"/>
		<g>
			<g>
				<path class="st13" d="M274.3,266.7c-0.1-0.4-0.4-0.6-0.9-0.8l-47.3-13.6c-0.6-0.2-1.3,0-1.9,0.4c-0.8,0.6-20.4,15.4-18.8,26.6
					c0.7,4.7,4.8,8,12.4,9.8c2.8,0.7,5.6,1.1,8.3,1.2c26.6,1.1,47.5-22.3,47.7-22.6C274.3,267.5,274.4,267.1,274.3,266.7z"/>
				<polygon class="st13" points="274.3,267.1 274.7,264.1 272.4,266.7 				"/>
				<g>
					<path class="st32" d="M270.4,265c-4.8,4.8-22.1,20.6-43,19.7c-2.5-0.1-5-0.4-7.6-1.1c-6.5-1.6-10-4.3-10.6-8
						c-1.2-8.6,13-20.5,16.7-23.4L270.4,265z"/>
					<path class="st11" d="M274.7,263.7c-0.1-0.4-0.4-0.7-0.9-0.8l-47.3-13.6c-0.6-0.2-1.3,0-1.9,0.4c-0.8,0.6-20.4,15.4-18.8,26.6
						c0.7,4.7,4.8,8,12.4,9.8c2.8,0.7,5.6,1.1,8.3,1.2c26.6,1.1,47.5-22.3,47.7-22.6C274.7,264.5,274.8,264.1,274.7,263.7z
						 M219.8,283.7c-6.5-1.6-10-4.3-10.6-8c-1.2-8.6,13-20.5,16.7-23.4l44.4,12.7c-4.8,4.8-22.1,20.6-43,19.7
						C224.9,284.6,222.3,284.3,219.8,283.7z"/>
				</g>
			</g>
		</g>
		
			<ellipse transform="matrix(0.754 -0.6568 0.6568 0.754 -120.7245 215.0475)" class="st0" cx="226.8" cy="268.7" rx="7.5" ry="3.7"/>
		
			<ellipse transform="matrix(0.6247 -0.7808 0.7808 0.6247 -136.3478 229.4754)" class="st32" cx="170.6" cy="256.6" rx="3.7" ry="7.5"/>
		
			<ellipse transform="matrix(0.9993 -3.793222e-02 3.793222e-02 0.9993 -10.2749 8.7952)" class="st32" cx="226.6" cy="275.2" rx="7.5" ry="3.7"/>
	</g>
</g>
</svg>
