<?xml version="1.0" encoding="utf-8"?>
<!-- Generator: Adobe Illustrator 26.3.1, SVG Export Plug-In . SVG Version: 6.00 Build 0)  -->
<svg version="1.1" id="Layer_1" xmlns="http://www.w3.org/2000/svg" xmlns:xlink="http://www.w3.org/1999/xlink" x="0px" y="0px"
	 viewBox="0 0 255 448.1" style="enable-background:new 0 0 255 448.1;" xml:space="preserve">
<style type="text/css">
	.st0{fill:#58448E;}
	.st1{fill:#328545;}
	.st2{fill:#266939;}
	.st3{clip-path:url(#SVGID_00000124857836955086473350000006669583524743211194_);fill:#266939;}
	.st4{clip-path:url(#SVGID_00000124857836955086473350000006669583524743211194_);fill:#328545;}
	.st5{fill:#87BD3C;}
	.st6{clip-path:url(#SVGID_00000173877828928586470110000004280795208696485275_);fill:#328545;}
	.st7{clip-path:url(#SVGID_00000173877828928586470110000004280795208696485275_);fill:#266939;}
	.st8{clip-path:url(#SVGID_00000173877828928586470110000004280795208696485275_);fill:#1C5130;}
	.st9{fill:#3F3268;}
	.st10{clip-path:url(#SVGID_00000170237249340749916130000013988480080332688522_);fill:#328545;}
	.st11{clip-path:url(#SVGID_00000170237249340749916130000013988480080332688522_);fill:#87BD3C;}
	.st12{clip-path:url(#SVGID_00000170237249340749916130000013988480080332688522_);fill:#1C5130;}
	.st13{clip-path:url(#SVGID_00000170237249340749916130000013988480080332688522_);fill:#266939;}
	
		.st14{clip-path:url(#SVGID_00000170237249340749916130000013988480080332688522_);fill:#328545;stroke:#266939;stroke-miterlimit:10;}
	.st15{clip-path:url(#SVGID_00000170237249340749916130000013988480080332688522_);}
	.st16{fill:#DDDDDD;}
	.st17{clip-path:url(#SVGID_00000101077642428044337100000012213012324957296000_);fill:#669632;}
	.st18{clip-path:url(#SVGID_00000101077642428044337100000012213012324957296000_);fill:#87BD3C;}
	.st19{clip-path:url(#SVGID_00000101077642428044337100000012213012324957296000_);fill:#8A96AB;}
	.st20{clip-path:url(#SVGID_00000060740149378745781070000013065131051956050325_);fill:#87BD3C;}
	.st21{clip-path:url(#SVGID_00000060740149378745781070000013065131051956050325_);fill:#669632;}
	.st22{clip-path:url(#SVGID_00000037659620529848162160000004795439849855742895_);fill:#328545;}
	.st23{clip-path:url(#SVGID_00000037659620529848162160000004795439849855742895_);fill:#266939;}
	.st24{clip-path:url(#SVGID_00000025419085650822997370000015649909362343292555_);fill:#669632;}
	.st25{clip-path:url(#SVGID_00000025419085650822997370000015649909362343292555_);fill:#87BD3C;}
	.st26{clip-path:url(#SVGID_00000025419085650822997370000015649909362343292555_);fill:#8A96AB;}
	.st27{clip-path:url(#SVGID_00000134941586393095879950000005977598283736388750_);fill:#87BD3C;}
	.st28{clip-path:url(#SVGID_00000134941586393095879950000005977598283736388750_);fill:#669632;}
	.st29{clip-path:url(#SVGID_00000013880651883995357660000005414831496261890959_);fill:#328545;}
	.st30{clip-path:url(#SVGID_00000013880651883995357660000005414831496261890959_);fill:#266939;}
	.st31{clip-path:url(#SVGID_00000146485204049327050080000005007427249950647180_);fill:#328545;}
	.st32{clip-path:url(#SVGID_00000146485204049327050080000005007427249950647180_);fill:#266939;}
	.st33{fill:#669632;}
	.st34{fill:none;}
	.st35{clip-path:url(#SVGID_00000012443971414605115530000015082979001584523156_);fill:#669632;}
	.st36{clip-path:url(#SVGID_00000012443971414605115530000015082979001584523156_);fill:#87BD3C;}
	.st37{fill:#38964A;}
	.st38{fill:none;stroke:#58448E;stroke-width:2.4277;stroke-linecap:round;stroke-miterlimit:10;}
	.st39{fill:#C5E6F9;}
	.st40{fill:none;stroke:#58448E;stroke-width:0.9146;stroke-miterlimit:10;}
</style>
<g>
	<g>
		<circle class="st0" cx="34.1" cy="118.4" r="4.2"/>
		<g>
			<path class="st1" d="M26.7,104.9c-4.1-1-7,0.7-7,0.7l10.3,15c0,0,2.4,1.7,5.4-0.4c2.8-2,2-4.7,2-4.7l-4.8-6.1
				C32.7,109.6,29.3,105.6,26.7,104.9z"/>
			<path class="st2" d="M37.2,118.3C37.2,118.2,37.2,118.2,37.2,118.3l-4.8-6.1c0,0-3.4-4-6-4.7c-2.3-0.6-4.2-0.3-5.4,0.1l-1.3-1.9
				c0,0,2.9-1.8,7-0.7c2.6,0.6,6,4.7,6,4.7l4.8,6.1C37.4,115.6,37.8,116.8,37.2,118.3z"/>
		</g>
	</g>
	<g>
		<defs>
			<path id="SVGID_1_" d="M43.7,117.1L33,113.3c0,0-9.2,0.4-10.1,3c-1.5,4,0.7,8.1,0.7,8.1l18,2.1c2.6,0.3,5-1.5,5.4-4.1v0
				C47.4,120.2,46,117.9,43.7,117.1z"/>
		</defs>
		<clipPath id="SVGID_00000116212236735070577470000010457603409014536364_">
			<use xlink:href="#SVGID_1_"  style="overflow:visible;"/>
		</clipPath>
		
			<rect x="21.4" y="113.6" transform="matrix(0.9863 0.1649 -0.1649 0.9863 20.3588 -4.0781)" style="clip-path:url(#SVGID_00000116212236735070577470000010457603409014536364_);fill:#266939;" width="26.6" height="14"/>
		<path style="clip-path:url(#SVGID_00000116212236735070577470000010457603409014536364_);fill:#328545;" d="M22.9,124.4
			c0,0,3.4,0.2,4.4-2.6l20.4,4.4l-1.3,2.9L22.9,124.4z"/>
		<path style="clip-path:url(#SVGID_00000116212236735070577470000010457603409014536364_);fill:#266939;" d="M51.6,116.4L38.1,114
			c0,0,3.7,3.5,3,8.1c-0.7,4.1-3.1,5.6-3.1,5.6l11.4,1.6L51.6,116.4z"/>
	</g>
	<path class="st0" d="M24.3,123.2l-4.4-0.5l5.3-7.4c0,0,1.7,0.4,1.5,3.3C26.4,121.4,25.1,122.9,24.3,123.2z"/>
	<path class="st1" d="M22.2,124.3l-14.9-3.2L0,108.9c0,0,0.7-2,4.2-1.5c3.5,0.5,9.6,9,9.6,9l11.9,1.2L22.2,124.3z"/>
	<path class="st5" d="M23.3,121.4c0,0,4.2,0.8,5.1-2.7c0.8-3-2.5-4.4-2.5-4.4l-12.2-1.7c0,0-8.3-7.7-11.9-4.8l7.9,10.5L23.3,121.4z"
		/>
	<circle class="st0" cx="25.4" cy="117.9" r="1.7"/>
</g>
<g>
	<g>
		<defs>
			<path id="SVGID_00000180344625968668221140000007639029055374117560_" d="M144.3,305.7L144.3,305.7c-9.1-0.7-15.8-3.9-21.8-9.1
				c-6.8-5.8-15.1-14.2-17.6-23.5c-1.2-4.6-1.7-9.5-1.3-14.6l0.2-2.9l88,6.5l-0.2,2.9c-0.4,5.1-1.6,10-3.6,14.5
				c-3.2,7.2-10.9,13.2-16.6,17.8C163.9,303.2,155.2,306.5,144.3,305.7z"/>
		</defs>
		<clipPath id="SVGID_00000086651382009679630980000015405688118482406290_">
			<use xlink:href="#SVGID_00000180344625968668221140000007639029055374117560_"  style="overflow:visible;"/>
		</clipPath>
		
			<rect x="98" y="252.8" transform="matrix(0.9973 7.364547e-02 -7.364547e-02 0.9973 21.0373 -9.9393)" style="clip-path:url(#SVGID_00000086651382009679630980000015405688118482406290_);fill:#328545;" width="94.6" height="55.1"/>
		<polygon style="clip-path:url(#SVGID_00000086651382009679630980000015405688118482406290_);fill:#266939;" points="124.4,294.7 
			164.8,297.7 172.3,317.2 119.1,313.3 		"/>
		<path style="clip-path:url(#SVGID_00000086651382009679630980000015405688118482406290_);fill:#1C5130;" d="M178.9,292.5
			c-9.4,9.2-19.4,14.2-22.3,11.2s2.3-12.9,11.7-22.1s16.9-11,22.3-11.2C194.8,270.4,188.3,283.3,178.9,292.5z"/>
		<path style="clip-path:url(#SVGID_00000086651382009679630980000015405688118482406290_);fill:#1C5130;" d="M112.2,287.6
			c7.9,10.5,17.1,16.9,20.4,14.3c3.3-2.5-0.4-13.1-8.3-23.5s-15.7-13.4-20.4-14.3C99.8,263.3,104.3,277.1,112.2,287.6z"/>
	</g>
	
		<ellipse transform="matrix(7.364547e-02 -0.9973 0.9973 7.364547e-02 -121.1903 387.1624)" class="st2" cx="147.8" cy="258.8" rx="4.6" ry="44.1"/>
	<path class="st9" d="M186.8,292c0,0-1.3,3.2-3.3,5c-1.8,1.7-4.8,3-4.8,3l-11-11.1c0,0,0.6-2.7,3.3-5.5c2.4-2.5,4.8-2.5,4.8-2.5
		L186.8,292z"/>
	<path class="st9" d="M104.4,285.7c0,0,0.8,3.4,2.3,5.5c1.5,2,4.3,3.8,4.3,3.8l12.7-9c0,0-0.1-2.7-2.3-6c-1.9-2.8-4.3-3.3-4.3-3.3
		L104.4,285.7z"/>
</g>
<path class="st9" d="M180.6,261.1c0,0-7.8,3.4-31.6,1.1c-24-2.3-32.1-6-32.1-6l0.5-20.9l63.7,1.4L180.6,261.1z"/>
<g>
	<g>
		<defs>
			<path id="SVGID_00000148647160304370141180000015794088385204040875_" d="M206.9,212.2c-0.8,21.4-2.7,25.9-14.8,35.8
				c-8.2-0.6-21.4-2-36.4-2.8c-15.7,2.8-29.3,5-37.3,6.4c-9.9-7.8-14.8-9.8-19.5-32.2c-3.7-17.5-2.1-45.9,3.2-66.1
				c-2.4-9.3-9.9-24.4-1.1-28.5c9.5-4.5,28.9-9.9,44.9-10.9c13.4-0.9,34.3,1.6,44.9,4.9c9.7,3,4.2,18.5,3.1,28.4
				C202.6,166.7,207.7,193.7,206.9,212.2z"/>
		</defs>
		<clipPath id="SVGID_00000029761829450671155100000007957761516697607319_">
			<use xlink:href="#SVGID_00000148647160304370141180000015794088385204040875_"  style="overflow:visible;"/>
		</clipPath>
		
			<rect x="83.6" y="105.5" transform="matrix(0.9978 -6.665778e-02 6.665778e-02 0.9978 -11.741 10.4882)" style="clip-path:url(#SVGID_00000029761829450671155100000007957761516697607319_);fill:#328545;" width="135.4" height="151.3"/>
		<polygon style="clip-path:url(#SVGID_00000029761829450671155100000007957761516697607319_);fill:#87BD3C;" points="110.1,159.5 
			145.3,131.4 186.3,154.4 208.3,133.8 184.2,105.5 98.8,111.5 94.6,148.7 		"/>
		<path style="clip-path:url(#SVGID_00000029761829450671155100000007957761516697607319_);fill:#1C5130;" d="M165.5,121.4
			c0.4,6.5-10.3,13.7-19.1,17.2c-10.6-3.1-20.8-8.1-21.2-14.5c-0.4-6.5,10.6-10.4,19.5-11S165.1,115,165.5,121.4z"/>
		<path style="clip-path:url(#SVGID_00000029761829450671155100000007957761516697607319_);fill:#266939;" d="M94.8,136.8
			c0,0,1.2-12.4,5-10.3c3.8,2.1,12,16.9,11.9,32.4c-6.9,25.2-7.1,45.9-7.9,64c0,0,1.9,19.7,11.8,28.5c9.9,8.8-27-8.3-27-8.3
			l-4.9-53.7L94.8,136.8z"/>
		<path style="clip-path:url(#SVGID_00000029761829450671155100000007957761516697607319_);fill:#266939;" d="M197.6,129.8
			c0,0,0.9-9.5-4.2-10c-4.3-0.4-11.3,19-9.2,34.3c10.2,24.1,16.2,44.3,19.4,62.2c0,0-2.3,19.9-11,30s20.5-11.5,20.5-11.5l-2.4-53.9
			L197.6,129.8z"/>
		<path style="clip-path:url(#SVGID_00000029761829450671155100000007957761516697607319_);fill:#1C5130;" d="M108,159.6
			c0,0,3.8-3.1-2.4-19c-3.8-9.8-5.5-8.3-6-5.6S102,160.4,108,159.6z"/>
		<path style="clip-path:url(#SVGID_00000029761829450671155100000007957761516697607319_);fill:#1C5130;" d="M188.6,154.2
			c0,0-4.2-2.5-0.1-19.1c2.5-10.2,4.4-8.9,5.2-6.3c0.4,1.2,0.6,7.1,0.1,12.8C193.2,147.9,191.7,154.2,188.6,154.2z"/>
		<path style="clip-path:url(#SVGID_00000029761829450671155100000007957761516697607319_);fill:#266939;" d="M218.9,249.2
			l-126.9,8.5l12.1-51.9c0,0,11.8,24.2,49,21.8c37.9-2.5,47-28.2,47-28.2L218.9,249.2z"/>
		
			<rect x="128.1" y="168.6" transform="matrix(0.9978 -6.665778e-02 6.665778e-02 0.9978 -12.1688 10.4525)" style="clip-path:url(#SVGID_00000029761829450671155100000007957761516697607319_);fill:#328545;stroke:#266939;stroke-miterlimit:10;" width="44.9" height="37.9"/>
		<g style="clip-path:url(#SVGID_00000029761829450671155100000007957761516697607319_);">
			<circle class="st9" cx="140.6" cy="181.6" r="6.3"/>
			
				<rect x="151.4" y="175.2" transform="matrix(0.9978 -6.665778e-02 6.665778e-02 0.9978 -11.7143 10.6394)" class="st5" width="4.4" height="11.3"/>
			
				<rect x="160.5" y="174.6" transform="matrix(0.9978 -6.665778e-02 6.665778e-02 0.9978 -11.6531 11.2486)" class="st5" width="4.4" height="11.3"/>
			
				<rect x="135.9" y="194.3" transform="matrix(0.9978 -6.665778e-02 6.665778e-02 0.9978 -12.8715 9.7298)" class="st5" width="6.9" height="6.9"/>
			
				<rect x="147.6" y="193.5" transform="matrix(0.9978 -6.665778e-02 6.665778e-02 0.9978 -12.7937 10.5046)" class="st5" width="6.9" height="6.9"/>
			
				<rect x="159.2" y="192.8" transform="matrix(0.9978 -6.665778e-02 6.665778e-02 0.9978 -12.7159 11.2795)" class="st5" width="6.9" height="6.9"/>
		</g>
	</g>
	<path class="st9" d="M192.8,130.8c0,0-3,1.4-3.9,8.2c-0.9,6.8,0.5,10.6,1.5,11.4c1.1,0.8,13.8,1.3,16-6.4
		C209,135,201.2,130.6,192.8,130.8z"/>
	<path class="st9" d="M100,137c0,0,3.2,1,4.9,7.7c1.8,6.6,0.9,10.6,0,11.5c-0.9,0.9-13.5,3.1-16.7-4.2
		C84.6,143.3,91.7,137.9,100,137z"/>
</g>
<g>
	<g>
		<path class="st9" d="M163.9,86.9C163.9,86.9,163.9,86.9,163.9,86.9c0.1-5.8-8-10.6-18.1-10.8c-10.1-0.1-18.3,4.5-18.4,10.3
			c0,0,0,0,0,0.1L163.9,86.9z"/>
	</g>
	<g>
		
			<rect x="127.1" y="86.7" transform="matrix(1.255882e-02 -0.9999 0.9999 1.255882e-02 38.6451 249.0759)" class="st9" width="36.6" height="36.5"/>
		<g>
			<path class="st16" d="M163.9,89.3c0.4,2.8-1.3,5.7-4.8,7.7c-3.4,2.1-8.5,3.3-13.6,3.2c-5.1-0.1-10.1-1.4-13.5-3.5
				c-3.4-2.1-5.1-5.1-4.6-7.8c0.4,2.8,2.6,5.3,5.9,7.1c3.3,1.8,7.7,2.9,12.2,2.9c4.5,0.1,8.9-0.9,12.3-2.6
				C161.2,94.5,163.4,92,163.9,89.3z"/>
		</g>
		<g>
			<path class="st16" d="M163.6,107c0.4,2.8-1.3,5.7-4.8,7.7c-3.4,2.1-8.5,3.3-13.6,3.2c-5.1-0.1-10.1-1.4-13.5-3.5
				c-3.4-2.1-5.1-5.1-4.6-7.8c0.4,2.8,2.6,5.3,5.9,7.1c3.3,1.8,7.7,2.9,12.2,2.9c4.5,0.1,8.9-0.9,12.3-2.6
				C160.9,112.3,163.2,109.8,163.6,107z"/>
		</g>
	</g>
	<g>
		<path class="st9" d="M163.4,123.5C163.4,123.5,163.4,123.5,163.4,123.5c-0.1,5.8-8.3,10.4-18.3,10.3c-10.1-0.1-18.2-4.9-18.1-10.7
			c0,0,0,0,0-0.1L163.4,123.5z"/>
	</g>
</g>
<g>
	<circle class="st9" cx="117.9" cy="424.3" r="7.1"/>
	<circle class="st9" cx="119.5" cy="355.7" r="10.4"/>
	<g>
		<defs>
			<path id="SVGID_00000087409539967918754650000017730112586618782607_" d="M131.7,350.7l4-43.5c0,0-1.1-10.1-21-28.2
				c-10.5-9.6-17.4-12.3-20.1-6.6c0.1,3.6,12.9,81.5,12.9,81.5s7.1,3.7,14.8,3.2C127.3,356.7,130.5,355,131.7,350.7z"/>
		</defs>
		<clipPath id="SVGID_00000147221317521287834830000016807444261471887770_">
			<use xlink:href="#SVGID_00000087409539967918754650000017730112586618782607_"  style="overflow:visible;"/>
		</clipPath>
		<polygon style="clip-path:url(#SVGID_00000147221317521287834830000016807444261471887770_);fill:#669632;" points="140.6,308.8 
			128.9,274.5 98.8,263.6 89.3,273.7 105.6,355.7 120.2,360.8 131.6,359.3 		"/>
		<path style="clip-path:url(#SVGID_00000147221317521287834830000016807444261471887770_);fill:#87BD3C;" d="M95.4,264l17.5,93.6
			l23.6-1.4l4.9-62.6c0,0-3.2-9.1-14.1-18.4C120.3,269.3,95.4,264,95.4,264z"/>
		
			<ellipse transform="matrix(0.7093 -0.7049 0.7049 0.7093 -161.7927 168.0092)" style="clip-path:url(#SVGID_00000147221317521287834830000016807444261471887770_);fill:#8A96AB;" cx="122.8" cy="280.2" rx="2.4" ry="26.8"/>
	</g>
	<g>
		<defs>
			<path id="SVGID_00000165200288402991843060000011831555094175202458_" d="M109.8,425.9c0,0,0.3,0,0.6-0.1
				c0.3-2.3,2.2-5.4,7.4-5.3c5.2,0.1,7.4,3,7.3,5.4c0.4,0.3,0.8,0.3,0.8,0.3s-0.1-5.7,0.9-13.2c1.2-9.6,4-22,4.3-27.8
				c0.4-6.7-0.7-26.8-0.7-26.8s-2.6,3.5-11.5,3.3c-9.4-0.2-10.5-3.8-10.5-3.8s-2,20-1.9,26.7c0.1,5.8,2.3,18.3,3.1,28
				C110.1,420.1,109.8,425.9,109.8,425.9z"/>
		</defs>
		<clipPath id="SVGID_00000065062231978404748860000008384199289543267233_">
			<use xlink:href="#SVGID_00000165200288402991843060000011831555094175202458_"  style="overflow:visible;"/>
		</clipPath>
		
			<rect x="98.6" y="349.7" transform="matrix(-0.9998 -2.204057e-02 2.204057e-02 -0.9998 226.3363 783.2216)" style="clip-path:url(#SVGID_00000065062231978404748860000008384199289543267233_);fill:#87BD3C;" width="37.8" height="81.3"/>
		<path style="clip-path:url(#SVGID_00000065062231978404748860000008384199289543267233_);fill:#669632;" d="M112.4,359.6
			c0,0-1,5.9-1.6,12.8c-0.6,6.6-2,20,1.7,33.7c3.7,13.7-1.9,27.2-1.9,27.2l-4.1-10l-3.8-68.2L112.4,359.6z"/>
	</g>
	<g>
		
			<rect x="107.1" y="352.1" transform="matrix(0.9998 2.204057e-02 -2.204057e-02 0.9998 7.893 -2.3008)" class="st0" width="2.5" height="9.7"/>
		
			<ellipse transform="matrix(2.204057e-02 -0.9998 0.9998 2.204057e-02 -252.0463 456.1109)" class="st9" cx="107.1" cy="356.9" rx="4.8" ry="1"/>
		
			<ellipse transform="matrix(2.204057e-02 -0.9998 0.9998 2.204057e-02 -249.7078 458.6094)" class="st0" cx="109.6" cy="356.9" rx="4.8" ry="1"/>
	</g>
	<g>
		
			<rect x="129.2" y="352.6" transform="matrix(-0.9998 -2.204057e-02 2.204057e-02 -0.9998 252.9126 717.5975)" class="st0" width="2.5" height="9.7"/>
		
			<ellipse transform="matrix(2.204057e-02 -0.9998 0.9998 2.204057e-02 -228.6211 481.1388)" class="st9" cx="131.6" cy="357.4" rx="4.8" ry="1"/>
		
			<ellipse transform="matrix(2.204057e-02 -0.9998 0.9998 2.204057e-02 -230.9596 478.6402)" class="st0" cx="129.2" cy="357.4" rx="4.8" ry="1"/>
	</g>
	<g>
		<defs>
			<path id="SVGID_00000155829608044002510470000008432851977673126555_" d="M124.5,427.2c0,0-2.3-3.1-6.2-3.3
				c-4.6-0.3-7.2,2.9-7.2,2.9l0-7.3l-1.2,0l-0.5,9.2c0,0-2.7,7-3.1,7.6c-1.6,2.5-2.2,5.8-1.5,8.2c0.5,1.8,19.3,3.1,22.9,0.8
				c3.6-2.2-1.5-9.1-1.3-10.9c0.2-1.8,0.3-13.8,0.3-13.8l-1.5-0.3L124.5,427.2z"/>
		</defs>
		<clipPath id="SVGID_00000023984108018442687920000011306858565436402097_">
			<use xlink:href="#SVGID_00000155829608044002510470000008432851977673126555_"  style="overflow:visible;"/>
		</clipPath>
		
			<rect x="103.8" y="418.8" transform="matrix(-0.9998 -2.204057e-02 2.204057e-02 -0.9998 224.1665 868.8969)" style="clip-path:url(#SVGID_00000023984108018442687920000011306858565436402097_);fill:#328545;" width="26.2" height="28.9"/>
		<path style="clip-path:url(#SVGID_00000023984108018442687920000011306858565436402097_);fill:#266939;" d="M102.2,439.9
			c0,0,1.5,2.2,13,2.5s9.5-1.2,9.6-2.9c0-1.7-2.8-9-2.5-11.2c0.3-2.3,1.1-10.7,1.1-10.7l5.5,7l4.8,22.6l-32.1-0.4L102.2,439.9z"/>
	</g>
	<g>
		
			<rect x="108.9" y="418.9" transform="matrix(0.9998 2.204057e-02 -2.204057e-02 0.9998 9.324 -2.3145)" class="st9" width="1.5" height="5.9"/>
		
			<ellipse transform="matrix(2.204057e-02 -0.9998 0.9998 2.204057e-02 -315.1872 521.4094)" class="st0" cx="108.9" cy="421.8" rx="3" ry="0.6"/>
		
			<ellipse transform="matrix(2.204057e-02 -0.9998 0.9998 2.204057e-02 -313.7614 522.9327)" class="st9" cx="110.4" cy="421.8" rx="3" ry="0.6"/>
	</g>
	<g>
		
			<rect x="125.9" y="419.2" transform="matrix(-0.9998 -2.204057e-02 2.204057e-02 -0.9998 244.0712 847.1005)" class="st9" width="1.5" height="5.9"/>
		
			<ellipse transform="matrix(2.204057e-02 -0.9998 0.9998 2.204057e-02 -297.4839 540.3238)" class="st0" cx="127.4" cy="422.2" rx="3" ry="0.6"/>
		
			<ellipse transform="matrix(2.204057e-02 -0.9998 0.9998 2.204057e-02 -298.9097 538.8004)" class="st9" cx="125.9" cy="422.2" rx="3" ry="0.6"/>
	</g>
</g>
<g>
	<circle class="st9" cx="186.9" cy="427.4" r="7.1"/>
	<circle class="st9" cx="180.2" cy="359.1" r="10.4"/>
	<g>
		<defs>
			<path id="SVGID_00000009558620108830252430000004774836845663921086_" d="M167.6,355.1l-7.2-43.1c0,0,0.4-10.1,18.9-29.7
				c9.8-10.3,16.5-13.6,19.6-8.1c0.1,3.6-6.9,82.2-6.9,82.2s-6.8,4.2-14.6,4.3C172.5,360.8,169.2,359.3,167.6,355.1z"/>
		</defs>
		<clipPath id="SVGID_00000156578468326029503600000002645904553550828704_">
			<use xlink:href="#SVGID_00000009558620108830252430000004774836845663921086_"  style="overflow:visible;"/>
		</clipPath>
		<polygon style="clip-path:url(#SVGID_00000156578468326029503600000002645904553550828704_);fill:#669632;" points="155.8,314 
			164.8,278.9 194.1,265.8 204.3,275.1 194.1,358.2 179.9,364.3 168.4,363.7 		"/>
		<path style="clip-path:url(#SVGID_00000156578468326029503600000002645904553550828704_);fill:#87BD3C;" d="M197.5,265.9
			l-10.6,94.7l-23.7,0.3l-9.5-62.1c0,0,2.5-9.3,12.8-19.3C173.1,273.1,197.5,265.9,197.5,265.9z"/>
		
			<ellipse transform="matrix(0.6508 -0.7592 0.7592 0.6508 -155.8268 229.295)" style="clip-path:url(#SVGID_00000156578468326029503600000002645904553550828704_);fill:#8A96AB;" cx="171.4" cy="284.1" rx="26.8" ry="2.4"/>
	</g>
	<g>
		<defs>
			<path id="SVGID_00000114072857450530461400000009400561620452758442_" d="M194.9,426.7c0,0-0.3,0-0.6,0c-0.4-2.2-2.6-5.1-7.7-4.6
				c-5.2,0.5-7.2,3.4-6.9,5.7c-0.4,0.4-0.8,0.4-0.8,0.4s-0.4-5.6-1.8-12.8c-1.9-9.3-5.5-21.1-6.3-26.7c-0.8-6.5-1.2-26.1-1.2-26.1
				s2.7,5.7,11.7,4.8c9.3-0.9,10.2-6.9,10.2-6.9s3.4,19.3,3.8,25.8c0.4,5.7-1,17.9-1.1,27.4C194.2,421,194.9,426.7,194.9,426.7z"/>
		</defs>
		<clipPath id="SVGID_00000167390671346768152230000003378556124444071075_">
			<use xlink:href="#SVGID_00000114072857450530461400000009400561620452758442_"  style="overflow:visible;"/>
		</clipPath>
		
			<rect x="165.8" y="353.2" transform="matrix(0.9954 -9.554876e-02 9.554876e-02 0.9954 -36.6814 19.4444)" style="clip-path:url(#SVGID_00000167390671346768152230000003378556124444071075_);fill:#87BD3C;" width="37.8" height="79.2"/>
		<path style="clip-path:url(#SVGID_00000167390671346768152230000003378556124444071075_);fill:#669632;" d="M187.6,362.4
			c0,0,1.4,5.6,2.5,12.3c1.1,6.4,3.4,19.3,0.7,32.8c-2.7,13.6,3.9,26.3,3.9,26.3l3.4-10.1l-1.1-66.6L187.6,362.4z"/>
	</g>
	<g>
		
			<rect x="190.2" y="354.7" transform="matrix(-0.9954 9.554876e-02 -9.554876e-02 -0.9954 416.3766 699.1666)" class="st0" width="2.5" height="9.7"/>
		
			<ellipse transform="matrix(0.9954 -9.554876e-02 9.554876e-02 0.9954 -33.4619 20.0523)" class="st9" cx="192.7" cy="359.4" rx="1" ry="4.8"/>
		
			<ellipse transform="matrix(0.9954 -9.554876e-02 9.554876e-02 0.9954 -33.4954 19.8206)" class="st0" cx="190.2" cy="359.7" rx="1" ry="4.8"/>
	</g>
	<g>
		
			<rect x="168.2" y="356.8" transform="matrix(0.9954 -9.554876e-02 9.554876e-02 0.9954 -33.7811 17.8463)" class="st0" width="2.5" height="9.7"/>
		
			<ellipse transform="matrix(0.9954 -9.554876e-02 9.554876e-02 0.9954 -33.7973 17.7317)" class="st9" cx="168.3" cy="361.8" rx="1" ry="4.8"/>
		
			<ellipse transform="matrix(0.9954 -9.554876e-02 9.554876e-02 0.9954 -33.7638 17.9633)" class="st0" cx="170.7" cy="361.5" rx="1" ry="4.8"/>
	</g>
	<g>
		<defs>
			<path id="SVGID_00000072264891782499194200000001844806845012390052_" d="M180.6,429c0,0,2-3.2,6-3.7c4.6-0.6,7.4,2.4,7.4,2.4
				l-0.6-7.3l1.2-0.1l1.2,9.2c0,0,3.2,6.8,3.6,7.3c1.8,2.4,2.6,5.6,2.1,8.1c-0.4,1.8-19,4.5-22.7,2.5s0.9-9.2,0.5-11
				c-0.3-1.8-1.3-13.8-1.3-13.8l1.5-0.4L180.6,429z"/>
		</defs>
		<clipPath id="SVGID_00000100361914818736762740000001491859248831786142_">
			<use xlink:href="#SVGID_00000072264891782499194200000001844806845012390052_"  style="overflow:visible;"/>
		</clipPath>
		
			<rect x="175.5" y="420.1" transform="matrix(0.9954 -9.554876e-02 9.554876e-02 0.9954 -40.6532 20.0064)" style="clip-path:url(#SVGID_00000100361914818736762740000001491859248831786142_);fill:#328545;" width="26.2" height="28.9"/>
		<path style="clip-path:url(#SVGID_00000100361914818736762740000001491859248831786142_);fill:#266939;" d="M203.7,440.1
			c0,0-1.3,2.3-12.8,3.4c-11.4,1.1-9.6-0.5-9.8-2.2c-0.2-1.7,2.2-9.2,1.7-11.4c-0.5-2.2-1.9-10.6-1.9-10.6l-5,7.4l-3.1,22.9l32-2.7
			L203.7,440.1z"/>
	</g>
	<g>
		
			<rect x="194.1" y="421.4" transform="matrix(-0.9954 9.554876e-02 -9.554876e-02 -0.9954 429.4473 828.2079)" class="st9" width="1.5" height="5.9"/>
		
			<ellipse transform="matrix(0.9954 -9.554876e-02 9.554876e-02 0.9954 -39.6475 20.6334)" class="st0" cx="195.6" cy="424.3" rx="0.6" ry="3"/>
		
			<ellipse transform="matrix(0.9954 -9.554876e-02 9.554876e-02 0.9954 -39.6679 20.4922)" class="st9" cx="194.1" cy="424.5" rx="0.6" ry="3"/>
	</g>
	<g>
		
			<rect x="177.2" y="423.1" transform="matrix(0.9954 -9.554876e-02 9.554876e-02 0.9954 -39.8911 18.9496)" class="st9" width="1.5" height="5.9"/>
		
			<ellipse transform="matrix(0.9954 -9.554876e-02 9.554876e-02 0.9954 -39.901 18.8797)" class="st0" cx="177.2" cy="426.1" rx="0.6" ry="3"/>
		
			<ellipse transform="matrix(0.9954 -9.554876e-02 9.554876e-02 0.9954 -39.8806 19.0209)" class="st9" cx="178.7" cy="425.9" rx="0.6" ry="3"/>
	</g>
</g>
<g>
	<g>
		<defs>
			<path id="SVGID_00000078730008829824268740000010533922166643171242_" d="M214.7,232.9l8.8,17.8c0,0,0.6,1.7,0.1,2.2
				c-1.1,1.3-4.9,2.2-12.1,1.1c-10.2-1.6-16.7-9.9-16.7-9.9l8.2-15.5L214.7,232.9z"/>
		</defs>
		<clipPath id="SVGID_00000165236108438462360470000017033105423853139849_">
			<use xlink:href="#SVGID_00000078730008829824268740000010533922166643171242_"  style="overflow:visible;"/>
		</clipPath>
		<polygon style="clip-path:url(#SVGID_00000165236108438462360470000017033105423853139849_);fill:#328545;" points="203.4,225.3 
			191.6,246.6 214,256.4 225.9,251.3 215,228.3 		"/>
		<path style="clip-path:url(#SVGID_00000165236108438462360470000017033105423853139849_);fill:#266939;" d="M200.4,226l-3.3,11.8
			c0,0,5.9,3.8,11.3,3.1c5.4-0.7,9.4-4.6,9.4-4.6l-5.5-8.6L200.4,226z"/>
	</g>
	<path class="st9" d="M208,251.1c0,0,4.5,1.2,9.1,0.8c5.6-0.4,6-1.3,6-1.3s0.8,1.3,0.3,2s-4.5,1.5-5.4,1.6s-9.7-1.2-9.7-1.2
		L208,251.1z"/>
	<circle class="st9" cx="198.8" cy="246" r="4.2"/>
	<g>
		<path class="st5" d="M209.3,252c0,0,0-3.9-3-4.1c-2.6-0.2-3.2,3-3.2,3l0.5,11.2c0,0-4,5.5-1,8.3l6.3-5.7L209.3,252z"/>
		<path class="st1" d="M223.6,252l-2.4,11.6l-9.9,6.3l-8.8,0.5l6.3-5.7l0.4-12.6c0,0,4.3,1.7,9,1.6C220,253.6,222.5,253,223.6,252z"
			/>
		<polygon class="st2" points="221.2,263.6 208.9,264.6 202.6,270.4 211.3,269.8 		"/>
	</g>
	<ellipse transform="matrix(0.9498 -0.3128 0.3128 0.9498 -68.254 77.0832)" class="st9" cx="206.1" cy="251.2" rx="2.4" ry="2.7"/>
	<g>
		<path class="st1" d="M197.9,261.1c-3.3,2.6-6.7,2.2-6.7,2.2l3.1-18c0,0,1.5-2.6,5.1-1.9c3.4,0.7,3.7,3.4,3.7,3.4l-1.8,7.5
			C201.3,254.4,200,259.4,197.9,261.1z"/>
		<path class="st2" d="M201.8,244.6C201.8,244.7,201.8,244.7,201.8,244.6l-1.8,7.5c0,0-1.4,5-3.5,6.7c-1.8,1.5-3.7,2-5,2.2l-0.4,2.3
			c0,0,3.4,0.4,6.7-2.2c2.1-1.7,3.5-6.7,3.5-6.7l1.8-7.5C203.1,246.9,203,245.6,201.8,244.6z"/>
	</g>
</g>
<g>
	<g>
		<g>
			<g>
				<path class="st9" d="M203.6,134L203.6,134c-2.3-0.9-4.7-0.6-6.7,0.6c-2,1.2-3.4,3.2-3.8,5.7c-0.4,2.5-0.2,4.8,0.4,6.7
					c0.6,1.9,1.7,3.3,3.3,3.9l0,0L203.6,134z"/>
			</g>
			<g>
				<path class="st9" d="M214.7,163.2c-5-5.4-11.2-9.6-17.8-12.3l6.8-17c9.3,3.7,17.7,9.5,24.4,16.8L214.7,163.2z"/>
				<g>
					<path class="st16" d="M205.4,134.7c2.2,0.7,4,2.6,4.6,4.9c0.7,2.3,0.1,4.9-1.2,7.1c-1.3,2.2-3.3,3.9-5.3,4.7
						c-2,0.9-3.9,0.9-5.3,0c1.6,0.4,3.4,0.1,5.2-0.8c1.8-0.9,3.5-2.5,4.6-4.4c1.1-1.9,1.6-4.2,1.2-6.4
						C208.7,137.7,207.4,135.8,205.4,134.7z"/>
				</g>
				<g>
					<path class="st16" d="M218,141.9c1.9,1.1,3.3,3.3,3.4,5.7c0.1,2.4-0.9,4.8-2.7,6.7c-1.7,1.8-4.1,3.1-6.2,3.5
						c-2.1,0.4-4,0-5.2-1.1c1.5,0.8,3.3,0.9,5.3,0.4c1.9-0.5,4-1.7,5.5-3.4c1.5-1.6,2.5-3.8,2.5-6
						C220.6,145.6,219.7,143.4,218,141.9z"/>
				</g>
			</g>
			<g>
				<path class="st9" d="M226.4,182.1c-2.8-7.1-6.6-13.6-11.7-18.9l13.3-12.5c6.8,7.2,11.9,15.8,15.4,24.8L226.4,182.1z"/>
				<g>
					<path class="st16" d="M229.3,152.2c1.7,1.5,2.5,4,2.1,6.3c-0.4,2.4-1.9,4.5-4,6c-2.1,1.4-4.7,2.2-6.8,2.1
						c-2.2,0-3.9-0.9-4.9-2.2c1.3,1.1,3.1,1.6,5.1,1.5c2-0.1,4.2-0.8,6.1-2.1c1.8-1.3,3.2-3.2,3.7-5.3
						C231,156.3,230.6,154,229.3,152.2z"/>
				</g>
				<g>
					<path class="st16" d="M237.7,163.8c0.7,0.9,1.1,2,1.2,3.1c0.1,1.1,0,2.3-0.4,3.4c-0.8,2.2-2.7,4.1-5.1,5.1
						c-2.3,1-5,1.3-7.1,0.8c-1-0.2-2-0.6-2.7-1.2c-0.7-0.6-1.3-1.2-1.6-2c0.5,0.7,1.2,1.2,2,1.6c0.8,0.4,1.7,0.7,2.7,0.9
						c2,0.3,4.3,0,6.3-0.9c2-0.9,3.8-2.5,4.7-4.5c0.5-1,0.7-2,0.7-3.1C238.4,165.8,238.2,164.8,237.7,163.8z"/>
				</g>
			</g>
			<g>
				<path class="st9" d="M243.4,175.6L243.4,175.6c0.8,2.2,0.6,4.5-0.6,6.3c-1.1,1.9-3.1,3.3-5.5,4s-4.9,0.5-6.8-0.1
					c-1.9-0.7-3.5-1.9-4.1-3.6l0,0L243.4,175.6z"/>
			</g>
		</g>
	</g>
</g>
<polyline class="st33" points="255,197.1 219.4,244.6 190.8,233.7 202.1,174.7 243.6,149.8 "/>
<path class="st5" d="M246.1,160.8c0,0-27.5,1.2-35.1,8.4c-7.7,7.2-16.7,72-16.7,72l11.3,3.3c0,0,18.4-18.5,36-60.5"/>
<path class="st34" d="M247.5,197.9c-14.3,24-29.3,41-29.3,41s-3.7,2.8-12.4-2.1c-6.3-3.5-5.2-7.2-5.2-7.2l10.6-48
	c0,0,7.4-7.2,32.7-13.3"/>
<g>
	<g>
		<g>
			<g>
				<path class="st9" d="M104.1,152.9L104.1,152.9c1-2.5,0.8-5.1-0.2-7.2c-1-2.1-3-3.8-5.4-4.4c-4.9-1.2-9.7,0.8-11.3,4.7l0,0
					L104.1,152.9z"/>
			</g>
			<g>
				<path class="st9" d="M73.2,166.9c1.5-1.2,2.9-2.7,4.2-4.2c1.3-1.6,2.6-3.2,3.7-5.1c2.3-3.6,4.4-7.6,6.1-11.7l16.9,6.9
					c-2.1,5.1-4.6,10-7.7,14.8c-1.5,2.4-3.3,4.7-5.2,6.9c-2,2.2-4,4.4-6.4,6.3L73.2,166.9z"/>
				<g>
					<path class="st16" d="M103.3,154.8c-0.8,2.4-2.7,4.4-5.1,5.3c-2.4,0.9-5.1,0.5-7.3-0.7c-2.2-1.3-3.9-3.4-4.7-5.6
						c-0.8-2.2-0.7-4.5,0.4-6.2c-0.6,1.9-0.4,4.1,0.4,6c0.9,2,2.4,3.7,4.4,4.8c2,1.1,4.3,1.4,6.5,0.8
						C100.1,158.6,102.1,157,103.3,154.8z"/>
				</g>
				<g>
					<path class="st16" d="M95.5,169.1c-0.6,1.1-1.6,2.1-2.6,2.9c-1.1,0.7-2.3,1.3-3.6,1.4c-2.6,0.4-5.1-0.6-7-2.4
						c-1.8-1.8-2.9-4.2-3.2-6.5c-0.2-1.1-0.1-2.2,0.1-3.2c0.2-1,0.7-1.9,1.3-2.6c-0.4,0.9-0.7,1.8-0.8,2.8c-0.1,1-0.1,2,0.2,3
						c0.4,2,1.5,4.1,3.2,5.7c1.6,1.5,3.8,2.4,6.2,2.3c1.1-0.1,2.3-0.4,3.4-1C93.6,170.9,94.7,170.1,95.5,169.1z"/>
				</g>
			</g>
			<g>
				<path class="st9" d="M53.3,171.4c3.7,1,7.2,1.1,10.5,0.4c1.6-0.4,3.3-0.9,4.8-1.8c0.8-0.4,1.5-0.9,2.3-1.4
					c0.4-0.2,0.7-0.6,1.1-0.8c0.4-0.3,0.8-0.5,1.1-0.9l11.7,14c-4.7,3.9-10.6,7.2-17.1,8.6c-6.5,1.4-13.2,1-19.1-0.5L53.3,171.4z"/>
				<g>
					<path class="st16" d="M83,182.4c-0.5,0.5-1.1,0.9-1.7,1.2c-0.7,0.3-1.3,0.6-2,0.8c-1.4,0.4-2.9,0.4-4.2,0.1
						c-1.3-0.3-2.5-1-3.4-1.8c-0.9-0.9-1.6-2-2-3.2c-0.4-1.2-0.7-2.5-0.7-3.7c-0.1-1.2,0.1-2.4,0.3-3.5c0.2-1.1,0.6-1.9,1.1-2.8
						c0.2-0.4,0.5-0.7,0.8-1c0.3-0.3,0.6-0.6,1-0.8c-0.3,0.3-0.6,0.6-0.8,1c-0.2,0.3-0.5,0.7-0.6,1.1c-0.3,0.9-0.6,1.7-0.8,2.8
						c-0.3,2.1-0.2,4.3,0.7,6.4c0.8,2.1,2.5,3.9,4.8,4.5c1.2,0.3,2.5,0.5,3.8,0.2c0.7-0.1,1.3-0.3,2-0.5
						C81.8,183.1,82.4,182.8,83,182.4z"/>
				</g>
				<g>
					<path class="st16" d="M65.9,189.9c-2.9,0.8-6.2,0-8.2-1.9c-1-0.9-1.7-2-2.1-3.2c-0.4-1.2-0.5-2.5-0.3-3.8
						c0.2-1.3,0.6-2.5,1.1-3.6c0.5-1.1,1.2-2,1.9-2.9c1.4-1.7,3-2.6,4.5-2.6c-0.7,0.3-1.4,0.6-2.1,1.2c-0.7,0.6-1.3,1.2-1.9,2
						c-0.6,0.8-1.2,1.8-1.6,2.8c-0.4,1-0.7,2.1-0.9,3.2c-0.1,1.1,0,2.3,0.3,3.3c0.3,1.1,0.9,2.1,1.8,2.9c0.9,0.8,1.9,1.6,3.2,2
						C63,189.8,64.4,190.1,65.9,189.9z"/>
				</g>
			</g>
			<g>
				<path class="st9" d="M48.7,189L48.7,189c-0.8-0.2-1.4-0.4-2-0.8c-0.6-0.3-1.2-0.7-1.7-1.1c-1-0.8-1.8-1.8-2.2-3
					c-1-2.2-0.9-4.7,0.1-6.9c1.1-2.3,2.9-4,4.8-5c0.9-0.5,1.9-0.8,2.8-1c0.5-0.1,0.9-0.1,1.4-0.1c0.5,0,0.9,0.1,1.3,0.2l0,0
					L48.7,189z"/>
			</g>
		</g>
	</g>
</g>
<g>
	<defs>
		<path id="SVGID_00000060740926536455767330000013599837495839499696_" d="M30.1,127.7c0,0,0.5-4.6,10.1-7.6
			c6.8-2.2,8.8,1.2,8.8,1.2L76.5,162c0,0,0.1,10.4-12.9,32.9c-6.6,11.4-8.8,14.5-11.5,10.9c-1.5-2-6.4-6.8-12.5-28.6
			C32.2,150.3,30.1,127.7,30.1,127.7z"/>
	</defs>
	<clipPath id="SVGID_00000112594214349065836240000005478628436408001426_">
		<use xlink:href="#SVGID_00000060740926536455767330000013599837495839499696_"  style="overflow:visible;"/>
	</clipPath>
	<polygon style="clip-path:url(#SVGID_00000112594214349065836240000005478628436408001426_);fill:#669632;" points="51.2,213.9 
		35.1,183.1 25.1,124.7 52.8,111.4 87.8,160.3 77.2,207.4 	"/>
	<path style="clip-path:url(#SVGID_00000112594214349065836240000005478628436408001426_);fill:#87BD3C;" d="M85.7,170.4
		c0.1-10.5-40.8-61.7-40.8-61.7l-10.2,5.9c0,0,0.7,26,19.2,67.7c6.6,15,13.7,19.3,13.7,19.3S85.6,180.9,85.7,170.4z"/>
</g>
<g>
	<path class="st1" d="M96.7,37.1L145.1,56l-1.3,56.4L98.3,92.3c0,0-1.9-13.4-2.7-25.1C94.7,52.7,96.7,37.1,96.7,37.1z"/>
	<path class="st37" d="M96.7,37.1L145.1,56l64.7-6.6L155.5,31c0,0-11.6-0.4-22.7,0.2C109.3,32.6,96.7,37.1,96.7,37.1z"/>
	<path class="st2" d="M196.9,103.7l12.9-54.4c0,0-13.5-1.5-31.6,0.6c-17.4,2.1-33.2,5.9-33.2,5.9s-2.3,11.3-2.4,26.3
		c0,15.5,1.1,30.1,1.1,30.1L196.9,103.7z"/>
	<path class="st9" d="M178.4,75.2c-5.8-1.1-12.9,4-13.2,12.2c0,0-1.4,10-4,11.5c-2.6,1.5-13.6,8.4-27,0.9c0,0,0.4,21,15.6,21.6
		c15.2,0.7,33.4-6.5,36.4-30C187.7,83.5,184.2,76.3,178.4,75.2z"/>
	<path class="st0" d="M86.1,79l3.1-0.2l49.4,21.4l-2.8,0.6c0,0-1.3,6.6-1.6,6.4c-0.3-0.1-44.8-21.2-44.8-21.2L86.1,79z"/>
	<path class="st5" d="M86.1,79l49.7,21.7c0,0,6.1,15.4,11.3,20.7c-11.8-4.4-54-22.5-54-22.5S81.5,93.7,86.1,79z"/>
	<path class="st33" d="M180,76.1c-5.8-1.1-12.9,4-13.2,12.2c0,0-1.4,10-4,11.5c-2.4,1.4-14.7,9.3-24.3,0.3c-0.7,0.1-1.9,0.4-2.8,0.6
		c0,0,0.4,21,15.6,21.6c15.2,0.7,33.4-6.5,36.4-30C189.3,84.4,185.8,77.2,180,76.1z"/>
	<g>
		<path class="st0" d="M182.6,88.5c0.2-1.9-0.3-3.7-1.4-4.8l0.1-0.9l-2.4-0.3c0,0,0,0,0,0c-2.4-0.3-4.7,1.9-5,4.9
			c-0.4,3,1.3,5.7,3.7,6l2.4,0.3l0.1-0.9C181.4,91.9,182.3,90.4,182.6,88.5z"/>
		
			<ellipse transform="matrix(0.1242 -0.9923 0.9923 0.1242 70.6314 256.5132)" class="st9" cx="180.6" cy="88.2" rx="5.5" ry="4.4"/>
	</g>
	<line class="st38" x1="132.9" y1="37" x2="123.9" y2="9.7"/>
	<line class="st38" x1="162.3" y1="46.5" x2="178.1" y2="27.2"/>
	<circle class="st0" cx="179.7" cy="26" r="6.2"/>
	<circle class="st0" cx="123.3" cy="8.1" r="6.2"/>
	<g>
		<path class="st9" d="M144.5,66.7c-5.1-1.7-9.9,2.3-10.8,9c-0.9,6.7,2.6,13.5,7.6,15.2c5.1,1.7,9.9-2.3,10.8-9
			C153,75.2,149.6,68.4,144.5,66.7z"/>
		<polygon class="st9" points="145.4,91 142.5,91.8 137.9,67.2 140.7,66.4 		"/>
		<g>
			<g>
				
					<ellipse transform="matrix(0.991 -0.1339 0.1339 0.991 -9.3973 19.4256)" class="st39" cx="139.8" cy="79.6" rx="8.5" ry="11.6"/>
				<path class="st5" d="M138.2,91.7c-5.1-1.7-8.5-8.5-7.6-15.2c0.9-6.7,5.7-10.7,10.8-9s8.5,8.5,7.6,15.2
					C148.1,89.4,143.3,93.4,138.2,91.7z M141.1,69.4c-4.3-1.4-8.4,2-9.1,7.6c-0.7,5.6,2.2,11.4,6.4,12.9c4.3,1.4,8.4-2,9.1-7.6
					C148.3,76.6,145.4,70.8,141.1,69.4z"/>
			</g>
			<ellipse transform="matrix(0.991 -0.1339 0.1339 0.991 -9.3973 19.4256)" class="st9" cx="139.8" cy="79.6" rx="5.1" ry="6.9"/>
		</g>
	</g>
	<g>
		<path class="st9" d="M98.6,49.5c-5.1-1.7-9.9,2.3-10.8,9s2.6,13.5,7.6,15.2c5.1,1.7,9.9-2.3,10.8-9S103.7,51.2,98.6,49.5z"/>
		<polygon class="st9" points="99.5,73.8 96.6,74.6 92,50 94.9,49.2 		"/>
		<g>
			<g>
				
					<ellipse transform="matrix(0.991 -0.1339 0.1339 0.991 -7.5064 13.1314)" class="st39" cx="93.9" cy="62.4" rx="8.5" ry="11.6"/>
				<path class="st5" d="M92.3,74.5c-5.1-1.7-8.5-8.5-7.6-15.2c0.9-6.7,5.7-10.7,10.8-9c5.1,1.7,8.5,8.5,7.6,15.2
					C102.2,72.2,97.4,76.2,92.3,74.5z M95.2,52.2c-4.3-1.4-8.4,2-9.1,7.6c-0.7,5.6,2.2,11.4,6.4,12.9c4.3,1.4,8.4-2,9.1-7.6
					S99.5,53.6,95.2,52.2z"/>
			</g>
			<ellipse transform="matrix(0.991 -0.1339 0.1339 0.991 -7.5064 13.1314)" class="st9" cx="93.9" cy="62.4" rx="5.1" ry="6.9"/>
		</g>
	</g>
	<path class="st40" d="M126.8,5.3c-0.1,4.2,1.3,6.3,4.7,6.7c4.8,0.6,8.3-3.6,8.3-8.2c0-0.7-0.1-1.4-0.4-2c-0.6-1.2-2.2-1.6-3.5-1.3
		s-2.3,1.4-2.9,2.6c-0.9,1.8-1,4-0.5,6c0.7,2.8,2.6,7.9,5.7,8.9c4.9,1.7,8.9-5.1,9.8-8.9c0.3-1.1,0.3-2.5-0.5-3.3
		c-0.5-0.5-1.2-0.7-1.9-0.8c-0.8,0-2,0.3-2.7,1.4c-1.8,3.1-1,5.4,1.4,8.2c1.5,1.8,3.8,3,6.1,3.4c1.7,0.3,3.6,0.2,5-0.8
		c1.6-1.1,2.2-3.2,2.5-5.1c0.2-1.1,0.3-2.3-0.3-3.2c-0.7-1.2-2.4-1.5-3.2-0.3c-0.6,0.9-0.5,2.3-0.4,3.4c0.2,2,0.6,4.8,1.9,6.6
		c2.3,3.2,6.1,4.2,9.2,3.3c3.7-1.1,8.4-8.1,4.8-10.4c-3-1.9-4.1,6-2.4,9.5c1.8,3.5,3.8,3.8,5.7,3.3c1.5-0.5,3.8-2,4.5-3.6
		c1.2-2.6,0.2-5.9-1.4-6.1c-5.4-0.8-0.6,12.7,3.8,12.6"/>
</g>
</svg>
