<?xml version="1.0" encoding="utf-8"?>
<!-- Generator: Adobe Illustrator 26.3.1, SVG Export Plug-In . SVG Version: 6.00 Build 0)  -->
<svg version="1.1" id="Layer_1" xmlns="http://www.w3.org/2000/svg" xmlns:xlink="http://www.w3.org/1999/xlink" x="0px" y="0px"
	 viewBox="0 0 187.2 469.5" style="enable-background:new 0 0 187.2 469.5;" xml:space="preserve">
<style type="text/css">
	.st0{fill:#89680C;}
	.st1{fill:#D8B405;}
	.st2{fill:#B98C02;}
	.st3{fill:#09518C;}
	.st4{clip-path:url(#SVGID_00000151501098289868047390000017706229514137453959_);fill:#B98C02;}
	.st5{clip-path:url(#SVGID_00000151501098289868047390000017706229514137453959_);fill:#D8B405;}
	.st6{clip-path:url(#SVGID_00000151501098289868047390000017706229514137453959_);fill:#89680C;}
	.st7{fill:#0E3B72;}
	.st8{fill:#8A96AB;}
	.st9{clip-path:url(#SVGID_00000017497574370562801860000005670477622465548722_);fill:#0063A3;}
	.st10{fill:#B8C1CA;}
	.st11{clip-path:url(#SVGID_00000031170791120896777950000010610497090605257647_);fill:#0063A3;}
	.st12{clip-path:url(#SVGID_00000031170791120896777950000010610497090605257647_);fill:#09518C;}
	.st13{fill:#E2BE27;}
	.st14{clip-path:url(#SVGID_00000088092184922516786630000005019846919019796613_);fill:#0E3B72;}
	.st15{clip-path:url(#SVGID_00000088092184922516786630000005019846919019796613_);}
	.st16{fill:none;stroke:#B8C1CA;stroke-width:1.0573;stroke-miterlimit:10;}
	.st17{clip-path:url(#SVGID_00000181788682151839320770000014368407364081500050_);fill:#0063A3;}
	.st18{clip-path:url(#SVGID_00000181788682151839320770000014368407364081500050_);fill:#D8B405;}
	.st19{clip-path:url(#SVGID_00000181788682151839320770000014368407364081500050_);fill:#09518C;}
	.st20{clip-path:url(#SVGID_00000181788682151839320770000014368407364081500050_);fill:#B98C02;}
	.st21{clip-path:url(#SVGID_00000063609982011360806220000015275730540365288863_);fill:#0063A3;}
	.st22{clip-path:url(#SVGID_00000151541113266833774040000003795238700355022244_);fill:#D8B405;}
	.st23{clip-path:url(#SVGID_00000151541113266833774040000003795238700355022244_);fill:#B98C02;}
	.st24{clip-path:url(#SVGID_00000151541113266833774040000003795238700355022244_);fill:#8A96AB;}
	.st25{fill:#D43D40;}
	.st26{fill:#B52D35;}
	.st27{clip-path:url(#SVGID_00000172440617619840138090000007213232983254675126_);fill:#0063A3;}
	.st28{clip-path:url(#SVGID_00000172440617619840138090000007213232983254675126_);fill:#0973AD;}
	.st29{fill:#0063A3;}
	.st30{fill:none;stroke:#D8B405;stroke-miterlimit:10;}
	.st31{clip-path:url(#SVGID_00000100354830327256149200000002408342906193577610_);fill:#F4F4F4;}
	.st32{clip-path:url(#SVGID_00000100354830327256149200000002408342906193577610_);fill:#0E3B72;}
	.st33{clip-path:url(#SVGID_00000100354830327256149200000002408342906193577610_);fill:#0973AD;}
	.st34{clip-path:url(#SVGID_00000069371279535198323210000014449795227610996876_);fill:#F4F4F4;}
	.st35{clip-path:url(#SVGID_00000069371279535198323210000014449795227610996876_);fill:#0E3B72;}
	.st36{clip-path:url(#SVGID_00000069371279535198323210000014449795227610996876_);fill:#0973AD;}
</style>
<g>
	<g>
		<g>
			<g>
				<polygon class="st0" points="20.2,261.8 15.9,260.5 16.5,268.4 20.8,271.2 				"/>
				<polygon class="st1" points="21.7,260.7 20.2,261.8 20.8,271.2 15.3,277.4 16.7,278.3 22.3,271.5 				"/>
				<polygon class="st2" points="15.3,277.4 12.7,272.9 16.5,268.4 20.8,271.2 				"/>
			</g>
			<circle class="st3" cx="14" cy="258.1" r="8.1"/>
			<g>
				<polygon class="st0" points="5.1,273 6.1,270.8 3.8,262.8 1.8,265 				"/>
				<polygon class="st1" points="6,256.6 0,264.9 2.9,273.7 5.1,273 2.6,265.2 7.9,258.7 				"/>
				<polygon class="st0" points="2.6,265.2 4.3,263.9 7.5,259.9 7.9,258.7 				"/>
			</g>
			<g>
				<polygon class="st1" points="9.5,260.3 17.1,262.2 16,271 5.9,268 				"/>
				<polyline class="st2" points="15.3,270.8 16,271 13,277.4 4.9,275.2 5.9,268 15.3,270.8 				"/>
			</g>
		</g>
		<g>
			<defs>
				<path id="SVGID_1_" d="M42.8,221.2c0.5-1.3,0.7-2.6,0.6-4c-0.2-4.1-1.4-13.3-7.5-22.5c-4.7-7-10.9-9.4-15.8-9.9
					c-2.1-0.3-4.2,0.2-5.9,1.2c-2.1,1.2-3.7,3.2-4.4,5.6c-3,10.7-8.1,33.5-5,57.9c0.3,2.4,1.4,4.6,3.2,6.1c1.4,1.2,3.3,2.4,5.7,2.9
					c1.3,0.3,2.5,0.5,3.5,0.5c3.4,0.2,6.5-1.5,8.4-4.3C29.2,249.4,36.3,237.7,42.8,221.2z"/>
			</defs>
			<clipPath id="SVGID_00000124146405861066471000000011120072461732735907_">
				<use xlink:href="#SVGID_1_"  style="overflow:visible;"/>
			</clipPath>
			<polygon style="clip-path:url(#SVGID_00000124146405861066471000000011120072461732735907_);fill:#B98C02;" points="31.5,182.7 
				46.1,197 47.8,215.2 38.8,240.8 24.2,264 0.3,259.4 0.6,216.9 10.6,178.7 			"/>
			<path style="clip-path:url(#SVGID_00000124146405861066471000000011120072461732735907_);fill:#D8B405;" d="M28,183.4
				c-10.3-0.7-14.5,2.5-15.5,7c-0.7,2.8,0,9,2.8,13.4c2.9,4.6,7.6,9,10,10.9c-5.9,18.9-9.7,46.9-9.2,46.8L2,255.7
				c0,0-3.6-60.1,1.7-68.7C8.9,178.4,28,183.4,28,183.4z"/>
			<path style="clip-path:url(#SVGID_00000124146405861066471000000011120072461732735907_);fill:#89680C;" d="M16.7,187.7
				c-3.1,2.7-2.6,12.1,3.6,19.3s16.1,11.9,19.2,9.2c3.1-2.7,0.6-12.7-5-20.6C29.2,187.9,19.9,185,16.7,187.7z"/>
		</g>
	</g>
	<g>
		<g>
			<g>
				<g>
					<path class="st7" d="M43.2,152.2c1.2-2.2,5.8-2,10.2,0.5c4.3,2.5,7,6.2,5.8,8.3L43.2,152.2z"/>
				</g>
				<g>
					<g>
						<path class="st7" d="M34.6,168.8c2.7-5.6,5.5-11.1,8.5-16.6l16,8.8c-2.8,5.2-5.5,10.4-8.1,15.7L34.6,168.8z"/>
					</g>
					<g>
						<path class="st8" d="M58.2,162.8c-0.4,1.2-1.2,2.2-2.1,3.1c-0.9,0.9-2.1,1.5-3.3,1.8c-2.4,0.7-5,0.5-7.1-0.6
							c-2.1-1.1-3.9-3-4.6-5.5c-0.4-1.2-0.5-2.6-0.3-3.9c0.2-1.3,0.7-2.6,1.5-3.7c-1,2.4-1,5-0.1,7c0.9,2,2.4,3.7,4.3,4.6
							c1.9,1,4.1,1.3,6.2,0.9C54.7,166.2,56.7,164.9,58.2,162.8z"/>
					</g>
				</g>
				<g>
					<g>
						<path class="st7" d="M27,185.9c2.4-5.9,4.9-11.6,7.6-17.2l16.4,7.9c-2.6,5.3-5,10.7-7.1,16L27,185.9z"/>
					</g>
					<g>
						<path class="st8" d="M50.2,178.6c-0.4,1.2-1.1,2.3-2,3.2c-0.9,0.9-2,1.6-3.2,2c-2.4,0.9-4.9,0.7-7.1-0.2c-2.2-1-4-2.8-4.9-5.2
							c-0.4-1.2-0.6-2.5-0.5-3.9c0.1-1.3,0.6-2.6,1.3-3.7c-0.9,2.5-0.7,5,0.3,7c1,2,2.6,3.5,4.5,4.4c1.9,0.9,4.1,1,6.3,0.5
							C46.9,182.1,48.8,180.7,50.2,178.6z"/>
					</g>
				</g>
				<g>
					<g>
						<path class="st7" d="M20.7,204.1c1.7-6.3,3.9-12.3,6.3-18.2l16.9,6.8c-2.2,5.4-4.1,10.8-5.6,16.1L20.7,204.1z"/>
					</g>
					<g>
						<path class="st8" d="M43.1,194.7c-0.3,1.2-0.9,2.3-1.7,3.3c-0.8,0.9-1.9,1.7-3,2.2c-2.3,1-4.8,1.1-7.1,0.4
							c-2.3-0.8-4.3-2.4-5.4-4.8c-0.6-1.2-0.9-2.5-0.8-3.9c0-1.4,0.4-2.7,1-3.9c-0.7,2.6-0.4,5.1,0.8,7.1c1.1,1.9,2.9,3.3,4.9,4
							c2,0.7,4.2,0.7,6.3,0C40.2,198.4,42,196.8,43.1,194.7z"/>
					</g>
				</g>
				<g>
					<path class="st7" d="M20.7,204.1c-0.7,2.6,2.8,5.6,7.7,6.7c4.9,1.1,9.4,0.2,9.9-1.9L20.7,204.1z"/>
				</g>
			</g>
		</g>
	</g>
	<g>
		<circle class="st3" cx="64.8" cy="419.2" r="10.3"/>
		<g>
			<g>
				<defs>
					<path id="SVGID_00000050623114916156263070000011793338349472470694_" d="M74.5,272.6c0.1-0.5,0.1-1,0.2-1.5l8.3-8.2l-13.1-2.5
						l0,0c-1.9-0.4-4.1,0.1-6.6,1.8c-6.3,4.4-11.4,14.8-11.4,23.3l2,69c-0.6,1.8,14.1,5.1,14.1,5.1L74.5,272.6z"/>
				</defs>
				<use xlink:href="#SVGID_00000050623114916156263070000011793338349472470694_"  style="overflow:visible;fill:#DDDDDD;"/>
				<clipPath id="SVGID_00000153670182660852172760000000943872559931665582_">
					<use xlink:href="#SVGID_00000050623114916156263070000011793338349472470694_"  style="overflow:visible;"/>
				</clipPath>
				<path style="clip-path:url(#SVGID_00000153670182660852172760000000943872559931665582_);fill:#0063A3;" d="M68.5,255.3
					l-16.1,12.8c0,0-6.6,23-6.4,23.7c0.2,0.7,1.1,100.9,1.1,100.9l24.8,6.2L82,278l5.5-15.7L68.5,255.3z"/>
			</g>
			<g>
				
					<ellipse transform="matrix(0.4052 -0.9142 0.9142 0.4052 -210.3398 236.5744)" class="st3" cx="76.6" cy="279.9" rx="18.4" ry="9.5"/>
				<polygon class="st3" points="76.1,357 66.3,359.3 65.2,287.9 84.5,274.4 				"/>
				
					<ellipse transform="matrix(0.4052 -0.9142 0.9142 0.4052 -285.5232 277.8441)" class="st10" cx="70.8" cy="358.3" rx="9.8" ry="5.1"/>
			</g>
		</g>
		<g>
			<path class="st1" d="M54,416.1l-13.4-72c0,0-1.7-11.8,7.3-11.4c9,0.3,37.3,15.1,36.7,38c-0.7,22.9-9.3,53.6-9.3,53.6
				s-8.8-5.7-14.5-7.4C55.1,415.2,54,416.1,54,416.1z"/>
			<path class="st2" d="M84.5,370.6c0.3-11.6-6.8-21.1-15-27.7c0.7,2,0.1,14.9,0.3,17.6c0.3,6.8-1.7,45.1-4,58.4
				c4.7,2.3,9.5,5.3,9.5,5.3S83.9,393.5,84.5,370.6z"/>
		</g>
		<g>
			<path class="st1" d="M54.2,420.5c0,0-11.4,13.3-16.1,17.8c-3.3,3.1-16.4,7.7-17.8,11.1c-0.6,1.6,7.1,7.1,23.4,6.6
				c23-0.7,18.4-7.5,29.4-8.9c11.9-1.5,5.1-21.6,5.1-21.6s-0.5-2.5-1.7-3.8c-0.7-0.8-1.7-1.2-3.1-0.3c0,0-1.7,3.1-10,2.3
				C55.2,422.8,54.2,420.5,54.2,420.5z"/>
			<path class="st2" d="M69.3,428c-1.3,2.5-2.5,13.1-6,16.9c-2.9,3.1-13.8,11.9-30.5,7.5c-5.1-1.4-10-3.6-9.5-5.8
				c-1.5,1-2.7,1.9-3,2.8c-0.6,1.6,7.2,7.1,23.4,6.6c23-0.7,18.4-7.5,29.4-8.9c11.9-1.5,5.1-21.6,5.1-21.6s-0.5-2.5-1.7-3.8
				C74.2,424.7,70.6,425.5,69.3,428z"/>
		</g>
	</g>
	<g>
		<g>
			<defs>
				<path id="SVGID_00000102509677881914144430000005348366644566244027_" d="M50.9,262.3c0,0,12.3,26.1,23.1,29.9
					c10.8,3.7,33.2,7.8,33.2,7.8s8.5-1.6,11.9-6.3c4.5-6.2,8.6-14.7,14.4-31.5C101.2,266.5,50.9,262.3,50.9,262.3z"/>
			</defs>
			<clipPath id="SVGID_00000099634837105028324690000013897775867328324772_">
				<use xlink:href="#SVGID_00000102509677881914144430000005348366644566244027_"  style="overflow:visible;"/>
			</clipPath>
			<path style="clip-path:url(#SVGID_00000099634837105028324690000013897775867328324772_);fill:#0063A3;" d="M45.8,257.1
				c1,0.2,92,2.8,92,2.8L122,304l-52.8-6.8L45.8,257.1z"/>
			<path style="clip-path:url(#SVGID_00000099634837105028324690000013897775867328324772_);fill:#09518C;" d="M114.7,300.7
				c-0.8,0-9.4,0.8-12.2-4.3c-2.8-5.1-2.8-26.7-2.8-26.7l36-9.2l-13.5,40.1L114.7,300.7z"/>
		</g>
		<path class="st1" d="M50.5,247.2v13.4c0,7.1,18.7,12.9,41.7,12.9c23,0,41.7-5.8,41.7-12.9v-13.4H50.5z"/>
		<path class="st2" d="M100,273.3c19.3-1.1,33.8-6.4,33.8-12.7v-13.4H100V273.3z"/>
		<ellipse class="st13" cx="92.2" cy="247.2" rx="41.7" ry="12.9"/>
	</g>
	<path class="st7" d="M76.6,130.5c0,0,20.4,0.7,48,8.8L102,154l-27.6,3.3l-8.6-10.2l0.4-10.2L76.6,130.5z"/>
	<g>
		<g>
			<g>
				<g>
					<path class="st7" d="M76.9,110.7c-0.3-2.6,4.6-5.5,11.1-6.3c6.5-0.9,12,0.6,12.4,3.2L76.9,110.7z"/>
				</g>
				<g>
					<g>
						
							<rect x="78.1" y="109.1" transform="matrix(0.9914 -0.1307 0.1307 0.9914 -14.7754 12.781)" class="st7" width="23.7" height="19.7"/>
					</g>
					<g>
						<path class="st8" d="M100.8,110c0.4,1.3,0.4,2.8,0,4.2c-0.4,1.4-1.2,2.7-2.2,3.8c-2.1,2.2-5,3.6-8.1,4.1
							c-3.1,0.4-6.3-0.2-8.9-1.8c-1.3-0.8-2.4-1.9-3.1-3.1c-0.7-1.3-1.1-2.7-1.1-4c0.7,2.7,2.6,4.8,5,6c2.4,1.2,5.2,1.6,7.9,1.3
							c2.7-0.3,5.3-1.5,7.3-3.3C99.5,115.3,100.8,112.7,100.8,110z"/>
					</g>
				</g>
				<g>
					<g>
						
							<rect x="80.7" y="128.7" transform="matrix(0.9914 -0.1307 0.1307 0.9914 -17.3099 13.2857)" class="st7" width="23.7" height="19.7"/>
					</g>
					<g>
						<path class="st8" d="M103.3,129.5c0.4,1.3,0.4,2.8,0,4.2c-0.4,1.4-1.2,2.7-2.2,3.8c-2.1,2.2-5,3.6-8.1,4.1
							c-3.1,0.4-6.3-0.2-8.9-1.8c-1.3-0.8-2.4-1.9-3.1-3.1c-0.7-1.3-1.1-2.7-1.1-4c0.7,2.7,2.6,4.8,5,6c2.4,1.2,5.2,1.6,7.9,1.3
							c2.7-0.3,5.3-1.5,7.3-3.3C102.1,134.9,103.3,132.3,103.3,129.5z"/>
					</g>
				</g>
				<g>
					<path class="st7" d="M82.1,149.9c0.3,2.6,5.9,4.1,12.4,3.2c6.5-0.9,11.5-3.7,11.1-6.3L82.1,149.9z"/>
				</g>
			</g>
		</g>
	</g>
	<g>
		<defs>
			<path id="SVGID_00000072991682942610203160000016888020279458609571_" d="M121.6,248.2c0,0-2.4,6.2-30,6.2
				c-26.9,0-29.3-6.2-29.3-6.2v-44.4h59.2V248.2z"/>
		</defs>
		<clipPath id="SVGID_00000122684000475353773030000008798155772873407891_">
			<use xlink:href="#SVGID_00000072991682942610203160000016888020279458609571_"  style="overflow:visible;"/>
		</clipPath>
		
			<rect x="59.6" y="202.6" style="clip-path:url(#SVGID_00000122684000475353773030000008798155772873407891_);fill:#0E3B72;" width="64.3" height="54.5"/>
		<g style="clip-path:url(#SVGID_00000122684000475353773030000008798155772873407891_);">
			<path class="st16" d="M122.1,240.8c0,0-2.5,6.3-30.5,6.3c-27.4,0-29.8-6.3-29.8-6.3"/>
			<path class="st16" d="M122.1,230.9c0,0-2.5,6.3-30.5,6.3c-27.4,0-29.8-6.3-29.8-6.3"/>
			<path class="st16" d="M122.1,220.9c0,0-2.5,6.3-30.5,6.3c-27.4,0-29.8-6.3-29.8-6.3"/>
			<path class="st16" d="M122.1,210.9c0,0-2.5,6.3-30.5,6.3c-27.4,0-29.8-6.3-29.8-6.3"/>
			<path class="st16" d="M122.1,200.9c0,0-2.5,6.3-30.5,6.3c-27.4,0-29.8-6.3-29.8-6.3"/>
		</g>
	</g>
	<g>
		<defs>
			<path id="SVGID_00000125564130860387294060000002361855250716167098_" d="M40.7,138.5c0,0,18.2-7.7,33.2-9.9l2.6,2
				c0,0-9.6,3.9-7.7,13.1c1.2,6,7.3,9.7,7.3,9.7s13.8,2,30.1-9.5c14.4-10.2,22.1-5.8,22.1-5.8l23.4,11.3c0,0,1.8,2.7,1.3,8.6
				c-0.5,7.2-6.4,14.6-6.4,14.6s-12.2,47.6-21.5,52.9s-26.1,10.4-35.8-2.2s-28.3-15-29.9-10.2c-0.9,2.8-2.4,10-5.3,7.7
				c-2.9-2.2-11.3-26.1-12.8-31.9c-1.5-5.8,2.4-24.3,2.4-25.4C43.8,162.4,36.5,150,40.7,138.5z"/>
		</defs>
		<clipPath id="SVGID_00000034059775818128920820000012770999498102282651_">
			<use xlink:href="#SVGID_00000125564130860387294060000002361855250716167098_"  style="overflow:visible;"/>
		</clipPath>
		<polygon style="clip-path:url(#SVGID_00000034059775818128920820000012770999498102282651_);fill:#0063A3;" points="69.7,126.8 
			34.5,133.2 35,188.2 51.8,227.8 104.2,233.2 131,228.9 160.8,148 113.1,131.2 		"/>
		<polygon style="clip-path:url(#SVGID_00000034059775818128920820000012770999498102282651_);fill:#D8B405;" points="41.2,164.4 
			81.7,148.2 116.4,179.8 162.6,159.3 157.5,146.7 95.2,123.9 33.4,132.5 		"/>
		<path style="clip-path:url(#SVGID_00000034059775818128920820000012770999498102282651_);fill:#09518C;" d="M156.6,161.7
			c0,0-0.2-13-7.6-12.1c-12.2,1.5-28.9,13.6-32.2,19.4c-3.3,5.8-12.2,20.8-13.5,27c-1.3,5.8-8.2,34.9,8.8,34.5s21.5-10.8,21.5-10.8
			L156.6,161.7z"/>
		<path style="clip-path:url(#SVGID_00000034059775818128920820000012770999498102282651_);fill:#B98C02;" d="M74,128.6
			c0,0-7,3.7-7.8,8.4s-1,13,10,16.4c10.9,3.4,6.5-22.5,6.5-22.5L74,128.6z"/>
	</g>
	<path class="st7" d="M125.5,179.4c-3.6,8.7-2.4,17.5,2.9,19.7c5.2,2.2,15.1-2,18.7-10.7s-0.3-18.5-5.5-20.7
		C136.4,165.5,129.2,170.7,125.5,179.4z"/>
	<path class="st7" d="M121.1,176.1c0,0,14.6-13.3,22.7-12.9c8.1,0.3,4.8,6.3,4.8,6.3l-1.9,3.1c0,0-1.9-3.9-6.9-3.9
		C134.9,168.7,121.1,176.1,121.1,176.1z"/>
	<g>
		<g>
			<g>
				<g>
					<path class="st7" d="M128.4,181.4c-1.1-2.1,1.5-5.7,5.8-8.3c4.4-2.5,8.9-2.8,10.2-0.5L128.4,181.4z"/>
				</g>
				<g>
					<g>
						<path class="st7" d="M136.5,197.1c-2.6-5.3-5.3-10.6-8.1-15.7l16-8.8c3,5.5,5.8,11,8.5,16.6L136.5,197.1z"/>
					</g>
					<g>
						<path class="st8" d="M145.4,174.5c0.7,1.1,1.3,2.3,1.5,3.7c0.2,1.3,0.1,2.7-0.3,3.9c-0.8,2.5-2.5,4.4-4.6,5.5
							c-2.2,1.1-4.7,1.3-7.1,0.6c-1.2-0.4-2.3-1-3.3-1.8c-0.9-0.9-1.7-1.9-2.1-3.1c1.4,2,3.5,3.4,5.6,3.8c2.1,0.4,4.4,0.1,6.2-0.9
							c1.9-0.9,3.4-2.6,4.3-4.6C146.4,179.5,146.4,176.9,145.4,174.5z"/>
					</g>
				</g>
				<g>
					<g>
						<path class="st7" d="M143.6,213.1c-2.2-5.4-4.6-10.7-7.1-16l16.4-7.9c2.7,5.6,5.3,11.3,7.6,17.2L143.6,213.1z"/>
					</g>
					<g>
						<path class="st8" d="M153.8,191.1c0.7,1.1,1.1,2.4,1.3,3.7c0.1,1.3-0.1,2.7-0.5,3.9c-0.9,2.4-2.8,4.2-4.9,5.2
							c-2.2,0.9-4.8,1.1-7.1,0.2c-1.2-0.4-2.3-1.1-3.2-2c-0.9-0.9-1.6-2-2-3.2c1.3,2.1,3.3,3.5,5.4,4.1c2.1,0.5,4.4,0.3,6.3-0.5
							c1.9-0.8,3.6-2.4,4.5-4.4C154.6,196.2,154.7,193.6,153.8,191.1z"/>
					</g>
				</g>
				<g>
					<g>
						<path class="st7" d="M149.2,229.3c-1.5-5.3-3.4-10.8-5.6-16.1l16.9-6.8c2.4,5.9,4.5,11.8,6.3,18.2L149.2,229.3z"/>
					</g>
					<g>
						<path class="st8" d="M161.4,208.4c0.6,1.2,1,2.5,1,3.9c0,1.3-0.3,2.7-0.8,3.9c-1.1,2.4-3.1,4-5.4,4.8
							c-2.3,0.7-4.9,0.6-7.1-0.4c-1.1-0.5-2.1-1.3-3-2.2c-0.8-0.9-1.4-2.1-1.7-3.3c1.1,2.2,3,3.7,5,4.4c2,0.7,4.3,0.7,6.3,0
							c2-0.7,3.8-2,4.9-4C161.8,213.5,162,211,161.4,208.4z"/>
					</g>
				</g>
				<g>
					<path class="st7" d="M149.2,229.3c0.5,2.1,5,3,9.9,1.9c4.9-1.1,8.4-4.1,7.7-6.7L149.2,229.3z"/>
				</g>
			</g>
		</g>
	</g>
	<g>
		<circle class="st3" cx="121.5" cy="432.7" r="10.3"/>
		<g>
			<g>
				<defs>
					<path id="SVGID_00000109018987384263481960000016568899669287049095_" d="M131.1,286.1c0.1-0.5,0.1-1,0.2-1.5l8.3-8.2
						l-13.1-2.5l0,0c-1.9-0.4-4.1,0.1-6.6,1.8c-6.3,4.4-11.4,14.8-11.4,23.3l2,69c-0.6,1.8,14.1,5.1,14.1,5.1L131.1,286.1z"/>
				</defs>
				<clipPath id="SVGID_00000097464542546131912980000014275045985134957220_">
					<use xlink:href="#SVGID_00000109018987384263481960000016568899669287049095_"  style="overflow:visible;"/>
				</clipPath>
				<path style="clip-path:url(#SVGID_00000097464542546131912980000014275045985134957220_);fill:#0063A3;" d="M125.1,268.8
					L109,281.6c0,0-6.6,23-6.4,23.7c0.2,0.7,1.1,100.9,1.1,100.9l24.8,6.2l10.2-120.8l5.5-15.7L125.1,268.8z"/>
			</g>
			<g>
				
					<ellipse transform="matrix(0.4052 -0.9142 0.9142 0.4052 -188.9935 296.37)" class="st3" cx="133.3" cy="293.4" rx="18.4" ry="9.5"/>
				<polygon class="st3" points="132.7,370.5 122.9,372.8 121.8,301.4 141.2,287.9 				"/>
				
					<ellipse transform="matrix(0.4052 -0.9142 0.9142 0.4052 -264.177 337.6397)" class="st10" cx="127.4" cy="371.8" rx="9.8" ry="5.1"/>
			</g>
		</g>
		<g>
			<path class="st1" d="M110.6,429.6l-13.4-72c0,0-1.7-11.8,7.3-11.4c9,0.3,37.3,15.1,36.7,38c-0.7,22.9-9.3,53.6-9.3,53.6
				s-8.8-5.7-14.5-7.4C111.7,428.7,110.6,429.6,110.6,429.6z"/>
			<path class="st2" d="M141.2,384.1c0.3-11.6-6.8-21.1-15-27.7c0.7,2,0.1,14.9,0.3,17.6c0.3,6.8-1.7,45.1-4,58.4
				c4.7,2.3,9.5,5.3,9.5,5.3S140.5,407,141.2,384.1z"/>
		</g>
		<g>
			<path class="st1" d="M110.8,434c0,0-11.4,13.3-16.1,17.8c-3.3,3.1-16.4,7.7-17.8,11.1c-0.6,1.6,7.1,7.1,23.4,6.6
				c23-0.7,18.4-7.5,29.4-8.9c11.9-1.5,5.1-21.6,5.1-21.6s-0.5-2.5-1.7-3.8c-0.7-0.8-1.7-1.2-3.1-0.3c0,0-1.7,3.1-10,2.3
				C111.8,436.3,110.8,434,110.8,434z"/>
			<path class="st2" d="M125.9,441.5c-1.3,2.5-2.5,13.1-6,16.9c-2.9,3.1-13.8,11.9-30.5,7.5c-5.1-1.4-10-3.6-9.5-5.8
				c-1.5,1-2.7,1.9-3,2.8c-0.6,1.6,7.2,7.1,23.4,6.6c23-0.7,18.4-7.5,29.4-8.9c11.9-1.5,5.1-21.6,5.1-21.6s-0.5-2.5-1.7-3.8
				C130.8,438.2,127.2,439,125.9,441.5z"/>
		</g>
	</g>
	<g>
		<g>
			<defs>
				<path id="SVGID_00000100341896619913833190000010557129774867996806_" d="M140.5,243.7c-0.5-1.3-0.7-2.6-0.6-4
					c0.2-4.1,1.4-13.3,7.5-22.5c4.7-7,10.9-9.4,15.8-9.9c2.1-0.3,4.2,0.2,5.9,1.2c2.1,1.2,3.7,3.2,4.4,5.6c3,10.7,8.1,33.5,5,57.9
					c-0.3,2.4-1.4,4.6-3.2,6.1c-1.4,1.2-3.3,2.4-5.7,2.9c-1.3,0.3-2.5,0.5-3.5,0.5c-3.4,0.2-6.5-1.5-8.4-4.3
					C154.1,272,147,260.3,140.5,243.7z"/>
			</defs>
			<clipPath id="SVGID_00000000925227905608644830000001469258567387357318_">
				<use xlink:href="#SVGID_00000100341896619913833190000010557129774867996806_"  style="overflow:visible;"/>
			</clipPath>
			<polygon style="clip-path:url(#SVGID_00000000925227905608644830000001469258567387357318_);fill:#D8B405;" points="151.8,205.3 
				137.2,219.5 135.5,237.8 144.5,263.3 159.1,286.6 183,281.9 182.6,239.5 172.7,201.3 			"/>
			<path style="clip-path:url(#SVGID_00000000925227905608644830000001469258567387357318_);fill:#B98C02;" d="M155.3,205.9
				c0,0,7.2,15.2,10.1,28c3,13.5,6.5,45.1,6,45l10-0.7c0,0,3.6-60.1-1.7-68.7C174.3,201,155.3,205.9,155.3,205.9z"/>
			
				<ellipse transform="matrix(0.9638 -0.2666 0.2666 0.9638 -68.1421 55.3317)" style="clip-path:url(#SVGID_00000000925227905608644830000001469258567387357318_);fill:#8A96AB;" cx="169.7" cy="278.6" rx="8" ry="3.5"/>
		</g>
		<g>
			<g>
				<polygon class="st0" points="163.4,279.8 173.7,275.8 176.4,284.6 167.6,287.9 				"/>
				<polygon class="st2" points="169.1,293.9 167.6,287.9 176.4,284.6 179.1,290.2 				"/>
				<polygon class="st0" points="169.1,293.9 179.1,290.2 179,291.3 169.8,294.7 				"/>
			</g>
			<g>
				<path class="st3" d="M177.4,276.2c-0.7-1.7-4.5-2.2-8.6-1c-4.2,1.2-7.2,3.5-6.8,5.4c0.1,0.3,0.3,0.6,0.5,0.8
					c1.3,2.1,3.5,3.5,6.1,3.8c4.5,0.5,8.5-2.8,8.9-7.2c0-0.2,0-0.4,0-0.6C177.4,277,177.4,276.6,177.4,276.2z"/>
			</g>
			<g>
				<polygon class="st2" points="164.4,298.1 165.1,295.6 161.2,287.6 159.5,290.3 				"/>
				<polygon class="st1" points="162.4,280.7 157.5,290.5 162.3,299.2 164.4,298.1 160.3,290.4 164.7,282.6 				"/>
				<polygon class="st0" points="160.3,290.4 161.9,288.7 164.6,283.9 164.7,282.6 				"/>
			</g>
			<g>
				<polygon class="st1" points="177.4,276.2 172.5,279.1 180.3,284.8 185.4,280.7 				"/>
				<polygon class="st2" points="187.2,289.2 181.7,293.7 180.3,284.8 185.4,280.7 				"/>
				<polygon class="st0" points="172.5,279.1 172.5,280.9 178.9,285.6 180.1,293.7 181.7,293.7 180.3,284.8 				"/>
			</g>
		</g>
	</g>
	<g>
		<path class="st8" d="M50.2,134.2c-0.4,0.1-0.7,0.2-1.1,0.4s-0.7,0.3-1.1,0.5l-5,1.9l0.8,2.2l0,0c0.5,1.2,3.6,1.2,6.9-0.1
			c3.3-1.3,5.7-3.3,5.2-4.6l0,0l-0.8-2.2L50.2,134.2z"/>
		
			<ellipse transform="matrix(0.9341 -0.3571 0.3571 0.9341 -44.8502 26.4328)" class="st25" cx="49.1" cy="134.7" rx="6.5" ry="2.4"/>
	</g>
	<g>
		<path class="st8" d="M132.9,143c-0.3-0.2-0.7-0.4-1-0.6c-0.4-0.2-0.7-0.3-1.1-0.5l-4.7-2.4l-1.1,2.1l0,0c-0.6,1.2,1.5,3.4,4.7,5.1
			c3.2,1.6,6.3,2,6.9,0.8l0,0l1.1-2.1L132.9,143z"/>
		
			<ellipse transform="matrix(0.4506 -0.8927 0.8927 0.4506 -54.7848 195.9924)" class="st25" cx="131.8" cy="142.5" rx="2.4" ry="6.5"/>
	</g>
	<g>
		<polygon class="st26" points="101.1,177.1 100.1,177.1 84.9,171.8 84.9,167.6 85.9,167.6 102.2,172.9 		"/>
		<polygon class="st26" points="87.2,182.8 86.1,182.8 86.2,176.5 87.3,176.5 		"/>
		<path class="st26" d="M96.4,179.4c-0.2-0.1-0.4-0.1-0.7-0.1l-1.1,0l0,0.3c-0.7,0.4-1.3,1.1-1.5,2.1c-0.4,1.5,0.3,3.1,1.4,3.7
			l0,0.3l1.1,0c1.2,0,2.3-0.9,2.6-2.3C98.6,181.6,97.8,179.8,96.4,179.4z"/>
		<g>
			<path class="st26" d="M87.9,176.6c-1.4-0.5-2.9,0.5-3.3,2.2c-0.4,1.7,0.4,3.4,1.8,3.9c1.4,0.5,2.9-0.5,3.3-2.2
				C90.1,178.8,89.3,177,87.9,176.6z"/>
			<path class="st26" d="M85.7,185.5c-0.2-0.1-0.4-0.1-0.6-0.1l-1.1,0l0,0.3c-0.7,0.4-1.3,1.1-1.6,2.1c-0.4,1.5,0.3,3.1,1.4,3.7
				l0,0.3l1.1,0c1.2,0,2.3-0.9,2.6-2.3C87.9,187.7,87.1,185.9,85.7,185.5z"/>
			<path class="st26" d="M94.3,188.3c-0.2-0.1-0.4-0.1-0.6-0.1l-1.1,0l0,0.3c-0.7,0.4-1.3,1.1-1.6,2.1c-0.4,1.5,0.3,3.1,1.4,3.7
				l0,0.3l1.1,0c1.2,0,2.2-0.9,2.6-2.3C96.5,190.5,95.7,188.7,94.3,188.3z"/>
		</g>
		<g>
			
				<ellipse transform="matrix(5.023821e-02 -0.9987 0.9987 5.023821e-02 -97.5834 256.6523)" class="st25" cx="86.2" cy="179.6" rx="3.2" ry="2.7"/>
			
				<ellipse transform="matrix(5.023821e-02 -0.9987 0.9987 5.023821e-02 -92.2698 267.8191)" class="st25" cx="94.7" cy="182.4" rx="3.2" ry="2.7"/>
			
				<ellipse transform="matrix(5.023821e-02 -0.9987 0.9987 5.023821e-02 -108.5414 262.9377)" class="st25" cx="84" cy="188.5" rx="3.2" ry="2.7"/>
			
				<ellipse transform="matrix(5.023821e-02 -0.9987 0.9987 5.023821e-02 -103.2277 274.1045)" class="st25" cx="92.5" cy="191.3" rx="3.2" ry="2.7"/>
		</g>
		<polygon class="st25" points="100.1,177.1 83.9,171.8 84.9,167.6 101.2,172.9 		"/>
	</g>
	<g>
		<g>
			<defs>
				<path id="SVGID_00000130641850183637884930000011836502521664406429_" d="M121.4,21.1L57.2,4.5c-0.7-0.2-1.4-0.2-2.1-0.1
					c-4.5,0.7-11.4,7.5-12.6,8.6c-1.2,1.1-9.8,10.9-11.6,18.2c-1.7,7.4,1.7,25.5,4.1,34.9c2.5,9.5-0.1,21.6-0.7,26.6
					c-0.7,5.2-1.9,18.1,5.7,19.4l57.9,15.4L121.4,21.1z"/>
			</defs>
			<clipPath id="SVGID_00000039097658120488425300000001888677186161086868_">
				<use xlink:href="#SVGID_00000130641850183637884930000011836502521664406429_"  style="overflow:visible;"/>
			</clipPath>
			<path style="clip-path:url(#SVGID_00000039097658120488425300000001888677186161086868_);fill:#0063A3;" d="M56.9,1.4L40.6,7.9
				L25.2,32.7l6.3,44.5l0.8,32.8c0,0,9.8,12.8,10.3,12.8c0.5,0,59.4,8.3,59.4,8.3l24.9-114.6L56.9,1.4z"/>
			<path style="clip-path:url(#SVGID_00000039097658120488425300000001888677186161086868_);fill:#0973AD;" d="M29,27.4
				c0,0,16.1,7.3,32.7,11.1s41.8,7,41.8,7l25.7-23.9L55.7,1.2c0,0-11.1,4-16.4,9.1C31.8,17.5,29,27.4,29,27.4z"/>
		</g>
		<path class="st3" d="M119.8,21c-4.5,0.5-11.8,6.8-13,7.8S96.3,39.1,94.1,46.3c-2.2,7.3,0.1,25.5,2,35c1.9,9.6-1.4,21.5-2.3,26.5
			c-1.3,6.8-4.4,27.2,15.3,17.3c15.6-7.9,13.5-27.3,13.9-35.5C123.1,87.1,135.8,19.4,119.8,21z"/>
		<g>
			<path class="st2" d="M113.1,80.1l0.2-0.6l-2.5-0.6l0,0c-0.5-0.1-1.1-0.2-1.8-0.2c-10.4,0.1-10.8,21-11.2,23.3
				c-1.4,9-5.1,13.1-10,13.2s-6.1-20.7-6.1-20.7l-2.3,2.8c-0.5,11.7,2,25.7,6.4,29.2c5.1,4,11.4,3.2,14,2.5
				c4.7-1.2,11.3-3.8,14.5-19.1C116.9,97.3,117.9,84.3,113.1,80.1z"/>
			<path class="st29" d="M34.2,115.7c0.1,0,0.1,0,0.2,0.1l59.1,15.1l-12-33.1L24.2,83.3c-0.2-2-0.3-3.4-0.3-3.4l-2.3,2.8
				c-0.5,11.7,4.8,27.8,9.2,31.3c1.1,0.9,2.1,1.4,3,1.7c0,0,0,0,0,0L34.2,115.7z"/>
			<path class="st3" d="M111.1,79.2c9.3-0.1,8.5,15.9,5.3,31.2c-3.2,15.3-8.4,17.4-13.2,19.1c-2.5,0.9-7.6,3.6-13.4-0.2
				c-4.6-3-8.7-19.8-8.2-31.4l2.3-2.8c0,0,1.2,20.7,6.1,20.7s8.6-4.2,10-13.2C100.2,100.1,100.7,79.2,111.1,79.2z"/>
			<polygon class="st1" points="83.8,95 23.9,79.8 21.6,82.6 81.5,97.8 			"/>
		</g>
		<g>
			<path class="st25" d="M116.5,90.5c0.1-2.1-0.7-4-1.9-5.1l0-1l-2.6-0.1c0,0,0,0,0,0c-2.7-0.1-4.9,2.4-5.1,5.7
				c-0.2,3.3,1.9,6.1,4.5,6.2l2.6,0.1l0-1C115.4,94.4,116.4,92.6,116.5,90.5z"/>
			
				<ellipse transform="matrix(4.993397e-02 -0.9988 0.9988 4.993397e-02 18.308 200.0983)" class="st26" cx="114.3" cy="90.4" rx="6" ry="4.8"/>
		</g>
		<g>
			<g>
				<g>
					<path class="st1" d="M41.5,24.9c0,0-1.8,0.3-2.4,0.4c-0.6,0.1-2.5,0.4-2.5,0.4l-0.9-6c0,0,1.9-0.3,2.5-0.4
						c0.6-0.1,2.4-0.4,2.4-0.4L41.5,24.9z"/>
					
						<ellipse transform="matrix(0.9893 -0.1462 0.1462 0.9893 -2.413 5.7926)" class="st13" cx="38.2" cy="19.3" rx="2.5" ry="0.8"/>
					
						<ellipse transform="matrix(0.9893 -0.1462 0.1462 0.9893 -3.2766 5.9858)" class="st1" cx="39.1" cy="25.3" rx="2.5" ry="0.8"/>
				</g>
				<g>
					<path class="st1" d="M58.9,29.9c0,0-1.8,0.2-2.4,0.2c-0.6,0.1-2.5,0.3-2.5,0.3l-0.6-6c0,0,1.9-0.2,2.5-0.3
						c0.6-0.1,2.4-0.2,2.4-0.2L58.9,29.9z"/>
					
						<ellipse transform="matrix(0.9949 -0.1005 0.1005 0.9949 -2.1487 5.7307)" class="st13" cx="55.8" cy="24.2" rx="2.5" ry="0.8"/>
					
						<ellipse transform="matrix(0.9949 -0.1005 0.1005 0.9949 -2.7478 5.8218)" class="st1" cx="56.4" cy="30.2" rx="2.5" ry="0.8"/>
				</g>
				<g>
					<path class="st1" d="M76.2,34.9c0,0-1.8,0.1-2.4,0.1c-0.6,0-2.6,0.1-2.6,0.1l-0.3-6c0,0,1.9-0.1,2.6-0.1c0.6,0,2.4-0.1,2.4-0.1
						L76.2,34.9z"/>
					
						<ellipse transform="matrix(0.9985 -5.444673e-02 5.444673e-02 0.9985 -1.4742 4.0406)" class="st13" cx="73.4" cy="29.1" rx="2.5" ry="0.8"/>
					
						<ellipse transform="matrix(0.9985 -5.444673e-02 5.444673e-02 0.9985 -1.8011 4.0674)" class="st1" cx="73.7" cy="35.1" rx="2.5" ry="0.8"/>
				</g>
				<g>
					<path class="st1" d="M93.6,39.9c0,0-1.8,0-2.4,0c-0.6,0-2.6,0-2.6,0l-0.1-6c0,0,1.9,0,2.6,0c0.6,0,2.4,0,2.4,0L93.6,39.9z"/>
					<ellipse transform="matrix(1 -8.382702e-03 8.382702e-03 1 -0.2815 0.7643)" class="st13" cx="91" cy="34" rx="2.5" ry="0.8"/>
					
						<ellipse transform="matrix(1 -8.382702e-03 8.382702e-03 1 -0.3321 0.7649)" class="st1" cx="91.1" cy="40" rx="2.5" ry="0.8"/>
				</g>
			</g>
			<path class="st30" d="M55.9,24.3c0,0,1.3-9.2,7.4-15.1c5.6-5.5,13.1-5.7,11.7-0.1"/>
			<path class="st30" d="M38.1,19.2c0,0,1-9.2,7.9-15.3c5.8-5.2,16.6-4.2,15,1.6"/>
			<path class="st30" d="M73.5,29c0,0,1-9.2,7.9-15.3c5.8-5.2,15.8-5.1,14.2,0.7"/>
			<path class="st30" d="M91.2,33.8c0,0,1-9.2,7.9-15.3c5.8-5.2,16.6-5.1,15,0.7"/>
		</g>
		<g>
			<polygon class="st2" points="47.8,44.1 45.7,45.8 27.6,50.4 22.8,43.7 24.9,42 45.2,35.6 			"/>
			
				<rect x="23.7" y="40.3" transform="matrix(0.9537 -0.3009 0.3009 0.9537 -11.8677 12.3854)" class="st1" width="21.2" height="8.9"/>
		</g>
		<g>
			<polygon class="st2" points="93.6,60.1 91,60 73.9,50.8 73.5,42.2 76.1,42.4 95.8,51.7 			"/>
			<polygon class="st1" points="91,60 71.3,50.7 73.5,42.2 93.2,51.5 			"/>
		</g>
		<g>
			<path class="st3" d="M59.8,76.8L45.3,73c0,0-7.2-25.8,2.9-23.2C58.4,52.4,59.8,76.8,59.8,76.8z"/>
			<g>
				<defs>
					<path id="SVGID_00000120547987176978464440000013756225329210771371_" d="M59.7,75.4l-13.1-3.4c0,0-6.4-23.2,2.6-20.9
						C58.4,53.5,59.7,75.4,59.7,75.4z"/>
				</defs>
				<clipPath id="SVGID_00000179629506842502031400000008176262908521084565_">
					<use xlink:href="#SVGID_00000120547987176978464440000013756225329210771371_"  style="overflow:visible;"/>
				</clipPath>
				<polygon style="clip-path:url(#SVGID_00000179629506842502031400000008176262908521084565_);fill:#F4F4F4;" points="61.2,78 
					45.9,74 41.4,47.7 56.7,51.6 				"/>
				
					<ellipse transform="matrix(0.8552 -0.5183 0.5183 0.8552 -23.8942 36.2917)" style="clip-path:url(#SVGID_00000179629506842502031400000008176262908521084565_);fill:#0E3B72;" cx="53" cy="60.9" rx="4.6" ry="7.4"/>
				<path style="clip-path:url(#SVGID_00000179629506842502031400000008176262908521084565_);fill:#0973AD;" d="M55.8,57.1
					c0,0-3.7-4.1-7.7-3.7c-4.2,0.5-4.7,5-4.7,5l-3.2-8.4l12.4-1.3L55.8,57.1z"/>
			</g>
		</g>
		<g>
			<path class="st3" d="M86.6,83.4L72,79.7c0,0-7.2-25.8,2.9-23.2C85.1,59,86.6,83.4,86.6,83.4z"/>
			<g>
				<defs>
					<path id="SVGID_00000097460348394088308100000014664034255430666389_" d="M86.4,82.1l-13.1-3.4c0,0-6.4-23.2,2.6-20.9
						C85.1,60.2,86.4,82.1,86.4,82.1z"/>
				</defs>
				<clipPath id="SVGID_00000042721565519262796990000002526954138153824641_">
					<use xlink:href="#SVGID_00000097460348394088308100000014664034255430666389_"  style="overflow:visible;"/>
				</clipPath>
				<polygon style="clip-path:url(#SVGID_00000042721565519262796990000002526954138153824641_);fill:#F4F4F4;" points="87.9,84.6 
					72.6,80.6 68.1,54.3 83.4,58.2 				"/>
				
					<ellipse transform="matrix(0.8552 -0.5183 0.5183 0.8552 -23.4647 51.1)" style="clip-path:url(#SVGID_00000042721565519262796990000002526954138153824641_);fill:#0E3B72;" cx="79.7" cy="67.5" rx="4.6" ry="7.4"/>
				<path style="clip-path:url(#SVGID_00000042721565519262796990000002526954138153824641_);fill:#0973AD;" d="M82.5,63.7
					c0,0-3.7-4.1-7.7-3.7c-4.2,0.5-4.7,5-4.7,5l-3.2-8.4l12.4-1.3L82.5,63.7z"/>
			</g>
		</g>
	</g>
</g>
</svg>
