<?xml version="1.0" encoding="utf-8"?>
<!-- Generator: Adobe Illustrator 26.3.1, SVG Export Plug-In . SVG Version: 6.00 Build 0)  -->
<svg version="1.1" id="Layer_1" xmlns="http://www.w3.org/2000/svg" xmlns:xlink="http://www.w3.org/1999/xlink" x="0px" y="0px"
	 viewBox="0 0 427.3 422.6" style="enable-background:new 0 0 427.3 422.6;" xml:space="preserve">
<style type="text/css">
	.st0{fill:#C5E6F9;}
	.st1{fill:#E8DB1E;}
	.st2{fill:#324F6B;}
	.st3{clip-path:url(#SVGID_00000018939673575654451510000015959561301759099057_);}
	.st4{fill:none;stroke:#DDDDDD;stroke-miterlimit:10;}
	.st5{fill:#8A96AB;}
	.st6{fill:#DDDDDD;}
	.st7{clip-path:url(#SVGID_00000147193528004689230330000005971792572664271500_);}
	.st8{fill:#8F8712;}
	.st9{clip-path:url(#SVGID_00000003090320251549954200000008140193679247331468_);fill:#BFA13D;}
	.st10{clip-path:url(#SVGID_00000003090320251549954200000008140193679247331468_);fill:#DDBA46;}
	.st11{clip-path:url(#SVGID_00000003090320251549954200000008140193679247331468_);fill:#324F6B;}
	.st12{fill:#897E36;}
	.st13{fill:#C7BC1A;}
	.st14{fill:#3F6C91;}
	.st15{fill:none;stroke:#324F6B;stroke-miterlimit:10;}
	.st16{fill:#A39B15;}
	.st17{fill:none;stroke:#666666;stroke-miterlimit:10;}
	.st18{fill:none;stroke:#324F6B;stroke-width:2;stroke-miterlimit:10;}
	.st19{fill:#BFA13D;}
	.st20{fill:#DDBA46;}
</style>
<g>
	<g>
		<path class="st0" d="M207,216.6c0,0,5.5-60,14.7-68.1c9.1-8,33.9-4.7,56.4,13.7s29,57.7,33.1,81.6L207,216.6z"/>
		<path class="st0" d="M219.2,152c0,0,5.3-10.5,24-14.1c17.5-3.4,40-4.5,62.9,3.6c23.7,8.4,36.8,29.2,47.9,49.4
			c4.9,8.9,8.2,46,8.2,46l-137.4-57.5C224.9,179.5,215.9,163.3,219.2,152z"/>
		<path class="st1" d="M276.3,224.9c0,0-2.5-61.3,6.6-69.3c9.1-8,33.2-2.4,55.7,16c22.4,18.4,29,57.7,33.1,81.6L276.3,224.9z"/>
		
			<ellipse transform="matrix(0.1128 -0.9936 0.9936 0.1128 51.9692 415.3093)" class="st2" cx="258.5" cy="178.6" rx="10" ry="5.5"/>
		<ellipse transform="matrix(0.134 -0.991 0.991 0.134 25.3235 377.184)" class="st2" cx="228.5" cy="174.1" rx="10" ry="5.5"/>
		<path class="st2" d="M234.7,191.5l13.4,2c0,0-2.4,6.4-8.3,5.2C233.9,197.4,234.7,191.5,234.7,191.5z"/>
	</g>
	<g>
		<g>
			<defs>
				<path id="SVGID_1_" d="M291.6,316l17-9.5l-39.7-6c-2.8-0.5-5.7-0.7-8.7-0.5l-168,12.5c-23.5,1.7-42.6,23.1-42.4,47.7l0,2.6
					c0.2,21.5,15.1,38,34.6,40.1l40.1,6l20.2-11.2L261,385.9c20.9-2.1,37.4-22.3,37.2-45l0-2.4C298.1,330,295.7,322.3,291.6,316z"/>
			</defs>
			<use xlink:href="#SVGID_1_"  style="overflow:visible;fill:#324F6B;"/>
			<clipPath id="SVGID_00000121975643650462990640000015039335213408114334_">
				<use xlink:href="#SVGID_1_"  style="overflow:visible;"/>
			</clipPath>
			<g style="clip-path:url(#SVGID_00000121975643650462990640000015039335213408114334_);">
				<line class="st4" x1="156.4" y1="406" x2="30" y2="387.4"/>
				<line class="st4" x1="152.4" y1="388.1" x2="26" y2="369.5"/>
				<line class="st4" x1="154.4" y1="368.5" x2="28" y2="349.9"/>
				<line class="st4" x1="163.4" y1="350.3" x2="37" y2="331.7"/>
				<line class="st4" x1="174.7" y1="335.3" x2="48.3" y2="316.8"/>
				<line class="st4" x1="190.9" y1="324.7" x2="64.5" y2="306.1"/>
				<line class="st4" x1="226.1" y1="320.4" x2="99.7" y2="301.8"/>
				<line class="st4" x1="266.2" y1="317.4" x2="139.8" y2="298.8"/>
				<line class="st4" x1="302.7" y1="314.9" x2="176.3" y2="296.3"/>
				<line class="st4" x1="328.6" y1="311.3" x2="202.2" y2="292.8"/>
			</g>
		</g>
		<g>
			<path class="st0" d="M303.1,392.2l-168,17.1c-23.5,2.4-42.9-15.6-43.1-40.1l0-2.6c-0.2-24.6,18.9-45.9,42.4-47.7l168-12.5
				c20.9-1.6,37.8,15.7,37.9,38.4l0,2.4C340.5,370,324,390.1,303.1,392.2z"/>
			<path class="st2" d="M133.9,400.7c-18.4,1.8-33.6-13.2-33.8-33.6c-0.2-20.3,14.8-38.1,33.2-39.5l170.3-13.1
				c16.4-1.3,29.7,13.1,29.9,32.1c0.2,18.9-12.9,35.6-29.3,37.3L133.9,400.7z"/>
			<path class="st5" d="M166.3,361.5c0.2,20-14.3,37.6-32.5,39.4c-18.4,1.8-33.6-13.2-33.8-33.6c-0.2-20.4,14.8-38.1,33.2-39.5
				C151.4,326.4,166.1,341.5,166.3,361.5z"/>
			<path class="st6" d="M135.8,387.6c-13.5,2.8-25-8.7-23.8-23.7c0.9-11.2,9-20.8,19-22.7c13.4-2.6,24.7,8.9,23.5,23.8
				C153.7,375.9,145.8,385.5,135.8,387.6z"/>
			<path class="st5" d="M333.5,346.8c0.2,19-12.9,35.7-29.3,37.3c-16.6,1.6-30.3-12.7-30.4-32c-0.2-19.3,13.3-36,29.9-37.3
				C320,313.4,333.3,327.8,333.5,346.8z"/>
			<path class="st6" d="M306.1,371.4c-12.2,2.6-22.5-8.3-21.4-22.6c0.8-10.6,8.1-19.7,17.1-21.4c12.1-2.4,22.3,8.5,21.2,22.6
				C322.1,360.4,315,369.5,306.1,371.4z"/>
			<path class="st5" d="M252.1,353.9c0.2,19.5-13.6,36.6-30.9,38.3c-17.5,1.7-31.9-12.9-32.1-32.8c-0.2-19.8,14-37,31.5-38.4
				C237.9,319.8,251.9,334.5,252.1,353.9z"/>
			<path class="st6" d="M223.2,379.2c-12.8,2.7-23.7-8.5-22.5-23.2c0.9-10.9,8.5-20.2,18-22c12.7-2.5,23.4,8.7,22.3,23.2
				C240.1,368,232.6,377.3,223.2,379.2z"/>
		</g>
	</g>
	<g>
		<g>
			<defs>
				<path id="SVGID_00000162337066544480187860000002594030609518664344_" d="M378.6,329.1l17-9.5l-39.7-6c-2.8-0.5-5.7-0.7-8.7-0.5
					l-168,12.5c-23.5,1.7-42.6,23.1-42.4,47.7l0,2.6c0.2,21.5,15.1,38,34.6,40.1l40.1,6l20.2-11.2L347.9,399
					c20.9-2.1,37.4-22.3,37.2-45l0-2.4C385,343.1,382.6,335.3,378.6,329.1z"/>
			</defs>
			<use xlink:href="#SVGID_00000162337066544480187860000002594030609518664344_"  style="overflow:visible;fill:#324F6B;"/>
			<clipPath id="SVGID_00000025404324672301092430000016174893690600781974_">
				<use xlink:href="#SVGID_00000162337066544480187860000002594030609518664344_"  style="overflow:visible;"/>
			</clipPath>
			<g style="clip-path:url(#SVGID_00000025404324672301092430000016174893690600781974_);">
				<line class="st4" x1="243.3" y1="419.1" x2="116.9" y2="400.5"/>
				<line class="st4" x1="239.4" y1="401.2" x2="113" y2="382.6"/>
				<line class="st4" x1="241.4" y1="381.6" x2="114.9" y2="363"/>
				<line class="st4" x1="250.3" y1="363.3" x2="123.9" y2="344.7"/>
				<line class="st4" x1="261.6" y1="348.4" x2="135.2" y2="329.8"/>
				<line class="st4" x1="277.9" y1="337.8" x2="151.4" y2="319.2"/>
				<line class="st4" x1="313" y1="333.5" x2="186.6" y2="314.9"/>
				<line class="st4" x1="353.2" y1="330.5" x2="226.8" y2="311.9"/>
				<line class="st4" x1="389.7" y1="327.9" x2="263.3" y2="309.4"/>
				<line class="st4" x1="415.6" y1="324.4" x2="289.1" y2="305.8"/>
			</g>
		</g>
		<g>
			<path class="st0" d="M390,405.3l-168,17.1c-23.5,2.4-42.9-15.6-43.1-40.1l0-2.6c-0.2-24.6,18.9-45.9,42.4-47.7l168-12.5
				c20.9-1.6,37.8,15.7,37.9,38.4l0,2.4C427.5,383,410.9,403.2,390,405.3z"/>
			<path class="st2" d="M220.8,413.8c-18.4,1.8-33.6-13.2-33.8-33.6c-0.2-20.3,14.8-38.1,33.2-39.5l170.3-13.1
				c16.4-1.3,29.7,13.1,29.9,32.1c0.2,18.9-12.9,35.6-29.3,37.3L220.8,413.8z"/>
			<path class="st5" d="M253.2,374.5c0.2,20-14.3,37.6-32.5,39.4c-18.4,1.8-33.6-13.2-33.8-33.6c-0.2-20.4,14.8-38.1,33.2-39.5
				C238.3,339.5,253,354.5,253.2,374.5z"/>
			<path class="st6" d="M222.8,400.6c-13.5,2.8-25-8.7-23.8-23.7c0.9-11.2,9-20.8,19-22.7c13.4-2.6,24.7,8.9,23.5,23.8
				C240.6,389,232.7,398.6,222.8,400.6z"/>
			<path class="st5" d="M420.4,359.8c0.2,19-12.9,35.7-29.3,37.3c-16.6,1.6-30.3-12.7-30.4-32c-0.2-19.3,13.3-36,29.9-37.3
				C407,326.5,420.3,340.8,420.4,359.8z"/>
			<path class="st6" d="M393,384.4c-12.2,2.6-22.5-8.3-21.4-22.6c0.8-10.6,8.1-19.7,17.1-21.4c12.1-2.4,22.3,8.5,21.2,22.6
				C409.1,373.5,401.9,382.5,393,384.4z"/>
			<path class="st5" d="M339,367c0.2,19.5-13.6,36.6-30.9,38.3c-17.5,1.7-31.9-12.9-32.1-32.8c-0.2-19.8,14-37,31.5-38.4
				C324.8,332.8,338.8,347.5,339,367z"/>
			<path class="st6" d="M310.1,392.3c-12.8,2.7-23.7-8.5-22.5-23.2c0.9-10.9,8.5-20.2,18-22c12.7-2.5,23.4,8.7,22.3,23.2
				C327,381,319.5,390.3,310.1,392.3z"/>
		</g>
	</g>
	<g>
		<path class="st1" d="M255.6,301.8l-145,10.3l-12.9-76.2c-3.9-23.2,9.4-45.9,25.3-43.3l136.2,39.6c4.7,1.4,7.5,8.3,6.2,15.4
			L255.6,301.8z"/>
		<polygon class="st1" points="123.1,192.6 151.3,196.9 138.8,316.4 110.6,312.1 		"/>
		<path class="st8" d="M283.8,306.1l-145,10.3L126,240.2c-3.9-23.2,9.4-45.9,25.3-43.3l136.2,39.6c4.7,1.4,7.5,8.3,6.2,15.4
			L283.8,306.1z"/>
	</g>
	<g>
		<g>
			<defs>
				<path id="SVGID_00000175294150658333675510000015751531415625498047_" d="M177.6,184.2L69.5,18.4l10-14.9L54.3,0l0,0
					c-2.2-0.2-4.5,0.4-6.2,2v0c-8.6,7.9-11.7,20.4-5.6,30.4l52.4,87.1c0.2,0.4,0.4,0.8,0.6,1.2l34.9,97c-2.1,5.4-3.5,11.3-4.1,17.5
					c-2.9,29.7,14.2,55.1,38.3,57.5l23.5,3.2l-6.4-5.5c17.6-6.6,31.5-25.6,33.7-48.9C218.1,212.3,201.3,187,177.6,184.2z"/>
			</defs>
			<use xlink:href="#SVGID_00000175294150658333675510000015751531415625498047_"  style="overflow:visible;fill:#B8A340;"/>
			<clipPath id="SVGID_00000096017853071103197760000008312525519066853560_">
				<use xlink:href="#SVGID_00000175294150658333675510000015751531415625498047_"  style="overflow:visible;"/>
			</clipPath>
			<path style="clip-path:url(#SVGID_00000096017853071103197760000008312525519066853560_);fill:#BFA13D;" d="M74.4-12.4
				c3,1,174.2,210,174.2,210l-8,79.6L183.9,334c0,0-61.7-45.8-63.7-49.8c-2-4-99.5-260.8-99.5-260.8l27-28.9L74.4-12.4z"/>
			<path style="clip-path:url(#SVGID_00000096017853071103197760000008312525519066853560_);fill:#DDBA46;" d="M47.7-5.4L93,2.8
				c0,0-23.7,26.5-25.4,26.3c-1.8-0.2-36.2-4.6-36.2-4.6L47.7-5.4z"/>
			<path style="clip-path:url(#SVGID_00000096017853071103197760000008312525519066853560_);fill:#324F6B;" d="M62.7,1
				c0,0-2.1-0.4-4.4,0.6c-4.6,2.1-11.7,8.1-12.1,20.2l8.5,1c0,0,1.9-17.1,13.8-20.7S62.7,1,62.7,1z"/>
		</g>
		<g>
			
				<ellipse transform="matrix(0.1439 -0.9896 0.9896 0.1439 -72.1333 400.216)" class="st12" cx="195.2" cy="241.8" rx="54.7" ry="44.6"/>
			<path class="st12" d="M206.5,210.3L165.9,252l-46-127.9c-0.2-0.4-0.4-0.8-0.6-1.2L66.9,35.8c-6-10-3-22.5,5.6-30.4l0,0
				c3.4-3.2,9-2.5,11.4,0.9l124.2,190.4C210.8,200.8,210.1,206.9,206.5,210.3z"/>
		</g>
	</g>
	<g>
		<path class="st1" d="M338.8,313.7l-145,10.3l-12.9-76.2c-3.9-23.2,9.4-45.9,25.3-43.3l136.2,39.6c4.7,1.4,7.5,8.3,6.2,15.4
			L338.8,313.7z"/>
		<polygon class="st1" points="206.2,204.5 234.5,208.8 222,328.4 193.8,324.1 		"/>
		<path class="st13" d="M367,318l-145,10.3l-12.9-76.2c-3.9-23.2,9.4-45.9,25.3-43.3l136.2,39.6c4.7,1.4,7.5,8.3,6.2,15.4L367,318z"
			/>
		<ellipse class="st2" cx="239.8" cy="248.2" rx="13.2" ry="16"/>
	</g>
	<g>
		<path class="st2" d="M54.3,221.8c0,0-1.2,1-4.4,1c-2.9,0-3.8-1-3.8-1v-9.3c0,0,1.1,1,4.1,1c3.1,0,4.1-1,4.1-1V221.8z"/>
		<ellipse class="st14" cx="50.2" cy="212.5" rx="4.1" ry="1"/>
	</g>
	<path class="st15" d="M50.2,221.6V24.8c0-2.4,1.7-4.4,4-4.8l0,0"/>
	<g>
		<path class="st13" d="M33.1,236.3L22,237.9l-0.8-2.4l-11.8,6c0,0-6.1,8.8-4.6,19.9s8.4,20.8,16.8,22c4,0.6,11.1-0.3,17.3-1.5
			c2.9,3.9,6.4,7.1,10.4,9.1l2.2-11.7c-9-4.5-14.4-18-12.2-30.2c0.8-4.4,2.5-8,4.8-10.6c3.2-2.2,6.3-3.9,7.6-4.5
			c1.8-0.3,3.8-0.2,5.7,0.4l0.7-12.3C47.8,219,38,224.8,33.1,236.3z"/>
		
			<ellipse transform="matrix(0.9886 -0.1508 0.1508 0.9886 -33.9232 12.3405)" class="st2" cx="64.4" cy="229.8" rx="7.8" ry="11.2"/>
		<polygon class="st13" points="48.7,221.6 19.9,225.6 31.9,227.6 60.7,223 		"/>
		<path class="st13" d="M70.6,224.3c12.8,0.3,24.7,14.1,27.4,32.4c2.9,19.8-5.9,37.4-19.8,39.4l-1.8-12.4c9-1.3,14.8-12.8,12.9-25.7
			c-1.8-12.2-9.9-21.3-18.5-21.1L70.6,224.3z"/>
		<polygon class="st2" points="65.6,240.8 36.5,244.9 32.7,222.9 62.3,218.8 		"/>
		<path class="st13" d="M40.8,228.4l29.8-4.1l17,15.7c0,0,8.8,10.9,6.8,27.2c-2,16.3-16.2,28.9-16.2,28.9l-29.9,4.1
			c0,0,8.4-5.1,12.2-15.9c3.8-10.8,4.6-23.9,2.2-31.2C58.6,240.8,40.8,228.4,40.8,228.4z"/>
		<polyline class="st16" points="19.4,295.1 49.3,291 51.4,279.2 21.6,283.4 		"/>
		<g>
			<g>
				<g>
					<path class="st1" d="M19.4,295.1c-13.7-6.9-22.1-27.6-18.6-46.2c3.4-18.6,17.4-28.2,31.1-21.3l-2.2,11.7
						c-9-4.5-18.1,1.7-20.3,13.9c-2.2,12.2,3.2,25.7,12.2,30.2L19.4,295.1z"/>
				</g>
			</g>
			<g>
				<g>
					<path class="st1" d="M48.4,300.2c13.8-2,22.7-19.7,19.8-39.4c-2.9-19.8-16.6-34.2-30.4-32.2l1.8,12.4c9-1.3,17.9,8.1,19.8,21
						s-3.9,24.4-12.9,25.7L48.4,300.2z"/>
				</g>
			</g>
			
				<ellipse transform="matrix(0.9886 -0.1508 0.1508 0.9886 -34.8924 7.8586)" class="st14" cx="34.4" cy="233.9" rx="7.8" ry="11.2"/>
		</g>
	</g>
	<g>
		<path class="st17" d="M280.7,99.4c-6.2,1.2-11.8-1.2-12.5-5s3.6-8.2,9.6-10.3c6-2.1,11.4-1,11.9,2c0.6,3-4,6.2-10.2,7.3"/>
		<path class="st17" d="M281.9,105.4c-6.2,1.2-11.8-1.2-12.5-5c-0.7-3.8,3.6-8.2,9.6-10.3c6-2.1,11.4-1,11.9,2s-4,6.2-10.2,7.3"/>
		<path class="st17" d="M283,111.3c-6.2,1.2-11.8-1.2-12.5-5c-0.7-3.8,3.6-8.2,9.6-10.3c6-2.1,11.4-1,11.9,2c0.6,3-4,6.2-10.2,7.3"
			/>
		<path class="st17" d="M284.1,117.3c-6.2,1.2-11.8-1.2-12.5-5c-0.7-3.8,3.6-8.2,9.6-10.3c6-2.1,11.4-1,11.9,2c0.6,3-4,6.2-10.2,7.3
			"/>
		<path class="st17" d="M285.3,123.2c-6.2,1.2-11.8-1.2-12.5-5s3.6-8.2,9.6-10.3s11.4-1,11.9,2c0.6,3-4,6.2-10.2,7.3"/>
		<path class="st17" d="M286.4,129.2c-6.2,1.2-11.8-1.2-12.5-5c-0.7-3.8,3.6-8.2,9.6-10.3c6-2.1,11.4-1,11.9,2s-4,6.2-10.2,7.3"/>
	</g>
	<g>
		<path class="st17" d="M321.2,124.6c4.5,4.4,5.7,10.4,3.1,13.1c-2.7,2.7-8.8,1.7-14-2s-7.3-8.8-5.2-11c2.2-2.2,7.4-0.2,11.8,4.2
			c0,0,8.4,10.3,1.8,12.8c-7.6,2.8-14.4-4.6-14.4-4.6"/>
		<path class="st17" d="M325.4,120.3c4.5,4.4,5.7,10.4,3.1,13.1c-2.7,2.7-8.8,1.7-14-2c-5.1-3.8-7.3-8.8-5.2-11
			c2.2-2.2,7.4-0.2,11.8,4.2"/>
		<path class="st17" d="M329.7,116c4.5,4.4,5.7,10.4,3.1,13.1c-2.7,2.7-8.8,1.7-14-2c-5.1-3.8-7.3-8.8-5.2-11s7.4-0.2,11.8,4.2"/>
		<path class="st17" d="M333.9,111.6c4.5,4.4,5.7,10.4,3.1,13.1c-2.7,2.7-8.8,1.7-14-2s-7.3-8.8-5.2-11c2.2-2.2,7.4-0.2,11.8,4.2"/>
		<path class="st17" d="M338.2,107.3c4.5,4.4,5.7,10.4,3.1,13.1c-2.7,2.7-8.8,1.7-14-2c-5.1-3.8-7.3-8.8-5.2-11
			c2.2-2.2,7.4-0.2,11.8,4.2"/>
		<path class="st17" d="M342.4,103c4.5,4.4,5.7,10.4,3.1,13.1s-8.8,1.7-14-2c-5.1-3.8-7.3-8.8-5.2-11c2.2-2.2,7.4-0.2,11.8,4.2"/>
	</g>
	<g>
		<path class="st17" d="M310.8,84.7c-6.1-1.4-10.3-5.9-9.4-9.6c0.9-3.7,6.6-6.1,13-5.5c6.3,0.5,10.8,3.7,10.1,6.6
			c-0.7,3-6.2,4-12.3,2.6"/>
		<path class="st17" d="M309.4,90.6c-6.1-1.4-10.3-5.9-9.4-9.6c0.9-3.7,6.6-6.1,13-5.5c6.3,0.5,10.8,3.7,10.1,6.6
			c-0.7,3-6.2,4-12.3,2.6"/>
		<path class="st17" d="M308.1,96.5c-6.1-1.4-10.3-5.9-9.4-9.6c0.9-3.7,6.6-6.1,13-5.5c6.3,0.5,10.8,3.7,10.1,6.6s-6.2,4-12.3,2.6"
			/>
		<path class="st17" d="M306.7,102.4c-6.1-1.4-10.3-5.9-9.4-9.6c0.9-3.7,6.6-6.1,13-5.5c6.3,0.5,10.8,3.7,10.1,6.6
			c-0.7,3-6.2,4-12.3,2.6"/>
		<path class="st17" d="M305.3,108.3c-6.1-1.4-10.3-5.9-9.4-9.6c0.9-3.7,6.6-6.1,13-5.5c6.3,0.5,10.8,3.7,10.1,6.6
			c-0.7,3-6.2,4-12.3,2.6"/>
		<path class="st17" d="M303.9,114.2c-6.1-1.4-10.3-5.9-9.4-9.6c0.9-3.7,6.6-6.1,13-5.5c6.3,0.5,10.8,3.7,10.1,6.6
			c-0.7,3-6.2,4-12.3,2.6"/>
		<path class="st17" d="M302.5,120.1c-6.1-1.4-10.3-5.9-9.4-9.6c0.9-3.7,6.6-6.1,13-5.5c6.3,0.5,10.8,3.7,10.1,6.6
			c-0.7,3-6.2,4-12.3,2.6"/>
		<path class="st17" d="M301.2,126.1c-6.1-1.4-10.3-5.9-9.4-9.6c0.9-3.7,6.6-6.1,13-5.5c6.3,0.5,10.8,3.7,10.1,6.6
			c-0.7,3-6.2,4-12.3,2.6"/>
		<path class="st17" d="M299.8,132c-6.1-1.4-10.3-5.9-9.4-9.6c0.9-3.7,6.6-6.1,13-5.5s10.8,3.7,10.1,6.6c-0.7,3-6.2,4-12.3,2.6"/>
	</g>
	<path class="st18" d="M262.9,174.1c0,0,3.7,1.1,6.7-4.9"/>
	<path class="st18" d="M226.5,170.3c0,0-4-1-5-7"/>
	<g>
		<path class="st19" d="M277.4,156.1c0.5-0.1-8.5-20.1-19.5-22.1l-2,13c0,0,10.4,0.4,19.7,11.2C275.8,158,277.4,156.1,277.4,156.1z"
			/>
		<circle class="st20" cx="280.8" cy="161" r="6"/>
	</g>
	<g>
		<path class="st19" d="M220.7,149.5c-0.3-0.1,7.8-12.2,17.8-14.2l-1.2,10.6c0,0-7.8,0.4-15.6,5.4
			C221.6,151,220.7,149.5,220.7,149.5z"/>
		<circle class="st20" cx="217.6" cy="152.5" r="4.4"/>
	</g>
	<path class="st2" d="M306.8,143.9l-21.8-5.7c-3.6-0.9-5.8-4.6-4.8-8.2v0c0.9-3.6,4.6-5.8,8.2-4.8l21.8,5.7c3.6,0.9,5.8,4.6,4.8,8.2
		v0C314.1,142.7,310.4,144.8,306.8,143.9z"/>
</g>
</svg>
