<?xml version="1.0" encoding="utf-8"?>
<!-- Generator: Adobe Illustrator 26.3.1, SVG Export Plug-In . SVG Version: 6.00 Build 0)  -->
<svg version="1.1" id="Layer_1" xmlns="http://www.w3.org/2000/svg" xmlns:xlink="http://www.w3.org/1999/xlink" x="0px" y="0px"
	 viewBox="0 0 390.4 355.8" style="enable-background:new 0 0 390.4 355.8;" xml:space="preserve">
<style type="text/css">
	.st0{clip-path:url(#SVGID_00000104698151435305415250000009583045459800294552_);fill:#324F6B;}
	.st1{clip-path:url(#SVGID_00000104698151435305415250000009583045459800294552_);}
	.st2{fill:none;stroke:#273844;stroke-width:2;stroke-miterlimit:10;}
	.st3{fill:#A3642B;}
	.st4{fill:#324F6B;}
	.st5{fill:#8A96AB;}
	.st6{fill:#B8C1CA;}
	.st7{fill:#228A54;}
	.st8{fill:#25985D;}
	.st9{fill:#155D41;}
	.st10{clip-path:url(#SVGID_00000157306639745720401280000017674936039578629548_);fill:#228A54;}
	.st11{clip-path:url(#SVGID_00000157306639745720401280000017674936039578629548_);fill:#25985D;}
	.st12{fill:#1C784C;}
	.st13{clip-path:url(#SVGID_00000132079169971730330680000017471326326994886555_);fill:#324F6B;}
	.st14{clip-path:url(#SVGID_00000132079169971730330680000017471326326994886555_);}
	.st15{fill:#E8863D;}
	.st16{clip-path:url(#SVGID_00000072976634824924480270000015517187312988400797_);fill:#C5E6F9;}
	
		.st17{clip-path:url(#SVGID_00000072976634824924480270000015517187312988400797_);fill:none;stroke:#0071BC;stroke-width:2.1785;stroke-miterlimit:10;}
	.st18{clip-path:url(#SVGID_00000004513100272508023820000009143684559452018076_);fill:#273844;}
	.st19{clip-path:url(#SVGID_00000004513100272508023820000009143684559452018076_);fill:#A3642B;}
	.st20{clip-path:url(#SVGID_00000004513100272508023820000009143684559452018076_);fill:#E8863D;}
	.st21{clip-path:url(#SVGID_00000005247890815889237350000001971804997176225978_);fill:#273844;}
	.st22{clip-path:url(#SVGID_00000005247890815889237350000001971804997176225978_);fill:#A3642B;}
	.st23{clip-path:url(#SVGID_00000005247890815889237350000001971804997176225978_);fill:#E8863D;}
</style>
<g>
	<g>
		<g>
			<defs>
				<path id="SVGID_1_" d="M203,186.8c-4.9-1.5-10.4-1.4-16.3,0.3L42.7,230.8c-19,5.7-34.2,27.6-34,48.9l0,2.2
					c0.2,15.7,8.8,26.7,20.9,29L87.1,325l161.9-71.6l12.2-52.4L203,186.8z"/>
			</defs>
			<clipPath id="SVGID_00000175310544296379842420000017582806643059481019_">
				<use xlink:href="#SVGID_1_"  style="overflow:visible;"/>
			</clipPath>
			<polygon style="clip-path:url(#SVGID_00000175310544296379842420000017582806643059481019_);fill:#324F6B;" points="12.8,238 
				188.4,180.6 203,179.6 277.6,202.8 276.6,264.2 81.5,328.2 6.2,311 0.9,262.5 			"/>
			<g style="clip-path:url(#SVGID_00000175310544296379842420000017582806643059481019_);">
				<line class="st2" x1="6.2" y1="297.4" x2="77.9" y2="314.6"/>
				<line class="st2" x1="0.2" y1="276.8" x2="71.9" y2="294"/>
				<line class="st2" x1="5.5" y1="254.6" x2="77.2" y2="271.8"/>
				<line class="st2" x1="22.8" y1="235.6" x2="94.5" y2="252.9"/>
				<line class="st2" x1="52" y1="224" x2="123.7" y2="241.3"/>
				<line class="st2" x1="154.5" y1="231.7" x2="82.9" y2="214.4"/>
				<line class="st2" x1="113.4" y1="204.8" x2="185" y2="222"/>
				<line class="st2" x1="143.6" y1="195.5" x2="215.2" y2="212.8"/>
				<line class="st2" x1="173.8" y1="187.2" x2="245.4" y2="204.5"/>
			</g>
		</g>
		<g>
			<path class="st3" d="M246.3,280.8l-144.1,43.6c-19,5.7-34.6-6.8-34.8-28.1l0-2.2c-0.2-21.3,15-43.1,34-48.9l144.1-43.6
				c19-5.7,34.6,6.8,34.8,28.1l0,2.2C280.5,253.1,265.3,275,246.3,280.8z"/>
			<path class="st4" d="M101.2,317.1c-14.9,4.5-27.1-6.2-27.3-23.8c-0.2-17.6,11.8-35.7,26.6-40.2l146-44.2
				c14.9-4.5,27.1,6.2,27.3,23.8s-11.8,35.7-26.6,40.2L101.2,317.1z"/>
			
				<ellipse transform="matrix(0.4154 -0.9096 0.9096 0.4154 -200.5602 258.3736)" class="st5" cx="100.7" cy="285.2" rx="34.5" ry="25.2"/>
			<path class="st6" d="M102.7,305.2c-11,4.6-20.3-3.5-19.3-16.8c0.7-9.9,7.2-19.7,15.3-23.1c11-4.6,20.3,3.5,19.3,16.8
				C117.3,292,110.9,301.8,102.7,305.2z"/>
			
				<ellipse transform="matrix(0.4154 -0.9096 0.9096 0.4154 -74.8248 365.4822)" class="st5" cx="246.9" cy="241" rx="34.5" ry="25.2"/>
			
				<ellipse transform="matrix(0.4137 -0.9104 0.9104 0.4137 -74.5859 366.0974)" class="st6" cx="246.9" cy="241" rx="22.1" ry="16.2"/>
			
				<ellipse transform="matrix(0.4154 -0.9096 0.9096 0.4154 -137.6925 311.9279)" class="st5" cx="173.8" cy="263.1" rx="34.5" ry="25.2"/>
			
				<ellipse transform="matrix(0.4137 -0.9104 0.9104 0.4137 -137.5985 312.5236)" class="st7" cx="173.8" cy="263.1" rx="22.1" ry="16.2"/>
		</g>
	</g>
	<path class="st8" d="M202.7,120.9c-12.1-6.8-28.4-0.8-36.5,13.5c-3.2,5.7-4.6,11.8-4.4,17.5L94.2,272c-5.5,9.8-2,22.2,7.8,27.8l0,0
		c9.8,5.5,22.2,2,27.8-7.8l67.6-120.1c5-2.8,9.5-7.1,12.7-12.8C218.1,144.8,214.8,127.8,202.7,120.9z"/>
	<g>
		<path class="st9" d="M106.3,300.9L106.3,300.9c-9.8-5.5-13.3-17.9-7.8-27.8l69.8-124l35.5,20l-69.8,124
			C128.5,302.9,116.1,306.4,106.3,300.9z"/>
		
			<ellipse transform="matrix(0.4906 -0.8714 0.8714 0.4906 -30.8247 243.0467)" class="st9" cx="192.5" cy="147.9" rx="29.7" ry="25.2"/>
		
			<ellipse transform="matrix(0.4906 -0.8714 0.8714 0.4906 -30.8247 243.0467)" class="st4" cx="192.5" cy="147.9" rx="16.7" ry="14.2"/>
	</g>
	<g>
		
			<ellipse transform="matrix(0.4906 -0.8714 0.8714 0.4906 -16.0217 294.9116)" class="st7" cx="244.2" cy="161.2" rx="16.7" ry="14.2"/>
		<g>
			
				<ellipse transform="matrix(0.4906 -0.8714 0.8714 0.4906 -30.8247 243.0467)" class="st3" cx="192.5" cy="147.9" rx="16.7" ry="14.2"/>
			<polygon class="st3" points="197.4,132.1 249.4,145.4 239.6,177 187,163.6 			"/>
		</g>
	</g>
	<g>
		<defs>
			<path id="SVGID_00000026846095280184289140000009988365035688910263_" d="M228.5,127c0,0,9.5,18.2-7.3,31.9
				c-17.1,13.9-35.1,2.4-35.1,2.4L111.6,56.7c0,0,10,3.3,20.7-5.2c11.1-8.9,9.5-19.2,9.5-19.2L228.5,127z"/>
		</defs>
		<clipPath id="SVGID_00000079446810338110361010000013973051846440856714_">
			<use xlink:href="#SVGID_00000026846095280184289140000009988365035688910263_"  style="overflow:visible;"/>
		</clipPath>
		<polygon style="clip-path:url(#SVGID_00000079446810338110361010000013973051846440856714_);fill:#228A54;" points="92,52.9 
			156.4,13.7 249.9,133.2 218.1,182.9 167.7,173.6 		"/>
		<polygon style="clip-path:url(#SVGID_00000079446810338110361010000013973051846440856714_);fill:#25985D;" points="126.5,32.3 
			230.7,153.1 242.6,117.2 140.5,18.3 		"/>
	</g>
	<g>
		<path class="st8" d="M106.4,301.5l56,14.6l6.6-21.6l-72.2-22c0,0-3.4,4.4-3.1,12.2C94.1,293.2,106.4,301.5,106.4,301.5z"/>
		<polygon class="st8" points="147.5,288.2 93.8,274.3 155.6,163.9 209.3,177.9 		"/>
	</g>
	<path class="st12" d="M102,299.8c2.1,1.2,4.3,1.9,6.5,2.3l53.9,14l0.1-0.4c7.7,0.7,15.5-3.1,19.6-10.3l3.9-7l-92.8-24.3
		C89.3,283.6,92.9,294.7,102,299.8z"/>
	<path class="st8" d="M255,134.3c-12.1-6.8-28.4-0.8-36.5,13.5c-3.2,5.7-4.6,11.8-4.4,17.5l-67.6,120.1c-5.5,9.8-2,22.2,7.8,27.8
		l0,0c9.8,5.5,22.2,2,27.8-7.8l67.6-120.1c5-2.8,9.5-7.1,12.7-12.8C270.4,158.2,267.1,141.1,255,134.3z"/>
	<g>
		<path class="st12" d="M158.1,314.2L158.1,314.2c-9.8-5.5-13.3-17.9-7.8-27.8l69.8-124l35.5,20l-69.8,124
			C180.3,316.2,167.9,319.7,158.1,314.2z"/>
		
			<ellipse transform="matrix(0.4906 -0.8714 0.8714 0.4906 -16.0217 294.9116)" class="st12" cx="244.2" cy="161.2" rx="29.7" ry="25.2"/>
		
			<ellipse transform="matrix(0.4906 -0.8714 0.8714 0.4906 -16.0217 294.9116)" class="st3" cx="244.2" cy="161.2" rx="16.7" ry="14.2"/>
	</g>
	<g>
		<g>
			<defs>
				<path id="SVGID_00000118379314596088921500000001769171630913073086_" d="M313.2,214.4c-4.9-1.5-10.4-1.4-16.3,0.3l-144.1,43.6
					c-19,5.7-34.2,27.6-34,48.9l0,2.2c0.2,15.7,8.8,26.7,20.9,29l57.4,14.1l161.9-71.6l12.2-52.4L313.2,214.4z"/>
			</defs>
			<clipPath id="SVGID_00000035527752571604597750000008183288756115825557_">
				<use xlink:href="#SVGID_00000118379314596088921500000001769171630913073086_"  style="overflow:visible;"/>
			</clipPath>
			<polygon style="clip-path:url(#SVGID_00000035527752571604597750000008183288756115825557_);fill:#324F6B;" points="123,265.5 
				298.5,208.1 313.1,207.1 387.8,230.3 386.8,291.7 191.7,355.8 116.4,338.5 111.1,290.1 			"/>
			<g style="clip-path:url(#SVGID_00000035527752571604597750000008183288756115825557_);">
				<line class="st2" x1="116.4" y1="324.9" x2="188" y2="342.2"/>
				<line class="st2" x1="110.4" y1="304.3" x2="182.1" y2="321.6"/>
				<line class="st2" x1="115.7" y1="282.1" x2="187.4" y2="299.4"/>
				<line class="st2" x1="133" y1="263.2" x2="204.6" y2="280.4"/>
				<line class="st2" x1="162.2" y1="251.6" x2="233.8" y2="268.8"/>
				<line class="st2" x1="193" y1="242" x2="264.7" y2="259.2"/>
				<line class="st2" x1="223.5" y1="232.3" x2="295.2" y2="249.6"/>
				<line class="st2" x1="253.7" y1="223" x2="325.4" y2="240.3"/>
				<line class="st2" x1="283.9" y1="214.7" x2="355.6" y2="232"/>
			</g>
		</g>
		<g>
			<path class="st3" d="M356.5,308.3l-144.1,43.6c-19,5.7-34.6-6.8-34.8-28.1l0-2.2c-0.2-21.3,15-43.1,34-48.9l144.1-43.6
				c19-5.7,34.6,6.8,34.8,28.1l0,2.2C390.6,280.7,375.4,302.6,356.5,308.3z"/>
			<path class="st4" d="M211.3,344.6c-14.9,4.5-27.1-6.2-27.3-23.8c-0.2-17.6,11.8-35.7,26.6-40.2l146-44.2
				c14.9-4.5,27.1,6.2,27.3,23.8s-11.8,35.7-26.6,40.2L211.3,344.6z"/>
			
				<ellipse transform="matrix(0.4154 -0.9096 0.9096 0.4154 -161.217 374.6726)" class="st5" cx="210.9" cy="312.8" rx="34.5" ry="25.2"/>
			<path class="st6" d="M212.9,332.7c-11,4.6-20.3-3.5-19.3-16.8c0.7-9.9,7.2-19.7,15.3-23.1c11-4.6,20.3,3.5,19.3,16.8
				C227.5,319.5,221,329.3,212.9,332.7z"/>
			
				<ellipse transform="matrix(0.4154 -0.9096 0.9096 0.4154 -35.4816 481.7813)" class="st5" cx="357.1" cy="268.5" rx="34.5" ry="25.2"/>
			
				<ellipse transform="matrix(0.4137 -0.9104 0.9104 0.4137 -35.0728 482.5318)" class="st6" cx="357.1" cy="268.5" rx="22.1" ry="16.2"/>
			
				<ellipse transform="matrix(0.4154 -0.9096 0.9096 0.4154 -98.3493 428.227)" class="st5" cx="284" cy="290.6" rx="34.5" ry="25.2"/>
			
				<ellipse transform="matrix(0.4137 -0.9104 0.9104 0.4137 -98.0854 428.958)" class="st6" cx="284" cy="290.6" rx="22.1" ry="16.2"/>
		</g>
	</g>
	<g>
		<circle class="st15" cx="114.8" cy="30.2" r="30.2"/>
		<path class="st3" d="M128.3,3.2c-2.2-1.1-4.6-2-7.2-2.5c-14.3,0-26.3,12.6-26.3,27.1c0,14.5,10.7,32,26.3,32
			c2.5-0.5,4.9-1.4,7.2-2.5c-10.8,0-21-13.6-21-27C107.3,16.8,118.8,3.2,128.3,3.2z"/>
	</g>
	<g>
		<g>
			<g>
				<g>
					<path class="st12" d="M19.6,99.8C7,93.2,15.6,79.2,38.8,68.6c23.2-10.5,52.4-13.7,65.1-7l-14.6,6.6C81,63.9,61.9,66,46.8,72.8
						c-15.2,6.9-20.8,16-12.5,20.3L19.6,99.8z"/>
				</g>
			</g>
			<path class="st12" d="M27.6,82.9l7.3-10l30.2-10.1l25.1,1.5L78,25.6c0,0-26.5-0.9-26.9-0.8C50.8,25,20.3,37.3,20.3,37.3
				s-7.4,15-7,15.4C13.8,53,27.6,82.9,27.6,82.9z"/>
			<polygon class="st7" points="14,93.9 3,55.2 11.5,53.1 19.7,99.6 			"/>
			<g>
				<g>
					<path class="st8" d="M8.6,61.4c-12.7-6.7-4.1-20.6,19.2-31.2c23.2-10.5,52.4-13.7,65.1-7l-14.6,6.6c-8.3-4.3-27.3-2.3-42.5,4.6
						S15,50.5,23.2,54.8L8.6,61.4z"/>
				</g>
			</g>
			<polygon class="st9" points="34.6,93.1 19.7,99.6 8.3,61.3 23.2,54.8 			"/>
		</g>
		<ellipse transform="matrix(0.9648 -0.263 0.263 0.9648 -13.7715 28.9171)" class="st5" cx="101.1" cy="65.9" rx="15.2" ry="5.9"/>
		<polygon class="st3" points="75.4,31.7 86.5,70.2 115.9,62.1 104.7,23.4 		"/>
		<g>
			<polygon class="st9" points="92.7,32.9 103.3,71.1 114.6,69.9 104.7,32.8 			"/>
			<path class="st12" d="M131.2,73.4L131.2,73.4L120,33.7l-8.8,6.2L96.9,54.4l-21,9.6l-31.3,5.9l11.1,38.4
				c21.6,1.4,51.6-7.6,66.9-20C129.2,82.8,132,77.6,131.2,73.4z"/>
			<g>
				<g>
					<path class="st8" d="M44.5,69.9c21.6,1.4,51.6-7.6,66.9-20c15.3-12.4,10.2-23.6-11.3-24.9l-9.7,7.8c14.1,0.9,17.4,8.2,7.4,16.3
						S68.3,63,54.2,62.1L44.5,69.9z"/>
				</g>
			</g>
		</g>
		<ellipse transform="matrix(0.9648 -0.263 0.263 0.9648 -4.0662 24.6565)" class="st15" cx="90.1" cy="27.5" rx="15.2" ry="5.9"/>
	</g>
	<g>
		<g>
			<polygon class="st9" points="156.4,248.2 125,240.6 139.9,213.2 171.2,220.9 			"/>
			<g>
				<defs>
					<polygon id="SVGID_00000141433308692060100160000001021603282907880607_" points="156.4,248.2 126.2,240.9 140.7,214.4 
						170.8,221.7 					"/>
				</defs>
				<clipPath id="SVGID_00000018919204474306179310000006667677215006605962_">
					<use xlink:href="#SVGID_00000141433308692060100160000001021603282907880607_"  style="overflow:visible;"/>
				</clipPath>
				<polygon style="clip-path:url(#SVGID_00000018919204474306179310000006667677215006605962_);fill:#C5E6F9;" points="
					158.7,251.7 122.1,242.9 138.3,210.9 174.9,219.7 				"/>
				
					<path style="clip-path:url(#SVGID_00000018919204474306179310000006667677215006605962_);fill:none;stroke:#0071BC;stroke-width:2.1785;stroke-miterlimit:10;" d="
					M132.7,226.2c0.9-1.5,2.7-2.4,4.5-2.3s3.4,1.2,4,2.8c0.6,1.6,0.1,3.4,0.1,5.1c0,1.7,0.9,3.7,2.7,3.9c1.9,0.2,3.3-1.6,4.3-3.1
					c1-1.5,2.6-3.3,4.5-2.9c1.3,0.3,2,1.6,2.3,2.8c0.3,1.2,0.3,2.5,0.9,3.6c0.9,1.7,3.3,2.5,5.2,1.8c1.9-0.6,6-2.7,5.7-4.6"/>
			</g>
		</g>
		<g>
			<polygon class="st9" points="146.6,200.9 155.6,203.3 168.8,179.7 159.7,177.2 			"/>
			<g>
				<defs>
					<polygon id="SVGID_00000085941930247530702440000013738470321139854015_" points="148.2,201.3 155.7,203.3 168.2,180.7 
						160.7,178.7 					"/>
				</defs>
				<clipPath id="SVGID_00000017492548730581189370000004648923189197115302_">
					<use xlink:href="#SVGID_00000085941930247530702440000013738470321139854015_"  style="overflow:visible;"/>
				</clipPath>
				<polygon style="clip-path:url(#SVGID_00000017492548730581189370000004648923189197115302_);fill:#273844;" points="
					157.3,204.7 145.7,201.6 159.2,177.2 170.8,180.3 				"/>
				<polygon style="clip-path:url(#SVGID_00000017492548730581189370000004648923189197115302_);fill:#A3642B;" points="
					150.9,189.8 164.8,193.5 170.9,182.6 156.9,178.9 				"/>
				<polygon style="clip-path:url(#SVGID_00000017492548730581189370000004648923189197115302_);fill:#E8863D;" points="
					151.4,188.8 165.4,192.5 173.3,178.3 159.3,174.5 				"/>
			</g>
		</g>
		<g>
			<polygon class="st9" points="170.2,206.7 179.3,209.1 192.5,185.4 183.4,183 			"/>
			<g>
				<defs>
					<polygon id="SVGID_00000062912888625537527950000012518121548346267070_" points="171.8,207.1 179.4,209.1 191.9,186.5 
						184.4,184.5 					"/>
				</defs>
				<clipPath id="SVGID_00000147900149516435924150000016510408910771830712_">
					<use xlink:href="#SVGID_00000062912888625537527950000012518121548346267070_"  style="overflow:visible;"/>
				</clipPath>
				<polygon style="clip-path:url(#SVGID_00000147900149516435924150000016510408910771830712_);fill:#273844;" points="
					180.9,210.5 169.3,207.3 182.9,183 194.5,186.1 				"/>
				<polygon style="clip-path:url(#SVGID_00000147900149516435924150000016510408910771830712_);fill:#A3642B;" points="
					174.5,195.5 188.5,199.3 194.6,188.4 180.6,184.6 				"/>
				<polygon style="clip-path:url(#SVGID_00000147900149516435924150000016510408910771830712_);fill:#E8863D;" points="
					175.1,194.5 189.1,198.3 197,184 183,180.3 				"/>
			</g>
		</g>
		<g>
			<path class="st3" d="M181,218.6L181,218.6L181,218.6C181,218.5,181,218.5,181,218.6l-1.4-1.1l-0.3,0.4c-1.9-0.2-4,1.1-4.8,3.3
				c-0.4,1.1-0.4,2.1,0,3l-0.3,0.4l1.3,1l0,0c0.3,0.2,0.7,0.4,1.1,0.5c2,0.5,4.3-1,5.1-3.2C182.4,221.1,182.1,219.5,181,218.6z"/>
			<ellipse transform="matrix(0.605 -0.7962 0.7962 0.605 -106.0499 228.2125)" class="st15" cx="177" cy="221" rx="4.4" ry="3.6"/>
		</g>
		<g>
			<path class="st3" d="M139.4,206.3L139.4,206.3L139.4,206.3C139.3,206.2,139.3,206.2,139.4,206.3l-1.4-1.1l-0.3,0.4
				c-1.9-0.2-4,1.1-4.8,3.3c-0.4,1.1-0.4,2.1,0,3l-0.3,0.4l1.3,1l0,0c0.3,0.2,0.7,0.4,1.1,0.5c2,0.5,4.3-1,5.1-3.2
				C140.7,208.8,140.4,207.2,139.4,206.3z"/>
			
				<ellipse transform="matrix(0.605 -0.7962 0.7962 0.605 -112.712 190.1561)" class="st15" cx="135.3" cy="208.7" rx="4.4" ry="3.6"/>
		</g>
	</g>
</g>
</svg>
