<?xml version="1.0" encoding="utf-8"?>
<!-- Generator: Adobe Illustrator 26.3.1, SVG Export Plug-In . SVG Version: 6.00 Build 0)  -->
<svg version="1.1" id="Layer_1" xmlns="http://www.w3.org/2000/svg" xmlns:xlink="http://www.w3.org/1999/xlink" x="0px" y="0px"
	 viewBox="0 0 215.5 383.3" style="enable-background:new 0 0 215.5 383.3;" xml:space="preserve">
<style type="text/css">
	.st0{fill:#B8C1CA;}
	.st1{fill:#F4F4F4;}
	.st2{fill:#DDDDDD;}
	.st3{fill:#B89A20;}
	.st4{fill:#E6C815;}
	.st5{fill:#324F6B;}
	.st6{fill:#3F6C91;}
	.st7{fill:#4AA6C0;}
	.st8{fill:#2F6E91;}
	.st9{fill:none;stroke:#2F6E91;stroke-width:2;stroke-miterlimit:10;}
	.st10{clip-path:url(#SVGID_00000052815561628945319610000005129705611289424780_);fill:#C5E6F9;}
	.st11{clip-path:url(#SVGID_00000052815561628945319610000005129705611289424780_);fill:#4AA6C0;}
	.st12{clip-path:url(#SVGID_00000052815561628945319610000005129705611289424780_);}
	.st13{fill:#D82577;}
	.st14{fill:none;stroke:#808285;stroke-miterlimit:10;}
	.st15{fill:#185068;}
	.st16{fill:#C5E6F9;}
	.st17{fill:#231F20;}
</style>
<g>
	<g>
		<g>
			<polygon class="st0" points="24.8,232.2 19.6,230.7 20.3,240.4 25.6,243.9 			"/>
			<polygon class="st1" points="26.8,230.9 24.8,232.2 25.6,243.9 18.9,251.5 20.5,252.6 27.5,244.3 			"/>
			<polygon class="st2" points="18.9,251.5 15.6,246 20.3,240.4 25.6,243.9 			"/>
		</g>
		<circle class="st3" cx="17.2" cy="227.8" r="10"/>
		<g>
			<polygon class="st0" points="6.2,246.1 7.5,243.4 4.7,233.5 2.3,236.2 			"/>
			<polygon class="st1" points="7.4,225.9 0,236 3.6,247 6.2,246.1 3.2,236.5 9.7,228.4 			"/>
			<polygon class="st0" points="3.2,236.5 5.3,234.8 9.3,229.9 9.7,228.4 			"/>
		</g>
		<g>
			<polygon class="st1" points="11.7,230.4 21.1,232.8 19.7,243.7 7.3,239.9 			"/>
			<polyline class="st2" points="18.9,243.4 19.7,243.7 16,251.5 6.1,248.8 7.3,239.9 18.9,243.4 			"/>
		</g>
	</g>
	<g>
		<g>
			<polygon class="st0" points="189.7,244.5 195.4,243.4 193.7,253.6 187.8,256.7 			"/>
			<polygon class="st1" points="187.9,242.9 189.7,244.5 187.8,256.7 194.1,265.4 192.2,266.4 185.7,256.9 			"/>
			<polygon class="st2" points="194.1,265.4 198,259.9 193.7,253.6 187.8,256.7 			"/>
		</g>
		<circle class="st3" cx="198.2" cy="240.6" r="10.6"/>
		<g>
			<polygon class="st0" points="207.9,261 206.9,258 210.8,247.9 213.1,251 			"/>
			<polygon class="st1" points="208.7,239.6 215.5,251 210.6,262.2 207.9,261 212.1,251.2 206.1,242.1 			"/>
			<polygon class="st0" points="212.1,251.2 210.1,249.2 206.4,243.6 206.1,242.1 			"/>
		</g>
		<g>
			<polygon class="st1" points="203.8,243.9 193.6,245.5 194,257 207.4,254.3 			"/>
			<polyline class="st2" points="194.9,256.9 194,257 197.1,265.6 207.8,263.8 207.4,254.3 194.9,256.9 			"/>
		</g>
	</g>
	<g>
		<g>
			<g>
				<g>
					<path class="st4" d="M50.1,143.8c0.8-0.5,1.7-0.7,2.7-0.5c1,0.1,2,0.5,3,1.2c1,0.6,1.9,1.6,2.7,2.7c0.8,1.1,1.4,2.4,1.8,3.9
						c0.4,1.5,0.7,2.9,1.1,4.1c0.3,1.3,0.5,2.5,0.6,3.5c0.1,1.1,0.1,1.9,0.1,2.6c-0.1,0.7-0.3,1.2-0.7,1.4L50.1,143.8z"/>
				</g>
				<g>
					<g>
						<path class="st4" d="M31.9,161c2.4-3.2,5-6.3,8-9.2l2.3-2.1c0.8-0.7,1.7-1.4,2.5-2c0.8-0.7,1.7-1.3,2.6-2
							c0.9-0.6,1.8-1.3,2.8-1.8l11.3,18.8c-0.5,0.3-1,0.7-1.6,1c-0.5,0.3-1.1,0.8-1.6,1.2c-0.5,0.4-1.1,0.8-1.6,1.3l-1.5,1.4
							c-2,2-3.9,4.2-5.7,6.6L31.9,161z"/>
					</g>
					<g>
						<path class="st3" d="M59.9,163.6c-0.2,0.2-0.4,0.4-0.6,0.5c-0.2,0.2-0.5,0.3-0.7,0.5c-0.5,0.3-1.1,0.5-1.7,0.7
							c-1.2,0.3-2.5,0.5-3.9,0.3c-0.7-0.1-1.4-0.2-2.1-0.4c-0.7-0.2-1.4-0.4-2-0.7c-1.3-0.6-2.5-1.4-3.6-2.3c-1-1-1.9-2.2-2.5-3.5
							c-0.6-1.4-0.9-2.9-0.8-4.4c0.1-1.6,0.6-3.3,1.5-4.8c0.5-0.7,1.1-1.4,1.8-2.1c0.3-0.3,0.7-0.6,1-0.9c0.4-0.3,0.8-0.5,1.2-0.7
							c-2.9,2.4-4.2,5.5-4.1,8.2c0.1,2.7,1.3,5.1,3.1,6.9c1.8,1.8,4.2,3,6.6,3.5C55.5,164.7,57.9,164.5,59.9,163.6z"/>
					</g>
				</g>
				<g>
					<g>
						<path class="st4" d="M20.2,181.1l2.4-5.2l2.8-5.1c0.5-0.8,0.9-1.7,1.5-2.5l1.6-2.5c1.1-1.6,2.1-3.3,3.4-4.9l17.5,13.2
							c-1,1.1-1.7,2.5-2.6,3.7l-1.3,1.9c-0.4,0.6-0.8,1.3-1.2,2l-2.3,4.1l-2,4.3L20.2,181.1z"/>
					</g>
					<g>
						<path class="st3" d="M48.1,175.9c-0.5,1.2-1.4,2.2-2.6,2.9c-1.2,0.7-2.4,1.3-3.8,1.6c-2.8,0.6-5.8,0.1-8.4-1.2
							c-2.5-1.4-4.6-3.7-5.4-6.7c-0.4-1.5-0.5-3.2,0-4.8c0.4-1.6,1.2-3.2,2.3-4.4c-0.8,1.5-1.2,3-1.4,4.5c-0.1,0.7-0.1,1.4,0,2.1
							c0.1,0.7,0.3,1.4,0.5,2c0.9,2.5,2.7,4.5,4.9,5.7c2.2,1.2,4.8,1.7,7.3,1.5c0.6-0.1,1.2-0.2,1.8-0.4c0.6-0.2,1.2-0.4,1.8-0.6
							C46.3,177.6,47.3,176.8,48.1,175.9z"/>
					</g>
				</g>
				<g>
					<g>
						<path class="st4" d="M12.5,202.2l1.7-5.3c0.6-1.8,1.1-3.6,1.8-5.3l2-5.3c0.4-0.9,0.6-1.8,1.1-2.6l1.2-2.6l19.9,9.1l-1,2.2
							c-0.3,0.7-0.6,1.5-0.9,2.2l-1.7,4.5c-0.6,1.5-1.1,3.1-1.6,4.6l-1.5,4.7L12.5,202.2z"/>
					</g>
					<g>
						<path class="st3" d="M39.2,192.2c-0.4,1.3-1,2.6-2,3.6c-1,1-2.2,1.8-3.6,2.4c-2.8,1.1-5.8,1.2-8.5,0.3
							c-2.7-0.9-5.2-2.9-6.4-5.7c-0.6-1.4-0.9-3-0.9-4.6c0.1-1.6,0.5-3.2,1.3-4.6c-0.9,3.1-0.5,6.1,0.8,8.4c1.3,2.3,3.4,3.9,5.8,4.7
							c2.4,0.8,5.1,0.9,7.5,0.2C35.7,196.2,37.8,194.6,39.2,192.2z"/>
					</g>
				</g>
				<g>
					<g>
						<path class="st4" d="M7.5,223.7c1.2-7.2,3-14.3,5-21.5l21,6.1c-1.8,6.3-3.3,12.7-4.5,19.3L7.5,223.7z"/>
					</g>
					<g>
						<path class="st3" d="M32.8,210.6c-0.2,1.4-0.7,2.7-1.5,3.9c-0.8,1.2-2,2.2-3.3,2.9c-2.6,1.4-5.7,1.8-8.5,1.3
							c-2.8-0.6-5.4-2.3-7-4.9c-0.8-1.3-1.3-2.8-1.5-4.4c-0.1-1.6,0.1-3.2,0.6-4.6c-0.4,3.1,0.3,6,1.9,8.1c1.6,2.1,3.9,3.5,6.3,4
							c2.4,0.6,5.1,0.3,7.5-0.7C29.9,215.1,31.8,213.2,32.8,210.6z"/>
					</g>
				</g>
				<g>
					<path class="st4" d="M7.5,223.7c-0.6,2.9,3.8,6.1,9.8,7c6,0.9,11.2-0.4,11.7-3L7.5,223.7z"/>
				</g>
			</g>
		</g>
	</g>
	<path class="st5" d="M67.6,141c6.8,3.5,6.6,23.1,3.4,30.4c-1.5,3.3-5.2,8.9-11.8,9.4c-2.2,0.2-4.8-0.1-7.7-1.5
		c-15.3-7.5-17.7-19.7-17.2-28.4c0.4-6.1,5-11.1,11-11.9C52.1,137.9,61.1,137.6,67.6,141z"/>
	<g>
		<path class="st5" d="M57,367.2c0,0,5.4,2,14-0.2c8.1-2,11.6-6.2,11.6-6.2l-22.1-88.4c0,0-5.1-2.1-13.1,0
			c-8.6,2.2-12.5,6.4-12.5,6.4L57,367.2z"/>
		<ellipse transform="matrix(0.9702 -0.2423 0.2423 0.9702 -76.521 21.7455)" class="st5" cx="50.2" cy="322" rx="21.4" ry="46.6"/>
		
			<ellipse transform="matrix(0.9702 -0.2423 0.2423 0.9702 -74.9568 25.8134)" class="st6" cx="67.5" cy="317.7" rx="21.4" ry="46.6"/>
	</g>
	<g>
		<path class="st5" d="M71.9,326.2c13-16.9,29.8-25,29.9-25.1c0,0,2.6-3.8-0.1-9.5c-2.7-5.6-7.1-5.9-7.1-5.9
			c-0.8,0.4-15.9,7.6-30.1,22.9c-5.1,5.5-4.2,14.2,2,18.5l0,0C68.2,328.3,70.6,327.9,71.9,326.2z"/>
	</g>
	<g>
		<path class="st7" d="M154,286.4c0,26.2-21.2,47.4-47.4,47.4s-47.4-21.2-47.4-47.4C78.8,286.4,131.1,286.4,154,286.4z"/>
		<ellipse class="st8" cx="106.7" cy="286.4" rx="47.3" ry="11.3"/>
	</g>
	<g>
		<path class="st7" d="M155.1,281.3c0,0-8.1,11.9-48.1,12c-40.5,0-48.8-12-48.8-12s-17.4-55.2-17.4-75c0-17.6,16.1-70.3,16.1-70.3
			s9.6-10.6,49.1-10.6c40.5,0,50.4,10.6,50.4,10.6s16.1,52.8,16.1,70.3C172.5,226,155.1,281.3,155.1,281.3z"/>
		<path class="st9" d="M90.5,139.5c0,0-14.2,48.9-14.2,76.5c0,24.6,9.3,76.1,9.3,76.1"/>
		<ellipse class="st8" cx="106.6" cy="140.1" rx="43.9" ry="12.7"/>
	</g>
	<g>
		<g>
			<defs>
				<path id="SVGID_1_" d="M155.1,55.3L121.3,30c-9-6.8-21.5-6.7-30.5,0.2L58,55.3c-8.3,6.4-11.8,17.3-8.8,27.4L66.1,134
					c0,0,11.3,12.2,39.5,12.3c29.5,0.1,41.5-12.3,41.5-12.3l16.9-51.1C167.2,72.7,163.6,61.7,155.1,55.3z"/>
			</defs>
			<clipPath id="SVGID_00000016070651184180444800000015269764829506678694_">
				<use xlink:href="#SVGID_1_"  style="overflow:visible;"/>
			</clipPath>
			<polygon style="clip-path:url(#SVGID_00000016070651184180444800000015269764829506678694_);fill:#C5E6F9;" points="102.3,13.9 
				30,61 67.8,154.5 147.5,160.5 176,70.3 			"/>
			<path style="clip-path:url(#SVGID_00000016070651184180444800000015269764829506678694_);fill:#4AA6C0;" d="M171.5,61.6
				c0,10.5-29,17.9-64.9,17.9s-64.9-7.5-64.9-17.9s29-40.3,64.9-40.3S171.5,51.2,171.5,61.6z"/>
			<g style="clip-path:url(#SVGID_00000016070651184180444800000015269764829506678694_);">
				<g>
					<path class="st13" d="M47.6,100.7c2.4,2.5,5.1,4.7,7.9,6.7c1.3,0.9,2.6,1.7,4,2.5c1.4,0.8,3,1.8,4.7,2.1c3,0.5,6.1-0.8,7.9-3.1
						c0.8-1,1.6-2.1,2.8-2.5c1.1-0.3,1.6,1,1.8,1.7c1.3,4,0.9,8.6,2.8,12.5c0.8,1.8,2.4,3.1,4.5,3.1c2.4,0,4.2-1.6,5.1-3.7
						c1-2.2,1.4-4.7,1.7-7.1c0.1-1.1,0.2-2.2,0.7-3.2c0.4-0.8,1.2-2.1,2.2-2.2c2.2-0.2,2.6,5.3,2.8,6.7c0.6,3,1.8,5.9,4.5,7.6
						c2.4,1.4,5.4,1.7,7.9,0.7c2.9-1.2,4.5-3.7,6.3-6.1c1.8-2.3,3.9-3.4,6.7-3.8c3-0.4,6-0.2,9.1-0.4c12.8-1,26.3-5.8,34-16.7
						c1.5-2.1-2-4.1-3.5-2c-6.3,9-17.6,13.2-28.2,14.5c-2.9,0.3-5.7,0.4-8.6,0.5c-3,0.1-6.2,0.4-8.9,2c-2.5,1.5-3.9,3.9-5.7,6.1
						c-1.6,1.9-3.5,3.1-6,2.4c-2.7-0.8-3.4-3.2-3.9-5.7c-0.5-2.8-0.8-6.2-3.2-8.3c-2.4-2.1-5.6-1.5-7.6,0.7
						c-1.9,2.1-2.4,4.5-2.8,7.2c-0.3,2-0.6,4.2-1.6,5.9c-0.2,0.3-0.5,0.7-0.6,0.7c-0.2,0.2-0.5,0.2-0.5,0.2c0,0-0.7,0.1-0.3,0
						c0,0-0.7-0.1-0.2,0c-0.1,0-0.2-0.1-0.3-0.2c0.4,0.4-0.3-0.5,0,0c-0.9-1.4-1.2-3.2-1.5-5c-0.3-2.1-0.5-4.2-1.1-6.3
						c-0.7-2.8-2.4-6.1-5.9-5.8c-1.7,0.1-3.3,1.1-4.6,2.3c-1,1-1.7,2.3-2.9,3c-1.2,0.7-2.5,0.6-3.8,0.1c-1.7-0.8-3.3-1.7-4.8-2.7
						c-3.1-2-5.9-4.3-8.5-7C48.7,96,45.8,98.9,47.6,100.7L47.6,100.7z"/>
				</g>
			</g>
		</g>
	</g>
	<g>
		<path class="st5" d="M162.4,346.1c-13-16.9-29.8-25-29.9-25.1c0,0-2.6-3.8,0.1-9.5c2.7-5.6,7.1-5.9,7.1-5.9
			c0.8,0.4,15.9,7.6,30.1,22.9c5.1,5.5,4.2,14.2-2,18.5l0,0C166.1,348.2,163.7,347.8,162.4,346.1z"/>
	</g>
	<g>
		
			<ellipse transform="matrix(0.2423 -0.9702 0.9702 0.2423 -207.3836 400.3575)" class="st5" cx="152.6" cy="333" rx="46.6" ry="21.4"/>
		<path class="st5" d="M163,382.5c0,0-5.4,2-14-0.2c-8.1-2-11.6-6.2-11.6-6.2l22.1-88.4c0,0,5.1-2.1,13.1,0
			c8.6,2.2,12.5,6.4,12.5,6.4L163,382.5z"/>
		
			<ellipse transform="matrix(0.2423 -0.9702 0.9702 0.2423 -198.4558 420.4406)" class="st6" cx="169.9" cy="337.3" rx="46.6" ry="21.4"/>
	</g>
	<g>
		<path class="st5" d="M156.1,147.3c-7.5,1.8-11.9,20.9-10.5,28.7c0.7,3.6,3,9.9,9.3,11.9c2.1,0.7,4.7,1.1,7.8,0.3
			c15.3-3.8,20.9-20.1,22.8-28.6c0.7-3.2-0.9-6.4-3.9-7.7C175.5,149.1,164.7,145.2,156.1,147.3z"/>
		<path class="st5" d="M162.8,188.2c15.3-3.8,20.9-20.1,22.8-28.6c0.4-2,0-3.9-1.1-5.5c-1.6,0-3.4,0.1-5,0.5
			c-3.5,1-15.6,5.5-21.2,16.1c-3.8,7.1-4,13.7-3.6,17c0.1,0,0.3,0.1,0.4,0.1C157.1,188.6,159.7,189,162.8,188.2z"/>
		<g>
			<g>
				<g>
					<g>
						<path class="st4" d="M152.3,177.7c-0.4-0.2-0.7-0.7-0.8-1.4c-0.1-0.6-0.1-1.5,0-2.6c0.1-1,0.3-2.2,0.5-3.5
							c0.3-1.3,0.6-2.7,0.9-4.2c0.4-1.5,0.9-2.8,1.7-3.9c0.7-1.1,1.6-2.1,2.6-2.8c0.9-0.7,1.9-1.1,2.9-1.3c1-0.1,1.9,0,2.7,0.4
							L152.3,177.7z"/>
					</g>
					<g>
						<g>
							<path class="st4" d="M164.7,188.8c-1.9-2.3-3.9-4.5-6-6.4l-1.6-1.4c-0.5-0.5-1.1-0.8-1.6-1.2c-0.5-0.4-1.1-0.8-1.6-1.1
								c-0.5-0.3-1.1-0.7-1.6-1l10.6-19.2c1.1,0.5,1.9,1.2,2.9,1.7c1,0.6,1.8,1.2,2.7,1.9c0.8,0.6,1.8,1.3,2.5,1.9l2.4,2.1
								c3.1,2.8,5.8,5.8,8.3,8.9L164.7,188.8z"/>
						</g>
						<g>
							<path class="st3" d="M165.6,160.2c0.4,0.2,0.8,0.4,1.2,0.7c0.4,0.3,0.7,0.6,1.1,0.9c0.7,0.6,1.3,1.3,1.8,2
								c1,1.5,1.5,3.2,1.7,4.7c0.2,1.6-0.1,3.1-0.7,4.5c-0.6,1.4-1.4,2.6-2.4,3.6c-1,1-2.2,1.8-3.5,2.5c-0.6,0.3-1.3,0.6-2,0.8
								c-0.7,0.2-1.4,0.4-2.1,0.5c-1.4,0.2-2.7,0.1-3.9-0.1c-0.6-0.1-1.2-0.3-1.7-0.6c-0.3-0.1-0.5-0.3-0.7-0.5
								c-0.2-0.1-0.4-0.3-0.6-0.5c2,0.9,4.4,1,6.8,0.4c2.4-0.6,4.8-2,6.5-3.8c1.8-1.8,2.9-4.2,2.8-7
								C170,165.5,168.5,162.5,165.6,160.2z"/>
						</g>
					</g>
					<g>
						<g>
							<path class="st4" d="M174.5,204.5l-2.2-4.2l-2.4-4c-0.4-0.7-0.8-1.4-1.2-2l-1.3-1.9c-0.9-1.2-1.7-2.5-2.7-3.6l17-13.8
								c1.3,1.5,2.4,3.1,3.6,4.7l1.7,2.4c0.6,0.8,1,1.6,1.5,2.5l3,5l2.6,5.1L174.5,204.5z"/>
						</g>
						<g>
							<path class="st3" d="M183.4,177.2c1.1,1.2,2,2.7,2.4,4.3c0.5,1.6,0.5,3.3,0.1,4.8c-0.7,3.1-2.6,5.4-5.1,6.9
								c-2.5,1.4-5.5,2-8.4,1.5c-1.4-0.2-2.7-0.8-3.9-1.5c-1.2-0.7-2.1-1.7-2.7-2.8c0.9,0.9,1.9,1.7,3.1,2.1
								c0.6,0.2,1.2,0.4,1.8,0.6c0.6,0.1,1.2,0.3,1.8,0.3c2.5,0.2,5.1-0.4,7.2-1.8c2.2-1.3,3.9-3.3,4.7-5.9c0.2-0.6,0.4-1.3,0.4-2
								c0-0.7,0-1.4-0.1-2.1C184.8,180.2,184.3,178.7,183.4,177.2z"/>
						</g>
					</g>
					<g>
						<g>
							<path class="st4" d="M181.8,222.4l-1.6-4.6c-0.5-1.5-1.1-3.1-1.7-4.6l-1.9-4.4c-0.3-0.7-0.6-1.5-1-2.2l-1.1-2.1l19.6-9.8
								l1.3,2.5c0.4,0.8,0.8,1.7,1.1,2.6l2.2,5.2c0.8,1.7,1.4,3.5,2,5.2l1.9,5.3L181.8,222.4z"/>
						</g>
						<g>
							<path class="st3" d="M195.3,197.1c0.9,1.3,1.3,3,1.4,4.6c0.1,1.6-0.1,3.2-0.7,4.6c-1.1,2.8-3.5,4.9-6.2,5.9
								c-2.7,1-5.7,1-8.5,0c-1.4-0.5-2.7-1.2-3.7-2.2c-1-1-1.7-2.2-2.1-3.5c1.4,2.3,3.6,3.9,6.1,4.5c2.5,0.6,5.2,0.4,7.5-0.5
								c2.3-0.9,4.4-2.6,5.6-5C196,203.2,196.3,200.1,195.3,197.1z"/>
						</g>
					</g>
					<g>
						<g>
							<path class="st4" d="M187,241.5c-1.4-6.5-3.2-12.9-5.2-19.1l20.8-6.9c2.3,7,4.3,14.1,5.8,21.3L187,241.5z"/>
						</g>
						<g>
							<path class="st3" d="M203.4,218c0.6,1.4,0.9,3,0.8,4.6c-0.1,1.6-0.6,3.1-1.3,4.4c-1.5,2.6-4,4.4-6.8,5.1
								c-2.8,0.7-5.9,0.4-8.5-1c-1.3-0.7-2.5-1.6-3.4-2.7c-0.9-1.1-1.4-2.5-1.6-3.9c1.1,2.6,3.1,4.4,5.5,5.4
								c2.4,0.9,5.1,1.1,7.5,0.4c2.4-0.6,4.7-2.1,6.2-4.2C203.3,224,203.9,221.1,203.4,218z"/>
						</g>
					</g>
					<g>
						<path class="st4" d="M187,241.5c0.6,2.6,5.9,3.8,11.8,2.6c5.9-1.2,10.2-4.5,9.6-7.4L187,241.5z"/>
					</g>
				</g>
			</g>
		</g>
		<path class="st6" d="M158.2,170.8c5.6-10.6,17.8-15.1,21.2-16.1c1.6-0.4,3.4-0.6,5-0.5c-0.7-1-1.6-1.8-2.8-2.3
			c-6.1-2.8-17-6.7-25.5-4.6c-7.5,1.8-11.9,20.9-10.5,28.7c0.6,3.5,2.9,9.6,8.9,11.8C154.2,184.5,154.4,177.9,158.2,170.8z"/>
	</g>
	<g>
		<g>
			<path class="st14" d="M67.1,7.4c0,0,21.5,4,22.5,24.6"/>
			<g>
				<path class="st15" d="M56.5,21.4l-4.8,0l-1.7-5.6c0.4-0.7,4.1-7.4,12.4-12C71-1,78.4,0.1,78.7,0.1l-0.9,9.9
					c0,0-5.7-0.7-12.2,2.9C59.3,16.4,56.5,21.3,56.5,21.4z"/>
			</g>
			<polygon class="st15" points="77.1,0 71.8,0 73.1,1.4 			"/>
			<g>
				<path class="st8" d="M51.7,21.4l-6.4-5.6c0.4-0.7,4.1-7.4,12.4-12C66.2-1,73.6,0.1,73.9,0.1L73,10.1c0,0-5.7-0.7-12.2,2.9
					C54.5,16.4,51.8,21.3,51.7,21.4z"/>
			</g>
		</g>
		<polygon class="st8" points="131.8,50.4 133.5,39.1 125.4,32.3 		"/>
		<g>
			<path class="st14" d="M120.5,12.6c0,0,12.1,6.6,13.1,27.2"/>
			<g>
				<path class="st15" d="M129.2,26.5l6.4-5.6c-0.4-0.7-4.1-7.4-12.4-12c-8.5-4.7-15.9-3.7-16.2-3.6l-2,6.7l2.9,3.2
					c0,0,5.7-0.7,12.2,2.9C126.4,21.5,129.2,26.4,129.2,26.5z"/>
			</g>
			<polygon class="st15" points="126.3,23.3 130.4,18.1 129.2,26.5 			"/>
			<g>
				<path class="st8" d="M126.3,23.3l6.4-5.6c-0.4-0.7-4.1-7.4-12.4-12C111.8,0.9,104.5,2,104.1,2l0.9,9.9c0,0,5.7-0.7,12.2,2.9
					C123.5,18.2,126.3,23.2,126.3,23.3z"/>
			</g>
		</g>
		<g>
			<ellipse class="st16" cx="114.8" cy="47" rx="15.9" ry="17.3"/>
			<path class="st7" d="M125.1,59.8l-20.3,0.3c0,0,2.2,4.9,9.5,4.5S123.2,62.7,125.1,59.8z"/>
			<path class="st5" d="M97.5,47c0-10.3,7.7-18.8,17.3-18.8S132,36.7,132,47s-7.7,18.8-17.3,18.8S97.5,57.4,97.5,47z M100.3,47
				c0,8.7,6.5,15.8,14.5,15.8s14.5-7.1,14.5-15.8s-6.5-15.8-14.5-15.8S100.3,38.4,100.3,47z"/>
			<ellipse class="st17" cx="114.5" cy="47.2" rx="8" ry="8.7"/>
		</g>
		<polygon class="st8" points="67.9,25.4 90.8,30.1 77.5,54.5 		"/>
		<g>
			<ellipse class="st16" cx="65.7" cy="43.9" rx="13.2" ry="17.3"/>
			<path class="st7" d="M74.3,56.7L57.4,57c0,0,1.8,4.9,7.9,4.5C71.3,61.2,72.7,59.6,74.3,56.7z"/>
			<path class="st5" d="M51.4,43.9c0-10.3,6.4-18.8,14.3-18.8S80,33.6,80,43.9s-6.4,18.8-14.3,18.8S51.4,54.3,51.4,43.9z M53.7,43.9
				c0,8.7,5.4,15.8,12,15.8c6.6,0,12-7.1,12-15.8s-5.4-15.8-12-15.8C59.1,28.2,53.7,35.3,53.7,43.9z"/>
			<ellipse class="st17" cx="65.5" cy="44.1" rx="6.6" ry="8.7"/>
		</g>
	</g>
</g>
</svg>
