<?xml version="1.0" encoding="utf-8"?>
<!-- Generator: Adobe Illustrator 26.3.1, SVG Export Plug-In . SVG Version: 6.00 Build 0)  -->
<svg version="1.1" id="Layer_1" xmlns="http://www.w3.org/2000/svg" xmlns:xlink="http://www.w3.org/1999/xlink" x="0px" y="0px"
	 viewBox="0 0 260.2 301.8" style="enable-background:new 0 0 260.2 301.8;" xml:space="preserve">
<style type="text/css">
	.st0{fill:#B8C1CA;}
	.st1{fill:#DDDDDD;}
	.st2{fill:#2FB279;}
	.st3{fill:#F4F4F4;}
	.st4{fill:#8A96AB;}
	.st5{fill:#253C4F;}
	.st6{fill:#377475;}
	.st7{fill:#654E91;}
	.st8{clip-path:url(#SVGID_00000085944809354706057790000002912820635985755046_);fill:#7F5CA1;}
	.st9{clip-path:url(#SVGID_00000085944809354706057790000002912820635985755046_);fill:#C5E6F9;}
	
		.st10{clip-path:url(#SVGID_00000085944809354706057790000002912820635985755046_);fill:none;stroke:#324F6B;stroke-width:4;stroke-miterlimit:10;}
	.st11{clip-path:url(#SVGID_00000085944809354706057790000002912820635985755046_);fill:#654E91;}
	.st12{clip-path:url(#SVGID_00000085944809354706057790000002912820635985755046_);fill:none;stroke:#2FB279;stroke-miterlimit:10;}
	
		.st13{clip-path:url(#SVGID_00000085944809354706057790000002912820635985755046_);fill:none;stroke:#654E91;stroke-width:2;stroke-miterlimit:10;}
	.st14{clip-path:url(#SVGID_00000085944809354706057790000002912820635985755046_);fill:#DDDDDD;}
	.st15{clip-path:url(#SVGID_00000085944809354706057790000002912820635985755046_);}
	.st16{fill:#324F6B;}
	.st17{fill:none;stroke:#324F6B;stroke-width:3;stroke-miterlimit:10;}
	.st18{clip-path:url(#SVGID_00000070809559040195715640000009026902342971529602_);fill:#7F5CA1;}
	.st19{clip-path:url(#SVGID_00000070809559040195715640000009026902342971529602_);fill:none;stroke:#2FB279;stroke-miterlimit:10;}
	.st20{fill:#4C3A7F;}
	.st21{fill:#D43D40;}
	.st22{fill:none;stroke:#EF8B8F;stroke-width:3;stroke-miterlimit:10;}
</style>
<g>
	<g>
		<g>
			<g>
				<g>
					<path class="st0" d="M14.1,47.6c0.3-1.5,1.1-2.8,2.1-3.6c1.1-0.8,2.3-1.2,3.6-0.9c1.2,0.3,2.3,1,3,2c0.7,1,1.2,2.2,1.2,3.6
						L14.1,47.6z"/>
				</g>
				<g>
					<g>
						<path class="st0" d="M13.6,70.3c-0.2-1.9-0.4-3.8-0.5-5.7c-0.1-1.9-0.1-3.8-0.1-5.7c0.1-3.8,0.4-7.5,1-11.3l9.9,1
							c-0.1,3.3,0.1,6.6,0.5,9.8c0.2,1.6,0.4,3.2,0.7,4.8c0.3,1.6,0.7,3.2,1.1,4.7L13.6,70.3z"/>
					</g>
					<g>
						<path class="st1" d="M24,51c0.1,1.4,0.1,2.8-0.1,4.1c-0.2,1.3-0.5,2.5-1,3.5c-0.9,2-2.4,3.2-3.9,3.3c-1.5,0.1-3.2-0.8-4.3-3
							c-0.6-1.1-1-2.4-1.1-4c-0.2-1.5-0.1-3.2,0.2-4.7c-0.2,3.1,0.3,5.9,1.4,7.5c1,1.7,2.4,2.4,3.8,2.3c1.3-0.1,2.6-1,3.5-2.6
							C23.3,56,23.8,53.7,24,51z"/>
					</g>
				</g>
				<g>
					<g>
						<path class="st0" d="M19.9,92.7c-0.8-1.8-1.6-3.6-2.2-5.5c-0.7-1.8-1.3-3.7-1.8-5.6l-0.7-2.8L14.5,76L14,73.2l-0.4-2.9
							L26.2,68l0.7,2.3l0.7,2.3l0.8,2.2l0.9,2.2c0.6,1.4,1.3,2.9,2,4.2c0.7,1.4,1.5,2.7,2.4,4L19.9,92.7z"/>
					</g>
					<g>
						<path class="st1" d="M26.9,70.2c0.5,1.2,0.8,2.6,1,3.9c0.1,1.3,0.1,2.6-0.3,3.7c-0.6,2.2-2,3.9-3.8,4.7c-1.8,0.7-4,0.4-6-1.3
							c-0.9-0.8-1.9-2-2.5-3.5c-0.7-1.4-1.1-3.1-1.2-4.7c0.4,1.6,0.9,3,1.6,4.1c0.7,1.2,1.5,2.1,2.4,2.7c1.7,1.3,3.6,1.5,5.2,0.9
							c1.6-0.6,2.8-1.9,3.6-3.7c0.4-0.9,0.5-2,0.6-3.1C27.3,72.7,27.2,71.5,26.9,70.2z"/>
					</g>
				</g>
				<g>
					<g>
						<path class="st0" d="M33,112.4l-2-2.2c-0.7-0.7-1.3-1.5-1.9-2.3l-0.9-1.2l-0.9-1.2c-0.6-0.8-1.2-1.6-1.7-2.4l-1.6-2.5L22.5,98
							c-0.5-0.8-0.9-1.8-1.4-2.6c-0.5-0.9-0.9-1.8-1.3-2.7l13.9-7.4c0.4,0.7,0.8,1.3,1.3,1.9c0.5,0.6,0.9,1.3,1.4,1.9l1.4,1.8
							l1.5,1.7c0.5,0.6,1.1,1.1,1.6,1.7l0.8,0.8l0.8,0.8c0.6,0.5,1.1,1.1,1.7,1.6L46,99L33,112.4z"/>
					</g>
					<g>
						<path class="st1" d="M35,87.1c0.4,0.5,0.8,1,1.1,1.6c0.3,0.6,0.6,1.1,0.9,1.7c0.4,1.2,0.7,2.5,0.6,3.7c-0.1,2.4-1.2,4.7-3,6.3
							c-1.8,1.5-4.3,2.1-6.9,1.3c-1.3-0.4-2.7-1.2-3.8-2.4c-0.6-0.6-1.1-1.2-1.6-1.9c-0.5-0.7-0.8-1.5-1.2-2.2
							c0.4,0.7,0.9,1.4,1.4,1.9c0.5,0.6,1,1.1,1.6,1.5c1.1,0.9,2.3,1.4,3.4,1.7c1.1,0.2,2.2,0.2,3.2,0c1-0.2,1.9-0.7,2.7-1.3
							c0.8-0.6,1.4-1.4,1.9-2.3c0.5-0.9,0.9-1.9,1-2.9c0.2-1,0.1-2.1-0.1-3.3c-0.1-0.6-0.3-1.1-0.5-1.7C35.6,88.3,35.3,87.7,35,87.1
							z"/>
					</g>
				</g>
				<g>
					<g>
						<path class="st0" d="M53.2,127.3c-1.1-0.4-2-1-3-1.4c-1-0.5-2-1-2.9-1.6l-2.7-1.8c-0.9-0.6-1.8-1.2-2.6-1.8l-2.4-2
							c-0.8-0.7-1.6-1.3-2.3-2c-1.4-1.4-2.9-2.8-4.3-4.3L46,99c1.2,1,2.4,1.8,3.6,2.7c0.6,0.5,1.2,0.8,1.8,1.2l1.8,1.1
							c0.6,0.4,1.2,0.6,1.9,0.9l1.9,0.9c0.6,0.3,1.3,0.4,1.9,0.7c0.6,0.2,1.2,0.5,1.9,0.6L53.2,127.3z"/>
					</g>
					<g>
						<path class="st1" d="M47.7,100.3c0.6,0.3,1.1,0.7,1.5,1.1c0.5,0.4,0.9,1,1.2,1.4c0.7,1,1.2,2.2,1.4,3.5
							c0.1,0.7,0.1,1.3,0.2,1.9c0,0.6-0.1,1.3-0.2,2c-0.2,1.3-0.7,2.6-1.3,3.8c-0.7,1.2-1.6,2.2-2.7,3c-0.6,0.4-1.2,0.7-1.9,1
							c-0.7,0.3-1.4,0.4-2.1,0.5c-1.5,0.1-3.1-0.2-4.7-0.9c-0.8-0.3-1.5-0.8-2.2-1.4c-0.7-0.5-1.3-1.2-1.8-1.8
							c1.3,1.1,2.7,1.9,4.1,2.4c1.4,0.4,2.8,0.5,4.1,0.3c1.2-0.2,2.4-0.7,3.3-1.4c1-0.7,1.8-1.6,2.4-2.6c0.6-1,1.1-2.1,1.3-3.2
							c0.3-1.1,0.4-2.3,0.4-3.5c-0.1-1.2-0.3-2.3-0.8-3.3C49.2,102.2,48.6,101.2,47.7,100.3z"/>
					</g>
				</g>
				<g>
					<g>
						<path class="st0" d="M81,130c-1.2,0.3-2.4,0.5-3.6,0.7c-1.2,0.1-2.4,0.3-3.6,0.4c-1.2,0-2.4,0.1-3.6,0.1
							c-1.2-0.1-2.4-0.2-3.6-0.3c-1.2-0.1-2.3-0.4-3.5-0.5c-0.6-0.1-1.2-0.2-1.7-0.3l-1.7-0.5c-1.1-0.3-2.2-0.6-3.3-1l-3.2-1.2
							l7.5-20.2l1.8,0.4c0.6,0.2,1.2,0.2,1.8,0.3l0.9,0.1c0.3,0,0.6,0,0.9,0c0.6,0,1.2,0.1,1.7,0l1.7-0.1c0.6-0.1,1.1-0.2,1.6-0.3
							l1.6-0.4c0.5-0.2,1-0.3,1.5-0.6L81,130z"/>
					</g>
					<g>
						<path class="st1" d="M62.4,107.5c0.5,0.1,1,0.1,1.5,0.2c0.5,0.1,1,0.4,1.4,0.7c0.4,0.3,0.9,0.6,1.3,1.1c0.4,0.5,0.8,1,1.1,1.5
							c0.7,1.1,1.3,2.4,1.8,3.9c0.5,1.4,0.8,2.9,0.9,4.5c0.1,1.5-0.1,3.1-0.7,4.6c-0.6,1.4-1.5,2.7-2.9,3.8
							c-0.7,0.5-1.4,0.9-2.3,1.2c-0.8,0.3-1.8,0.5-2.7,0.6c-1,0.1-1.9,0-2.9-0.2c-1-0.2-1.9-0.4-2.8-0.9c0.9,0.3,1.9,0.3,2.7,0.4
							c0.9,0,1.8,0,2.6-0.2c1.6-0.4,3.1-1.1,4.1-2c1.1-0.9,1.8-2.1,2.3-3.4c0.5-1.3,0.7-2.6,0.7-3.9c0-1.3-0.2-2.7-0.5-4
							c-0.3-1.3-0.8-2.4-1.3-3.6c-0.5-1.1-1.2-2-1.9-2.7c-0.4-0.4-0.8-0.7-1.2-1C63.4,107.9,62.9,107.8,62.4,107.5z"/>
					</g>
				</g>
				<g>
					<path class="st0" d="M81,130c1-0.3,1.8-0.8,2.5-1.7c0.3-0.4,0.6-0.9,0.8-1.5c0.2-0.5,0.3-1.2,0.4-1.8c0.1-0.6,0.1-1.3,0-2
						c0-0.7-0.2-1.4-0.4-2.2c-0.2-0.7-0.4-1.5-0.8-2.3c-0.3-0.8-0.7-1.5-1.2-2.2c-0.4-0.7-0.9-1.5-1.4-2.1c-0.4-0.7-0.8-1.4-1.3-2
						c-0.4-0.6-0.8-1.2-1.2-1.8c-0.4-0.5-0.8-1-1.1-1.5c-0.4-0.5-0.7-0.8-1-1.2c-0.3-0.3-0.6-0.6-0.9-0.8c-0.5-0.4-1-0.6-1.3-0.4
						L81,130z"/>
				</g>
			</g>
		</g>
		<g>
			<g>
				<polygon class="st0" points="25.6,46.8 12,47.9 12.1,36.4 23.5,35.6 				"/>
				<polygon class="st1" points="23.9,27.9 23.5,35.6 12.1,36.4 10.9,28.8 				"/>
				<polygon class="st0" points="23.9,27.9 10.9,28.8 11.3,27.5 23.5,26.6 				"/>
			</g>
			<circle class="st2" cx="17.6" cy="49.3" r="11.6"/>
			<g>
				<polygon class="st1" points="31,24.5 29.3,27.3 31,38.2 34,35.5 				"/>
				<polygon class="st3" points="27.2,46 36.4,36 33.9,23.8 31,24.5 33.1,35.1 25.1,43 				"/>
				<polygon class="st0" points="33.1,35.1 30.6,36.7 25.7,41.5 25.1,43 				"/>
			</g>
			<g>
				<polygon class="st3" points="7.8,46.2 14.6,44.4 7.5,34.9 0,37.9 				"/>
				<polygon class="st1" points="0.9,27.2 9,23.7 7.5,34.9 0,37.9 				"/>
				<polygon class="st0" points="14.6,44.4 15.3,42.2 9.4,34.3 10.9,24.2 9,23.7 7.5,34.9 				"/>
			</g>
		</g>
	</g>
	<g>
		<path class="st4" d="M73.5,75.6l4.4-23.9l7.5-0.4l0,0c0.5-0.1,1-0.1,1.5,0c4.8,0.8,7.6,7.9,6.3,15.8C91.9,75,86.9,80.8,82.1,80
			c-0.7-0.1-1.4-0.4-2.1-0.8L73.5,75.6z"/>
		<ellipse transform="matrix(0.1662 -0.9861 0.9861 0.1662 1.1894 129.1484)" class="st4" cx="77" cy="63.9" rx="12.3" ry="7.5"/>
	</g>
	<g>
		<path class="st5" d="M137.2,228.7c0,34.6-10.2,64.7-42.9,60.7c-26.5-3.2-42.1-26.2-42.1-60.7s19-62.6,42.5-62.6
			S137.2,194.1,137.2,228.7z"/>
		<ellipse class="st6" cx="108.8" cy="233.8" rx="28.6" ry="54.1"/>
		<ellipse class="st2" cx="108.8" cy="233.8" rx="22" ry="44.5"/>
	</g>
	<g>
		<path class="st5" d="M210.1,240.7c0,34.6-10.2,64.7-42.9,60.7c-26.5-3.2-42.1-26.2-42.1-60.7s18.6-57.4,42.1-57.4
			S210.1,206.1,210.1,240.7z"/>
		<ellipse class="st6" cx="181.7" cy="245.8" rx="28.6" ry="54.1"/>
		<ellipse class="st2" cx="181.7" cy="245.8" rx="22" ry="44.5"/>
	</g>
	<path class="st7" d="M128.9,255.4c0,0-0.9-37.2-2.3-51.8c-1.3-13.9-16-62.4-46.1-70c-3.7-0.9-10.3-1.3-14.3,1.7l-14.5,25
		c0,0-2.8,3.1-5,11c-5.1,14.7-6.4,39.9,1,64.6l16.6,12.6c3,1,5.6-1.2,6.6-2.4l26.1,11.6L128.9,255.4z"/>
	<g>
		<defs>
			<path id="SVGID_1_" d="M200.1,249.7c0,0-13.2,12.4-70.5,12.4c-56.4,0-66.8-12.4-66.8-12.4s-5.5-17.3-7.5-27.7
				c-2.4-12.6-2.9-28.6-2.9-28.6l9.4-30.3c0,0,2.6-40.1,4.8-53.6C72.7,71.8,84.1,41,84.1,41h94.6c0,0,12.1,31.2,17.4,68.5
				c2,13.7,5,54.3,5,54.3l9.3,29.6c0,0-0.3,16.6-2.8,28.6C205.6,232.3,200.1,249.7,200.1,249.7z"/>
		</defs>
		<clipPath id="SVGID_00000142876968963568576170000013500858205785901731_">
			<use xlink:href="#SVGID_1_"  style="overflow:visible;"/>
		</clipPath>
		<polygon style="clip-path:url(#SVGID_00000142876968963568576170000013500858205785901731_);fill:#7F5CA1;" points="224.6,267.4 
			36.7,267.4 72.9,32.4 188.4,32.4 		"/>
		<path style="clip-path:url(#SVGID_00000142876968963568576170000013500858205785901731_);fill:#C5E6F9;" d="M196.3,97.1
			c0,0-16.7,9.8-65.1,9.7c-48,0-64.5-9.7-64.5-9.7l11.7-61.9h106.2L196.3,97.1z"/>
		
			<path style="clip-path:url(#SVGID_00000142876968963568576170000013500858205785901731_);fill:none;stroke:#324F6B;stroke-width:4;stroke-miterlimit:10;" d="
			M94.4,85.1c0,0,3.3,5.7,8.5,6.7c6.6,1.2,11.9-4,11.9-4"/>
		
			<rect x="51.1" y="182.7" style="clip-path:url(#SVGID_00000142876968963568576170000013500858205785901731_);fill:#654E91;" width="162.9" height="81.9"/>
		<path style="clip-path:url(#SVGID_00000142876968963568576170000013500858205785901731_);fill:#7F5CA1;" d="M62.2,163.1
			c0,0,19.2,13.9,68.2,13.9c51.2,0,71.2-13.9,71.2-13.9l9.3,30.3c0,0-21.4,16.5-79.3,16.5c-55.7,0-78.9-16.5-78.9-16.5L62.2,163.1z"
			/>
		
			<path style="clip-path:url(#SVGID_00000142876968963568576170000013500858205785901731_);fill:none;stroke:#2FB279;stroke-miterlimit:10;" d="
			M58.4,158.4c0,0,4.8,7.3,24.2,12.6c22.9,6.3,80.1,6.3,111.2-1"/>
		
			<path style="clip-path:url(#SVGID_00000142876968963568576170000013500858205785901731_);fill:none;stroke:#2FB279;stroke-miterlimit:10;" d="
			M125.1,152.5c0,0-13.1,2.8-30.7-0.8c-13.2-2.7-17.5-6.1-17.5-6.1v-27c0,0,5.5,3.7,18,5.8c16.8,2.8,30.2,1.2,30.2,1.2V152.5z"/>
		
			<path style="clip-path:url(#SVGID_00000142876968963568576170000013500858205785901731_);fill:none;stroke:#654E91;stroke-width:2;stroke-miterlimit:10;" d="
			M196.3,96.8c0,0-16.7,9.8-65.1,9.7c-48,0-64.5-9.7-64.5-9.7"/>
		
			<ellipse style="clip-path:url(#SVGID_00000142876968963568576170000013500858205785901731_);fill:#DDDDDD;" cx="132.3" cy="42.4" rx="53.1" ry="10.2"/>
		<g style="clip-path:url(#SVGID_00000142876968963568576170000013500858205785901731_);">
			
				<ellipse transform="matrix(1.895976e-02 -0.9998 0.9998 1.895976e-02 53.7111 191.2182)" class="st16" cx="124.3" cy="68.2" rx="10.2" ry="5.3"/>
			<line class="st17" x1="132.9" y1="59.2" x2="125.6" y2="64.3"/>
		</g>
		<g style="clip-path:url(#SVGID_00000142876968963568576170000013500858205785901731_);">
			
				<ellipse transform="matrix(0.1348 -0.9909 0.9909 0.1348 15.0906 146.6389)" class="st16" cx="91.5" cy="64.7" rx="10.2" ry="4.6"/>
			<line class="st17" x1="86.5" y1="54.8" x2="92.8" y2="61"/>
		</g>
		<g style="clip-path:url(#SVGID_00000142876968963568576170000013500858205785901731_);">
			<ellipse class="st2" cx="77" cy="155.1" rx="1.6" ry="2.7"/>
			<ellipse class="st2" cx="88.7" cy="159.5" rx="1.9" ry="2.7"/>
			<ellipse class="st2" cx="105.1" cy="162.2" rx="2.5" ry="2.7"/>
			<ellipse class="st2" cx="121.7" cy="162.5" rx="2.6" ry="2.7"/>
		</g>
		
			<ellipse transform="matrix(0.3912 -0.9203 0.9203 0.3912 -13.1914 121.6918)" style="clip-path:url(#SVGID_00000142876968963568576170000013500858205785901731_);fill:#C5E6F9;" cx="85.4" cy="70.8" rx="4.7" ry="9.5"/>
		
			<ellipse transform="matrix(0.9203 -0.3912 0.3912 0.9203 -19.3441 55.9585)" style="clip-path:url(#SVGID_00000142876968963568576170000013500858205785901731_);fill:#C5E6F9;" cx="127.7" cy="75.5" rx="9.5" ry="4.7"/>
	</g>
	<path class="st7" d="M178.4,36.7c-9-2.3-26.6-3.9-47-3.9s-38,1.6-47,3.9h-6.3v3.5h0c0,4.1,23.8,7.4,53.3,7.4s53.3-3.3,53.3-7.4
		v-3.5H178.4z"/>
	<g>
		<defs>
			<path id="SVGID_00000134211523893714170910000007871644019647908519_" d="M184.7,36.7c0,4.1-23.8,7.4-53.3,7.4
				s-53.3-3.3-53.3-7.4s18.4-20.2,53.3-20.2S184.7,32.6,184.7,36.7z"/>
		</defs>
		<clipPath id="SVGID_00000011030920299473120810000012042696846866835383_">
			<use xlink:href="#SVGID_00000134211523893714170910000007871644019647908519_"  style="overflow:visible;"/>
		</clipPath>
		
			<rect x="76.7" y="11.9" style="clip-path:url(#SVGID_00000011030920299473120810000012042696846866835383_);fill:#7F5CA1;" width="109.9" height="32.7"/>
		
			<path style="clip-path:url(#SVGID_00000011030920299473120810000012042696846866835383_);fill:none;stroke:#2FB279;stroke-miterlimit:10;" d="
			M99,17.1c0,0-8,9.6-11.8,13.1c-3.2,3-5.4,1.6-4.6-1.7c1.1-4.5,2.4-4.5,6.8-5.8c4.4-1.4,9.3-2.4,13.9-1.3c0.5,0.1,0.9,0.2,1.4,0.5
			c4.8,2.9-1.6,7.3-4.1,9c-2.7,1.8-5.7,3.1-8.9,3.8c-0.4,0.1-0.8,0.1-1.2-0.1c-0.8-0.5-0.1-1.7,0.6-2.3c4.5-3.7,10.1-5.9,15.9-6.2
			c2-0.1,5,0.3,5.4,2.7c0.1,0.7,0,1.5-0.2,2.2c-0.2,1.1-0.4,2.3-0.6,3.4c-0.3,1.4-0.5,2.9-1.2,4.1c-0.8,1.4-3.2,3.3-5,2.3
			c-2.4-1.4,0.5-4.8,2.5-6.8c1.5-1.5,3.5-2.6,5.3-3.5c2.1-1.1,4.8-2.6,7.2-1.8c1.2,0.4,2.1,1.4,2.9,2.4c1.6,2.2,2.8,4.7,3.4,7.3
			c0.3,1.5,0.5,4.2-1.8,3.7c-2-0.4-2.6-3.6-1.2-6.6c0.6-1.3,1.9-3.2,3-4.1c2.3-1.9,4.6-2.7,7.4-2.7c5.9-0.1,11.8,3.3,14.8,8.4
			c0.3,0.5,0.5,1.1,0.1,1.4c-0.2,0.2-0.5,0.2-0.8,0.2c-3.4-0.1-5.5-4.1-5.3-7.5c0.1-0.9,0.2-1.8,0.8-2.5c0.6-0.8,1.7-1.1,2.7-1.3
			c6.6-1.5,13.8-0.2,19.6,3.5c1.4,0.9,2.8,2.5,2.1,3.9c-0.5,0.9-1.6,1.2-2.6,1.1c-1-0.2-1.8-0.8-2.7-1.3c-2.1-1.4-4.1-2.8-6.2-4.2
			c-1.4-0.9-2.9-2.1-3-3.8c-0.1-1.6,1.2-3,2.7-3.6s3.2-0.3,4.8-0.1c4.4,0.7,9.3,0.6,12.8,3.2c0.8,0.6,4.3,5.8,0.5,4
			c-4.1-2-15.6-12.8-15.6-12.8"/>
	</g>
	<ellipse class="st0" cx="185.4" cy="121.8" rx="9.5" ry="14.2"/>
	<g>
		<path class="st7" d="M200.1,141.5l14.5,25c0,0,15.7,17.5,2.4,76.2l-47.8,21.2l-31.9-2.3c0,0,0.9-37.2,2.3-51.8
			c1.3-13.9,16-62.4,46.1-70C189.5,138.9,196.1,138.5,200.1,141.5z"/>
		<path class="st20" d="M209.2,165.2c-14-2.9-33.7,26.3-39.6,62.1c-2.2,13.6-2.3,26.4-0.4,36.5l49.1-16.5
			C226.3,209.2,223.2,168.1,209.2,165.2z"/>
	</g>
	<g>
		<path class="st4" d="M187.8,81.7l-4.4-23.9l-7.5-0.4l0,0c-0.5-0.1-1-0.1-1.5,0c-4.8,0.8-7.6,7.9-6.3,15.8
			c1.3,7.9,6.3,13.7,11.1,12.9c0.7-0.1,1.4-0.4,2.1-0.8L187.8,81.7z"/>
		
			<ellipse transform="matrix(0.9861 -0.1662 0.1662 0.9861 -9.0821 31.6273)" class="st0" cx="184.4" cy="70.1" rx="7.5" ry="12.3"/>
	</g>
	<g>
		<g>
			<g>
				<g>
					<path class="st0" d="M250.3,191.6c-0.3,1.5-1.2,2.8-2.5,3.6c-1.3,0.8-2.8,1.1-4.4,0.7c-1.5-0.4-2.8-1.2-3.8-2.2
						c-0.9-1-1.5-2.3-1.4-3.6L250.3,191.6z"/>
				</g>
				<g>
					<g>
						<path class="st0" d="M251,168.7c0.2,1.9,0.4,3.8,0.4,5.8c0.1,1.9,0.1,3.8,0,5.8c-0.1,3.8-0.5,7.6-1.2,11.4l-12.1-1.5
							c0.2-3.2,0.1-6.4-0.2-9.6c-0.1-1.6-0.3-3.2-0.6-4.8c-0.2-1.6-0.6-3.1-0.9-4.7L251,168.7z"/>
					</g>
					<g>
						<path class="st1" d="M238.3,187.8c-0.1-1.4,0-2.7,0.3-4.1c0.3-1.3,0.7-2.5,1.3-3.5c1.2-2,2.9-3.1,4.7-3.3c1.8-0.1,3.7,0.9,5,3
							c0.7,1.1,1.1,2.5,1.3,4c0.2,1.6,0.1,3.2-0.2,4.8c0.2-3.2-0.4-6-1.6-7.6c-1.2-1.7-2.8-2.5-4.4-2.4c-1.6,0.1-3.1,1-4.2,2.5
							C239.3,182.9,238.6,185.2,238.3,187.8z"/>
					</g>
				</g>
				<g>
					<g>
						<path class="st0" d="M245,146c0.8,1.8,1.5,3.7,2.2,5.5c0.7,1.9,1.2,3.8,1.7,5.6l0.7,2.9l0.6,2.9l0.5,2.9l0.4,2.9l-14.4,2.4
							l-0.6-2.3l-0.7-2.3l-0.7-2.2l-0.8-2.2c-0.6-1.4-1.2-2.9-1.9-4.2c-0.7-1.4-1.4-2.7-2.2-4.1L245,146z"/>
					</g>
					<g>
						<path class="st1" d="M236.1,168.8c-0.5-1.2-0.7-2.6-0.8-3.9c0-1.3,0.1-2.6,0.6-3.7c0.8-2.2,2.4-4,4.4-4.8
							c2-0.7,4.4-0.5,6.5,1.2c1,0.8,2,2,2.7,3.5c0.7,1.5,1.1,3.1,1.2,4.7c-0.4-1.6-0.9-3-1.6-4.2c-0.7-1.2-1.6-2.1-2.5-2.7
							c-1.8-1.2-3.9-1.4-5.7-0.8c-1.8,0.6-3.2,2-4.1,3.8c-0.5,0.9-0.7,2-0.9,3.1C235.8,166.3,235.8,167.6,236.1,168.8z"/>
					</g>
				</g>
				<g>
					<g>
						<path class="st0" d="M232,126l2,2.3c0.7,0.8,1.2,1.6,1.9,2.4l0.9,1.2l0.9,1.2c0.6,0.8,1.2,1.6,1.7,2.5l1.6,2.5l1.5,2.6
							c0.5,0.9,0.9,1.8,1.4,2.7c0.5,0.9,0.9,1.8,1.3,2.7l-15.3,7.7c-0.4-0.7-0.8-1.3-1.2-1.9c-0.4-0.6-0.8-1.3-1.3-1.9l-1.4-1.8
							l-1.4-1.8c-0.5-0.6-1-1.1-1.5-1.7l-0.8-0.8l-0.8-0.8c-0.5-0.5-1-1.1-1.6-1.6l-1.7-1.5L232,126z"/>
					</g>
					<g>
						<path class="st1" d="M228.6,151.9c-0.4-0.5-0.8-1-1.1-1.6c-0.3-0.6-0.6-1.2-0.8-1.8c-0.4-1.2-0.5-2.5-0.3-3.8
							c0.3-2.5,1.5-4.9,3.4-6.4c1.9-1.5,4.5-2.2,7.3-1.4c1.3,0.4,2.8,1.2,3.9,2.4c0.6,0.6,1.1,1.2,1.6,2c0.5,0.7,0.8,1.5,1.1,2.3
							c-0.4-0.7-0.9-1.4-1.4-2c-0.5-0.6-1.1-1.1-1.6-1.5c-1.1-0.9-2.3-1.4-3.5-1.7c-1.2-0.2-2.3-0.2-3.4,0c-1.1,0.3-2.1,0.7-2.9,1.4
							c-0.8,0.6-1.6,1.5-2.1,2.4c-0.6,0.9-1,2-1.3,3c-0.3,1.1-0.3,2.2-0.1,3.4c0.1,0.6,0.2,1.1,0.4,1.7
							C228,150.7,228.3,151.3,228.6,151.9z"/>
					</g>
				</g>
				<g>
					<g>
						<path class="st0" d="M211.8,110.8c1.1,0.4,2,1,3,1.5c1,0.5,2,1,2.9,1.6l2.7,1.8c0.9,0.6,1.8,1.2,2.6,1.9l2.4,2
							c0.8,0.7,1.6,1.3,2.3,2.1c1.4,1.5,2.9,2.9,4.3,4.4l-13.9,13.8c-1.1-1-2.3-1.9-3.5-2.8c-0.6-0.5-1.2-0.8-1.8-1.2l-1.8-1.2
							c-0.6-0.4-1.2-0.7-1.8-1l-1.8-0.9c-0.6-0.3-1.2-0.5-1.8-0.7c-0.6-0.2-1.2-0.5-1.8-0.6L211.8,110.8z"/>
					</g>
					<g>
						<path class="st1" d="M216.4,138.4c-0.5-0.3-1-0.7-1.5-1.2c-0.4-0.4-0.8-1-1.2-1.5c-0.7-1-1.1-2.3-1.2-3.6
							c-0.1-0.7-0.1-1.3-0.1-2c0-0.7,0.1-1.3,0.2-2c0.3-1.3,0.8-2.7,1.5-3.9c0.7-1.2,1.7-2.2,2.9-3c0.6-0.4,1.2-0.7,1.9-1
							c0.7-0.3,1.4-0.4,2.2-0.5c1.5-0.1,3.2,0.2,4.8,0.9c0.8,0.3,1.5,0.8,2.2,1.4c0.7,0.6,1.3,1.2,1.8,1.8c-1.3-1.1-2.7-1.9-4.1-2.4
							c-1.5-0.4-2.9-0.5-4.2-0.3c-1.3,0.2-2.4,0.7-3.4,1.4c-1,0.7-1.9,1.6-2.5,2.6c-0.7,1-1.2,2.1-1.5,3.3c-0.3,1.2-0.5,2.4-0.5,3.6
							c0,1.2,0.2,2.3,0.7,3.4C214.9,136.5,215.5,137.6,216.4,138.4z"/>
					</g>
				</g>
				<g>
					<g>
						<path class="st0" d="M183.9,107.7c1.2-0.3,2.4-0.4,3.7-0.7c1.2-0.1,2.4-0.2,3.6-0.3c1.2,0,2.4,0,3.6,0
							c1.2,0.1,2.4,0.2,3.6,0.3c1.2,0.1,2.3,0.4,3.5,0.6c0.6,0.1,1.2,0.2,1.7,0.4l1.7,0.5c1.1,0.3,2.3,0.6,3.3,1l3.2,1.3l-8.1,20.6
							l-1.8-0.5c-0.6-0.2-1.2-0.2-1.8-0.3l-0.9-0.1c-0.3,0-0.6,0-0.9,0c-0.6,0-1.2-0.1-1.7-0.1l-1.7,0.1c-0.6,0.1-1.1,0.2-1.6,0.2
							l-1.6,0.4c-0.5,0.2-1,0.3-1.5,0.5L183.9,107.7z"/>
					</g>
					<g>
						<path class="st1" d="M202,130.8c-0.5-0.1-1-0.1-1.5-0.3c-0.5-0.2-0.9-0.5-1.4-0.8c-0.4-0.3-0.8-0.7-1.2-1.2
							c-0.4-0.5-0.8-1-1.1-1.6c-0.7-1.1-1.3-2.5-1.7-4c-0.5-1.4-0.8-3-0.8-4.5c0-1.6,0.2-3.1,0.8-4.6c0.6-1.4,1.6-2.7,3-3.8
							c0.7-0.5,1.5-0.9,2.3-1.2c0.9-0.3,1.8-0.5,2.8-0.6c1-0.1,1.9,0.1,2.9,0.2c1,0.2,1.9,0.4,2.8,0.9c-0.9-0.3-1.9-0.4-2.8-0.4
							c-0.9,0-1.8,0-2.6,0.1c-1.7,0.3-3.1,1-4.2,2c-1.1,0.9-1.9,2.1-2.4,3.4c-0.5,1.3-0.8,2.6-0.8,4c0,1.3,0.1,2.7,0.4,4
							c0.3,1.3,0.7,2.5,1.2,3.6c0.5,1.2,1.1,2.1,1.8,2.8c0.4,0.4,0.7,0.8,1.1,1.1C201.1,130.4,201.5,130.6,202,130.8z"/>
					</g>
				</g>
				<g>
					<path class="st0" d="M183.9,107.7c-1,0.2-1.8,0.8-2.5,1.7c-0.3,0.4-0.6,0.9-0.8,1.5c-0.2,0.5-0.4,1.2-0.5,1.8
						c-0.1,0.6-0.1,1.3-0.1,2c0,0.7,0.1,1.5,0.3,2.2c0.2,0.7,0.4,1.5,0.7,2.3c0.3,0.8,0.7,1.5,1.1,2.3c0.4,0.8,0.9,1.5,1.3,2.2
						c0.4,0.7,0.8,1.4,1.2,2c0.4,0.6,0.8,1.2,1.2,1.8c0.4,0.6,0.8,1.1,1.1,1.5c0.3,0.5,0.7,0.9,1,1.2c0.3,0.4,0.6,0.6,0.9,0.9
						c0.5,0.4,1,0.6,1.3,0.5L183.9,107.7z"/>
				</g>
			</g>
		</g>
		<g>
			<g>
				<polygon class="st0" points="234.1,191.1 239,194.8 232.3,199.5 225.7,197.7 				"/>
				<polygon class="st3" points="233.6,189.1 234.1,191.1 225.7,197.7 224.8,206.6 222.7,206 224.1,196.3 				"/>
				<polygon class="st1" points="224.8,206.6 231.2,205.5 232.3,199.5 225.7,197.7 				"/>
			</g>
			<circle class="st2" cx="244.7" cy="188.7" r="11.6"/>
			<g>
				<polygon class="st3" points="247.8,195.2 237.9,191.9 232.7,202.5 246.1,206.4 				"/>
				<polygon class="st1" points="241.9,215.2 246.1,206.4 232.7,202.5 231.4,211.7 				"/>
			</g>
			<g>
				<polygon class="st1" points="252.4,215.8 251.3,212.7 255.4,202.4 257.7,205.6 				"/>
				<polygon class="st3" points="253.3,194 260.2,205.7 255.1,217 252.4,215.8 256.7,205.8 250.6,196.5 				"/>
				<polygon class="st0" points="256.7,205.8 254.7,203.8 250.9,198.1 250.6,196.5 				"/>
			</g>
		</g>
	</g>
	<g>
		<g>
			<ellipse class="st0" cx="131.8" cy="17.9" rx="20.9" ry="4.5"/>
			<path class="st0" d="M110.9,17.9v5.3c0,2.5,9.4,4.5,20.9,4.5s20.9-2,20.9-4.5v-5.3H110.9z"/>
		</g>
		<path class="st21" d="M149.2,18.2c-2.7,5.5-31.5,4.1-34.8,0c0-9.6,8.2-18.2,17.4-18.2S149.2,8.6,149.2,18.2z"/>
		<path class="st22" d="M133.7,5.1c0,0,6.6,0.3,8,6"/>
	</g>
</g>
</svg>
