<?xml version="1.0" encoding="utf-8"?>
<!-- Generator: Adobe Illustrator 26.3.1, SVG Export Plug-In . SVG Version: 6.00 Build 0)  -->
<svg version="1.1" id="Layer_1" xmlns="http://www.w3.org/2000/svg" xmlns:xlink="http://www.w3.org/1999/xlink" x="0px" y="0px"
	 viewBox="0 0 309.6 527.4" style="enable-background:new 0 0 309.6 527.4;" xml:space="preserve">
<style type="text/css">
	.st0{fill:#175884;}
	.st1{fill:#A05C1F;}
	.st2{fill:#D97A20;}
	.st3{clip-path:url(#SVGID_00000179606803371757366990000002670637347004218496_);fill:#BB6C1B;}
	.st4{clip-path:url(#SVGID_00000179606803371757366990000002670637347004218496_);fill:#A05C1F;}
	.st5{fill:#BB6C1B;}
	.st6{clip-path:url(#SVGID_00000005986189022466416090000011290154528203244681_);fill:#BB6C1B;}
	.st7{clip-path:url(#SVGID_00000005986189022466416090000011290154528203244681_);fill:#D97A20;}
	.st8{fill:#694213;}
	.st9{clip-path:url(#SVGID_00000009562189151260465580000007639907475300513210_);fill:#D97A20;}
	.st10{clip-path:url(#SVGID_00000009562189151260465580000007639907475300513210_);fill:#A05C1F;}
	.st11{fill:#3F6C91;}
	.st12{fill:#324F6B;}
	.st13{clip-path:url(#SVGID_00000065758959203373657120000004122817442491068551_);fill:#BB6C1B;}
	.st14{clip-path:url(#SVGID_00000065758959203373657120000004122817442491068551_);fill:#D97A20;}
	.st15{clip-path:url(#SVGID_00000032607640257181776580000004034541123286216625_);fill:#D97A20;}
	.st16{clip-path:url(#SVGID_00000032607640257181776580000004034541123286216625_);fill:#694213;}
	.st17{clip-path:url(#SVGID_00000130633464172732802270000011998973990537469113_);}
	.st18{fill:none;stroke:#8A96AB;stroke-width:1.0326;stroke-miterlimit:10;}
	.st19{fill:none;stroke:#8A96AB;stroke-width:1.0088;stroke-miterlimit:10;}
	.st20{fill:none;stroke:#8A96AB;stroke-width:1.036;stroke-miterlimit:10;}
	.st21{fill:none;stroke:#8A96AB;stroke-width:1.0854;stroke-miterlimit:10;}
	.st22{fill:none;stroke:#8A96AB;stroke-width:1.1287;stroke-miterlimit:10;}
	.st23{clip-path:url(#SVGID_00000130633464172732802270000011998973990537469113_);fill:#DDDDDD;}
	.st24{clip-path:url(#SVGID_00000150095512464082447470000001197530963948630671_);fill:#BB6C1B;}
	.st25{clip-path:url(#SVGID_00000150095512464082447470000001197530963948630671_);fill:#D97A20;}
	.st26{clip-path:url(#SVGID_00000150095512464082447470000001197530963948630671_);fill:#A05C1F;}
	.st27{clip-path:url(#SVGID_00000118365224895013801930000004085232146366723507_);fill:#BB6C1B;}
	.st28{clip-path:url(#SVGID_00000118365224895013801930000004085232146366723507_);fill:#A05C1F;}
	.st29{fill:#0F4868;}
	.st30{fill:#C5E6F9;}
	.st31{clip-path:url(#SVGID_00000098909584198910609160000011849535880073666447_);fill:#D97A20;}
	.st32{clip-path:url(#SVGID_00000098909584198910609160000011849535880073666447_);fill:#C5E6F9;}
	.st33{clip-path:url(#SVGID_00000098909584198910609160000011849535880073666447_);fill:#324F6B;}
	.st34{clip-path:url(#SVGID_00000098909584198910609160000011849535880073666447_);fill:#BB6C1B;}
</style>
<g>
	<g>
		<path class="st0" d="M260.1,282.9c0,0-9.7,3.3-23.3,3.3c-12.5,0-21.4-3.3-21.4-3.3l7.7-18.9h29.3L260.1,282.9z"/>
		<path class="st1" d="M264.3,270h-53.1v-97.5c0-31,6-73.4,26.6-89l0,0l0,0c22.1,14.6,26.6,58,26.6,89V270z"/>
		<path class="st2" d="M237.8,83.5c0,0,7.6,34.9,7.6,83.6c0,32.9,0,102.9,0,102.9h18.9v-97.5C264.3,141.5,259.9,98.1,237.8,83.5z"/>
	</g>
	<g>
		<g>
			<g>
				<defs>
					<path id="SVGID_1_" d="M59,338.8l13.2,24.1c0,0-1.6,5.8-14.9,5.8c-13.4,0.1-20.8-4.8-20.8-4.8l4.8-26L59,338.8z"/>
				</defs>
				<clipPath id="SVGID_00000082350175173705247450000017512232367622872975_">
					<use xlink:href="#SVGID_1_"  style="overflow:visible;"/>
				</clipPath>
				<polygon style="clip-path:url(#SVGID_00000082350175173705247450000017512232367622872975_);fill:#BB6C1B;" points="39.4,336.9 
					34.4,369.3 47.2,370.9 60.5,370.1 73.1,363.9 75.6,360.3 56.7,333.1 				"/>
				<path style="clip-path:url(#SVGID_00000082350175173705247450000017512232367622872975_);fill:#A05C1F;" d="M32.2,349.5
					c0,0,15.1,7.2,26.2,1.2s7.1-11.4,7.1-11.4l-3.7-2.8l-21.4,0.3L32.2,349.5z"/>
			</g>
			<path class="st0" d="M68.9,359.1c0,0,1.2,0,2.4,2.5s-4.8,4.9-7.3,6.2c-2.5,1.3-9.5,2-11.8,1.3c-2.3-0.6,0.3-2.1,0.3-2.1
				s5.5-1.7,9.8-4.2C68,359.5,68.9,359.1,68.9,359.1z"/>
			<path class="st5" d="M70.6,359.8c0,0-7.8,7.8-16.1,8.3l8.1,12.8l15.3-8.5L70.6,359.8z"/>
			<path class="st2" d="M77.9,372.4c0,0,8.8,2.3,6.8,8.3l-9.9,5.6c0,0,1.3-6.6-12.2-5.3L77.9,372.4z"/>
			<path class="st1" d="M62.7,380.9l-8.1-12.8c-0.8-1.4-1.8-2.8-3.5-3.7c-1.8-0.9-3.9-0.7-5.1,0.6c-2.1,2.1-0.8,5,0.5,7.2l13.3,14.2
				l15.2-0.1C74.8,386.2,76.1,379.7,62.7,380.9z"/>
			
				<ellipse transform="matrix(0.8545 -0.5195 0.5195 0.8545 -184.4187 79.4462)" class="st0" cx="49.6" cy="368.9" rx="2.7" ry="3.3"/>
			<g>
				<circle class="st0" cx="42.5" cy="362.4" r="5.4"/>
				<g>
					<path class="st2" d="M45.6,382.1c-3.4,4.3-7.8,4.7-7.8,4.7l-1.2-23.6c0,0,1.1-3.7,5.9-3.8c4.4-0.1,5.7,3.3,5.7,3.3l-0.1,10
						C48,372.7,47.7,379.4,45.6,382.1z"/>
					<path class="st1" d="M45.9,360.2C45.9,360.3,45.9,360.3,45.9,360.2l-0.1,10c0,0-0.3,6.8-2.5,9.5c-1.9,2.4-4.1,3.6-5.6,4.2
						l0.2,3c0,0,4.3-0.5,7.8-4.7c2.2-2.7,2.5-9.5,2.5-9.5l0.1-10C48.2,362.7,47.6,361.2,45.9,360.2z"/>
				</g>
			</g>
		</g>
		<circle class="st0" cx="29.4" cy="252.2" r="26"/>
		<g>
			<g>
				<path class="st2" d="M90.5,192.8c0,0-7.3-22.3-34.7-44.9c-9.1-7.5-16.4-11.8-21.7-14.3c-5.6-2.6-12.2,0.7-13.4,6.9L0,246.2
					c0,0,6.6,7.4,22.1,11.4c15.5,4,35.4,2.7,35.4,2.7L90.5,192.8z"/>
			</g>
			<g>
				<path class="st5" d="M55.7,148c-9.1-7.5-16.4-11.8-21.7-14.3c-3.1-1.4-6.5-1.1-9.1,0.6c1.4,10.7,4.7,24.6,12.2,32.4
					c13.3,13.9,23.2,24.6,23.2,24.6l-21.4,68.9c10.2,0.7,18.6,0.2,18.6,0.2l33-67.5C90.5,192.8,83.2,170.5,55.7,148z"/>
			</g>
		</g>
		<g>
			<g>
				<path class="st2" d="M55.5,258.7c0,0-17.8,6.2-35.1,3.6C4.1,259.7,0.1,255,0.1,255s10,62,32.8,93.9c0,0,21.2,2.7,33.8-7.3
					C66.8,341.6,58.8,274.6,55.5,258.7z"/>
			</g>
			<g>
				<path class="st5" d="M55.5,258.7c0,0-8.2,2.9-18.9,3.9c2,8.1,6.8,27.3,8,34.9c1,6,5.9,37.8,7.8,50.5c5-1.1,10.1-3,14.3-6.3
					C66.8,341.6,58.8,274.6,55.5,258.7z"/>
			</g>
		</g>
	</g>
	<g>
		<defs>
			<path id="SVGID_00000019639813325211644050000000013586434990769306_" d="M106.7,483.5c0,0,2.7-3.6,4.1-4.6
				c1.9-1.4,7.6-1.4,11.6,0.2c2,0.8,3.1,11.3,3.1,11.3s-1.4,6.3-5.8,9.7c-4.5,3.3-5.6,7.5-8.2,9.3c-5.7,3.9-30.3,5.6-27.5-3.6
				c1.4-4.6,8.2-6.8,13.5-11.3C102.8,490.1,106.7,483.5,106.7,483.5z"/>
		</defs>
		<clipPath id="SVGID_00000095314905574264749040000003433365372658782635_">
			<use xlink:href="#SVGID_00000019639813325211644050000000013586434990769306_"  style="overflow:visible;"/>
		</clipPath>
		
			<rect x="77.1" y="471" style="clip-path:url(#SVGID_00000095314905574264749040000003433365372658782635_);fill:#BB6C1B;" width="51.6" height="47.5"/>
		<path style="clip-path:url(#SVGID_00000095314905574264749040000003433365372658782635_);fill:#D97A20;" d="M88.8,498.5
			c0,0-7.4,7.3,1.5,9s18.7-2.8,19.7-3.8c1-1,7-8.5,8.8-14.9c0.7-2.6-0.5-6.8,3-8.1c3.5-1.2,4.9,2.6,4.9,2.6v-7.5l-23.1-1.4
			L88.8,498.5z"/>
		
			<ellipse style="clip-path:url(#SVGID_00000095314905574264749040000003433365372658782635_);fill:#BB6C1B;" cx="113.6" cy="482.8" rx="12.4" ry="7.2"/>
	</g>
	
		<ellipse transform="matrix(0.9946 -0.1042 0.1042 0.9946 -44.8645 12.1888)" class="st8" cx="94.2" cy="435.3" rx="21.5" ry="10.1"/>
	<circle class="st0" cx="94.2" cy="431.5" r="21"/>
	<path class="st1" d="M73.2,440c0,0,6.9,8.3,21.1,6.1c5.8-0.9,12-4,14.4-6.1c2.1,2.5,4.5,1.6,4.5,1.6s2.6-1,3.6-1.7
		c3.3,4.6,8.9,13.5,9.5,17.6c1,6.5,1.3,20.2,1.3,20.2s-0.7,9-12.3,10.5c-8.8,1.1-13.9-4.6-13.9-4.6L73.2,440z"/>
	<g>
		<g>
			<defs>
				<path id="SVGID_00000070099616600902726490000006429050061410526636_" d="M69.6,433.1c0,0-0.3-35,14.2-60.9
					c14.5-25.9,32.5-31.9,41.1-31.7c14.2,0.4,30.7,12.7,12,55.3s-20.1,40.5-20.1,40.5s-4.3-1.1-8.2,3.7
					C108.7,440,86.7,430.5,69.6,433.1z"/>
			</defs>
			<clipPath id="SVGID_00000150062911092148366740000000316245314990148521_">
				<use xlink:href="#SVGID_00000070099616600902726490000006429050061410526636_"  style="overflow:visible;"/>
			</clipPath>
			<path style="clip-path:url(#SVGID_00000150062911092148366740000000316245314990148521_);fill:#D97A20;" d="M78.2,352.5
				c-9.3,13.3-27.2,69-27.2,69l5.3,15.3l63.7,8.6l33.2-65.7l4-37.2l-51.1-8L78.2,352.5z"/>
			<path style="clip-path:url(#SVGID_00000150062911092148366740000000316245314990148521_);fill:#A05C1F;" d="M82.2,357.8
				c0,0,11.3,6.6,19.9,21.9c8.6,15.3,10,35.2,20.6,43.1s30.5-59.7,30.5-59.7s-5.8-33.2-27.2-32.5C104.6,331.3,82.2,357.8,82.2,357.8
				z"/>
			<path style="clip-path:url(#SVGID_00000150062911092148366740000000316245314990148521_);fill:#A05C1F;" d="M133.9,342.5
				c1.7,3,3.2,7.3,2.2,11.7c-2,8.4-17.7,40.9-25.2,53.5c-5.4,9.1-13.8,21.1-18,27.1c9.1,2.2,16,5.1,16,5.1c3.8-4.8,8.2-3.7,8.2-3.7
				s1.5,2.1,20.1-40.5C151.7,362.1,144.5,347.4,133.9,342.5z"/>
		</g>
	</g>
	<g>
		<path class="st11" d="M113,437.4c0-2.4-0.9-4.5-2.2-5.7v-1.1h-2.6c0,0,0,0,0,0c-2.7,0-4.8,3-4.8,6.8c0,3.8,2.2,6.8,4.8,6.8h2.6
			V443C112.1,441.8,113,439.7,113,437.4z"/>
		<ellipse class="st12" cx="110.8" cy="437.4" rx="4.8" ry="6.8"/>
	</g>
	<g>
		<defs>
			<path id="SVGID_00000036932138655830478980000010574430410084875155_" d="M196.6,498.4c0,0,2.7-3.6,4.1-4.6
				c1.9-1.4,7.6-1.4,11.6,0.2c2,0.8,3.1,11.3,3.1,11.3s-1.4,6.3-5.8,9.7c-4.5,3.3-5.6,7.5-8.2,9.3c-5.7,3.9-30.3,5.6-27.5-3.6
				c1.4-4.6,8.2-6.8,13.5-11.3C192.7,505,196.6,498.4,196.6,498.4z"/>
		</defs>
		<clipPath id="SVGID_00000085229962941489464820000016081431141252872370_">
			<use xlink:href="#SVGID_00000036932138655830478980000010574430410084875155_"  style="overflow:visible;"/>
		</clipPath>
		
			<rect x="167" y="485.9" style="clip-path:url(#SVGID_00000085229962941489464820000016081431141252872370_);fill:#BB6C1B;" width="51.6" height="47.5"/>
		<path style="clip-path:url(#SVGID_00000085229962941489464820000016081431141252872370_);fill:#D97A20;" d="M178.8,513.4
			c0,0-7.4,7.3,1.5,9c8.9,1.7,18.7-2.8,19.7-3.8c1-1,7-8.5,8.8-14.9c0.7-2.6-0.5-6.8,3-8.1c3.5-1.2,4.9,2.6,4.9,2.6v-7.5l-23.1-1.4
			L178.8,513.4z"/>
		
			<ellipse style="clip-path:url(#SVGID_00000085229962941489464820000016081431141252872370_);fill:#BB6C1B;" cx="203.5" cy="497.7" rx="12.4" ry="7.2"/>
	</g>
	
		<ellipse transform="matrix(0.9946 -0.1042 0.1042 0.9946 -45.9277 21.6458)" class="st8" cx="184.1" cy="450.2" rx="21.5" ry="10.1"/>
	<circle class="st0" cx="184.1" cy="446.4" r="21"/>
	<path class="st8" d="M50.5,103c0,0,31-13.3,97.4-9.3s95.6,7.3,112.5,15.9c0.8,15.5-71.3,51.1-87.3,53.8s-81,11.9-105.5-6.6
		S37.2,117.3,50.5,103z"/>
	<g>
		<g>
			<defs>
				<path id="SVGID_00000053526381321329425710000002454543990811555739_" d="M83.2,329.9l2.5,18.6c0,0,12.4,8.6,19.5,18.8
					c7.1,10.2,19.5,31,42.9,32.7c23.4,1.8,66-23.2,80.2-50.2c0.3,0,0.9-19.9,0.6-19.9L83.2,329.9z"/>
			</defs>
			<clipPath id="SVGID_00000043448416819676784400000000156330858966919352_">
				<use xlink:href="#SVGID_00000053526381321329425710000002454543990811555739_"  style="overflow:visible;"/>
			</clipPath>
			
				<rect x="80.5" y="326.9" style="clip-path:url(#SVGID_00000043448416819676784400000000156330858966919352_);fill:#D97A20;" width="154" height="78.6"/>
			<path style="clip-path:url(#SVGID_00000043448416819676784400000000156330858966919352_);fill:#694213;" d="M195.4,389.7
				c-19.4,11.9-38.8,15.6-43.2,8.4c-4.5-7.3,7.7-22.8,27.1-34.7c19.4-11.9,41-12.6,43.2-8.4C226.4,362.5,214.8,377.8,195.4,389.7z"
				/>
		</g>
		<ellipse class="st1" cx="156.1" cy="329.9" rx="72.8" ry="20.7"/>
	</g>
	<path class="st0" d="M75.1,148.9c15.5,18,21.9,37.6,11.8,46.3c-10,8.7-35.6,14.2-54.9-8.2s-11.2-48.2-1.2-56.9
		S59.6,130.9,75.1,148.9z"/>
	<g>
		<defs>
			<path id="SVGID_00000057124246134557219050000013392047396989107888_" d="M211.1,254.6c0-0.1,0-0.1,0-0.2
				c0-20-24.5-36.2-54.7-36.2s-54.7,16.2-54.7,36.2c0,0.1,0,0.1,0,0.2h-4.2c0,0,7.2,37.1,7.2,45.2c0,8.1-3.1,19.3-3.1,19.3h0.1
				c0,0.1,0,0.1,0,0.2c0,13.5,21.8,22,54.7,22s54.7-8,54.7-22c0-0.1,0-0.1,0-0.2h0.1c0,0-3.1-11.2-3.1-19.3c0-8,7.2-45.2,7.2-45.2
				H211.1z"/>
		</defs>
		<use xlink:href="#SVGID_00000057124246134557219050000013392047396989107888_"  style="overflow:visible;fill:#175884;"/>
		<clipPath id="SVGID_00000100360918891755033600000004548737446789613211_">
			<use xlink:href="#SVGID_00000057124246134557219050000013392047396989107888_"  style="overflow:visible;"/>
		</clipPath>
		<g style="clip-path:url(#SVGID_00000100360918891755033600000004548737446789613211_);">
			<path class="st18" d="M102.6,309.9c0,0,6.5,18,51.6,17.5c45.1-0.5,56.6-17.5,56.6-17.5"/>
			<path class="st19" d="M103.9,296.8c0,0,6.3,17.6,50.4,17.2s55.3-17.2,55.3-17.2"/>
			<path class="st20" d="M102.1,283.5c0,0,6.5,18,51.8,17.6c45.3-0.5,56.8-17.6,56.8-17.6"/>
			<path class="st21" d="M99.2,268.7c0,0,6.8,18.8,54.3,18.3s59.5-18.3,59.5-18.3"/>
			<path class="st22" d="M96.3,255.2c0,0,7.1,19.5,56.4,19s61.9-19,61.9-19"/>
		</g>
		<path style="clip-path:url(#SVGID_00000100360918891755033600000004548737446789613211_);fill:#DDDDDD;" d="M93,267.3
			c0,0-5.6,26.8,48.9,31c38,2.9,61.9-9.7,75.9-17.3c20.9-11.3-24.8-19.7-24.8-19.7l-88.5-15.9L93,267.3z"/>
	</g>
	<g>
		<defs>
			<path id="SVGID_00000072998208819238139140000005555522002641921153_" d="M52.6,101.7c0,0,0.3,13.6,13.6,25.5
				c19.4,17.5,36.5,21.6,36.5,21.6s108.5-25.5,157.6-39.2l30.2,26.5c0,0,3,29.2-16.3,63.7s-40.1,66.4-42.8,77.3
				c0,0-39.2,19.6-77.3,2c-38.2-17.6-66-7.3-70.3-1.3c0,0-40.1-59.7-46.5-83.9s-2-69.8,3.3-86.4C44.7,105.7,46.3,104,52.6,101.7z"/>
		</defs>
		<clipPath id="SVGID_00000018935314521095337060000017228270211916969893_">
			<use xlink:href="#SVGID_00000072998208819238139140000005555522002641921153_"  style="overflow:visible;"/>
		</clipPath>
		
			<rect x="19.5" y="86.7" style="clip-path:url(#SVGID_00000018935314521095337060000017228270211916969893_);fill:#BB6C1B;" width="273.7" height="205.4"/>
		<path style="clip-path:url(#SVGID_00000018935314521095337060000017228270211916969893_);fill:#D97A20;" d="M27.4,156.7
			c0,0,20.7-11.5,31.1-15.3c15.1-5.5,55.2-10.3,55.2-10.3l97.9,44.1l89.6-11.6l-15.6-54.1l-49.1-18.2L43.4,81.7l-23.2,40.8
			L27.4,156.7z"/>
		<path style="clip-path:url(#SVGID_00000018935314521095337060000017228270211916969893_);fill:#A05C1F;" d="M77.9,273.2
			c0,0,24.9-10,44.8-4.3s27.5,12.3,40.1,0c12.6-12.3,22.9-46.1,26.9-64.7c4-18.6,23.9-51.8,46.5-62.4c20.6-9.6,39.2-12.3,54.4-5.6
			c15.3,6.6,17.6,38.2,17.6,38.2l-74.3,111.8l-81.3,11.9l-77.3-15.9L77.9,273.2z"/>
	</g>
	<path class="st0" d="M234,162.4c-15.5,18-21.9,37.6-11.8,46.3c10,8.7,35.6,14.2,54.9-8.2c19.3-22.4,11.2-48.2,1.2-56.9
		C268.3,134.9,249.5,144.4,234,162.4z"/>
	<path class="st1" d="M163.1,454.9c0,0,6.9,8.3,21.1,6.1c5.8-0.9,12-4,14.4-6.1c2.1,2.5,4.5,1.6,4.5,1.6s2.6-1,3.6-1.7
		c3.3,4.6,8.9,13.5,9.5,17.6c1,6.5,1.3,20.2,1.3,20.2s-0.7,9-12.3,10.5c-8.8,1.1-13.9-4.6-13.9-4.6L163.1,454.9z"/>
	<g>
		<path class="st2" d="M159.5,448c0,0-0.3-35,14.2-60.9c14.5-25.9,32.5-31.9,41.1-31.7c14.2,0.4,30.7,12.7,12,55.3
			s-20.1,40.5-20.1,40.5s-4.3-1.1-8.2,3.7C198.6,454.9,176.7,445.4,159.5,448z"/>
		<path class="st1" d="M223.8,357.4c1.7,3,3.2,7.3,2.2,11.7c-2,8.4-17.7,40.9-25.2,53.5c-5.4,9.1-13.8,21.1-18,27.1
			c9.1,2.2,16,5.1,16,5.1c3.8-4.8,8.2-3.7,8.2-3.7s1.5,2.1,20.1-40.5C241.6,377,234.4,362.3,223.8,357.4z"/>
	</g>
	<g>
		<circle class="st0" cx="280.1" cy="268" r="26"/>
		<g>
			<g>
				<defs>
					<path id="SVGID_00000031894024975974082210000003114819499883046334_" d="M269.5,366.6l3.6,25.5c0,0,0.1,2.3-0.7,2.8
						c-1.9,1.2-6.9,0.7-15.3-3.6c-11.9-6.1-16.6-19-16.6-19l16.4-15.8L269.5,366.6z"/>
				</defs>
				<clipPath id="SVGID_00000029035331883711422300000006215611049771592095_">
					<use xlink:href="#SVGID_00000031894024975974082210000003114819499883046334_"  style="overflow:visible;"/>
				</clipPath>
				<polygon style="clip-path:url(#SVGID_00000029035331883711422300000006215611049771592095_);fill:#BB6C1B;" points="
					258.7,352.7 235.5,374.1 259.1,395.4 275.9,393.8 271.8,361.1 				"/>
				<path style="clip-path:url(#SVGID_00000029035331883711422300000006215611049771592095_);fill:#A05C1F;" d="M254.8,352.3
					l-8.9,13.2c0,0,5.8,7.1,12.6,8.4c6.9,1.3,13.5-1.9,13.5-1.9l-3.3-12.8L254.8,352.3z"/>
			</g>
			<path class="st0" d="M253.9,386.3c0,0,5.1,3.3,10.9,4.7c7,1.8,7.9,0.9,7.9,0.9s0.4,1.9-0.4,2.6c-0.9,0.7-6.2,0-7.3-0.3
				c-1.1-0.3-11.5-5.4-11.5-5.4L253.9,386.3z"/>
			<circle class="st0" cx="244.7" cy="376.4" r="5.5"/>
			<g>
				<path class="st2" d="M255.1,388c0,0,1.6-4.7-2.1-6.2c-3.1-1.3-5.2,2.4-5.2,2.4l-3.9,14c0,0-7.1,5.2-4.5,9.8l10.1-4.5L255.1,388z
					"/>
				<path class="st5" d="M272.8,393.8l-7.6,13.3l-14.7,3.7l-11-2.9l10.1-4.5l5.6-15.4c0,0,4.6,3.8,10.5,5.6
					C267.7,394.3,271,394.6,272.8,393.8z"/>
				<polygon class="st1" points="265.2,407.1 249.5,403.4 239.4,407.9 250.4,410.8 				"/>
			</g>
			<ellipse class="st0" cx="251.5" cy="385.8" rx="3.1" ry="3.5"/>
			<g>
				<path class="st2" d="M237.4,394.6c-5.2,1.9-9.1,0.1-9.1,0.1l11.1-20.9c0,0,2.9-2.6,7.1-0.3c3.9,2.2,3.2,5.7,3.2,5.7l-5.2,8.5
					C244.4,387.7,240.6,393.4,237.4,394.6z"/>
				<path class="st1" d="M248.9,375.9C248.9,375.9,248.9,375.9,248.9,375.9l-5.3,8.6c0,0-3.7,5.7-7,6.9c-2.9,1.1-5.3,1-7,0.7
					l-1.4,2.7c0,0,4,1.8,9.1-0.1c3.3-1.2,7-6.9,7-6.9l5.2-8.5C249.6,379.2,249.9,377.6,248.9,375.9z"/>
			</g>
		</g>
		<g>
			<path class="st2" d="M219.1,208.7c0,0,7.3-22.3,34.7-44.9c21.8-18,33.2-17.7,33.2-17.7L309.6,262c0,0-13.7-1.8-29.2,2.2
				c-15.5,4-28.3,11.9-28.3,11.9L219.1,208.7z"/>
			<path class="st5" d="M309.6,262L287,146.1c0,0-6.9-0.2-20.1,8.2l24.8,107.9C302,261,309.6,262,309.6,262z"/>
		</g>
		<g>
			<path class="st2" d="M253.4,280.5c0,0,20.2-7.6,36.8-7.6c16.6,0,18.6,4,18.6,4s-10,62-32.8,93.9c0,0-21.2,2.7-33.8-7.3
				C242.1,363.4,250.1,296.4,253.4,280.5z"/>
			<path class="st5" d="M291,272.9c-1.1,10.4-3.9,31.8-10.4,49.1c-5.2,13.8-17.6,38.5-22.5,48.1c9.4,1.7,17.9,0.7,17.9,0.7
				c22.9-31.9,32.8-93.9,32.8-93.9S306.9,273,291,272.9z"/>
		</g>
	</g>
	<g>
		<path class="st11" d="M202.9,452.3c0-2.4-0.9-4.5-2.2-5.7v-1.1h-2.6c0,0,0,0,0,0c-2.7,0-4.8,3-4.8,6.8c0,3.8,2.2,6.8,4.8,6.8h2.6
			v-1.1C202,456.7,202.9,454.6,202.9,452.3z"/>
		<ellipse class="st12" cx="200.7" cy="452.3" rx="4.8" ry="6.8"/>
	</g>
	<g>
		<g>
			<path class="st1" d="M94.7,239.2l-19.9-1.7c0,0-10-33.3-11.3-42.2c-1.3-9.1-1.1-28.8-1.1-28.8l2.5,0.1l15.4,3.4
				c0,0-1.1,19.4,0.4,28.1c1.2,7.1,10.8,30,13.3,38.7C94.3,238,94.7,239.2,94.7,239.2z"/>
		</g>
		<g>
			<path class="st0" d="M93.9,236.8l-16.8-1.3c0,0-10-33.3-11.3-42.2c-1.3-9.1-1-26.7-1-26.7l17.7,1.5c0,0-1.1,19.4,0.4,28.1
				C84.5,205.1,93.9,236.8,93.9,236.8z"/>
		</g>
		<g>
			<g>
				<polygon class="st29" points="107.6,204.3 109,203.4 115,214.5 113.3,215.6 				"/>
				<g>
					
						<ellipse transform="matrix(0.9523 -0.3051 0.3051 0.9523 -58.433 44.1064)" class="st29" cx="111.9" cy="209" rx="5.2" ry="6.4"/>
					
						<ellipse transform="matrix(0.9523 -0.3051 0.3051 0.9523 -58.741 43.76)" class="st0" cx="110.6" cy="209.8" rx="5.2" ry="6.4"/>
				</g>
			</g>
			<g>
				<polygon class="st29" points="129.2,207.6 130.7,206.7 136.7,217.8 135,218.9 				"/>
				<g>
					
						<ellipse transform="matrix(0.9523 -0.3051 0.3051 0.9523 -58.4083 50.8722)" class="st29" cx="133.6" cy="212.3" rx="5.2" ry="6.4"/>
					
						<ellipse transform="matrix(0.9523 -0.3051 0.3051 0.9523 -58.7164 50.5258)" class="st0" cx="132.3" cy="213.1" rx="5.2" ry="6.4"/>
				</g>
			</g>
			<g>
				<polygon class="st29" points="150.6,210.6 152,209.6 158,220.8 156.3,221.8 				"/>
				<g>
					
						<ellipse transform="matrix(0.9523 -0.3051 0.3051 0.9523 -58.3017 57.5266)" class="st29" cx="154.9" cy="215.3" rx="5.2" ry="6.4"/>
					
						<ellipse transform="matrix(0.9523 -0.3051 0.3051 0.9523 -58.6098 57.1802)" class="st0" cx="153.6" cy="216.1" rx="5.2" ry="6.4"/>
				</g>
			</g>
		</g>
		<g>
			<g>
				<polygon class="st29" points="106.5,227.3 107.9,226.5 113.9,237.5 112.2,238.6 				"/>
				<g>
					
						<ellipse transform="matrix(0.9523 -0.3051 0.3051 0.9523 -65.5216 44.8692)" class="st29" cx="110.8" cy="232.1" rx="5.2" ry="6.4"/>
					
						<ellipse transform="matrix(0.9523 -0.3051 0.3051 0.9523 -65.8296 44.5228)" class="st0" cx="109.5" cy="232.9" rx="5.2" ry="6.4"/>
				</g>
			</g>
			<g>
				<polygon class="st29" points="128.1,230.7 129.6,229.7 135.6,240.8 133.9,241.9 				"/>
				<g>
					
						<ellipse transform="matrix(0.9523 -0.3051 0.3051 0.9523 -65.497 51.635)" class="st29" cx="132.4" cy="235.4" rx="5.2" ry="6.4"/>
					
						<ellipse transform="matrix(0.9523 -0.3051 0.3051 0.9523 -65.805 51.2886)" class="st0" cx="131.2" cy="236.2" rx="5.2" ry="6.4"/>
				</g>
			</g>
			<g>
				<polygon class="st29" points="149.5,233.6 150.9,232.7 156.9,243.8 155.2,244.9 				"/>
				<g>
					
						<ellipse transform="matrix(0.9523 -0.3051 0.3051 0.9523 -65.3904 58.2894)" class="st29" cx="153.8" cy="238.3" rx="5.2" ry="6.4"/>
					
						<ellipse transform="matrix(0.9523 -0.3051 0.3051 0.9523 -65.6984 57.943)" class="st0" cx="152.5" cy="239.2" rx="5.2" ry="6.4"/>
				</g>
			</g>
		</g>
		<g>
			<path class="st1" d="M159.2,202.4c1.2-16.6-12.9-29.2-27.7-31.3c-14.8-2.1-26.9,8.3-26.9,23.2L159.2,202.4z"/>
			<path class="st30" d="M159.2,199.8c0-14.3-11.5-27.6-25.8-29.7c-14.2-2.1-25.8,7.9-25.8,22.3L159.2,199.8z"/>
			<polygon class="st0" points="143.3,178.2 132.1,192.9 135.1,195.6 			"/>
		</g>
	</g>
	<g>
		<g>
			<defs>
				<path id="SVGID_00000061446000253995264660000002018543798102487725_" d="M238,100.3c-13.1,28.9-75.5,35.2-119.6,36.8
					c-36.5-12.6-44.5-28.5-47.3-36.8C79.2,58.5,108.4,24,154.5,24S227.5,58.2,238,100.3z"/>
			</defs>
			<clipPath id="SVGID_00000103249146700897657430000007036910752505140882_">
				<use xlink:href="#SVGID_00000061446000253995264660000002018543798102487725_"  style="overflow:visible;"/>
			</clipPath>
			
				<rect x="62" y="20.7" style="clip-path:url(#SVGID_00000103249146700897657430000007036910752505140882_);fill:#D97A20;" width="194.6" height="120.2"/>
			<path style="clip-path:url(#SVGID_00000103249146700897657430000007036910752505140882_);fill:#C5E6F9;" d="M99.4,36.6
				c0,0-3.5,16.4,31.4,21.4s59.9-4.8,59.9-4.8l20.2,35.5c0,0-42.1,23.9-91.2,15.9S75.9,60.8,75.9,60.8L99.4,36.6z"/>
			
				<ellipse transform="matrix(0.3147 -0.9492 0.9492 0.3147 5.5156 147.2472)" style="clip-path:url(#SVGID_00000103249146700897657430000007036910752505140882_);fill:#324F6B;" cx="104.7" cy="69.8" rx="9.7" ry="6.2"/>
			
				<ellipse transform="matrix(4.936044e-02 -0.9988 0.9988 4.936044e-02 69.256 226.306)" style="clip-path:url(#SVGID_00000103249146700897657430000007036910752505140882_);fill:#324F6B;" cx="153.5" cy="76.8" rx="10.1" ry="6.4"/>
			
				<rect x="115" y="90.6" transform="matrix(0.9918 0.1276 -0.1276 0.9918 12.822 -15.0179)" style="clip-path:url(#SVGID_00000103249146700897657430000007036910752505140882_);fill:#324F6B;" width="17.3" height="4"/>
			<path style="clip-path:url(#SVGID_00000103249146700897657430000007036910752505140882_);fill:#BB6C1B;" d="M65.3,92.7
				c0,0,13.6,26.5,53.1,39.5c0,0,35.8-0.3,55.7-3.6s46.5-6.3,63.9-28.2l3.1,7l-48.4,28.9l-76,7.3l-46.5-28.9L65.3,92.7z"/>
		</g>
		<g>
			<path class="st5" d="M137.3,39c0,0,4.3-10.7,12.4-21.9c6.9-9.5,18.6-15.7,27.6-17.1c0,0,1.7-0.3,2.9,1c-0.7,2.6-5.5,8.7-5.1,13.1
				c0.5,5.5,2.8,13.2,2.8,13.2s-7.8-3.4-17.8-1.5c-5,1-15.4,7.9-19,13.6C139.9,39.4,137.8,39.1,137.3,39z"/>
			<path class="st0" d="M141,39.4c0,0,4.7-10.7,12.8-21.9C160.7,8,171.2,2.4,180.2,1c0,0-2.8,8.2-2.2,14.1
				c0.5,5.5,2.8,13.2,2.8,13.2s-7.8-3.4-17.8-1.5C156.3,28.1,146.6,33,141,39.4z"/>
		</g>
	</g>
</g>
</svg>
