<?xml version="1.0" encoding="utf-8"?>
<!-- Generator: Adobe Illustrator 26.3.1, SVG Export Plug-In . SVG Version: 6.00 Build 0)  -->
<svg version="1.1" id="Layer_1" xmlns="http://www.w3.org/2000/svg" xmlns:xlink="http://www.w3.org/1999/xlink" x="0px" y="0px"
	 viewBox="0 0 112.4 526.8" style="enable-background:new 0 0 112.4 526.8;" xml:space="preserve">
<style type="text/css">
	.st0{clip-path:url(#SVGID_00000114058402113431888530000008558781128208225205_);fill:#F2D42D;}
	.st1{clip-path:url(#SVGID_00000114058402113431888530000008558781128208225205_);fill:#694D81;}
	.st2{clip-path:url(#SVGID_00000114058402113431888530000008558781128208225205_);fill:#DDDDDD;}
	.st3{fill:#B59510;}
	.st4{clip-path:url(#SVGID_00000167390980684917619710000016493321456953224123_);fill:#F2D42D;}
	.st5{clip-path:url(#SVGID_00000167390980684917619710000016493321456953224123_);fill:#694D81;}
	.st6{clip-path:url(#SVGID_00000167390980684917619710000016493321456953224123_);fill:#DDDDDD;}
	.st7{clip-path:url(#SVGID_00000158012528505915473770000013412307092027352725_);fill:#F2D42D;}
	.st8{clip-path:url(#SVGID_00000158012528505915473770000013412307092027352725_);fill:#B59510;}
	.st9{clip-path:url(#SVGID_00000066494539303873269950000001766531957426113705_);fill:#F2D42D;}
	.st10{clip-path:url(#SVGID_00000066494539303873269950000001766531957426113705_);fill:#694D81;}
	.st11{clip-path:url(#SVGID_00000066494539303873269950000001766531957426113705_);fill:#DDDDDD;}
	.st12{fill:#DDDDDD;}
	.st13{fill:#D8B81A;}
	.st14{fill:#F2D42D;}
	.st15{fill:#694D81;}
	.st16{fill:#93790C;}
	.st17{clip-path:url(#SVGID_00000044887261731002663260000000554826599376059582_);fill:#F2D42D;}
	.st18{clip-path:url(#SVGID_00000044887261731002663260000000554826599376059582_);fill:#694D81;}
	.st19{clip-path:url(#SVGID_00000044887261731002663260000000554826599376059582_);fill:#DDDDDD;}
	.st20{fill:#3F3268;}
	.st21{fill:#8A96AB;}
	.st22{clip-path:url(#SVGID_00000128464514910292904580000015847573301979861656_);fill:#D8B81A;}
	.st23{clip-path:url(#SVGID_00000128464514910292904580000015847573301979861656_);fill:#F2D42D;}
	.st24{clip-path:url(#SVGID_00000128464514910292904580000015847573301979861656_);fill:#B59510;}
	.st25{clip-path:url(#SVGID_00000128464514910292904580000015847573301979861656_);}
	
		.st26{clip-path:url(#SVGID_00000128485676024491189510000011935893627141553051_);fill:none;stroke:#C5E6F9;stroke-width:0.8341;stroke-miterlimit:10;}
	.st27{clip-path:url(#SVGID_00000035522634004056245200000015797546405370397837_);fill:#F2D42D;}
	.st28{clip-path:url(#SVGID_00000035522634004056245200000015797546405370397837_);fill:#B59510;}
	.st29{clip-path:url(#SVGID_00000008150534007297085880000008158099887537458866_);fill:#F2D42D;}
	.st30{clip-path:url(#SVGID_00000008150534007297085880000008158099887537458866_);fill:#D8B81A;}
	.st31{fill:#C5E6F9;}
	.st32{fill:none;stroke:#939598;stroke-width:2;stroke-miterlimit:10;}
	.st33{fill:#581D7F;}
	.st34{clip-path:url(#SVGID_00000129180894152451845280000007504459481509375883_);fill:#F2D42D;}
	.st35{clip-path:url(#SVGID_00000129180894152451845280000007504459481509375883_);fill:#D8B81A;}
</style>
<g>
	<g>
		<g>
			<defs>
				<path id="SVGID_1_" d="M44.8,485.5l-0.6-0.1l-3.4-45l-1.1-49.9l-12.6,6.9l7.1,86.9c-0.2,0.8-0.3,1.7-0.2,2.5
					c0.1,3.1,1.7,5.4,3.7,5.6l0,0l10.3,1.4L44.8,485.5z"/>
			</defs>
			<use xlink:href="#SVGID_1_"  style="overflow:visible;fill:#F2D42D;"/>
			<clipPath id="SVGID_00000021108516602502398140000013973021113650186170_">
				<use xlink:href="#SVGID_1_"  style="overflow:visible;"/>
			</clipPath>
			<polygon style="clip-path:url(#SVGID_00000021108516602502398140000013973021113650186170_);fill:#F2D42D;" points="21.7,393.5 
				41.8,388.4 51.8,496.6 30.1,492.4 			"/>
			<path style="clip-path:url(#SVGID_00000021108516602502398140000013973021113650186170_);fill:#694D81;" d="M40.4,487.9
				c0-1,0.1-2,0.3-2.9l-3.3-0.4c-0.3,1-0.5,2.1-0.4,3.3c0.1,2,0.8,3.7,1.8,4.7l4.2,0.6C41.6,492.4,40.5,490.5,40.4,487.9z"/>
			<polygon style="clip-path:url(#SVGID_00000021108516602502398140000013973021113650186170_);fill:#DDDDDD;" points="30.9,488.3 
				46.6,491.1 50.7,494.6 51.4,496.4 31.9,493.6 			"/>
		</g>
		<g>
			<g>
				<polygon class="st3" points="51.6,485.5 44.5,489.5 37.1,398.8 49.6,391.8 				"/>
				
					<ellipse transform="matrix(0.1259 -0.992 0.992 0.1259 -440.9217 473.842)" class="st3" cx="48.4" cy="487.1" rx="6.7" ry="4.5"/>
			</g>
		</g>
	</g>
	<g>
		<g>
			<defs>
				<path id="SVGID_00000069385053068995378870000002831886660569043634_" d="M47.6,280.6c0.1-0.5,0.1-1,0.2-1.5l8.3-8.2l-13.1-2.5
					l0,0c-1.9-0.4-4.1,0.1-6.6,1.8c-6.3,4.4-11.4,14.8-11.4,23.3l0.8,94.7c-0.6,1.8-0.9,3.6-0.9,5.3c0,3.5,1.4,5.6,3.5,5.8l13,2.5
					l2.2-11.1l-4.3-0.9L47.6,280.6z"/>
			</defs>
			<clipPath id="SVGID_00000176027383039320697100000002761213634117340592_">
				<use xlink:href="#SVGID_00000069385053068995378870000002831886660569043634_"  style="overflow:visible;"/>
			</clipPath>
			<path style="clip-path:url(#SVGID_00000176027383039320697100000002761213634117340592_);fill:#F2D42D;" d="M41.6,263.3
				l-16.1,12.8c0,0-6.6,23-6.4,23.7c0.2,0.7,1.1,100.9,1.1,100.9l24.8,6.2L55.1,286l5.5-15.7L41.6,263.3z"/>
			<path style="clip-path:url(#SVGID_00000176027383039320697100000002761213634117340592_);fill:#694D81;" d="M30,388.8l3.9,0.6
				c0,0-3.9,7.6,1.1,11.2l-3.6-0.8c0,0-2.6-1.8-2.9-5C28.2,392.7,28.9,389.9,30,388.8z"/>
			<polygon style="clip-path:url(#SVGID_00000176027383039320697100000002761213634117340592_);fill:#DDDDDD;" points="24.2,395.4 
				39.9,398.1 44,401.7 44.6,403.4 25.1,400.6 			"/>
		</g>
		<g>
			
				<ellipse transform="matrix(0.4052 -0.9142 0.9142 0.4052 -233.6488 216.7348)" class="st3" cx="49.7" cy="287.9" rx="18.4" ry="9.5"/>
			<polygon class="st3" points="51.2,385.8 39.2,394.2 38.3,295.9 57.6,282.4 			"/>
			
				<ellipse transform="matrix(0.4052 -0.9142 0.9142 0.4052 -330.3194 274.0276)" class="st3" cx="45.4" cy="390.9" rx="11.6" ry="6"/>
		</g>
	</g>
	<g>
		<defs>
			<path id="SVGID_00000132067844606986906230000016455954789883740300_" d="M35.1,491.7l10.3,1.5c0,0,1.6,0.1,4.9-1.7
				c2.1-1.1,2.9-2.5,3.3-1.8c2.1,4.6,2.8,11.3,1.8,12.6c-1,1.3-23.1,13.9-26.7,14.3c-3.6,0.3-18.9-2-18.6-4.3
				c0.3-2.3,12.4-6,14.3-8.1C26.2,502,31.6,496.2,35.1,491.7z"/>
		</defs>
		<clipPath id="SVGID_00000138562866299198932940000015909032911607572637_">
			<use xlink:href="#SVGID_00000132067844606986906230000016455954789883740300_"  style="overflow:visible;"/>
		</clipPath>
		<polygon style="clip-path:url(#SVGID_00000138562866299198932940000015909032911607572637_);fill:#F2D42D;" points="33.8,490 
			18.3,504.3 7.2,511.4 12.8,517 32.3,518.4 58.9,502 55.5,485.9 		"/>
		<path style="clip-path:url(#SVGID_00000138562866299198932940000015909032911607572637_);fill:#B59510;" d="M9.2,510.7
			c0,0,13.9,3.4,18,3s17.1-13.4,17.9-15.3c0.8-2,0.9-7,0.9-7l9.6-4.6l2.2,16.3L30,517.8l-13.9-0.2l-8-5L9.2,510.7z"/>
	</g>
	<g>
		<g>
			<defs>
				<path id="SVGID_00000034769565373885492770000008420951022005140129_" d="M93.9,495.7l-0.6-0.1l-3.4-45l-1.1-49.9l-12.6,6.9
					l7.1,86.9c-0.2,0.8-0.3,1.7-0.2,2.5c0.1,3.1,1.7,5.4,3.7,5.6l0,0l10.3,1.4L93.9,495.7z"/>
			</defs>
			<clipPath id="SVGID_00000157993529424961111960000011684722261745835155_">
				<use xlink:href="#SVGID_00000034769565373885492770000008420951022005140129_"  style="overflow:visible;"/>
			</clipPath>
			<polygon style="clip-path:url(#SVGID_00000157993529424961111960000011684722261745835155_);fill:#F2D42D;" points="70.8,403.7 
				90.9,398.6 100.9,506.8 79.2,502.6 			"/>
			<path style="clip-path:url(#SVGID_00000157993529424961111960000011684722261745835155_);fill:#694D81;" d="M89.5,498.1
				c0-1,0.1-2,0.3-2.9l-3.3-0.4c-0.3,1-0.5,2.1-0.4,3.3c0.1,2,0.8,3.7,1.8,4.7l4.2,0.6C90.7,502.6,89.6,500.6,89.5,498.1z"/>
			<polygon style="clip-path:url(#SVGID_00000157993529424961111960000011684722261745835155_);fill:#DDDDDD;" points="80,498.5 
				95.7,501.3 99.8,504.8 100.5,506.6 81,503.7 			"/>
		</g>
		<g>
			<g>
				<polygon class="st3" points="100.7,495.7 93.6,499.7 86.2,408.9 98.7,402 				"/>
				
					<ellipse transform="matrix(0.1259 -0.992 0.992 0.1259 -408.0942 531.4506)" class="st3" cx="97.5" cy="497.3" rx="6.7" ry="4.5"/>
			</g>
		</g>
	</g>
	<g>
		<path class="st12" d="M45.8,297.5c0,0-5.8-2.6-3.1-9.7c1.9-4.9,1.5-10.8,1.5-10.8l-2.1-10.8l44-1.3c0,0,1.4,15.2,1,18.5
			c-1.2,9.1-9.3,20.4-15.3,19.9L45.8,297.5z"/>
		<path class="st13" d="M69,295.5c2.3-6.1,2.5-12.5,2.5-12.5l-4.3-17.6l-25.1,0.7l2.1,10.8c0,0,0.3,6-1.5,10.8
			c-2.7,7.1,3.1,9.7,3.1,9.7l24.9,5.5C68.6,302,67.3,300,69,295.5z"/>
		<path class="st3" d="M86.2,264.9l-18.9,0.6l4.3,17.6c0,0-0.2,6.4-2.5,12.5c-1.7,4.5-0.4,6.5,1.7,7.5l1.2,0.3
			c6,0.4,14-10.8,15.3-19.9C87.6,280.1,86.2,264.9,86.2,264.9z"/>
		<ellipse class="st14" cx="64.1" cy="264.9" rx="22.1" ry="9.8"/>
	</g>
	<path class="st15" d="M20.8,156.9c0,12,9.4,17.3,14.4,17.3s9.1-7.7,9.1-17.3c0-9.5-4.1-17.3-9.1-17.3S20.8,144.8,20.8,156.9z"/>
	<path class="st16" d="M37.7,134.6c0,0-17.6,27.2-15.6,54.7c0,0,9.6,42.3,13.6,45.3c2.5,1.9,7.2,9.8,26.7,10.2
		c8,0.2,15.6-0.4,27.4-10.4c0,0,11.6-27.5,12.9-54.7s9-45.8-25.2-53.1C54.3,121.7,37.7,134.6,37.7,134.6z"/>
	<g>
		<g>
			<defs>
				<path id="SVGID_00000044141398260007870420000005817981533704665507_" d="M96.7,290.7c0.1-0.5,0.1-1,0.2-1.5l8.3-8.2L92,278.5
					l0,0c-1.9-0.4-4.1,0.1-6.6,1.8c-6.3,4.4-11.4,14.8-11.4,23.3l0.8,94.7c-0.6,1.8-0.9,3.6-0.9,5.3c0,3.5,1.4,5.6,3.5,5.8l13,2.5
					l2.2-11.1l-4.3-0.9L96.7,290.7z"/>
			</defs>
			<clipPath id="SVGID_00000175315440417597001670000009432520175982245284_">
				<use xlink:href="#SVGID_00000044141398260007870420000005817981533704665507_"  style="overflow:visible;"/>
			</clipPath>
			<path style="clip-path:url(#SVGID_00000175315440417597001670000009432520175982245284_);fill:#F2D42D;" d="M90.7,273.4
				l-16.1,12.8c0,0-6.6,23-6.4,23.7c0.2,0.7,1.1,100.9,1.1,100.9L94,417l10.2-120.8l5.5-15.7L90.7,273.4z"/>
			<path style="clip-path:url(#SVGID_00000175315440417597001670000009432520175982245284_);fill:#694D81;" d="M79.1,399l3.9,0.6
				c0,0-3.9,7.6,1.1,11.2l-3.6-0.8c0,0-2.6-1.8-2.9-5C77.3,402.9,78,400.1,79.1,399z"/>
			<polygon style="clip-path:url(#SVGID_00000175315440417597001670000009432520175982245284_);fill:#DDDDDD;" points="73.3,405.5 
				89,408.3 93.1,411.8 93.7,413.6 74.3,410.8 			"/>
		</g>
		<g>
			
				<ellipse transform="matrix(0.4052 -0.9142 0.9142 0.4052 -213.7426 267.6812)" class="st3" cx="98.8" cy="298.1" rx="18.4" ry="9.5"/>
			<polygon class="st3" points="100.4,395.9 88.3,404.4 87.4,306.1 106.8,292.6 			"/>
			<ellipse transform="matrix(0.4052 -0.9142 0.9142 0.4052 -310.4131 324.974)" class="st3" cx="94.5" cy="401" rx="11.6" ry="6"/>
		</g>
	</g>
	<g>
		<circle class="st15" cx="6.7" cy="220.8" r="6.7"/>
		<path class="st14" d="M0.2,216.7c0,0,2.5,3.2,6.6,4.8c4,1.5,7.9,0.9,7.9,0.9l27.9-58.2c-2.2,0.1-8.1-2-13-5.9
			c-5.4-4.3-7.4-9.6-6.6-13L0.2,216.7z"/>
	</g>
	<g>
		<g>
			<path class="st20" d="M83,216.3L83,216.3c0.4-6.9-7.3-12.2-17.5-12.4c-10.3-0.3-19.4,6.3-19.9,14l0,0.1L83,216.3z"/>
		</g>
		<g>
			<path class="st15" d="M46.3,266.3c-1.6-16.1-1.8-32.2-0.8-48.4l37.5-1.7c-0.9,14.4-0.8,31.5,0.7,45.4c0,0-2.6,7.5-18.9,9
				C49.8,272,46.3,266.3,46.3,266.3z"/>
			<g>
				<path class="st21" d="M82.9,219c0.3,3.2-1.6,6.8-5.2,9.6c-3.6,2.8-8.7,4.9-14,5.4c-5.2,0.5-10.4-0.6-13.9-3
					c-3.5-2.4-5.2-6.2-4.5-9.9c0.3,3.6,2.4,6.8,5.8,8.9c3.4,2,7.9,2.9,12.6,2.5c4.6-0.4,9.2-2.1,12.7-4.5
					C79.9,225.4,82.2,222.3,82.9,219z"/>
			</g>
			<g>
				<path class="st21" d="M82.5,240c0.6,3.2-1.1,6.8-4.5,9.8c-3.3,3-8.4,5.4-13.6,6.3c-5.2,0.9-10.5,0.2-14.2-2
					c-3.8-2.2-5.7-5.8-5.3-9.5c0.6,3.6,2.9,6.6,6.5,8.4c3.6,1.8,8.2,2.3,12.8,1.5c4.6-0.7,9.1-2.7,12.4-5.4
					C80,246.5,82.2,243.2,82.5,240z"/>
			</g>
		</g>
	</g>
	<g>
		<g>
			<g>
				<g>
					<path class="st15" d="M54.5,89.8c0.1-2.5,4.2-4.4,9.3-4.1c5,0.3,9,2.3,9,4.5L54.5,89.8z"/>
				</g>
				<g>
					<g>
						<path class="st15" d="M54.8,108.3c-0.3-6.2-0.4-12.4-0.3-18.5l18.2,0.4c-0.1,5.7,0,11.4,0.3,17.1L54.8,108.3z"/>
					</g>
					<g>
						<path class="st21" d="M72.7,92.2c0.1,1.2,0,2.4-0.5,3.6c-0.4,1.2-1.1,2.2-2,3.1c-1.8,1.7-4.1,2.7-6.6,2.8
							c-2.4,0-4.8-0.8-6.7-2.6c-0.9-0.9-1.7-2-2.1-3.2c-0.4-1.3-0.6-2.6-0.4-3.9c0.2,2.6,1.5,4.8,3.2,6.2c1.7,1.4,3.9,2,6,2
							c2.1,0,4.2-0.8,5.9-2.1C71.2,96.7,72.4,94.6,72.7,92.2z"/>
					</g>
				</g>
				<g>
					<g>
						<path class="st15" d="M56.9,127.1c-1.1-6.4-1.7-12.6-2.1-18.8l18.2-1c0.3,5.7,0.9,11.3,1.9,16.6L56.9,127.1z"/>
					</g>
					<g>
						<path class="st21" d="M73.1,109.3c0.2,1.2,0.2,2.4-0.2,3.6c-0.3,1.2-1,2.3-1.8,3.2c-1.6,1.9-3.9,3-6.3,3.4
							c-2.4,0.3-4.9-0.3-6.9-1.9c-1-0.8-1.8-1.9-2.4-3.1c-0.6-1.2-0.8-2.6-0.7-3.9c0.5,2.6,1.9,4.7,3.7,6c1.9,1.2,4,1.7,6.1,1.4
							c2.1-0.2,4.1-1.2,5.7-2.7C72,113.8,73,111.7,73.1,109.3z"/>
					</g>
				</g>
				<g>
					<g>
						<path class="st15" d="M63.3,146.8c-1.9-3.4-3.1-6.8-4.1-10c-1-3.3-1.7-6.5-2.3-9.7l18-3.2c0.5,2.7,1.1,5.3,1.8,7.7
							c0.7,2.4,1.6,4.7,2.6,6.4L63.3,146.8z"/>
					</g>
					<g>
						<path class="st21" d="M75.2,125.8c0.4,1.1,0.5,2.2,0.3,3.4c-0.2,1.1-0.6,2.3-1.2,3.3c-1.3,2-3.2,3.6-5.5,4.5
							c-2.3,0.8-4.9,0.7-7.2-0.6c-1.1-0.7-2.2-1.7-2.9-2.9c-0.8-1.2-1.2-2.6-1.3-4c0.8,2.6,2.6,4.7,4.6,5.6c2.1,1,4.3,1,6.3,0.4
							c2-0.6,3.8-2,5.1-3.6C74.7,130.1,75.4,128,75.2,125.8z"/>
					</g>
				</g>
				<g>
					<path class="st15" d="M63.3,146.8c0.3,0.7,1,1.2,1.8,1.6c0.8,0.3,1.7,0.5,2.6,0.4c2-0.1,4-1.2,6-2.8c1.9-1.6,3.4-3.4,4.4-4.8
						c0.5-0.7,0.9-1.3,1.1-1.9c0.2-0.5,0.2-0.9,0-1.3L63.3,146.8z"/>
				</g>
			</g>
		</g>
	</g>
	<g>
		<defs>
			<path id="SVGID_00000016077154539184606800000014161827469683400110_" d="M85.1,128.7c-4.5,12.8-20.4,13.8-30.7,11
				c-9.5-2.5-2.8-10.2-0.1-12.6c-13.2,3.4-16.6,7.5-16.6,7.5s-17.6,27.2-15.6,54.7c0,0,9.6,42.3,13.6,45.3c0.2,0.2,0.5,0.4,0.8,0.7
				c0.9-0.4,1.6-1.3,1.8-3c0.7-5-0.5-14.8,9.3-14.1c9.8,0.7,10.3,13.3,20.9,17.9c10.6,4.6,15.3,2,21.2-1.7c0,0,11.6-27.5,12.9-54.7
				C104,154.8,110.5,137,85.1,128.7z"/>
		</defs>
		<clipPath id="SVGID_00000088133134051893332450000002019234412243523730_">
			<use xlink:href="#SVGID_00000016077154539184606800000014161827469683400110_"  style="overflow:visible;"/>
		</clipPath>
		
			<rect x="19.2" y="121.4" style="clip-path:url(#SVGID_00000088133134051893332450000002019234412243523730_);fill:#D8B81A;" width="85.2" height="126.4"/>
		<polygon style="clip-path:url(#SVGID_00000088133134051893332450000002019234412243523730_);fill:#F2D42D;" points="27.1,152.9 
			58.6,137.6 85.5,163.7 112.1,140.6 81.5,124 48,124 29.1,133.3 		"/>
		<path style="clip-path:url(#SVGID_00000088133134051893332450000002019234412243523730_);fill:#B59510;" d="M105.1,143.6
			c0,0-5.3-7.3-12.3-4s-19.2,33.2-20.9,41.1s-3.1,28.2-2.9,33.2c0.2,5.4-0.9,25.4,13.9,27c14.8,1.6,27.8-32.6,27.8-32.6
			S124,146.2,105.1,143.6z"/>
		<path style="clip-path:url(#SVGID_00000088133134051893332450000002019234412243523730_);fill:#B59510;" d="M53.7,126.4
			c0,0-4,3.7-4.9,5.8c-0.9,2.2-2,6.1,5.6,7.5s2.8-11.1,2.8-11.1S60.6,125.2,53.7,126.4z"/>
		<path style="clip-path:url(#SVGID_00000088133134051893332450000002019234412243523730_);fill:#B59510;" d="M48.9,218.7
			c0,0-3.3-1.8-7.2-0.7c-2.8,0.8-4.1,5.5-4.3,7.7c-0.3,2.5,0,8.5-3.2,9.5s8.6,3.6,8.6,3.6L48.9,218.7z"/>
		<g style="clip-path:url(#SVGID_00000088133134051893332450000002019234412243523730_);">
			<polygon class="st3" points="57.3,190.9 28.2,186.1 32.8,165.3 62.7,168 			"/>
			<g>
				<defs>
					<polygon id="SVGID_00000111892537722639315320000003748460010431712186_" points="57.5,190.2 29.7,185.5 34.1,165.7 
						62.7,168.3 					"/>
				</defs>
				<use xlink:href="#SVGID_00000111892537722639315320000003748460010431712186_"  style="overflow:visible;fill:#694D81;"/>
				<clipPath id="SVGID_00000083787941899219976940000016092236077372867518_">
					<use xlink:href="#SVGID_00000111892537722639315320000003748460010431712186_"  style="overflow:visible;"/>
				</clipPath>
				
					<polyline style="clip-path:url(#SVGID_00000083787941899219976940000016092236077372867518_);fill:none;stroke:#C5E6F9;stroke-width:0.8341;stroke-miterlimit:10;" points="
					29.6,177.9 34.7,172.3 36.8,179.3 38.6,175.8 38.7,181.3 42.8,171.5 43.3,181 47.7,174.5 49.5,181.6 53.7,172.5 52.6,185 
					56.1,177.9 56.2,183.2 61.7,174.3 				"/>
			</g>
		</g>
	</g>
	<path class="st15" d="M110.6,160c0,12-9.4,17.3-14.4,17.3s-9.1-7.7-9.1-17.3c0-9.5,4.1-17.3,9.1-17.3S110.6,147.9,110.6,160z"/>
	<g>
		<defs>
			<path id="SVGID_00000078027190477363833330000017892239238391463313_" d="M84.2,501.9l10.3,1.5c0,0,1.6,0.1,4.9-1.7
				c2.1-1.1,2.9-2.5,3.3-1.8c2.1,4.6,2.8,11.3,1.8,12.6c-1,1.3-23.1,13.9-26.7,14.3c-3.6,0.3-18.9-2-18.6-4.3
				c0.3-2.3,12.4-6,14.3-8.1C75.3,512.2,80.8,506.4,84.2,501.9z"/>
		</defs>
		<clipPath id="SVGID_00000112603311322184086470000004455275296324443802_">
			<use xlink:href="#SVGID_00000078027190477363833330000017892239238391463313_"  style="overflow:visible;"/>
		</clipPath>
		<polygon style="clip-path:url(#SVGID_00000112603311322184086470000004455275296324443802_);fill:#F2D42D;" points="82.9,500.2 
			67.4,514.4 56.3,521.6 61.9,527.2 81.4,528.5 108,512.1 104.6,496 		"/>
		<path style="clip-path:url(#SVGID_00000112603311322184086470000004455275296324443802_);fill:#B59510;" d="M58.3,520.9
			c0,0,13.9,3.4,18,3c4.1-0.4,17.1-13.4,17.9-15.3s0.9-7,0.9-7l9.6-4.6l2.2,16.3L79.1,528l-13.9-0.2l-8-5L58.3,520.9z"/>
	</g>
	<g>
		<circle class="st15" cx="40.3" cy="204.1" r="6.7"/>
		<path class="st14" d="M45.9,209.3c0,0,0.6-5.2-2-8.8c-2.5-3.4-7.3-3.8-7.3-3.8l50.5-44c2.5-1.1,7.2-1.9,12.7,1.1
			c6.5,3.5,9.2,16.6,5.4,20.2L45.9,209.3z"/>
		<path class="st14" d="M31.6,136.5l7.6-0.4l8.8,66.8c0,0-2.3-1-7.2-0.6c-5.1,0.4-7.4,1.7-7.4,1.7L31.6,136.5z"/>
		<g>
			<g>
				<defs>
					<path id="SVGID_00000155864268316242666670000017687981877917279905_" d="M31.6,138.2l-4.3-16.6c0,0-0.2-1.4,0.3-1.8
						c1.1-0.8,4.2-0.9,9.6,1.3c7.7,3,11.3,10.6,11.3,10.6l-8.3,10.8L31.6,138.2z"/>
				</defs>
				<clipPath id="SVGID_00000183247204957005909030000010722330988974297255_">
					<use xlink:href="#SVGID_00000155864268316242666670000017687981877917279905_"  style="overflow:visible;"/>
				</clipPath>
				<polygon style="clip-path:url(#SVGID_00000183247204957005909030000010722330988974297255_);fill:#F2D42D;" points="38.4,144.8 
					51.3,130.3 35.6,118.7 25.4,120.6 29.9,140.5 				"/>
				<path style="clip-path:url(#SVGID_00000183247204957005909030000010722330988974297255_);fill:#D8B81A;" d="M36.5,149l6.4-7.9
					c0,0-5.7-4.7-10-5.1s-8.1,2-8.1,2l2.8,7.7L36.5,149z"/>
			</g>
			<path class="st15" d="M39.3,123.9c0,0-3.3-1.7-7-2.2c-4.4-0.7-4.9-0.1-4.9-0.1s-0.4-1.1,0.1-1.6s3.8-0.4,4.5-0.3
				c0.7,0.1,7.3,2.6,7.3,2.6L39.3,123.9z"/>
			<circle class="st15" cx="45.6" cy="129.5" r="3.4"/>
			<g>
				<path class="st14" d="M38.5,123c0,0-0.7,3,1.6,3.7c2,0.6,3-1.8,3-1.8l1.5-8.8c0,0,4.1-3.6,2.2-6.3l-5.9,3.4L38.5,123z"/>
				<path class="st13" d="M27.3,120.5l3.9-8.6l8.8-3.1l6.9,1.1l-5.9,3.4l-2.5,9.8c0,0-3.1-2.1-6.8-2.8
					C30.4,119.9,28.4,119.9,27.3,120.5z"/>
				<polygon class="st3" points="31.2,111.9 41,113.2 46.9,109.9 40,108.7 				"/>
			</g>
			
				<ellipse transform="matrix(0.9952 -9.768169e-02 9.768169e-02 0.9952 -11.9308 4.5841)" class="st15" cx="40.9" cy="124.1" rx="1.9" ry="2.2"/>
			<g>
				<path class="st14" d="M49,117.9c3-1.5,5.6-0.6,5.6-0.6L49,130.8c0,0-1.6,1.8-4.3,0.6c-2.5-1.1-2.3-3.3-2.3-3.3l2.7-5.5
					C45.1,122.5,47.1,118.8,49,117.9z"/>
				<path class="st3" d="M43,130.1C43,130,43,130,43,130.1l2.7-5.6c0,0,1.9-3.7,3.9-4.6c1.7-0.8,3.2-0.9,4.3-0.8l0.7-1.7
					c0,0-2.5-0.9-5.6,0.6c-1.9,0.9-3.9,4.6-3.9,4.6l-2.7,5.5C42.4,128,42.3,129.1,43,130.1z"/>
			</g>
		</g>
	</g>
	<g>
		<g>
			<g>
				
					<ellipse transform="matrix(0.1912 -0.9815 0.9815 0.1912 -60.3788 103.9819)" class="st15" cx="32.9" cy="88.6" rx="5.7" ry="1.1"/>
				
					<ellipse transform="matrix(0.1912 -0.9815 0.9815 0.1912 -58.369 107.6894)" class="st15" cx="36.2" cy="89.3" rx="5.7" ry="1.1"/>
				
					<rect x="32.9" y="83.2" transform="matrix(0.9815 0.1912 -0.1912 0.9815 17.6484 -4.964)" class="st15" width="3.3" height="11.4"/>
			</g>
			<g>
				
					<ellipse transform="matrix(0.3698 -0.9291 0.9291 0.3698 -42.7922 145.0904)" class="st15" cx="85.6" cy="104.1" rx="5.7" ry="1.1"/>
				
					<ellipse transform="matrix(0.3698 -0.9291 0.9291 0.3698 -43.5945 141.4552)" class="st15" cx="82.5" cy="102.9" rx="5.7" ry="1.1"/>
				
					<rect x="82.4" y="97.8" transform="matrix(-0.9291 -0.3698 0.3698 -0.9291 123.8056 230.6812)" class="st15" width="3.3" height="11.4"/>
			</g>
			<g>
				<path class="st14" d="M35.7,90.3C35.7,90.3,35.7,90.3,35.7,90.3c-3.2,10.9,4.7,19.3,17.7,23.2s26.3,1.6,29.5-9.3c0,0,0,0,0,0
					L35.7,90.3z"/>
				
					<ellipse transform="matrix(0.2817 -0.9595 0.9595 0.2817 -50.6947 126.7572)" class="st16" cx="59.3" cy="97.2" rx="6.3" ry="24.6"/>
			</g>
			<path class="st14" d="M85.4,101.7c0,0-10.1,3.3-28.5-2.1c-18.4-5.4-22.1-12.7-22.1-12.7l9.5-63.1l64.1,19.1L85.4,101.7z"/>
		</g>
		<g>
			<circle class="st31" cx="85.3" cy="79.8" r="10.9"/>
			<circle class="st20" cx="81.6" cy="77.6" r="5.2"/>
			<path class="st3" d="M88.4,69.3c0,0-10.2-3.2-13.6,8.6c0,0,7.5-4.8,12.4-3.9c7,1.3,9.4,7.9,9.4,7.9S97.5,72,88.4,69.3z"/>
			<path class="st13" d="M82,91.3c-6.3-1.9-10-8.5-8.1-14.8c1.9-6.3,8.5-10,14.8-8.1s10,8.5,8.1,14.8S88.3,93.1,82,91.3z M88.1,70.3
				c-5.3-1.5-10.8,1.5-12.3,6.7c-1.5,5.3,1.5,10.8,6.7,12.3c5.3,1.5,10.8-1.5,12.3-6.7C96.4,77.3,93.4,71.8,88.1,70.3z"/>
			<g>
				<path class="st20" d="M74,76.9c2.2-1.6,4.5-2.8,7.1-3.6c1.3-0.4,2.6-0.6,4-0.6c1.4,0,2.7,0.4,4,0.8c2.5,0.8,4.8,2.4,6.5,4.4
					c0.9,1,1.6,2,2.4,2.9c0.4,0.4,0.8,0.7,1.3,0.8c0.5,0.1,1,0,1.6-0.2c0.3-0.1,0.5,0,0.6,0.3c0.1,0.2,0,0.5-0.3,0.6
					c-0.6,0.3-1.4,0.5-2.1,0.3c-0.8-0.1-1.4-0.6-1.9-1c-1-0.9-1.7-1.9-2.6-2.8c-1.7-1.8-3.7-3-6-3.6c-1.1-0.3-2.4-0.5-3.4-0.5
					c-1.1,0-2.3,0.3-3.4,0.7c-2.2,0.8-4.4,2.1-6.2,3.5l-0.1,0c-0.5,0.4-1.3,0.3-1.7-0.2C73.3,78.1,73.4,77.4,74,76.9
					C74,76.9,74,76.9,74,76.9z"/>
			</g>
		</g>
		<g>
			<circle class="st31" cx="46.8" cy="68.5" r="10.9"/>
			<circle class="st20" cx="42.1" cy="66" r="5.2"/>
			<path class="st3" d="M49.9,58c0,0,10.3,2.8,6.8,14.6c0,0-3.7-8.1-8.3-10c-6.6-2.7-12.2,1.6-12.2,1.6S40.8,55.3,49.9,58z"/>
			<path class="st13" d="M43.4,80c-6.3-1.9-10-8.5-8.1-14.8c1.9-6.3,8.5-10,14.8-8.1c6.3,1.9,10,8.5,8.1,14.8
				C56.4,78.2,49.8,81.8,43.4,80z M49.6,58.9c-5.3-1.5-10.8,1.5-12.3,6.7C35.7,71,38.7,76.5,44,78c5.3,1.5,10.8-1.5,12.3-6.7
				C57.9,66,54.9,60.5,49.6,58.9z"/>
			<g>
				<path class="st20" d="M55.6,73c-0.7-2.2-1.9-4.4-3.3-6.3c-0.7-0.9-1.5-1.8-2.5-2.4c-0.9-0.6-2.1-1.1-3.2-1.4
					c-2.3-0.7-4.7-0.8-7-0.2c-1.2,0.3-2.3,0.7-3.7,1c-0.7,0.1-1.5,0.1-2.2-0.2c-0.7-0.3-1.2-0.9-1.6-1.4c-0.2-0.2-0.1-0.5,0.1-0.7
					c0.2-0.1,0.5-0.1,0.7,0.1c0.3,0.5,0.7,0.8,1.2,1c0.4,0.2,1,0.1,1.5,0c1.1-0.3,2.3-0.8,3.5-1.1c2.5-0.8,5.3-0.9,7.9-0.2
					c1.3,0.4,2.5,0.7,3.7,1.5c1.2,0.7,2.2,1.7,3.1,2.7c1.7,2.1,3,4.3,4,6.8c0.3,0.6-0.1,1.4-0.7,1.6c-0.6,0.3-1.4-0.1-1.6-0.7
					C55.6,73.1,55.6,73,55.6,73L55.6,73z"/>
			</g>
		</g>
		<g>
			<path class="st13" d="M39.6,24.1c0,0,2,7.1,2.2,11.1c0.2,3.1-0.2,6.9-0.2,6.9s3.2,5.2,27.8,12.5c26.4,7.8,32.3,5.2,32.3,5.2
				s1.7-3.3,3.6-6.3c1.5-2.4,6.4-8.1,6.4-8.1L39.6,24.1z"/>
			
				<ellipse transform="matrix(0.2817 -0.9595 0.9595 0.2817 21.2864 97.4295)" class="st15" cx="75.7" cy="34.5" rx="5.3" ry="37.6"/>
			<path class="st14" d="M76.9,30.3c24.4,7.2,33.3,13,33.9,14.4l1,0.3c0.7-2.8-14.7-9.8-34.6-15.7c-19.9-5.8-36.6-8.3-37.6-5.5
				l1,0.3C41.9,23.3,52.6,23.2,76.9,30.3z"/>
			<g>
				<path class="st13" d="M46.7,12c0,0,1.6,9.5,1.6,11.7c0.1,2.2-0.1,9.6-0.1,9.6s1,5.4,23.6,12.1c23.7,7,27.7,3,27.7,3
					s3.8-6.3,5-8.1c1.3-1.9,7.8-9.1,7.8-9.1L46.7,12z"/>
			</g>
			<ellipse transform="matrix(0.2817 -0.9595 0.9595 0.2817 36.501 91.755)" class="st15" cx="79.5" cy="21.5" rx="4.8" ry="34.2"/>
			<path class="st14" d="M47.8,12.2c0.5-0.2,2.5-0.9,10.3,0.4c6.3,1,14.3,2.9,22.6,5.3s16,5.2,21.9,7.8c7.2,3.2,8.6,4.8,8.8,5.3
				c0,0-0.1,0-0.1,0.1l1.1,0.3c0,0,0,0,0-0.1c0.8-2.6-13.3-9-31.4-14.3c-18.1-5.3-33.4-7.6-34.2-5c0,0,0,0.1,0,0.1l1.1,0.3
				C47.8,12.2,47.8,12.2,47.8,12.2z"/>
			<line class="st32" x1="81.6" y1="13.9" x2="78.1" y2="26"/>
			<circle class="st33" cx="82.5" cy="11" r="10.9"/>
			<path class="st14" d="M110.8,44.8C110.8,44.8,110.8,44.8,110.8,44.8c-1.1,0.9-11.7,1.1-36.3-6.1S41.1,25.6,40.6,24.2c0,0,0,0,0,0
				l-1-0.3c0,0,0,0,0,0c-0.8,2.8,14.7,9.9,34.6,15.7c19.9,5.9,36.8,8.3,37.6,5.5c0,0,0,0,0,0L110.8,44.8z"/>
			<path class="st14" d="M111.2,30.9c-0.6,0.3-2.9,0.7-10.2-0.4c-6.3-1-14.3-2.9-22.6-5.3s-16-5.2-21.9-7.8c-6.7-3-8.4-4.6-8.8-5.1
				l-1.1-0.3c-0.4,2.6,13.5,8.9,31.4,14.2c17.9,5.3,33.1,7.5,34.1,5.1L111.2,30.9z"/>
		</g>
	</g>
	<path class="st14" d="M55.5,222l-0.7-8.7L5.5,213c0,0-2.3,2.6-1.9,7.5c0.3,5.1,2.9,7.1,2.9,7.1L55.5,222z"/>
	<g>
		<g>
			<circle class="st15" cx="56.1" cy="221.6" r="3.1"/>
			<g>
				<path class="st13" d="M66.6,225.8c1.1,3,0,5.3,0,5.3l-12-6.4c0,0-1.5-1.7-0.2-4.1c1.2-2.2,3.3-1.8,3.3-1.8l4.9,3
					C62.7,221.8,65.9,223.9,66.6,225.8z"/>
				<path class="st3" d="M55.9,219.2C55.9,219.2,55.9,219.2,55.9,219.2l4.9,3c0,0,3.3,2.1,4,4c0.6,1.6,0.6,3.1,0.4,4l1.5,0.8
					c0,0,1.1-2.3,0-5.3c-0.7-1.9-4-4-4-4l-4.9-3C57.8,218.8,56.8,218.6,55.9,219.2z"/>
			</g>
		</g>
		<g>
			<defs>
				<path id="SVGID_00000005962876915189735940000012563559032700468370_" d="M50.7,212.9l14.7-1.2c0,0,1.3,0,1.6,0.5
					c0.6,1.1,0.2,4-2.5,8.7c-1.4,2.4,0,5-2.4,5.4c-6.6,0.9-16-3.2-16-3.2s-2.4-3.1-0.9-6.7C46.6,212.9,50.7,212.9,50.7,212.9z"/>
			</defs>
			<clipPath id="SVGID_00000029748479459879087950000004226949854394110895_">
				<use xlink:href="#SVGID_00000005962876915189735940000012563559032700468370_"  style="overflow:visible;"/>
			</clipPath>
			<polygon style="clip-path:url(#SVGID_00000029748479459879087950000004226949854394110895_);fill:#F2D42D;" points="42.4,218.7 
				53.9,232.7 66.9,219.8 66.6,210.2 47.6,211.4 			"/>
			<path style="clip-path:url(#SVGID_00000029748479459879087950000004226949854394110895_);fill:#D8B81A;" d="M42,220.9l6.3,6.5
				c0,0,5.2-4.1,6.2-8c1-3.9-0.6-7.8-0.6-7.8l-7.5,1.5L42,220.9z"/>
		</g>
		<path class="st15" d="M61.6,222.5c0,0,2.1-2.8,3.1-6.1c1.2-4,0.7-4.5,0.7-4.5s1.1-0.2,1.5,0.3s-0.2,3.5-0.4,4.2
			c-0.2,0.6-3.5,6.4-3.5,6.4L61.6,222.5z"/>
		<g>
			<path class="st14" d="M62.5,221.9c0,0-2.7-1.1-3.6,1c-0.8,1.8,1.2,3.1,1.2,3.1l7.9,2.7c0,0,2.7,4.3,5.5,2.9l-2.2-5.9L62.5,221.9z
				"/>
			<path class="st13" d="M66.4,211.9l7.4,4.8l1.6,8.6l-2,6.2l-2.2-5.9l-8.7-3.7c0,0,2.4-2.5,3.6-5.8C66.6,214.9,66.8,213,66.4,211.9
				z"/>
			<polygon class="st3" points="73.8,216.7 71.2,225.6 73.4,231.5 75.5,225.3 			"/>
		</g>
		
			<ellipse transform="matrix(5.609369e-02 -0.9984 0.9984 5.609369e-02 -165.829 272.3708)" class="st15" cx="61.1" cy="223.9" rx="1.8" ry="2"/>
	</g>
</g>
</svg>
