<?xml version="1.0" encoding="utf-8"?>
<!-- Generator: Adobe Illustrator 26.3.1, SVG Export Plug-In . SVG Version: 6.00 Build 0)  -->
<svg version="1.1" id="Layer_1" xmlns="http://www.w3.org/2000/svg" xmlns:xlink="http://www.w3.org/1999/xlink" x="0px" y="0px"
	 viewBox="0 0 317.6 427.5" style="enable-background:new 0 0 317.6 427.5;" xml:space="preserve">
<style type="text/css">
	.st0{fill:#E86121;}
	.st1{fill:#AF4C1B;}
	.st2{fill:#D2581D;}
	.st3{fill:#823B17;}
	.st4{fill:#F26933;}
	.st5{fill:#1B5780;}
	.st6{fill:#B8C1C9;}
	.st7{clip-path:url(#SVGID_00000072983583037322044490000017061135831675186327_);fill:#E86121;}
	.st8{clip-path:url(#SVGID_00000072983583037322044490000017061135831675186327_);fill:#D2581D;}
	.st9{clip-path:url(#SVGID_00000164497344270155386490000008240300239681406095_);fill:#E86121;}
	.st10{clip-path:url(#SVGID_00000164497344270155386490000008240300239681406095_);fill:#D2581D;}
	.st11{fill:#144261;}
	.st12{fill:#E6E6E6;}
	.st13{fill:#1A1A1A;}
	.st14{clip-path:url(#SVGID_00000145778373647021700450000002955535185522760100_);fill:#1A1A1A;}
</style>
<g>
	<g>
		<path class="st0" d="M162.6,345.8L162.6,345.8c-17.5,12.5-40,8.8-50.3-8.4l-50.8-84.4c-10.3-17.1-4.5-41.1,13-53.6l0,0
			c17.5-12.5,40-8.8,50.3,8.4l50.8,84.4C185.9,309.3,180.1,333.3,162.6,345.8z"/>
		<polygon class="st0" points="102,192.5 116.8,195.4 146.8,355.1 132.7,352.3 62.9,233.4 		"/>
		<path class="st1" d="M175.5,348.4L175.5,348.4c-17.5,12.5-40,8.8-50.3-8.4l-50.8-84.4c-10.3-17.1-4.5-41.1,13-53.6l0,0
			c17.5-12.5,40-8.8,50.3,8.4l50.8,84.4C198.8,311.9,193,335.9,175.5,348.4z"/>
	</g>
	<g>
		
			<ellipse transform="matrix(0.4353 -0.9003 0.9003 0.4353 18.045 361.444)" class="st2" cx="297.2" cy="166.3" rx="27.9" ry="18.2"/>
		
			<rect x="282.4" y="135.1" transform="matrix(0.9003 0.4353 -0.4353 0.9003 99.8815 -110.0597)" class="st2" width="15.6" height="55.7"/>
		
			<ellipse transform="matrix(0.4353 -0.9003 0.9003 0.4353 16.2217 345.1171)" class="st3" cx="283.2" cy="159.6" rx="27.9" ry="18.2"/>
	</g>
	<g>
		<ellipse class="st2" cx="156.4" cy="410.2" rx="86.3" ry="17.4"/>
		<polygon class="st2" points="254.1,362 58.7,362 70.2,410.7 242.6,410.7 		"/>
		<ellipse class="st4" cx="156.4" cy="362" rx="97.8" ry="19.7"/>
		<ellipse class="st2" cx="156.4" cy="362" rx="52.1" ry="9.3"/>
		<polygon class="st2" points="208.7,362.2 104.5,362.2 99.4,301.4 213.8,301.4 		"/>
		<path class="st4" d="M213.8,301.4c0,5.7-25.7,10.3-57.4,10.3S99,307.1,99,301.4s18.9-20.8,57.4-20.8S213.8,295.8,213.8,301.4z"/>
	</g>
	<path class="st0" d="M190.2,99.8c-11.3-6.4-26.6-0.7-34.1,12.6c-3,5.3-4.3,11-4.1,16.3L88.8,241c-5.2,9.2-1.9,20.8,7.3,25.9l0,0
		c9.2,5.2,20.8,1.9,25.9-7.3l63.2-112.3c4.7-2.6,8.9-6.7,11.9-12C204.5,122.1,201.5,106.1,190.2,99.8z"/>
	<g>
		<path class="st1" d="M100.1,267.9L100.1,267.9c-9.2-5.2-12.4-16.8-7.3-25.9L158,126.2l33.2,18.7L126,260.7
			C120.9,269.9,109.2,273.1,100.1,267.9z"/>
		
			<ellipse transform="matrix(0.4906 -0.8714 0.8714 0.4906 -16.8757 221.011)" class="st1" cx="180.6" cy="124.9" rx="27.7" ry="23.5"/>
		
			<ellipse transform="matrix(0.4906 -0.8714 0.8714 0.4906 -16.8757 221.011)" class="st5" cx="180.6" cy="124.9" rx="15.6" ry="13.2"/>
	</g>
	<g>
		<path class="st6" d="M273.3,178.9l-67.6-32.8l19-39.3l67.6,32.8c0,0,1.4,2,0,4.7c-1.3,2.7-3.8,3.1-3.8,3.1l-59.8-29L217.3,142
			l59.8,29c0,0,1.2,2.1-0.1,4.9C275.9,178.5,273.3,178.9,273.3,178.9z"/>
	</g>
	<g>
		<path class="st0" d="M100.1,268.5l52.3,13.6l6.2-20.2l-67.4-20.5c0,0-3.2,4.1-2.9,11.4C88.7,260.7,100.1,268.5,100.1,268.5z"/>
		<polygon class="st0" points="138.6,256.1 88.4,243.1 146.1,139.9 196.3,153 		"/>
	</g>
	<g>
		<g>
			<defs>
				<path id="SVGID_1_" d="M254.8,117.1C254.7,117.1,254.7,117,254.8,117.1L254.8,117.1l-81-39.2L149.4,128l81,39.2l0,0
					c0,0,0.1,0,0.1,0c9.1,4.4,21.8-3.3,28.5-17.1C265.7,136.2,263.8,121.5,254.8,117.1z"/>
			</defs>
			<clipPath id="SVGID_00000108278343087109169850000012366449522248371630_">
				<use xlink:href="#SVGID_1_"  style="overflow:visible;"/>
			</clipPath>
			<polygon style="clip-path:url(#SVGID_00000108278343087109169850000012366449522248371630_);fill:#E86121;" points="171,68.5 
				263.6,116 270.6,152.5 239.4,175.3 139.5,128.9 			"/>
			<polygon style="clip-path:url(#SVGID_00000108278343087109169850000012366449522248371630_);fill:#D2581D;" points="153.1,102.4 
				265.9,157.1 253.6,181 135.5,128.6 			"/>
		</g>
		<ellipse transform="matrix(0.4353 -0.9003 0.9003 0.4353 -1.434 203.715)" class="st3" cx="161.7" cy="103" rx="27.9" ry="18.2"/>
	</g>
	<path class="st0" d="M239,112.3c-11.3-6.4-26.6-0.7-34.1,12.6c-3,5.3-4.3,11-4.1,16.3l-63.2,112.3c-5.2,9.2-1.9,20.8,7.3,25.9l0,0
		c9.2,5.2,20.8,1.9,25.9-7.3l63.2-112.3c4.7-2.6,8.9-6.7,11.9-12C253.4,134.6,250.4,118.6,239,112.3z"/>
	<g>
		<path class="st1" d="M148.5,280.3L148.5,280.3c-9.2-5.2-12.4-16.8-7.3-25.9l65.2-115.8l33.2,18.7l-65.2,115.8
			C169.2,282.3,157.6,285.5,148.5,280.3z"/>
		
			<ellipse transform="matrix(0.4906 -0.8714 0.8714 0.4906 -3.0414 269.4817)" class="st1" cx="229" cy="137.3" rx="27.7" ry="23.5"/>
		
			<ellipse transform="matrix(0.4906 -0.8714 0.8714 0.4906 -3.0414 269.4817)" class="st5" cx="229" cy="137.3" rx="15.6" ry="13.2"/>
	</g>
	<g>
		<path class="st0" d="M238.3,353.8L238.3,353.8c-17.5,12.5-40,8.8-50.3-8.4l-50.8-84.4c-10.3-17.1-4.5-41.1,13-53.6l0,0
			c17.5-12.5,40-8.8,50.3,8.4l50.8,84.4C261.6,317.3,255.8,341.3,238.3,353.8z"/>
		<polygon class="st0" points="177.7,200.4 192.4,203.4 222.4,363.1 208.4,360.3 138.5,241.4 		"/>
		<path class="st1" d="M251.1,356.3L251.1,356.3c-17.5,12.5-40,8.8-50.3-8.4L150,263.6c-10.3-17.1-4.5-41.1,13-53.6l0,0
			c17.5-12.5,40-8.8,50.3,8.4l50.8,84.4C274.4,319.8,268.6,343.8,251.1,356.3z"/>
		
			<ellipse transform="matrix(0.4906 -0.8714 0.8714 0.4906 -117.3978 281.4362)" class="st5" cx="182" cy="241.1" rx="17.9" ry="15.2"/>
	</g>
	<path class="st6" d="M159.2,111.2L99.9,83.4l7.5-15.9l59.3,27.8c0,0,3.7,2.9,0.5,9.8C163.9,112.2,159.2,111.2,159.2,111.2z"/>
	<g>
		<defs>
			<path id="SVGID_00000098924140463491298640000015382898150600685213_" d="M120.3,119.2c-0.2,0.3-18.5-9.8-34-19.6
				c-15.9-10-42-29.7-42-29.7l17-36.2c0,0,31.8,7.3,49.6,13.3C128,52.9,147.7,61,147.7,61s11.7,9.6,2.7,32.3
				C140.9,117.1,120.3,119.2,120.3,119.2z"/>
		</defs>
		<clipPath id="SVGID_00000047046525018903955160000013552135329530835643_">
			<use xlink:href="#SVGID_00000098924140463491298640000015382898150600685213_"  style="overflow:visible;"/>
		</clipPath>
		<polygon style="clip-path:url(#SVGID_00000047046525018903955160000013552135329530835643_);fill:#E86121;" points="59.9,22.1 
			36.6,73.8 129.7,132.6 156.7,97.9 161.9,53.5 		"/>
		<path style="clip-path:url(#SVGID_00000047046525018903955160000013552135329530835643_);fill:#D2581D;" d="M45.7,56.1
			c0,0,29.4,18.4,53.5,30.5c24.6,12.4,51,21.9,51,21.9l-22.6,21.1l-91-55.9L45.7,56.1z"/>
	</g>
	<g>
		<polygon class="st0" points="55.1,35.5 42.5,61.1 24.8,47.3 35.9,28.8 		"/>
		<polygon class="st2" points="35.9,28.8 24.8,47.3 6,37.5 17.7,17.3 		"/>
	</g>
	<ellipse transform="matrix(0.4251 -0.9051 0.9051 0.4251 -16.4845 78.6682)" class="st3" cx="53.7" cy="52.3" rx="20" ry="11.2"/>
	<g>
		<g>
			<path class="st5" d="M61.1,36.4c-0.2-0.1-0.5-0.3-0.7-0.4c-0.5-0.2-1.1-0.5-1.6-0.7c-8.5-3-18.1,0.8-22,9.2
				c-3.9,8.4-0.7,18.2,7.1,22.8c0.5,0.3,0.9,0.5,1.4,0.8c0.2,0.1,0.5,0.2,0.7,0.3c3.7,0.4,11.5-3.6,15.4-12.9
				C65.2,46.5,63.2,39.3,61.1,36.4z"/>
		</g>
	</g>
	<path class="st11" d="M119.2,348.3l12.4,1.4c0,0-1.6,5.9-6.1,5.4S118.9,350.2,119.2,348.3z"/>
	<g>
		<polygon class="st2" points="39,62.2 55.4,59.1 42.9,68.9 23,71.5 		"/>
		<polygon class="st0" points="55.4,59.1 56.9,61.5 43.3,72.8 23.4,65.3 25.4,61.9 42.9,68.9 		"/>
		<polygon class="st2" points="23.4,65.3 0,68 2.5,64.9 25.4,61.9 		"/>
		<polygon class="st1" points="0,68 23.4,65.3 43.3,72.8 19.7,74.6 		"/>
	</g>
	<g>
		<polygon class="st2" points="55.7,34.9 59.5,48 68.9,33.5 64.2,18.2 		"/>
		<polygon class="st3" points="64.2,18.2 68.9,33.5 65.9,19.2 59.2,1.4 		"/>
		<polygon class="st0" points="59.2,1.4 65.9,19.2 69.6,18 62.1,0 		"/>
		<polygon class="st1" points="69.6,18 65.9,19.2 68.9,33.5 59.5,48 62.7,49.1 72.6,34.5 		"/>
	</g>
	<path class="st11" d="M140.5,315.8c1.5-2.4,3.6-3.9,5.8-5c2.3-1,4.7-1.4,7.2-1c0.6,0,1.2,0.2,1.8,0.4c0.6,0.2,1.2,0.3,1.8,0.6
		c0.6,0.3,1.1,0.5,1.7,0.8c0.5,0.3,1.1,0.7,1.6,1.1c1.1,0.7,1.9,1.7,2.8,2.7c0.8,1,1.6,2.2,2.2,3.4c-1.2-0.3-2.2-0.9-3.3-1.3
		c-1.1-0.3-2-0.9-3.1-1.2c-0.5-0.2-1-0.3-1.5-0.5c-0.5-0.1-1-0.3-1.5-0.4c-0.5-0.2-1-0.2-1.5-0.3c-0.5-0.1-1-0.2-1.5-0.3
		c-2-0.3-4-0.3-6.1-0.1C144.9,314.9,142.8,315.2,140.5,315.8z"/>
	<path class="st11" d="M100,312.1c0.1-1.2,0.5-2.2,1.3-3c0.9-1,2.2-1.7,3.8-1.8c0.4-0.1,0.9,0,1.3,0c0.4,0.1,0.9,0.1,1.3,0.3
		c0.4,0.2,0.9,0.3,1.3,0.5c0.4,0.2,0.8,0.5,1.2,0.8c0.8,0.5,1.4,1.3,1.9,2c0.5,0.8,0.8,1.6,1,2.4c-0.9-0.2-1.6-0.6-2.3-0.8
		c-0.8-0.2-1.4-0.5-2.1-0.7c-0.3-0.1-0.7-0.2-1-0.3c-0.3,0-0.6-0.1-0.9-0.2c-0.3-0.1-0.6-0.1-0.9-0.1c-0.3,0-0.6-0.1-0.8-0.1
		c-1.1-0.1-2,0-2.9,0.2C101.4,311.5,100.7,311.8,100,312.1z"/>
	<g>
		<ellipse class="st11" cx="151.1" cy="333.2" rx="13.5" ry="12.5"/>
		<ellipse class="st5" cx="149.1" cy="333.2" rx="11.5" ry="12.5"/>
		<ellipse class="st12" cx="149.1" cy="333.2" rx="9.3" ry="10.1"/>
		<ellipse class="st13" cx="153.2" cy="328.7" rx="3.7" ry="4"/>
	</g>
	<g>
		<path class="st11" d="M102.6,317.7l8,2.8c0,0,8,7.4,0,20.2h-8V317.7z"/>
		<ellipse class="st5" cx="103.1" cy="329.2" rx="4.5" ry="11.5"/>
		<ellipse class="st12" cx="102.5" cy="329.2" rx="2.9" ry="9"/>
		<g>
			<defs>
				<ellipse id="SVGID_00000148631364355236456950000014070098071938846397_" cx="102.5" cy="329.2" rx="2.9" ry="9"/>
			</defs>
			<clipPath id="SVGID_00000013166467292620048280000015144893557135628180_">
				<use xlink:href="#SVGID_00000148631364355236456950000014070098071938846397_"  style="overflow:visible;"/>
			</clipPath>
			
				<ellipse style="clip-path:url(#SVGID_00000013166467292620048280000015144893557135628180_);fill:#1A1A1A;" cx="103.8" cy="325.9" rx="1.5" ry="3.8"/>
		</g>
	</g>
</g>
</svg>
