<?xml version="1.0" encoding="utf-8"?>
<!-- Generator: Adobe Illustrator 26.3.1, SVG Export Plug-In . SVG Version: 6.00 Build 0)  -->
<svg version="1.1" id="Layer_1" xmlns="http://www.w3.org/2000/svg" xmlns:xlink="http://www.w3.org/1999/xlink" x="0px" y="0px"
	 viewBox="0 0 211.2 328.8" style="enable-background:new 0 0 211.2 328.8;" xml:space="preserve">
<style type="text/css">
	.st0{fill:#72080C;}
	.st1{fill:#8E040E;}
	.st2{clip-path:url(#SVGID_00000040577234794377501560000015002887331693945256_);fill:#8E040E;}
	.st3{clip-path:url(#SVGID_00000040577234794377501560000015002887331693945256_);fill:#DDDDDD;}
	.st4{fill:#A8141C;}
	.st5{fill:#B8C1CA;}
	.st6{fill:#DDDDDD;}
	.st7{fill:none;stroke:#DDDDDD;stroke-width:1.5125;stroke-miterlimit:10;}
	.st8{clip-path:url(#SVGID_00000178900855864654764070000003556876163646781825_);fill:#324F6B;}
	.st9{clip-path:url(#SVGID_00000178900855864654764070000003556876163646781825_);}
	.st10{fill:none;stroke:#8A96AB;stroke-miterlimit:10;}
	.st11{fill:#8A96AB;}
	.st12{fill:#FFDE17;}
	.st13{clip-path:url(#SVGID_00000173156227221715866520000014754734583389392575_);fill:#A8141C;}
	.st14{clip-path:url(#SVGID_00000173156227221715866520000014754734583389392575_);fill:#72080C;}
	.st15{fill:#2D1113;}
	.st16{clip-path:url(#SVGID_00000075882881780921359220000014923414309546210735_);fill:#8E040E;}
	.st17{clip-path:url(#SVGID_00000075882881780921359220000014923414309546210735_);fill:#A8141C;}
	.st18{clip-path:url(#SVGID_00000075882881780921359220000014923414309546210735_);fill:#72080C;}
	.st19{clip-path:url(#SVGID_00000075882881780921359220000014923414309546210735_);fill:#A7A9AC;}
	.st20{clip-path:url(#SVGID_00000075882881780921359220000014923414309546210735_);fill:#808285;}
	.st21{clip-path:url(#SVGID_00000075882881780921359220000014923414309546210735_);fill:#2D1113;}
	.st22{clip-path:url(#SVGID_00000075882881780921359220000014923414309546210735_);fill:#B7D3DD;}
	.st23{clip-path:url(#SVGID_00000075882881780921359220000014923414309546210735_);fill:#7ABDCC;}
	.st24{clip-path:url(#SVGID_00000075882881780921359220000014923414309546210735_);}
	.st25{fill:#BC57BC;}
	.st26{fill:#6363EA;}
	.st27{fill:#37A583;}
	.st28{fill:#DDD433;}
	.st29{opacity:0.31;clip-path:url(#SVGID_00000075882881780921359220000014923414309546210735_);fill:#90CDDD;}
	.st30{fill:#90CDDD;}
	.st31{clip-path:url(#SVGID_00000111888741086797415810000011850407313977204908_);fill:#324F6B;}
	.st32{clip-path:url(#SVGID_00000111888741086797415810000011850407313977204908_);}
	.st33{clip-path:url(#SVGID_00000124881323861287544040000007234506398819557055_);fill:#8E040E;}
	.st34{clip-path:url(#SVGID_00000124881323861287544040000007234506398819557055_);fill:#DDDDDD;}
	.st35{fill:#A7A9AC;}
	.st36{fill:#808285;}
	.st37{fill:none;stroke:#C5E6F9;stroke-width:3.2887;stroke-linecap:round;stroke-miterlimit:10;}
</style>
<g>
	<g>
		<g>
			<g>
				<path class="st0" d="M24.1,65.6c4.6,2.4,7.5,10.4,6.5,17.7c-1,7.3-5.7,11.3-10.3,8.9l0.7-4.6c3,1.6,6-1,6.7-5.8
					s-1.2-10-4.2-11.5L24.1,65.6z"/>
			</g>
			<g>
				
					<ellipse transform="matrix(0.9952 -9.757663e-02 9.757663e-02 0.9952 -8.7526 2.3188)" class="st0" cx="19.3" cy="90.6" rx="3.8" ry="6.3"/>
			</g>
		</g>
		<polygon class="st1" points="23.5,70.3 36.4,68.5 37,63.9 24.1,65.6 		"/>
		<path class="st0" d="M23.5,70.3l4.1,1.1l2,9.7l-2.1,6l10,0.3l4.7-5.6c0,0-0.5-3.3-1-8.7c-0.4-4-4.7-4.5-4.7-4.5L23.5,70.3z"/>
		<g>
			<defs>
				<path id="SVGID_1_" d="M26.4,70.3l-0.8,7.9l2.9,9l-10.1,1.3L18.1,91c-0.9-0.5-1.8-1.2-2.5-2.1l0,0l0,0
					c-3.1-3.5-4.8-9.8-3.9-15.6c0.8-5.7,3.7-9.3,7.2-9.6l0,0L31.4,62l-1.1,1.6L26.4,70.3z"/>
			</defs>
			<clipPath id="SVGID_00000100371996109960533100000011633096008639856063_">
				<use xlink:href="#SVGID_1_"  style="overflow:visible;"/>
			</clipPath>
			<polygon style="clip-path:url(#SVGID_00000100371996109960533100000011633096008639856063_);fill:#8E040E;" points="13.7,90.8 
				8,79.7 9,69.3 14.6,62.9 34.1,60.2 33.7,64.7 27.1,72.4 27.7,81.8 31.4,88.9 			"/>
			<path style="clip-path:url(#SVGID_00000100371996109960533100000011633096008639856063_);fill:#DDDDDD;" d="M10.2,67.5
				c0.2,0,20-3,20-3l4.5-3.5c0,0-19.2,1.8-19.4,1.9C15,62.9,10.2,67.5,10.2,67.5z"/>
		</g>
		<polygon class="st0" points="20,96.9 33.1,95.1 28.5,87.2 15.5,89 		"/>
		<g>
			<g>
				<path class="st4" d="M34.8,62.7c-4.6-2.4-9.2,1.6-10.3,8.9c-1,7.3,1.9,15.3,6.5,17.7l0.7-4.6c-3-1.6-4.9-6.8-4.2-11.6
					s3.7-7.4,6.7-5.8L34.8,62.7z"/>
			</g>
			<g>
				<path class="st4" d="M37,63.9c4.6,2.4,7.5,10.4,6.5,17.7c-1,7.3-5.7,11.3-10.3,8.9l0.7-4.6c3,1.6,6-1,6.7-5.8s-1.2-10-4.2-11.5
					L37,63.9z"/>
			</g>
			<g>
				
					<ellipse transform="matrix(0.9952 -9.757663e-02 9.757663e-02 0.9952 -8.5199 3.5727)" class="st1" cx="32.3" cy="88.9" rx="3.8" ry="6.3"/>
			</g>
		</g>
	</g>
	<g>
		<g>
			<g>
				<g>
					<path class="st5" d="M67.2,126.6c1.6-0.4,4,3.1,5.8,7.8c1.8,4.7,1,9.3-1.4,9.9L67.2,126.6z"/>
				</g>
				<g>
					<g>
						<path class="st5" d="M54.9,127.7c3.9,0.3,8.2-0.1,12.3-1.2l4.4,17.7c-5.8,1.4-11.8,2.1-18.1,1.6L54.9,127.7z"/>
					</g>
					<g>
						<path class="st6" d="M69.5,144.8c-1.2,0.4-2.5,0.5-3.8,0.2c-1.3-0.3-2.4-0.8-3.3-1.7c-1.9-1.6-2.8-4-2.9-6.4
							c-0.1-2.4,0.5-4.8,1.7-6.7c0.6-0.9,1.3-1.8,2-2.3c0.8-0.6,1.7-0.9,2.6-0.9c-1.7,0.6-3,2-3.8,3.8c-0.8,1.8-1.3,4-1.1,6.1
							c0.1,2.1,0.9,4.2,2.4,5.7C64.6,144.1,67,145,69.5,144.8z"/>
					</g>
				</g>
				<g>
					<g>
						<path class="st5" d="M44.9,124.6c2.7,1.8,6.1,2.9,10,3.2l-1.4,18.2c-3.1-0.2-6.4-0.8-9.5-1.8c-3.2-1-6.3-2.5-9.2-4.4
							L44.9,124.6z"/>
					</g>
					<g>
						<path class="st6" d="M51.2,145.7c-0.7,0-1.4-0.1-2-0.3c-0.7-0.2-1.3-0.4-1.9-0.8c-1.2-0.7-2.1-1.7-2.7-2.9
							c-0.6-1.2-0.9-2.3-0.9-3.6c0-1.2,0.3-2.4,0.7-3.5c0.5-1.1,1.1-2.1,1.8-3.1c0.7-0.9,1.5-1.8,2.4-2.5c0.8-0.6,1.7-1.2,2.5-1.5
							c0.4-0.1,0.8-0.2,1.2-0.2c0.4,0,0.8,0.1,1.2,0.2c-0.8,0-1.6,0.3-2.3,0.7c-0.7,0.4-1.5,1-2.2,1.7c-1.3,1.3-2.6,3.2-3.3,5.1
							c-0.7,2-0.8,4.2,0,6.3c0.4,1,1.1,1.9,2.1,2.7C48.8,144.8,49.9,145.4,51.2,145.7z"/>
					</g>
				</g>
				<g>
					<g>
						<path class="st5" d="M38.5,116.7c1.6,3.4,3.7,6.1,6.4,7.9l-10.1,15.2c-2.9-1.9-5.5-4.3-7.6-6.9c-1-1.3-2.1-2.7-2.9-4.1
							c-0.4-0.7-0.9-1.4-1.3-2.1l-1.1-2.2L38.5,116.7z"/>
					</g>
					<g>
						<path class="st6" d="M32.7,138.3c-0.6-0.4-1.2-0.9-1.7-1.4c-0.3-0.3-0.5-0.5-0.7-0.8c-0.2-0.3-0.4-0.6-0.6-1
							c-0.6-1.3-1-2.7-0.8-4c0.3-2.6,1.8-4.6,3.7-6c2-1.3,4.4-2.1,6.5-2.3c1-0.1,2.1-0.2,2.8,0.1c0.2,0,0.4,0.1,0.5,0.2
							c0.2,0.1,0.4,0.1,0.5,0.2c0.3,0.2,0.6,0.4,0.8,0.7c-0.6-0.4-1.4-0.4-2.1-0.5c-0.8-0.1-1.7,0.1-2.7,0.3
							c-1.9,0.4-3.9,1.2-5.6,2.5c-1.7,1.2-3,3-3.4,5.3c-0.2,1.1,0,2.3,0.4,3.5C30.9,136.1,31.7,137.3,32.7,138.3z"/>
					</g>
				</g>
				<g>
					<g>
						<path class="st5" d="M35.4,104.8c0.5,4.4,1.5,8.5,3.1,11.9l-16.5,7.7c-2.7-5.8-4-11.8-4.7-17.5L35.4,104.8z"/>
					</g>
					<g>
						<path class="st6" d="M21,122.3c-0.6-1.2-0.9-2.5-0.9-3.8c0.1-1.3,0.5-2.6,1.2-3.6c0.6-1.1,1.5-1.9,2.6-2.5
							c1-0.6,2.2-1.1,3.3-1.3c1.2-0.2,2.4-0.3,3.6-0.2c1.2,0.1,2.3,0.4,3.4,0.8c1,0.4,1.9,1,2.6,1.6c0.7,0.6,1.1,1.4,1.3,2.2
							c-0.4-0.7-1-1.3-1.8-1.8c-0.7-0.5-1.6-0.9-2.5-1.2c-1.9-0.5-4.1-0.6-6.2-0.2c-2,0.5-3.9,1.5-5.3,3.3c-0.7,0.9-1.1,1.9-1.4,3
							C20.6,119.8,20.7,121,21,122.3z"/>
					</g>
				</g>
				<g>
					<g>
						<path class="st5" d="M35.1,91.1c-0.2,2.4-0.1,4.7-0.2,7c0.1,2.3,0.1,4.6,0.5,6.7l-18.1,2.1c-0.4-2.9-0.4-5.7-0.6-8.5
							c0-2.8,0-5.6,0.2-8.3L35.1,91.1z"/>
					</g>
					<g>
						<path class="st6" d="M17,104.8c-0.3-1.2-0.1-2.4,0.2-3.6c0.4-1.2,1-2.2,1.9-3c1.8-1.6,4.2-2.4,6.6-2.4c2.4,0,4.8,0.8,6.6,2.2
							c0.9,0.7,1.7,1.5,2.2,2.4c0.5,0.9,0.6,1.9,0.6,2.8c-0.4-1.8-1.7-3.4-3.4-4.5c-1.8-1-3.8-1.6-5.9-1.6c-2.1,0-4.3,0.6-5.9,1.9
							C18.3,100.3,17.1,102.4,17,104.8z"/>
					</g>
				</g>
				<g>
					<path class="st5" d="M35.1,91.1c0.1-1.9-3.9-3.8-8.9-4.2c-5-0.5-9.2,1-9.3,3.2L35.1,91.1z"/>
				</g>
			</g>
		</g>
	</g>
	<g>
		<path class="st7" d="M84.8,134.5"/>
	</g>
	<g>
		<g>
			<defs>
				<path id="SVGID_00000060747445741155604100000001230656781406080395_" d="M134.5,235.2L134.5,235.2l-28.9-13.6
					c-2.9-1.5-6.6-1.9-10.5-0.7l-69.9,20.6C14,244.7,5,256.7,5.1,268.1v0c0.1,7,3.5,12.1,8.7,14.1l28.1,13.3l0,0
					c3.4,1.5,7.6,1.6,12.1,0.2l69.9-22.8c9.8-3.2,17.5-14.2,17.4-24.7C141.3,242.1,138.6,237.4,134.5,235.2z"/>
			</defs>
			<clipPath id="SVGID_00000016774358548518870170000008918692686967132857_">
				<use xlink:href="#SVGID_00000060747445741155604100000001230656781406080395_"  style="overflow:visible;"/>
			</clipPath>
			<path style="clip-path:url(#SVGID_00000016774358548518870170000008918692686967132857_);fill:#324F6B;" d="M6.1,252.4L17,240.8
				l81-23.9l20.5,4.9l21.6,12.5c0,0,11.5,35.5,11.3,35.9c-0.2,0.4-56.4,17.1-56.4,17.1l-51.3,13.4L0,284.4L6.1,252.4z"/>
			<g style="clip-path:url(#SVGID_00000016774358548518870170000008918692686967132857_);">
				<line class="st10" x1="3.5" y1="272" x2="37.7" y2="287.9"/>
				<line class="st10" x1="92.6" y1="219.9" x2="127.6" y2="235.7"/>
				<line class="st10" x1="78.6" y1="224.2" x2="113.6" y2="240"/>
				<line class="st10" x1="62.9" y1="228.4" x2="97.9" y2="244.1"/>
				<line class="st10" x1="46.6" y1="233.5" x2="81.6" y2="249.3"/>
				<line class="st10" x1="28" y1="239.5" x2="63" y2="255.2"/>
				<line class="st10" x1="13.1" y1="246.6" x2="48.1" y2="262.4"/>
				<line class="st10" x1="5" y1="259.1" x2="40" y2="274.8"/>
			</g>
		</g>
		<g>
			<path class="st5" d="M70.9,270c0.1,9.3-7.2,19.1-16.2,22.1c-9.2,3-16.8-2.3-16.9-11.8c-0.1-9.5,7.4-19.5,16.7-22.2
				C63.5,255.4,70.9,260.7,70.9,270z"/>
			<path class="st11" d="M49.7,289.3c-5,0-8.2-3.5-8.3-9c-0.1-7.9,6.4-16.4,14.1-18.7c1.2-0.4,2.4-0.6,3.6-0.6c5,0,8.2,3.5,8.3,9
				c0.1,7.7-6.2,16.2-13.7,18.6C52.2,289,50.9,289.3,49.7,289.3z"/>
			<path class="st5" d="M137.9,249.2c0.1,8.8-6.4,18-14.6,20.7c-8.3,2.7-15.1-2.4-15.2-11.4c-0.1-9,6.7-18.3,14.9-20.8
				C131.3,235.2,137.9,240.4,137.9,249.2z"/>
			<path class="st5" d="M105.3,259.3c0.1,9-6.8,18.6-15.4,21.3c-8.7,2.8-15.9-2.4-16-11.6c-0.1-9.2,7-18.9,15.8-21.5
				C98.3,245,105.3,250.3,105.3,259.3z"/>
			<path class="st12" d="M123.6,234.3l-69.9,20.6c-11.1,3.3-20.1,15.2-20.1,26.7c0.1,11.4,9.3,17.7,20.4,14.1l69.9-22.8
				c9.8-3.2,17.5-14.2,17.4-24.7C141.3,237.6,133.4,231.4,123.6,234.3z M122.8,269.5l-69.9,22.8c-1.7,0.6-3.4,0.8-5,0.8
				c-6.4,0-10.6-4.5-10.7-11.6c-0.1-9.7,7.9-20.4,17.5-23.2l69.9-20.6c1.3-0.4,2.5-0.6,3.7-0.6c5.6,0,9.4,4.4,9.4,11
				C137.8,257.2,131.1,266.8,122.8,269.5z"/>
		</g>
	</g>
	<g>
		<g>
			<defs>
				<path id="SVGID_00000139268362706047200890000016047303249318702255_" d="M147.8,241.2c0,0,0.6,5.6-1.4,8.8
					s-13.4,15.3-12.9,22.9c0.5,7.6-25.4,7.6-25.4,7.6H96.1c0,0-24.2-0.8-26.2-7.6c-2.1-7.3-10.9-19.7-12.9-22.9
					c-2-3.2-1.4-8.8-1.4-8.8S147.6,241.2,147.8,241.2z"/>
			</defs>
			<clipPath id="SVGID_00000136406028464429957580000017160002217514206620_">
				<use xlink:href="#SVGID_00000139268362706047200890000016047303249318702255_"  style="overflow:visible;"/>
			</clipPath>
			
				<rect x="51.6" y="237.2" style="clip-path:url(#SVGID_00000136406028464429957580000017160002217514206620_);fill:#A8141C;" width="98.2" height="45.5"/>
			<path style="clip-path:url(#SVGID_00000136406028464429957580000017160002217514206620_);fill:#72080C;" d="M82.2,283.3
				c0,0-5-9-2.3-14.9c2.7-6,10.6-10,17.6-10.3c7-0.3,39.5,0,50.4-8.6c10.9-8.6-5.6,28.2-5.6,28.2S99.4,288.3,82.2,283.3z"/>
		</g>
		<ellipse class="st0" cx="101.8" cy="241.2" rx="46.1" ry="11.2"/>
	</g>
	<g>
		<path class="st15" d="M128,134.5c-0.8,13.4-23.7,23.2-36.7,22.4c-12.9-0.8-15.4-12.1-14.6-25.5c0.8-13.4,18.9-22.8,31.9-22
			C125.7,110.5,128.8,121.1,128,134.5z"/>
		<g>
			<defs>
				<path id="SVGID_00000091738185968530343950000006348506273375758722_" d="M148.2,139c4.3-8.6-6-13.9-11.3-19.9
					c-1.8-2-4.3-3.4-6.9-4.4l0,0c0,0-7.1-3.4-12.9-5.5s-11.4-1-16.7-0.5c-1.7,0.2-7.5,1.4-9.5,2c-17.6,1.8-25.7,6.6-27.4,10
					c-2,4-3,18.6-3,18.6c-17.9,23.6-30.2,54.1-30.2,56.7c0,2.7,0.7,30.2,26.2,43.5s55.1,13.3,78.6,5.3c23.6-8,26.1-21.1,27.9-33.5
					C164.7,200.3,148.2,139,148.2,139z M115,134.4C103.7,144,85.8,145,85.8,145s-6.6-7-5.6-15.3c1.2-10.3,11-16,16-18.4
					c0.6-0.1,1.1-0.3,1.8-0.5c3-0.8,6.7-0.8,11.5-1.4s10.2,3,10.2,3C121.7,114.4,126.3,124.7,115,134.4z"/>
			</defs>
			<clipPath id="SVGID_00000012454313830617065850000015368297457835707578_">
				<use xlink:href="#SVGID_00000091738185968530343950000006348506273375758722_"  style="overflow:visible;"/>
			</clipPath>
			
				<rect x="27.5" y="102.8" style="clip-path:url(#SVGID_00000012454313830617065850000015368297457835707578_);fill:#8E040E;" width="137.3" height="154.6"/>
			<path style="clip-path:url(#SVGID_00000012454313830617065850000015368297457835707578_);fill:#A8141C;" d="M50.7,141.7
				c1-0.3,44.1-6.6,44.1-6.6l30.5,33.8l29.9-31.2l-22.6-34.2l-62.4,1.7L56,121.4L50.7,141.7z"/>
			<path style="clip-path:url(#SVGID_00000012454313830617065850000015368297457835707578_);fill:#72080C;" d="M142.2,132
				c-6.7,0-14.3,4.1-20.4,13.1c-3.8,5.6-8.3,13.6-8.3,13.6s-9.8,31.2-13.4,42.6c-4,12.6-14.3,47.8,30.2,41.5s40.1-28.5,40.1-28.5
				L151.9,139C151.9,139,153.8,132,142.2,132z"/>
			<path style="clip-path:url(#SVGID_00000012454313830617065850000015368297457835707578_);fill:#A7A9AC;" d="M163.2,164.2
				c0,0-40.1,13.9-55.4,12.9c-10.8-0.7-23.2-2.3-39.5-7.6c-21.6-7-26.2-16.3-26.2-16.3s-31.9,50.8-2.3,72s57.1,24.2,80.3,21.9
				c23.2-2.3,43.5-9,45.8-19.9C168.2,216.3,165.2,171.9,163.2,164.2z"/>
			<path style="clip-path:url(#SVGID_00000012454313830617065850000015368297457835707578_);fill:#808285;" d="M166.3,197.8
				l-7.9-31.9c-11.1,3.6-38.6,12.1-50.6,11.3c0,0-0.1,0-0.1,0c-2.8,8.9-5.9,18.8-7.6,24.2c-4,12.6-14.3,47.8,30.2,41.5
				c20.3-2.9,30.4-9.1,35.5-15c0.1-0.2,0.1-0.4,0.2-0.6C167,222.2,166.9,210.1,166.3,197.8z"/>
			<path style="clip-path:url(#SVGID_00000012454313830617065850000015368297457835707578_);fill:#2D1113;" d="M143.4,140.3
				c0,0-1-4.3-5.1-3.2c-6.4,1.8-16.9,9.5-16.8,21.7s3.7,15.1,9.8,13.6C138.7,170.7,149,163.9,143.4,140.3z"/>
			<path style="clip-path:url(#SVGID_00000012454313830617065850000015368297457835707578_);fill:#B7D3DD;" d="M162.9,170.2
				c0,0-40.1,13.9-55.4,12.9c-10.8-0.7-23.2-2.3-39.5-7.6c-21.6-7-26.2-16.3-26.2-16.3s-31.9,50.8-2.3,72s57.1,24.2,80.3,21.9
				c23.2-2.3,43.5-9,45.8-19.9C167.9,222.3,164.9,177.8,162.9,170.2z"/>
			
				<ellipse style="clip-path:url(#SVGID_00000012454313830617065850000015368297457835707578_);fill:#7ABDCC;" cx="103" cy="235.2" rx="40" ry="11.6"/>
			<g style="clip-path:url(#SVGID_00000012454313830617065850000015368297457835707578_);">
				<circle class="st25" cx="55.4" cy="212.3" r="8.6"/>
				<circle class="st26" cx="69.7" cy="206.7" r="8.6"/>
				<circle class="st27" cx="75" cy="220" r="8.6"/>
				<circle class="st28" cx="79.5" cy="231.8" r="8.6"/>
				<circle class="st25" cx="85.1" cy="209.9" r="8.6"/>
				<circle class="st28" cx="103.7" cy="211.9" r="8.6"/>
				<circle class="st26" cx="92.1" cy="222.5" r="8.6"/>
				<circle class="st27" cx="138.6" cy="203" r="8.6"/>
				<circle class="st26" cx="127.1" cy="227.3" r="8.6"/>
				<circle class="st27" cx="110.3" cy="225.7" r="8.6"/>
				<circle class="st25" cx="118.8" cy="218.3" r="8.6"/>
				<circle class="st25" cx="97.9" cy="236.2" r="8.6"/>
				<circle class="st26" cx="119.8" cy="205.7" r="8.6"/>
				<circle class="st28" cx="118.8" cy="234.6" r="8.6"/>
				<circle class="st28" cx="139.4" cy="216" r="8.6"/>
				<circle class="st28" cx="61.7" cy="224.6" r="8.6"/>
			</g>
			<path style="opacity:0.31;clip-path:url(#SVGID_00000012454313830617065850000015368297457835707578_);fill:#90CDDD;" d="
				M26.4,187.1c0,0,4.9,21.8,29.5,31.5c23.6,9.3,45.1-0.7,45.1-0.7l65.7-18.9l-7,32.8l-12,9.3c0,0-17.8,12.3-40.1,12.9
				s-67-5-72-16.6S26.4,187.1,26.4,187.1z"/>
			<path style="opacity:0.31;clip-path:url(#SVGID_00000012454313830617065850000015368297457835707578_);fill:#90CDDD;" d="
				M166.2,227.3c0.5-8.3,0-21.3-0.7-33l-5.7-23c-9.7,3.2-39.6,12.7-52.3,11.9c-0.5,0-1.1-0.1-1.6-0.1c-2.2,7.1-4.4,14.1-5.8,18.3
				c-4,12.6-14.3,47.8,30.2,41.5C151.3,239.9,161.4,233.4,166.2,227.3z"/>
			<g style="clip-path:url(#SVGID_00000012454313830617065850000015368297457835707578_);">
				<path class="st30" d="M46.2,171.2c-2.6,5.5-5.2,11-7.5,16.5c-1.1,2.8-2.2,5.6-2.9,8.5c-0.2,0.7-0.3,1.4-0.4,2.1l-0.1,1
					c0,0.3,0,0.7,0.1,1.1c0,0.7,0.2,1.4,0.3,2.2l0.5,2.2c1.5,5.8,3.8,11.4,6.8,16.5c3,5.1,6.9,9.9,12.2,12.9
					c-2.8-1.2-5.3-3.1-7.5-5.2c-0.5-0.5-1.1-1.1-1.6-1.6l-1.5-1.8c-0.5-0.6-0.9-1.2-1.4-1.8c-0.5-0.6-0.9-1.2-1.3-1.9
					c-1.7-2.6-3.1-5.3-4.4-8.1c-1.2-2.8-2.3-5.7-3.1-8.7l-0.5-2.3c-0.1-0.8-0.3-1.5-0.3-2.3c0-0.4-0.1-0.8-0.1-1.2l0.1-1.2
					c0.1-0.8,0.3-1.6,0.4-2.3c0.8-3,2-5.9,3.2-8.6C40,181.6,42.9,176.3,46.2,171.2z"/>
			</g>
			<g style="clip-path:url(#SVGID_00000012454313830617065850000015368297457835707578_);">
				<path class="st30" d="M154,178.7c1.7,5.5,3.2,11.2,4.3,16.9c0.5,2.9,1,5.8,1.1,8.7c0,0.7,0.1,1.5,0.1,2.2c0,0.8,0,1.5-0.1,2.2
					c-0.1,1.6-0.5,2.9-0.7,4.4c-1.1,5.7-2.9,11.6-6.5,16.3c-1.8,2.4-4,4.4-6.6,5.9c-2.6,1.5-5.4,2.4-8.2,3c2.8-0.9,5.5-2,7.8-3.6
					c2.3-1.6,4.4-3.7,6-6c1.6-2.3,2.8-4.9,3.8-7.6c0.9-2.7,1.6-5.5,2.1-8.3c0.3-1.4,0.6-2.9,0.7-4.2c0.1-0.7,0.1-1.4,0.1-2.1
					c0-0.7,0-1.4-0.1-2.1c-0.2-2.9-0.5-5.7-0.9-8.6C156,190.2,155,184.4,154,178.7z"/>
			</g>
		</g>
	</g>
	<g>
		<g>
			<defs>
				<path id="SVGID_00000089574332850508077610000016256442082971863181_" d="M194.4,263.3L194.4,263.3l-28.9-13.6
					c-2.9-1.5-6.6-1.9-10.5-0.7l-69.9,20.6C74,272.8,64.9,284.8,65,296.2v0c0.1,7,3.5,12.1,8.7,14.1l28.1,13.3l0,0
					c3.4,1.5,7.6,1.6,12.1,0.2l69.9-22.8c9.8-3.2,17.5-14.2,17.4-24.7C201.2,270.2,198.6,265.5,194.4,263.3z"/>
			</defs>
			<clipPath id="SVGID_00000077313945219181579480000003335755531883310738_">
				<use xlink:href="#SVGID_00000089574332850508077610000016256442082971863181_"  style="overflow:visible;"/>
			</clipPath>
			<path style="clip-path:url(#SVGID_00000077313945219181579480000003335755531883310738_);fill:#324F6B;" d="M66,280.5L77,268.8
				l81-23.9l20.5,4.9l21.6,12.5c0,0,11.5,35.5,11.3,35.9c-0.2,0.4-56.4,17.1-56.4,17.1l-51.3,13.4l-43.6-16.3L66,280.5z"/>
			<g style="clip-path:url(#SVGID_00000077313945219181579480000003335755531883310738_);">
				<line class="st10" x1="63.4" y1="300.1" x2="97.6" y2="316"/>
				<line class="st10" x1="152.5" y1="248" x2="187.5" y2="263.8"/>
				<line class="st10" x1="138.6" y1="252.3" x2="173.6" y2="268.1"/>
				<line class="st10" x1="122.8" y1="256.5" x2="157.8" y2="272.2"/>
				<line class="st10" x1="106.6" y1="261.6" x2="141.6" y2="277.4"/>
				<line class="st10" x1="88" y1="267.6" x2="123" y2="283.3"/>
				<line class="st10" x1="73.1" y1="274.7" x2="108.1" y2="290.5"/>
				<line class="st10" x1="64.9" y1="287.1" x2="99.9" y2="302.9"/>
			</g>
		</g>
		<g>
			<path class="st5" d="M130.9,298.1c0.1,9.3-7.2,19.1-16.2,22.1c-9.2,3-16.8-2.3-16.9-11.8c-0.1-9.5,7.4-19.5,16.7-22.2
				C123.5,283.4,130.8,288.8,130.9,298.1z"/>
			<path class="st11" d="M109.6,317.3c-5,0-8.2-3.5-8.3-9c-0.1-7.9,6.4-16.4,14.1-18.7c1.2-0.4,2.4-0.6,3.6-0.6c5,0,8.2,3.5,8.3,9
				c0.1,7.7-6.2,16.2-13.7,18.6C112.2,317.1,110.9,317.3,109.6,317.3z"/>
			<path class="st5" d="M197.9,277.3c0.1,8.8-6.4,18-14.6,20.7c-8.3,2.7-15.1-2.4-15.2-11.4c-0.1-9,6.7-18.3,14.9-20.8
				C191.2,263.3,197.8,268.5,197.9,277.3z"/>
			<path class="st11" d="M179,295c-4.4,0-7.2-3.4-7.3-8.6c-0.1-7.4,5.6-15.3,12.4-17.3c1-0.3,2-0.4,2.9-0.4c4.4,0,7.2,3.4,7.3,8.6
				c0,7.2-5.5,15.1-12.1,17.2C181.1,294.8,180,295,179,295z"/>
			<path class="st5" d="M165.3,287.4c0.1,9-6.8,18.6-15.4,21.3c-8.7,2.8-15.9-2.4-16-11.6c-0.1-9.2,7-18.9,15.8-21.5
				C158.3,273.1,165.2,278.4,165.3,287.4z"/>
			<path class="st11" d="M145.3,305.9c-4.7,0-7.7-3.4-7.8-8.8c-0.1-7.6,6-15.8,13.2-18c1.1-0.3,2.2-0.5,3.2-0.5
				c4.7,0,7.7,3.4,7.8,8.8c0.1,7.4-5.8,15.6-12.9,17.9C147.6,305.7,146.4,305.9,145.3,305.9z"/>
			<path class="st12" d="M183.6,262.4L113.7,283c-11.1,3.3-20.1,15.2-20.1,26.7c0.1,11.4,9.3,17.7,20.4,14.1l69.9-22.8
				c9.8-3.2,17.5-14.2,17.4-24.7C201.2,265.7,193.3,259.5,183.6,262.4z M182.7,297.6l-69.9,22.8c-1.7,0.6-3.4,0.8-5,0.8
				c-6.4,0-10.6-4.5-10.7-11.6c-0.1-9.7,7.9-20.4,17.5-23.2l69.9-20.6c1.3-0.4,2.5-0.6,3.7-0.6c5.6,0,9.4,4.4,9.4,11
				C197.7,285.3,191,294.9,182.7,297.6z"/>
		</g>
	</g>
	<g>
		<g>
			<g>
				<g>
					<path class="st5" d="M83.2,86.9c-0.5-3.2,4.4-6.5,10.9-7.3c6.5-0.8,12.1,0.8,12.5,3.7L83.2,86.9z"/>
				</g>
				<g>
					<g>
						<path class="st5" d="M87.8,110.3c-1.9-7.8-3.4-15.6-4.6-23.4l23.4-3.6c1.1,7.2,2.5,14.4,4.2,21.4L87.8,110.3z"/>
					</g>
					<g>
						<path class="st6" d="M107,85.8c0.4,1.5,0.5,3.1,0.2,4.7c-0.3,1.6-1,3.1-1.9,4.3c-1.9,2.6-4.7,4.3-7.8,5
							c-3.1,0.6-6.4,0.1-9.1-1.7c-1.4-0.9-2.6-2.2-3.4-3.6c-0.8-1.5-1.3-3.2-1.4-4.8c0.9,3.2,2.9,5.7,5.5,7.1
							c2.5,1.3,5.4,1.7,8.1,1.2c2.7-0.5,5.2-2,7.1-4C106.1,91.7,107.2,88.9,107,85.8z"/>
					</g>
				</g>
				<g>
					<g>
						<path class="st5" d="M95.8,134.3c-2.1-4.2-3.5-8.2-4.8-12.2c-1.2-4-2.4-7.9-3.3-11.8l23-5.6c0.8,3.5,1.8,6.9,2.8,10.2
							c1.1,3.2,2.2,6.5,3.5,9.1L95.8,134.3z"/>
					</g>
					<g>
						<path class="st6" d="M111.4,107.1c0.6,1.4,0.8,2.9,0.6,4.5c-0.1,1.5-0.7,3-1.5,4.4c-1.6,2.7-4.1,4.8-7.1,5.9
							c-2.9,1-6.3,1-9.3-0.6c-1.5-0.8-2.8-1.9-3.8-3.4c-1-1.4-1.6-3.1-1.9-4.8c0.6,1.6,1.5,3,2.6,4.1c1.1,1.1,2.3,2,3.7,2.6
							c2.6,1.1,5.6,1.1,8.2,0.2c2.6-0.9,4.9-2.6,6.5-4.8c0.8-1.1,1.4-2.4,1.8-3.7C111.5,110.1,111.6,108.6,111.4,107.1z"/>
					</g>
				</g>
				<g>
					<path class="st5" d="M95.8,134.3c0.4,0.9,1.1,1.5,2,2c1,0.5,2.1,0.7,3.4,0.7c2.5,0,5.3-1.1,8-3c2.7-1.8,4.9-4,6.3-5.8
						c0.7-0.9,1.3-1.7,1.5-2.4c0.3-0.7,0.4-1.4,0.1-1.9L95.8,134.3z"/>
				</g>
			</g>
		</g>
	</g>
	<path class="st6" d="M50.3,142"/>
	<g>
		<g>
			<g>
				<path class="st0" d="M189.8,229.1c2.5-4.6,0.6-12.8-4.3-18.4c-4.9-5.5-11-6.3-13.5-1.8l3.1,3.5c1.6-3,5.6-2.5,8.8,1.1
					c3.2,3.6,4.5,9,2.8,12L189.8,229.1z"/>
			</g>
			<g>
				
					<ellipse transform="matrix(0.8846 -0.4664 0.4664 0.8846 -78.4772 104.5623)" class="st0" cx="172" cy="210.8" rx="3.8" ry="6.3"/>
			</g>
		</g>
		<polygon class="st1" points="186.7,225.6 198.4,219.9 201.5,223.4 189.8,229.1 		"/>
		<path class="st0" d="M186.7,225.6l2.8-3.2l-3.7-9.2l-5.1-3.8l8.2-5.7l7.1,2.1c0,0,1.4,3,4,7.8c1.9,3.5-1.5,6.3-1.5,6.3
			L186.7,225.6z"/>
		<g>
			<defs>
				<path id="SVGID_00000081641987495551482200000013803376751019422611_" d="M189.1,223.9l-5-6.1l-2.6-9.1l-9.1,4.4l-1.6-1.9
					c-0.5,0.9-0.8,2-1,3.1l0,0l0,0c-0.6,4.6,1.4,10.8,5.3,15.2c3.8,4.3,8.3,5.7,11.3,4l0,0l11.5-5.5l-1.8-0.8L189.1,223.9z"/>
			</defs>
			<clipPath id="SVGID_00000176763396176481258040000001021838744932276884_">
				<use xlink:href="#SVGID_00000081641987495551482200000013803376751019422611_"  style="overflow:visible;"/>
			</clipPath>
			<polygon style="clip-path:url(#SVGID_00000176763396176481258040000001021838744932276884_);fill:#8E040E;" points="167.3,213.8 
				168.6,226.2 175.2,234.3 183.3,236.6 201.1,228.1 198.3,224.5 188.5,221.8 183.8,213.6 183,205.6 			"/>
			<path style="clip-path:url(#SVGID_00000176763396176481258040000001021838744932276884_);fill:#DDDDDD;" d="M177.1,235.2
				c0.2-0.1,18.4-8.5,18.4-8.5l5.7,0.5c0,0-17,9-17.2,9.1S177.1,235.2,177.1,235.2z"/>
		</g>
		<polygon class="st0" points="169.1,205.2 181,199.5 181.5,208.6 169.7,214.3 		"/>
		<g>
			<g>
				<path class="st4" d="M200.3,225.6c-2.5,4.6-8.6,3.8-13.5-1.7c-4.9-5.5-6.8-13.8-4.3-18.4l3.1,3.5c-1.6,3-0.4,8.4,2.8,12
					c3.2,3.6,7.1,4.1,8.8,1.1L200.3,225.6z"/>
			</g>
			<g>
				<path class="st4" d="M201.5,223.4c2.5-4.6,0.6-12.8-4.3-18.4c-4.9-5.5-11-6.3-13.5-1.8l3.1,3.5c1.6-3,5.6-2.5,8.8,1.1
					c3.2,3.6,4.5,9,2.8,12L201.5,223.4z"/>
			</g>
			<g>
				
					<ellipse transform="matrix(0.8846 -0.4664 0.4664 0.8846 -74.4803 109.3962)" class="st1" cx="183.8" cy="205.2" rx="3.8" ry="6.3"/>
			</g>
		</g>
	</g>
	<g>
		<g>
			<g>
				<g>
					<path class="st5" d="M130.9,158c-1.6-1.3-0.4-5.4,2.1-9.7c2.6-4.3,7-6.4,9.1-4.7L130.9,158z"/>
				</g>
				<g>
					<g>
						<path class="st5" d="M142.4,169c-3.6-4-7.5-7.9-11.5-11l11.2-14.4c5.2,4.1,9.7,8.6,13.9,13.3L142.4,169z"/>
					</g>
					<g>
						<path class="st6" d="M144,145.1c0.6,0.4,1.1,0.8,1.6,1.3c0.5,0.5,0.9,1.1,1.2,1.7c0.7,1.2,1,2.5,1,3.8c0.1,2.6-1,4.9-2.7,6.6
							c-1.7,1.7-4.1,2.7-6.5,2.9c-1.2,0.1-2.4-0.1-3.5-0.5c-0.5-0.2-1.1-0.5-1.5-0.8c-0.5-0.3-0.9-0.7-1.3-1.1c0.9,0.6,1.9,1,3,1.2
							c1,0.2,2.1,0.2,3.2,0c2.1-0.4,4.1-1.4,5.5-2.9c1.5-1.5,2.5-3.5,2.6-5.7c0.1-1.1-0.1-2.3-0.6-3.4
							C145.7,147.2,144.9,146.1,144,145.1z"/>
					</g>
				</g>
				<g>
					<g>
						<path class="st5" d="M152.5,182c-3.2-4.5-6.5-9-10.1-13l13.7-12.1c4.2,4.7,7.9,9.7,11.5,14.8L152.5,182z"/>
					</g>
					<g>
						<path class="st6" d="M157.5,158.6c0.5,0.4,0.9,1,1.3,1.5c0.4,0.6,0.7,1.2,0.9,1.8c0.4,1.3,0.6,2.6,0.4,3.9
							c-0.3,2.5-1.7,4.7-3.6,6.2c-2,1.4-4.4,2.1-6.8,1.9c-1.2-0.1-2.4-0.4-3.5-1c-0.5-0.3-1-0.7-1.4-1.1c-0.4-0.4-0.8-0.8-1.1-1.3
							c1.7,1.5,3.8,2.4,6,2.3c2.1-0.1,4.3-0.8,5.9-2.1c1.7-1.3,2.9-3.1,3.4-5.3C159.4,163.3,159,160.8,157.5,158.6z"/>
					</g>
				</g>
				<g>
					<g>
						<path class="st5" d="M161.1,196.2l-2-3.7L157,189c-1.4-2.4-3-4.7-4.5-7l15-10.3c1.7,2.6,3.5,5.1,5,7.8l2.4,4l2.2,4
							L161.1,196.2z"/>
					</g>
					<g>
						<path class="st6" d="M168.7,173.5c0.8,1,1.5,2.2,1.8,3.5c0.3,1.3,0.2,2.6-0.1,3.9c-0.6,2.5-2.2,4.5-4.3,5.7
							c-2.1,1.2-4.6,1.7-7,1.2c-1.2-0.2-2.3-0.7-3.3-1.5c-1-0.7-1.8-1.6-2.3-2.7c0.8,0.9,1.7,1.6,2.7,2.1c1,0.5,2,0.8,3.1,0.9
							c2.1,0.2,4.3-0.3,6.1-1.4c1.8-1.1,3.2-2.8,4-4.9c0.4-1,0.5-2.2,0.4-3.4C169.7,175.9,169.3,174.7,168.7,173.5z"/>
					</g>
				</g>
				<g>
					<g>
						<path class="st5" d="M168.5,211.3l-1.7-3.9c-0.6-1.3-1.2-2.5-1.8-3.8l-1.9-3.8c-0.6-1.3-1.3-2.5-2-3.7l16-8.8
							c0.7,1.4,1.5,2.7,2.2,4.1l2,4.1c0.7,1.4,1.4,2.7,2,4.1l1.9,4.2L168.5,211.3z"/>
					</g>
					<g>
						<path class="st6" d="M178.2,189.4c0.8,1,1.2,2.3,1.4,3.6c0.2,1.3,0,2.6-0.4,3.8c-0.8,2.4-2.6,4.2-4.8,5.3
							c-2.2,1-4.7,1.3-7.1,0.5c-1.2-0.3-2.3-1-3.2-1.8c-0.9-0.8-1.6-1.9-2-2.9c0.7,0.9,1.5,1.8,2.4,2.4c0.9,0.6,1.9,1,3,1.2
							c2.1,0.4,4.3,0.1,6.2-0.8c1.9-0.9,3.5-2.5,4.4-4.5c0.5-1,0.7-2.1,0.7-3.3C178.9,191.8,178.7,190.6,178.2,189.4z"/>
					</g>
				</g>
				<g>
					<path class="st5" d="M168.5,211.3c0.9,2.1,5.4,2.2,10.1,0.2c4.7-1.9,7.6-5.3,6.6-7.6L168.5,211.3z"/>
				</g>
			</g>
		</g>
	</g>
	<g>
		
			<ellipse transform="matrix(0.2498 -0.9683 0.9683 0.2498 -79.2424 216.1618)" class="st35" cx="99.9" cy="159.2" rx="6.9" ry="6.1"/>
		<rect x="98.2" y="151.7" class="st36" width="3.3" height="14.8"/>
	</g>
	<g>
		<path class="st1" d="M149.7,84.2L42.6,97.3c0,0-9.4-3.9-10.8-16c-1.4-11.8,6.7-17.8,6.7-17.8l107.1-13.1c0,0,9.3,3.8,10.8,15.6
			C157.8,78.1,149.7,84.2,149.7,84.2z"/>
		<path class="st4" d="M117.2,43l-53,6.5c0,0-6.4,1.1-13.4,5c-6.8,3.7-12.2,9.1-12.2,9.1l107-13.1c0,0-6.8-4.3-13.4-5.9
			C126.2,43.1,117.2,43,117.2,43z"/>
		<g>
			<ellipse transform="matrix(0.9926 -0.1218 0.1218 0.9926 -9.119 9.1421)" class="st15" cx="70.2" cy="79.2" rx="5.9" ry="9.8"/>
			
				<ellipse transform="matrix(0.9926 -0.1218 0.1218 0.9926 -8.0379 14.9801)" class="st15" cx="118.5" cy="73.3" rx="5.9" ry="9.8"/>
		</g>
		<path class="st1" d="M61.6,89.7l0.2-1.2c0.7-3.9,5-6.7,9.6-6.3h0c4.6,0.5,7.7,4,7,7.9l-0.2,1.2c-0.2,1.1-1.4,1.9-2.7,1.8L63.6,92
			C62.3,91.9,61.4,90.9,61.6,89.7z"/>
		<path class="st1" d="M128.3,81.6l-0.5-1.1c-1.6-3.6-6.5-5.3-10.8-3.8h0c-4.3,1.6-6.5,5.8-4.8,9.4l0.5,1.1c0.5,1,1.9,1.5,3.1,1.1
			l11.2-4C128.2,83.8,128.8,82.6,128.3,81.6z"/>
		<g>
			<circle class="st12" cx="90" cy="10.2" r="10.2"/>
			<path class="st37" d="M89.9,48.8c0,0-8.5-25.2-1.6-34.4"/>
		</g>
	</g>
</g>
</svg>
