<?xml version="1.0" encoding="utf-8"?>
<!-- Generator: Adobe Illustrator 26.3.1, SVG Export Plug-In . SVG Version: 6.00 Build 0)  -->
<svg version="1.1" id="Layer_1" xmlns="http://www.w3.org/2000/svg" xmlns:xlink="http://www.w3.org/1999/xlink" x="0px" y="0px"
	 viewBox="0 0 278.3 356.9" style="enable-background:new 0 0 278.3 356.9;" xml:space="preserve">
<style type="text/css">
	.st0{fill:#6B3158;}
	.st1{clip-path:url(#SVGID_00000175285500316526204920000015591027046510313609_);fill:#BAB9B5;}
	.st2{clip-path:url(#SVGID_00000175285500316526204920000015591027046510313609_);fill:#979492;}
	.st3{clip-path:url(#SVGID_00000176044360345707928540000009959932933295482530_);fill:#BAB9B5;}
	.st4{clip-path:url(#SVGID_00000176044360345707928540000009959932933295482530_);fill:#979492;}
	.st5{fill:#913E78;}
	.st6{fill:#8A96AB;}
	.st7{clip-path:url(#SVGID_00000071542893994703939310000018037828507858096282_);fill:#5D717F;}
	.st8{clip-path:url(#SVGID_00000071542893994703939310000018037828507858096282_);fill:#485561;}
	.st9{clip-path:url(#SVGID_00000071542893994703939310000018037828507858096282_);fill:#4F5E6B;}
	.st10{clip-path:url(#SVGID_00000044891819029894173320000000461191625740972952_);fill:#BAB9B5;}
	.st11{clip-path:url(#SVGID_00000044891819029894173320000000461191625740972952_);fill:#979492;}
	.st12{fill:#522543;}
	.st13{fill:#5D717F;}
	.st14{clip-path:url(#SVGID_00000136383954181729915770000016463167088333298064_);fill:#5D717F;}
	.st15{clip-path:url(#SVGID_00000136383954181729915770000016463167088333298064_);fill:#4F5E6B;}
	.st16{fill:#BAB9B5;}
	.st17{fill:#979492;}
	.st18{fill:#A8A5A3;}
	.st19{fill:#7E8185;}
	.st20{clip-path:url(#SVGID_00000100377036450323741720000006469362228486500019_);fill:#C5E6F9;}
	.st21{clip-path:url(#SVGID_00000100377036450323741720000006469362228486500019_);fill:#3B464F;}
	.st22{clip-path:url(#SVGID_00000100377036450323741720000006469362228486500019_);fill:#4AA6C0;}
	
		.st23{clip-path:url(#SVGID_00000100377036450323741720000006469362228486500019_);fill:none;stroke:#AA5093;stroke-width:3;stroke-miterlimit:10;}
	.st24{clip-path:url(#SVGID_00000081640760541047854190000006463015162317586571_);fill:#C5E6F9;}
	.st25{clip-path:url(#SVGID_00000081640760541047854190000006463015162317586571_);fill:#3B464F;}
	.st26{clip-path:url(#SVGID_00000081640760541047854190000006463015162317586571_);}
	.st27{fill:#4AA6C0;}
	
		.st28{clip-path:url(#SVGID_00000081640760541047854190000006463015162317586571_);fill:none;stroke:#AA5093;stroke-width:3;stroke-miterlimit:10;}
</style>
<g>
	<circle class="st0" cx="138.5" cy="166.7" r="16"/>
	<circle class="st0" cx="125.2" cy="95.6" r="14"/>
	<g>
		<defs>
			<path id="SVGID_1_" d="M154.9,161.9c0,0-6.4-0.2-17.5,1.8c-10.9,2-16.7,4.4-16.7,4.4l-9.4-68c0,0,5-2.2,13.9-3.9
				c9.1-1.6,14.7-1.3,14.7-1.3L154.9,161.9z"/>
		</defs>
		<use xlink:href="#SVGID_1_"  style="overflow:visible;fill:#BAB9B5;"/>
		<clipPath id="SVGID_00000111172233902170826760000006828251990050762683_">
			<use xlink:href="#SVGID_1_"  style="overflow:visible;"/>
		</clipPath>
		
			<rect x="110.1" y="86.4" transform="matrix(0.9841 -0.1778 0.1778 0.9841 -20.8704 25.3659)" style="clip-path:url(#SVGID_00000111172233902170826760000006828251990050762683_);fill:#BAB9B5;" width="42" height="85.4"/>
		
			<rect x="134.6" y="90.6" transform="matrix(0.9841 -0.1778 0.1778 0.9841 -20.6978 28.6771)" style="clip-path:url(#SVGID_00000111172233902170826760000006828251990050762683_);fill:#979492;" width="30.1" height="78.3"/>
	</g>
	<g>
		<g>
			<defs>
				<path id="SVGID_00000080199314784539877450000013436554886076665516_" d="M131.7,81.6c0,0,3.6,6.4-4.5,14.4
					c-7.8,7.9-14.2,4.3-14.2,4.3L83.2,67.1c0,0,5.8,1.2,11.1-4c5.4-5.4,4.2-11.3,4.2-11.3L131.7,81.6z"/>
			</defs>
			<use xlink:href="#SVGID_00000080199314784539877450000013436554886076665516_"  style="overflow:visible;fill:#BAB9B5;"/>
			<clipPath id="SVGID_00000103984787438622061980000010472401582628536216_">
				<use xlink:href="#SVGID_00000080199314784539877450000013436554886076665516_"  style="overflow:visible;"/>
			</clipPath>
			
				<rect x="92.2" y="48.8" transform="matrix(0.7061 -0.7081 0.7081 0.7061 -22.6831 98.771)" style="clip-path:url(#SVGID_00000103984787438622061980000010472401582628536216_);fill:#BAB9B5;" width="30.9" height="55.7"/>
			
				<rect x="97.1" y="57.5" transform="matrix(0.7061 -0.7081 0.7081 0.7061 -28.879 98.0524)" style="clip-path:url(#SVGID_00000103984787438622061980000010472401582628536216_);fill:#979492;" width="13.3" height="52.6"/>
		</g>
		
			<ellipse transform="matrix(0.7061 -0.7081 0.7081 0.7061 -15.4431 81.8314)" class="st0" cx="90.9" cy="59.5" rx="10.8" ry="5.3"/>
	</g>
	<g>
		<path class="st5" d="M254.2,297.7c-0.5-19.6-12.8-33.1-27.4-30.2s-26.2,21.1-25.8,40.7c0.4,15.9,8.6,27.8,19.5,30.2l0,0l18.4,3.7
			l4-11.5l-0.8,0C249.6,322.8,254.5,310.5,254.2,297.7z"/>
		<g>
			<g>
				
					<ellipse transform="matrix(0.1813 -0.9834 0.9834 0.1813 -100.4223 492.3605)" class="st0" cx="245.5" cy="306.5" rx="36.1" ry="26.2"/>
			</g>
			
				<ellipse transform="matrix(0.1813 -0.9834 0.9834 0.1813 -100.4223 492.3605)" class="st6" cx="245.5" cy="306.5" rx="15.6" ry="11.4"/>
		</g>
	</g>
	<g>
		<path class="st5" d="M191.3,310.9c-0.5-20.1-13.1-34-28.2-31.1s-27,21.7-26.5,41.9c0.4,16.4,8.8,28.6,20,31l0,0l18.9,3.8l4.1-11.8
			l-0.8,0C186.6,336.8,191.6,324.1,191.3,310.9z"/>
		<g>
			<g>
				
					<ellipse transform="matrix(0.1813 -0.9834 0.9834 0.1813 -165.3629 441.3291)" class="st0" cx="182.4" cy="320" rx="37.2" ry="27"/>
			</g>
			
				<ellipse transform="matrix(0.1813 -0.9834 0.9834 0.1813 -165.3629 441.3291)" class="st6" cx="182.4" cy="320" rx="16.1" ry="11.7"/>
		</g>
	</g>
	<g>
		<path class="st5" d="M82.2,289.7c-0.5-20.1-13.1-34-28.2-31.1s-27,21.7-26.5,41.9c0.4,16.4,8.8,28.6,20,31l0,0l18.9,3.8l4.1-11.8
			l-0.8,0C77.5,315.5,82.5,302.9,82.2,289.7z"/>
		<g>
			<g>
				
					<ellipse transform="matrix(0.1813 -0.9834 0.9834 0.1813 -233.8498 316.5921)" class="st0" cx="73.2" cy="298.7" rx="37.2" ry="27"/>
			</g>
			
				<ellipse transform="matrix(0.1813 -0.9834 0.9834 0.1813 -233.8498 316.5921)" class="st6" cx="73.2" cy="298.7" rx="16.1" ry="11.7"/>
		</g>
	</g>
	<g>
		<defs>
			<path id="SVGID_00000128479594604114897480000015266483004138131879_" d="M57.4,215.3c20.3-0.8,72.6,13.7,100.9,26.1
				s20.4,38,20.4,38S52.5,309.1,35.7,306.9S18,293.6,18,293.6s-0.6-31.9,0-42.5C18.8,237.9,22,216.7,57.4,215.3z"/>
		</defs>
		<clipPath id="SVGID_00000047030813473088072500000000026710826977024681_">
			<use xlink:href="#SVGID_00000128479594604114897480000015266483004138131879_"  style="overflow:visible;"/>
		</clipPath>
		<path style="clip-path:url(#SVGID_00000047030813473088072500000000026710826977024681_);fill:#5D717F;" d="M27.3,212.2
			c-6.9,2.6-18.6,23-18.6,23l1.3,69.5l34.1,12.8l156.6-30.1l-4-45.6C196.8,241.9,67.6,197.1,27.3,212.2z"/>
		<path style="clip-path:url(#SVGID_00000047030813473088072500000000026710826977024681_);fill:#485561;" d="M51.9,303.8
			c0,0,0-42.9,0-52.2c0-9.3,8.9-25.8,36.3-21.2c29.2,4.9,79.2,16.8,85.8,24.3c6.6,7.5,6.6,35.8,6.6,35.8L51.9,303.8z"/>
		<path style="clip-path:url(#SVGID_00000047030813473088072500000000026710826977024681_);fill:#4F5E6B;" d="M85.3,259.6l-34,6.5
			l65.4,12.8c0,0,25.2-8.8,24.7-8.8S85.3,259.6,85.3,259.6z"/>
	</g>
	<g>
		<g>
			<defs>
				<path id="SVGID_00000043453851904284569860000012702575238857907338_" d="M127.5,247.8c0,0-5.8-9.2-19.1-15.3
					c-13.1-6-23.8-4.2-23.8-4.2l37.8-66.8c0,0,6.5-3.6,17.6,1.4c11.3,5.1,13,12.5,13,12.5L127.5,247.8z"/>
			</defs>
			<use xlink:href="#SVGID_00000043453851904284569860000012702575238857907338_"  style="overflow:visible;fill:#BAB9B5;"/>
			<clipPath id="SVGID_00000080907282781128627400000005697258808168149176_">
				<use xlink:href="#SVGID_00000043453851904284569860000012702575238857907338_"  style="overflow:visible;"/>
			</clipPath>
			
				<rect x="93.7" y="158.5" transform="matrix(0.9101 0.4143 -0.4143 0.9101 95.4342 -32.6691)" style="clip-path:url(#SVGID_00000080907282781128627400000005697258808168149176_);fill:#BAB9B5;" width="58.6" height="90.2"/>
			<polygon style="clip-path:url(#SVGID_00000080907282781128627400000005697258808168149176_);fill:#979492;" points="143.1,161.5 
				108.7,239.5 132.7,246.6 160.5,169.5 			"/>
		</g>
		
			<ellipse transform="matrix(0.4143 -0.9101 0.9101 0.4143 -154.4274 235.9331)" class="st12" cx="106.1" cy="238" rx="6.7" ry="23.5"/>
	</g>
	<path class="st13" d="M125.1,321.3c0,0-26.1-4.8-42.5-8.3c-9.6-2.1-35.8-9.8-35.8-9.8v-38.3l78.3,15V321.3z"/>
	<g>
		<ellipse class="st5" cx="79" cy="247.4" rx="15.9" ry="18.2"/>
		<polygon class="st5" points="121.7,239 81.6,229.4 75.4,265.2 115.6,274.8 		"/>
		<ellipse class="st0" cx="118.6" cy="256.9" rx="15.9" ry="18.2"/>
		<g>
			<path class="st0" d="M90.6,268.8l-0.3-0.1C90.4,268.7,90.5,268.8,90.6,268.8z"/>
			<path class="st0" d="M96.9,233c0,0-0.9-0.2-0.9-0.2c-0.8-0.1-1.5-0.2-2.3-0.2c-8.8,0-15.9,8.2-15.9,18.2
				c0,8.8,5.4,16.1,12.5,17.8l0.3,0.1l10.4,2.5l0,0c-1.9-0.4-3.6-1.2-5.2-2.3c-4.6-3.2-7.6-9-7.6-15.6c0-9.2,6-16.9,13.7-18.1
				c0.7-0.1,1.4-0.2,2.1-0.2c1,0,2.1,0.1,3,0.3l0,0L96.9,233z M100.3,234.4c0.1,0.1,0.2,0.1,0.3,0.2
				C100.5,234.5,100.4,234.4,100.3,234.4z M97.4,233.2c0.1,0,0.2,0,0.2,0.1C97.6,233.2,97.5,233.2,97.4,233.2z"/>
		</g>
	</g>
	<g>
		<defs>
			<path id="SVGID_00000096016745897139765870000015053873531850774404_" d="M156.1,235.7c20.3-0.8,72.6,13.7,100.9,26.1
				c28.3,12.4,20.4,38,20.4,38s-126.1,29.6-142.9,27.4S116.7,314,116.7,314s-0.6-31.9,0-42.5C117.4,258.2,120.7,237,156.1,235.7z"/>
		</defs>
		<clipPath id="SVGID_00000016056844089910051310000012848757895456102562_">
			<use xlink:href="#SVGID_00000096016745897139765870000015053873531850774404_"  style="overflow:visible;"/>
		</clipPath>
		<polygon style="clip-path:url(#SVGID_00000016056844089910051310000012848757895456102562_);fill:#5D717F;" points="110,318.9 
			112.8,233.2 171.5,227.7 287.9,269.8 288.3,305.1 135.7,338.8 		"/>
		<path style="clip-path:url(#SVGID_00000016056844089910051310000012848757895456102562_);fill:#4F5E6B;" d="M152.5,327.7
			c0,0,0-42.9,0-52.2c0-9.3,8.9-25.8,36.3-21.2c29.2,4.9,79.2,16.8,85.8,24.3c6.6,7.5,6.6,35.8,6.6,35.8L152.5,327.7z"/>
	</g>
	<g>
		<g>
			<polygon class="st16" points="73.3,0 70.3,8.6 92.6,21.6 92.9,50.4 101.5,53.8 101.9,17.9 			"/>
			<polygon class="st17" points="92.6,21.6 57.7,24.8 33.2,13.7 70.3,8.6 			"/>
			<polygon class="st17" points="73.3,0 70.3,8.6 33.2,13.7 36.4,5.3 			"/>
			<polygon class="st18" points="57.7,24.8 59.4,51.1 92.9,50.4 92.6,21.6 			"/>
		</g>
		<g>
			<ellipse class="st0" cx="61.4" cy="56.6" rx="7.6" ry="9"/>
			<polygon class="st0" points="94.6,47.9 61.4,47.6 61.4,65.5 94.6,65.8 			"/>
			<ellipse class="st5" cx="94.6" cy="56.8" rx="7.6" ry="9"/>
		</g>
		<g>
			<polygon class="st17" points="88.7,58.8 53.9,57.4 35.2,80.7 66.1,81.1 			"/>
			<polygon class="st16" points="88.7,58.8 94.7,66 68.1,93.7 32.7,78.6 38.7,69.7 66.1,81.1 			"/>
			<polygon class="st17" points="6,68.4 0,77.3 32.7,78.6 38.7,69.7 			"/>
			<polygon class="st19" points="32.7,78.6 0,77.3 33,89.1 68.1,93.7 			"/>
		</g>
		
			<ellipse transform="matrix(0.9991 -4.250969e-02 4.250969e-02 0.9991 -2.3304 4.0734)" class="st5" cx="94.6" cy="56.8" rx="7.6" ry="9"/>
	</g>
	<g>
		<path class="st5" d="M58.4,227.9c0,0,4.6-2.9,7.6-3.8c5.3-1.4,7.9-1.3,7.9-1.3s3.5-42-30-27.1c0-0.1,2.1,27.5,2.1,27.5L58.4,227.9
			z"/>
		<g>
			<defs>
				<path id="SVGID_00000120519965770923072610000005922677263356044464_" d="M36.6,223.5c0,0-2.1-30.8,11.6-28.3
					c13.9,2.5,10.2,32.7,10.2,32.7L36.6,223.5z"/>
			</defs>
			<use xlink:href="#SVGID_00000120519965770923072610000005922677263356044464_"  style="overflow:visible;fill:#4AA6C0;"/>
			<clipPath id="SVGID_00000084517594874628140700000012966793838623904680_">
				<use xlink:href="#SVGID_00000120519965770923072610000005922677263356044464_"  style="overflow:visible;"/>
			</clipPath>
			
				<rect x="31" y="190.4" style="clip-path:url(#SVGID_00000084517594874628140700000012966793838623904680_);fill:#C5E6F9;" width="33.2" height="44.1"/>
			
				<ellipse style="clip-path:url(#SVGID_00000084517594874628140700000012966793838623904680_);fill:#3B464F;" cx="47.4" cy="214.4" rx="4.4" ry="7.2"/>
			<path style="clip-path:url(#SVGID_00000084517594874628140700000012966793838623904680_);fill:#4AA6C0;" d="M34.2,219.2
				c0,0,5.6-1,14.5,2.2c7.8,2.8,10.8,7.1,10.8,7.1s-7.2,5.2-14.1,2.3C38.5,228,36.9,225,34.2,219.2z"/>
			<path style="clip-path:url(#SVGID_00000084517594874628140700000012966793838623904680_);fill:#4AA6C0;" d="M61.5,203.9
				c0,0-5.1-4.9-14.4-3.7c-11.8,1.6-15.8,11.5-15.8,11.5s2.4-14.6,15.9-15.3C54.6,196.1,57.1,199.3,61.5,203.9z"/>
			
				<path style="clip-path:url(#SVGID_00000084517594874628140700000012966793838623904680_);fill:none;stroke:#AA5093;stroke-width:3;stroke-miterlimit:10;" d="
				M36.4,226c0,0-1.8-33.4,11.8-30.9c13.9,2.5,10.2,34.1,10.2,34.1"/>
		</g>
	</g>
	<g>
		<path class="st5" d="M160.8,249.4c0,0,4.6-2.9,7.6-3.8c5.3-1.4,7.9-1.3,7.9-1.3s3.5-42-30-27.1c0-0.1,2.1,27.5,2.1,27.5
			L160.8,249.4z"/>
		<g>
			<defs>
				<path id="SVGID_00000026149566845128631270000005457111306005255815_" d="M139,245c0,0-2.1-30.8,11.6-28.3
					c13.9,2.5,10.2,32.7,10.2,32.7L139,245z"/>
			</defs>
			<clipPath id="SVGID_00000039091344802889853810000006474226284328102039_">
				<use xlink:href="#SVGID_00000026149566845128631270000005457111306005255815_"  style="overflow:visible;"/>
			</clipPath>
			
				<rect x="133.4" y="211.9" style="clip-path:url(#SVGID_00000039091344802889853810000006474226284328102039_);fill:#C5E6F9;" width="33.2" height="44.1"/>
			
				<ellipse style="clip-path:url(#SVGID_00000039091344802889853810000006474226284328102039_);fill:#3B464F;" cx="149.9" cy="235.9" rx="4.8" ry="7.9"/>
			<g id="Happy" style="clip-path:url(#SVGID_00000039091344802889853810000006474226284328102039_);">
				<path class="st27" d="M137.5,222.9c0,0,6-3.8,14.8-0.6c11.2,4,13,14.6,13,14.6s0.8-14.8-12.3-18.3
					C145.9,216.7,142.9,219.3,137.5,222.9z"/>
				<path class="st27" d="M165.7,244.5c0,0-4.9-2.8-14.4-2.7c-8.3,0.1-12.5,3.2-12.5,3.2s5.1,7.2,12.5,6.8
					C158.7,251.4,161.2,249.2,165.7,244.5z"/>
			</g>
			
				<path style="clip-path:url(#SVGID_00000039091344802889853810000006474226284328102039_);fill:none;stroke:#AA5093;stroke-width:3;stroke-miterlimit:10;" d="
				M138.8,247.5c0,0-1.8-33.4,11.8-30.9c13.9,2.5,10.2,34.1,10.2,34.1"/>
		</g>
	</g>
	<path class="st12" d="M65.2,284.5L65.2,284.5c0,4.4,2.3,8.6,6.2,10.8c3.5,2,6.4,3.7,13.4,2.3c3.1-0.6,7.6-3.8,7.6-7l0,0L65.2,284.5
		z"/>
</g>
</svg>
