<?xml version="1.0" encoding="utf-8"?>
<!-- Generator: Adobe Illustrator 26.3.1, SVG Export Plug-In . SVG Version: 6.00 Build 0)  -->
<svg version="1.1" id="Layer_1" xmlns="http://www.w3.org/2000/svg" xmlns:xlink="http://www.w3.org/1999/xlink" x="0px" y="0px"
	 viewBox="0 0 214.3 365.5" style="enable-background:new 0 0 214.3 365.5;" xml:space="preserve">
<style type="text/css">
	.st0{clip-path:url(#SVGID_00000126307557966503879230000013281915365297994376_);fill:#324F6B;}
	.st1{clip-path:url(#SVGID_00000126307557966503879230000013281915365297994376_);fill:#8A96AB;}
	.st2{fill:#D8B405;}
	.st3{fill:#B98C02;}
	.st4{fill:#8A96AB;}
	.st5{fill:#FFDE17;}
	.st6{fill:#DDDDDD;}
	.st7{fill:#B8C1CA;}
	.st8{clip-path:url(#SVGID_00000180336962102120080160000000679293462130581433_);fill:#D04248;}
	.st9{clip-path:url(#SVGID_00000180336962102120080160000000679293462130581433_);fill:#BC353F;}
	.st10{clip-path:url(#SVGID_00000180336962102120080160000000679293462130581433_);fill:#752832;}
	.st11{fill:#752832;}
	.st12{clip-path:url(#SVGID_00000049909303863060268980000009707932344901937573_);fill:#D04248;}
	.st13{clip-path:url(#SVGID_00000049909303863060268980000009707932344901937573_);fill:#BC353F;}
	.st14{clip-path:url(#SVGID_00000049909303863060268980000009707932344901937573_);fill:#752832;}
	.st15{clip-path:url(#SVGID_00000183215426574648939190000018046908509619881655_);fill:#FFDE17;}
	.st16{clip-path:url(#SVGID_00000183215426574648939190000018046908509619881655_);fill:#D8B405;}
	.st17{clip-path:url(#SVGID_00000051383283878832925210000001315255790266344581_);fill:#C5E6F9;}
	.st18{clip-path:url(#SVGID_00000051383283878832925210000001315255790266344581_);fill:#D8B405;}
	.st19{clip-path:url(#SVGID_00000051383283878832925210000001315255790266344581_);fill:#FFDE17;}
	.st20{clip-path:url(#SVGID_00000051383283878832925210000001315255790266344581_);fill:#324F6B;}
	.st21{clip-path:url(#SVGID_00000051383283878832925210000001315255790266344581_);fill:#AADEF7;}
	.st22{clip-path:url(#SVGID_00000056389660234931868730000016055629171410106803_);fill:#FFDE17;}
	.st23{clip-path:url(#SVGID_00000056389660234931868730000016055629171410106803_);fill:#D8B405;}
	.st24{clip-path:url(#SVGID_00000150078003513334687080000010498186751247681462_);fill:#752832;}
	.st25{clip-path:url(#SVGID_00000150078003513334687080000010498186751247681462_);fill:#BC353F;}
	
		.st26{clip-path:url(#SVGID_00000150078003513334687080000010498186751247681462_);fill:none;stroke:#D8B405;stroke-width:0.9815;stroke-miterlimit:10;}
	.st27{clip-path:url(#SVGID_00000158722324038874072530000004505247489521927569_);}
	.st28{fill:#113654;}
	.st29{clip-path:url(#SVGID_00000008842047184495080680000017009342383110741427_);fill:#D04248;}
	.st30{clip-path:url(#SVGID_00000008842047184495080680000017009342383110741427_);fill:#BC353F;}
	.st31{clip-path:url(#SVGID_00000047047857471022303060000006367685743909649850_);fill:#324F6B;}
	.st32{clip-path:url(#SVGID_00000047047857471022303060000006367685743909649850_);fill:none;}
	.st33{clip-path:url(#SVGID_00000047047857471022303060000006367685743909649850_);fill:#8A96AB;}
</style>
<g>
	<g>
		<defs>
			<rect id="SVGID_1_" y="141.6" width="214.3" height="43.8"/>
		</defs>
		<clipPath id="SVGID_00000099625876026866284450000002966962859666434468_">
			<use xlink:href="#SVGID_1_"  style="overflow:visible;"/>
		</clipPath>
		<path style="clip-path:url(#SVGID_00000099625876026866284450000002966962859666434468_);fill:#324F6B;" d="M213.5,192.9
			c0-1.7-0.5-3.5-1.3-5.1l-15.5-0.4c0,0,0,0,0,0c-0.2-0.3-0.4-0.5-0.6-0.8c-0.1-0.2-0.3-0.4-0.4-0.5c-0.1-0.1-0.1-0.2-0.2-0.3
			c-0.2-0.2-0.4-0.4-0.6-0.7c0,0,0,0-0.1-0.1c-0.2-0.2-0.5-0.5-0.7-0.7c0,0,0,0,0,0v0c-0.2-0.2-0.3-0.3-0.5-0.5l12-2.8c0,0,0,0,0,0
			l0.5-0.1l0,0c-2-1.6-4.4-3.1-7.2-4.6l-15,1.4c0,0-0.1,0-0.1,0c-0.5-0.2-1-0.5-1.5-0.7c-0.4-0.2-0.8-0.4-1.3-0.5
			c-0.1,0-0.2-0.1-0.3-0.1c-1.3-0.5-2.6-1.1-4-1.6l8.3-4.1c-3.7-1.2-7.7-2.4-11.9-3.4l0,0l0,0l-12.4,2.9c-0.1,0-0.2,0-0.3-0.1
			c-0.7-0.2-1.4-0.3-2.1-0.5c-2.6-0.5-5.2-1-7.9-1.5l3-4.8c-4.8-0.7-9.9-1.3-15.1-1.8l0,0l0,0l-8.1,4.1c-4-0.3-8.1-0.6-12.2-0.7
			l-2.8-4.8c-2.7-0.1-5.4-0.1-8.1-0.1c-1.3,0-2.6,0-3.9,0c-0.2,0-0.4,0-0.6,0c-1.2,0-2.4,0-3.6,0.1l0,0l0,0l-2.8,4.8
			c-4.2,0.2-8.2,0.4-12.2,0.7l-8.1-4.1c-1.6,0.2-3.3,0.3-4.9,0.5c-2,0.2-4,0.5-5.9,0.7c-1.4,0.2-2.9,0.4-4.3,0.6l0,0l0,0l0.3,0.5v0
			l2.6,4.3c-1.9,0.3-3.7,0.6-5.5,1c0,0-0.1,0-0.1,0c-0.8,0.2-1.6,0.3-2.4,0.5c-0.8,0.2-1.6,0.4-2.5,0.5l-12.4-2.9v0v0
			c-4.3,1.1-8.3,2.2-11.9,3.4l0.7,0.3c0,0,0,0,0,0l7.6,3.8c-0.2,0.1-0.4,0.2-0.6,0.2v0c0,0,0,0,0,0c-0.6,0.2-1.2,0.4-1.7,0.7
			c0,0,0,0,0,0c-0.5,0.2-1.1,0.4-1.6,0.7c-0.1,0.1-0.3,0.1-0.4,0.2c-0.4,0.2-0.8,0.3-1.2,0.5c-0.5,0.2-1.1,0.5-1.6,0.7l-15-1.4l0,0
			l0,0c-2.8,1.5-5.2,3-7.2,4.6l0.6,0.1c0,0,0,0,0,0l12,2.8c-0.2,0.2-0.3,0.3-0.5,0.5v0c0,0,0,0,0,0c-0.2,0.2-0.5,0.5-0.7,0.7
			c0,0,0,0.1-0.1,0.1c-0.2,0.2-0.4,0.4-0.6,0.7c-0.1,0.1-0.1,0.2-0.2,0.3c-0.1,0.2-0.3,0.3-0.4,0.5c-0.2,0.3-0.4,0.5-0.6,0.8l-1.5,0
			l-14,0.4l0,0l0,0c-0.9,1.7-1.3,3.4-1.3,5.1l0,0c0,0,0,0,0,0l15.1,1.3c0.2,1.2,0.6,2.4,1.2,3.5l-0.3,0l0,0l-13.7,2.1
			c0,0,0,0.1,0.1,0.1c1.2,1.7,2.7,3.3,4.7,4.9l15.6-0.5c1.5,1.1,3.2,2.1,5.1,3.1l-0.6,0.2v0l-9.9,3.3c0.1,0,0.2,0.1,0.3,0.1
			c3,1.4,6.4,2.8,10,4l14-2.2c2.5,0.8,5.2,1.5,8,2.2l-3.9,3.1l-1.8,1.4c0,0,0.1,0,0.2,0c4.5,1,9.3,1.9,14.4,2.7l10.5-3.6
			c3.2,0.4,6.5,0.8,9.9,1.2l0,0.6c0,0,0,0,0,0l-0.1,4.3c0,0,0,0,0,0v0c5.4,0.5,11.1,0.8,16.8,1l5.6-4.5c1.7,0,3.5,0,5.3,0
			c1.8,0,3.5,0,5.3,0l5.6,4.5c5.8-0.2,11.4-0.5,16.8-1v0c0,0,0,0,0,0c0,0,0,0,0,0l0-0.8l-0.1-3.5c0,0,0,0,0,0l0-0.6
			c3.4-0.3,6.7-0.7,9.9-1.2l10.5,3.6c5.1-0.8,10-1.7,14.5-2.8l-5.7-4.5c2.8-0.7,5.5-1.4,8-2.2l14,2.2c3.8-1.3,7.2-2.7,10.3-4.2
			l-10.6-3.6c1.9-1,3.6-2,5.1-3.1l15.6,0.5c1.8-1.4,3.3-2.9,4.4-4.5l0,0c0.1-0.1,0.1-0.1,0.2-0.2c0.1-0.1,0.1-0.2,0.2-0.3l-14-2.1
			c0.6-1.1,1-2.3,1.2-3.5L213.5,192.9C213.5,192.9,213.5,192.9,213.5,192.9L213.5,192.9L213.5,192.9L213.5,192.9z M183.8,193.1
			C183.8,193.1,183.8,193.1,183.8,193.1c-0.2,5.7-6.9,10.9-17.8,15c0,0,0,0,0,0c-0.8,0.3-1.6,0.6-2.4,0.8c0,0-0.1,0-0.1,0
			c-0.8,0.3-1.6,0.5-2.4,0.8c-0.1,0-0.1,0-0.2,0.1c-0.8,0.2-1.6,0.5-2.4,0.7c-0.1,0-0.2,0.1-0.3,0.1c-0.8,0.2-1.6,0.4-2.4,0.7
			c-0.1,0-0.3,0.1-0.4,0.1c-0.8,0.2-1.6,0.4-2.4,0.6c-0.2,0-0.4,0.1-0.6,0.1c-0.8,0.2-1.6,0.4-2.4,0.5c-0.2,0-0.5,0.1-0.7,0.1
			c-0.8,0.2-1.6,0.3-2.4,0.5c-0.3,0.1-0.6,0.1-0.8,0.2c-0.8,0.1-1.6,0.3-2.3,0.4c-0.3,0.1-0.7,0.1-1,0.2c-0.8,0.1-1.5,0.2-2.3,0.4
			c-0.4,0.1-0.8,0.1-1.1,0.2c-0.7,0.1-1.5,0.2-2.2,0.3c-0.4,0.1-0.9,0.1-1.3,0.2c-0.7,0.1-1.4,0.2-2.2,0.3c-0.5,0.1-1,0.1-1.5,0.2
			c-0.7,0.1-1.4,0.1-2.1,0.2c-0.5,0.1-1.1,0.1-1.6,0.1c-0.7,0.1-1.3,0.1-2,0.2c-0.6,0-1.2,0.1-1.8,0.1c-0.6,0-1.3,0.1-1.9,0.1
			c-0.7,0-1.3,0.1-2,0.1c-0.6,0-1.2,0.1-1.8,0.1c-0.7,0-1.5,0.1-2.2,0.1c-0.5,0-1.1,0-1.6,0.1c-0.9,0-1.7,0-2.6,0.1
			c-0.4,0-0.8,0-1.3,0c-1.3,0-2.6,0-3.9,0c-1.3,0-2.6,0-3.9,0c-0.4,0-0.8,0-1.2,0c-0.9,0-1.8,0-2.6-0.1c-0.5,0-1,0-1.6-0.1
			c-0.8,0-1.5-0.1-2.3-0.1c-0.6,0-1.2-0.1-1.7-0.1c-0.7,0-1.3-0.1-2-0.1c-0.6,0-1.3-0.1-1.9-0.1c-0.6,0-1.2-0.1-1.8-0.1
			c-0.7-0.1-1.3-0.1-2-0.2c-0.6,0-1.1-0.1-1.7-0.1c-0.7-0.1-1.4-0.1-2-0.2c-0.5-0.1-1-0.1-1.5-0.2c-0.7-0.1-1.4-0.2-2.1-0.3
			c-0.4-0.1-0.9-0.1-1.3-0.2c-0.7-0.1-1.5-0.2-2.2-0.3c-0.4-0.1-0.8-0.1-1.2-0.2c-0.8-0.1-1.5-0.2-2.3-0.4c-0.3-0.1-0.7-0.1-1-0.2
			c-0.8-0.1-1.6-0.3-2.3-0.4c-0.3-0.1-0.6-0.1-0.9-0.2c-0.8-0.2-1.6-0.3-2.4-0.5c-0.2,0-0.5-0.1-0.7-0.1c-0.8-0.2-1.6-0.3-2.4-0.5
			c-0.2,0-0.4-0.1-0.6-0.1c-0.8-0.2-1.6-0.4-2.4-0.6c-0.1,0-0.3-0.1-0.5-0.1c-0.8-0.2-1.6-0.4-2.4-0.6c-0.1,0-0.2-0.1-0.3-0.1
			c-0.8-0.2-1.6-0.5-2.4-0.7c-0.1,0-0.2,0-0.2-0.1c-0.8-0.3-1.6-0.5-2.4-0.8c0,0-0.1,0-0.1,0c-0.8-0.3-1.6-0.5-2.3-0.8
			c0,0,0,0-0.1,0c-10.9-4.1-17.6-9.3-17.8-15c0,0,0,0,0,0c0-0.1,0-0.2,0-0.3c0-13.1,34.3-23.8,76.7-23.8c42.3,0,76.7,10.7,76.7,23.8
			C183.8,192.9,183.8,193,183.8,193.1z"/>
		<polygon style="clip-path:url(#SVGID_00000099625876026866284450000002966962859666434468_);fill:#324F6B;" points="8.1,174.2 
			8.1,180.9 20.7,183.8 0.8,186.2 0.8,192.9 19.3,191.2 3.2,193.3 3.2,199.8 7.9,204.8 18.8,201.5 18,204.3 18,210.9 28.4,215.1 
			42.4,212.9 44.7,213 44.8,219.7 59.2,222.4 69.7,218.8 79.6,220 81.9,210.8 59.9,208.7 37,201.5 28.9,190.6 27.5,179.1 
			23.6,174.8 		"/>
		<path style="clip-path:url(#SVGID_00000099625876026866284450000002966962859666434468_);fill:#324F6B;" d="M96.3,225.8l3.4-5.3
			l12.1-0.9l22.9,5.3v-6.6l6.1-1.4l13.4,3l15.4-0.1V213l4.9-2.8l21.8,0.8v-6.6l7.7-2.2l7.2-2.3v-6.6l-0.2-1.6l2.5,1.3v-6.6l-6.7-2.5
			l-0.6-2.8v-6.6l-13.5-1.3l-4.5,9c0,0-0.2,10.2-8.3,15.2s-26,12.4-40.2,12.9s-43.3,2.7-43.3,2.7L96.3,225.8z"/>
		<polygon style="clip-path:url(#SVGID_00000099625876026866284450000002966962859666434468_);fill:#324F6B;" points="29.1,163.9 
			29.1,170.5 37.9,173.3 49.5,173.4 61.2,163.7 		"/>
		<polygon style="clip-path:url(#SVGID_00000099625876026866284450000002966962859666434468_);fill:#324F6B;" points="185.2,163.9 
			185.2,170.5 170.1,175.1 135.9,169.3 143.9,157.2 153.5,156.6 153.5,163.2 165.4,167.1 		"/>
		<path style="clip-path:url(#SVGID_00000099625876026866284450000002966962859666434468_);fill:#8A96AB;" d="M213.5,186.2
			c0-1.7-0.5-3.5-1.3-5.1l-15.5-0.4c0,0,0,0,0,0c-0.2-0.3-0.4-0.5-0.6-0.8c-0.1-0.2-0.3-0.4-0.4-0.5c-0.1-0.1-0.1-0.2-0.2-0.3
			c-0.2-0.2-0.4-0.4-0.6-0.7c0,0,0,0-0.1-0.1c-0.2-0.2-0.5-0.5-0.7-0.7c0,0,0,0,0,0v0c-0.2-0.2-0.3-0.3-0.5-0.5l12-2.8c0,0,0,0,0,0
			l0.5-0.1l0,0c-2-1.6-4.4-3.1-7.2-4.6l-15,1.4c0,0-0.1,0-0.1,0c-0.5-0.2-1-0.5-1.5-0.7c-0.4-0.2-0.8-0.4-1.3-0.5
			c-0.1,0-0.2-0.1-0.3-0.1c-1.3-0.5-2.6-1.1-4-1.6l8.3-4.1c-3.7-1.2-7.7-2.4-11.9-3.4l0,0l0,0l-12.4,2.9c-0.1,0-0.2,0-0.3-0.1
			c-0.7-0.2-1.4-0.3-2.1-0.5c-2.6-0.5-5.2-1-7.9-1.5l3-4.8c-4.8-0.7-9.9-1.3-15.1-1.8l0,0l0,0l-8.1,4.1c-4-0.3-8.1-0.6-12.2-0.7
			l-2.8-4.8c-2.7-0.1-5.4-0.1-8.1-0.1c-1.3,0-2.6,0-3.9,0c-0.2,0-0.4,0-0.6,0c-1.2,0-2.4,0-3.6,0.1l0,0l0,0l-2.8,4.8
			c-4.2,0.2-8.2,0.4-12.2,0.7l-8.1-4.1c-1.6,0.2-3.3,0.3-4.9,0.5c-2,0.2-4,0.5-5.9,0.7c-1.4,0.2-2.9,0.4-4.3,0.6l0,0l0,0l0.3,0.5v0
			l2.6,4.3c-1.9,0.3-3.7,0.6-5.5,1c0,0-0.1,0-0.1,0c-0.8,0.2-1.6,0.3-2.4,0.5c-0.8,0.2-1.6,0.4-2.5,0.5l-12.4-2.9v0v0
			c-4.3,1.1-8.3,2.2-11.9,3.4l0.7,0.3c0,0,0,0,0,0l7.6,3.8c-0.2,0.1-0.4,0.2-0.6,0.2v0c0,0,0,0,0,0c-0.6,0.2-1.2,0.4-1.7,0.7
			c0,0,0,0,0,0c-0.5,0.2-1.1,0.4-1.6,0.7c-0.1,0.1-0.3,0.1-0.4,0.2c-0.4,0.2-0.8,0.3-1.2,0.5c-0.5,0.2-1.1,0.5-1.6,0.7l-15-1.4l0,0
			l0,0c-2.8,1.5-5.2,3-7.2,4.6l0.6,0.1c0,0,0,0,0,0l12,2.8c-0.2,0.2-0.3,0.3-0.5,0.5v0c0,0,0,0,0,0c-0.2,0.2-0.5,0.5-0.7,0.7
			c0,0,0,0.1-0.1,0.1c-0.2,0.2-0.4,0.4-0.6,0.7c-0.1,0.1-0.1,0.2-0.2,0.3c-0.1,0.2-0.3,0.3-0.4,0.5c-0.2,0.3-0.4,0.5-0.6,0.8l-1.5,0
			l-14,0.4l0,0l0,0c-0.9,1.7-1.3,3.4-1.3,5.1l0,0c0,0,0,0,0,0l15.1,1.3c0.2,1.2,0.6,2.4,1.2,3.5l-0.3,0l0,0l-13.7,2.1
			c0,0,0,0.1,0.1,0.1c1.2,1.7,2.7,3.3,4.7,4.9l15.6-0.5c1.5,1.1,3.2,2.1,5.1,3.1L28,201v0l-9.9,3.3c0.1,0,0.2,0.1,0.3,0.1
			c3,1.4,6.4,2.8,10,4l14-2.2c2.5,0.8,5.2,1.5,8,2.2l-3.9,3.1l-1.8,1.4c0,0,0.1,0,0.2,0c4.5,1,9.3,1.9,14.4,2.7l10.5-3.6
			c3.2,0.4,6.5,0.8,9.9,1.2l0,0.6c0,0,0,0,0,0l-0.1,4.3c0,0,0,0,0,0v0c5.4,0.5,11.1,0.8,16.8,1l5.6-4.5c1.7,0,3.5,0,5.3,0
			c1.8,0,3.5,0,5.3,0l5.6,4.5c5.8-0.2,11.4-0.5,16.8-1v0c0,0,0,0,0,0c0,0,0,0,0,0l0-0.8l-0.1-3.5c0,0,0,0,0,0l0-0.6
			c3.4-0.3,6.7-0.7,9.9-1.2l10.5,3.6c5.1-0.8,10-1.7,14.5-2.8l-5.7-4.5c2.8-0.7,5.5-1.4,8-2.2l14,2.2c3.8-1.3,7.2-2.7,10.3-4.2
			l-10.6-3.6c1.9-1,3.6-2,5.1-3.1l15.6,0.5c1.8-1.4,3.3-2.9,4.4-4.5l0,0c0.1-0.1,0.1-0.1,0.2-0.2c0.1-0.1,0.1-0.2,0.2-0.3l-14-2.1
			c0.6-1.1,1-2.3,1.2-3.5L213.5,186.2C213.5,186.2,213.5,186.2,213.5,186.2L213.5,186.2L213.5,186.2L213.5,186.2z M183.8,186.5
			C183.8,186.5,183.8,186.5,183.8,186.5c-0.2,5.7-6.9,10.9-17.8,15c0,0,0,0,0,0c-0.8,0.3-1.6,0.6-2.4,0.8c0,0-0.1,0-0.1,0
			c-0.8,0.3-1.6,0.5-2.4,0.8c-0.1,0-0.1,0-0.2,0.1c-0.8,0.2-1.6,0.5-2.4,0.7c-0.1,0-0.2,0.1-0.3,0.1c-0.8,0.2-1.6,0.4-2.4,0.7
			c-0.1,0-0.3,0.1-0.4,0.1c-0.8,0.2-1.6,0.4-2.4,0.6c-0.2,0-0.4,0.1-0.6,0.1c-0.8,0.2-1.6,0.4-2.4,0.5c-0.2,0-0.5,0.1-0.7,0.1
			c-0.8,0.2-1.6,0.3-2.4,0.5c-0.3,0.1-0.6,0.1-0.8,0.2c-0.8,0.1-1.6,0.3-2.3,0.4c-0.3,0.1-0.7,0.1-1,0.2c-0.8,0.1-1.5,0.2-2.3,0.4
			c-0.4,0.1-0.8,0.1-1.1,0.2c-0.7,0.1-1.5,0.2-2.2,0.3c-0.4,0.1-0.9,0.1-1.3,0.2c-0.7,0.1-1.4,0.2-2.2,0.3c-0.5,0.1-1,0.1-1.5,0.2
			c-0.7,0.1-1.4,0.1-2.1,0.2c-0.5,0.1-1.1,0.1-1.6,0.1c-0.7,0.1-1.3,0.1-2,0.2c-0.6,0-1.2,0.1-1.8,0.1c-0.6,0-1.3,0.1-1.9,0.1
			c-0.7,0-1.3,0.1-2,0.1c-0.6,0-1.2,0.1-1.8,0.1c-0.7,0-1.5,0.1-2.2,0.1c-0.5,0-1.1,0-1.6,0.1c-0.9,0-1.7,0-2.6,0.1
			c-0.4,0-0.8,0-1.3,0c-1.3,0-2.6,0-3.9,0c-1.3,0-2.6,0-3.9,0c-0.4,0-0.8,0-1.2,0c-0.9,0-1.8,0-2.6-0.1c-0.5,0-1,0-1.6-0.1
			c-0.8,0-1.5-0.1-2.3-0.1c-0.6,0-1.2-0.1-1.7-0.1c-0.7,0-1.3-0.1-2-0.1c-0.6,0-1.3-0.1-1.9-0.1c-0.6,0-1.2-0.1-1.8-0.1
			c-0.7-0.1-1.3-0.1-2-0.2c-0.6,0-1.1-0.1-1.7-0.1c-0.7-0.1-1.4-0.1-2-0.2c-0.5-0.1-1-0.1-1.5-0.2c-0.7-0.1-1.4-0.2-2.1-0.3
			c-0.4-0.1-0.9-0.1-1.3-0.2c-0.7-0.1-1.5-0.2-2.2-0.3c-0.4-0.1-0.8-0.1-1.2-0.2c-0.8-0.1-1.5-0.2-2.3-0.4c-0.3-0.1-0.7-0.1-1-0.2
			c-0.8-0.1-1.6-0.3-2.3-0.4c-0.3-0.1-0.6-0.1-0.9-0.2c-0.8-0.2-1.6-0.3-2.4-0.5c-0.2,0-0.5-0.1-0.7-0.1c-0.8-0.2-1.6-0.3-2.4-0.5
			c-0.2,0-0.4-0.1-0.6-0.1c-0.8-0.2-1.6-0.4-2.4-0.6c-0.1,0-0.3-0.1-0.5-0.1c-0.8-0.2-1.6-0.4-2.4-0.6c-0.1,0-0.2-0.1-0.3-0.1
			c-0.8-0.2-1.6-0.5-2.4-0.7c-0.1,0-0.2,0-0.2-0.1c-0.8-0.3-1.6-0.5-2.4-0.8c0,0-0.1,0-0.1,0c-0.8-0.3-1.6-0.5-2.3-0.8
			c0,0,0,0-0.1,0c-10.9-4.1-17.6-9.3-17.8-15c0,0,0,0,0,0c0-0.1,0-0.2,0-0.3c0-13.1,34.3-23.8,76.7-23.8c42.3,0,76.7,10.7,76.7,23.8
			C183.8,186.3,183.8,186.4,183.8,186.5z"/>
	</g>
	<g>
		<g>
			<g>
				<g>
					<path class="st2" d="M22.4,179c-4.4,0.5-6.8-4-5.4-10c1.4-6.1,6-11.4,10.4-11.9l-0.9,3.8c-2.8,0.3-5.9,3.8-6.8,7.8
						s0.7,6.9,3.5,6.5L22.4,179z"/>
				</g>
				<g>
					<path class="st3" d="M24.5,178.7c4.4-0.5,9-5.9,10.4-11.9c1.4-6.1-1.1-10.6-5.4-10l-0.9,3.8c2.8-0.3,4.4,2.6,3.5,6.5
						s-3.9,7.4-6.8,7.8L24.5,178.7z"/>
				</g>
				<g>
					
						<ellipse transform="matrix(0.4456 -0.8952 0.8952 0.4456 -125.5369 112.7139)" class="st4" cx="28.2" cy="157.7" rx="5.3" ry="3.2"/>
				</g>
			</g>
			<polygon class="st2" points="25.4,174.9 35,180.2 34.1,184 24.5,178.7 			"/>
			<path class="st3" d="M25.4,174.9l3.5,0.4l4.4-7l0.1-5.3l7.9,2.8l2,5.8c0,0-1.4,2.5-3.4,6.5c-1.5,3-5.1,2.1-5.1,2.1L25.4,174.9z"
				/>
			<polygon class="st2" points="34.4,163.1 24.7,157.9 21.7,161.5 18.7,168.1 20.1,176 19.7,178.6 29.2,183.7 28.8,182.1 
				27.7,175.8 29.4,169.3 			"/>
			<polygon class="st4" points="30.6,153 40.4,158.3 34.4,163.1 24.7,157.9 			"/>
			<g>
				<g>
					<path class="st5" d="M32,184.2c-4.4,0.5-6.8-4-5.4-10c1.4-6.1,6-11.4,10.4-11.9l-0.9,3.8c-2.8,0.3-5.9,3.8-6.8,7.8
						c-0.9,4,0.7,6.9,3.5,6.5L32,184.2z"/>
				</g>
				<g>
					<path class="st6" d="M34.1,184c4.4-0.5,9-5.9,10.4-11.9c1.4-6.1-1.1-10.6-5.4-10l-0.9,3.8c2.8-0.3,4.4,2.6,3.5,6.5
						c-0.9,4-3.9,7.4-6.8,7.8L34.1,184z"/>
				</g>
				<g>
					
						<ellipse transform="matrix(0.4456 -0.8952 0.8952 0.4456 -124.8957 124.2246)" class="st7" cx="37.9" cy="163" rx="5.3" ry="3.2"/>
				</g>
			</g>
		</g>
		<g>
			<g>
				<g>
					<g>
						<path class="st7" d="M72.1,78.8c1.4-0.4,3.1,0.2,4.4,1.6c1.3,1.4,2.3,3.6,2.5,6.1c0.2,2.5,0.2,4.8,0,6.5
							c-0.2,1.7-0.7,2.9-1.5,3.1L72.1,78.8z"/>
					</g>
					<g>
						<g>
							<path class="st7" d="M53.8,89.1c5.3-4.4,11.4-8.1,18.4-10.2l5.4,17.4c-4.2,1.3-8.3,3.7-12,6.8L53.8,89.1z"/>
						</g>
						<g>
							<path class="st6" d="M76,96.8c-0.8,0.5-1.8,0.7-2.8,0.7c-1,0-2.2-0.2-3.2-0.6c-2.2-0.9-4.2-2.4-5.5-4.4c-1.3-2-1.9-4.6-1-7.1
								c0.4-1.3,1.2-2.5,2.3-3.5c1.1-1,2.5-1.8,4-2.2c-2.8,1.3-4.5,3.6-5,5.8c-0.5,2.3,0,4.4,1.1,6.2c1.1,1.8,2.8,3.3,4.6,4.2
								C72.2,96.8,74.2,97.1,76,96.8z"/>
						</g>
					</g>
					<g>
						<g>
							<path class="st7" d="M40.5,104.3c0.9-1.4,1.8-2.8,2.8-4.1c1-1.4,2.1-2.6,3.1-3.9c2.2-2.5,4.6-5,7.3-7.2l11.7,14
								c-1.8,1.5-3.5,3.3-5.2,5.1c-0.8,1-1.6,1.9-2.3,2.9c-0.8,1-1.5,2-2.1,3.1L40.5,104.3z"/>
						</g>
						<g>
							<path class="st6" d="M64.2,104.2c-0.6,0.8-1.5,1.4-2.5,1.8c-1,0.4-2.2,0.6-3.3,0.6c-2.3,0-4.8-0.8-6.7-2.3
								c-1.9-1.5-3.2-3.7-3.3-6.3c-0.1-1.3,0.2-2.7,0.8-4c0.6-1.3,1.6-2.5,2.8-3.3c-1,1.1-1.6,2.3-2.1,3.5c-0.4,1.2-0.5,2.4-0.4,3.5
								c0.3,2.2,1.5,4.2,3.1,5.5c1.6,1.3,3.7,2.1,5.7,2.4c1,0.1,2.1,0.1,3.1-0.2C62.4,105.2,63.4,104.7,64.2,104.2z"/>
						</g>
					</g>
					<g>
						<g>
							<path class="st7" d="M31.9,121.7c2.2-6,5-11.9,8.6-17.4l15.3,9.9c-2.8,4.2-5,8.9-6.9,13.9L31.9,121.7z"/>
						</g>
						<g>
							<path class="st6" d="M54.9,115.7c-0.4,1-1.1,1.8-2,2.6c-0.9,0.7-2,1.2-3.1,1.5c-2.3,0.7-4.8,0.5-7-0.5c-2.2-1-4-2.8-4.8-5.3
								c-0.4-1.2-0.5-2.6-0.3-4c0.2-1.4,0.9-2.7,1.7-3.8c-1.2,2.5-1.2,5.2-0.3,7.2c0.9,2,2.5,3.6,4.4,4.5c1.9,0.9,4.1,1.2,6.2,0.8
								C51.7,118.5,53.5,117.4,54.9,115.7z"/>
						</g>
					</g>
					<g>
						<g>
							<path class="st7" d="M26.8,139.9c1.3-6.1,2.9-12.2,5.1-18.2l17.1,6.4c-1.9,5-3.2,10.2-4.3,15.5L26.8,139.9z"/>
						</g>
						<g>
							<path class="st6" d="M48.4,129.9c-0.2,1.1-0.8,2.1-1.5,3.1c-0.7,0.9-1.7,1.7-2.8,2.2c-2.2,1.1-4.7,1.3-7,0.8
								c-2.3-0.6-4.5-2.1-5.7-4.3c-0.6-1.1-1-2.4-1-3.8c-0.1-1.4,0.3-2.7,0.8-3.9c-0.7,2.6-0.1,5.1,1.1,7c1.2,1.8,3.1,3.1,5.1,3.6
								c2,0.5,4.2,0.4,6.3-0.3C45.7,133.4,47.3,131.9,48.4,129.9z"/>
						</g>
					</g>
					<g>
						<g>
							<path class="st7" d="M24.1,158.2c0.1-1.5,0.3-3.1,0.5-4.6l0.6-4.6c0.5-3.1,0.9-6.1,1.6-9.2l17.9,3.7c-0.6,2.6-1,5.4-1.4,8.1
								l-0.5,4.1c-0.2,1.4-0.3,2.7-0.4,4.1L24.1,158.2z"/>
						</g>
						<g>
							<path class="st6" d="M44.3,145.5c-0.1,1.1-0.4,2.3-1,3.3c-0.6,1-1.5,1.9-2.5,2.6c-2,1.4-4.5,2-6.9,1.7
								c-2.4-0.3-4.7-1.5-6.2-3.5c-0.8-1-1.3-2.2-1.5-3.5c-0.2-1.3-0.2-2.7,0.2-3.9c-0.2,2.6,0.7,5,2.1,6.6c1.5,1.6,3.5,2.6,5.6,2.9
								c2.1,0.3,4.2-0.1,6.1-1.1C42.1,149.4,43.5,147.7,44.3,145.5z"/>
						</g>
					</g>
					<g>
						<path class="st7" d="M24.1,158.2c-0.2,2.5,3.7,4.8,8.7,5.1c5,0.3,9.3-1.2,9.5-3.4L24.1,158.2z"/>
					</g>
				</g>
			</g>
		</g>
	</g>
	<g>
		<defs>
			<path id="SVGID_00000041277158408765391160000014309177498256399250_" d="M35.8,204.1c11-3.1,22.2,4.2,28.9,18.9
				c2.8,6.1,3.7,12.8,3.7,19.5c0,6.7-0.7,13,1.9,19.5c3.2,8.2,14.4,11.3,14.4,11.3s7.2,8.3-1.3,14.6c-10.2,7.5-28,1.2-37.6-4.4
				c-11.3-6.6-17.4-19.4-20.2-31.7c-2.7-11.4-3.9-25.8-0.2-37.1C27,209.5,30.4,205.7,35.8,204.1z"/>
		</defs>
		<clipPath id="SVGID_00000001662739394927501680000004120498730880081075_">
			<use xlink:href="#SVGID_00000041277158408765391160000014309177498256399250_"  style="overflow:visible;"/>
		</clipPath>
		
			<rect x="18.7" y="200.4" transform="matrix(-1 -4.482427e-11 4.482427e-11 -1 118.2868 493.034)" style="clip-path:url(#SVGID_00000001662739394927501680000004120498730880081075_);fill:#D04248;" width="81" height="92.2"/>
		<path style="clip-path:url(#SVGID_00000001662739394927501680000004120498730880081075_);fill:#BC353F;" d="M92.7,278.4
			c0,0-6.6-9.3-16.8-10.3c-10.3-1-29.2,3.5-39.4-6.2c-11-10.5-17.9-18.9-15.9-10.2c2.7,11.9-5.1,35.4-5.1,35.4l18.5,13.2l49.1-1
			L92.7,278.4z"/>
		<path style="clip-path:url(#SVGID_00000001662739394927501680000004120498730880081075_);fill:#BC353F;" d="M34.3,207
			c0,0-3.7,27.3-1.9,35.2c1.1,5,2.2,11.4-6.9,9.5c-5.3-1.1,25.2,22.7,30.5,22.5C70.1,273.8,34.3,207,34.3,207z"/>
		<path style="clip-path:url(#SVGID_00000001662739394927501680000004120498730880081075_);fill:#752832;" d="M30.1,210.1
			c0,0,2.7,40.3,25.7,54.9c14,8.9,33.6,19,33.6,19L84,235.8C84,235.8,36.9,191.6,30.1,210.1z"/>
	</g>
	<path class="st11" d="M72,68.7c0,0,3.3-3.2,10-6.1c16.9-7.4,47.9-15,50.8-0.6c4,20.1-37.2,32.7-48.4,29.4
		C73,88.1,68.6,78.1,72,68.7z"/>
	<g>
		<defs>
			<path id="SVGID_00000018225567822653565090000002968415691364117937_" d="M183.5,185.4L183.5,185.4l-0.3-0.8
				c-0.4-1-0.8-2.1-1.3-3.1L132.7,62C117,69.3,98.1,79.9,86.3,80.2C73.2,80.5,72,68.7,72,68.7L30.9,184.3c-1.8,4.7-2.8,9.5-2.8,14.5
				c0,43.6,35.3,78.9,78.9,78.9c43.6,0,78.9-35.3,78.9-78.9C185.9,194.2,185.1,189.7,183.5,185.4z"/>
		</defs>
		<clipPath id="SVGID_00000011001760770659477060000008079345633701847964_">
			<use xlink:href="#SVGID_00000018225567822653565090000002968415691364117937_"  style="overflow:visible;"/>
		</clipPath>
		<polygon style="clip-path:url(#SVGID_00000011001760770659477060000008079345633701847964_);fill:#D04248;" points="63.4,58.8 
			13.5,204.5 41.8,269.5 113.9,293.9 186,257.6 194,189.4 127.6,38.6 		"/>
		<path style="clip-path:url(#SVGID_00000011001760770659477060000008079345633701847964_);fill:#BC353F;" d="M25.5,187
			c0,0,6.3,17.3,32.5,23.2s64,11.3,110.5-7.3s47.8-40.8,47.8-40.8l-27.2,81.6l-48.8,39.2l-49.4,3.3l-43.8-10.9l-24.9-49.1L25.5,187z
			"/>
		<path style="clip-path:url(#SVGID_00000011001760770659477060000008079345633701847964_);fill:#752832;" d="M48.1,234.5
			c0,0,22.9-3.3,42.5,10.9c0,0,5.2,25.7,19.5,32.3c14.9,6.9,22.3,6.8,22.3,6.8l-60.7-9.6C71.7,274.9,52.1,260.7,48.1,234.5z"/>
	</g>
	<g>
		<g>
			<g>
				<defs>
					<path id="SVGID_00000029737035979457424760000009890317830532333988_" d="M72,8.9C72,8.9,72,8.9,72,8.9c0,0-9.7-4.7-19.3-4.6
						c-8.9-0.1-16.1,9.2-16.6,22.2c-0.6,14.3,7,27.7,17,29.9c1.8,0.4,3.6,0.4,5.3,0l0,0c0,0,0.2-0.1,0.6-0.2c0.2,0,0.3-0.1,0.5-0.1
						c1.6-0.4,4.8-1.4,8.5-2.9c3-1.2,6-3,8.5-4.9c0,0,0,0,0,0c4.2-3,7.1-8.8,7.5-15.9C84.6,22,79.3,12.2,72,8.9z"/>
				</defs>
				<clipPath id="SVGID_00000109710227069054529470000016454609155877780622_">
					<use xlink:href="#SVGID_00000029737035979457424760000009890317830532333988_"  style="overflow:visible;"/>
				</clipPath>
				
					<rect x="34.5" y="-1.1" style="clip-path:url(#SVGID_00000109710227069054529470000016454609155877780622_);fill:#FFDE17;" width="50.7" height="63.3"/>
				<path style="clip-path:url(#SVGID_00000109710227069054529470000016454609155877780622_);fill:#D8B405;" d="M85.9,19.5
					c0,0-27.9,3.7-38.1,4c-13.7,0.4-21.2-9.7-21.2-9.7L46,66.6l37.4-12.1L85.9,19.5z"/>
				<path style="clip-path:url(#SVGID_00000109710227069054529470000016454609155877780622_);fill:#D8B405;" d="M68.2,7.6
					c0,0-9,2.2-13.5,14.3c-2.8,7.5-0.9,19,0.9,22.9c1.8,3.9-8.3-1.5-5.8-13.1S59.2,10.3,68.2,7.6z"/>
			</g>
			
				<ellipse transform="matrix(0.9906 -0.1367 0.1367 0.9906 -3.3598 9.6783)" class="st3" cx="68.8" cy="29.3" rx="15.3" ry="21.4"/>
		</g>
		<g>
			<defs>
				<path id="SVGID_00000003099176416065270380000008113054113625618843_" d="M159,36.4c0,22.7-38,35.2-69.1,35.2
					c-16.3,0-43.6-12.5-43.6-35.2S71.6,0,102.7,0S159,13.7,159,36.4z"/>
			</defs>
			<clipPath id="SVGID_00000046305726266056026140000008481204806362259130_">
				<use xlink:href="#SVGID_00000003099176416065270380000008113054113625618843_"  style="overflow:visible;"/>
			</clipPath>
			<polygon style="clip-path:url(#SVGID_00000046305726266056026140000008481204806362259130_);fill:#C5E6F9;" points="99.5,-7.4 
				42.5,13.8 42.7,57.8 90.2,77.1 156.6,63.4 159.5,11.4 			"/>
			<path style="clip-path:url(#SVGID_00000046305726266056026140000008481204806362259130_);fill:#D8B405;" d="M80.4,19.8
				c19.6,1.3,43.6,9.2,67,23.4c27.9-5.1,0-34.6,0-34.6S106.9-9,84.2-6.4c-8.5,1-55.8,30.9-52.2,38C46.1,22.8,56.9,18.2,80.4,19.8z"
				/>
			<path style="clip-path:url(#SVGID_00000046305726266056026140000008481204806362259130_);fill:#FFDE17;" d="M80.7,18.6
				c19.6,1.3,43.6,9.2,67,23.4c27.9-5.1,0-34.6,0-34.6S107.3-10.2,84.5-7.5c-8.5,1-55.8,30.9-52.2,38C46.4,21.7,57.2,17,80.7,18.6z"
				/>
			
				<ellipse style="clip-path:url(#SVGID_00000046305726266056026140000008481204806362259130_);fill:#324F6B;" cx="92.5" cy="44.2" rx="5.1" ry="7.9"/>
			
				<ellipse style="clip-path:url(#SVGID_00000046305726266056026140000008481204806362259130_);fill:#324F6B;" cx="61.9" cy="39.1" rx="3.8" ry="7.5"/>
			<path style="clip-path:url(#SVGID_00000046305726266056026140000008481204806362259130_);fill:#AADEF7;" d="M48,51.4
				c0,0,8.8,12.4,29.6,15c20.8,2.7,43.8-5.3,53.1-12.4s33.6,6.2,33.6,6.2l-69.9,19L46.2,67.8L48,51.4z"/>
			<polygon style="clip-path:url(#SVGID_00000046305726266056026140000008481204806362259130_);fill:#324F6B;" points="67.1,54.3 
				73.6,56.2 82.7,56.3 82.7,58.3 73.2,58.5 67.1,56.1 			"/>
		</g>
		<g>
			<g>
				<defs>
					<path id="SVGID_00000135673522867049681560000007444794085710704264_" d="M159.1,34.8c-0.1-2.8-0.7-5.4-1.5-7.7l1.6-14
						c-9.7-0.2-19.6,4.6-19.6,4.6s0,0,0,0c-7.3,3.3-12.5,13.1-12.1,23.5c0.3,7.2,3.2,12.9,7.5,15.9c0,0,0,0,0,0
						c2.5,1.8,5.5,3.6,8.5,4.9c5.4,2.2,9.6,3.2,9.6,3.2l1.6-14C157.6,46.8,159.3,40.9,159.1,34.8z"/>
				</defs>
				<clipPath id="SVGID_00000088833746118361621900000012276688784352732335_">
					<use xlink:href="#SVGID_00000135673522867049681560000007444794085710704264_"  style="overflow:visible;"/>
				</clipPath>
				
					<rect x="126" y="11.4" style="clip-path:url(#SVGID_00000088833746118361621900000012276688784352732335_);fill:#FFDE17;" width="33.3" height="55.6"/>
				<path style="clip-path:url(#SVGID_00000088833746118361621900000012276688784352732335_);fill:#D8B405;" d="M125.7,28.3
					c0,0,7.1,7.4,17.3,7.4c4.6,0,16.4,32.1,16.4,32.1l-31.2-4.4L125.7,28.3z"/>
				<path style="clip-path:url(#SVGID_00000088833746118361621900000012276688784352732335_);fill:#D8B405;" d="M143.7,15.4
					c0,0-9,2.2-13.5,14.3c-2.8,7.5-0.9,19,0.9,22.9s-8.3-1.5-5.8-13.1C127.8,28,134.6,18,143.7,15.4z"/>
			</g>
			<g>
				<defs>
					
						<ellipse id="SVGID_00000157288662699038524710000000396674000750552476_" transform="matrix(0.1201 -0.9928 0.9928 0.1201 99.3664 190.8268)" cx="157.3" cy="39.4" rx="26.3" ry="18"/>
				</defs>
				<use xlink:href="#SVGID_00000157288662699038524710000000396674000750552476_"  style="overflow:visible;fill:#B98C02;"/>
				<clipPath id="SVGID_00000019655554198668917840000013779580112149540014_">
					<use xlink:href="#SVGID_00000157288662699038524710000000396674000750552476_"  style="overflow:visible;"/>
				</clipPath>
				<polygon style="clip-path:url(#SVGID_00000019655554198668917840000013779580112149540014_);fill:#752832;" points="152.8,18 
					139.5,21.9 135.1,52.3 147.1,59.5 				"/>
				
					<ellipse transform="matrix(0.1201 -0.9928 0.9928 0.1201 96.2035 187.2583)" style="clip-path:url(#SVGID_00000019655554198668917840000013779580112149540014_);fill:#BC353F;" cx="153.7" cy="39.4" rx="21.7" ry="14.9"/>
				
					<ellipse transform="matrix(0.1201 -0.9928 0.9928 0.1201 99.3664 190.8268)" style="clip-path:url(#SVGID_00000019655554198668917840000013779580112149540014_);fill:none;stroke:#D8B405;stroke-width:0.9815;stroke-miterlimit:10;" cx="157.3" cy="39.4" rx="25.8" ry="17.7"/>
			</g>
		</g>
	</g>
	<path class="st7" d="M152.3,99.1c2.4,9.7-3.7,20.6-11,22.4c-7.3,1.8-15.1-4.6-17.5-14.3c-2.4-9.7,1.6-19,8.9-20.8
		C140,84.6,149.9,89.4,152.3,99.1z"/>
	<g>
		<defs>
			<path id="SVGID_00000067933974687594588950000003281758383735137722_" d="M174.4,306.7l-5.9-58.4c0,0-10,13.5-27.4,21.8
				c-8.9,4.2-21.1,7.3-32.2,7.2c-14.3-6.6-18.3-31.9-18.3-31.9c-19.6-14.3-42.5-10.9-42.5-10.9c-14.3,24.6-12.8,40.8-12.8,40.8
				l5.9,50.1l30.5,32.2l38.8,8l35.5-8l21.9-22.6L174.4,306.7z"/>
		</defs>
		<clipPath id="SVGID_00000139264275475831120120000013829840579041053824_">
			<use xlink:href="#SVGID_00000067933974687594588950000003281758383735137722_"  style="overflow:visible;"/>
		</clipPath>
		<g style="clip-path:url(#SVGID_00000139264275475831120120000013829840579041053824_);">
			<ellipse class="st28" cx="104.7" cy="290.2" rx="60.3" ry="66.1"/>
			<ellipse class="st4" cx="121.1" cy="290.2" rx="39.8" ry="54.7"/>
		</g>
	</g>
	<path class="st11" d="M168.2,212.7c0,0,10.3,1.5,13.8,12.6c2.5,7.9-39.5,31.7-39.2,36.3c-4.1-4.4-4.1-8.8-4-15.1
		C139,239.6,146.4,211.4,168.2,212.7z"/>
	<g>
		<defs>
			<path id="SVGID_00000164509119767841214110000017555416295810080188_" d="M172.3,214.3c-11-3.1-22.2,4.2-28.9,18.9
				c-2.8,6.1-3.7,12.8-3.7,19.5c0,6.7,0.7,13-1.9,19.5c-3.2,8.2-14.4,11.3-14.4,11.3s-7.2,8.3,1.3,14.6c10.2,7.5,28,1.2,37.6-4.4
				c11.3-6.6,17.4-19.4,20.2-31.7c2.7-11.4,3.9-25.8,0.2-37.1C181.2,219.7,177.7,215.8,172.3,214.3z"/>
		</defs>
		<clipPath id="SVGID_00000058552383387925224000000018388330458665865141_">
			<use xlink:href="#SVGID_00000164509119767841214110000017555416295810080188_"  style="overflow:visible;"/>
		</clipPath>
		
			<rect x="108.5" y="210.6" style="clip-path:url(#SVGID_00000058552383387925224000000018388330458665865141_);fill:#D04248;" width="81" height="92.2"/>
		<path style="clip-path:url(#SVGID_00000058552383387925224000000018388330458665865141_);fill:#BC353F;" d="M115.5,288.6
			c0,0,13.4,2,23.6,1c10.3-1,25.5-3.3,33.5-16.3s13.7,0.2,11.7,9c-2.7,11.9,8.4,15,8.4,15l-18.5,13.2l-49.1-1L115.5,288.6z"/>
	</g>
	<g>
		<defs>
			<rect id="SVGID_00000055689361789105397250000008070710126317262218_" y="185.4" width="214.3" height="43.8"/>
		</defs>
		<clipPath id="SVGID_00000009557131078698747870000002992335743044919989_">
			<use xlink:href="#SVGID_00000055689361789105397250000008070710126317262218_"  style="overflow:visible;"/>
		</clipPath>
		<path style="clip-path:url(#SVGID_00000009557131078698747870000002992335743044919989_);fill:#324F6B;" d="M213.5,192.9
			c0-1.7-0.5-3.5-1.3-5.1l-15.3-0.4c-4.6,2.6-8.8,6-13.6,8.3c-1.8,4.7-8,9-17.3,12.5c0,0,0,0,0,0c-0.8,0.3-1.6,0.6-2.4,0.8
			c0,0-0.1,0-0.1,0c-0.8,0.3-1.6,0.5-2.4,0.8c-0.1,0-0.1,0-0.2,0.1c-0.8,0.2-1.6,0.5-2.4,0.7c-0.1,0-0.2,0.1-0.3,0.1
			c-0.8,0.2-1.6,0.4-2.4,0.7c-0.1,0-0.3,0.1-0.4,0.1c-0.8,0.2-1.6,0.4-2.4,0.6c-0.2,0-0.4,0.1-0.6,0.1c-0.8,0.2-1.6,0.4-2.4,0.5
			c-0.2,0-0.5,0.1-0.7,0.1c-0.8,0.2-1.6,0.3-2.4,0.5c-0.3,0.1-0.6,0.1-0.8,0.2c-0.8,0.1-1.6,0.3-2.3,0.4c-0.3,0.1-0.7,0.1-1,0.2
			c-0.8,0.1-1.5,0.2-2.3,0.4c-0.4,0.1-0.8,0.1-1.1,0.2c-0.7,0.1-1.5,0.2-2.2,0.3c-0.4,0.1-0.9,0.1-1.3,0.2c-0.7,0.1-1.4,0.2-2.2,0.3
			c-0.5,0.1-1,0.1-1.5,0.2c-0.7,0.1-1.4,0.1-2.1,0.2c-0.5,0.1-1.1,0.1-1.6,0.1c-0.7,0.1-1.3,0.1-2,0.2c-0.6,0-1.2,0.1-1.8,0.1
			c-0.6,0-1.3,0.1-1.9,0.1c-0.7,0-1.3,0.1-2,0.1c-0.6,0-1.2,0.1-1.8,0.1c-0.7,0-1.5,0.1-2.2,0.1c-0.5,0-1.1,0-1.6,0.1
			c-0.9,0-1.7,0-2.6,0.1c-0.4,0-0.8,0-1.3,0c-1.3,0-2.6,0-3.9,0s-2.6,0-3.9,0c-0.4,0-0.8,0-1.2,0c-0.9,0-1.8,0-2.6-0.1
			c-0.5,0-1,0-1.6-0.1c-0.8,0-1.5-0.1-2.3-0.1c-0.6,0-1.2-0.1-1.7-0.1c-0.7,0-1.3-0.1-2-0.1c-0.6,0-1.3-0.1-1.9-0.1
			c-0.6,0-1.2-0.1-1.8-0.1c-0.7-0.1-1.3-0.1-2-0.2c-0.6,0-1.1-0.1-1.7-0.1c-0.7-0.1-1.4-0.1-2-0.2c-0.5-0.1-1-0.1-1.5-0.2
			c-0.7-0.1-1.4-0.2-2.1-0.3c-0.4-0.1-0.9-0.1-1.3-0.2c-0.7-0.1-1.5-0.2-2.2-0.3c-0.4-0.1-0.8-0.1-1.2-0.2c-0.8-0.1-1.5-0.2-2.3-0.4
			c-0.3-0.1-0.7-0.1-1-0.2c-0.8-0.1-1.6-0.3-2.3-0.4c-0.3-0.1-0.6-0.1-0.9-0.2c-0.8-0.2-1.6-0.3-2.4-0.5c-0.2,0-0.5-0.1-0.7-0.1
			c-0.8-0.2-1.6-0.3-2.4-0.5c-0.2,0-0.4-0.1-0.6-0.1c-0.8-0.2-1.6-0.4-2.4-0.6c-0.1,0-0.3-0.1-0.5-0.1c-0.8-0.2-1.6-0.4-2.4-0.6
			c-0.1,0-0.2-0.1-0.3-0.1c-0.8-0.2-1.6-0.5-2.4-0.7c-0.1,0-0.2,0-0.2-0.1c-0.8-0.3-1.6-0.5-2.4-0.8c0,0-0.1,0-0.1,0
			c-0.8-0.3-1.6-0.5-2.3-0.8c0,0,0,0-0.1,0c-10.9-4.1-17.6-9.3-17.8-15c0,0,0,0,0,0c0-0.1,0-0.2,0-0.3c-4.1-2.1-8.1-4.4-12.4-6.2
			c-0.2,0.2-0.3,0.4-0.5,0.7l-1.5,0l-14,0.4c-0.9,1.7-1.3,3.4-1.3,5.1l0,0v0l15.1,1.3c0.2,1.2,0.6,2.4,1.2,3.5l-0.3,0l-13.7,2.1
			c0,0,0,0.1,0.1,0.1c1.2,1.7,2.7,3.3,4.7,4.9l15.6-0.5c1.5,1.1,3.2,2.1,5.1,3.1l-0.6,0.2v0l-9.9,3.3c0.1,0,0.2,0.1,0.3,0.1
			c3,1.4,6.4,2.8,10,4l14-2.2c2.5,0.8,5.2,1.5,8,2.2l-3.9,3.1l-1.8,1.4c0,0,0.1,0,0.2,0c4.5,1,9.3,1.9,14.4,2.7l10.5-3.6
			c3.2,0.4,6.5,0.8,9.9,1.2l0,0.6c0,0,0,0,0,0l-0.1,4.3c0,0,0,0,0,0c5.4,0.5,11.1,0.8,16.8,1l5.6-4.5c1.7,0,3.5,0,5.3,0
			c1.8,0,3.5,0,5.3,0l5.6,4.5c5.8-0.2,11.4-0.5,16.8-1c0,0,0,0,0,0c0,0,0,0,0,0l0-0.8l-0.1-3.5c0,0,0,0,0,0l0-0.6
			c3.4-0.3,6.7-0.7,9.9-1.2l10.5,3.6c5.1-0.8,10-1.7,14.5-2.8l-5.7-4.5c2.8-0.7,5.5-1.4,8-2.2l14,2.2c3.8-1.3,7.2-2.7,10.3-4.2
			l-10.6-3.6c1.9-1,3.6-2,5.1-3.1l15.6,0.5c1.8-1.4,3.3-2.9,4.4-4.5c0.1-0.1,0.1-0.1,0.2-0.2c0.1-0.1,0.1-0.2,0.2-0.3l-14-2.1
			c0.6-1.1,1-2.3,1.2-3.5L213.5,192.9L213.5,192.9L213.5,192.9z"/>
		<path style="clip-path:url(#SVGID_00000009557131078698747870000002992335743044919989_);fill:none;" d="M8.7,181l12,2.8
			c-0.2,0.2-0.3,0.3-0.5,0.5v0c0,0,0,0,0,0c-0.2,0.2-0.5,0.5-0.7,0.7c0,0,0,0-0.1,0.1c3.9,1.7,7.6,3.7,11.4,5.7
			c3.4-12.2,36.3-21.7,76.4-21.7c42.3,0,76.7,10.7,76.7,23.8c0,0.1,0,0.2,0,0.3c4-2.2,7.7-5,11.7-7.3c0,0,0,0,0,0
			c-0.2-0.2-0.4-0.4-0.6-0.7c0,0,0,0-0.1-0.1c-0.2-0.2-0.5-0.5-0.7-0.7c0,0,0,0,0,0c-0.2-0.2-0.3-0.3-0.5-0.5l12-2.8c0,0,0,0,0,0
			l0.5-0.1l0,0c-2-1.6-4.4-3.1-7.2-4.6l-15,1.4c0,0-0.1,0-0.1,0c-0.5-0.2-1-0.5-1.5-0.7c-0.4-0.2-0.8-0.4-1.3-0.5
			c-0.1,0-0.2-0.1-0.3-0.1c-1.3-0.5-2.6-1.1-4-1.6l8.3-4.1c-3.7-1.2-7.7-2.4-11.9-3.4l-12.4,2.9c-0.1,0-0.2,0-0.3-0.1
			c-0.7-0.2-1.4-0.3-2.1-0.5c-2.6-0.5-5.2-1-8-1.5l3-4.8c-4.8-0.7-9.9-1.3-15.1-1.8l-8.1,4.1c-4-0.3-8.1-0.6-12.2-0.7l-2.8-4.8
			c-2.7-0.1-5.4-0.1-8.1-0.1c-1.3,0-2.6,0-3.9,0c-0.2,0-0.4,0-0.6,0c-1.2,0-2.4,0-3.6,0.1l-2.8,4.8c-4.2,0.2-8.2,0.4-12.2,0.7
			l-8.1-4.1c-1.6,0.2-3.3,0.3-4.9,0.5c-2,0.2-4,0.5-5.9,0.7c-1.4,0.2-2.9,0.4-4.3,0.6l0.3,0.5l2.6,4.3c-1.9,0.3-3.7,0.6-5.5,1
			c0,0-0.1,0-0.1,0c-0.8,0.2-1.6,0.3-2.4,0.5c-0.8,0.2-1.6,0.4-2.5,0.5l-12.4-2.9c-4.3,1.1-8.3,2.2-11.9,3.4l0.7,0.3l0,0l7.6,3.8
			c-0.2,0.1-0.4,0.2-0.6,0.2v0c0,0,0,0,0,0c-0.6,0.2-1.2,0.4-1.7,0.7c0,0,0,0,0,0c-0.5,0.2-1.1,0.4-1.6,0.7
			c-0.1,0.1-0.3,0.1-0.4,0.2c-0.4,0.2-0.8,0.3-1.2,0.5c-0.5,0.2-1.1,0.5-1.6,0.7l-15-1.4c-2.8,1.5-5.2,3-7.2,4.6L8.7,181
			C8.7,181,8.7,181,8.7,181z"/>
		<polygon style="clip-path:url(#SVGID_00000009557131078698747870000002992335743044919989_);fill:#324F6B;" points="8.1,174.2 
			8.1,180.9 20.7,183.8 0.8,186.2 0.8,192.9 19.3,191.2 3.2,193.3 3.2,199.8 7.9,204.8 18.8,201.5 18,204.3 18,210.9 28.4,215.1 
			42.4,212.9 44.7,213 44.8,219.7 59.2,222.4 69.7,218.8 79.6,220 81.9,210.8 59.9,208.7 37,201.5 28.9,190.6 27.5,179.1 
			23.6,174.8 		"/>
		<path style="clip-path:url(#SVGID_00000009557131078698747870000002992335743044919989_);fill:#324F6B;" d="M96.3,225.8l3.4-5.3
			l12.1-0.9l22.9,5.3v-6.6l6.1-1.4l13.4,3l15.4-0.1V213l4.9-2.8l21.8,0.8v-6.6l7.7-2.2l7.2-2.3v-6.6l-0.2-1.6l2.5,1.3v-6.6l-6.7-2.5
			l-0.6-2.8v-6.6l-13.5-1.3l-4.5,9c0,0-0.2,10.2-8.3,15.2s-26,12.4-40.2,12.9s-43.3,2.7-43.3,2.7L96.3,225.8z"/>
		<path style="clip-path:url(#SVGID_00000009557131078698747870000002992335743044919989_);fill:#8A96AB;" d="M213.5,186.2
			c0-1.7-0.5-3.5-1.3-5.1l-15.5-0.4c0,0,0,0,0,0c-0.2-0.3-0.4-0.5-0.6-0.8c-0.1-0.2-0.3-0.4-0.4-0.5c-0.1-0.1-0.1-0.2-0.2-0.3
			c-0.2-0.2-0.4-0.4-0.6-0.7c0,0,0,0-0.1-0.1c-0.2-0.2-0.5-0.5-0.7-0.7c0,0,0,0,0,0v0c-0.2-0.2-0.3-0.3-0.5-0.5l12-2.8c0,0,0,0,0,0
			l0.5-0.1l0,0c-2-1.6-4.4-3.1-7.2-4.6l-15,1.4c0,0-0.1,0-0.1,0c-0.5-0.2-1-0.5-1.5-0.7c-0.4-0.2-0.8-0.4-1.3-0.5
			c-0.1,0-0.2-0.1-0.3-0.1c-1.3-0.5-2.6-1.1-4-1.6l8.3-4.1c-3.7-1.2-7.7-2.4-11.9-3.4l0,0l0,0l-12.4,2.9c-0.1,0-0.2,0-0.3-0.1
			c-0.7-0.2-1.4-0.3-2.1-0.5c-2.6-0.5-5.2-1-7.9-1.5l3-4.8c-4.8-0.7-9.9-1.3-15.1-1.8l0,0l0,0l-8.1,4.1c-4-0.3-8.1-0.6-12.2-0.7
			l-2.8-4.8c-2.7-0.1-5.4-0.1-8.1-0.1c-1.3,0-2.6,0-3.9,0c-0.2,0-0.4,0-0.6,0c-1.2,0-2.4,0-3.6,0.1l0,0l0,0l-2.8,4.8
			c-4.2,0.2-8.2,0.4-12.2,0.7l-8.1-4.1c-1.6,0.2-3.3,0.3-4.9,0.5c-2,0.2-4,0.5-5.9,0.7c-1.4,0.2-2.9,0.4-4.3,0.6l0,0l0,0l0.3,0.5v0
			l2.6,4.3c-1.9,0.3-3.7,0.6-5.5,1c0,0-0.1,0-0.1,0c-0.8,0.2-1.6,0.3-2.4,0.5c-0.8,0.2-1.6,0.4-2.5,0.5l-12.4-2.9v0v0
			c-4.3,1.1-8.3,2.2-11.9,3.4l0.7,0.3c0,0,0,0,0,0l7.6,3.8c-0.2,0.1-0.4,0.2-0.6,0.2v0c0,0,0,0,0,0c-0.6,0.2-1.2,0.4-1.7,0.7
			c0,0,0,0,0,0c-0.5,0.2-1.1,0.4-1.6,0.7c-0.1,0.1-0.3,0.1-0.4,0.2c-0.4,0.2-0.8,0.3-1.2,0.5c-0.5,0.2-1.1,0.5-1.6,0.7l-15-1.4l0,0
			l0,0c-2.8,1.5-5.2,3-7.2,4.6l0.6,0.1c0,0,0,0,0,0l12,2.8c-0.2,0.2-0.3,0.3-0.5,0.5v0c0,0,0,0,0,0c-0.2,0.2-0.5,0.5-0.7,0.7
			c0,0,0,0.1-0.1,0.1c-0.2,0.2-0.4,0.4-0.6,0.7c-0.1,0.1-0.1,0.2-0.2,0.3c-0.1,0.2-0.3,0.3-0.4,0.5c-0.2,0.3-0.4,0.5-0.6,0.8l-1.5,0
			l-14,0.4l0,0l0,0c-0.9,1.7-1.3,3.4-1.3,5.1l0,0c0,0,0,0,0,0l15.1,1.3c0.2,1.2,0.6,2.4,1.2,3.5l-0.3,0l0,0l-13.7,2.1
			c0,0,0,0.1,0.1,0.1c1.2,1.7,2.7,3.3,4.7,4.9l15.6-0.5c1.5,1.1,3.2,2.1,5.1,3.1L28,201v0l-9.9,3.3c0.1,0,0.2,0.1,0.3,0.1
			c3,1.4,6.4,2.8,10,4l14-2.2c2.5,0.8,5.2,1.5,8,2.2l-3.9,3.1l-1.8,1.4c0,0,0.1,0,0.2,0c4.5,1,9.3,1.9,14.4,2.7l10.5-3.6
			c3.2,0.4,6.5,0.8,9.9,1.2l0,0.6c0,0,0,0,0,0l-0.1,4.3c0,0,0,0,0,0v0c5.4,0.5,11.1,0.8,16.8,1l5.6-4.5c1.7,0,3.5,0,5.3,0
			c1.8,0,3.5,0,5.3,0l5.6,4.5c5.8-0.2,11.4-0.5,16.8-1v0c0,0,0,0,0,0c0,0,0,0,0,0l0-0.8l-0.1-3.5c0,0,0,0,0,0l0-0.6
			c3.4-0.3,6.7-0.7,9.9-1.2l10.5,3.6c5.1-0.8,10-1.7,14.5-2.8l-5.7-4.5c2.8-0.7,5.5-1.4,8-2.2l14,2.2c3.8-1.3,7.2-2.7,10.3-4.2
			l-10.6-3.6c1.9-1,3.6-2,5.1-3.1l15.6,0.5c1.8-1.4,3.3-2.9,4.4-4.5l0,0c0.1-0.1,0.1-0.1,0.2-0.2c0.1-0.1,0.1-0.2,0.2-0.3l-14-2.1
			c0.6-1.1,1-2.3,1.2-3.5L213.5,186.2C213.5,186.2,213.5,186.2,213.5,186.2L213.5,186.2L213.5,186.2L213.5,186.2z M183.8,186.5
			C183.8,186.5,183.8,186.5,183.8,186.5c-0.2,5.7-6.9,10.9-17.8,15c0,0,0,0,0,0c-0.8,0.3-1.6,0.6-2.4,0.8c0,0-0.1,0-0.1,0
			c-0.8,0.3-1.6,0.5-2.4,0.8c-0.1,0-0.1,0-0.2,0.1c-0.8,0.2-1.6,0.5-2.4,0.7c-0.1,0-0.2,0.1-0.3,0.1c-0.8,0.2-1.6,0.4-2.4,0.7
			c-0.1,0-0.3,0.1-0.4,0.1c-0.8,0.2-1.6,0.4-2.4,0.6c-0.2,0-0.4,0.1-0.6,0.1c-0.8,0.2-1.6,0.4-2.4,0.5c-0.2,0-0.5,0.1-0.7,0.1
			c-0.8,0.2-1.6,0.3-2.4,0.5c-0.3,0.1-0.6,0.1-0.8,0.2c-0.8,0.1-1.6,0.3-2.3,0.4c-0.3,0.1-0.7,0.1-1,0.2c-0.8,0.1-1.5,0.2-2.3,0.4
			c-0.4,0.1-0.8,0.1-1.1,0.2c-0.7,0.1-1.5,0.2-2.2,0.3c-0.4,0.1-0.9,0.1-1.3,0.2c-0.7,0.1-1.4,0.2-2.2,0.3c-0.5,0.1-1,0.1-1.5,0.2
			c-0.7,0.1-1.4,0.1-2.1,0.2c-0.5,0.1-1.1,0.1-1.6,0.1c-0.7,0.1-1.3,0.1-2,0.2c-0.6,0-1.2,0.1-1.8,0.1c-0.6,0-1.3,0.1-1.9,0.1
			c-0.7,0-1.3,0.1-2,0.1c-0.6,0-1.2,0.1-1.8,0.1c-0.7,0-1.5,0.1-2.2,0.1c-0.5,0-1.1,0-1.6,0.1c-0.9,0-1.7,0-2.6,0.1
			c-0.4,0-0.8,0-1.3,0c-1.3,0-2.6,0-3.9,0c-1.3,0-2.6,0-3.9,0c-0.4,0-0.8,0-1.2,0c-0.9,0-1.8,0-2.6-0.1c-0.5,0-1,0-1.6-0.1
			c-0.8,0-1.5-0.1-2.3-0.1c-0.6,0-1.2-0.1-1.7-0.1c-0.7,0-1.3-0.1-2-0.1c-0.6,0-1.3-0.1-1.9-0.1c-0.6,0-1.2-0.1-1.8-0.1
			c-0.7-0.1-1.3-0.1-2-0.2c-0.6,0-1.1-0.1-1.7-0.1c-0.7-0.1-1.4-0.1-2-0.2c-0.5-0.1-1-0.1-1.5-0.2c-0.7-0.1-1.4-0.2-2.1-0.3
			c-0.4-0.1-0.9-0.1-1.3-0.2c-0.7-0.1-1.5-0.2-2.2-0.3c-0.4-0.1-0.8-0.1-1.2-0.2c-0.8-0.1-1.5-0.2-2.3-0.4c-0.3-0.1-0.7-0.1-1-0.2
			c-0.8-0.1-1.6-0.3-2.3-0.4c-0.3-0.1-0.6-0.1-0.9-0.2c-0.8-0.2-1.6-0.3-2.4-0.5c-0.2,0-0.5-0.1-0.7-0.1c-0.8-0.2-1.6-0.3-2.4-0.5
			c-0.2,0-0.4-0.1-0.6-0.1c-0.8-0.2-1.6-0.4-2.4-0.6c-0.1,0-0.3-0.1-0.5-0.1c-0.8-0.2-1.6-0.4-2.4-0.6c-0.1,0-0.2-0.1-0.3-0.1
			c-0.8-0.2-1.6-0.5-2.4-0.7c-0.1,0-0.2,0-0.2-0.1c-0.8-0.3-1.6-0.5-2.4-0.8c0,0-0.1,0-0.1,0c-0.8-0.3-1.6-0.5-2.3-0.8
			c0,0,0,0-0.1,0c-10.9-4.1-17.6-9.3-17.8-15c0,0,0,0,0,0c0-0.1,0-0.2,0-0.3c0-13.1,34.3-23.8,76.7-23.8c42.3,0,76.7,10.7,76.7,23.8
			C183.8,186.3,183.8,186.4,183.8,186.5z"/>
	</g>
	<g>
		<g>
			<g>
				<path class="st2" d="M167.3,197.8c-3.9,2.1-7.8-1.2-8.7-7.3c-1-6.1,1.4-12.8,5.3-14.9l0.6,3.9c-2.5,1.4-4.1,5.7-3.4,9.7
					c0.6,4,3.2,6.2,5.7,4.8L167.3,197.8z"/>
			</g>
			<g>
				<path class="st3" d="M169.2,196.8c3.9-2.1,6.2-8.8,5.3-14.9c-1-6.1-4.9-9.4-8.7-7.3l0.6,3.9c2.5-1.4,5.1,0.8,5.7,4.8
					c0.6,4-0.9,8.4-3.4,9.7L169.2,196.8z"/>
			</g>
			<g>
				
					<ellipse transform="matrix(8.583474e-02 -0.9963 0.9963 8.583474e-02 -24.4472 325.0507)" class="st4" cx="164.9" cy="175.8" rx="5.3" ry="3.2"/>
			</g>
		</g>
		<polygon class="st2" points="168.6,192.9 179.4,194.2 180,198.1 169.2,196.8 		"/>
		<path class="st3" d="M168.6,192.9l3.4-1l1.6-8.1l-1.8-5l8.3-0.3l4,4.7c0,0-0.4,2.8-0.7,7.3c-0.3,3.4-3.9,3.8-3.9,3.8L168.6,192.9z
			"/>
		<polygon class="st2" points="172.6,178.6 161.7,177.3 160.2,181.7 159.9,189 164,195.9 164.7,198.4 175.3,199.7 174.4,198.4 
			171.1,192.8 170.3,186.2 		"/>
		<polygon class="st4" points="165.4,170.6 176.4,172 172.6,178.6 161.7,177.3 		"/>
		<g>
			<g>
				<path class="st5" d="M178.2,199.1c-3.9,2.1-7.8-1.2-8.7-7.3c-1-6.1,1.4-12.8,5.3-14.9l0.6,3.9c-2.5,1.4-4.1,5.7-3.4,9.7
					c0.6,4,3.2,6.2,5.7,4.8L178.2,199.1z"/>
			</g>
			<g>
				<path class="st5" d="M180,198.1c3.9-2.1,6.2-8.8,5.3-14.9c-1-6.1-4.9-9.4-8.7-7.3l0.6,3.9c2.5-1.4,5.1,0.8,5.7,4.8
					c0.6,4-0.9,8.4-3.4,9.7L180,198.1z"/>
			</g>
			<g>
				
					<ellipse transform="matrix(8.583474e-02 -0.9963 0.9963 8.583474e-02 -15.8511 337.1035)" class="st7" cx="175.8" cy="177.2" rx="5.3" ry="3.2"/>
			</g>
		</g>
	</g>
	<g>
		<g>
			<g>
				<g>
					<path class="st7" d="M134,103.6c-0.2-0.1-0.3-0.4-0.3-0.9c0-0.5,0.1-1.1,0.2-2c0.1-0.8,0.2-1.8,0.3-2.9
						c-0.1-1.1-0.1-2.3,0.1-3.6c0.2-1.2,0.4-2.4,0.8-3.5c0.4-1,1.2-1.9,2-2.5c0.8-0.6,1.8-1,2.7-1.2c0.9-0.1,1.8,0,2.7,0.4
						L134,103.6z"/>
				</g>
				<g>
					<g>
						<path class="st7" d="M142.5,113l-1-1.6c-0.3-0.5-0.6-1.1-1-1.5l-1.1-1.4l-0.5-0.7l-0.3-0.3l-0.3-0.3l-1.1-1.1
							c-0.2-0.2-0.4-0.4-0.6-0.6l-0.6-0.4c-0.4-0.3-0.7-0.6-1.1-0.8c-0.3-0.2-0.7-0.4-1-0.6l8.5-16.1c1,0.5,1.8,1.1,2.8,1.7
							c0.9,0.6,1.6,1.2,2.4,1.8l1.2,0.9c0.4,0.3,0.7,0.7,1,1l2,2l0.5,0.5l0.4,0.5l0.8,1l1.6,2.1c0.6,0.7,1,1.4,1.5,2.1l1.4,2.1
							L142.5,113z"/>
					</g>
					<g>
						<path class="st6" d="M145.2,89.1c0.2,0.1,0.4,0.2,0.6,0.3l0.5,0.4c0.3,0.3,0.7,0.5,1,0.8c0.6,0.6,1.2,1.2,1.6,1.9
							c0.8,1.4,1.2,2.8,1.2,4.2c0,2.7-1.4,5-3.2,6.5c-1.9,1.5-4.3,2.3-6.6,2.4c-1.2,0.1-2.2,0.1-3.1-0.3c-0.5-0.1-0.9-0.2-1.2-0.4
							c-0.2-0.1-0.3-0.2-0.5-0.3c-0.1-0.1-0.1-0.1-0.2-0.2c-0.1-0.1-0.1-0.1-0.2-0.2l0.2,0.1c0.1,0,0.2,0.1,0.3,0.1
							c0.2,0.1,0.4,0.1,0.6,0.2c0.4,0.1,0.8,0.1,1.3,0.1c0.9,0.1,1.9,0.1,2.9-0.1c2-0.4,4.1-1.2,5.6-2.6c1.6-1.4,2.8-3.3,2.9-5.6
							c0.1-1.2-0.1-2.4-0.7-3.7c-0.3-0.6-0.7-1.2-1.2-1.9c-0.2-0.3-0.5-0.6-0.8-0.9l-0.4-0.4C145.5,89.4,145.3,89.2,145.2,89.1z"/>
					</g>
				</g>
				<g>
					<g>
						<path class="st7" d="M149.3,127.1c-0.2-0.6-0.5-1.3-0.7-1.9l-0.8-1.8l-1.6-3.7c-0.5-1.2-1.2-2.3-1.8-3.5
							c-0.6-1.1-1.2-2.3-1.9-3.3l15.5-9.7c1,1.4,1.7,2.9,2.5,4.3c0.7,1.4,1.6,2.9,2.2,4.3l1.9,4.4l1,2.2c0.3,0.7,0.5,1.5,0.8,2.2
							L149.3,127.1z"/>
					</g>
					<g>
						<path class="st6" d="M159.3,105.3c0.8,1.1,1.3,2.5,1.6,3.8c0.2,1.4,0.2,2.7-0.3,3.9c-0.9,2.5-2.7,4.3-4.9,5.2
							c-2.2,1-4.8,1.1-7,0.4c-1.1-0.4-2.2-0.9-3.1-1.6c-0.9-0.7-1.5-1.6-1.9-2.7c1.2,1.8,3.2,2.9,5.3,3.2c2,0.4,4.3,0.2,6.2-0.7
							c1.9-0.9,3.6-2.4,4.5-4.4C160.3,110.5,160.3,107.8,159.3,105.3z"/>
					</g>
				</g>
				<g>
					<g>
						<path class="st7" d="M154.4,142.9c-0.7-2.7-1.6-5.3-2.3-8c-0.2-0.7-0.4-1.3-0.6-2l-0.7-1.9l-1.4-3.8l17-6.5l1.6,4.4l0.8,2.2
							c0.2,0.7,0.4,1.5,0.7,2.2c0.9,2.9,1.8,5.9,2.6,8.8L154.4,142.9z"/>
					</g>
					<g>
						<path class="st6" d="M167.1,122.7c0.6,1.2,0.9,2.5,0.9,3.8c0,1.3-0.4,2.6-1,3.7c-1.2,2.3-3.3,3.8-5.6,4.5
							c-2.3,0.7-4.9,0.5-7.1-0.5c-1.1-0.5-2-1.3-2.9-2.2c-0.8-0.9-1.3-2-1.6-3.1c1,2.1,2.9,3.5,4.8,4.2c2,0.7,4.2,0.8,6.2,0.1
							c2-0.6,3.8-1.9,5.1-3.8C167.4,127.7,167.7,125.2,167.1,122.7z"/>
					</g>
				</g>
				<g>
					<g>
						<polygon class="st7" points="158,159.4 157.2,155.2 156.8,153.1 156.3,151.1 154.4,142.9 172,138.2 174.1,147.1 174.6,149.3 
							175.1,151.5 175.9,155.9 						"/>
					</g>
					<g>
						<path class="st6" d="M172.5,140.3c0.4,1.2,0.6,2.5,0.5,3.8c-0.1,1.3-0.6,2.5-1.3,3.6c-1.3,2.1-3.5,3.5-5.9,4
							c-2.3,0.5-4.9,0.1-7-1.1c-1.1-0.6-2-1.5-2.7-2.5c-0.7-1-1.1-2.2-1.2-3.3c0.8,2.2,2.4,3.9,4.4,4.8c2,0.9,4.2,1.1,6.2,0.7
							c2-0.4,4-1.6,5.3-3.3C172.2,145.3,172.8,142.9,172.5,140.3z"/>
					</g>
				</g>
				<g>
					<g>
						<polygon class="st7" points="160.8,176.2 159.5,167.8 159.2,165.6 158.8,163.6 158,159.4 175.9,155.9 176.8,160.4 
							177.2,162.6 177.5,164.8 178.8,173.7 						"/>
					</g>
					<g>
						<path class="st6" d="M176.3,158.1c0.4,1.2,0.5,2.5,0.3,3.8c-0.2,1.3-0.8,2.5-1.5,3.5c-1.5,2-3.8,3.3-6.1,3.7
							c-2.4,0.4-4.9-0.1-6.9-1.5c-1-0.7-1.8-1.6-2.5-2.7c-0.6-1.1-1-2.3-1.1-3.4c0.7,2.3,2.3,4.1,4.2,5.1c1.9,1,4.1,1.4,6.1,1
							c2.1-0.3,4.1-1.4,5.5-3C175.8,162.9,176.5,160.6,176.3,158.1z"/>
					</g>
				</g>
				<g>
					<path class="st7" d="M160.8,176.2c0.3,2.3,4.7,3.6,9.7,3c5-0.6,8.8-3.1,8.4-5.5L160.8,176.2z"/>
				</g>
			</g>
		</g>
	</g>
</g>
</svg>
