<?xml version="1.0" encoding="utf-8"?>
<!-- Generator: Adobe Illustrator 26.5.0, SVG Export Plug-In . SVG Version: 6.00 Build 0)  -->
<svg version="1.1" id="Layer_1" xmlns="http://www.w3.org/2000/svg" xmlns:xlink="http://www.w3.org/1999/xlink" x="0px" y="0px"
	 viewBox="0 0 257.8 427" style="enable-background:new 0 0 257.8 427;" xml:space="preserve">
<style type="text/css">
	.st0{fill:#C9175F;}
	.st1{fill:#FF4280;}
	.st2{fill:#43DCFF;}
	.st3{clip-path:url(#SVGID_00000169521929565344971100000016493823301381113004_);}
	.st4{fill:#FFA400;}
	.st5{fill:none;stroke:#ED6100;stroke-width:2;stroke-miterlimit:10;}
	.st6{clip-path:url(#SVGID_00000121992489733394452590000007715544647477066168_);}
	.st7{clip-path:url(#SVGID_00000046335254078777882130000008623048643266741649_);}
	.st8{fill:none;stroke:#E82169;stroke-width:2;stroke-miterlimit:10;}
	.st9{fill:#9AE0E2;fill-opacity:0.2;stroke:#9AE0E2;stroke-width:3.17;stroke-miterlimit:10;}
	.st10{fill:#00B0FF;}
	.st11{fill:#0049FF;}
	.st12{fill:#E9FCFF;}
	.st13{fill:#FFFFFF;}
	.st14{opacity:0.7;fill:#FFFFFF;enable-background:new    ;}
	.st15{fill:#E82169;}
</style>
<path id="tail" class="st0" d="M154.7,248.2H104c0,0,9.8,97.5,25.4,97.5S154.7,248.2,154.7,248.2z"/>
<path id="r-thigh" class="st1" d="M137,314.7c0,0,5.6,13,14.6,13.4c10.2,0.4,18.4-12.8,18.4-12.8s19.7-35.4,20.3-58
	c1-37.3-5.5-56.3-5.5-56.3s-40.7,24.6-41.1,47.4C143.3,270.6,141.1,292.8,137,314.7z"/>
<g id="r-calf">
	<path class="st1" d="M137,387.5c0,9,35.6-3.6,35.6-3.6c-3-10.4-5.4-20.9-7.3-31.5c-2.4-14.4,4.7-37.2,4.7-37.2l-33-0.5V387.5z"/>
	<path class="st1" d="M151.1,363.3c10.9-0.7,11.6,6.3,21.6,20.6s42.8,27.2,41.5,32.5s-7.6,6-16.3,5.3s-9.3-3.3-13.3-3.6
		c0,9.8-10.4,10.4-19.2,7.3c-10.5-3.6-8.6-9.6-17.6-6.9s2.6,8.7-15.6,7.7c-10-0.5,3.9-13,4.9-46.2
		C137.4,366.3,151.1,363.3,151.1,363.3z"/>
	<path class="st2" d="M133.8,401.4c0,0,8.2-14.4,21.6-17c14.2-2.8,22.7,5.5,22.7,5.5l-3.2-10.5c0,0-6.8-8.1-20-5.4
		c-14.5,3-21,16.8-21,16.8L133.8,401.4z"/>
</g>
<path id="l-thigh" class="st1" d="M120.8,314.7c0,0-5.6,13-14.6,13.4c-10.2,0.4-18.4-12.8-18.4-12.8s-19.7-35.4-20.3-58
	C66.6,219.9,73,201,73,201s40.7,24.6,41.1,47.4C114.6,270.6,116.8,292.8,120.8,314.7z"/>
<g id="l-calf">
	<path class="st1" d="M120.8,387.5c0,9-35.6-3.6-35.6-3.6c3-10.4,5.4-20.9,7.3-31.5c2.3-14.4-4.7-37.2-4.7-37.2l33-0.5L120.8,387.5z
		"/>
	<path class="st1" d="M106.8,363.3c-10.9-0.7-11.6,6.3-21.6,20.6s-42.8,27.2-41.5,32.5s7.6,6,16.3,5.3s9.3-3.3,13.3-3.6
		c0,9.8,10.4,10.4,19.2,7.3c10.5-3.6,8.6-9.6,17.6-6.9s-2.6,8.7,15.6,7.7c10.1-0.5-3.9-13-4.9-46.2
		C120.4,366.3,106.8,363.3,106.8,363.3z"/>
	<path class="st2" d="M124,401.4c0,0-8.2-14.4-21.6-17c-14.2-2.8-22.7,5.5-22.7,5.5l3.2-10.5c0,0,6.8-8.1,20-5.4
		c14.5,3,21,16.8,21,16.8v10.6H124z"/>
</g>
<path id="r-arm" class="st2" d="M197.5,154.7c0,0,18.1,22.8,27.9,35.2c9.7,12.4-2.6,25.2-14.1,20.4s-24.7-15.9-32.4-26.6
	S171.9,140,197.5,154.7z"/>
<g id="r-hand">
	<g>
		<g>
			<defs>
				<path id="SVGID_1_" d="M226.5,188.3c0,0,11,18.6,20.6,23s12.4,9.1,9.8,11.1c-3.5,2.6-10.1-1.3-11.4-0.1c-3,2.6,5.7,8.5-1.5,11.4
					c-3.4,1.4-12.3-10.4-16.9-3.9c-3.9,5.6-7.3,8.8-10.5,4.8c-3.1-3.8,1.7-11.2-6-21.5c-0.3-0.4-6.5-4.3-6.9-4.8
					C192.9,195.5,209.2,182,226.5,188.3z"/>
			</defs>
			<clipPath id="SVGID_00000119112833039845888990000008069842711742085544_">
				<use xlink:href="#SVGID_1_"  style="overflow:visible;"/>
			</clipPath>
			<g style="clip-path:url(#SVGID_00000119112833039845888990000008069842711742085544_);">
				<path class="st4" d="M226.5,188.3c0,0,11,18.6,20.6,23s12.4,9.1,9.8,11.1c-3.5,2.6-10.1-1.3-11.4-0.1c-3,2.6,5.7,8.5-1.5,11.4
					c-3.4,1.4-12.3-10.4-16.9-3.9c-3.9,5.6-7.3,8.8-10.5,4.8c-3.1-3.8,1.7-11.2-6-21.5c-0.3-0.4-6.5-4.3-6.9-4.8
					C192.9,195.5,209.2,182,226.5,188.3z"/>
				<path class="st5" d="M234,195.1c0,0-9.3-2.5-16.8-0.4s-11.4,10.7-8.9,16.6c1.5,3.3,2.2,6.9,2.3,10.6"/>
			</g>
		</g>
	</g>
</g>
<path id="l-arm" class="st2" d="M60.3,154.7c0,0-18.1,22.8-27.9,35.2s2.7,25.2,14.2,20.4s24.7-15.9,32.4-26.5S86,140,60.3,154.7z"/>
<g id="l-hand">
	<g>
		<g>
			<defs>
				<path id="SVGID_00000067937989912496463560000014887099612361790616_" d="M31.3,188.3c0,0-11,18.6-20.6,23s-12.4,9.1-9.8,11.1
					c3.5,2.6,10-1.3,11.4-0.1c3,2.6-5.7,8.5,1.5,11.4c3.4,1.4,12.3-10.4,16.8-3.9c3.9,5.6,7.3,8.8,10.5,4.8c3.1-3.8-1.7-11.2,6-21.5
					c0.3-0.4,6.5-4.3,6.9-4.8C65,195.5,48.6,182,31.3,188.3z"/>
			</defs>
			<clipPath id="SVGID_00000070841206441981424870000017497174928562808748_">
				<use xlink:href="#SVGID_00000067937989912496463560000014887099612361790616_"  style="overflow:visible;"/>
			</clipPath>
			<g style="clip-path:url(#SVGID_00000070841206441981424870000017497174928562808748_);">
				<path class="st4" d="M31.3,188.3c0,0-11,18.6-20.6,23s-12.4,9.1-9.8,11.1c3.5,2.6,10-1.3,11.4-0.1c3,2.6-5.7,8.5,1.5,11.4
					c3.4,1.4,12.3-10.4,16.8-3.9c3.9,5.6,7.3,8.8,10.5,4.8c3.1-3.8-1.7-11.2,6-21.5c0.3-0.4,6.5-4.3,6.9-4.8
					C65,195.5,48.6,182,31.3,188.3z"/>
				<path class="st5" d="M24,195.1c0,0,9.3-2.5,16.8-0.4s11.4,10.7,8.9,16.6c-1.5,3.3-2.2,6.9-2.2,10.6"/>
			</g>
		</g>
	</g>
</g>
<g id="torso">
	<path class="st1" d="M192.8,140.9l17.7,17.5c0,0-6.1,17.9-20.1,27.6l-7.3-31.6L192.8,140.9z"/>
	<path class="st1" d="M65.1,140.9l-17.7,17.5c0,0,6.1,17.9,20.2,27.6l7.3-31.6L65.1,140.9z"/>
	<g>
		<g>
			<defs>
				<path id="SVGID_00000080168501796965974990000013611702300363844767_" d="M168.6,247.5c-11.4,11.8-15.7,19.8-39.6,19.8
					s-28.5-7.8-39.7-19.8c-9.6-10.3-19.3-28.9-21.2-46.6c-2.3-21.1,2.9-69.5,2.9-69.5h115.8c0,0,5.1,50.6,2.9,69.5
					C187.8,218.7,178.4,237.4,168.6,247.5z"/>
			</defs>
			<clipPath id="SVGID_00000110444917436910778040000003988024753410093740_">
				<use xlink:href="#SVGID_00000080168501796965974990000013611702300363844767_"  style="overflow:visible;"/>
			</clipPath>
			<g style="clip-path:url(#SVGID_00000110444917436910778040000003988024753410093740_);">
				<rect x="65.4" y="126.9" class="st1" width="127.5" height="150.2"/>
				<path class="st8" d="M183,154.4c0,0-0.4,47.8-26.1,79.6c-15.7,19.4-14.3,36.8-14.3,36.8h-27.4c0,0,1.4-17.4-14.3-36.8
					c-25.7-31.8-26.1-79.6-26.1-79.6H183z"/>
			</g>
		</g>
	</g>
</g>
<g id="head">
	<path class="st9" d="M211.7,88.5c0,48-72.8,90-82.8,90s-82.8-42.1-82.8-90S85,1.6,129,1.6S211.7,40.5,211.7,88.5z"/>
	<path class="st2" d="M167.9,79.7c-6.9-10.2-17-30-39-30s-32,19.8-38.9,30c-12.6,18.7-19,51.7-19,51.7s15,44.9,58,44.9
		s57.9-44.9,57.9-44.9S180.5,98.5,167.9,79.7z"/>
	<path class="st10" d="M172.1,151.7c-9.6,18.5-24.4,29.5-43.2,29.5s-34.8-13.3-43.2-29.5c-4.4-8.4-7.9-29.5-7.9-29.5
		s1.7,19.8,7.9-0.3c6-19.5,43.2-1.8,43.2-1.8s39.9-8.5,43.3,1.8c6.7,20.6,7.7,0.3,7.7,0.3S176.4,143.2,172.1,151.7z"/>
	<path class="st11" d="M180,121.9c0.3,1.5,0.5,3,0.6,4.5c0,0.8,0,1.6,0,2.3c0,0.9-0.2,1.7-0.5,2.6c-0.2,0.6-0.6,1.2-1.1,1.6
		c-0.4,0.3-0.9,0.6-1.5,0.6c-0.5,0.1-1.1,0-1.6-0.2c-0.7-0.3-1.3-0.7-1.8-1.2c-0.2-0.2-0.4-0.4-0.5-0.6l-0.4-0.6
		c-0.5-0.7-0.9-1.4-1.3-2.1l-1.2-1.9c-1.2-2.3-2.9-4.3-4.8-6c-0.7-0.6-1.5-1-2.4-1.1c-0.6-0.1-1.3,0-1.9,0.2c-0.2,0-0.3,0.1-0.4,0.2
		l-0.2,0.1l-0.4,0.1c-0.5,0.1-1,0.3-1.5,0.5c-1,0.4-1.9,0.8-2.8,1.3c-1.9,1-4,2.3-6.7,3.7c-3,1.6-6.2,2.9-9.5,3.8
		c-3.6,1-7.3,1.5-11,1.5s-7.4-0.5-11-1.5c-3.3-0.9-6.4-2.2-9.4-3.9c-2.7-1.4-4.8-2.8-6.7-3.8c-0.9-0.5-1.9-1-2.9-1.4
		c-0.5-0.2-1-0.4-1.5-0.5L97,120l-0.2-0.1c-0.2-0.1-0.3-0.1-0.5-0.2c-0.6-0.3-1.3-0.3-2-0.2c-0.9,0.2-1.8,0.6-2.5,1.2
		c-2,1.7-3.6,3.7-4.9,6l-1.2,1.9c-0.4,0.7-0.8,1.3-1.3,2.1c-0.3,0.4-0.6,0.8-0.9,1.1c-0.5,0.5-1,0.9-1.6,1.1
		c-0.4,0.2-0.9,0.2-1.4,0.2c-0.5-0.1-0.9-0.3-1.3-0.6c-0.5-0.4-0.8-0.9-1-1.5c-0.3-0.8-0.4-1.6-0.5-2.5c-0.1-0.8-0.1-1.5-0.1-2.3
		c0-1.5,0.1-3,0.3-4.4c0.3,1.4,0.7,2.9,1.1,4.2c0.2,0.7,0.5,1.4,0.8,2c0.3,0.6,0.6,1.1,1,1.6c0.2,0.2,0.4,0.3,0.3,0.2
		s-0.2-0.2-0.3-0.2c-0.1,0-0.2,0-0.3,0c-0.1-0.1,0-0.1,0-0.3s0.2-0.4,0.2-0.7c0.3-1.1,0.6-2.6,0.8-4c0.5-3.3,1.4-6.5,2.8-9.5
		c0.9-1.9,2.1-3.5,3.6-4.9c1.7-1.6,3.8-2.8,6-3.5c0.6-0.2,1.1-0.3,1.7-0.5l0.8-0.2l0.7-0.1c0.9-0.2,1.9-0.3,2.8-0.4
		c1.9-0.2,3.8-0.2,5.7,0c3.3,0.4,6.6,0.9,9.8,1.7c4.4,1.1,8.9,1.7,13.5,1.7c4.5-0.1,9-0.7,13.4-1.9c3.2-0.8,6.5-1.4,9.8-1.8
		c1.9-0.2,3.8-0.2,5.7,0c1,0.1,1.9,0.2,2.9,0.4l0.7,0.1l0.9,0.2c0.6,0.1,1.2,0.3,1.7,0.5c2.3,0.7,4.4,1.9,6.1,3.5
		c1.5,1.4,2.8,3.1,3.7,5c1.4,3,2.4,6.3,2.9,9.6c0.3,1.4,0.5,2.9,0.8,4l0.2,0.7c0.1,0.1,0,0.2-0.1,0.2c-0.2,0-0.4,0-0.5,0
		c-0.2,0-0.4,0.1-0.5,0.3s0.1,0.1,0.2-0.1c0.4-0.5,0.7-1,0.9-1.5c0.3-0.7,0.6-1.3,0.8-2C179,124.7,179.5,123.3,180,121.9z"/>
	<path class="st4" d="M126.6,63l-5.2-33.2c-0.6-4.1,2.2-8,6.3-8.7c4.1-0.6,8,2.2,8.7,6.3l0,0c0.1,0.8,0.1,1.6,0,2.3L131.2,63
		c-0.2,1.3-1.4,2.1-2.6,2C127.6,64.9,126.8,64.1,126.6,63z"/>
	<circle class="st10" cx="128.9" cy="77.8" r="3.1"/>
	<circle class="st10" cx="121.8" cy="88.5" r="3.1"/>
	<circle class="st10" cx="136" cy="88.5" r="3.1"/>
	<path class="st11" d="M115.1,54.1v4.3c0,0-7.6,0.5-10.9,2.9c-1.9,1.3-3.3,3.2-3.9,5.4c0,0,0.6-11,5.4-12
		C108.7,54.1,111.9,53.9,115.1,54.1z"/>
	<path class="st11" d="M142.8,54.1v4.3c0,0,7.6,0.5,10.9,2.9c1.9,1.3,3.3,3.2,3.9,5.4c0,0-0.6-11-5.4-12
		C149.1,54.1,145.9,53.9,142.8,54.1z"/>
	<path class="st12" d="M89.7,75.1c-3.8,8.6-1.6,16,3,19.9s10.1-3.9,13.9-12.5s5.7-18.6-0.2-18.7S93.5,66.5,89.7,75.1z"/>
	
		<ellipse transform="matrix(0.4107 -0.9118 0.9118 0.4107 -13.8291 138.4326)" class="st4" cx="100.2" cy="79.9" rx="13.3" ry="5.7"/>
	<ellipse transform="matrix(0.4107 -0.9118 0.9118 0.4107 -13.8291 138.4326)" cx="100.2" cy="79.9" rx="8.4" ry="3.6"/>
	<path class="st12" d="M168.1,75.1c3.8,8.6,1.6,16-3,19.9s-10.1-3.9-13.9-12.5s-5.7-18.6,0.2-18.7S164.3,66.5,168.1,75.1z"/>
	
		<ellipse transform="matrix(0.9118 -0.4107 0.4107 0.9118 -18.9191 71.7774)" class="st4" cx="157.6" cy="79.9" rx="5.7" ry="13.3"/>
	<ellipse transform="matrix(0.9118 -0.4107 0.4107 0.9118 -18.9191 71.7774)" cx="157.6" cy="79.9" rx="3.6" ry="8.4"/>
	<circle class="st13" cx="157.6" cy="37.6" r="6.3"/>
	<circle class="st13" cx="178.4" cy="63" r="3.7"/>
	<circle class="st13" cx="177.8" cy="44.6" r="4.3"/>
	<path class="st14" d="M72.4,70.4c-3.3-1.7-6.5-3.7-9.5-5.8c-7.5,42.3,12,62.3,12,62.3C68,103,68.6,84.5,72.4,70.4z"/>
	<path class="st13" d="M104,17.3c0,0-30.8,11.2-39.5,40.5c3.1,2.4,6.5,4.6,10,6.4c8.9-24.2,27.5-33,27.5-33
		C100.6,27.6,104,17.3,104,17.3z"/>
	<path class="st14" d="M190.4,66.7c0,0,8.9,35.2-20.4,72.2c0,0,27.4-22.1,30.2-50.6S190.4,66.7,190.4,66.7z"/>
</g>
<g id="collar">
	<path class="st15" d="M67.1,129.7c0,0-2.4-5.8-8.3,0c-6,5.8-3.3,7.8,0,15.1s20.3,58.9,70.2,58.9v-25.2c-11.2-1-25.1-1.3-41.1-23.6
		C71,131.4,67.1,129.7,67.1,129.7z"/>
	<path class="st15" d="M190.8,129.7c0,0,2.4-5.8,8.3,0c6,5.8,3.3,7.8,0,15.1s-20.3,58.9-70.1,58.9v-25.2c11.2-1,25.1-1.3,41.1-23.6
		C186.9,131.4,190.8,129.7,190.8,129.7z"/>
</g>
</svg>
