<?xml version="1.0" encoding="utf-8"?>
<!-- Generator: Adobe Illustrator 26.5.0, SVG Export Plug-In . SVG Version: 6.00 Build 0)  -->
<svg version="1.1" id="Layer_1" xmlns="http://www.w3.org/2000/svg" xmlns:xlink="http://www.w3.org/1999/xlink" x="0px" y="0px"
	 viewBox="0 0 205.6 467.2" style="enable-background:new 0 0 205.6 467.2;" xml:space="preserve">
<style type="text/css">
	.st0{fill:#44F5A0;}
	.st1{clip-path:url(#SVGID_00000158003152861457061730000017420721110437153950_);}
	.st2{fill:#F7EC17;}
	.st3{fill:none;stroke:#DDCD00;stroke-width:0.95;stroke-miterlimit:10;}
	.st4{fill:#33D08C;}
	.st5{fill:#891B6A;}
	.st6{fill:none;stroke:#DDCD00;stroke-miterlimit:10;}
	.st7{fill:#1B8B79;}
	.st8{fill:none;stroke:#33D08C;stroke-width:1.26;stroke-linecap:round;stroke-miterlimit:10;}
	.st9{fill:#AA1A88;}
	.st10{fill:#C1983D;}
	.st11{fill:#520551;}
	.st12{clip-path:url(#SVGID_00000137111997484360841350000014438087998993671061_);}
	.st13{clip-path:url(#SVGID_00000158016066585346302850000003860799208887247280_);}
	.st14{fill:#F5FAFF;}
	.st15{fill:#9629FF;}
	.st16{fill:#023533;}
	.st17{clip-path:url(#SVGID_00000178171007952117448800000013028527833476899774_);}
	.st18{clip-path:url(#SVGID_00000047033663142474211750000008758092847810261670_);}
	.st19{fill:none;stroke:#33D08C;stroke-miterlimit:10;}
	.st20{clip-path:url(#SVGID_00000124869984301925294810000015670055117957882538_);}
	.st21{clip-path:url(#SVGID_00000135655037126497756490000003475191569376866236_);}
</style>
<path id="r-arm" class="st0" d="M125.2,111c0.1,0.3,0.3,0.7,0.5,1c3.1,5.5,6.1,11,9,16.5l4.3,8.4l4.3,8.4c2.8,5.6,5.6,11.2,8.2,16.9
	s5.1,11.5,7.2,17.4c1.2,3.5,5.2,5.2,9.3,4.1c0.3-0.1,0.6-0.2,0.9-0.3c4.3-1.6,6.7-6,5.4-9.7c-0.1-0.4-0.3-0.7-0.5-1.1
	c-3.2-5.4-6-11-8.7-16.7s-5.1-11.4-7.7-17.2l-3.7-8.6l-3.6-8.7c-2.4-5.8-4.7-11.6-6.9-17.5c-1.6-4.3-7-6.3-12-4.3
	c-1,0.4-2,0.9-2.9,1.6C125.4,103.6,123.9,107.6,125.2,111z"/>
<g id="r-forearm">
	<g>
		<g>
			<g>
				<defs>
					<path id="SVGID_1_" d="M167.8,148.9c0,0,29,21.6,35,60.2c1.9,12.1-3.3,14.1-6.6,15.3c-7.2,2.6-18.6-10.6-20.4-12.6
						c-2.6-2.9-14.9-14.6-20.4-19.8c-7.2-6.7-13.7-18.8-10.6-26.6c0,0,10.4,7.5,15.5,1.4S159.8,154.1,167.8,148.9z"/>
				</defs>
				<clipPath id="SVGID_00000169541580260049807730000011796884016077210293_">
					<use xlink:href="#SVGID_1_"  style="overflow:visible;"/>
				</clipPath>
				<g style="clip-path:url(#SVGID_00000169541580260049807730000011796884016077210293_);">
					
						<rect x="151.2" y="144.6" transform="matrix(0.8601 -0.5101 0.5101 0.8601 -71.6113 114.7713)" class="st2" width="44.5" height="86.7"/>
					<path class="st3" d="M155.5,158.2c0,0-4.6,16.6,5.7,28.9c8.6,10.4,19.2,17.6,23.4,22.8c3.9,4.9,16.5,14,16.5,14l-26.5,10.2
						l-34.9-50.6l-3.3-21.5L155.5,158.2z"/>
				</g>
			</g>
		</g>
	</g>
</g>
<g id="r-hand">
	<path class="st4" d="M197.3,234.2c-1,1.2-1.6,2.6-1.7,4.1c0,2,0.7,3,1.7,3s4.7-4.7,4.7-4.7l-2.6-5.1L197.3,234.2z"/>
	<path class="st0" d="M183.9,238.4c3.2,2,3.8-0.9,4.4-5.3c0.3-2.4,2.4-2.9,4.4-2.1c2.6,1,4.1,5.7,4.1,8.2c0,3.6,1.9,4.6,4,3.6
		c2.6-1.2,2-6.6,2-6.6c0.6-1.2,1.1-2.2,1.5-3.1c1.1-2.5,1.3-4.2,1.3-7.9c0-5.6-1-12.3-2.6-16c-2.6-6.1-13.2-7.4-13.2-7.4
		C177.9,216.7,178.7,235.2,183.9,238.4z"/>
	<path class="st4" d="M201,223.9c1.1,3.9,1.7,8,1.7,12.1c0.6-1.2,1.1-2.2,1.5-3.1C203.7,229.8,202.6,226.7,201,223.9z"/>
</g>
<g id="r-calf">
	<path class="st5" d="M108.8,434.9c0.1,3.6,37.7-3.5,37.7-3.5s-0.9-24.9-1.2-32.6c-1-28.2,1.6-76.8,1.6-76.8s-18.3-3.9-22.4-3.8
		c-2.1,0-3.8,0.4-4.3,1.6c-8.8,24.4-8.2,36-8,52.5c0.3,13-0.4,26-2.2,38.9C109.1,418.8,108.8,434.6,108.8,434.9z"/>
	<path class="st2" d="M116.6,438.9c0,0.1,0,0.2,0,0.2l0,0V438.9z"/>
	<path class="st2" d="M119.6,439.8v0.2l0,0C119.5,440,119.5,439.9,119.6,439.8z"/>
	<path class="st2" d="M145.2,376.6c0,0,1,43.3,8,54c5,7.6,31.9,17.2,29.4,28.2c-3.9,1.8-8.1,2.9-12.4,3.2
		c-7.3,0.6-15.5-3.4-15.5-3.4c0.5,1.9,0.6,4,0.4,6c-0.3,2.4-4.4,2.6-10.2,2.6c-12.2,0.1-11.8-7.1-21.8-10.6
		c-4.7,5.4-11.7,8.2-18.8,7.3c-4.4-0.5-5.8-8.1-2.7-15c2.3-5,5.3-12.7,6.7-26c2.8-27,4.2-51.5,4.1-50.5c0,0,5.6,13.1,21.8,26.5
		C142.9,390.2,145.2,376.6,145.2,376.6z"/>
	<path class="st6" d="M134.1,398.9c0,0,0.2,25.1,3.9,34.1s12.5,16.3,10.3,34.1"/>
</g>
<g id="tail">
	<path class="st7" d="M116.7,26.7L116.7,26.7V27c0,0.2,0,0.4,0,0.6c0,0.5,0.1,0.9,0.1,1.3c0.1,0.9,0.2,1.9,0.3,2.9
		c0.1,1,0.3,2,0.4,2.9s0.3,2,0.5,3c0.8,4,1.8,7.9,3.1,11.7c0.3,1,0.7,1.9,1.1,2.8c0.4,0.9,0.7,1.9,1.1,2.8s0.9,1.8,1.3,2.8l0.6,1.4
		l0.7,1.3l1.4,2.7c0.5,0.9,1.1,1.7,1.6,2.6s1.1,1.8,1.7,2.6l1.9,2.5c1.2,1.7,2.6,3.3,4,4.8l1,1.2l1.3,1.4l2.6,2.8
		c0.9,0.9,1.7,1.9,2.5,2.9l2.4,3c0.8,1,1.6,2.1,2.3,3.1s1.5,2.1,2.2,3.2c2.9,4.4,5.3,9.2,7,14.1c0.4,1.3,0.8,2.6,1.1,3.9
		s0.6,2.6,0.7,4c0.1,0.7,0.1,1.3,0.2,2c0,0.7,0,1.4,0,2.1s-0.1,1.4-0.2,2.1c-0.1,0.8-0.3,1.5-0.5,2.2c-0.3,1-1.3,1.5-2.3,1.2
		c-0.5-0.1-0.9-0.5-1.1-0.9l-0.5-1c-0.1-0.3-0.3-0.9-0.4-1.3l-0.3-0.7l-0.3-0.7c-0.2-0.5-0.4-1-0.7-1.4c-0.2-0.5-0.5-1-0.8-1.4
		c-0.5-0.9-1.2-1.8-1.8-2.7c-0.3-0.4-0.7-0.9-1-1.3s-0.6-0.9-1-1.3c-2.8-3.4-6-6.4-9.3-9.2c-0.4-0.4-0.8-0.7-1.2-1.1l-1.3-1
		c-0.9-0.7-1.7-1.4-2.6-2.1c-1.9-1.3-3.6-2.7-5.4-3.9l-2.8-1.9l-1.4-1l-1.6-1.2c-2.2-1.6-4.3-3.3-6.3-5.1l-3-2.8c-1-0.9-1.9-2-2.8-3
		s-1.9-2-2.8-3.1l-2.5-3.2l-1.3-1.5l-1.1-1.7l-2.3-3.4c-0.7-1.2-1.4-2.4-2.1-3.6s-1.3-2.4-1.9-3.7S96,57.2,95.4,56l-1.5-3.8
		c-0.5-1.3-0.9-2.6-1.4-3.9c-0.2-0.7-0.4-1.3-0.6-2l-0.6-2c-0.4-1.3-0.7-2.7-1-4s-0.6-2.7-0.8-4.1c-0.2-1.4-0.4-2.8-0.6-4.2
		c-0.1-0.7-0.1-1.5-0.2-2.2c0-0.4-0.1-0.8-0.1-1.2V28v-0.8c-0.2-7.6,5.9-13.9,13.5-14.1c6.4-0.1,12.1,4.2,13.7,10.4L116.7,26.7z"/>
	<path class="st8" d="M119.5,31.7c0,0-2,0.7-5,1.6c-3.5,1.1-7.1,2.1-10.8,2.8C100,36.7,96.3,37,92.6,37c-3.1,0-5.3-0.3-5.3-0.3"/>
	<path class="st8" d="M120.2,39.6c0,0-1.8,0.9-4.4,2.1c-3.1,1.5-6.4,2.8-9.7,3.8s-6.8,1.6-10.2,1.9c-2.9,0.3-5,0.2-5,0.2"/>
	<path class="st8" d="M121.7,47.7c0,0-1.6,1.1-3.9,2.5c-2.7,1.7-5.5,3.3-8.5,4.6s-6,2.2-9.2,2.8c-1.5,0.3-3.1,0.5-4.6,0.7"/>
	<path class="st8" d="M124.2,55.6c0,0-1.3,1.2-3.2,2.8c-2.3,1.9-4.7,3.6-7.2,5.2c-3.9,2.1-8,3.7-12.4,4.5"/>
	<path class="st8" d="M127.6,63.2c0,0-1.1,1.3-2.6,2.9c-1.8,2-3.7,3.8-5.8,5.5c-2.2,1.6-4.5,3-7.1,4c-1.2,0.5-2.5,1-3.7,1.3"/>
	<path class="st8" d="M131.9,70.4c0,0-0.7,1.3-1.9,3c-1.3,2-2.8,3.9-4.5,5.7c-1.8,1.7-3.7,3.1-5.9,4.2c-1,0.6-2.1,1.1-3.2,1.5"/>
	<path class="st8" d="M137.2,77.2l-0.4,0.8c-0.2,0.5-0.5,1.3-0.9,2.1c-0.8,2-2,3.8-3.3,5.5c-1.4,1.6-3,3-4.8,4.2
		c-0.8,0.5-1.4,1-1.9,1.2s-0.8,0.4-0.8,0.4"/>
	<path class="st8" d="M144.1,85.1c-0.3,0.9-0.7,1.8-1.1,2.6c-0.8,1.7-1.8,3.2-3.1,4.6c-1.3,1.3-2.9,2.3-4.5,3.2
		c-1.4,0.8-2.5,1.2-2.5,1.2"/>
	<path class="st8" d="M150.3,93.6c-0.3,0.8-0.6,1.5-1,2.2c-0.7,1.4-1.7,2.6-2.8,3.7c-1.2,0.9-2.6,1.7-4.1,2.2
		c-1.3,0.5-2.3,0.7-2.3,0.7"/>
	<path class="st8" d="M155.5,102.9c-0.3,0.6-0.6,1.2-0.9,1.8c-0.6,1.1-1.4,2-2.4,2.7c-1.1,0.5-2.3,0.9-3.5,1c-1.1,0.1-2,0.2-2,0.2"
		/>
	<path class="st8" d="M159,113.1c-0.2,0.5-0.5,1-0.8,1.4c-0.5,0.8-1.1,1.4-1.9,1.7c-0.8,0.2-1.7,0.1-2.5-0.2
		c-0.8-0.2-1.5-0.4-1.5-0.4"/>
</g>
<g id="l-calf">
	<path class="st5" d="M96.7,434.9c-0.1,3.6-37.7-3.5-37.7-3.5s0.9-24.9,1.2-32.6c1-28.2-1.6-76.8-1.6-76.8s18.3-3.9,22.4-3.8
		c2.1,0,3.8,0.4,4.3,1.6c8.8,24.4,8.2,36,8,52.5c-0.3,13,0.4,26,2.2,38.9C96.4,418.8,96.7,434.6,96.7,434.9z"/>
	<path class="st2" d="M101.2,463.8c-3.3,0.4-6.6,0-9.8-1.1l0,0c-3.5-1.2-6.6-3.3-9.1-6.1c-6.2,2.2-8.4,5.8-12.1,8.2
		c-2.2,1.5-5,2.5-9.7,2.4c-5.9,0-10-0.2-10.2-2.6c-0.1-1.4-0.1-2.8,0.1-4.2c0.1-0.6,0.2-1.2,0.3-1.7c0,0-8.3,4-15.6,3.4l-1.4-0.1
		c-3.8-0.4-7.5-1.4-11-3c-2.5-11,24.5-20.6,29.4-28.2c7-10.7,8.1-54,8.1-54s2.3,13.6,11.1,22.3c16.2-13.5,21.8-26.5,21.8-26.5
		c0,1,1.4,24.5,4.1,50.5c1.4,13.3,4.4,21,6.7,26C107.1,455.8,105.6,463.4,101.2,463.8z"/>
	<path class="st6" d="M71.4,398.9c0,0-0.2,25.1-3.9,34.1S55,449.3,57.2,467.1"/>
</g>
<path id="l-arm" class="st0" d="M80.3,111c-0.1,0.3-0.3,0.7-0.5,1c-3.1,5.5-6.1,11-9,16.5l-4.3,8.4l-4.3,8.4
	c-2.8,5.6-5.6,11.2-8.2,16.9s-5.2,11.4-7.3,17.3c-1.2,3.5-5.2,5.2-9.3,4.1c-0.3-0.1-0.6-0.2-0.9-0.3c-4.3-1.6-6.7-6-5.4-9.7
	c0.1-0.4,0.3-0.7,0.5-1.1c3.2-5.4,6-11,8.7-16.7s5.1-11.4,7.7-17.2l3.7-8.6l3.6-8.7c2.4-5.8,4.7-11.6,6.8-17.5
	c1.6-4.3,7-6.3,12.1-4.3c1,0.4,2,0.9,2.9,1.6C80.1,103.6,81.5,107.6,80.3,111z"/>
<g id="torso">
	<path class="st7" d="M125.8,167.7c0-12.1-10.4-23.2-23.1-23.2s-23.1,11.1-23.1,23.2c2,5,6.5,10,23.1,10S122.9,174.5,125.8,167.7z"
		/>
	<path class="st5" d="M128.3,199.2c2.1,3.2,3.8,6.6,5.1,10.1c-1.3,3.1-10,9.1-13,13.6c-4.9,7.2-3.7,17-9.5,21.4
		c-2.4,1.7-5.3,2.5-8.3,2.4c-2.9,0.1-5.8-0.6-8.2-2.2c-5.7-4.1-4.5-13.4-9.5-21.6c-2.8-4.5-11.8-10.3-13.2-13.6
		c2.8-5.2,5.3-10.1,5.3-10.1L128.3,199.2L128.3,199.2z"/>
	<path class="st5" d="M124.1,179.7c0-15.5,17.4-45.9,9.4-83.7c-15.6-5.8-47.3-5.7-61.7,0c-8.1,35.9,9.4,67.6,9.4,83.7
		c0,0.5,0,1,0.1,1.5c-1.2,11-6.8,22.4-6.8,22.4s18.3,15,27.6,32c9.2-17.1,28.3-32,28.3-32s-5.1-10.5-6.6-21.1
		C124,181.6,124.1,180.6,124.1,179.7z"/>
	<path class="st9" d="M119.4,161.1c3.1-9.3,9.6-20,10.7-29.7c0.7-6.9,1-13.8,0.7-20.7c0-3.8-0.5-7.7-1.5-11.4c-1.1-3.7-2-4.6-5.9-7
		l-20.7,20.9L82.5,92.3c-3,1.3-5.3,3.8-6.2,7c-1,3.7-1.5,7.5-1.5,11.4c-0.3,6.9,0,13.8,0.7,20.7c1.1,9.7,7.6,20.5,10.7,29.7
		c1.3,3.9,16.4,47.5,16.4,47.5S118.1,165,119.4,161.1z"/>
	<path class="st10" d="M118.3,84.9c1.7-15.9-25.6-11.4-28.7-7c-1,1.4-2.8,11.8,0,14.1C97.1,98.2,117.1,96.4,118.3,84.9z"/>
	<polygon class="st4" points="83.9,91.6 102.2,89.5 120.4,91.3 102.8,112.6 	"/>
	<path class="st4" d="M112.8,105.9c0,0-2.8,7.3-10.1,7.3s-10.1-7.3-10.1-7.3c0.8-7.1,1.1-14.2,1-21.3c0-13.9-0.7-25.3-0.7-25.3h19.6
		c0,0-0.7,11.5-0.7,25.3C111.6,91.7,112,98.8,112.8,105.9z"/>
	<path class="st2" d="M103.2,113.7C103.2,113.7,103.2,113.8,103.2,113.7c-1.9,0.1-3.9-0.5-5.5-1.6c-3-1.9-5.7-4.2-8-6.9
		c-2.7-2.9-5.1-6.1-6.9-9.6c-1.9-3.5-2.8-7.4-2.8-11.4c0-2.5,0.7-5,2.1-7.2c2.3-3.3,6.7-5.2,10.6-6l1-0.2c0,1.4,0,2.8,0,4.3
		c0,2,0,13.7-0.1,15.4c0,0.1-2.7,1.2-2,3.7c0.7,2.6,1.7,5.1,3,7.4c1.3,2.4,2.9,5.1,4.4,7.3C100.2,110.6,102.3,111.9,103.2,113.7z"/>
	<path class="st2" d="M102.3,113.7C102.3,113.7,102.3,113.8,102.3,113.7c1.9,0.1,3.9-0.5,5.5-1.6c3-1.9,5.7-4.2,8-6.9
		c2.7-2.9,5-6.1,6.9-9.6s2.8-7.4,2.8-11.4c0-2.5-0.7-5-2.1-7.2c-2.3-3.3-6.7-5.2-10.5-6l-1-0.2c0,1.4,0,2.8,0,4.3
		c0,2,0,13.8,0.1,15.5c0,0,2.7,1,2,3.6s-1.7,5.1-3,7.4c-1.4,2.4-2.9,5.1-4.4,7.3C105.3,110.6,103.2,111.9,102.3,113.7z"/>
	<path class="st2" d="M87.8,90.7c0,0-18.7,13.9-16,46.2c0,0-18-30.4-9.6-41.3C69.8,93.6,87.8,90.7,87.8,90.7z"/>
	<path class="st2" d="M117.7,90.7c0,0,18.7,13.9,16,46.2c0,0,18-30.4,9.6-41.3C135.7,93.6,117.7,90.7,117.7,90.7z"/>
</g>
<g id="l-thigh">
	<path class="st0" d="M69.7,212.8c0,0-16.4,22.7-19.1,31.7s1.7,6.6,1.7,10.9s-1.4,5-2.5,13.3c-0.6,4.2,2.9,4.1,6.4,3
		c-1.5,3.5-2.7,6.9-2.2,8.6c1.1,4.2,8.6,0,8.6,0l-0.7-11l1-0.6L69.7,212.8z"/>
	<path class="st5" d="M100.3,232c-12.9,52.4-14.6,89.8-14.6,89.8s-3.6,9.7-11.9,11.2c-12.3,2.2-15.2-10.8-15.2-10.8
		s-2-19.1-0.6-50.2c0.6-17.3,3.5-34.5,8.6-51.1c2.4-8.1,7.4-15.5,8.7-17.6c5.4-8.2,13.6-4.2,13.6-4.2S105,213.1,100.3,232z"/>
	<path class="st11" d="M64.2,328.8c1,1.2,2.3,2.1,3.8,2.7c0.6,0.3,1.3,0.5,1.9,0.5c0.2,0,0.4-0.1,0.6-0.2s0.4-0.3,0.6-0.5
		c0.4-0.6,0.9-1.2,1.2-1.9c0.4-0.7,0.7-1.4,1.1-2c0.7-1.4,1.3-2.9,1.9-4.5c0.3,1.7,0.3,3.4-0.2,5.1c-0.2,0.8-0.5,1.7-0.9,2.5
		s-0.8,1.6-1.4,2.3c-0.4,0.4-0.8,0.8-1.3,1c-0.6,0.3-1.2,0.4-1.8,0.3c-0.5-0.1-1-0.2-1.5-0.5c-0.4-0.2-0.8-0.4-1.2-0.7
		C65.6,332.1,64.5,330.5,64.2,328.8z"/>
</g>
<g id="r-thigh">
	<path class="st0" d="M135.6,212.8c0,0,16.4,22.7,19.1,31.7s-1.7,6.6-1.7,10.9s1.4,5,2.5,13.3c0.6,4.2-2.9,4.1-6.4,3
		c1.5,3.5,2.7,6.9,2.2,8.6c-1.1,4.2-8.6,0-8.6,0l0.7-11l-1-0.6L135.6,212.8z"/>
	<path class="st5" d="M105.1,232c12.9,52.4,14.6,89.8,14.6,89.8s3.6,9.7,11.9,11.2c12.3,2.2,15.2-10.8,15.2-10.8s2.1-19.1,0.6-50.2
		c-0.6-17.3-3.5-34.5-8.6-51.1c-2.4-8.1-7.4-15.5-8.7-17.6c-5.4-8.2-13.6-4.2-13.6-4.2S100.5,213.1,105.1,232z"/>
	<path class="st11" d="M132.5,324.3c0.6,1.5,1.1,2.9,1.7,4.3c0.2,0.6,0.6,1.1,1,1.6c0.4,0.3,0.9,0.5,1.4,0.5c0.6,0,1.3-0.1,1.9-0.2
		c0.7-0.2,1.3-0.4,1.9-0.8c1.3-0.7,2.6-1.6,3.7-2.6c-0.5,1.6-1.5,3-2.8,4c-0.7,0.6-1.4,1-2.2,1.3c-0.9,0.3-1.8,0.5-2.7,0.5
		c-0.5,0-1-0.1-1.5-0.3c-0.5-0.2-0.9-0.6-1.3-1c-0.6-0.7-0.9-1.6-1.1-2.5C132.3,327.5,132.2,325.9,132.5,324.3z"/>
</g>
<g id="head">
	<g>
		<g>
			<g>
				<defs>
					<path id="SVGID_00000044148918129055441380000007283735764704309423_" d="M124,56.9c-2.7,2.7-6.4,11.6-8.1,15.5
						c-3.2,7.1-6.9,11.3-13.1,11.3S93,79.4,89.7,72.4c-1.9-4-5.4-12.8-8.2-15.6c-7.4-7.4-10-17.8-8.4-29.2C75.8,8.6,85.4,0,102.8,0
						s27.5,9.1,29.7,27.6C133.8,39.1,131.3,49.6,124,56.9z"/>
				</defs>
				<clipPath id="SVGID_00000158751197350142551870000017360343895712933262_">
					<use xlink:href="#SVGID_00000044148918129055441380000007283735764704309423_"  style="overflow:visible;"/>
				</clipPath>
				<g style="clip-path:url(#SVGID_00000158751197350142551870000017360343895712933262_);">
					<rect x="71.1" y="-3.3" class="st0" width="63.4" height="89.4"/>
					<path class="st2" d="M89.8,2.8c-0.2,0.7-0.1,1.4,0.2,2.1c0.4,1,0.9,1.9,1.4,2.8c1.3,2,2.8,3.8,4.4,5.5c1.6,1.8,3.3,3.5,5.1,5.2
						s3.6,3.3,5.4,4.8l-7.4,0.1c1.8-1.5,3.6-3.2,5.4-4.9s3.5-3.4,5.1-5.2c1.6-1.7,3.1-3.6,4.4-5.5c0.6-0.9,1.1-1.8,1.5-2.8
						c0.3-0.6,0.4-1.3,0.3-2l-0.2-0.5c-0.4-0.9,0.1-1.9,0.9-2.3c0.7-0.3,1.5-0.1,2,0.5c0.6,0.8,1,1.7,1,2.7c0,0.8,0,1.6-0.2,2.4
						c-0.3,1.3-0.8,2.7-1.4,3.9c-1.2,2.3-2.5,4.6-4.1,6.7c-1.5,2.1-3.1,4.1-4.7,6s-3.3,3.8-5,5.7l-1.3,1.4l-1.3-1.3
						c-1.8-1.9-3.5-3.7-5.1-5.7s-3.2-4-4.8-6c-1.6-2.1-2.9-4.4-4.1-6.7c-0.6-1.3-1.1-2.6-1.4-4c-0.2-0.8-0.2-1.6-0.1-2.4
						c0.1-0.9,0.4-1.9,1-2.6c0.5-0.8,1.5-1.1,2.4-0.6c0.8,0.5,1.1,1.5,0.6,2.4L89.8,2.8z"/>
				</g>
			</g>
		</g>
	</g>
	<g>
		<g>
			<g>
				<defs>
					<path id="SVGID_00000057129520592794403940000013780050917728439947_" d="M110.3,41.8c-2,4.6-1.7,8.8,0.5,10.8
						c3.9,0.3,10.8-1,13.3-5.3c2-3.4,3.1-7.9-0.4-11.3C119.4,34.4,112.3,37.1,110.3,41.8z"/>
				</defs>
				<clipPath id="SVGID_00000083082866898534561330000005229203769871735433_">
					<use xlink:href="#SVGID_00000057129520592794403940000013780050917728439947_"  style="overflow:visible;"/>
				</clipPath>
				<g style="clip-path:url(#SVGID_00000083082866898534561330000005229203769871735433_);">
					<rect x="105.6" y="32.7" class="st14" width="22.3" height="21.8"/>
					<circle class="st15" cx="115.5" cy="45.8" r="7.6"/>
					<circle cx="115.5" cy="45.8" r="3.8"/>
					<path class="st16" d="M110.5,54.4c0,0-5.1-10.6,4.9-16.3c1.3-0.8,5.2-1.3,6.7-0.5c1,0.7,2.1,1.5,2.1,5.3c-0.1,3.1-1.5,6-4,7.8
						l6.7-1.9l2.8-22.3l-17.5,0.9l-8.5,25.2L110.5,54.4z"/>
				</g>
			</g>
		</g>
	</g>
	<g>
		<g>
			<g>
				<defs>
					<path id="SVGID_00000155849955811030956400000010066278483921418889_" d="M95,41.8c2,4.6,1.7,8.8-0.5,10.8
						c-3.9,0.3-10.8-1-13.3-5.3c-2-3.4-3.1-7.9,0.4-11.3C85.9,34.4,93,37.1,95,41.8z"/>
				</defs>
				<clipPath id="SVGID_00000013880343369985564440000015138232999690984325_">
					<use xlink:href="#SVGID_00000155849955811030956400000010066278483921418889_"  style="overflow:visible;"/>
				</clipPath>
				<g style="clip-path:url(#SVGID_00000013880343369985564440000015138232999690984325_);">
					<rect x="77.4" y="32.7" class="st14" width="22.3" height="21.8"/>
					<circle class="st15" cx="89.8" cy="45.8" r="7.6"/>
					<circle cx="89.8" cy="45.8" r="3.8"/>
					<path class="st16" d="M94.8,54.4c0,0,5.1-10.6-4.9-16.3c-1.3-0.8-5.2-1.3-6.7-0.5c-1,0.7-2.1,1.5-2.1,5.3c0.1,3.1,1.5,6,4,7.8
						l-6.7-1.9l-2.8-22.3l17.5,0.9l8.6,25.3L94.8,54.4z"/>
				</g>
			</g>
		</g>
	</g>
	<path class="st7" d="M111.2,65.4c-2.6,0.9-5.4,1.4-8.1,1.4c-2.9-0.1-5.7-0.6-8.4-1.4H111.2z"/>
	<path class="st4" d="M78.7,31.5c0.7-1,1.7-1.8,2.8-2.4c1.1-0.6,2.4-1,3.6-1.1c1.3-0.1,2.6-0.1,3.9,0.1c0.6,0.1,1.3,0.2,1.9,0.4
		l1.9,0.5c0.9,0.2,1.3,1.1,1.1,2s-1.1,1.3-2,1.1c-0.1,0-0.2-0.1-0.3-0.1l-0.1-0.1L90,31.1c-0.5-0.2-1-0.5-1.5-0.7
		c-1-0.4-2.1-0.7-3.2-0.8s-2.3,0-3.4,0.2C80.6,30.1,79.6,30.7,78.7,31.5z"/>
	<path class="st4" d="M126.7,31.5c-0.9-0.8-1.9-1.4-3.1-1.7c-1.1-0.3-2.2-0.4-3.4-0.2c-1.1,0.1-2.2,0.4-3.2,0.8
		c-0.5,0.2-1,0.5-1.5,0.7l-1.5,0.8h-0.1c-0.8,0.4-1.8,0.1-2.2-0.6c-0.4-0.8-0.1-1.8,0.6-2.2c0.1-0.1,0.2-0.1,0.3-0.1l1.9-0.5
		c0.6-0.1,1.3-0.3,1.9-0.4c1.3-0.2,2.6-0.2,3.9-0.1s2.5,0.5,3.6,1.1C125,29.6,126,30.5,126.7,31.5z"/>
	<g>
		<g>
			<g>
				<defs>
					<path id="SVGID_00000058565547760714090510000003020723454633263264_" d="M73,27.7c-0.2,4.5,2.4,6.7,2.1,7.5
						c-0.2,0.7-1.3,0.9-2.6,0.3c0,0-11.6-3.9-11.5-10.5C61.1,13,76.8,7.9,81,8C76,14.2,74.1,20,73,27.7z"/>
				</defs>
				<clipPath id="SVGID_00000042713426779818524130000012566979187185001367_">
					<use xlink:href="#SVGID_00000058565547760714090510000003020723454633263264_"  style="overflow:visible;"/>
				</clipPath>
				<g style="clip-path:url(#SVGID_00000042713426779818524130000012566979187185001367_);">
					<path class="st7" d="M73,27.7c-0.2,4.5,2.4,6.7,2.1,7.5c-0.2,0.7-1.3,0.9-2.6,0.3c0,0-11.6-3.9-11.5-10.5
						C61.1,13,76.8,7.9,81,8C76,14.2,74.1,20,73,27.7z"/>
					<path class="st19" d="M74.6,29.4c-2.3-1.9-5.4-2.6-8.3-2c-5.1,1-1.6,6.2,3.3,8.1"/>
					<path class="st19" d="M75.9,26.4c0,0-0.6-3.1-4.8-6.1s-10.7-0.7-10.7,5.3"/>
					<path class="st19" d="M67.7,12.5c1.1-0.5,2.3-0.5,3.4-0.1c2.7,1.2,4.7,3.6,5.3,6.6"/>
					<path class="st19" d="M77.3,7.6c0,0,3.8,0.5,3.8,6.7"/>
				</g>
			</g>
		</g>
	</g>
	<g>
		<g>
			<g>
				<defs>
					<path id="SVGID_00000024709216763781458600000012042300828797225347_" d="M132.5,27.7c0.1,4.5-2.4,6.7-2.1,7.5
						c0.2,0.7,1.3,0.9,2.6,0.3c0,0,11.6-3.9,11.5-10.5c-0.1-12-15.8-17.1-20-17C129.5,14.2,131.4,20,132.5,27.7z"/>
				</defs>
				<clipPath id="SVGID_00000137114364114556364910000015915657916225590695_">
					<use xlink:href="#SVGID_00000024709216763781458600000012042300828797225347_"  style="overflow:visible;"/>
				</clipPath>
				<g style="clip-path:url(#SVGID_00000137114364114556364910000015915657916225590695_);">
					<path class="st7" d="M132.5,27.7c0.1,4.5-2.4,6.7-2.1,7.5c0.2,0.7,1.3,0.9,2.6,0.3c0,0,11.6-3.9,11.5-10.5
						c-0.1-12-15.8-17.1-20-17C129.5,14.2,131.4,20,132.5,27.7z"/>
					<path class="st19" d="M130.8,29.4c2.3-1.9,5.4-2.6,8.3-2c5.1,1,1.6,6.2-3.3,8.1"/>
					<path class="st19" d="M129.6,26.4c0,0,0.6-3.1,4.8-6.1s10.7-0.7,10.7,5.3"/>
					<path class="st19" d="M137.8,12.5c-1.1-0.5-2.3-0.5-3.4-0.1c-2.7,1.2-4.7,3.6-5.3,6.6"/>
					<path class="st19" d="M128.2,7.6c0,0-3.8,0.5-3.8,6.7"/>
				</g>
			</g>
		</g>
	</g>
</g>
<g id="l-forearm">
	<g>
		<g>
			<g>
				<defs>
					<path id="SVGID_00000021801141429710495060000002631133331750430878_" d="M37.6,148.9c0,0-29,21.6-35,60.2
						c-1.9,12.1,3.3,14.1,6.6,15.3c7.2,2.6,18.6-10.6,20.4-12.6c2.6-2.9,14.9-14.6,20.4-19.8c7.2-6.7,13.7-18.8,10.6-26.6
						c0,0-10.4,7.5-15.5,1.4S45.7,154.1,37.6,148.9z"/>
				</defs>
				<clipPath id="SVGID_00000062151870404515982220000014627942057367774352_">
					<use xlink:href="#SVGID_00000021801141429710495060000002631133331750430878_"  style="overflow:visible;"/>
				</clipPath>
				<g style="clip-path:url(#SVGID_00000062151870404515982220000014627942057367774352_);">
					
						<rect x="-11.7" y="165.2" transform="matrix(0.5101 -0.8601 0.8601 0.5101 -145.7161 119.0781)" class="st2" width="86.7" height="44.5"/>
					<path class="st3" d="M50,158.2c0,0,4.6,16.6-5.7,28.9c-8.6,10.4-19.2,17.6-23.4,22.8c-3.9,4.9-16.5,14-16.5,14l26.5,10.2
						l34.8-50.6L69,162L50,158.2z"/>
				</g>
			</g>
		</g>
	</g>
</g>
<g id="l-hand">
	<path class="st4" d="M8.1,234.2c1,1.2,1.6,2.6,1.7,4.1c0,2-0.7,3-1.7,3s-4.7-4.7-4.7-4.7l2.7-5.1L8.1,234.2z"/>
	<path class="st0" d="M21.6,238.4c-3.2,2-3.8-0.9-4.4-5.3c-0.3-2.4-2.5-2.9-4.3-2.1c-2.6,1-4.1,5.7-4.1,8.2c0,3.6-1.9,4.6-4,3.6
		c-2.6-1.2-2-6.6-2-6.6c-0.6-1.2-1.1-2.2-1.5-3.1c-1.1-2.5-1.3-4.2-1.3-7.9c0-5.6,1-12.3,2.6-16c2.6-6.1,13.2-7.4,13.2-7.4
		C27.6,216.7,26.8,235.2,21.6,238.4z"/>
	<path class="st4" d="M4.5,223.9c-1.1,3.9-1.6,8-1.7,12.1c-0.6-1.2-1.1-2.2-1.5-3.1C1.8,229.8,2.8,226.7,4.5,223.9z"/>
</g>
</svg>
