<?xml version="1.0" encoding="utf-8"?>
<!-- Generator: Adobe Illustrator 26.5.0, SVG Export Plug-In . SVG Version: 6.00 Build 0)  -->
<svg version="1.1" id="Layer_1" xmlns="http://www.w3.org/2000/svg" xmlns:xlink="http://www.w3.org/1999/xlink" x="0px" y="0px"
	 viewBox="0 0 260.9 499.2" style="enable-background:new 0 0 260.9 499.2;" xml:space="preserve">
<style type="text/css">
	.st0{fill:#770D7B;}
	.st1{fill:#AE1D9E;}
	.st2{fill:#6E983B;}
	.st3{fill:#577E2A;}
	.st4{clip-path:url(#SVGID_00000085221323110324514530000000251815980023415218_);fill:#F5D900;}
	
		.st5{clip-path:url(#SVGID_00000085221323110324514530000000251815980023415218_);fill:none;stroke:#D9B600;stroke-width:4.611;stroke-miterlimit:10;}
	.st6{clip-path:url(#SVGID_00000085221323110324514530000000251815980023415218_);fill:#AE1D9E;}
	
		.st7{clip-path:url(#SVGID_00000085221323110324514530000000251815980023415218_);fill:none;stroke:#AE1D9E;stroke-width:20.386;stroke-miterlimit:10;}
	.st8{fill:#F5D800;}
	.st9{fill:#A81A97;}
	.st10{fill:#F1EFDB;}
	.st11{fill:none;stroke:#AE1D9E;stroke-width:6.795;stroke-miterlimit:10;}
	.st12{fill:#E3DFB8;}
	.st13{fill:#F5D900;}
	.st14{fill:#FF9C00;}
	.st15{fill:#D9B600;}
	.st16{fill:#3A5CF9;}
	.st17{fill:#2A4500;}
	.st18{fill:#648530;}
	.st19{fill:#242D24;}
	.st20{fill:#E5E5E5;}
	.st21{opacity:0.5;fill:#F5D900;enable-background:new    ;}
	.st22{fill:none;stroke:#AE1D9E;stroke-width:3.02;stroke-linecap:round;stroke-miterlimit:10;}
</style>
<path class="st0" d="M168.7,137.4c5.9,0.4,11.8,1.1,17.7,2.1c8.2,1.4-2.5,55.4-11,68.2l-19.2-9.8c0,0,21.3-56.5,6.5-62.8
	L168.7,137.4z"/>
<path class="st0" d="M37.6,169.4c0.5-1.2,2.4-2.9,5.6-3.5c-0.3-1.8-0.4-3.6-0.3-5.4c-3,0.5-5.7,2.2-7.5,4.6c-4.5,6.2,1,16.4,1,16.4
	s14.9,24,20.9,28.9l2.4-2.8c0,0-13.8-17.2-20.5-28.6C39.1,179.1,36,173.1,37.6,169.4z"/>
<path class="st0" d="M50.9,155.3c0,0-9.5,4-15.5,9.8s10,41.8,18.5,54.6l16.3-9.8c0,0-21.3-56.5-6.5-62.8L50.9,155.3z"/>
<path class="st1" d="M218.3,258.9c0,79.2-62.9,128.1-97.6,128.1s-97.6-48.9-97.6-128.1s43.7-115.4,97.6-115.4
	S218.3,179.8,218.3,258.9z"/>
<path class="st1" d="M166.2,141.2c-4.5-6.3-25-9.4-45.5-9.4s-41,3.1-45.5,9.4c-9,12.5-26.1,32.1-30.6,48.6h152.1
	C192.3,173.3,175.2,153.7,166.2,141.2z"/>
<path class="st0" d="M59.6,180c4.7-8.2,11.3-16.8,17-24.3c2.3-3,4.5-5.9,6.4-8.5c2.4-1.8,14.8-5.6,37.7-5.6s35.3,3.8,37.7,5.6
	c1.9,2.6,4.1,5.5,6.4,8.5c5.7,7.4,12.2,16,17,24.3H59.6z"/>
<path class="st2" d="M175,271.1c-16.8,9.9-42,16.5-53.5,16.5c-11.3,0-36.2-6.4-52.4-16c-37.1-21.9-21.6-60.5-14.7-77.7
	c10-25.2,30.1-46.8,67.1-46.8c25.2,0,42.4,10.7,54.1,25c4.5,5.6,8.4,11.7,11.4,18.3c0.6,1.2,1.1,2.4,1.6,3.5
	C196.4,211.7,212,249.3,175,271.1z"/>
<path class="st3" d="M187,190.3c-0.8,4.9-2.8,8.7-7.3,8.1c-11.5-1.7-12.3-10.5-12.3-10.5l10.9-2.2l-2.7-13.7
	C180.1,177.7,183.9,183.8,187,190.3z"/>
<path class="st2" d="M155.5,160.5c0,0-3.8,17.3-34.8,17.3s-34.8-17.3-34.8-17.3s13.2-11.2,13.2-53.7C99,95,96.2,83.3,91,72.7h59.4
	c-5.2,10.6-8,22.3-8.1,34.1C142.3,149.7,155.5,160.5,155.5,160.5z"/>
<path class="st3" d="M125.2,133.3c-0.6,8.9-4.5,35.1-4.5,35.1s-3.9-26.2-4.5-35.1c-0.7-9.6-4-30.4-5.5-38.5S95.5,73.9,95.5,73.9
	h50.4c0,0-13.6,12.8-15.2,20.9S125.9,123.7,125.2,133.3z"/>
<g>
	<defs>
		<path id="SVGID_1_" d="M206,260.1c0,69.2-55,112-85.3,112s-85.3-42.8-85.3-112c-0.1-12.8,1.4-25.5,4.6-37.8
			c15.6-5.8,31.7-12.9,40.9-39.6c10-3.3,25.5-5.5,39.9-5.5c15.4,0,29.8,2.2,42.3,6.8c6.7,22.5,25,31.9,38.5,38.3
			C204.6,234.6,206.2,247.3,206,260.1z"/>
	</defs>
	<clipPath id="SVGID_00000092450155638741631990000000956328935180387238_">
		<use xlink:href="#SVGID_1_"  style="overflow:visible;"/>
	</clipPath>
	<path style="clip-path:url(#SVGID_00000092450155638741631990000000956328935180387238_);fill:#F5D900;" d="M49.9,161.8
		c0.1,2,0.4,4,1,5.9c1.1,4.5-5.8,6.4-7,1.9c-0.7-2.5-1.1-5.2-1.2-7.8h-10v217.3h175.7V161.8H49.9z"/>
	
		<polyline style="clip-path:url(#SVGID_00000092450155638741631990000000956328935180387238_);fill:none;stroke:#D9B600;stroke-width:4.611;stroke-miterlimit:10;" points="
		157.7,336.8 139.2,354.8 102.2,354.8 83.8,336.8 	"/>
	
		<polyline style="clip-path:url(#SVGID_00000092450155638741631990000000956328935180387238_);fill:none;stroke:#D9B600;stroke-width:4.611;stroke-miterlimit:10;" points="
		163.9,305.3 142.3,326.3 99.1,326.3 77.6,305.3 	"/>
	
		<polyline style="clip-path:url(#SVGID_00000092450155638741631990000000956328935180387238_);fill:none;stroke:#D9B600;stroke-width:4.611;stroke-miterlimit:10;" points="
		170.1,272.1 145.4,296.1 96,296.1 71.3,272.1 	"/>
	
		<polyline style="clip-path:url(#SVGID_00000092450155638741631990000000956328935180387238_);fill:none;stroke:#D9B600;stroke-width:4.611;stroke-miterlimit:10;" points="
		176.3,237.2 148.5,264.3 92.9,264.3 65.1,237.2 	"/>
	
		<polyline style="clip-path:url(#SVGID_00000092450155638741631990000000956328935180387238_);fill:none;stroke:#D9B600;stroke-width:4.611;stroke-miterlimit:10;" points="
		182.5,203 151.6,233.1 89.8,233.1 58.9,203 	"/>
	
		<path style="clip-path:url(#SVGID_00000092450155638741631990000000956328935180387238_);fill:none;stroke:#D9B600;stroke-width:4.611;stroke-miterlimit:10;" d="
		M82.1,225.5c0,0-33.6,21.4-54.3,42.7"/>
	
		<path style="clip-path:url(#SVGID_00000092450155638741631990000000956328935180387238_);fill:none;stroke:#D9B600;stroke-width:4.611;stroke-miterlimit:10;" d="
		M87.5,259.9c0,0-33.6,21.4-54.3,42.7"/>
	
		<path style="clip-path:url(#SVGID_00000092450155638741631990000000956328935180387238_);fill:none;stroke:#D9B600;stroke-width:4.611;stroke-miterlimit:10;" d="
		M93,294.4c0,0-33.6,21.4-54.3,42.7"/>
	
		<path style="clip-path:url(#SVGID_00000092450155638741631990000000956328935180387238_);fill:none;stroke:#D9B600;stroke-width:4.611;stroke-miterlimit:10;" d="
		M98.5,326.3c0,0-33.6,21.4-54.3,42.7"/>
	
		<path style="clip-path:url(#SVGID_00000092450155638741631990000000956328935180387238_);fill:none;stroke:#D9B600;stroke-width:4.611;stroke-miterlimit:10;" d="
		M157.5,225.5c0,0,33.6,21.4,54.3,42.7"/>
	
		<path style="clip-path:url(#SVGID_00000092450155638741631990000000956328935180387238_);fill:none;stroke:#D9B600;stroke-width:4.611;stroke-miterlimit:10;" d="
		M152.1,259.9c0,0,33.6,21.4,54.3,42.7"/>
	
		<path style="clip-path:url(#SVGID_00000092450155638741631990000000956328935180387238_);fill:none;stroke:#D9B600;stroke-width:4.611;stroke-miterlimit:10;" d="
		M146.6,294.4c0,0,33.6,21.4,54.3,42.7"/>
	
		<path style="clip-path:url(#SVGID_00000092450155638741631990000000956328935180387238_);fill:none;stroke:#D9B600;stroke-width:4.611;stroke-miterlimit:10;" d="
		M141.1,326.3c0,0,33.6,21.4,54.3,42.7"/>
	<path style="clip-path:url(#SVGID_00000092450155638741631990000000956328935180387238_);fill:#AE1D9E;" d="M71.1,201.1
		c0,0,21.2,6.4,50.8,6.4c29.1,0,50-6.4,50-6.4l-4.3-40.3l-91.5,1.6L71.1,201.1z"/>
	
		<path style="clip-path:url(#SVGID_00000092450155638741631990000000956328935180387238_);fill:none;stroke:#AE1D9E;stroke-width:20.386;stroke-miterlimit:10;" d="
		M31.3,225.3c21.1-6.4,40.4-14.1,49.5-42.6c10-3.3,25.5-5.5,39.9-5.5c15.4,0,29.8,2.2,42.3,6.8c7.2,25.6,33,36.6,47.1,41.3"/>
</g>
<polygon class="st8" points="99.9,185.9 141.5,185.9 120.7,221.9 "/>
<polygon class="st9" points="113.3,196.1 118.8,196.1 118.8,205.7 120.7,208.9 122.6,205.7 122.6,196.1 128.1,196.1 130.2,192.4 
	111.2,192.4 "/>
<path class="st9" d="M141.5,185.9H99.9l20.8,36L141.5,185.9z M140.3,186.6l-1.9,3.2h-3c-0.2-0.7-0.8-1.1-1.5-0.9
	c-0.5,0.1-0.8,0.5-0.9,0.9h-24.7c-0.1-0.6-0.6-1-1.2-1c-0.1,0-0.3,0-0.4,0.1l-1.3-2.3H140.3z M133.5,191l-12.4,21.4
	c-0.2-0.1-0.5-0.1-0.7,0L108,191c0.2-0.2,0.3-0.4,0.4-0.6h24.7C133.1,190.6,133.3,190.8,133.5,191L133.5,191z M104.8,186.6l1.5,2.6
	c-0.5,0.5-0.5,1.3-0.1,1.8c0.2,0.3,0.6,0.4,0.9,0.4c0.1,0,0.3,0,0.4-0.1l12.4,21.4c-0.5,0.5-0.5,1.3-0.1,1.8c0,0,0,0,0.1,0.1
	l-1.3,2.3l-17.5-30.3H104.8z M120.7,220.6l-1.9-3.2l1.5-2.6c0.1,0,0.2,0.1,0.4,0.1c0.7,0,1.3-0.6,1.3-1.3c0-0.4-0.1-0.7-0.4-0.9
	l12.4-21.4c0.1,0,0.2,0.1,0.4,0.1c0.6,0,1.1-0.4,1.2-1h2.6L120.7,220.6z"/>
<path id="arm-l" class="st2" d="M79.6,165.4c0,0-5.4-5.9-22.4-2.7s-42.8,18.6-51.1,30.9c-6.2,9.1-1.2,20.7,6.9,26.6s21.8,5.3,33-8.7
	C56,199,76.1,199,81.8,192.9S88,168.7,79.6,165.4z"/>
<path id="arm-r" class="st2" d="M166.8,183.5c0,0,6.1,5.2,22.6-0.1s40.1-23.8,46.9-37.1c5-9.9-1.4-20.7-10.2-25.6
	s-22.2-2.5-31.6,12.8c-8.4,13.6-28.5,19.9-42.5,24.9C144.1,161.3,158,181.2,166.8,183.5z"/>
<path class="st10" d="M48,256.6c3.2,2.3,6.3,7.5,4.6,9.9s-7.6,1.1-10.8-1.2s-4.4-6.1-2.7-8.5S44.8,254.3,48,256.6z"/>
<path class="st10" d="M58.4,253.2c3.2,2.3,6.3,7.5,4.6,9.9s-7.6,1.1-10.8-1.2s-4.4-6.1-2.7-8.5S55.2,250.9,58.4,253.2z"/>
<path class="st10" d="M66.1,245.6c3.2,2.3,6.3,7.5,4.6,9.9c-1.7,2.4-7.6,1.1-10.8-1.2s-4.4-6.1-2.7-8.5S62.9,243.3,66.1,245.6z"/>
<path class="st10" d="M68.8,231.7c3.8,1.1,8.5,4.9,8.2,7.8s-6.2,6-10,4.9s-6.2-4.3-5.4-7.1S65,230.6,68.8,231.7z"/>
<path class="st2" d="M0.8,214c2.5,8.4,17,37,32.4,46.4s29.3-6.5,36-18.6s-9.3-29.8-17.8-37.4S29.5,186.3,24.9,185
	C16.8,182.6-4.5,196.2,0.8,214z"/>
<path class="st2" d="M189.2,323.9c14.5,12.8,22.2,46.1,17.6,72.4s-46.5,17-51.1,6.2s-1.2-25.2-5.4-35.6
	c-7.9-19.4,18.7-36.8,20.5-38.3C180.4,320.5,189.2,323.9,189.2,323.9z"/>
<path class="st11" d="M145,371.2c-4.9-12.1,17.4-38.9,23.7-44.3c11.1-9.4,25.4-5.4,25.4-5.4"/>
<path class="st2" d="M233.1,151.2c6.2-6.2,24.5-32.5,25.5-50.5S239,78,225.2,77.9s-21.9,22.3-24.5,33.4s-5.5,27.8-4.5,32.5
	C197.9,152.2,220,164.4,233.1,151.2z"/>
<path class="st12" d="M250.2,91.4c0.8-3.9,4.3-8.8,7.2-8.2s4.1,6.5,3.3,10.4s-3.8,6.5-6.7,5.9S249.4,95.3,250.2,91.4z"/>
<path class="st12" d="M243,83.2c0.8-3.9,4.3-8.8,7.2-8.2s4.1,6.5,3.3,10.4s-3.8,6.5-6.7,5.9S242.2,87.1,243,83.2z"/>
<path class="st12" d="M232.9,79.2c0.8-3.9,4.3-8.8,7.2-8.2s4.1,6.5,3.3,10.4s-3.8,6.5-6.7,5.9S232.1,83.1,232.9,79.2z"/>
<path class="st12" d="M219.1,82.3c-0.5-3.9,1.1-9.7,3.9-10.6s8,3.3,8.5,7.2s-1.4,7.4-4.4,7.8S219.6,86.3,219.1,82.3z"/>
<path class="st2" d="M52.2,323.9C37.7,336.7,30,370,34.6,396.3s46.5,17,51.1,6.2s1.2-29.7,5.4-40.2s-15-29.2-20.5-33.8
	C61,320.5,52.2,323.9,52.2,323.9z"/>
<path class="st11" d="M95.6,371.2c4.9-12.1-17.4-38.9-23.7-44.3c-11.1-9.4-25.4-5.4-25.4-5.4"/>
<path class="st13" d="M58,451.3c0,0,11.7,20.1,21.7,28.5v-6.5c0,0,19.7,20.3,30.2,26c0,0-2.9-12-5.5-21.1l5.6,4.4
	c0,0-3.9-26.4-9.4-35.1S58,451.3,58,451.3z"/>
<path class="st14" d="M63.8,442.2c-1.4,7.3,12.4,23.8,12.4,23.8l0.5-9.3l19.5,23.5L95,463.5l4,3.3c0,0-0.6-14.3-9.9-25.2
	S65.1,436,63.8,442.2z"/>
<path class="st15" d="M62.7,431.3c-1.7-6.3-5.1-11.4-9-14.2l-1.2-4.2L45,415c-6.7,1.9-9.7,12.2-6.7,23s10.9,18.1,17.6,16.2l7.5-2.1
	l-1.2-4.2C64.2,443.6,64.4,437.5,62.7,431.3z"/>
<ellipse transform="matrix(0.9634 -0.2681 0.2681 0.9634 -113.8546 31.3932)" class="st13" cx="58" cy="432.6" rx="12.6" ry="20.4"/>
<path class="st16" d="M21.9,374.2c0.4-5.4,1.9-16.9,17.3-19.8s42.7,15.4,51.1,26.4s3.1,17.9,3.8,23.8s20,32.4,15.1,42.3
	s-28.5,14.3-46.6,7.5c-15.2-5.7-31.3-32.1-34.9-41.1C22.7,401,20.7,387.6,21.9,374.2z"/>
<path class="st13" d="M44,338.4l-9.8,7.1c0,0-2.4,14.7,0,23.7c1.9,7.1,5.2,11,7.2,12.8c0,0,5.8-8.4,7-13.4s4.4-14.2,5.8-18.6
	S44,338.4,44,338.4z"/>
<path class="st15" d="M105.2,434.6c-1.7-6.3-5.1-11.4-9-14.2l-1.2-4.2l-7.5,2.1c-6.7,1.9-9.7,12.2-6.7,23s10.9,18.1,17.6,16.2
	l7.5-2.1l-1.2-4.2C106.7,447,107,440.9,105.2,434.6z"/>
<ellipse transform="matrix(0.9634 -0.2681 0.2681 0.9634 -113.1763 42.9293)" class="st13" cx="100.6" cy="435.9" rx="12.6" ry="20.4"/>
<path class="st13" d="M183.4,451.3c0,0-11.7,20.1-21.7,28.5v-6.5c0,0-19.7,20.3-30.2,26c0,0,2.9-12,5.5-21.1l-5.6,4.4
	c0,0,3.9-26.4,9.4-35.1S183.4,451.3,183.4,451.3z"/>
<path class="st14" d="M177.6,442.2c1.4,7.3-12.4,23.8-12.4,23.8l-0.5-9.3l-19.5,23.5l1.3-16.8l-4,3.3c0,0,0.6-14.3,9.9-25.2
	S176.4,436,177.6,442.2z"/>
<path class="st15" d="M178.7,431.3c1.7-6.3,5.1-11.4,9-14.2l1.2-4.2l7.5,2.1c6.7,1.9,9.7,12.2,6.7,23s-10.9,18.1-17.6,16.2l-7.5-2.1
	l1.2-4.2C177.3,443.6,177,437.5,178.7,431.3z"/>
<ellipse transform="matrix(0.2681 -0.9634 0.9634 0.2681 -282.4969 493.3473)" class="st13" cx="183.4" cy="432.6" rx="20.4" ry="12.6"/>
<path class="st16" d="M219.5,374.2c-0.4-5.4-1.9-16.9-17.3-19.8s-42.7,15.4-51.1,26.4s-3.1,17.9-3.8,23.8s-20,32.4-15.1,42.3
	s28.5,14.3,46.6,7.5c15.2-5.7,31.3-32.1,34.9-41.1C218.7,401,220.7,387.6,219.5,374.2z"/>
<path class="st13" d="M197.4,338.4l9.8,7.1c0,0,2.4,14.7,0,23.7c-1.9,7.1-5.2,11-7.2,12.8c0,0-5.8-8.4-7-13.4s-4.4-14.2-5.8-18.6
	S197.4,338.4,197.4,338.4z"/>
<path class="st15" d="M136.2,434.6c1.7-6.3,5.1-11.4,9-14.2l1.2-4.2l7.5,2.1c6.7,1.9,9.7,12.2,6.7,23s-10.9,18.1-17.6,16.2l-7.5-2.1
	l1.2-4.2C134.7,447,134.5,440.9,136.2,434.6z"/>
<ellipse transform="matrix(0.2681 -0.9634 0.9634 0.2681 -316.9866 454.6509)" class="st13" cx="140.7" cy="435.9" rx="20.4" ry="12.6"/>
<path class="st1" d="M186.4,139.5c-7.9-2.2-15.9-4.1-24-5.4c-12.1-2-21.9,21.5-19.6,70l18.5-1.1c0,0,2.5-29.9,10-47.4
	C178.6,138.4,186.4,139.5,186.4,139.5z"/>
<path class="st0" d="M161.1,203.6c0,0,2.2-43.4,15.7-58.8c0,0,4.8-5.7,9.6-5.4l-1.7,4.1c0,0-4.1,0.1-9.2,9.3
	c-2.9,5.3-9.7,16.9-13.5,51.7L161.1,203.6z"/>
<path class="st1" d="M38.5,162.2c0,0,11.9-11.2,25.2-15.1c11.8-3.5,35.7,12.4,35.7,59.3l-18.5-1.1c0,0-5.4-29.3-20.9-40
	C47.9,157,38.5,162.2,38.5,162.2z"/>
<path class="st0" d="M55,162.2c-5.4-2.5-12-2.9-16.6,0c0.9,1.4,1.8,2.8,2.6,4.3c3.7-1.5,10.3-1.6,18.9,4.8
	c13.1,9.8,19.5,36.3,19.5,36.3l1.4-2.4C73.3,170.9,61.8,165.3,55,162.2z"/>
<path class="st2" d="M155.3,70.4c-6.1,7-17.6,9-34.6,9s-28.5-2-34.6-9c-6.2-7.1-5.2-23.2-5.2-31.2s6.2-9.9,13.4-17.6
	c3.9-4.1,16.4-6.8,26.4-6.8s22.8,2.5,26.4,6.8c6.7,8,13.4,9.5,13.4,17.6S161.4,63.3,155.3,70.4z"/>
<ellipse class="st17" cx="117.1" cy="39.8" rx="2.4" ry="2.6"/>
<ellipse class="st17" cx="124.3" cy="39.8" rx="2.4" ry="2.6"/>
<path class="st17" d="M154.6,51.7c-1.1,3.1-3.6,5.5-6.7,6.5c-3.1,1.1-6.5,0.9-9.6,0.5s-6.1-0.9-8.9-0.1c-2.9,0.8-5.6,2.1-7.9,3.9
	l-0.7,0.6l-0.7-0.6c-2.4-1.8-5.1-3.1-7.9-3.9c-2.8-0.8-5.8-0.3-8.9,0.1c-1.6,0.2-3.2,0.4-4.8,0.3c-1.6,0-3.3-0.3-4.8-0.8
	c-3.1-1-5.6-3.4-6.7-6.5c1.4,2.8,4,4.8,7,5.5c2.9,0.8,6,0.4,9-0.2c1.5-0.3,3.1-0.6,4.7-0.8c1.7-0.2,3.4-0.1,5,0.3
	c1.6,0.4,3.2,0.9,4.6,1.6c1.5,0.7,2.9,1.6,4.2,2.6H120c1.3-1,2.7-1.9,4.2-2.6c1.5-0.7,3-1.3,4.6-1.6c1.6-0.4,3.3-0.5,5-0.3
	c1.6,0.1,3.2,0.5,4.7,0.8c3,0.6,6.1,1,9,0.2C150.6,56.5,153.2,54.5,154.6,51.7z"/>
<path class="st18" d="M94.1,25.6c0,0,3.3-2.9,6.4-2.5s7.1,3.2,9.1,7.4c0,0-6.7,5.5-9.1,11.4s-9.2,3.4-10.5,0
	C88.1,36.1,89.7,29.7,94.1,25.6z"/>
<path class="st18" d="M147.1,25.6c0,0-3.3-2.9-6.4-2.5s-7.1,3.2-9.1,7.4c0,0,6.7,5.5,9.1,11.4s9.2,3.4,10.5,0
	C153,36.1,151.4,29.7,147.1,25.6z"/>
<path class="st19" d="M106.3,33c-2,2-5.3,4.5-7.8,3.7c-2.8-0.9-3.5-5.1-1.9-8.5s5.1-5.1,7.8-3.7S109,30.3,106.3,33z"/>
<ellipse transform="matrix(0.9477 -0.3192 0.3192 0.9477 -3.5985 34.4793)" class="st20" cx="103.4" cy="28.2" rx="1.7" ry="2.3"/>
<path class="st19" d="M135.1,33c2,2,5.3,4.5,7.8,3.7c2.8-0.9,3.5-5.1,1.9-8.5s-5.1-5.1-7.8-3.7S132.4,30.3,135.1,33z"/>
<ellipse transform="matrix(0.7699 -0.6382 0.6382 0.7699 14.5654 96.7778)" class="st20" cx="141.5" cy="28.2" rx="1.7" ry="2.3"/>
<path class="st18" d="M106.7,38.3c-0.3-1.6,0-3.3,0.8-4.8c0.9-1.5,2.1-2.7,3.7-3.5c3-1.4,6.3-2.1,9.6-2c3.3-0.1,6.6,0.6,9.6,2
	c1.5,0.8,2.8,2,3.7,3.5c0.8,1.5,1,3.1,0.8,4.8c-0.3-3-2.4-5.6-5.2-6.6c-1.4-0.5-2.8-0.9-4.3-1c-3-0.4-6-0.4-9,0
	c-1.5,0.2-2.9,0.5-4.3,1C109.1,32.8,107,35.3,106.7,38.3L106.7,38.3z"/>
<path class="st1" d="M133.9,16.3l-13.2,4.3l-13.2-4.3L110.4,4c0.5-2.3,3.2-4,6.5-4h7.6c3.2,0,6,1.7,6.5,4L133.9,16.3z"/>
<path class="st21" d="M156.4,21.9c-11.8,2.1-23.7,3.2-35.7,3.1c-20.1,0-33.4-3.1-33.4-3.1s-6.4,1.1-6.4,8.7
	c0,10.3,15.3,18.6,22.6,7.5c7.3-11.2,17.3-10.5,17.3-10.5l0,0c0,0,10-0.7,17.3,10.5s22.6,2.9,22.6-7.5
	C160.5,27.2,159,24.1,156.4,21.9z"/>
<path class="st22" d="M158.1,21.8c-12.4,2.1-24.9,3.2-37.4,3.2s-25-1.1-37.4-3.2"/>
</svg>
