<?xml version="1.0" encoding="utf-8"?>
<!-- Generator: Adobe Illustrator 26.5.0, SVG Export Plug-In . SVG Version: 6.00 Build 0)  -->
<svg version="1.1" id="Layer_1" xmlns="http://www.w3.org/2000/svg" xmlns:xlink="http://www.w3.org/1999/xlink" x="0px" y="0px"
	 viewBox="0 0 348.4 557.8" style="enable-background:new 0 0 348.4 557.8;" xml:space="preserve">
<style type="text/css">
	.st0{fill:#AE1D9E;}
	.st1{fill:#770D7B;}
	.st2{fill:#7A4338;}
	.st3{fill:#3A5CF9;}
	.st4{fill:#F5D900;}
	.st5{fill:#68312C;}
	.st6{fill:#CBCBCB;}
	.st7{fill:#481F05;}
	.st8{fill:#A81A97;}
	.st9{fill:#D9B600;}
	.st10{fill:#CB544E;}
	.st11{fill:#AB7656;}
	.st12{fill:#1A1A1A;}
	.st13{fill:#6E362D;}
	.st14{fill:#3A0F0D;}
</style>
<path class="st0" d="M330.6,267.3c0,43.9-18,92.6-25.5,109.2c-3.7,8.2-19.9,20.1-37.4,28.8c-7.9,4-16.2,7.1-24.8,9.3l0,0
	c-8.7,2.1-16.2,2.2-20.9-0.6c-1.7-1-3.5-1.7-5.4-2.2c-13.7-3.9-37.7-0.6-62.2,2.3c-13.8,1.7-27.7,3.2-39.9,3.3
	c-17.8,0.1-32.8-3-43.7-7.2C59,405.6,52,399.8,51.4,395.6c-0.7-5.3,3.5-8.6,1-11.4c-1.3-1.4-4.5-2.7-11.2-4
	c-8.7-1.8-13.9-5.8-16.7-10.8c-3.5-6.1-3.4-13.5-2.1-19.5C24.7,339,0,331.4,0,331.4s7.4-12,23.9-25.1s68.4-47.8,70.8-112.1
	s43.2-77,43.2-77c66-21.9,133.7,5.1,133.7,5.1s31.5,39,39.9,64S330.5,237.4,330.6,267.3z"/>
<path class="st1" d="M138.9,167.1c-0.3,1.5-10.6,51.2-31,92.6C87,301.8,24.5,369.3,24.5,369.3c-3.5-6.1-3.4-13.5-2.1-19.5
	C108.7,274.5,138.2,169.4,138.9,167.1z"/>
<path class="st1" d="M127.2,321.3c-22.3,45.2-45.6,75.7-56.5,88.8c-11.8-4.6-18.8-10.4-19.4-14.6c-0.7-5.3,3.5-8.6,1-11.4
	c0,0,44.4-38.8,64.8-86.4s30.1-109.2,28.5-139.9C145.7,157.8,157.8,259.6,127.2,321.3z"/>
<path class="st1" d="M314.7,268.2c-3.2,48.6-27.3,94.7-27.3,94.7l-19.8,42.3c-7.9,4-16.2,7.1-24.8,9.3c0.5-0.9,38.2-64.6,51.1-105.3
	c13-41,7.8-100-24.9-177.7C270.5,134.2,317.9,220.3,314.7,268.2z"/>
<path class="st1" d="M291.3,258.5c-5.7,31.5-32.9,83.4-39.4,94.4c-4.6,7.7-24.1,40.1-35.4,58.8c-13.7-3.9-37.7-0.6-62.2,2.3
	c13.6-18.7,79.8-112.3,93.4-182.4c15.2-78.2,21.4-100.1,21.4-100.1S300.4,208.6,291.3,258.5z"/>
<path class="st2" d="M149.7,173.5c-0.3,13.5-20,36.7-38.1,55.2l0,0C96.1,244.6,81.8,257,81.8,257s-15.7,1.1-24.2-3.8
	c-6.6-3.8-6.7-12.7-5.8-18.6c0.7-4.9,1.9-9.6,3.4-14.3c1.1-3.4,5.5-12.3,12-23.1c9.1-15.1,22.4-33.8,36.8-46.1
	c12-10.1,25.5-18.2,40.1-24C144,127.1,149.9,163.9,149.7,173.5z"/>
<path class="st3" d="M149.7,173.5c-0.3,13.5-20,36.7-38.1,55.2l0,0c-4.6-1.1-11.6-3.7-21.4-9.3c-9.4-5.4-17.3-13-23-22.2
	c9.1-15.1,22.4-33.8,36.8-46.1c12-10.1,25.5-18.2,40.1-24C144.1,127.1,149.9,163.9,149.7,173.5z"/>
<path class="st2" d="M200.8,443.1c-172.4,0-115.6-100.2-99.2-130.3c12-22.1,13.5-42.9,11-86.2c-4.5-78.6,20.7-81.2,25.4-94.5
	c2.1-6.3,3.7-12.8,4.7-19.3c0.4-2.3,0.8-4.6,1.1-6.9c0.9-6.2,1.7-12.2,2.5-17.2l98-3.3c0,0,0.5,6.6,1.7,15c0.2,1.8,0.5,3.7,0.8,5.6
	c1.7,10.6,4.3,22.3,8,26.5c18.6,21.1,24.6,26,27.1,89.2c1.1,28-1,54.1,16,84.2C319.4,343.6,373.2,443.1,200.8,443.1z"/>
<path class="st3" d="M200.8,443.1c-172.4,0-115.6-100.2-99.2-130.3c3.7-6.7,6.6-13.9,8.5-21.4c1.5-5.9,2.4-11.9,2.9-18
	c1.1-12.5,0.8-27.4-0.3-46.8c-4.5-78.7,20.7-81.2,25.4-94.5c0.6-1.6,1.1-3.2,1.5-4.9c0,14.8,25.9,39.8,52.8,39.8
	c25,0,54.5-20.1,58.9-42c0.8,2.7,2,5.2,3.7,7.4c18.6,21.1,24.6,26,27.1,89.2c0.6,15.8,0.2,30.9,2.8,46.5c1,6,2.4,12,4.4,17.8
	c2.3,6.9,5.3,13.6,8.9,19.9C319.4,343.6,373.2,443.1,200.8,443.1z"/>
<path class="st4" d="M289.1,285.9c-29.9,10.6-61.3,16-93,16.1c-38.3,0-67.1-5.3-86-10.5c1.5-5.9,2.4-11.9,2.9-18
	c1.5,0.4,3,0.9,4.7,1.3c16,4.2,42.7,9.2,78.4,9.2c30.3-0.1,60.3-5.4,88.7-15.8C285.8,274.2,287.2,280.1,289.1,285.9z"/>
<path class="st5" d="M246.9,105.9c-4.1,3.1-9.2,7-11.3,9.7c-3.6,4-7.4,7.9-11.3,11.5l-3.8-5.5c-1.2,3-2.1,6.1-2.6,9.3
	c-1.1,5.9-5.3,11-5.3,11l-3.3-7.2c0,0,0.1,6.1-1.2,9.7c-1.3,3.3-8.8,12.5-11.8,13.4c1.1-5.2-1.3-17.6-1.3-17.6l-6,9.3
	c0,0-3.3-8.6-7.7-13.4c-3.7-4.1-13-11.7-13-11.7c-0.9,2.4-1.5,4.8-1.7,7.4c-4.2-2.4-16-12.4-23.7-19c0.4-2.3,0.8-4.6,1.1-6.9
	l85.4-7.9l16.9,2.3C246.3,102.2,246.6,104,246.9,105.9z"/>
<path class="st6" d="M95,311.1c0,0-9.5-6.2-7.8-13.8c2.7,3.8,6.7,6.5,11.2,7.5C103.6,305.9,95,311.1,95,311.1z"/>
<path class="st6" d="M98.2,306.6c0,0-9.5-6.2-7.8-13.8c2.7,3.8,6.7,6.5,11.2,7.5C106.8,301.4,98.2,306.6,98.2,306.6z"/>
<path class="st6" d="M102.8,303c0,0-9.5-6.2-7.8-13.8c2.7,3.8,6.7,6.5,11.2,7.5C111.4,297.8,102.8,303,102.8,303z"/>
<path class="st6" d="M107.7,300.9c0,0-9.5-6.2-7.8-13.8c2.7,3.8,6.7,6.5,11.2,7.5C116.2,295.7,107.7,300.9,107.7,300.9z"/>
<path class="st2" d="M127.6,265.7c0,0,9.8,9,10,15s-8.4,18.3-13.3,23.5s-14.6,12.4-28.7,7.2s10.3-23.3,10.3-23.3
	S115.7,259.7,127.6,265.7z"/>
<path class="st7" d="M96.8,294.7c-3,4.2-4.6,7.7-0.8,8.2s8.3-2.1,10.1-6.9c1.5-4,1.4-6.1,0.8-8.2C103.1,287.2,99.8,290.5,96.8,294.7
	z"/>
<path class="st2" d="M318.6,254.8c0,0,15.7,0.5,24-4.6c6.5-4,6.2-12.9,5.2-18.9c-2.1-12.3-5.9-18.7-5.9-18.7c1,1.4,2.2,2.7,3.5,3.9
	c-12.7-30-37.7-57.2-52.7-66.9c-13.1-8.4-26.8-16-40.9-22.6c0,0-4.6,37-4.1,46.6C249.2,198.7,318.6,254.8,318.6,254.8z"/>
<path class="st3" d="M247.8,173.7c-0.4,17.3,24.7,39.1,43.3,57.1l0,0c4.6-1.3,11.5-4,21.1-10c12.3-7.6,19.1-20.3,22.4-26
	c-9.5-14.8-22.6-30.6-37.3-42.6c-19.3-15.7-45.4-25.1-45.4-25.1S248,164.1,247.8,173.7z"/>
<path id="forearm-l" class="st2" d="M128.4,266.5c0,0,3.3,7.1-3.8,15.6c-7.4,8.8-15.4,6.8-15.4,6.8s-16-8.5-30.8-18.5
	c-3.2-2.2-6.3-4.6-9.2-7.2c0.3,1.2,0.7,2.4,1.4,3.5c-7.1-4.4-15.2-13-17.7-18.3c-4.1-8.8,30.4-26.5,30.4-26.5L128.4,266.5z"/>
<path class="st6" d="M306.8,309.1c0,0,9.5-6.2,7.8-13.8c-2.7,3.8-6.7,6.5-11.2,7.5C298.2,304,306.8,309.1,306.8,309.1z"/>
<path class="st6" d="M303.6,304.6c0,0,9.5-6.2,7.8-13.8c-2.7,3.8-6.7,6.5-11.2,7.5C295,299.5,303.6,304.6,303.6,304.6z"/>
<path class="st6" d="M299,301c0,0,9.5-6.2,7.8-13.8c-2.7,3.8-6.7,6.5-11.2,7.5C290.5,295.9,299,301,299,301z"/>
<path class="st6" d="M294.1,299c0,0,9.5-6.2,7.8-13.8c-2.7,3.8-6.7,6.5-11.2,7.5C285.6,293.8,294.1,299,294.1,299z"/>
<path class="st2" d="M274.2,263.8c0,0-9.8,9-10,15s8.5,18.3,13.4,23.5s14.6,12.4,28.7,7.2S296,286.2,296,286.2
	S286.1,257.8,274.2,263.8z"/>
<path class="st7" d="M305,292.7c3,4.2,4.6,7.7,0.8,8.2s-8.3-2.1-10.1-6.9c-1.5-4-1.4-6.1-0.8-8.2C298.7,285.3,302,288.6,305,292.7z"
	/>
<path id="forearm-r" class="st2" d="M272.4,265.8c0,0-3,7.2,4.3,15.4c7.7,8.6,15.6,6.2,15.6,6.2s15.7-9,30.2-19.6
	c3.1-2.3,6.1-4.9,8.9-7.6c-0.2,1.2-0.7,2.4-1.3,3.5c6.9-4.6,14.7-13.6,17-18.9c3.8-8.9-31.3-25.4-31.3-25.4L272.4,265.8z"/>
<path class="st2" d="M202.6,425.3c0,0-14.1,11.3-24.4,24.5c-7.2,9.3-12.6,19.5-10,27.4c7.2,21.7-69,18.7-79.3-3.8
	c-8.8-19.1-13.1-41.9-13.7-63.9c-0.8-31.9,6.4-62.1,19.2-77.2C140.9,277.8,202.6,425.3,202.6,425.3z"/>
<path class="st3" d="M202.6,425.3c0,0-14.1,11.3-24.4,24.5c-7.5,0.3-28,0.4-57.1-6.7c-24.1-5.9-38.7-22.6-45.9-33.6
	c-0.8-31.9,6.4-62.1,19.2-77.2C140.9,277.8,202.6,425.3,202.6,425.3z"/>
<path class="st2" d="M233.9,477.2c6.3-19.1-34.4-51.9-34.4-51.9s61.7-147.5,108.2-92.9c21.7,25.5,27.2,94.1,5.6,141
	C302.9,495.9,226.8,498.9,233.9,477.2z"/>
<path class="st3" d="M199.5,425.3c0,0,14.1,11.3,24.4,24.5c7.5,0.3,28,0.4,57.1-6.7c24.1-5.9,38.7-22.6,45.9-33.5
	c0.8-31.9-6.4-62.1-19.2-77.2C261.2,277.8,199.5,425.3,199.5,425.3z"/>
<path class="st2" d="M178.8,531.3c-19.5,9.8-48.1,0-48.1,0s-13.6-9.3-33-42.1c-2.8-4.7-5.7-10-8.8-15.8c-8-15.3,19.3-16.4,36.4-15.3
	s39.8,11.7,39.8,11.7c2.3,4.6,4.3,9.4,6,14.4l0,0C178.8,507.7,178.8,531.3,178.8,531.3z"/>
<path class="st4" d="M133.1,525.8c0,0-28.3,6.8-33.4,10.4c-6.4,4.5-6.2,10-6.2,14.2c0,6,17.5,7.6,33.4,7.5c13-0.1,24.8-5.4,30-6.3
	c11.5-2,23.8-3.9,24.4-9c0.8-7.8-3.4-24.8-3.4-24.8L133.1,525.8z"/>
<path class="st4" d="M178.8,531.3c-19.5,9.8-48.1,0-48.1,0s-10.6-7.2-26.4-31.5c-2.1-3.2-4.3-6.8-6.6-10.6c6.7-3.7,14-6.2,21.6-7.2
	c16.7-2.4,37.9-1.4,51.7,2.3l0,0c1.3,3.9,2.4,7.8,3.3,11.6C177,507.5,178.5,519.4,178.8,531.3z"/>
<path class="st3" d="M174.2,495.9c-14.5-4.1-36.4-6.4-51.3-3.9c-6.8,1.1-13.2,3.8-18.7,7.9c-2.1-3.2-4.3-6.8-6.6-10.6
	c6.7-3.7,14-6.2,21.6-7.2c16.7-2.4,37.9-1.4,51.7,2.3l0,0C172.3,488.1,173.4,492.1,174.2,495.9z"/>
<ellipse transform="matrix(0.917 -0.3989 0.3989 0.917 -182.9816 87.0194)" class="st3" cx="117.6" cy="483.2" rx="16.6" ry="18.3"/>
<path class="st2" d="M237.1,469.8c-13.7,27-13.7,61.5-13.7,61.5c19.5,9.8,48.1,0,48.1,0s17.8-12.1,41.8-57.9
	c8-15.3-19.3-16.4-36.4-15.3S237.1,469.8,237.1,469.8z"/>
<path class="st4" d="M223.4,531.3c19.5,9.8,48.1,0,48.1,0s10.6-7.2,26.4-31.5c2.1-3.2,4.3-6.8,6.6-10.6c-6.7-3.7-14-6.2-21.6-7.2
	c-16.7-2.4-37.9-1.4-51.7,2.3l0,0c-1.3,3.9-2.4,7.8-3.3,11.6C225.2,507.5,223.7,519.4,223.4,531.3z"/>
<path class="st3" d="M227.9,495.9c14.5-4.1,36.4-6.4,51.3-3.9c6.8,1.1,13.2,3.8,18.7,7.9c2.1-3.2,4.3-6.8,6.6-10.6
	c-6.7-3.7-14-6.2-21.6-7.2c-16.7-2.4-37.9-1.4-51.7,2.3l0,0C229.9,488.1,228.8,492.1,227.9,495.9z"/>
<ellipse transform="matrix(0.3989 -0.917 0.917 0.3989 -272.0779 551.4335)" class="st3" cx="284.6" cy="483.2" rx="18.3" ry="16.6"/>
<path class="st4" d="M269.3,525.8c0,0,28.3,6.8,33.4,10.4c6.4,4.5,6.2,10,6.2,14.2c0,6-17.5,7.6-33.4,7.5c-13-0.1-24.8-5.4-30-6.3
	c-11.5-2-23.8-3.9-24.4-9c-0.8-7.8,3.4-24.8,3.4-24.8L269.3,525.8z"/>
<path class="st4" d="M251.2,125.1c-7.3,25.4-38.4,42-58.9,42c-14.3,0-47.7-14.6-51.3-45.6c0,0-28,11.3-32.5,20.5
	c0,0,45.7,86.8,88.3,86.8s84.2-88.1,84.2-88.1C276.5,131.6,251.2,125.1,251.2,125.1z"/>
<polygon class="st8" points="187.9,188 194.3,188 194.3,199 196.5,202.8 198.7,199 198.7,188 205.1,188 207.6,183.6 185.4,183.6 "/>
<path class="st8" d="M220.6,176.1h-48.3l24.1,41.8L220.6,176.1z M219.3,176.9l-2.1,3.7h-3.4c-0.2-0.8-1-1.3-1.7-1.1
	c-0.6,0.1-1,0.6-1.1,1.1h-28.8c-0.2-0.7-0.7-1.1-1.4-1.1c-0.1,0-0.3,0-0.4,0.1l-1.5-2.6L219.3,176.9z M211.3,182L197,206.9
	c-0.1,0-0.3-0.1-0.4-0.1c-0.1,0-0.3,0-0.4,0.1L181.7,182c0.2-0.2,0.4-0.5,0.4-0.8h28.8C211,181.5,211.1,181.8,211.3,182L211.3,182z
	 M178,176.9l1.7,3c-0.6,0.5-0.6,1.5-0.1,2.1c0.3,0.3,0.7,0.5,1.1,0.5c0.1,0,0.3,0,0.4-0.1l14.4,24.9c-0.3,0.3-0.5,0.7-0.5,1.1
	c0,0.4,0.2,0.8,0.5,1.1L194,212l-20.3-35.2L178,176.9z M196.5,216.4l-2.2-3.7l1.7-3c0.1,0,0.3,0.1,0.4,0.1c0.8,0,1.5-0.6,1.5-1.5
	c0-0.4-0.2-0.8-0.5-1.1l14.4-24.9c0.1,0,0.3,0.1,0.4,0.1c0.7,0,1.3-0.5,1.4-1.1h3.1L196.5,216.4z"/>
<path class="st4" d="M300.4,149.2c-2.6,4.9-16,2.7-29.9-4.9s-22.9-17.6-20.3-22.4s10.6-12.6,32.8-0.5S303,144.3,300.4,149.2z"/>
<path class="st9" d="M302,142.5c0.1,2.3-0.5,4.6-1.6,6.7c-2.6,4.9-16,2.7-29.9-4.9s-22.9-17.6-20.3-22.4c0.8-1.5,1.9-2.9,3.3-4
	c2,5.2,9.7,12.4,20.3,18.2C285.7,142.5,297.4,145.1,302,142.5z"/>
<path class="st4" d="M93.7,151.4c2.9,4.7,16.2,1.8,29.5-6.6s21.9-18.9,19-23.6s-11.3-12-32.8,1.4S90.7,146.7,93.7,151.4z"/>
<path class="st9" d="M91.7,144.9c0.1,2.3,0.8,4.6,2,6.6c2.9,4.7,16.2,1.8,29.5-6.6s21.9-18.9,19-23.6c-0.9-1.5-2.1-2.8-3.5-3.8
	c-1.7,5.3-9,13-19.2,19.3C107.9,144,96.5,147.2,91.7,144.9z"/>
<path class="st2" d="M226.9,10.9c0,0,7.7-11.3,22-10.9c14.3,0.4,19.7,8.5,19,14.5s-6.7,18.7-24.1,13S226.9,10.9,226.9,10.9z"/>
<path class="st10" d="M254.4,9.4c-2.4-1-6-2.2-10.2,0c-2.4,1.2-3.6,3.9-2.8,6.5c0,0,6.4-1.4,11,1.1c0,0-2.2-0.5-5.8,1.4
	c1.7,0,5.7,1.8,5.7,1.8l-5.2,2.1c3.1,0.6,6.4-0.1,9-1.9C260.1,17.4,258.3,11,254.4,9.4z"/>
<path class="st2" d="M161.4,10.5c-2.7-2.8-15.7-12-29.1-8.7s-17,13.4-11.4,21.4s15,11,25,9S161.4,10.5,161.4,10.5z"/>
<path class="st10" d="M134.6,11.6c2.4-1,6-2.2,10.2,0c2.4,1.2,3.6,3.9,2.8,6.5c0,0-6.4-1.4-11,1.1c0,0,2.2-0.5,5.8,1.4
	c-1.7,0-5.7,1.8-5.7,1.8l5.2,2.1c-3.1,0.6-6.4-0.1-9-1.9C128.9,19.6,130.7,13.3,134.6,11.6z"/>
<path class="st2" d="M158.7,7.7c-13.5,9.5-22.6,24.5-31.6,42.6s-9.7,30-2.7,40.5c-0.1-1.9,0.5-3.9,1.7-5.4c0,0,1.5,11.6,8.5,16.2
	c0,0-2-6.1,0.5-10.6c0,0-2,25.5,43.6,30.1s71.3-18.9,76.2-28.6c3.4-6.8,4.7-16.6,2.8-21.5c2.4,2.8,3.9,6.3,4.3,10
	c0,0,4.5-4.5,2.5-19S247,18.4,229.9,7.9S172.8-2.2,158.7,7.7z"/>
<path class="st11" d="M225.6,72.7c0,17.7-18.9,25.4-34.3,25.4S157,90.4,157,72.7s18.9-39.8,34.3-39.8S225.6,55,225.6,72.7z"/>
<path class="st12" d="M201.5,63.8c0,0-3.8,7.4-10.2,7.4S181,63.8,181,63.8s-6.4-2.3-6.4-11.6c0-3.8,6.2-7.1,16.7-7.1
	s16.7,3.3,16.7,7.1C207.9,60.8,201.5,63.8,201.5,63.8z"/>
<path class="st3" d="M220.4,15.3c-18.4-4.3-37.6-4.3-56.1,0c-21.9,5.3-37,16.7-37,29.9c0,5.3,1.6,11.5,6.9,14.9
	c3.3,2.2,7.8,2.1,12.1,2.1c5.1,0,10.1-1.1,14.6-3.2c6-2.7,10.8-7.4,13.7-13.2c2.9-6.6,9.2-11,16.4-11.4c0.4,0,0.8,0,1.2,0
	s0.8,0,1.2,0c7.2,0.4,13.5,4.8,16.4,11.4c2.9,5.9,7.7,10.6,13.7,13.2c4.6,2.1,9.6,3.2,14.7,3.2c4.3,0,8.8,0,12.1-2.1
	c5.3-3.4,6.9-9.5,6.9-14.9C257.4,32,242.3,20.6,220.4,15.3z M179.2,33.1c-3.5,5.4-7,7.8-11.8,10.5c-1.1,0.6-6.4,3.5-9.7,1.3
	s-6.1-7.2-5.8-12.9c0.2-4.5,2.6-11.7,18.3-13S182.3,28.4,179.2,33.1z M224.5,44.1c-3.3,2.3-8.5-0.6-9.7-1.3
	c-4.8-2.7-8.3-5.1-11.8-10.5c-3.1-4.7-6.8-15.4,9-14.1s18.1,8.5,18.3,13C230.5,36.9,227.7,41.9,224.5,44.1L224.5,44.1z"/>
<path class="st13" d="M170.6,40.1c-1,0.6-5.6,3.1-8.5,1.1c-3.5-2.7-5.4-7-5.1-11.4c0.2-3.9,2.3-10.3,16.2-11.4s10.6,8.2,7.9,12.4
	C177.9,35.6,174.9,37.8,170.6,40.1z"/>
<path class="st13" d="M211.9,40.1c1,0.6,5.6,3.1,8.5,1.1c3.5-2.7,5.4-7,5.1-11.4c-0.2-3.9-2.3-10.3-16.2-11.4s-10.6,8.2-7.9,12.4
	C204.7,35.6,207.7,37.8,211.9,40.1z"/>
<path class="st14" d="M161,72.6c1.3,2.6,3.1,4.9,5.3,6.7c2.2,1.6,5,2.2,7.6,1.6c2.8-0.6,5.6-1.5,8.3-2.6c2.9-1.2,6-2,9.2-2.2
	c3.4,0.1,6.4,1.3,9.2,2.4c2.6,1.2,5.3,2.1,8.1,2.7c2.7,0.4,5.4-0.3,7.5-2.1c1.1-0.9,2.1-1.9,3-3c0.9-1.2,1.7-2.4,2.5-3.6l0.7,0.3
	c-0.6,1.4-1.2,2.8-2,4.1c-0.8,1.4-1.7,2.6-2.9,3.7c-1.2,1.2-2.6,2.1-4.1,2.6c-1.6,0.6-3.3,0.8-4.9,0.6c-3.3-0.2-6.2-1.5-9-2.5
	s-5.5-2.1-8-2.1s-5.4,0.9-8.2,1.8c-2.9,1.1-5.9,1.9-8.9,2.3c-1.6,0.2-3.3,0.1-4.9-0.3c-1.6-0.4-3.2-1.3-4.4-2.4
	c-2.2-2.2-3.8-4.9-4.7-7.9L161,72.6z"/>
<path class="st14" d="M223.7,72.2c0.9,1.3,0.6,3-0.7,3.9c-1.2,0.7-0.8-1.3-1.6-2.8s-2.6-1.9-1.4-2.6
	C221.5,70.2,223.1,70.8,223.7,72.2z"/>
<path class="st14" d="M158.8,72.2c-0.9,1.3-0.6,3,0.7,3.9c1.2,0.7,0.8-1.3,1.6-2.8s2.6-1.9,1.4-2.6
	C161.1,70.2,159.5,70.8,158.8,72.2z"/>
<ellipse class="st11" cx="191.3" cy="92.7" rx="15.5" ry="9.2"/>
<ellipse cx="172.3" cy="30.9" rx="5.6" ry="7.3"/>
<ellipse class="st6" cx="173.4" cy="28.2" rx="2.1" ry="2.7"/>
<path d="M176.9,26.8c-1-0.8-2.2-1.4-3.4-1.8c-0.5-0.1-1-0.1-1.4,0c-0.5,0.1-0.9,0.2-1.3,0.4c-0.4,0.2-0.8,0.5-1.1,0.9
	c-0.2,0.2-0.4,0.4-0.5,0.6l-0.6,0.8c-0.4,0.7-1,1.3-1.7,1.8c-0.8,0.5-1.8,0.4-2.4-0.4c0.3,0,0.7-0.1,1-0.2c0.2-0.1,0.4-0.3,0.4-0.5
	c0.2-0.4,0.3-1.1,0.5-1.7c0.1-0.3,0.2-0.7,0.4-1c0.2-0.4,0.4-0.7,0.6-1.1c0.5-0.8,1.2-1.4,2-1.8s1.7-0.7,2.6-0.6
	c0.9,0,1.8,0.3,2.6,0.7C175.9,23.8,176.8,25.2,176.9,26.8z"/>
<ellipse cx="210.2" cy="30.9" rx="5.6" ry="7.3"/>
<ellipse class="st6" cx="211.2" cy="28.2" rx="2.1" ry="2.7"/>
<path d="M205.6,26.8c0.2-1.6,1.1-3.1,2.4-3.9c0.8-0.5,1.7-0.7,2.6-0.7c0.9,0,1.8,0.2,2.6,0.6s1.5,1.1,2,1.8c0.2,0.3,0.4,0.7,0.6,1.1
	c0.1,0.3,0.3,0.7,0.4,1c0.2,0.6,0.4,1.3,0.5,1.7c0.1,0.2,0.2,0.4,0.4,0.5c0.3,0.1,0.7,0.2,1,0.2c-0.6,0.7-1.6,0.9-2.4,0.4
	c-0.7-0.5-1.3-1-1.7-1.7l-0.6-0.8c-0.2-0.2-0.3-0.4-0.5-0.6c-0.3-0.4-0.7-0.7-1.1-0.9c-0.4-0.2-0.9-0.4-1.3-0.4
	c-0.5-0.1-1-0.1-1.4,0C207.8,25.4,206.6,26,205.6,26.8z"/>
<path class="st14" d="M172.6,13.6c4.3,0,6.6,5.4,6.6,5.4c-5-0.4-10.1,0.2-14.9,1.8C161.9,21.5,165,13.6,172.6,13.6z"/>
<path class="st14" d="M210,13.6c-4.3-0.1-6.6,5.3-6.6,5.3c5-0.4,10.1,0.3,14.9,1.9C220.6,21.7,217.6,13.7,210,13.6z"/>
</svg>
