<?xml version="1.0" encoding="utf-8"?>
<!-- Generator: Adobe Illustrator 26.5.0, SVG Export Plug-In . SVG Version: 6.00 Build 0)  -->
<svg version="1.1" id="Layer_1" xmlns="http://www.w3.org/2000/svg" xmlns:xlink="http://www.w3.org/1999/xlink" x="0px" y="0px"
	 viewBox="0 0 280.4 357.5" style="enable-background:new 0 0 280.4 357.5;" xml:space="preserve">
<style type="text/css">
	.st0{fill:#7A4338;}
	
		.st1{clip-path:url(#SVGID_00000080190477383226938670000003874956750143621546_);fill:none;stroke:#572A20;stroke-width:2.27;stroke-miterlimit:10;}
	.st2{clip-path:url(#SVGID_00000080190477383226938670000003874956750143621546_);fill:#572A20;}
	.st3{fill:#5CAD00;}
	.st4{fill:#1A9900;}
	.st5{fill:#8A4D20;}
	.st6{fill:#D9B600;}
	.st7{fill:#9F662C;}
	.st8{fill:#AE1D9E;}
	.st9{fill:#F5D900;}
	.st10{fill:#A81A97;}
	.st11{fill:#F5D800;}
	.st12{fill:#C5A380;}
	.st13{fill:#701E12;}
	.st14{clip-path:url(#SVGID_00000117661468596763913800000012044498562306276496_);fill:#FFFFFF;}
	.st15{clip-path:url(#SVGID_00000117661468596763913800000012044498562306276496_);fill:#DCDBC1;}
	.st16{clip-path:url(#SVGID_00000117661468596763913800000012044498562306276496_);fill:#D1DFDF;}
	.st17{fill:#1A1A1A;}
	.st18{fill:#E0E0E0;}
	.st19{fill:#864F1D;}
</style>
<path class="st0" d="M123.7,241.2c-15.2-0.3-39.1-10.4-45.1-19.7s-19-41.8-31.1-44.4s-49.8,5.7-47.4,37.1s28.4,54.5,44.1,64.1
	s49.1,11,61.5,10s54.1-4.7,54.1-4.7S153.8,241.9,123.7,241.2z"/>
<g>
	<defs>
		<path id="SVGID_1_" d="M123.7,241.2c-15.2-0.3-39.1-10.4-45.1-19.7s-19-41.8-31.1-44.4s-49.8,5.7-47.4,37.1s28.4,54.5,44.1,64.1
			s49.1,11,61.5,10s54.1-4.7,54.1-4.7S153.8,241.9,123.7,241.2z"/>
	</defs>
	<clipPath id="SVGID_00000008131270845329505810000006154715670434316185_">
		<use xlink:href="#SVGID_1_"  style="overflow:visible;"/>
	</clipPath>
	
		<line style="clip-path:url(#SVGID_00000008131270845329505810000006154715670434316185_);fill:none;stroke:#572A20;stroke-width:2.27;stroke-miterlimit:10;" x1="118.6" y1="263.3" x2="85.8" y2="351.5"/>
	
		<line style="clip-path:url(#SVGID_00000008131270845329505810000006154715670434316185_);fill:none;stroke:#572A20;stroke-width:2.27;stroke-miterlimit:10;" x1="107.8" y1="248.5" x2="74.9" y2="336.7"/>
	
		<line style="clip-path:url(#SVGID_00000008131270845329505810000006154715670434316185_);fill:none;stroke:#572A20;stroke-width:2.27;stroke-miterlimit:10;" x1="96.9" y1="233.7" x2="64" y2="322"/>
	
		<line style="clip-path:url(#SVGID_00000008131270845329505810000006154715670434316185_);fill:none;stroke:#572A20;stroke-width:2.27;stroke-miterlimit:10;" x1="86" y1="218.9" x2="53.2" y2="307.2"/>
	
		<line style="clip-path:url(#SVGID_00000008131270845329505810000006154715670434316185_);fill:none;stroke:#572A20;stroke-width:2.27;stroke-miterlimit:10;" x1="75.2" y1="204.1" x2="42.3" y2="292.4"/>
	
		<line style="clip-path:url(#SVGID_00000008131270845329505810000006154715670434316185_);fill:none;stroke:#572A20;stroke-width:2.27;stroke-miterlimit:10;" x1="64.3" y1="189.4" x2="31.4" y2="277.6"/>
	
		<line style="clip-path:url(#SVGID_00000008131270845329505810000006154715670434316185_);fill:none;stroke:#572A20;stroke-width:2.27;stroke-miterlimit:10;" x1="53.4" y1="174.6" x2="20.5" y2="262.8"/>
	
		<line style="clip-path:url(#SVGID_00000008131270845329505810000006154715670434316185_);fill:none;stroke:#572A20;stroke-width:2.27;stroke-miterlimit:10;" x1="42.5" y1="159.8" x2="9.7" y2="248"/>
	
		<line style="clip-path:url(#SVGID_00000008131270845329505810000006154715670434316185_);fill:none;stroke:#572A20;stroke-width:2.27;stroke-miterlimit:10;" x1="31.7" y1="145" x2="-1.2" y2="233.3"/>
	
		<line style="clip-path:url(#SVGID_00000008131270845329505810000006154715670434316185_);fill:none;stroke:#572A20;stroke-width:2.27;stroke-miterlimit:10;" x1="20.8" y1="130.2" x2="-12.1" y2="218.5"/>
	
		<line style="clip-path:url(#SVGID_00000008131270845329505810000006154715670434316185_);fill:none;stroke:#572A20;stroke-width:2.27;stroke-miterlimit:10;" x1="55.2" y1="309.9" x2="149.2" y2="304.9"/>
	
		<line style="clip-path:url(#SVGID_00000008131270845329505810000006154715670434316185_);fill:none;stroke:#572A20;stroke-width:2.27;stroke-miterlimit:10;" x1="44.3" y1="295.1" x2="138.4" y2="290.1"/>
	
		<line style="clip-path:url(#SVGID_00000008131270845329505810000006154715670434316185_);fill:none;stroke:#572A20;stroke-width:2.27;stroke-miterlimit:10;" x1="33.4" y1="280.4" x2="127.5" y2="275.3"/>
	
		<line style="clip-path:url(#SVGID_00000008131270845329505810000006154715670434316185_);fill:none;stroke:#572A20;stroke-width:2.27;stroke-miterlimit:10;" x1="22.6" y1="265.6" x2="116.6" y2="260.5"/>
	
		<line style="clip-path:url(#SVGID_00000008131270845329505810000006154715670434316185_);fill:none;stroke:#572A20;stroke-width:2.27;stroke-miterlimit:10;" x1="11.7" y1="250.8" x2="105.7" y2="245.7"/>
	
		<line style="clip-path:url(#SVGID_00000008131270845329505810000006154715670434316185_);fill:none;stroke:#572A20;stroke-width:2.27;stroke-miterlimit:10;" x1="0.8" y1="236" x2="94.9" y2="230.9"/>
	
		<line style="clip-path:url(#SVGID_00000008131270845329505810000006154715670434316185_);fill:none;stroke:#572A20;stroke-width:2.27;stroke-miterlimit:10;" x1="-10" y1="221.2" x2="84" y2="216.2"/>
	
		<line style="clip-path:url(#SVGID_00000008131270845329505810000006154715670434316185_);fill:none;stroke:#572A20;stroke-width:2.27;stroke-miterlimit:10;" x1="-20.9" y1="206.4" x2="73.1" y2="201.4"/>
	
		<line style="clip-path:url(#SVGID_00000008131270845329505810000006154715670434316185_);fill:none;stroke:#572A20;stroke-width:2.27;stroke-miterlimit:10;" x1="-31.8" y1="191.7" x2="62.3" y2="186.6"/>
	
		<line style="clip-path:url(#SVGID_00000008131270845329505810000006154715670434316185_);fill:none;stroke:#572A20;stroke-width:2.27;stroke-miterlimit:10;" x1="-42.7" y1="176.9" x2="51.4" y2="171.8"/>
	<path style="clip-path:url(#SVGID_00000008131270845329505810000006154715670434316185_);fill:#572A20;" d="M9.4,183.1
		c0,0-6.5,26.2,2.8,43.6C23,247,40.8,278.6,84.4,282.1c26.7,2.1,53.6,0.6,79.9-4.3c0,0,0.9,11.5,0.6,10.8s-140.4,12-140.4,12
		l-42.6-95L9.4,183.1z"/>
	<path style="clip-path:url(#SVGID_00000008131270845329505810000006154715670434316185_);fill:#572A20;" d="M38.7,206.4
		c0,0,2,28.8,31.6,44.2s74.4,13.9,74.4,13.9s-31.1-4.5-52.6-12.3S46.2,229.2,38.7,206.4z"/>
</g>
<path class="st3" d="M214.4,276.3c-7.1,6-21.4,12-35.6,15.6c-7.1,1.9-14.5,3-21.9,3.1c-6.2-0.1-12.4-0.9-18.4-2.3
	c-15.2-3.4-31.5-9.9-39.1-16.4c-18.6-15.7-20.8-53.6-18.9-78.5l0.1-1.5c0.3-3.9,0.8-8.6,1.5-13.7c0.8-6,1.8-12.6,3-19.5
	c1.7-9.4,3.7-19.3,6.2-28.6c4.1-15.5,9.3-29.5,15.5-36.9c0.5-0.6,1-1.1,1.5-1.6c9.6-9.5,31.2-15.4,48.1-15.4
	c16.5,0,37.6,5.3,47.9,14.3c1,0.8,1.9,1.7,2.7,2.7c5.7,6.8,10.5,19.1,14.4,33c2.9,10.4,5.3,21.8,7.2,32.5l0,0
	c1.4,7.8,2.5,15.2,3.3,21.7c0.6,4.3,1,8.2,1.3,11.5c0.1,1.2,0.2,2.4,0.3,3.6C235.4,225.3,232.6,261,214.4,276.3z"/>
<path class="st4" d="M178.9,291.9c-7.1,1.9-14.5,3-21.9,3.1c-6.2-0.1-12.4-0.9-18.4-2.3c-1.4-3.3-3.3-6.5-5.4-9.4
	c0,0,14.8,2.2,25.8,2.2c7.4-0.1,14.7-0.8,21.9-2.2C180.9,283.3,181.5,285.8,178.9,291.9z"/>
<path class="st5" d="M204.3,94.8c-10.5,7.9-29,16.1-34.4,18.1c-1.4,3.9-3.6,7.4-6.6,10.3l-9.4-10.3c0,0-18.7-0.9-32.6-8
	c-7.4-3.8-11.1-6.9-13-9c9.6-9.5,31.2-15.4,48-15.4C172.9,80.5,194.1,85.8,204.3,94.8z"/>
<path class="st4" d="M228.6,163.1c-8.4,0-20.9-30.1-20.9-30.1l13.7-2.4C224.3,141,226.7,152.4,228.6,163.1z"/>
<path class="st4" d="M106.8,138.6c-2.3,8.2-7.2,22-13.6,28c-2.7,2.5-7.9,7.6-9.5,5.7c2.6-13.9,5.3-28.6,7.7-37.9
	C101.6,134.8,108.2,133.7,106.8,138.6z"/>
<path id="pouch-b" class="st6" d="M230.5,172.5L230.5,172.5c3.5-0.7,6.8,1.5,7.5,5l5.6,27.4c0.7,3.4-1.5,6.8-5,7.5l0,0
	c-3.4,0.7-6.8-1.5-7.5-5l-5.6-27.4C224.9,176.6,227.1,173.2,230.5,172.5z"/>
<path class="st7" d="M131,337.7c-2.4,2.2-4.2,5-5.4,8c-3.3,8-14.2,11-14.2,11c-2.8,0.5-5.7,0.7-8.6,0.8c-0.9,0-1.8,0-2.6,0
	c-1.7-0.1-3.5-0.2-5.2-0.5c-1.4-0.2-2.7-0.5-3.9-0.8c-1.6-0.4-3.3-1-4.8-1.6c-1.2-0.5-2.3-1.1-3.4-1.7c-1-0.6-2-1.3-2.9-2.1
	c-1.3-4.5,6.8-7.5,15.3-12.3c5.1-2.9,8.6-8,9.5-13.8c2.9-7.6,24.3-3.8,24.3-3.8l3.4,10.6C133.3,333.7,132.7,336.1,131,337.7z"/>
<path class="st0" d="M102.5,351.3c-1.9,2.3,0.4,6.2,0.4,6.2c-0.9,0-1.8,0-2.6,0c-0.8-1.1-1.9-2.7-1.9-3.9c0-3.1,2.3-4,4.5-4.9
	l5.5-2.3C106.2,347.6,104.2,349.3,102.5,351.3z"/>
<path class="st0" d="M95.1,357c-1.4-0.2-2.7-0.5-3.9-0.8c-0.6-1.2-0.9-2.5-0.8-3.8c0.5-3,2.6-4,4.8-4.8c1.8-0.6,3.7-1.2,5.5-1.6
	c-2.4,0.9-4.7,2.2-6.7,3.9C91.8,352,92.9,355.2,95.1,357z"/>
<path class="st0" d="M86.3,354.6c-1.2-0.5-2.3-1.1-3.4-1.7c-0.2-0.9-0.2-1.8,0-2.6c0.9-3,3.2-3.6,5.4-4.1c1.9-0.4,3.8-0.6,5.7-0.8
	c-2.5,0.6-5,1.6-7.1,3C84.4,350,84.4,352.5,86.3,354.6z"/>
<path class="st3" d="M70.3,281.3c0,0,6.8,28.2,23,41.6c12.8,10.5,25.7,10.1,34.6,6s7.5-22.4,7.5-22.4S98.3,260.8,70.3,281.3z"/>
<path id="arm-l" class="st3" d="M110.6,93.8c-10.3,4.3-36.7,21-36.7,21s-6.2,2.4-6.5,15.3s0.9,26.6,23.5,26.5
	c19-0.1,28-11.8,29.8-19S123.7,112.9,110.6,93.8z"/>
<path id="thigh-l" class="st3" d="M85.3,187.7c0,0-18.8,35.5-17.9,76.1s37.4,59.5,63.5,45.4s27.4-33.3,15.1-51.4
	S108.8,182.8,85.3,187.7z"/>
<path class="st7" d="M183,337.7c2.4,2.2,4.2,5,5.4,8c3.3,8,14.2,11,14.2,11c2.8,0.5,5.7,0.7,8.6,0.8c0.9,0,1.8,0,2.6,0
	c1.8-0.1,3.5-0.2,5.3-0.5c1.4-0.2,2.7-0.5,3.9-0.8c1.6-0.4,3.3-1,4.8-1.6c1.2-0.5,2.3-1.1,3.4-1.7c1-0.6,2-1.3,2.9-2.1
	c1.3-4.5-6.8-7.5-15.3-12.3c-5.1-2.9-8.6-8-9.5-13.8c-2.9-7.6-24.3-3.8-24.3-3.8l-3.4,10.6C180.7,333.7,181.3,336.1,183,337.7z"/>
<path class="st0" d="M211.5,351.3c1.9,2.3-0.4,6.2-0.4,6.2c0.9,0,1.8,0,2.6,0c0.8-1.1,1.9-2.7,1.9-3.9c0-3.1-2.4-4-4.5-4.9l-5.5-2.3
	C207.9,347.6,209.9,349.3,211.5,351.3z"/>
<path class="st0" d="M219,357c1.4-0.2,2.7-0.5,3.9-0.8c0.6-1.2,0.9-2.5,0.8-3.8c-0.5-3-2.6-4-4.8-4.8c-1.8-0.6-3.7-1.2-5.5-1.6
	c2.4,0.9,4.7,2.3,6.6,4C222.2,352,221.1,355.2,219,357z"/>
<path class="st0" d="M227.7,354.6c1.2-0.5,2.3-1.1,3.4-1.7c0.2-0.9,0.2-1.8-0.1-2.6c-0.9-3-3.1-3.6-5.4-4.1
	c-1.9-0.4-3.8-0.6-5.7-0.8c2.5,0.6,5,1.6,7.1,3C229.6,350,229.6,352.5,227.7,354.6z"/>
<path class="st3" d="M246.8,281.3c0,0-6.8,28.2-23,41.6c-12.8,10.5-25.8,10.1-34.6,6s-7.5-22.4-7.5-22.4S218.7,260.8,246.8,281.3z"
	/>
<path id="arm-r" class="st3" d="M210.9,92c17.1,6.6,36.7,21,36.7,21s6.2,2.4,6.5,15.3s-0.9,26.6-23.5,26.5
	c-19-0.1-28.1-11.8-29.9-19S197.5,116.4,210.9,92z"/>
<path id="forearm-r" class="st7" d="M225.7,154.5c0,0,20.3,22.1,24,28.5s16.2,1.2,18.2-6.1s3.2-17.4,1.8-25.6l2.6,2.7
	c0,0-0.4-4.3-4.7-12.1c-2-3.5-4.1-6.9-6.4-10.2l3.4,1.7c0,0-6.5-12.8-16.9-20.4C228.1,119.9,225.7,154.5,225.7,154.5z"/>
<path class="st8" d="M247.9,187.8c0,0-5.1,9.2-4.6,11.9s4.7,1.8,6.6-1.1s4.7-6.6,6-2.9c1.3,3.8-0.7,11.6,2.4,11.4
	c3.1-0.2,5.4-5.2,4.3-9.5c0,0,3.2,9.2,6,8.5s-0.1-11.4-0.1-11.4s5.4,8.8,8.4,7.2s-4-13.1-4-13.1s6,7.4,7.5,4.2s-15.7-17.3-15.7-17.3
	s-5.3-3.5-12.4,0C249.4,177.2,247.9,187.8,247.9,187.8z"/>
<path class="st8" d="M265.8,186.8l7.6-26.2c0,0-11.9-9.2-23.2-3.1s-13.1,14.1-13.1,14.1l12.6,11.4L265.8,186.8z"/>
<path id="thigh-r" class="st3" d="M231.8,187.7c0,0,18.8,35.5,17.9,76.1s-37.4,59.5-63.5,45.4s-27.4-33.3-15.2-51.4
	S208.2,182.8,231.8,187.7z"/>
<path class="st9" d="M95.8,201.9l-6.3-13.7c51.9-23.9,80.4-53.4,95.2-74c16-22.2,17.5-25.8,17.5-26l11.2,4.7
	c-0.2,0.8,1.6,4.6-15.9,29.2C181.7,144.4,151.2,176.4,95.8,201.9z"/>
<path class="st9" d="M208.3,200.9C139.5,120.5,98.5,99.2,98,99l8.1-4.3c2.2,0.9,42.5,13.1,113.7,96.3L208.3,200.9z"/>
<path class="st9" d="M236.7,198.6c-24.7,5.3-49.9,8-75.2,8.2c-30.3,0-58.9-3.2-80.9-9.1l0.1-1.5c0.3-3.9,0.8-8.6,1.5-13.7l0.2,0.1
	c21,5.9,49.1,9.1,79.1,9.1c26,0,50.6-2.4,70.4-6.9C232.4,189.1,236.6,197.4,236.7,198.6z"/>
<path class="st9" d="M104.4,176.7l16.7,3c3.3,0.6,5.5,3.8,4.9,7.1l-6.4,35.3c-0.6,3.3-3.8,5.5-7.1,4.9l-16.7-3
	c-3.3-0.6-5.5-3.8-4.9-7.1l6.4-35.3C97.9,178.3,101.1,176.1,104.4,176.7z"/>
<path class="st6" d="M102.5,176.4l20.4,3.7c2.3,0.4,3.8,2.6,3.4,4.9l0,0l-1.4,7.7c-1.4,7.9-9,13.1-16.9,11.7l0,0l0,0
	c-7.9-1.4-13.2-9-11.7-16.9l0,0l1.4-7.6C98,177.5,100.2,176,102.5,176.4L102.5,176.4z"/>
<path class="st9" d="M205.7,177.5l16.7-3c3.3-0.6,6.5,1.6,7.1,4.9l6.4,35.3c0.6,3.3-1.6,6.5-4.9,7.1l-16.7,3
	c-3.3,0.6-6.5-1.6-7.1-4.9l-6.4-35.3C200.2,181.3,202.4,178.1,205.7,177.5z"/>
<path class="st6" d="M203.8,177.9l20.4-3.7c2.3-0.4,4.5,1.1,4.9,3.4l0,0l1.4,7.6c1.4,7.9-3.8,15.5-11.7,16.9l0,0l0,0
	c-7.9,1.4-15.5-3.8-16.9-11.7l0,0l-1.4-7.7C200,180.5,201.6,178.3,203.8,177.9L203.8,177.9L203.8,177.9z"/>
<path class="st6" d="M84.7,176.9L84.7,176.9c3.4,0.9,5.5,4.3,4.6,7.7l-6.9,27.1c-0.9,3.4-4.3,5.5-7.7,4.6l0,0
	c-3.4-0.9-5.5-4.3-4.6-7.7l6.9-27.1C77.9,178.1,81.3,176.1,84.7,176.9z"/>
<polygon class="st10" points="145.3,186.4 184.5,186.4 164.9,220.3 "/>
<polygon class="st11" points="157.9,196 163.1,196 163.1,205 164.9,208.1 166.7,205 166.7,196 171.9,196 173.9,192.5 155.9,192.5 
	"/>
<path class="st11" d="M184.5,186.4h-39.2l19.6,34L184.5,186.4z M183.4,187l-1.7,3h-2.8c-0.1-0.6-0.8-1-1.4-0.9
	c-0.5,0.1-0.8,0.5-0.9,0.9h-23.4c-0.1-0.5-0.6-0.9-1.2-0.9c-0.1,0-0.2,0-0.4,0.1l-1.2-2.1L183.4,187z M176.9,191.1l-11.7,20.3
	c-0.1,0-0.2-0.1-0.4-0.1c-0.1,0-0.2,0-0.4,0.1l-11.7-20.3c0.2-0.2,0.3-0.4,0.4-0.6h23.4C176.6,190.8,176.8,191,176.9,191.1z
	 M149.8,187l1.4,2.4c-0.2,0.2-0.4,0.5-0.4,0.9c0,0.7,0.5,1.2,1.2,1.2l0,0c0.1,0,0.2,0,0.4,0l11.7,20.2c-0.2,0.2-0.4,0.5-0.4,0.9
	c0,0.3,0.1,0.6,0.4,0.9l-1.2,2.2L146.3,187H149.8z M164.8,219.1l-1.8-3l1.4-2.4c0.1,0,0.2,0,0.4,0.1c0.7,0,1.2-0.5,1.2-1.2l0,0
	c0-0.3-0.1-0.6-0.4-0.9l11.7-20.2c0.1,0,0.2,0,0.4,0c0.6,0,1-0.4,1.1-0.9h2.5L164.8,219.1z"/>
<path id="forearm-l" class="st7" d="M95.7,156.3c0,0-20.3,22.1-24,28.5s-16.2,1.2-18.2-6.1s-3.2-17.4-1.8-25.6l-2.6,2.8
	c0,0,0.4-4.3,4.7-12.1c2-3.5,4.1-6.9,6.4-10.2l-3.3,1.7c0,0,6.5-12.8,16.9-20.4C93.4,121.7,95.7,156.3,95.7,156.3z"/>
<path class="st8" d="M74.7,191.3c0,0,5.2,9.2,4.6,11.9s-4.7,1.9-6.6-1.1s-4.7-6.6-6-2.9s0.7,11.6-2.4,11.3S59,205.3,60,201
	c0,0-3.2,9.2-6.1,8.5s0.1-11.4,0.1-11.4s-5.4,8.8-8.4,7.2s4-13.1,4-13.1s-6,7.4-7.5,4.2s15.7-17.3,15.7-17.3s5.3-3.5,12.4,0
	C73.2,180.6,74.7,191.3,74.7,191.3z"/>
<path class="st8" d="M56.8,190.2L49.2,164c0,0,11.9-9.2,23.2-3.1S85.5,175,85.5,175l-12.6,11.3L56.8,190.2z"/>
<path class="st7" d="M210.3,54.5c-3.3-4.2-5.9-11.5-6.2-12.6c-0.5-1.4-1-2.9-1.5-4.4c-0.1-0.3-0.1-0.6-0.2-0.9
	C194.3,7.6,181.9,0,156.7,0c-24.6,0-39.6,6.6-45.2,34.4c-1,3.5-4,14-7.8,23.8c-0.1,0.3-0.2,0.6-0.4,0.9c0,0.1-0.1,0.2-0.1,0.3l0,0
	c-2.4,6.5-2.3,13.6,0.2,20c0.2-2.7,0.8-5.7,2.2-8.1c-1.7,10.8,1.9,15.2,2.5,16c4.7,5.5,11.4,9,18.7,9.7c5.3,1,10.7,1.6,16.1,1.7
	c3,3.3,8.2,5.5,14.2,5.5s11.1-2.2,14.1-5.5c5.4-0.1,10.8-0.7,16.1-1.8c15.4-1.5,26.6-15.3,25.1-30.7c-0.2-1.7-0.5-3.3-0.9-4.9
	c0.9,1,1.6,2.2,2,3.5C213.4,65,213.8,59,210.3,54.5z"/>
<path class="st12" d="M169.2,74.9c0,5.5-4.3,10-9.8,10.2c-0.8,0-1.6,0-2.4,0.1s-1.6,0-2.4-0.1c-5.5-0.2-9.8-4.7-9.8-10.2v-2.1h24.4
	V74.9z"/>
<path class="st13" d="M167.5,75.2c-1.5,2.6-2.7,2.3-10.4,2.3s-8.9,0.3-10.4-2.3c-1.6-2.8,0-13,0-13h20.9
	C167.5,62.2,169.1,72.4,167.5,75.2z"/>
<g>
	<defs>
		<path id="SVGID_00000030444856845531806220000016285033265917912494_" d="M162.6,86h-5.2l-0.4-8.5l-0.4,8.5h-5.2
			c0,0-5.4-22.5-2.1-26.6c2.7-3.3,12.6-3.3,15.2,0C168,63.5,162.6,86,162.6,86z"/>
	</defs>
	<clipPath id="SVGID_00000000943489940510425410000010165530794025918617_">
		<use xlink:href="#SVGID_00000030444856845531806220000016285033265917912494_"  style="overflow:visible;"/>
	</clipPath>
	
		<rect x="147.8" y="56.6" style="clip-path:url(#SVGID_00000000943489940510425410000010165530794025918617_);fill:#FFFFFF;" width="18.2" height="29.6"/>
	
		<rect x="156.3" y="56.1" style="clip-path:url(#SVGID_00000000943489940510425410000010165530794025918617_);fill:#DCDBC1;" width="1.4" height="29.9"/>
	<path style="clip-path:url(#SVGID_00000000943489940510425410000010165530794025918617_);fill:#D1DFDF;" d="M148.6,72.1
		c2.5-1.6,5.4-2.5,8.4-2.3c3,0.1,5.8,0.9,8.4,2.3c0,0,1.4-7.4,1.2-7.6s-9.2-2.3-9.2-2.3l-9.8,2.5L148.6,72.1z"/>
</g>
<path class="st12" d="M181.1,56c0,5.3-1.5,14.7-5.8,17.2c-10,5.9-8.5-7.5-18.4-7.5s-8.3,13.4-18.3,7.5c-4.2-2.5-5.8-12-5.8-17.2
	c0-12,10.8-27,24.1-27S181.1,44,181.1,56z"/>
<ellipse class="st17" cx="156.9" cy="45.3" rx="13.2" ry="12.1"/>
<path class="st7" d="M135.8,2.7C130,3,115.5,4.8,112.1,5c-1.7,0.1-1.5,5.9,2.6,7.5S131.3,10.4,135.8,2.7z"/>
<path class="st7" d="M176.6,2.7c5.8,0.3,20.3,2.1,23.7,2.3c1.7,0.1,1.4,5.9-2.6,7.5S181.1,10.4,176.6,2.7z"/>
<ellipse transform="matrix(0.3287 -0.9444 0.9444 0.3287 65.7486 150.6444)" cx="138.8" cy="29.1" rx="6.9" ry="5"/>
<ellipse transform="matrix(0.9845 -0.1755 0.1755 0.9845 -2.3998 25.0641)" class="st18" cx="140.5" cy="26.1" rx="1.6" ry="2.2"/>
<ellipse transform="matrix(0.9444 -0.3287 0.3287 0.9444 0.256 59.4892)" cx="176.1" cy="29" rx="5" ry="6.9"/>
<ellipse transform="matrix(0.9845 -0.1755 0.1755 0.9845 -1.8395 31.3995)" class="st18" cx="176.6" cy="26.1" rx="1.6" ry="2.2"/>
<path class="st19" d="M133.5,17.9c0,0,0-5.1,7-5.7c3.1-0.2,4.2,1.7,2.8,3.7S133.5,17.9,133.5,17.9z"/>
<path class="st19" d="M180.4,17.9c0,0,0-5.1-7-5.7c-3.1-0.2-4.2,1.7-2.8,3.7S180.4,17.9,180.4,17.9z"/>
<path class="st3" d="M181.3,4.5C174.8,1.2,166.8,0,156.7,0s-18.5,1.1-25.3,4.3c-9.3,4.3-15.7,12.5-19.2,27c3.5,6,9.9,9.7,16.9,9.7
	c2,0,3.9-0.3,5.8-0.8c4.6-1.3,8.5-4.4,10.9-8.4c2.4-3.9,6.6-6.3,11.2-6.4h0.3c4.6,0,8.8,2.4,11.2,6.3c2.4,4,6.3,7,10.8,8.4
	c1.9,0.6,3.9,0.9,5.9,0.9c6.4,0,12.4-3.1,16.1-8.3C196.5,17.7,190.4,9.1,181.3,4.5z M143,32.1c-4,4.9-9.1,7.4-14.2,3.8
	c-5.2-3.6-6.4-10.8-2.8-15.9c3.6-5.2,13.8-8.4,19-4.8S147,27.2,143,32.1z M185.1,35.9c-5.2,3.6-10.2,1.2-14.2-3.8s-7.2-13.3-2-16.9
	s15.4-0.4,19,4.8C191.5,25.1,190.2,32.2,185.1,35.9L185.1,35.9z"/>
</svg>
