<?xml version="1.0" encoding="utf-8"?>
<!-- Generator: Adobe Illustrator 26.5.0, SVG Export Plug-In . SVG Version: 6.00 Build 0)  -->
<svg version="1.1" id="Layer_1" xmlns="http://www.w3.org/2000/svg" xmlns:xlink="http://www.w3.org/1999/xlink" x="0px" y="0px"
	 viewBox="0 0 401 161.2" style="enable-background:new 0 0 401 161.2;" xml:space="preserve">
<style type="text/css">
	.st0{fill:#9F662C;}
	.st1{fill:#C57F53;}
	.st2{fill:#E3DFB8;}
	.st3{clip-path:url(#SVGID_00000178180241083306396340000014171298199916390568_);fill:#5CAD00;}
	.st4{clip-path:url(#SVGID_00000178180241083306396340000014171298199916390568_);fill:#3A5CF9;}
	.st5{clip-path:url(#SVGID_00000178180241083306396340000014171298199916390568_);fill:#F5D800;}
	.st6{fill:#3A5CF9;}
	.st7{fill:#D6A687;}
	.st8{fill:#FFD920;}
	.st9{fill:#1A1A1A;}
	.st10{fill:#7A4338;}
	.st11{fill:#F1F1F1;}
	.st12{fill:#F6F5E8;}
	.st13{fill:#F5D900;fill-opacity:0.6;stroke:#1640C7;stroke-width:4.53;}
	.st14{fill:#1640C7;}
	.st15{fill:#B48200;}
</style>
<path class="st0" d="M200.5,87.3L190.3,99l-9.5,56.7c12.1,7.2,27.3,7.2,39.4,0l-9.6-56.6L200.5,87.3z"/>
<path class="st0" d="M200.5,87.3l-13.1,8.6l-28.3,48.7c0,0,5.3,6.3,15.6,8.4c6.5,1.2,13.1,0.8,19.4-1.3l11.2-52L200.5,87.3z"/>
<path class="st0" d="M200.5,87.3l13.1,8.6l28.3,48.7c0,0-5.3,6.3-15.6,8.4c-6.5,1.2-13.1,0.8-19.4-1.3l-11.2-52L200.5,87.3z"/>
<path class="st1" d="M266.4,71.1c-0.1,7.9-1.6,15.7-4.5,23.1c-4.6,11.9-12,22.6-21.5,31.2c-11.1,9.9-24.9,16.3-39.9,16.3
	s-28.9-6.5-40-16.4l0,0c-9.5-8.5-16.8-19.2-21.4-31.1c-2.9-7.3-4.4-15.1-4.5-23c0-32.3,29.5-47.4,65.9-47.4S266.4,38.8,266.4,71.1z"
	/>
<path class="st2" d="M257.3,94.6c-0.3,4.8-1.2,9.6-2.8,14.2c-1.1,3.3-2.6,6.5-4.5,9.5c-11.2,18.4-33,27.9-49.5,27.9
	c-16.6,0-38.6-9.4-49.7-28.1l0,0c-1.8-3-3.2-6.1-4.3-9.4c-1.2-3.4-2-6.8-2.4-10.4c2-21.4,26.7-25,56.9-25
	C229.4,73.3,253,75,257.3,94.6z"/>
<path class="st2" d="M166.3,82.4l-16,9.4l-6.4-4.2l-11.7,2.8C114,89.1,113.1,82,113.1,82c-11.9-1.3-10-5.5-10-5.5
	c-7-0.8-9.7-9.6-9.7-9.6c-4.3-0.3-8.3-2.5-10.9-6c0,0-13.3,3-18,3.9s-6.4-0.5-6.4-0.5c-7.9,1.8-9-0.7-9-0.7
	c-5.7,1.9-11.7,2.7-17.7,2.3c-9.1-0.8,1.1-3,2.5-3.3c-8.7,1.7-17,0.1-21-1.6c-0.9-0.4-0.4-1,0.9-1.7c-1.2-0.1-2.3-0.2-3.4-0.3
	c-6.4-0.8-9.1-2.5-9.9-4.1c-0.6-1.4,0.1-2.9,1.4-3.5c0.2-0.1,0.4-0.2,0.7-0.2C36.5,46,50.1,37.9,66.8,31.9c23.4-8.5,37.7-9,43.7-3.8
	l48.1,38.4l4.8,10L166.3,82.4z"/>
<path class="st1" d="M163.4,76.5l-8.1,3.8c-5.8,2.2-11.9,3.2-18.1,3C122.8,81.1,123,71.9,123,71.9c-12.9-3.3-10-11.5-10-11.5
	c-10.6-2.3-7.3-10.9-7.3-10.9s-12-0.8-18.7-4.1s-4.4-8.3-13.9-6s-46.5,14-58.3,16C10,56,5.1,55.9,0.3,55c-0.6-1.4,0.1-2.9,1.4-3.5
	c0.2-0.1,0.4-0.2,0.7-0.2C36.5,46,50.1,37.9,66.8,31.9c23.4-8.5,37.7-9,43.7-3.8l48.1,38.4L163.4,76.5z"/>
<path class="st2" d="M234.8,82.4l16,9.4l6.4-4.2l11.7,2.8C287.1,89.1,288,82,288,82c11.9-1.3,10-5.5,10-5.5c7-0.8,9.7-9.6,9.7-9.6
	c4.3-0.3,8.3-2.5,10.9-6c0,0,13.3,3,18,3.9s6.4-0.5,6.4-0.5c7.9,1.8,9-0.7,9-0.7c5.7,1.9,11.7,2.7,17.7,2.3c9.1-0.8-1.1-3-2.5-3.3
	c8.7,1.7,17,0.1,21-1.6c0.9-0.4,0.4-1-0.9-1.7c1.2-0.1,2.3-0.2,3.4-0.3c6.4-0.8,9.1-2.5,9.9-4.1c0.6-1.4-0.1-2.9-1.4-3.5
	c-0.2-0.1-0.4-0.2-0.7-0.2c-34.2-5.3-47.8-13.4-64.5-19.5c-23.4-8.5-37.7-9-43.7-3.8l-48.1,38.4l-4.8,10L234.8,82.4z"/>
<path class="st1" d="M237.6,76.5l8.1,3.8c5.8,2.2,11.9,3.2,18.1,3c14.4-2.2,14.2-11.4,14.2-11.4c12.9-3.3,10-11.5,10-11.5
	c10.6-2.3,7.3-10.9,7.3-10.9s12-0.8,18.7-4.1s4.4-8.3,13.9-6s46.5,14,58.3,16c4.8,0.7,9.8,0.7,14.6-0.2c0.6-1.4-0.1-2.9-1.4-3.5
	c-0.2-0.1-0.4-0.2-0.7-0.2c-34.2-5.3-47.8-13.4-64.5-19.5c-23.4-8.5-37.7-9-43.7-3.8l-48.1,38.4L237.6,76.5z"/>
<g>
	<defs>
		<path id="SVGID_1_" d="M263.6,87.7c-0.5,1.9-1.1,4.1-1.7,6.4c-1.9,5-10.1,21.1-11.9,24c-2.5,2.2-18.4,23.5-49.4,23.5
			c-31.3,0-46.5-20.2-49.8-23.7l0,0C149.1,115,141,99,139.1,94c-0.7-2.3-1.3-4.5-1.7-6.4c-4.6-18.9-11.3-48.2,63.1-48.2
			S268.2,68.8,263.6,87.7z"/>
	</defs>
	<clipPath id="SVGID_00000150080517404314831690000016506592682190656408_">
		<use xlink:href="#SVGID_1_"  style="overflow:visible;"/>
	</clipPath>
	
		<rect x="132.1" y="39.5" style="clip-path:url(#SVGID_00000150080517404314831690000016506592682190656408_);fill:#5CAD00;" width="136.7" height="104.9"/>
	
		<ellipse style="clip-path:url(#SVGID_00000150080517404314831690000016506592682190656408_);fill:#3A5CF9;" cx="200.7" cy="71.9" rx="67.8" ry="40.1"/>
	<path style="clip-path:url(#SVGID_00000150080517404314831690000016506592682190656408_);fill:#3A5CF9;" d="M147.8,112.4
		c0,0,18.5,25.1,52.9,25.1c20.4,0,39.6-9.3,52.3-25.1l6.8,4.6l-12.6,30.1H146.9l-5.3-32.5L147.8,112.4z"/>
	<path style="clip-path:url(#SVGID_00000150080517404314831690000016506592682190656408_);fill:#3A5CF9;" d="M155.9,91.8l-12.6,11.5
		c0,0-13-11.1-11.5-19s16.8-4.2,16.8-4.2L155.9,91.8z"/>
	<path style="clip-path:url(#SVGID_00000150080517404314831690000016506592682190656408_);fill:#3A5CF9;" d="M245.3,91.8l12.6,11.5
		c0,0,13-11.1,11.5-19S252.6,80,252.6,80L245.3,91.8z"/>
	<path style="clip-path:url(#SVGID_00000150080517404314831690000016506592682190656408_);fill:#F5D800;" d="M189.2,121.7
		c2.7,0.2,5.4,0.4,8.2,0.4v4.7c0.9,0.6,1.9,1.1,2.8,1.6c0.9-0.5,1.9-1.1,2.8-1.6v-4.7c2.7-0.1,5.4-0.2,8.2-0.4
		c1.1-0.7,2.1-1.4,3.2-2.2c-9.4,1-18.9,1-28.3,0C187.1,120.3,188.1,121,189.2,121.7z"/>
	<path style="clip-path:url(#SVGID_00000150080517404314831690000016506592682190656408_);fill:#F5D800;" d="M230.8,113.5
		c-20.1,4.8-41.2,4.8-61.3,0c9.6,8,19.8,15.2,30.6,21.5C211,128.7,221.2,121.5,230.8,113.5z M229.2,114.2c-0.9,0.7-1.8,1.5-2.7,2.2
		c-1.4,0.3-2.9,0.6-4.4,0.8c-0.2-0.2-0.9-0.3-1.8-0.2c-0.7,0-1.3,0.3-1.8,0.8c-12.2,1.7-24.5,1.7-36.7,0c-0.5-0.4-1.1-0.7-1.8-0.8
		c-0.2,0-0.4,0-0.6-0.1c-0.6-0.5-1.3-1-1.9-1.5C194.6,118.4,212.2,118,229.2,114.2L229.2,114.2z M219.1,118.2
		c-5.9,4.3-12,8.3-18.4,12c-0.4,0-0.7,0-1.1,0c-6.3-3.7-12.4-7.7-18.4-12c0.2,0,0.4-0.1,0.6-0.2c12.2,1.7,24.5,1.7,36.7,0
		C218.7,118.1,218.9,118.2,219.1,118.2L219.1,118.2z M176.6,115.3c0.7,0.6,1.4,1.1,2.2,1.7c-0.4,0.1-0.6,0.2-0.6,0.4
		c0,0.3,0.8,0.8,1.9,0.9c0.2,0,0.4,0,0.6,0.1c5.9,4.4,12,8.4,18.3,12.1c-0.4,0.1-0.6,0.3-0.6,0.5s0.2,0.4,0.6,0.5
		c-0.7,0.4-1.3,0.7-2,1.1c-9-5.5-17.6-11.6-25.8-18.3C172.9,114.6,174.7,114.9,176.6,115.3L176.6,115.3z M200.2,134.4
		c-0.9-0.5-1.8-1.1-2.8-1.6c0.7-0.4,1.5-0.8,2.2-1.3c0.2,0,0.4,0,0.6,0c1,0,1.9-0.3,1.9-0.6c0-0.2-0.2-0.3-0.6-0.5
		c6.3-3.7,12.4-7.8,18.3-12.1c0.2,0,0.4,0,0.6-0.1c0.7,0,1.3-0.3,1.8-0.8c1.3-0.2,2.6-0.5,3.9-0.7
		C217.8,123.2,209.2,129.1,200.2,134.4L200.2,134.4z"/>
</g>
<path class="st1" d="M239.9,98.1c-8.5,5.3-23.5,8.3-39.2,8.3s-30.7-2.9-39.2-8.3c-5.5-3.4-16.9-8.3-17.7-19
	c-1.1-14.2-2.3-32.7-2.3-41.3c0-14.7,12.4-25.3,27.2-30c10.3-3.3,21.1-5,32-5.2c10.9,0.1,21.6,1.9,32,5.2
	c14.6,4.8,27.2,15.3,27.2,30c0,8.6-1.2,27.1-2.3,41.3C256.8,89.8,245.4,94.7,239.9,98.1z"/>
<path class="st6" d="M165.9,15.5c0,0-15.8-5-4.4-15.5c-6.4,1.5-12.3,4.8-16.9,9.5c-7.9,8-2.5,11.3-2.5,11.3
	c-2.2,2.3-3.9,5.1-4.7,8.2c-1.3,5.7,1.8,11.4,7.3,13.4C150.6,44.3,172.1,33.3,165.9,15.5z"/>
<path class="st6" d="M235.5,15.5c0,0,15.8-5,4.4-15.5c6.4,1.5,12.3,4.8,16.9,9.5c7.9,8,2.5,11.3,2.5,11.3c2.2,2.3,3.9,5.1,4.7,8.2
	c1.3,5.7-1.8,11.4-7.3,13.4C250.8,44.3,229.3,33.3,235.5,15.5z"/>
<path class="st6" d="M200.7,56.6c0,0-62.4,20.6-63.6,2.5c-0.6-8.5-0.5-16.5,0.6-21.2c3.4-14.3,16.3-25.3,31.1-30
	c10.3-3.3,21.1-5,32-5.2c10.9,0.1,21.6,1.9,32,5.2c14.6,4.8,27.8,15.6,31.1,30c1.1,4.7,1.2,12.8,0.6,21.3
	C263.1,77.2,200.7,56.6,200.7,56.6z"/>
<path class="st2" d="M257.2,82.6C249.9,96.8,227,104,200.5,104s-49.2-7.3-56.5-21.4c1.5-6.8,10.4-31.5,56.5-31.5
	C254,51.1,257.5,83.7,257.2,82.6z"/>
<path class="st2" d="M198.6,63c0,16.9-13.7,30.6-30.6,30.6S137.4,79.9,137.4,63c0-25.2,13.7-43.5,30.6-43.5S198.6,46.1,198.6,63z"/>
<path class="st7" d="M139.1,51.1c0,0-1.5,18,9.7,28.3c9.8,8.9,24.6,11.7,40.2,1.1c0,0-9.9,11.9-23.4,11.9c-8.2,0-18.7-2.7-25-14.4
	S139.1,51.1,139.1,51.1z"/>
<path class="st0" d="M137.3,63c-0.3-4.9-0.1-9.8,0.8-14.6c0.9-4.9,2.5-9.6,4.9-14c2.4-4.5,5.7-8.4,9.8-11.5
	c4.2-3.1,9.2-4.9,14.4-5.1c2.7-0.1,5.3,0.4,7.8,1.4c2.4,1,4.6,2.4,6.6,4c3.8,3.3,7,7.2,9.5,11.6c2.5,4.3,4.4,8.9,5.7,13.6
	c1.4,4.7,1.9,9.6,1.7,14.5c-0.5-4.8-1.6-9.5-3.3-14s-3.8-8.7-6.4-12.7c-2.5-4-5.6-7.5-9.2-10.5c-3.6-2.8-7.8-4.8-12.2-4.5
	c-4.5,0.2-8.9,1.7-12.6,4.3c-3.8,2.7-7,6.2-9.3,10.2c-2.5,4.1-4.3,8.4-5.6,13C138.5,53.5,137.7,58.2,137.3,63z"/>
<circle class="st8" cx="171.4" cy="49.5" r="13.5"/>
<circle class="st9" cx="171.4" cy="49.5" r="9.6"/>
<path class="st10" d="M184.8,46.5c1.5,7.3-3.1,14.5-10.4,16.2c-7.4,1.6-14.7-2.8-16.7-10.1c-1.5-5.6,0.6-11.6,5.3-15
	c1.6-1.1,3.3-1.9,5.2-2.3c3.8-0.8,7.7,0,10.8,2.2C182,39.7,184.1,42.9,184.8,46.5z M184.4,46.6c-0.4-1.7-1.2-3.3-2.3-4.6
	s-2.4-2.4-3.9-3.3c-2.9-1.6-6.3-2.1-9.6-1.3c-6.8,1.5-11.2,8.1-10,15c1,5.3,5.1,9.5,10.4,10.5c7.2,1.3,14.1-3.4,15.5-10.6
	C184.9,50.3,184.9,48.4,184.4,46.6L184.4,46.6z"/>
<circle class="st11" cx="177.6" cy="43.4" r="2.5"/>
<path class="st2" d="M202.9,63c0,16.9,13.7,30.6,30.6,30.6s30.6-13.7,30.6-30.6l0,0c0-25.2-13.7-43.5-30.6-43.5S202.9,46.1,202.9,63
	z"/>
<path class="st7" d="M262.3,51.1c0,0,1.5,18-9.7,28.3c-9.8,8.9-24.6,11.7-40.2,1.1c0,0,9.9,11.9,23.4,11.9c8.2,0,18.6-2.7,25-14.4
	C267.2,66.4,262.3,51.1,262.3,51.1z"/>
<path class="st0" d="M264.1,63c-0.4-4.8-1.2-9.6-2.5-14.2c-1.2-4.6-3.1-9-5.6-13c-2.4-4-5.6-7.5-9.3-10.2c-3.7-2.6-8.1-4.1-12.6-4.3
	c-4.4-0.3-8.6,1.7-12.2,4.5c-3.6,3-6.8,6.5-9.2,10.5c-2.6,4-4.7,8.3-6.4,12.7c-1.7,4.5-2.9,9.2-3.3,14c-0.2-4.9,0.3-9.8,1.7-14.5
	c1.3-4.8,3.2-9.3,5.7-13.6c2.5-4.4,5.7-8.3,9.5-11.6c2-1.7,4.2-3,6.6-4c2.5-1,5.1-1.5,7.8-1.4c5.2,0.2,10.2,2,14.4,5.1
	c4.1,3.1,7.4,7,9.8,11.5c2.4,4.4,4,9.1,4.9,14C264.1,53.2,264.4,58.2,264.1,63z"/>
<circle class="st8" cx="230" cy="49.5" r="13.5"/>
<circle class="st9" cx="230" cy="49.5" r="9.6"/>
<path class="st10" d="M217,46.6c-1.7,7.1,2.6,14.3,9.8,16c1.8,0.4,3.7,0.5,5.6,0.2c5.3-1,9.4-5.1,10.4-10.4c1.2-6.9-3.2-13.5-10-15
	c-3.3-0.7-6.7-0.2-9.6,1.3c-1.5,0.8-2.8,1.9-3.9,3.3C218.2,43.3,217.4,44.9,217,46.6z M216.6,46.5c0.7-3.6,2.8-6.9,5.8-9
	c3.1-2.3,7.1-3.1,10.8-2.2c1.9,0.4,3.6,1.2,5.2,2.3c4.7,3.4,6.8,9.4,5.3,15c-1.9,7.3-9.3,11.8-16.7,10.1
	C219.8,61,215.1,53.9,216.6,46.5L216.6,46.5z"/>
<circle class="st11" cx="236" cy="43.4" r="2.5"/>
<path class="st12" d="M207.6,63.7c3.4,2.2,10.1,4.1,13.6,8.6c-2.6,0.1-5.2,0.6-7.6,1.3c0,0,8,3.5,9.9,9.6c-2.6-1.2-5.3-2.2-8-2.9
	c0.8,4.1,0.1,8.4-1.9,12.2c-3.4-2.6-7.3-5.6-7.3-5.6s1.4,12.2-5.6,17.1c-7.9-5.4-5.6-17.1-5.6-17.1s-4.9,2.9-7.3,5.6
	c-4.3-7.5,0-12.6,0-12.6c-3.5,0.5-6.8,1.6-9.9,3.3c1.7-6.2,9.9-9.6,9.9-9.6s-3.6-0.7-7.6-1.3c4.9-5.1,8.6-6.7,11.2-8.3
	s9.2-4.9,9.2-4.9S205.9,62.5,207.6,63.7z"/>
<circle class="st13" cx="165.9" cy="46.7" r="28.5"/>
<circle class="st13" cx="235.5" cy="46.7" r="28.5"/>
<rect x="194.4" y="39.5" class="st14" width="12.6" height="6.6"/>
<path class="st8" d="M211.1,57.8c0,11-10.4,18.5-10.4,18.5s-10.4-7.8-10.4-18.5c0-7.3,4.7-11.9,10.4-11.9S211.1,50.5,211.1,57.8z"/>
<path class="st15" d="M211,59.7c0,0-5.5,7.2-10.4,7.2s-10.2-7.2-10.2-7.2s3,8.4,10.3,12.1C207.9,68.3,211,59.7,211,59.7z"/>
<path class="st8" d="M172.9,134c0,0-3.5-1.3-5.7,1.1s-3.2,11,2.5,16c1.5-2,2.7-4.1,3.6-6.4C174.5,142,177,135.9,172.9,134z"/>
<path class="st8" d="M189.3,136.3c0,0-3.5-1.3-5.7,1.1s-2.5,9.8,0.6,15.8c2.5-1.4,4.4-3.5,5.5-6.1
	C190.9,144.3,193.4,138.2,189.3,136.3z"/>
<path class="st8" d="M181,134.2c0,0-3.9-1.5-6.3,1.2s-3.4,10.6,2.7,17.8c1.7-2.2,3.1-4.6,4.1-7.1C182.8,143,185.6,136.3,181,134.2z"
	/>
<path class="st8" d="M228.1,134c0,0,3.5-1.3,5.7,1.1s3.2,11-2.5,16c-1.5-2-2.7-4.1-3.6-6.4C226.5,142,224,135.9,228.1,134z"/>
<path class="st8" d="M211.7,136.3c0,0,3.5-1.3,5.7,1.1s2.5,9.8-0.6,15.8c-2.5-1.4-4.4-3.5-5.5-6.1
	C210.2,144.3,207.6,138.2,211.7,136.3z"/>
<path class="st8" d="M220,134.2c0,0,3.9-1.5,6.3,1.2s3.4,10.6-2.7,17.8c-1.7-2.2-3.1-4.6-4.1-7.1C218.2,143,215.4,136.3,220,134.2z"
	/>
</svg>
