<svg viewBox="0 0 24 21" fill="none" xmlns="http://www.w3.org/2000/svg">
<path d="M24 3.15015C23.1007 3.54359 22.1639 3.80589 21.171 3.9183C22.1827 3.31877 22.9696 2.34453 23.3255 1.20167C22.37 1.76374 21.3208 2.17591 20.2155 2.40074C19.3162 1.44523 18.0234 0.845703 16.6183 0.845703C13.9016 0.845703 11.7096 3.05648 11.7096 5.75437C11.7096 6.14781 11.7471 6.52252 11.822 6.87849C7.7377 6.69114 4.12178 4.72392 1.68618 1.745C1.25527 2.47568 1.01171 3.31877 1.01171 4.21807C1.01171 5.92299 1.89227 7.42181 3.20375 8.30238C2.41686 8.28364 1.62998 8.05882 0.974239 7.70284C0.974239 7.72158 0.974239 7.74032 0.974239 7.75905C0.974239 10.1572 2.67916 12.1244 4.90867 12.5928C4.51522 12.7052 4.06557 12.7614 3.61593 12.7614C3.29742 12.7614 2.97892 12.7427 2.67916 12.6865C3.31616 14.6349 5.11475 16.0588 7.26932 16.115C5.60187 17.4265 3.46604 18.2134 1.18033 18.2134C0.76815 18.2134 0.393443 18.1946 0 18.1384C2.19204 19.5249 4.77752 20.3305 7.56909 20.3305C16.6183 20.3305 21.5644 12.8363 21.5644 6.33516C21.5644 6.11034 21.5644 5.90425 21.5457 5.69816C22.5199 5.00495 23.3255 4.14313 24 3.15015Z" fill="#fff"/>
</svg>