<svg viewBox="0 0 26 26" fill="none" xmlns="http://www.w3.org/2000/svg">
<path d="M15.382 12.9999L25.5059 2.87574C26.1647 2.2172 26.1647 1.15244 25.5059 0.493902C24.8473 -0.164634 23.7826 -0.164634 23.124 0.493902L12.9998 10.6181L2.87597 0.493902C2.21712 -0.164634 1.15267 -0.164634 0.494134 0.493902C-0.164711 1.15244 -0.164711 2.2172 0.494134 2.87574L10.618 12.9999L0.494134 23.1241C-0.164711 23.7826 -0.164711 24.8474 0.494134 25.5059C0.822322 25.8344 1.25384 25.9995 1.68505 25.9995C2.11626 25.9995 2.54747 25.8344 2.87597 25.5059L12.9998 15.3818L23.124 25.5059C23.4525 25.8344 23.8837 25.9995 24.3149 25.9995C24.7462 25.9995 25.1774 25.8344 25.5059 25.5059C26.1647 24.8474 26.1647 23.7826 25.5059 23.1241L15.382 12.9999Z" fill="#000"/>
</svg>