<svg viewBox="0 0 36 36" fill="none" xmlns="http://www.w3.org/2000/svg">
<path d="M30.7279 5.27206C27.3282 1.87234 22.8079 0 18 0C13.1921 0 8.67178 1.87234 5.27206 5.27206C1.87234 8.67178 0 13.1921 0 18C0 22.8079 1.87234 27.3282 5.27206 30.7279C8.67178 34.1277 13.1921 36 18 36C22.8079 36 27.3282 34.1277 30.7279 30.7279C34.1277 27.3282 36 22.8079 36 18C36 13.1921 34.1277 8.67178 30.7279 5.27206ZM7.8121 30.1849C8.40646 25.0708 12.8035 21.1223 18 21.1223C20.7394 21.1223 23.3155 22.1896 25.2532 24.1271C26.8901 25.7643 27.9226 27.902 28.1882 30.1847C25.4279 32.4965 21.8738 33.8906 18 33.8906C14.1262 33.8906 10.5724 32.4967 7.8121 30.1849ZM18 18.9498C14.9856 18.9498 12.5329 16.4971 12.5329 13.4827C12.5329 10.468 14.9856 8.01562 18 8.01562C21.0144 8.01562 23.4671 10.468 23.4671 13.4827C23.4671 16.4971 21.0144 18.9498 18 18.9498ZM30.0037 28.4016C29.4662 26.2345 28.3453 24.2364 26.7446 22.6357C25.4482 21.3393 23.9145 20.3667 22.2418 19.7573C24.2526 18.3936 25.5764 16.0898 25.5764 13.4827C25.5764 9.30515 22.1776 5.90625 18 5.90625C13.8224 5.90625 10.4236 9.30515 10.4236 13.4827C10.4236 16.0911 11.7485 18.3958 13.7609 19.7592C12.222 20.32 10.7979 21.1871 9.57266 22.3286C7.79837 23.981 6.56625 26.0879 5.99496 28.3999C3.5755 25.6108 2.10938 21.9735 2.10938 18C2.10938 9.23785 9.23785 2.10938 18 2.10938C26.7621 2.10938 33.8906 9.23785 33.8906 18C33.8906 21.9743 32.424 25.6124 30.0037 28.4016Z" fill="white"/>
</svg>