<svg viewBox="0 0 24 18" fill="none" xmlns="http://www.w3.org/2000/svg">
<path d="M23.0048 2.36448C22.348 1.20111 21.6537 0.9947 20.2089 0.919644C18.7641 0.807059 15.1426 0.769531 12.009 0.769531C8.87541 0.769531 5.25394 0.807059 3.82787 0.90088C2.38304 0.9947 1.67 1.20111 1.01326 2.36448C0.337753 3.50909 0 5.51684 0 9.02573C0 12.5158 0.337753 14.5236 1.01326 15.6682C1.67 16.8316 2.38304 17.038 3.80911 17.1318C5.25394 17.2256 8.87541 17.2819 12.009 17.2819C15.1426 17.2819 18.7641 17.2256 20.1901 17.1506C21.635 17.0568 22.3293 16.8503 22.986 15.687C23.6615 14.5424 23.9993 12.5346 23.9993 9.04449C24.018 5.51684 23.6803 3.50909 23.0048 2.36448ZM9.00676 13.5291V4.52235L16.5124 9.02573L9.00676 13.5291Z" fill="#fff"/>
</svg>