<svg viewBox="0 0 24 24" fill="none" xmlns="http://www.w3.org/2000/svg">
<path d="M16.5 0H7.5C3.35625 0 0 3.35625 0 7.5V16.5C0 20.6438 3.35625 24 7.5 24H16.5C20.6438 24 24 20.6438 24 16.5V7.5C24 3.35625 20.6438 0 16.5 0ZM21.75 16.5C21.75 19.3875 19.3875 21.75 16.5 21.75H7.5C4.6125 21.75 2.25 19.3875 2.25 16.5V7.5C2.25 4.6125 4.6125 2.25 7.5 2.25H16.5C19.3875 2.25 21.75 4.6125 21.75 7.5V16.5ZM12 6C8.68125 6 6 8.68125 6 12C6 15.3188 8.68125 18 12 18C15.3188 18 18 15.3188 18 12C18 8.68125 15.3188 6 12 6ZM12 15.75C9.9375 15.75 8.25 14.0625 8.25 12C8.25 9.9375 9.9375 8.25 12 8.25C14.0625 8.25 15.75 9.9375 15.75 12C15.75 14.0625 14.0625 15.75 12 15.75ZM19.2562 5.55C19.2562 6 18.9 6.35625 18.45 6.35625C18 6.35625 17.6437 6 17.6437 5.55C17.6437 5.1 18 4.74375 18.45 4.74375C18.9 4.74375 19.2562 5.1 19.2562 5.55Z" fill="#fff"/>
</svg>