<svg viewBox="0 0 36 33" fill="none" xmlns="http://www.w3.org/2000/svg">
<path d="M28.5039 23.9702C26.0288 23.9702 24.0151 25.9839 24.0151 28.459C24.0151 30.9341 26.0288 32.9478 28.5039 32.9478C30.979 32.9478 32.9927 30.9341 32.9927 28.459C32.9927 25.9839 30.979 23.9702 28.5039 23.9702ZM28.5039 30.2545C27.5137 30.2545 26.7084 29.4492 26.7084 28.459C26.7084 27.4688 27.5137 26.6635 28.5039 26.6635C29.4941 26.6635 30.2994 27.4688 30.2994 28.459C30.2994 29.4492 29.4941 30.2545 28.5039 30.2545Z" fill="white"/>
<path d="M35.7138 6.62137C35.4589 6.29505 35.0679 6.10471 34.6536 6.10471H8.3124L7.10041 1.03374C6.95543 0.427784 6.41359 6.14991e-09 5.79055 6.14991e-09H1.34663C0.602863 -7.03068e-05 0 0.602793 0 1.34656C0 2.09033 0.602863 2.6932 1.34663 2.6932H4.72763L9.10419 21.0057C9.24917 21.6122 9.79101 22.0394 10.414 22.0394H31.3768C31.9958 22.0394 32.5353 21.6175 32.6839 21.0169L35.9608 7.77492C36.0599 7.3728 35.9688 6.94769 35.7138 6.62137ZM30.3232 19.3463H11.477L8.95604 8.79797H32.933L30.3232 19.3463Z" fill="white"/>
<path d="M12.2095 23.9702C9.73432 23.9702 7.7207 25.9839 7.7207 28.459C7.7207 30.9341 9.7344 32.9478 12.2095 32.9478C14.6846 32.9478 16.6983 30.9341 16.6983 28.459C16.6983 25.9839 14.6846 23.9702 12.2095 23.9702ZM12.2095 30.2545C11.2193 30.2545 10.414 29.4492 10.414 28.459C10.414 27.4688 11.2193 26.6635 12.2095 26.6635C13.1997 26.6635 14.005 27.4688 14.005 28.459C14.005 29.4492 13.1997 30.2545 12.2095 30.2545Z" fill="white"/>
</svg>