<svg viewBox="0 0 16 16" fill="none" xmlns="http://www.w3.org/2000/svg">
<path d="M15.83 6.34361L12.3239 9.76131L13.1519 14.5884C13.1879 14.7995 13.1012 15.0128 12.9279 15.1389C12.8299 15.2104 12.7134 15.2464 12.5969 15.2464C12.5074 15.2464 12.4173 15.225 12.3352 15.1817L8 12.9027L3.66539 15.1811C3.47627 15.2813 3.24606 15.265 3.0727 15.1383C2.89933 15.0123 2.81265 14.7989 2.84868 14.5879L3.67665 9.76075L0.170011 6.34361C0.0169126 6.19389 -0.0388108 5.96987 0.027607 5.76667C0.0940249 5.56348 0.270201 5.41432 0.4824 5.38336L5.32809 4.67978L7.49511 0.288327C7.6848 -0.0961089 8.3152 -0.0961089 8.50489 0.288327L10.6719 4.67978L15.5176 5.38336C15.7298 5.41432 15.906 5.56292 15.9724 5.76667C16.0388 5.97043 15.9831 6.19332 15.83 6.34361Z" fill="#863690"/>
</svg>
