<svg viewBox="0 0 22 22" fill="none" xmlns="http://www.w3.org/2000/svg">
<path d="M9.87451 0C4.43278 0 0 4.43127 0 9.87116C0 15.311 4.43278 19.7509 9.87451 19.7509C12.1988 19.7509 14.3365 18.9366 16.026 17.5847L20.1391 21.6942C20.3467 21.8931 20.6239 22.0029 20.9114 21.9999C21.1989 21.997 21.4739 21.8816 21.6773 21.6785C21.8808 21.4754 21.9966 21.2008 21.9999 20.9134C22.0033 20.626 21.8939 20.3487 21.6952 20.1409L17.5821 16.0292C18.9356 14.3377 19.7512 12.1974 19.7512 9.87116C19.7512 4.43127 15.3162 0 9.87451 0ZM9.87451 2.1941C14.1301 2.1941 17.5542 5.61706 17.5542 9.87116C17.5542 14.1253 14.1301 17.5568 9.87451 17.5568C5.61895 17.5568 2.19481 14.1253 2.19481 9.87116C2.19481 5.61706 5.61895 2.1941 9.87451 2.1941Z" fill="#191919"/>
</svg>
