<svg viewBox="0 0 22 21" fill="none" xmlns="http://www.w3.org/2000/svg">
<path d="M17.4194 14.6486C15.9068 14.6486 14.6763 15.8792 14.6763 17.3918C14.6763 18.9043 15.9069 20.1349 17.4194 20.1349C18.932 20.1349 20.1626 18.9043 20.1626 17.3918C20.1626 15.8792 18.932 14.6486 17.4194 14.6486ZM17.4194 18.489C16.8143 18.489 16.3222 17.9969 16.3222 17.3918C16.3222 16.7866 16.8143 16.2945 17.4194 16.2945C18.0245 16.2945 18.5167 16.7866 18.5167 17.3918C18.5167 17.9969 18.0245 18.489 17.4194 18.489Z" fill="#191919"/>
<path d="M21.8251 4.04639C21.6693 3.84697 21.4304 3.73066 21.1772 3.73066H5.0798L4.33914 0.631731C4.25054 0.261424 3.91942 3.75828e-09 3.53867 3.75828e-09H0.822943C0.368416 -4.29653e-05 0 0.368373 0 0.8229C0 1.27743 0.368416 1.64584 0.822943 1.64584H2.88911L5.56367 12.8368C5.65227 13.2074 5.98339 13.4686 6.36414 13.4686H19.1747C19.553 13.4686 19.8827 13.2107 19.9735 12.8437L21.976 4.75134C22.0366 4.5056 21.9809 4.24581 21.8251 4.04639ZM18.5309 11.8227H7.0137L5.47314 5.37654H20.1257L18.5309 11.8227Z" fill="#191919"/>
<path d="M7.4614 14.6486C5.94881 14.6486 4.71826 15.8792 4.71826 17.3918C4.71826 18.9043 5.94885 20.1349 7.4614 20.1349C8.97396 20.1349 10.2045 18.9043 10.2045 17.3918C10.2045 15.8792 8.97396 14.6486 7.4614 14.6486ZM7.4614 18.489C6.85627 18.489 6.36415 17.9969 6.36415 17.3918C6.36415 16.7866 6.85627 16.2945 7.4614 16.2945C8.06654 16.2945 8.55866 16.7866 8.55866 17.3918C8.55866 17.9969 8.06654 18.489 7.4614 18.489Z" fill="#191919"/>
</svg>
