<svg viewBox="0 0 36 36" fill="none" xmlns="http://www.w3.org/2000/svg">
<path d="M16.1583 0C7.25365 0 0 7.25116 0 16.1528C0 25.0544 7.25365 32.3197 16.1583 32.3197C19.9617 32.3197 23.4597 30.9872 26.2243 28.7749L32.9549 35.4997C33.2946 35.8251 33.7482 36.0047 34.2187 35.9999C34.6892 35.9951 35.1391 35.8063 35.472 35.474C35.8049 35.1416 35.9944 34.6922 35.9999 34.2219C36.0053 33.7516 35.8263 33.2978 35.5012 32.9578L28.7707 26.2296C30.9856 23.4617 32.3201 19.9594 32.3201 16.1528C32.3201 7.25116 25.0629 0 16.1583 0ZM16.1583 3.59034C23.1219 3.59034 28.7251 9.19155 28.7251 16.1528C28.7251 23.1141 23.1219 28.7294 16.1583 28.7294C9.19464 28.7294 3.59151 23.1141 3.59151 16.1528C3.59151 9.19155 9.19464 3.59034 16.1583 3.59034Z" fill="white"/>
</svg>