<?xml version="1.0" encoding="utf-8"?>
<!-- Generator: Adobe Illustrator 26.5.0, SVG Export Plug-In . SVG Version: 6.00 Build 0)  -->
<svg version="1.1" id="Layer_1" xmlns="http://www.w3.org/2000/svg" xmlns:xlink="http://www.w3.org/1999/xlink" x="0px" y="0px"
	 viewBox="0 0 1158 430" style="enable-background:new 0 0 1158 430;" xml:space="preserve">
<style type="text/css">
	.st0{fill:#F5D800;}
	.st1{fill:#A81A97;}
</style>
<g>
	<g>
		<polygon class="st0" points="405.8,1.2 752.2,1.2 579,301.2 		"/>
		<path class="st1" d="M733.7,33.3h-30.9c-1.1-4.7-5.2-8.2-10.2-8.2s-9.2,3.5-10.2,8.2H475.7c-1.1-4.7-5.2-8.2-10.2-8.2
			c-1.1,0-2.1,0.2-3.1,0.5L448.3,1.2H443l15.4,26.7c-2.1,1.9-3.4,4.7-3.4,7.7c0,5.8,4.7,10.5,10.5,10.5c1.1,0,2.1-0.2,3.1-0.5
			l103.3,178.8c-2.1,1.9-3.4,4.7-3.4,7.7s1.3,5.8,3.4,7.7l-14.1,24.5l2.7,4.6l15.5-26.8c1,0.3,2,0.5,3.1,0.5
			c5.8,0,10.5-4.7,10.5-10.5c0-3-1.3-5.8-3.4-7.7L689.4,45.7c1,0.3,2,0.5,3.1,0.5c5,0,9.2-3.5,10.2-8.2H731L733.7,33.3z
			 M582.1,222.2c-1-0.3-2-0.5-3.1-0.5s-2.1,0.2-3.1,0.5L472.6,43.4c1.5-1.4,2.6-3.3,3.1-5.4h206.5c0.5,2.1,1.6,4,3.1,5.4
			L582.1,222.2z"/>
	</g>
	<polygon class="st1" points="517.5,86.4 563.4,86.4 563.4,165.8 579,192.9 594.6,165.8 594.6,86.4 640.5,86.4 658.6,55.1 
		499.4,55.1 	"/>
</g>
<path class="st1" d="M424.6,371h24.3l-14,24.3h-10.3v33.4h-24.3v-33.4h-39.5v33.4h-89.6c-26,0-47.1-21.1-47.1-47.1
	s21.1-47.1,47.1-47.1h41l-14,24.3h-27c-12.6,0-22.8,10.2-22.8,22.8c0,12.6,10.2,22.8,22.8,22.8h65.3v-69.8h24.3V371h39.5v-36.4h24.3
	V371z M585.5,334.6h-24.2v36.5h-39.5v-36.5h-24.3v94.2h24.3v-33.4h39.5v33.4h24.2v-33.4h10.3l14-24.3h-24.3V334.6z M151.2,395.4
	h29.5l13.3-24.3h-67v33.4h-9.2v24.3H201l14-24.3h-63.8V395.4z M15.3,358.9h32.1v69.9h24.3v-69.9H201l14-24.3H1.3L15.3,358.9z
	 M934.8,381.7c0,26-21.1,47.1-47.1,47.1s-47.1-21.1-47.1-47.1s21.1-47.1,47.1-47.1S934.8,355.7,934.8,381.7z M910.5,381.7
	c0-12.6-10.2-22.8-22.8-22.8s-22.8,10.2-22.8,22.8c0,12.6,10.2,22.8,22.8,22.8S910.5,394.3,910.5,381.7z M1126.3,368.1h-28.8
	c-2.5,0-4.6-2-4.6-4.6c0-2.5,2-4.6,4.6-4.6h44.9l14.4-24.3h-59.2c-15.9,0-28.8,12.9-28.8,28.8c0,15.9,12.9,28.8,28.8,28.8h28.8
	c3.4,0,6.1,2.7,6.1,6.1c0,3.4-2.7,6.1-6.1,6.1h-52.7l-14.1,24.3h66.8c16.8,0,30.4-13.6,30.4-30.4S1143.1,368.1,1126.3,368.1z
	 M822.5,365c0-16.8-13.6-30.4-30.4-30.4h-66.8v24.3h66.8c3.4,0,6.1,2.7,6.1,6.1c0,3.4-2.8,6.1-6.1,6.1h-57.7v57.7h24.3v-33.4h11.1
	c5.8,19.3,23.8,33.4,45,33.4h7.6h0.1v-24.3h-7.6c-7.5,0-14.3-3.7-18.4-9.4C811.2,393,822.5,380.3,822.5,365z M953.2,358.9h83.1
	l14.1-24.2h-97.2V358.9z M986.6,395.4h28.4l14.3-24.3h-67v33.4h-9.1v24.3h83.1l14.1-24.3h-63.8V395.4z M618.9,358.9h83.2l14-24.2
	h-97.2V358.9z M652.3,395.4h28.4l14.4-24.3H628v33.4h-9.1v24.3h83.2l14-24.3h-63.8V395.4z"/>
</svg>
