<svg viewBox="0 0 120 65" fill="none" xmlns="http://www.w3.org/2000/svg">
<path d="M5.31915 59.1372C5.31915 59.1702 5.29152 59.2048 5.25856 59.2135L4.87603 59.316C4.84307 59.325 4.8161 59.305 4.8161 59.2721C4.79446 58.7041 4.41692 58.4111 3.77238 58.5842C2.78858 58.8476 2.29685 59.9306 2.29685 60.9094C2.29685 61.6691 2.73398 61.9891 3.41149 61.8076C3.98012 61.6555 4.4116 61.2716 4.61368 60.5562C4.62467 60.5152 4.65763 60.4842 4.69059 60.4756L5.07845 60.3717C5.1114 60.3631 5.13305 60.3844 5.12206 60.4203C4.85971 61.3595 4.26977 61.9987 3.41149 62.2288C2.43335 62.4908 1.77216 62.0284 1.77216 61.0609C1.77216 59.7711 2.55354 58.4907 3.81033 58.1541C4.65763 57.9267 5.30217 58.2623 5.31882 59.1379L5.31915 59.1372ZM11.7809 57.5698C11.7809 58.8869 10.8847 60.2256 9.62787 60.5625C8.64408 60.8262 8.03216 60.3667 8.03216 59.4325C8.03216 58.1095 8.90642 56.7878 10.1795 56.4465C11.1417 56.1888 11.7809 56.624 11.7809 57.5698ZM11.2509 57.7446C11.2509 57.0228 10.8244 56.6942 10.1579 56.873C9.16344 57.1393 8.55685 58.22 8.55685 59.2807C8.55685 59.9859 8.96668 60.3188 9.64951 60.136C10.617 59.8767 11.2509 58.8269 11.2509 57.7446ZM16.6196 58.2084L14.9477 58.6561L15.2976 56.9446L15.7237 55.0918C15.7347 55.0562 15.7128 55.0349 15.6801 55.0436L15.2703 55.1534C15.2373 55.1621 15.2044 55.1981 15.199 55.2323L14.8218 57.0994L14.3411 59.1682C14.3301 59.2041 14.3521 59.2255 14.385 59.2165L16.5321 58.6412C16.565 58.6325 16.598 58.5966 16.6033 58.5623L16.6689 58.2546C16.6742 58.2207 16.6526 58.199 16.6196 58.208V58.2084ZM21.7201 56.842L20.0481 57.2898L20.398 55.5783L20.8242 53.7255C20.8351 53.6899 20.8128 53.6686 20.7805 53.6772L20.3704 53.7868C20.3374 53.7958 20.3048 53.8317 20.2995 53.8663L19.9223 55.7327L19.4415 57.8022C19.4305 57.8382 19.4525 57.8595 19.4855 57.8505L21.6328 57.2752C21.6658 57.2665 21.6984 57.2302 21.7041 57.1963L21.7697 56.8886C21.775 56.8547 21.7534 56.833 21.7204 56.842H21.7201ZM27.766 51.8052L25.4711 52.4201C25.4382 52.4288 25.4055 52.4647 25.3999 52.499L25.0177 54.3944L24.5423 56.4352C24.5313 56.4708 24.5533 56.4921 24.5859 56.4835L26.9247 55.8566C26.9576 55.8479 26.9906 55.812 26.9959 55.7777L27.0615 55.4704C27.0672 55.4361 27.0452 55.4148 27.0126 55.4234L25.1492 55.9228L25.4601 54.413L27.1764 53.9532C27.2087 53.9446 27.2416 53.9086 27.2476 53.8743L27.3129 53.5667C27.3185 53.5328 27.2966 53.5111 27.2639 53.5201L25.548 53.9799L25.854 52.7281L27.6738 52.2403C27.7067 52.2317 27.7394 52.1954 27.7447 52.1614L27.8159 51.8528C27.8216 51.8185 27.7993 51.7972 27.7667 51.8059L27.766 51.8052ZM32.1996 50.5467C30.9424 50.8837 30.1614 52.1641 30.1614 53.4535C30.1614 54.421 30.8222 54.8838 31.8004 54.6214C32.659 54.3917 33.2486 53.7522 33.5113 52.813C33.5223 52.777 33.5006 52.7557 33.4677 52.7644L33.0795 52.8682C33.0465 52.8769 33.0139 52.9079 33.0029 52.9488C32.8008 53.6643 32.3693 54.0481 31.8004 54.2003C31.1232 54.382 30.6861 54.0618 30.6861 53.302C30.6861 52.3232 31.1778 51.2402 32.1613 50.9769C32.8065 50.8038 33.1833 51.0967 33.2053 51.6647C33.2053 51.6977 33.2326 51.7176 33.2653 51.709L33.6474 51.6061C33.6807 51.5975 33.708 51.5625 33.708 51.5299C33.6917 50.6543 33.0469 50.319 32.1996 50.5461V50.5467ZM39.2193 48.7363L36.5962 49.4391C36.5639 49.4478 36.5309 49.4841 36.5253 49.518L36.46 49.831C36.454 49.8649 36.4816 49.8852 36.5086 49.8776L37.5527 49.5982L37.2247 51.2003L36.7713 53.1585C36.7606 53.1942 36.7876 53.2138 36.8152 53.2068L37.2357 53.0943C37.2687 53.0853 37.3013 53.0494 37.307 53.0147L37.6948 51.0748L38.083 49.4564L39.1271 49.1764C39.16 49.1678 39.1927 49.1315 39.198 49.0975L39.2692 48.7832C39.2749 48.749 39.2526 48.7276 39.22 48.7363H39.2193ZM42.6061 47.8287L42.1966 47.9386C42.1637 47.9473 42.1311 47.9836 42.1254 48.0175L41.7315 49.9435L41.2674 51.954C41.2565 51.9896 41.2781 52.0113 41.3111 52.0023L41.7206 51.8928C41.7535 51.8838 41.7861 51.8478 41.7921 51.8132L42.2016 49.8176L42.6498 47.8773C42.6604 47.8414 42.6388 47.8201 42.6058 47.8287H42.6061ZM48.466 47.2808C48.3781 47.7365 48.0395 48.1117 47.5534 48.3178C48.0724 48.3371 48.2586 48.6264 48.1713 49.1361C48.0235 49.9142 47.3237 50.3913 46.5919 50.5874L45.0561 50.9989C45.0232 51.0075 45.0012 50.9862 45.0122 50.9506L45.4823 48.9167L45.8705 47.0144C45.8755 46.9804 45.9084 46.9442 45.9417 46.9355L47.2751 46.5783C48.1004 46.3569 48.5978 46.5576 48.4666 47.2811L48.466 47.2808ZM46.8976 48.6794L45.9247 48.9404L45.6131 50.4559L46.6405 50.1809C47.1539 50.0434 47.5587 49.76 47.6626 49.2457C47.7825 48.6564 47.389 48.5479 46.8972 48.6797L46.8976 48.6794ZM47.2418 46.9748L46.3292 47.2195L46.0123 48.5292L47.04 48.2536C47.5101 48.1277 47.865 47.8793 47.9523 47.4515C48.0451 46.9728 47.7502 46.839 47.2418 46.9748ZM53.2544 48.3924L51.5825 48.8402L51.9324 47.1286L52.3585 45.2759C52.3695 45.2402 52.3475 45.2189 52.3149 45.2276L51.9048 45.3375C51.8718 45.3461 51.8392 45.3821 51.8338 45.4164L51.4563 47.2827L50.9756 49.3522C50.9646 49.3882 50.9865 49.4095 51.0195 49.4005L53.1672 48.8252C53.2002 48.8165 53.2328 48.7802 53.2381 48.7463L53.304 48.4387C53.309 48.4047 53.2874 48.3831 53.2548 48.3921L53.2544 48.3924ZM59.3 43.3556L57.0052 43.9705C56.9722 43.9791 56.9396 44.0154 56.9343 44.0494L56.5517 45.9451L56.0763 47.9855C56.0653 48.0212 56.0873 48.0425 56.1203 48.0338L58.4591 47.4073C58.492 47.3983 58.5246 47.3623 58.53 47.3284L58.5956 47.0207C58.6012 46.9864 58.5792 46.9651 58.5466 46.9738L56.6832 47.4735L56.9948 45.963L58.7107 45.5033C58.7437 45.4946 58.776 45.4586 58.782 45.4244L58.8472 45.1171C58.8529 45.0828 58.8306 45.0615 58.7983 45.0701L57.0821 45.5299L57.3884 44.2781L59.2081 43.7904C59.2411 43.7817 59.2737 43.7457 59.2791 43.7115L59.3503 43.4028C59.356 43.3685 59.334 43.3472 59.301 43.3559L59.3 43.3556ZM63.4912 42.167C62.5354 42.423 61.9887 43.1059 61.9887 43.7398C61.9887 44.9912 64.0818 43.9601 64.0818 44.8401C64.0818 45.1847 63.7922 45.6338 63.1363 45.8096C62.4315 45.9987 62.0656 45.7466 62.1036 45.1737C62.1036 45.1407 62.082 45.1191 62.049 45.1277L61.6392 45.2376C61.6062 45.2462 61.5736 45.2825 61.5736 45.3158C61.4917 46.1848 62.1639 46.4804 63.0987 46.2297C64.0822 45.966 64.6122 45.2229 64.6122 44.5944C64.6122 43.3699 62.5081 44.3657 62.5081 43.5074C62.5081 43.1192 62.8856 42.7446 63.4586 42.5908C64.0542 42.4317 64.3935 42.6031 64.3552 43.0779C64.3552 43.1109 64.3768 43.1325 64.4101 43.1238L64.8196 43.014C64.8526 43.0053 64.8802 42.97 64.8852 42.9357C64.9125 42.1417 64.3389 41.94 63.4916 42.167H63.4912ZM62.2118 31.0606C61.5399 31.0606 60.9976 30.8339 60.6374 30.4091C60.431 30.1581 60.2975 29.8544 60.2449 29.5065L55.9341 30.6601C56.1609 31.6236 56.598 32.5182 57.2296 33.2709C58.4238 34.6958 60.2412 35.5135 62.2121 35.5135C66.0817 35.5135 69.6477 32.4939 70.3358 28.6366C70.6638 26.7665 70.2669 24.9531 69.2145 23.5285C68.1905 22.1442 66.6524 21.262 64.8795 21.0392L63.4789 20.8651C63.2279 20.8368 62.888 20.7396 62.6855 20.4643C62.4751 20.1809 62.4871 19.8004 62.5357 19.5334C62.7341 18.4121 63.8754 17.4286 64.9847 17.4286C65.2477 17.4286 65.612 17.4892 65.847 17.7686C65.9359 17.8738 66.0008 18.0033 66.0291 18.1531L70.3318 16.9995C70.1294 16.2305 69.7692 15.514 69.2592 14.9067C68.2311 13.6802 66.6727 12.9761 64.9847 12.9761C61.7224 12.9761 58.7231 15.518 58.1481 18.7643C57.8688 20.3511 58.2087 21.8972 59.1073 23.1117C59.9978 24.3179 61.3538 25.0869 62.9282 25.2854L64.3289 25.4595C64.8875 25.5284 65.3366 25.7751 65.6323 26.1719C65.9522 26.6051 66.0654 27.208 65.9479 27.8639C65.6403 29.5964 63.932 31.0616 62.2118 31.0616V31.0606ZM74.4861 32.4895L79.2299 31.2184L82.5006 12.6718L87.5358 11.3238L88.3857 6.48672L73.5712 10.4535L72.7213 15.2906L77.7568 13.9426L74.4861 32.4892V32.4895ZM107.353 23.675L102.609 24.9458L106.726 1.56641L111.648 0.247031C112.271 0.0809009 112.874 0 113.494 0C115.331 0 117.031 0.765063 118.149 2.09676C119.286 3.44878 119.752 5.29052 119.424 7.14824C118.966 9.74273 117.044 12.0256 114.55 13.0134L119.173 20.5055L114.68 21.7117L110.082 14.2599L108.961 14.5595L107.353 23.675H107.353ZM109.814 9.72276L112.672 8.95769C113.846 8.60146 114.837 7.52079 115.039 6.37952C115.137 5.81288 115.031 5.30683 114.74 4.95893C114.46 4.627 114.027 4.45288 113.493 4.45288C113.258 4.45288 113.052 4.48118 112.801 4.55009L110.619 5.13305L109.814 9.72309L109.814 9.72276ZM120 24.9015L109.067 27.8279L99.6643 35.2189L102.773 46.7913L90.585 42.3511L80.4375 50.321L84.8131 40.2464L75.4509 36.8382L67.9548 38.8457L78.8431 42.8126L69.3391 64.7064L91.3867 47.3823L109.294 53.9113L104.724 36.9028L120 24.9015ZM89.9901 28.3153L94.8188 17.1883L97.2838 26.3604V26.3644L101.583 25.2068L95.8106 3.72177L84.4975 29.7888L89.9901 28.3156V28.3153ZM19.073 47.3344L23.8168 46.0632L27.9414 22.6756L23.1976 23.9467L19.073 47.3344ZM15.5999 29.4409C16.6886 30.7403 17.134 32.5052 16.8184 34.286C16.5514 35.7958 15.7943 37.1761 14.7216 38.2405C14.7379 38.2568 14.7539 38.2728 14.7662 38.2891C15.9238 39.6654 16.3936 41.5434 16.0617 43.4378C15.5396 46.3925 13.2121 48.9104 10.2694 49.6995L0 52.4478L4.12461 29.0684L9.46774 27.6355C9.98976 27.494 10.5607 27.4211 11.1314 27.4211C12.8962 27.4211 14.5275 28.1578 15.5999 29.4409ZM11.3538 41.1509C11.0541 40.7907 10.5887 40.6006 10.0181 40.6006C9.78335 40.6006 9.55263 40.6289 9.32191 40.6895C9.31392 40.6935 6.46009 41.4585 6.46009 41.4585L5.59781 46.3442L9.11517 45.4011C10.378 45.0611 11.4546 43.9115 11.6774 42.6647C11.7826 42.0615 11.6694 41.5231 11.3534 41.1509H11.3538ZM12.1877 32.3028C11.957 32.0234 11.5888 31.8736 11.1314 31.8736C10.9493 31.8736 10.7592 31.8979 10.6173 31.9382L8.01485 32.6344L7.31071 36.6175L10.3546 35.8038C11.3584 35.5368 12.253 34.549 12.4351 33.5129C12.5203 33.0232 12.4351 32.5941 12.1884 32.3028H12.1877ZM41.0514 29.8285L40.508 32.9054V32.9074L45.8022 31.4868C44.8424 35.0148 42.2799 37.1648 38.938 37.1648C37.4485 37.1648 36.3025 36.6944 35.5248 35.7692C34.5783 34.6426 34.2367 32.8494 34.59 30.8512C35.3137 26.7452 38.4675 23.7662 42.0858 23.7662C43.3372 23.7662 44.32 24.1597 45.0055 24.9335L49.5183 23.7223C49.2267 23.1483 48.8791 22.6166 48.4779 22.1405C46.9232 20.2901 44.7136 19.315 42.0858 19.315C36.3022 19.315 31.3037 23.8395 30.2057 30.0782C29.6144 33.4257 30.2902 36.4607 32.1117 38.6297C33.728 40.557 36.1524 41.6184 38.9376 41.6184C41.7229 41.6184 44.4219 40.578 46.4298 38.7602C48.4453 36.9424 49.8696 34.3509 50.4166 31.2547C50.6586 29.8784 50.7046 28.5347 50.5547 27.2812L41.051 29.8285H41.0514Z" fill="white"/>
</svg>