<svg viewBox="0 0 298 161" fill="none" xmlns="http://www.w3.org/2000/svg">
<path d="M13.2092 146.857C13.2092 146.939 13.1406 147.025 13.0588 147.047L12.1088 147.301C12.027 147.324 11.96 147.274 11.96 147.192C11.9062 145.782 10.9687 145.054 9.36807 145.484C6.92498 146.138 5.70385 148.828 5.70385 151.258C5.70385 153.145 6.78939 153.94 8.47186 153.489C9.88398 153.111 10.9555 152.158 11.4573 150.381C11.4846 150.279 11.5664 150.203 11.6483 150.181L12.6115 149.923C12.6933 149.902 12.7471 149.954 12.7198 150.044C12.0683 152.376 10.6033 153.963 8.47186 154.535C6.04283 155.185 4.40087 154.037 4.40087 151.634C4.40087 148.432 6.34129 145.252 9.46233 144.416C11.5664 143.851 13.1671 144.685 13.2084 146.859L13.2092 146.857ZM29.2559 142.965C29.2559 146.236 27.0303 149.56 23.9092 150.397C21.4661 151.052 19.9465 149.911 19.9465 147.591C19.9465 144.305 22.1176 141.023 25.2792 140.176C27.6685 139.536 29.2559 140.616 29.2559 142.965ZM27.9397 143.399C27.9397 141.607 26.8806 140.791 25.2254 141.235C22.7559 141.896 21.2495 144.58 21.2495 147.214C21.2495 148.965 22.2673 149.792 23.963 149.338C26.3655 148.694 27.9397 146.087 27.9397 143.399ZM41.2721 144.551L37.1201 145.663L37.989 141.412L39.0473 136.811C39.0746 136.723 39.02 136.67 38.939 136.692L37.9212 136.964C37.8394 136.986 37.7575 137.075 37.7443 137.16L36.8076 141.797L35.6137 146.934C35.5864 147.024 35.641 147.077 35.7229 147.054L41.0547 145.626C41.1365 145.604 41.2184 145.515 41.2316 145.43L41.3945 144.666C41.4077 144.581 41.354 144.528 41.2721 144.55V144.551ZM53.9382 141.158L49.7861 142.27L50.6551 138.019L51.7133 133.418C51.7406 133.33 51.6852 133.277 51.605 133.298L50.5864 133.57C50.5046 133.593 50.4236 133.682 50.4103 133.768L49.4736 138.403L48.2798 143.542C48.2525 143.631 48.3071 143.684 48.3889 143.662L53.7215 142.233C53.8034 142.212 53.8844 142.122 53.8985 142.037L54.0613 141.273C54.0746 141.189 54.0208 141.135 53.939 141.158H53.9382ZM68.9522 128.65L63.2533 130.177C63.1715 130.198 63.0904 130.287 63.0764 130.373L62.1273 135.079L60.9466 140.147C60.9193 140.236 60.9739 140.289 61.0549 140.267L66.863 138.71C66.9448 138.689 67.0267 138.6 67.0399 138.515L67.2028 137.751C67.2168 137.666 67.1623 137.613 67.0812 137.635L62.4538 138.875L63.226 135.126L67.488 133.984C67.5682 133.962 67.65 133.873 67.6649 133.788L67.827 133.024C67.841 132.94 67.7865 132.886 67.7054 132.908L63.4443 134.05L64.2041 130.941L68.7232 129.73C68.805 129.709 68.8861 129.619 68.8993 129.534L69.0762 128.768C69.0903 128.683 69.0349 128.63 68.9539 128.651L68.9522 128.65ZM79.9622 125.524C76.8404 126.361 74.9008 129.541 74.9008 132.743C74.9008 135.145 76.5419 136.295 78.9709 135.643C81.1032 135.073 82.5674 133.485 83.2197 131.152C83.247 131.063 83.1932 131.01 83.1114 131.032L82.1474 131.289C82.0655 131.311 81.9845 131.388 81.9572 131.49C81.4554 133.266 80.3839 134.22 78.9709 134.597C77.2893 135.049 76.2038 134.253 76.2038 132.367C76.2038 129.936 77.4249 127.247 79.8672 126.593C81.4694 126.163 82.4053 126.89 82.4599 128.301C82.4599 128.383 82.5277 128.432 82.6087 128.411L83.5578 128.155C83.6405 128.134 83.7083 128.047 83.7083 127.966C83.6678 125.791 82.0663 124.959 79.9622 125.523V125.524ZM97.3946 121.028L90.8805 122.774C90.8003 122.795 90.7184 122.885 90.7044 122.97L90.5423 123.747C90.5275 123.831 90.5961 123.882 90.663 123.863L93.2558 123.169L92.4414 127.147L91.3154 132.01C91.2889 132.099 91.3559 132.148 91.4245 132.13L92.4687 131.851C92.5506 131.829 92.6316 131.739 92.6456 131.653L93.6088 126.836L94.5728 122.817L97.1656 122.121C97.2474 122.1 97.3284 122.01 97.3417 121.926L97.5186 121.145C97.5326 121.06 97.4772 121.007 97.3962 121.028H97.3946ZM105.805 118.775L104.788 119.048C104.706 119.069 104.625 119.159 104.611 119.243L103.633 124.026L102.481 129.019C102.454 129.108 102.507 129.161 102.589 129.139L103.606 128.867C103.688 128.845 103.769 128.755 103.784 128.669L104.801 123.714L105.914 118.895C105.94 118.806 105.886 118.753 105.804 118.775H105.805ZM120.357 117.414C120.139 118.546 119.298 119.477 118.091 119.989C119.38 120.037 119.842 120.756 119.625 122.021C119.258 123.954 117.521 125.138 115.703 125.625L111.889 126.647C111.808 126.669 111.753 126.616 111.78 126.527L112.948 121.477L113.912 116.752C113.924 116.668 114.006 116.578 114.089 116.557L117.4 115.669C119.449 115.12 120.685 115.618 120.359 117.415L120.357 117.414ZM116.462 120.887L114.046 121.535L113.273 125.299L115.824 124.616C117.099 124.274 118.104 123.571 118.362 122.293C118.66 120.83 117.683 120.561 116.461 120.888L116.462 120.887ZM117.317 116.654L115.051 117.262L114.264 120.514L116.816 119.83C117.984 119.517 118.865 118.9 119.081 117.838C119.312 116.649 118.58 116.317 117.317 116.654ZM132.249 120.174L128.096 121.286L128.965 117.036L130.024 112.435C130.051 112.347 129.996 112.294 129.915 112.315L128.897 112.588C128.815 112.61 128.734 112.699 128.721 112.784L127.783 117.419L126.589 122.558C126.562 122.647 126.617 122.7 126.698 122.678L132.032 121.249C132.114 121.228 132.195 121.138 132.208 121.053L132.372 120.289C132.384 120.205 132.33 120.151 132.249 120.174L132.249 120.174ZM147.262 107.666L141.563 109.193C141.481 109.215 141.4 109.305 141.387 109.389L140.437 114.097L139.256 119.164C139.229 119.253 139.283 119.305 139.365 119.284L145.173 117.728C145.255 117.706 145.336 117.616 145.349 117.532L145.512 116.768C145.526 116.683 145.472 116.63 145.391 116.652L140.763 117.893L141.537 114.142L145.798 113C145.88 112.978 145.96 112.889 145.975 112.804L146.137 112.041C146.151 111.956 146.096 111.903 146.016 111.924L141.754 113.066L142.514 109.957L147.034 108.746C147.115 108.725 147.196 108.635 147.21 108.55L147.387 107.784C147.401 107.699 147.346 107.646 147.264 107.667L147.262 107.666ZM157.67 104.715C155.296 105.351 153.939 107.046 153.939 108.62C153.939 111.728 159.137 109.168 159.137 111.353C159.137 112.209 158.417 113.324 156.789 113.76C155.038 114.23 154.13 113.604 154.224 112.181C154.224 112.099 154.17 112.046 154.088 112.067L153.071 112.34C152.989 112.362 152.908 112.452 152.908 112.534C152.704 114.692 154.374 115.426 156.695 114.804C159.137 114.149 160.454 112.304 160.454 110.743C160.454 107.702 155.228 110.175 155.228 108.043C155.228 107.079 156.166 106.149 157.589 105.767C159.068 105.372 159.91 105.798 159.815 106.977C159.815 107.059 159.869 107.112 159.952 107.091L160.969 106.818C161.051 106.797 161.119 106.709 161.132 106.624C161.199 104.652 159.775 104.151 157.671 104.715H157.67ZM154.493 77.1339C152.824 77.1339 151.477 76.5708 150.583 75.5159C150.07 74.8925 149.739 74.1385 149.608 73.2745L138.903 76.1393C139.466 78.5319 140.552 80.7534 142.12 82.6228C145.086 86.1613 149.599 88.1918 154.493 88.1918C164.103 88.1918 172.958 80.6931 174.667 71.1142C175.482 66.4703 174.496 61.9669 171.883 58.4291C169.34 54.9915 165.52 52.8005 161.117 52.2474L157.639 51.815C157.016 51.7447 156.172 51.5033 155.669 50.8196C155.147 50.116 155.176 49.171 155.297 48.508C155.79 45.7234 158.624 43.2811 161.379 43.2811C162.032 43.2811 162.936 43.4316 163.52 44.1253C163.741 44.3865 163.902 44.7081 163.972 45.0802L174.657 42.2155C174.155 40.3056 173.26 38.5264 171.994 37.0184C169.441 33.9726 165.57 32.224 161.379 32.224C153.277 32.224 145.829 38.5363 144.401 46.5981C143.707 50.5385 144.552 54.378 146.783 57.394C148.995 60.3894 152.362 62.2992 156.272 62.792L159.75 63.2244C161.137 63.3955 162.253 64.0081 162.987 64.9937C163.781 66.0693 164.062 67.5665 163.771 69.1953C163.007 73.4978 158.765 77.1363 154.493 77.1363V77.1339ZM184.974 80.6823L196.754 77.5258L204.877 31.4683L217.38 28.1208L219.491 16.1087L182.702 25.9596L180.591 37.9717L193.096 34.6241L184.974 80.6815V80.6823ZM266.594 58.7929L254.813 61.9487L265.036 3.88993L277.259 0.61346C278.807 0.200904 280.305 0 281.843 0C286.406 0 290.628 1.89991 293.402 5.20697C296.227 8.56446 297.383 13.1381 296.569 17.7515C295.433 24.1945 290.658 29.8636 284.467 32.3166L295.945 50.9221L284.788 53.9175L273.37 35.412L270.585 36.1561L266.595 58.7929H266.594ZM272.705 24.1448L279.801 22.2449C282.716 21.3603 285.179 18.6766 285.681 15.8425C285.923 14.4353 285.661 13.1786 284.937 12.3147C284.243 11.4904 283.168 11.058 281.841 11.058C281.258 11.058 280.745 11.1283 280.122 11.2994L274.704 12.7471L272.704 24.1457L272.705 24.1448ZM298 61.8387L270.85 69.106L247.5 87.4602L255.219 116.199L224.953 105.172L199.753 124.964L210.619 99.9451L187.37 91.4815L168.754 96.4669L195.794 106.318L172.192 160.688L226.944 117.666L271.413 133.88L260.065 91.6419L298 61.8387ZM223.475 70.3164L235.467 42.6842L241.588 65.4616V65.4715L252.263 62.5969L237.93 9.24241L209.835 73.9756L223.475 70.3172V70.3164ZM47.3645 117.547L59.1451 114.39L69.3879 56.311L57.6073 59.4676L47.3645 117.547ZM38.7397 73.1117C41.4432 76.3385 42.5495 80.7212 41.7657 85.1436C41.1026 88.8929 39.2226 92.3207 36.5587 94.9639C36.5992 95.0044 36.6389 95.0441 36.6695 95.0846C39.5442 98.5024 40.7107 103.166 39.8865 107.871C38.5901 115.208 32.8102 121.461 25.5024 123.42L0 130.245L10.2428 72.1865L23.5115 68.6281C24.8079 68.2767 26.2258 68.0957 27.6429 68.0957C32.0256 68.0957 36.0767 69.9253 38.7397 73.1117ZM28.1952 102.191C27.4511 101.297 26.2953 100.825 24.8782 100.825C24.2953 100.825 23.7224 100.895 23.1494 101.046C23.1296 101.055 16.0425 102.955 16.0425 102.955L13.9012 115.088L22.636 112.746C25.7719 111.902 28.4457 109.047 28.9988 105.951C29.26 104.453 28.9789 103.116 28.1943 102.191H28.1952ZM30.2662 80.2185C29.6933 79.5249 28.7789 79.1528 27.6429 79.1528C27.1906 79.1528 26.7186 79.2132 26.3664 79.3132L19.9035 81.042L18.1549 90.9334L25.714 88.9128C28.2067 88.2497 30.4283 85.7967 30.8805 83.2238C31.0922 82.0076 30.8805 80.9419 30.2679 80.2185H30.2662ZM101.944 74.074L100.595 81.715V81.7199L113.742 78.1921C111.359 86.9534 104.995 92.2926 96.696 92.2926C92.997 92.2926 90.1513 91.1244 88.22 88.8268C85.8695 86.029 85.0212 81.5761 85.8984 76.6138C87.6958 66.4173 95.5277 59.0194 104.513 59.0194C107.621 59.0194 110.061 59.9967 111.764 61.9181L122.971 58.9103C122.246 57.485 121.383 56.1646 120.387 54.9824C116.526 50.3872 111.039 47.9656 104.513 47.9656C90.1505 47.9656 77.7374 59.2013 75.0107 74.6941C73.5424 83.0072 75.2207 90.544 79.744 95.9304C83.7579 100.717 89.7784 103.352 96.6951 103.352C103.612 103.352 110.314 100.769 115.301 96.2545C120.306 91.7403 123.843 85.3048 125.201 77.6159C125.802 74.198 125.916 70.8612 125.544 67.7484L101.943 74.074H101.944Z" fill="#863690"/>
</svg>