<?xml version="1.0" encoding="utf-8"?>
<!-- Generator: Adobe Illustrator 26.5.0, SVG Export Plug-In . SVG Version: 6.00 Build 0)  -->
<svg version="1.1" id="Layer_1" xmlns="http://www.w3.org/2000/svg" xmlns:xlink="http://www.w3.org/1999/xlink" x="0px" y="0px"
	 viewBox="0 0 324 334" style="enable-background:new 0 0 324 334;" xml:space="preserve">
<style type="text/css">
	.st0{fill:#93D500;}
	.st1{fill:#410099;}
</style>
<path class="st0" d="M306.5,199.5L182.7,11.2C178.3,4.6,170.6,0.7,162,0.7s-16.3,3.9-20.6,10.6L17.6,199.5
	c-4.3,6.5-4.9,13.7-1.7,19.8c4.2,7.7,13.9,12.4,26.1,12.4h240c12,0,21.8-4.7,26-12.6C311.3,213.1,310.7,205.9,306.5,199.5z
	 M218.5,116c-0.6,0-1.1-0.5-1.1-1.1s0.5-1.1,1.1-1.1h4.9v-4.9c0-0.6,0.5-1.1,1.1-1.1s1.1,0.5,1.1,1.1v4.9h4.9c0.6,0,1.1,0.5,1.1,1.1
	s-0.5,1.1-1.1,1.1h-4.9v4.9c0,0.6-0.5,1.1-1.1,1.1s-1.1-0.5-1.1-1.1V116H218.5z M214.2,88.4l-7.8,2.9l-2.9,7.8l-2.9-7.8l-7.8-2.9
	l7.8-2.9l2.9-7.8l2.9,7.8L214.2,88.4z M98,110.2c-0.9,0-1.7-0.8-1.7-1.7s0.8-1.7,1.7-1.7h7.6v-7.6c0-0.9,0.8-1.7,1.7-1.7
	s1.7,0.8,1.7,1.7v7.6h7.6c0.9,0,1.7,0.8,1.7,1.7s-0.8,1.7-1.7,1.7H109v7.6c0,0.9-0.8,1.7-1.7,1.7s-1.7-0.8-1.7-1.7v-7.6H98z
	 M157,30.6l3.1-10.2l3.1,10.2l10.2,3.1l-10.2,3.1L160.1,47L157,36.9l-10.2-3.1L157,30.6z M301.1,215.4c-2.8,5.2-10.1,8.4-19.1,8.4
	H42c-9.1,0-16.4-3.2-19.2-8.3c-1.9-3.5-1.4-7.6,1.3-11.8L53.6,159c14.6-12.8,39.7-30.5,73-38.2c3-26.2,14.2-47.9,32.8-63.6l2.8-2.3
	l2.6,2.5c17.4,17.1,28.2,38.6,31.7,63c34.8,6.8,58,22.6,71.7,35.2l31.7,48.2C302.6,207.9,303,211.9,301.1,215.4z"/>
<path class="st1" d="M56.9,197l-9.4,6.2c0,0-3,0.3-3.3-4.6l10-6.7C54.2,191.9,54.3,195.2,56.9,197z M73.7,177.7L55.6,189
	c0,0,0.1,5.7,4.1,7.9l18.5-10.4C78.2,186.5,74.3,183.9,73.7,177.7z M75.4,174.7c0,0-0.1,7.8,6,10.9l19.3-10.5c0,0-4-0.3-6.1-4.6
	c-2-4-0.7-6.9-0.7-6.9L75.4,174.7z M102.2,174c0.1,0,2.2-2.6-0.7-7.4c-2.5-4.1-6.2-3.3-6.2-3.3s-0.9,2,0.3,3.1c0,0,2.3-0.6,3.6,1.6
	c1.2,2.2,1.3,3.7,0.1,4.9C99.3,172.9,100.9,173.9,102.2,174z M71.2,195.8l-6.9,28h4.8l4.5-25.3l2.5-1l9.1,26.3h5.5l-12.3-32.4
	L71.2,195.8z M80.3,191.8l2.1,5.9l17.6,26.1h6.6l-22.7-31.6L80.3,191.8z M284,176.6c-2.9-2.7-36.8-32.4-88.6-42.2
	c0.2,3.6,0.1,7.1,0,10.4c-0.1,3.7-0.4,7.2-0.8,10.6c5.3,8.6,21.2,34.7,18.6,38c-2.8,3.7-16.8-6.1-25.8-6.1c-0.6,1.7-1,2.6-1.1,2.8
	l-0.4,1h-3.3c0.1,0.9,0.2,1.8,0.2,2.7c0,8.5-4.6,15.9-11.5,19.6l-10.6,37.5l-10.1-37.8c-6.5-3.9-10.8-11.1-10.8-19.3
	c0-0.9,0.1-1.8,0.2-2.7h-1.9l-0.4-1.1c0,0-0.4-1-1-2.7c-9-0.6-23.6,9.9-26.6,6.1c-2.7-3.4,14.4-31.3,19.1-38.8
	c-0.5-3.9-0.9-8-1.1-12.3c-0.2-2.3-0.2-4.6-0.2-6.9c-48.4,11.1-88.3,40.8-89.1,41.4c0.7-0.8,34.1-41.2,89.7-53.2
	c2.5-26.8,13.5-49,32.3-64.8l1.2-1l1.1,1.1c20.7,20.3,28.9,43.9,31.4,64.4C255.7,134.6,281.5,173.4,284,176.6z M171.4,77.4
	c-10,2.9-19.4-0.3-21.9-1.3c-15.9,21.5-18.8,46.9-17.9,66.1c1.1,22.5,7.3,41,8.9,45.6h6.4c-3.3-7.7-10.9-29.4-9.1-59.9
	c0-0.8,0.7-1.4,1.6-1.4c0.8,0,1.5,0.8,1.4,1.6c-1.9,31.4,6.7,53.7,9.4,59.7h23.7C197.4,124.6,178.7,88.2,171.4,77.4z M177.4,122.7
	c0,8.4-6.8,15.2-15.2,15.2c-8.4,0-15.2-6.8-15.2-15.2c0-8.4,6.8-23,15.2-23S177.5,114.2,177.4,122.7z M159.7,119.6
	c0-2.1-1.7-3.8-3.8-3.8c-2.1,0-3.8,1.7-3.8,3.8c0,2.1,1.7,3.8,3.8,3.8C158,123.4,159.7,121.7,159.7,119.6z M162.2,146.2
	c-4.4,0-8,3.6-8,8c0,4.4,3.6,18.3,8,18.3c4.4,0,8-13.9,8-18.3C170.2,149.8,166.6,146.2,162.2,146.2z M140,121.4
	c-1,0-1.7,0.8-1.7,1.7c0,1,0.8,1.7,1.7,1.7c1,0,1.7-0.8,1.7-1.7C141.8,122.2,141,121.4,140,121.4z M277,178.3
	c1.9,3.4-3.6,8.9-10.7,14.1c0,0.5,0.1,1,0,1.4c0,11.1-9,20.1-20.1,20.1c-4.5,0-8.6-1.5-12-4c-1.9,0.7-3.7,1.4-5.4,1.9
	c-3.4,1.1-6.1,1.6-8.2,1.6c-2.3,0-3.8-0.6-4.5-1.9c-1.3-2.4,0.8-5.9,6.6-10.8c1.2-1,2.4-2,3.8-3c-0.3-1.2-0.4-2.5-0.4-3.8
	c0-11.1,9-20.1,20.1-20.1c5.4,0,10.3,2.1,13.9,5.6c1.5-0.5,2.9-1,4.2-1.4C271.5,175.8,275.7,175.9,277,178.3z M229.4,193.8
	c0,0.6,0,1.1,0.1,1.7c3.9-2.7,8.3-5.4,13.1-8c5-2.6,9.8-5,14.3-6.8c-2.9-2.3-6.6-3.7-10.6-3.7C237,177,229.4,184.6,229.4,193.8z
	 M231.6,207.6c-1.8-1.9-3.2-4.1-4.1-6.6c-5.9,4.5-8.7,7.9-8.5,9C219.8,210.8,224.3,210.2,231.6,207.6z M234.9,206.3
	c4.1-1.7,8.9-3.9,14.2-6.8c5.5-3.1,10.1-6,13.8-8.6c-0.6-2.9-1.8-5.5-3.6-7.7c-4.3,1.7-9.4,4.1-15.2,7.2c-5.5,3-10.2,6-13.9,8.6
	C231.1,201.8,232.7,204.3,234.9,206.3z M263.2,194.7c-4.2,2.9-8.7,5.6-12.5,7.6c-4.4,2.4-8.7,4.5-12.8,6.2c2.4,1.5,5.3,2.3,8.4,2.3
	C255.3,210.8,262.7,203.6,263.2,194.7z M274.3,179.9c-0.3-0.2-0.8-0.3-1.5-0.3c-1.9,0-5.5,0.7-10.3,2.4c1.5,2,2.6,4.3,3.3,6.9
	C271.6,184.4,274.4,181,274.3,179.9z"/>
<path class="st1" d="M25.2,307.3c2.2,3.9,2.2,3.9,2.2,7.2v5.7c0,7.3-5.9,13.1-13.1,13.1s-13.1-5.8-13.1-13.1v-3.9
	c0-0.9,0.8-1.8,1.8-1.8h3.7c1,0,1.8,0.9,1.8,1.8v3.9c0,3.3,2.6,5.9,5.8,5.9s5.8-2.6,5.8-5.9v-5.7c0-1.2,0-1.2-0.3-1.8l-16.4-29
	c-2.2-3.9-2.2-3.9-2.2-7.3v-5.8c0-7.2,5.9-13.1,13.1-13.1c7.1,0,13.1,6,13,13.1v3.9c0,1-0.8,1.8-1.8,1.8h-3.6c-1,0-1.8-0.8-1.8-1.8
	v-3.9c0-3.2-2.6-5.8-5.8-5.8s-5.8,2.6-5.8,5.8v5.8c0,1.3,0,1.3,0.3,1.9L25.2,307.3z M50.5,257.5H33c-1,0-1.8,0.9-1.8,1.8v3.6
	c0,1,0.8,1.8,1.8,1.8h5.1v66.7c0,1,0.8,1.8,1.8,1.8h3.6c1,0,1.8-0.8,1.8-1.8v-66.7h5.1c1,0,1.8-0.8,1.8-1.8v-3.6
	C52.3,258.4,51.5,257.5,50.5,257.5z M119.6,270.7v15.2c0,3.8-1.5,7.1-4,9.5c2.5,2.4,4,5.8,4,9.6v26.5c0,1-0.8,1.8-1.8,1.8h-3.6
	c-1,0-1.8-0.8-1.8-1.8v-26.6c0-3.3-2.6-5.9-5.8-5.9h-5.8v32.4c0,1-0.9,1.8-1.8,1.8h-3.6c-1,0-1.8-0.8-1.8-1.8v-70.3
	c0-1.9,1.5-3.6,3.6-3.6h9.5C114,257.5,119.8,263.5,119.6,270.7z M112.5,270.7c0-3.3-2.6-5.9-5.8-5.9h-5.8v26.9h5.8
	c3.2,0,5.8-2.6,5.8-5.8V270.7z M153.7,291.6h-9.5c-1,0-1.8,0.8-1.8,1.8v3.6c0,1,0.8,1.8,1.8,1.8h4v21.3c0,3.2-2.6,5.8-5.8,5.8
	c-3.2,0-5.8-2.6-5.8-5.8v-49.6c0-3.2,2.6-5.8,5.8-5.8c3.2,0,5.8,2.6,5.8,5.8v3.9c0,1,0.8,1.8,1.8,1.8h3.6c1,0,1.8-0.8,1.8-1.8v-3.9
	c0.1-7-5.8-13-13-13s-13.1,5.9-13.1,13.1v49.6c0,7.2,5.9,13.1,13.1,13.1c7.2,0,13.1-5.9,13.1-13.1v-26.8
	C155.5,292.4,154.7,291.6,153.7,291.6z M225.2,257.5h-22.6c-1,0-1.8,0.9-1.8,1.8v3.6c0,1,0.8,1.8,1.8,1.8h17.1v11.7
	c0,1.3,0,1.3-0.2,1.8L203,307.3c-2.2,3.9-2.2,3.9-2.2,7.3v16.8c0,1,0.8,1.8,1.8,1.8h22.6c1,0,1.8-0.8,1.8-1.8v-3.6
	c0-0.9-0.8-1.8-1.8-1.8h-17.1v-11.3c0-1.4,0-1.4,0.3-1.9l16.4-29c2.2-4,2.2-4,2.2-7.3v-17.2C227,258.4,226.2,257.5,225.2,257.5z
	 M252.5,257.5h-13.6c-2.1,0-3.6,1.7-3.6,3.6v68.5c0,2.1,1.6,3.6,3.6,3.6h13.6c1,0,1.8-0.8,1.8-1.8v-3.6c0-0.9-0.8-1.8-1.8-1.8h-9.9
	v-26.9h9.9c1,0,1.8-0.9,1.8-1.8v-3.6c0-1-0.8-1.8-1.8-1.8h-9.9v-27h9.9c1,0,1.8-0.8,1.8-1.8v-3.6
	C254.3,258.4,253.5,257.5,252.5,257.5z M288.7,270.7v15.2c0,3.8-1.5,7.1-4,9.5c2.5,2.4,4,5.8,4,9.6v26.5c0,1-0.8,1.8-1.8,1.8h-3.6
	c-1,0-1.8-0.8-1.8-1.8v-26.6c0-3.3-2.6-5.9-5.8-5.9h-5.8v32.4c0,1-0.9,1.8-1.8,1.8h-3.6c-1,0-1.8-0.8-1.8-1.8v-70.3
	c0-1.9,1.5-3.6,3.6-3.6h9.5C283.1,257.5,288.9,263.5,288.7,270.7z M281.6,285.9L281.6,285.9l0-15.2c0-3.3-2.6-5.9-5.8-5.9H270v26.9
	h5.8C279,291.7,281.6,289.1,281.6,285.9z M320.7,307.3l-16.4-29c-0.3-0.6-0.3-0.6-0.3-1.9v-5.8c0-3.2,2.6-5.8,5.8-5.8
	s5.8,2.6,5.8,5.8v3.9c0,1,0.8,1.8,1.8,1.8h3.6c1,0,1.8-0.8,1.8-1.8v-3.9c0-7.2-5.9-13.1-13.1-13.1s-13.1,5.9-13.1,13.1v5.8
	c0,3.4,0,3.4,2.2,7.3l16.4,29c0.3,0.6,0.3,0.6,0.3,1.8v5.7c0,3.3-2.6,5.9-5.8,5.9c-3.2,0-5.8-2.6-5.8-5.9v-3.9
	c0-0.9-0.8-1.8-1.8-1.8h-3.6c-1,0-1.8,0.9-1.8,1.8v3.9c0,7.3,5.9,13.1,13.1,13.1s13.1-5.8,13.1-13.1v-5.7
	C322.9,311.2,322.9,311.2,320.7,307.3z M191.1,270.7v60.8c0,1-0.8,1.8-1.8,1.8h-3.6c-1,0-1.8-0.8-1.8-1.8v-36.1l-11.7,7.3v28.8
	c0,1-0.8,1.8-1.8,1.8h-3.6c-0.9,0-1.8-0.8-1.8-1.8v-60.8c0-7.3,5.9-13.2,13.2-13.2C185.4,257.5,191.3,263.5,191.1,270.7z M184,270.7
	c0-3.3-2.6-5.9-5.8-5.9c-3.3,0-5.9,2.6-5.9,5.9v24.7l11.7-7.3V270.7z M84.5,270.7v60.8c0,1-0.8,1.8-1.8,1.8h-3.6
	c-1,0-1.8-0.8-1.8-1.8v-36.1l-11.7,7.3v28.8c0,1-0.8,1.8-1.8,1.8h-3.6c-0.9,0-1.8-0.8-1.8-1.8v-60.8c0-7.3,5.9-13.2,13.2-13.2
	C78.8,257.5,84.7,263.5,84.5,270.7z M77.4,270.7c0-3.3-2.6-5.9-5.8-5.9c-3.3,0-5.9,2.6-5.9,5.9v24.7l11.7-7.3V270.7z"/>
</svg>
