<?xml version="1.0" encoding="utf-8"?>
<!-- Generator: Adobe Illustrator 26.5.0, SVG Export Plug-In . SVG Version: 6.00 Build 0)  -->
<svg version="1.1" id="Layer_1" xmlns="http://www.w3.org/2000/svg" xmlns:xlink="http://www.w3.org/1999/xlink" x="0px" y="0px"
	 viewBox="0 0 240 48" style="enable-background:new 0 0 240 48;" xml:space="preserve">
<style type="text/css">
	.st0{fill:#413C57;}
</style>
<path class="st0" d="M85.5,31.3c-0.2-1.8-0.2-3.7-0.4-5.4c-0.2-2.1-0.3-4.3-0.3-6.5c0.1-2.7,0.5-5.4,0.3-8.1c0-0.2,0.1-0.4,0.1-0.6
	c-0.1-1.5-0.2-3.3-2-3.9c-0.2-0.1-0.3-0.2-0.4-0.3c-0.3-0.1-0.6-0.2-0.7-0.1c-0.4,0.3-0.6-0.1-0.8-0.2C81.1,6.5,81,6.5,81,6.5
	c-0.4,0.9-0.5,0.9-1.1,0.3c-0.2-0.2-0.5-0.3-0.8-0.4l-1.2-0.2c-0.7-0.2-1.3,0.4-1.7,1.1c-0.7,1.4-0.9,3.4-1.2,4.9
	c-0.4,1.7-0.7,3.5-1,5.3c-0.3,1.6-0.4,3.2-0.7,4.8c-0.2,1-0.3,2.1-0.7,3.3c-0.4-1.4-0.7-2.6-0.9-3.8c-0.9-3.8-1.9-8.7-2.9-12.5
	c-0.1-0.8-0.4-1.5-0.8-2.1c-0.5-0.7-0.9-2-1.3-2.8c-0.1-0.2-0.2-0.3-0.4-0.2c-0.3,0.4-0.1,0.9-0.2,1.4c-0.1,0-0.1,0-0.2,0
	c-0.1,0-0.1-0.1-0.2-0.2c-0.3-0.7-0.9-1-1.5-1.2c-1-0.4-1.1-0.3-1.8,0.4c-0.2,0.2-0.2,0.6-0.6,0.7c-0.5-0.2-1.2-0.2-1.7-0.1
	c-0.4,0.2-0.6,0.4-0.6,0.8c0.1,0.6,0.1,1.2,0.1,1.8c-0.1,2.7,0.1,5.9,0,8.6c-0.1,4,0,7.9,0.3,11.9c0.2,1.8,0.3,3.7,0.3,5.5L60,40.1
	l0.2,3.2c0,0.2,0.2,0.2,0.2,0.3c0.3-0.1,0.3-0.4,0.5-0.5c0.8,0.4,1.1,0.3,1.6-0.3c0.1-0.2,0.2-0.5,0.1-0.8c-0.1-1.9,0-3.9,0.1-5.8
	c0.1-1-0.1-2.1-0.2-3.1c-0.3-1.8-0.4-3.6-0.5-5.4c-0.2-2.1-0.1-4.3-0.2-6.4c-0.1-1.3,0.2-3.1-0.1-4.3c-0.2-1,0.3-2,0.1-3.1
	c0.2,0.6,0.4,1.2,0.6,1.8c0.5,1.8,1,4.1,1.5,5.9c0.9,3.3,2.1,6.5,3.4,9.7c0.4,0.9,0.9,1.8,1.8,2.4c0.6,0.3,0.7,0.3,1.1,0.8
	c0.3,0.4,1.4,0.5,2.2,0.4c0.3-0.1,0.5,0,0.7-0.3c-0.3-0.3-0.4-1-0.9-1.1c-0.5,0-0.5-0.3-0.4-0.7c0.4-0.1,0.7,0.2,1,0.3
	c0.2,0.1,0.4,0.2,0.5,0c0.4-0.6,1.1-1,0.8-1.9c-0.4-0.9,0.1-1.8,0.2-2.7c0.1-0.6,0.2-1.2,0.2-1.8c0-2.7,0.6-5.3,1.1-8
	c0.3-1.3,0.8-2.6,1.1-3.9c0.1-0.6,0.4-1.3,0.7-1.8l0.2,0.4c0.4,3.1,0.4,6.2,0.6,9.3c0.2,3.3,0.2,6.5,0.5,9.8
	c0.1,0.9,0.2,1.8,0.1,2.7c-0.2,1.5-0.1,3.9,0,5.4c0,1,0.2,4.7,1.3,5.3c0.9,0.6,1.7,1.3,2.8,1.4c0.5,0.1,0.8,0,1-0.4
	c0.1-0.2-0.1-0.5,0.2-0.6c1.1,0.3,1.6-0.2,1.7-1.3c0.1-1-0.2-4.7-0.2-5.7C85.6,36.9,85.8,33.7,85.5,31.3z M81.6,19.2L81.6,19.2
	C81.5,18,81,17,81.5,15.8C82,16.5,82.1,18.2,81.6,19.2z M108.1,11.4c-0.3-0.5-0.6-1-0.9-1.5c-0.7-2-2.2-3-4.1-3.8
	c-1.1-0.4-2.4-0.4-3.7-0.2c0.1-0.4,0.7-0.4,0.5-0.8c-0.2-0.4-0.6-0.4-1.1-0.2c-0.2,0.1-0.4,0.2-0.5,0.2c-0.2,0.1-0.4,0.3-0.6,0.2
	c-0.7-0.2-1.2,0.3-1.7,0.6c-0.6,0.4-1.4,0.7-1.9,1.1c-1.1,1-2,2.2-2.6,3.6c-1,2.5-1.6,5.1-1.8,7.7l-0.3,5.4c-0.1,0.7-0.1,1.5,0,2.2
	c0.2,2.5,0.3,5.1,0.5,7.6c0.2,1.8,0.5,3.6,2,4.8c0.4,0.3,0.2,0.5-0.2,0.9c1,0.1,1.3,0.8,1.7,1.5c0.2,0.3,0.4,0.7,0.7,0.9
	c0.6,0.7,1.4,1.1,2.4,0.9c0.4,0,0.8-0.1,1.1-0.1c0.4,0,0.8-0.1,1.1-0.5c0.2,0.3,0.4,0.5,0.4,0.8c-0.1,0.5,0.2,0.7,0.5,0.9
	c0.4,0.2,0.7,0.4,1.1-0.1c0.1-0.1,0.3-0.2,0.5-0.3c0.2-0.1,0.4-0.1,0.5,0c1,0,1.8-0.5,2.5-1.1c0.4-0.3,0.8-0.4,1.1-0.8
	c0.9-1.1,1.6-2.5,1.8-3.9c0.4-1.7,1.1-3.3,1.6-5c0.4-1.3,0.7-2.6,0.8-3.9c0.2-2,0.2-4,0.2-5.9c0.1-1.8-0.1-3.7-0.1-5.5
	C109.8,15.3,109.2,13.2,108.1,11.4z M104,23.2c-0.2,2.1-0.3,4.2-0.4,6.3c-0.1,1.9-0.5,3.7-0.8,5.5c-0.2,1.3-0.6,2.7-0.7,4
	c-0.1,0.8-1.1,1.8-2,1.8c-0.4,0.1-0.6-0.3-0.7-0.5c-0.3-0.4-0.5-0.8-1.1-0.8c-0.3,0.1-0.5-0.3-0.6-0.5c-0.2-0.2-0.4-0.5-0.5-0.7
	c-0.2-0.4-0.3-0.8-0.5-1.1c0.7,0.3,1,1.4,2,1.5c-0.5-0.6-1-1.6-1.4-2.1c-0.7-0.9-0.7-1.9-0.8-3c-0.2-1.9-0.3-3.9-0.4-5.9
	c-0.1-2-0.2-4-0.1-6c0.1-1.7,0.1-3.4,0.2-5.2c0.1-0.6-0.1-1.2-0.2-1.8c-0.1-1.3,0.1-2.5,0.6-3.7c0.3-0.9,0.9-1.7,1.6-2.4
	c0.5-0.5,1.1-0.6,1.8-0.6c0.5,0,1.1,0,1.6,0.2c0.4,0.1,0.7,0.2,1,0.5c0.3,0.2,0.5,0.5,0.6,0.9c0.7,1.7,1,3.5,1.3,5.3
	C104.7,17.6,104.2,20.4,104,23.2z M133.7,32.8c-0.1-1.5-0.5-5.7-0.5-7.1c0.1-2.4-0.1-5,0-7.3c0.1-1.3-0.1-2.9-0.1-4.1
	c0.1-1.7-0.1-4.2,0.1-5.8c0.1-1.6-0.3-3.8-0.4-5.3c-0.1-0.5-1-1.3-1.5-1.4c-0.2,0-0.4,0-0.5,0.2c-0.2,0.3-0.5,0.6-0.5,1.1
	c0.1,2.5,0.1,4.9,0,7.4c-0.1,1,0,3.6,0.1,4.7c0.1,1,0.2,2.3,0.2,3.3c0,0.8-0.2,4.7-0.2,5.5c0.1,1.4,0.2-0.1,0.2,1.3
	c0,0.2,0,0.5,0.3,0.6c0.1-0.4,0-0.8,0.1-1.1c0.1-0.4-0.2-0.7,0.1-1.1c0.5,2.6,0.5,8,0.3,10.6c-0.2,0-0.2-0.2-0.3-0.3
	c-0.6-2-1.2-4.1-1.8-6.1c-0.4-1.2-0.6-2.5-1-3.7c-1.1-3.1-2-6.4-3.1-9.6c-0.8-2-0.9-4.2-1.6-6.2c-0.3-0.7-0.9-1.1-1-1.9
	c0-0.1-0.2-0.2-0.3-0.2c-1.2,0.2-2.5,0-3.7,0.6c-0.2,0.1-0.6,0.3-0.8,0.2c-0.7-0.3-1.4-0.1-2.1,0.1c-0.6,0.2-0.6,0.4-0.6,0.8
	c0.1,0.7,0.1,1.5,0.1,2.1c0,3.4,0,6.7-0.1,10.1c-0.1,3,0.3,8.2,0.1,11.1c0,0.2,0,0.4,0,0.6c0.2,0.7,0.2,1.5,0.2,2.1
	c0.1,2.5,0.1,3.1,0.3,5.6c0,0.4,0.1,0.8,0.3,1.1c0.2,0.4,0.3,0.8,0.4,1.3c-0.1,0.3,0.1,0.7,0.4,0.7c0.7,0.2,1.2,0.7,1.9,1
	c0-1,0-2-0.1-3c-0.1-1.7-0.4-2.2-0.5-3.9c-0.1-3.1-0.4-7.8-0.4-10.8c0-4.3,0.1-8.6,0.2-13c0-0.1-0.1-0.3,0.3-0.4
	c0.3,1.3,0.6,2.6,0.8,3.9c0.4,2.2,1,4.3,1.7,6.4c0.8,2.7,1.8,5.4,2.4,8.2c0.5,2,1.2,3.9,1.7,6c0.3,1.3,0.7,2.6,1.1,3.9
	c0.2,0.6,0.4,1,1.1,1c0.6,0.1,1.1,0.6,1.7,0.3c0.9,0.5,1.9,0.2,2.9,0.4c0.4,0.1,0.8,0,1.1,0.4c0,0.1,0,0.1,0.1,0.1
	c0,0,0.1,0.1,0.1,0.1c0.1,0,0.1,0,0.2,0c0.1,0,0.1,0,0.2-0.1c0.3-0.1,0.6-0.3,0.7-0.6c0.2-0.3,0.2-0.6,0.2-0.9
	c0-0.3-0.1-0.5-0.1-0.7c0-0.5-0.4-0.9,0.3-1.4c0.3-0.2,0.2-0.9,0.2-1.4C134.2,36.4,133.8,34.7,133.7,32.8z M130.9,40.4
	c0.6-0.1,0.7,0.4,0.9,0.8C130.9,41.3,130.9,41.3,130.9,40.4z M155.1,26.3c-0.4-0.4-0.7-0.8-1-1.3c-0.7-1.1-1.6-2.1-2.6-3
	c-1.1-1-2.3-2-3.2-3.2c-1.2-1.5-2.2-3.3-3.8-4.6c-0.6-0.5-0.6-2-0.1-2.6c0.3-0.5,0.5-1.4,0.8-1.9c0.3-0.5,0.6-1.1,1.1-1.4
	c0.5-0.2,1-0.5,1.6-0.6c0.9-0.4,2.3,0.8,2.6,1.8c0.2,0.7,0.3,1.4,0.2,2.1c-0.3,1.4,0.2,2.6,1,3.7c0.1,0.1,0.1,0.1,0.2,0.1
	c0.3-0.2,0.1-0.6,0.5-0.7c0.2,0.2,0.2,0.5,0.5,0.6c0.3-0.5,0.6-1,0.8-1.5c0.2-0.4,0.7-0.4,0.8-0.7c0.1-0.8,0.4-1.6,0.1-2.4l-0.9-3
	c-0.4-1.3-1.2-1.9-2.4-2.2c-1-0.2-2.1-0.2-3.1,0c-0.9,0.1-1.8,0.5-2.8,0.3c-0.3-0.1-0.6-0.1-0.9,0s-0.6,0.2-0.9,0.4
	c-1.8,1.2-3.2,2.7-4,4.7c-0.6,1.4-0.8,3-1.2,4.4c-0.1,0.4-0.1,0.9-0.1,1.4c0.1,0.8,0.6,1.6,0.8,2.4c0.5,1.6,2,3.4,3.3,4.5
	c2.5,2.2,4.1,4.5,6.1,7.3c0.2,0.2,0.3,0.5,0.4,0.8c0.3,1.3,0.6,2.6,0.6,3.9c0,1.3-0.2,2.4-1.2,3.4c-1.6,1.7-3.4,0.1-5.3-0.6
	c-0.8-0.4-1.4-0.5-1.9-1.3c-0.4-0.4-0.5-0.9-1-1.4c-0.4-0.3-0.5-0.4-0.8-0.6c-0.3-0.2-0.4,0.1-0.8-0.4c-0.3-0.3-0.8-0.1-1,0.1
	c0.1,0.3,0.3,0.4,0.4,0.6c0.3,0.5,0.8,0.8,0.8,1.4c-0.1,0.5,0.2,1.1,0.4,1.5c1.1,1.6-1.7-1.1-0.6,0.4c0.1,0.2,3.2,3.1,3.4,3.2
	c2.2,1.4,4.9,2,6.4,1.1c0.5-0.3,1.1-0.5,1.7-0.3c0.2,0.1,0.4-0.1,0.6-0.2c0.7-0.4,1.5-0.8,2-1.5c0.1-0.2,0.4-0.3,0.6-0.4
	c0.6-0.1,1-0.5,1.3-0.9c0.8-1.1,1.3-2.4,1.6-3.8c0-0.3,0-0.5,0.3-0.7c0.6-0.3,0.6-0.9,0.6-1.4c-0.1-1.1,0.1-2.3-0.3-3.4
	C156.3,29.2,156.4,27.5,155.1,26.3z M145.6,24.3L145.6,24.3c-1.3-1.1-3.2-2.7-4.1-4.2c0.8,0.2,1.4,0.9,2.1,1.4
	c0.1,0.4,0.7,0.6,1.2,1.3C145.2,23.2,145.8,24.3,145.6,24.3z M138.3,37.3c-0.8,0.3-1-0.6-1.3-1.1C137.8,36.3,137.9,36.9,138.3,37.3z
	 M178.3,2.9c0-0.2-0.4-0.3-0.1-0.5c0.4-0.3,0.6-0.8,1-1.1c0.1,0,0.1-0.1,0.2-0.1c0-0.1,0.1-0.1,0.1-0.2s0-0.1,0-0.2
	c0-0.1,0-0.1-0.1-0.2c-0.2-0.3-0.3-0.5-0.7-0.5h-0.6c-1.6,0.1-3.3,0.1-4.9,0.1c-2.3-0.2-6.3,0.4-8.6,0.6c-1.8,0.3-5.4,0.7-7.3,0.8
	c-0.9,0.1-3.2,0-4.2,0.3c-0.4,0.1-0.6,0.3-0.5,0.6c0.1,0.4-0.1,0.5-0.4,0.6c-0.2,0-0.4,0.2-0.5,0.3c0.1,0.1,0.3,0.2,0.4,0.3
	c0.2,0.1,0.3,0.1,0.5,0c1-0.1,3.3,0.1,4.4-0.1c1-0.2,3.9-0.1,4.9,0c0.1,0,0.3,0.1,0.4,0.2s0.2,0.2,0.2,0.3c0.1,0.4,0.2,0.7,0.1,1
	c-0.3,0.6-0.2,1.3-0.2,1.9c0,0.8,0.1,1.7-0.1,2.5c-0.4,2-0.3,8-0.3,10.1c0,1.9,0.1,5,0.1,6.9c0,0.8,0.2,2.3,0.1,3.2
	c-0.1,0.8,0,1.6,0.2,2.3c0.3,1,0.2,2.7,0.1,3.8c-0.3,1.1-0.3,3.2-0.3,4.4c0.1,1.3,0.2,3.9,0.2,5.2c-0.1,0.9,1,1.7,1.7,1.3
	c0.1-0.1,0.3-0.1,0.4-0.1c0.2,0,0.3,0,0.5,0.1c0.4,0.2,0.8,0.4,1.1,0.6c0.2,0.1,0.4,0.2,0.6,0.1c0.5-0.3,1-0.2,1.5-0.4
	c0.1-0.1,0.1-0.1,0.1-0.2c0.2-0.9,0.7-2.3,0.8-3.3c0-1.4,0.3-4,0.2-5.4c-0.1-0.6,0.1-1.6,0.1-2.1c0-1.5,0.1-3.6-0.2-5.2
	c-0.1-0.9-0.2-3-0.3-3.9c-0.1-2.4,0.1-5.9,0-8.2c0-1.6,0.1-4.1-0.1-5.6c-0.1-1.2-0.4-5.3-0.3-6.5c0-0.3,0-0.6-0.2-0.7
	c-0.9-0.4-0.7-1.3-1-1.9c0.5-0.1,0.9,0.2,1.4,0.3c0.2-0.5,1.7-0.7,2.3-0.8c0.9-0.1,1.8-0.1,2.6-0.1c0.9,0,2.4,0.1,3.3,0.1
	C177.4,3.2,177.9,3.1,178.3,2.9z M163.7,5.2c-0.4-0.1-0.4-1.2-0.2-1.5c0-0.1,0.2-0.1,0.2-0.1c0.4,0.3,0.2,1.2,0.3,1.6L163.7,5.2z
	 M184.7,8.4c1.1-0.1,2.2-0.4,3.3-0.4c1.2-0.1,2.7-0.3,3.9-0.3c1.2,0,2.4-0.2,3.6-0.6c-0.5-1.1-1.7-1.9-2.7-1.8
	c-0.6,0-1.2,0.2-1.7,0.2c-2.2,0.4-4.7,0.3-6.9,0.7c-0.1,0-0.1,0-0.2,0s-0.1,0-0.2,0c-0.4-0.6-1-0.8-1.7-1.1
	c-0.9-0.3-1.8-0.8-2.8,0.1c0,0.1-0.1,0.1-0.2,0.1c-0.7-0.1-0.7,0.3-0.7,0.8c0,0.3,0,0.6-0.1,0.8c-1,0.2-1.4,0.2-2.5,0.6
	c0.1,0.1,0.2,0.3,0.3,0.4c0.1,0.1,0.3,0.1,0.4,0.1c0.7,0.1,0.6,0.5,1.3,0.5c0.4,0,0.6,0.2,0.6,0.7c0,1.8-0.2,4.3-0.2,6.2
	c-0.1,3.8-0.2,7.6-0.5,11.3c-0.3,3.9-0.1,7.5-0.4,11.4c-0.1,1.3,0,2.5,0,3.7c-0.9,0.5-1.8,0.6-2.6,0.8c-0.3,0.1-0.4,0.2-0.4,0.5
	c0,0.1,0,0.2,0.1,0.3c0.1,0.1,0.1,0.2,0.2,0.2c0.3,0.1,0.6,0.4,0.9,0.4c2,0,4.1-0.1,6.1-0.4c0.4-0.1,0.8-0.2,1.2,0.1
	c0.4,0.3,0.7,0.3,0.7-0.2c0.1-0.6,0.5-0.6,0.9-0.7c1.6-0.3,3.8-0.3,5.4-0.3c0.6,0,1.2-0.1,1.7-0.3c0.8-0.2,1.5-0.6,2.4-0.5
	c0.5,0,0.6-0.3,0.3-0.7c-0.1-0.3-0.4-0.4-0.3-0.7c0.4-0.3,0.9-0.1,1.3-0.5c-0.3-0.3-0.6-0.5-0.9-0.8c-0.1-0.1-0.2-0.1-0.3-0.2
	c-0.1,0-0.3,0-0.4,0c-0.9,0.2-1.9,0.1-2.9,0.3c-1.8,0.5-4.3,0.8-6.1,1.3c-0.3,0.1-0.6,0.3-1,0.1c0.6-0.8,1.7-0.2,2.2-0.7
	c0-0.1,0-0.2-0.1-0.2c0-0.1-0.1-0.1-0.2-0.1c-0.4-0.1-0.8,0.1-1.1,0.1c-0.5,0.1-0.7-0.1-0.8-0.6c-0.2-1.3-0.1-2.6,0.3-3.9
	c0.1-0.5,0.2-1,0.2-1.5c-0.1-1.4,0.1-2.8,0.2-4.2c0.1-1.3,0.1-2.6,0-3.8c-0.1-0.7-0.1-0.7,0.6-0.7c1.3,0,2.9-0.1,4.1-0.5
	c0.6-0.2,1.2-0.3,1.8-0.4c0.4-0.1,0.7-0.3,1.2-0.6c-0.7-0.5-1.2-1.2-2-1c-1.7,0.3-4-0.2-5.7,0.1c-0.2-2.3-0.1-4.5,0-6.8
	c0-0.6,0.1-1.1,0-1.6c-0.2-1.6-0.2-3.2,0.2-4.8C184.2,8.6,184.4,8.4,184.7,8.4z M177.9,41.7c0.1-0.6-0.1-1.8,0.5-2.3
	c0.3,0.4,0.2,1.3,0.3,1.6C178.7,41.6,178.7,41.6,177.9,41.7z M219.8,41.5c-0.1-0.4-0.2-0.8-0.4-1.1c-1-2.1-4.2-7.5-5.1-9.7
	c-0.5-1.4-1.2-2.7-2.2-3.7c-0.7-0.7-1.4-1.4-2.1-2c-0.2-0.2-0.5-0.5-0.3-0.7c0.5-0.4,0.9-0.9,1.6-1c0,0.5-0.5,0.6-0.6,1
	c0.3-0.1,0.6-0.3,0.9-0.5c0.8-0.6,1.8-1,2.5-1.7c1.6-1.5,2.6-3.1,2.6-5.4c0-0.6-0.3-1-0.3-1.6c0.2-1.8-0.5-3.3-1.1-4.9
	c-0.1-0.3-0.3-0.7-0.5-0.9c-0.2-0.3-0.5-0.5-0.9-0.6c-0.9-0.3-1.7-0.7-2.4-1.3c-1.3-0.9-2.9-0.9-4.4-1c-1.5-0.1-2.9-0.1-4.4-0.3
	c-2-0.3-4,0.1-5.9,0.7c-0.4,0.2-0.7,0.4-0.3,0.8c0.3,0.2-0.2,0.4-0.1,0.6c0.6,0.1,1.1-0.3,1.7-0.3c0.2,0.3,0.1,0.5,0.1,0.8
	c0.1,1.4-0.1,2.6-0.1,3.9c-0.1,2.8-0.1,5.5-0.3,8.3c-0.2,2.7-0.1,5.4,0.4,8.1c0.1,0.4,0.1,0.9,0.2,1.4c0.1,2.4,0.1,5.7,0.2,8
	c0.1,0.8-0.2,1.6-0.2,2.5c0,0.4,0.1,0.9,0.4,1.3c0.2,0.4,0.6,0.7,1,0.9c0.7,0.5,1.5,0.3,2.1-0.3c0.7,0.6,1.2,1.2,2,1.5
	c0-0.3,0.1-0.5,0.2-0.8c0-0.2,0.1-0.4,0.3-0.3c0.9,0.1,0.7-0.5,0.8-1c0.3-1.8,0.1-4.6,0.1-6.5c0-2-0.4-3.9,0-5.9v-0.4
	c-0.2-0.8,0.3-1.3,1-1.7c0.3,0.5,0.5,1,0.7,1.5c1.4,3.5,5.2,10.2,6.9,13.7c0.3,0.4,0.8,1.1,1,1.6c0.5,0.9,1.5,1.4,2.3,1.9
	c0.1,0.1,0.2,0.1,0.3,0.1s0.2,0,0.3-0.1c0.6-0.5,1.1-0.2,1.6,0.3c0.2,0.3,0.5,0.2,0.7-0.1c0.1-0.1,0.2-0.3,0.2-0.3
	c0.5-0.1,0.6-0.3,0.7-0.8c0.1-0.4,0.2-0.8-0.1-1.2C220.6,43.4,220,42.2,219.8,41.5z M205.3,23.5c-0.1,0.1-0.3,0.2-0.5,0.3
	c0.2-5.2,0.2-10.3-0.1-15.4c0.8,0,1.5-0.1,2.3,0.2c1.3,0.4,2.2,1.2,3.1,1.9c0.2,0.2,0.5,0.3,0.7,0.5c0.2,0,0.3,0.2,0.4,0.3
	c0.1,0.1,0.1,0.3,0.1,0.5c0,0.5,0,0.9,0.3,1.3c0.1,0.2,0.2,0.4,0.2,0.7c-0.3,1.6-0.6,3.1-1.5,4.5C208.8,20.1,207.1,21.7,205.3,23.5z
	 M220,36.2c0.8,0.1,0.9,0.7,1.3,1.1C220.5,37.6,220.2,36.7,220,36.2z M239.7,30.7c-0.5-1.6-0.4-3.2-1.7-4.4c-0.4-0.4-0.7-0.8-1-1.3
	c-0.7-1.1-1.6-2.1-2.6-3c-1.2-1-2.3-2-3.2-3.2c-1.2-1.5-2.2-3.3-3.8-4.6c-0.6-0.5-0.6-2-0.1-2.6c0.3-0.5,0.5-1.4,0.8-1.9
	c0.3-0.5,0.6-1.1,1.1-1.4c0.5-0.2,1-0.5,1.6-0.6c0.9-0.4,2.3,0.8,2.6,1.8c0.2,0.7,0.3,1.4,0.2,2.1c-0.3,1.4,0.2,2.6,1,3.7
	c0.1,0.1,0.1,0.1,0.2,0.1c0.3-0.2,0.1-0.6,0.5-0.7c0.2,0.2,0.2,0.5,0.5,0.6c0.3-0.5,0.6-1,0.8-1.5c0.2-0.4,0.7-0.4,0.8-0.7
	c0.1-0.8,0.4-1.6,0.1-2.4l-0.9-3c-0.4-1.3-1.2-1.9-2.4-2.2c-1-0.2-2.1-0.2-3.1-0.1c-0.9,0.1-1.8,0.5-2.8,0.3c-0.3-0.1-0.6-0.1-0.9,0
	c-0.3,0.1-0.6,0.2-0.9,0.4c-1.8,1.2-3.2,2.7-4,4.7c-0.6,1.4-0.8,3-1.2,4.4c-0.1,0.4-0.2,0.9-0.1,1.4c0.1,0.8,0.6,1.6,0.8,2.4
	c0.5,1.6,2,3.4,3.3,4.5c2.5,2.2,4.1,4.5,6.1,7.3c0.2,0.2,0.3,0.5,0.4,0.8c0.3,1.3,0.6,2.6,0.6,3.9c0,1.3-0.2,2.4-1.2,3.4
	c-1.6,1.7-3.5,0.1-5.3-0.6c-0.8-0.4-1.4-0.5-1.9-1.3c-0.4-0.4-0.5-0.9-1-1.4c-0.4-0.3-0.5-0.4-0.8-0.6c-0.3-0.2-0.4,0.1-0.8-0.4
	c-0.3-0.3-0.8-0.1-1,0.1c0.1,0.3,0.3,0.4,0.4,0.6c0.3,0.5,0.8,0.8,0.8,1.4c-0.1,0.5,0.2,1.1,0.4,1.5c1.1,1.6-1.7-1.1-0.6,0.4
	c0.1,0.2,3.2,3.1,3.4,3.2c2.2,1.4,4.9,2,6.4,1.1c0.5-0.3,1.1-0.5,1.7-0.3c0.2,0.1,0.4-0.1,0.6-0.2c0.7-0.4,1.5-0.8,2-1.5
	c0.1-0.2,0.3-0.3,0.6-0.4c0.6-0.1,1-0.5,1.3-0.9c0.8-1.1,1.3-2.4,1.6-3.8c0.1-0.3,0-0.5,0.3-0.7c0.6-0.3,0.6-0.9,0.6-1.4
	C239.9,33,240.1,31.8,239.7,30.7z M228.6,24.3L228.6,24.3c-1.3-1.1-3.2-2.7-4.1-4.2c0.8,0.2,1.4,0.9,2.1,1.4
	c0.1,0.4,0.7,0.6,1.2,1.3C228.1,23.2,228.7,24.3,228.6,24.3z M16.4,40.6c-0.3-0.2-0.5-0.1-0.8-0.1c-0.3,0-0.6,0.1-0.9-0.1
	c-0.5-0.3-1-0.3-1.6-0.3c-1,0.1-1.2,0.2-2.2,0.3c-0.7,0.1-1.4,0.1-2.1,0.1c-0.1,0-0.2,0-0.3,0c-0.1,0-0.2-0.1-0.2-0.1
	C8,39.9,8,40,7.7,40.5c0,0,0,0.1,0,0.1c0,0,0,0-0.1,0.1c0,0-0.1,0-0.1,0c0,0-0.1,0-0.1,0c-0.1-0.3-0.2-0.6-0.2-0.8
	c0-0.3,0.1-0.6,0.2-0.8c0.3-0.5,0.4-1.4,0.4-2c0-0.4,0-0.7,0.1-1c0.2-1.6,0.5-3.8,0.4-5.4c-0.2-1.8-0.5-3.6-0.9-5.3
	c-0.5-2.3-0.3-7.3-0.4-9.7c0-2.4-0.1-4.8-0.1-7.2C7.1,7,7,5.6,7,4.3C7.1,3.7,7.2,3,6.5,2.5C6.2,4.6,6.6,6.6,6.2,8.6
	c-0.3,2,0.5,4-0.2,6c-0.4-0.3-0.3-0.6-0.4-1c-0.2-0.8-0.1-1.7-0.1-2.6c-0.1-2.1-0.2-4.2,0-6.3c0.1-0.7,0.1-1.4,0.1-2
	c0-0.2,0.1-0.5-0.2-0.5C5,2,4.9,1.5,4.6,1.2C4,1.3,3.5,1.4,3.2,2C3.1,2.2,3,2.4,2.8,2.4C2,2.4,1.5,3.1,0.6,3C0.3,3,0,3.1,0,3.7
	c0.2,2.2,0.1,4.4,0.1,6.6c0.1,2.8,0.2,6,0.3,8.8c0.1,2.6,0.1,7.4,0.2,10c0.2,3.1,0.1,7.1,0.2,10.3C0.9,40,1.2,40.5,1.6,41
	c0.2,0.2,0.4,0.3,0.5,0.6c-0.3,0.9-1.2,0.4-1.7,0.8c0.5,1,1.1,1.5,2.1,1.4c1.4-0.3,3.1-0.2,4.5-0.4c1.4-0.1,2.8-0.3,4.2-0.2
	c1.3,0.1,1.7-0.3,2.9-0.2c0.9,0.1,1.5-0.4,2.2-0.7c0,0,0.1,0,0.1-0.1c0,0,0.1-0.1,0.1-0.1c0,0,0-0.1,0-0.1c0,0,0-0.1-0.1-0.1
	c-0.2-0.3-0.1-0.5,0.2-0.7C16.9,40.9,16.7,40.7,16.4,40.6z M2.9,41.4c-0.1,0-0.2-0.1-0.1-0.2c0.1-0.2,0-0.4,0.2-0.4s0.2,0.2,0.2,0.3
	C3.1,41.4,3.1,41.5,2.9,41.4z M46.7,40.6c-0.3-0.2-0.5-0.1-0.8-0.1c-0.3,0-0.6,0.1-0.9-0.1c-0.5-0.3-1-0.3-1.6-0.3
	c-1,0.1-2,0.2-3,0.3c-0.7,0.1-1.4,0.1-2.1,0.1c-0.1,0-0.2,0-0.3,0c-0.1,0-0.2-0.1-0.2-0.1c-0.4-0.4-0.4-0.4-0.7,0.1c0,0,0,0.1,0,0.1
	c0,0,0,0-0.1,0.1c0,0-0.1,0-0.1,0c0,0-0.1,0-0.1,0c-0.1-0.3-0.2-0.6-0.2-0.8c0-0.3,0.1-0.6,0.2-0.8c0.3-0.5,0.4-1.1,0.4-1.7
	c0-0.4,0-0.7,0.1-1c0.2-1.6,0.5-3.1,0.4-4.8c-0.2-1.8-0.5-3.6-0.9-5.3c-0.5-2.3-0.3-4.7-0.4-7c0-2.4-0.1-4.8-0.1-7.2
	c0-1.4-0.1-2.7-0.1-4.1c0.1-0.6,0.2-1.3-0.5-1.8c-0.3,2.1,0.1,4.2-0.3,6.1c-0.3,2,0.5,4-0.2,6c-0.4-0.3-0.3-0.6-0.4-1
	c-0.2-0.8-0.1-1.7-0.1-2.6c-0.1-2.1-0.2-4.2,0-6.3c0.1-0.7,0.1-1.4,0.1-2c0-0.2,0.1-0.5-0.2-0.5c-0.6-0.1-0.7-0.6-1-0.9
	c-0.6,0.1-1.1,0.2-1.4,0.8c-0.1,0.2-0.2,0.3-0.4,0.3C31.4,6,30.8,6.7,30,6.6c-0.4,0-0.7,0.2-0.6,0.7c0.2,2.2,0.1,4.4,0.1,6.6
	c0.1,2.8,0.2,5.5,0.3,8.3c0.1,2.6,0.1,5.2,0.2,7.8c0.1,2.2,0.1,4.4,0.1,6.7c-0.2,0.1-0.5,0.2-0.7,0.4c-0.2,0.2-0.5,0.4-0.8,0.5
	c-0.5,0.2-1.5,0.9-2,1.3c-1.4,1-1.6,0.9-2.7,1.5c-1,0.4-0.7-0.4-0.8-1.4c-0.1-0.9-0.2-1.9-0.3-2.8c-0.2-1.4-0.3-2.7-0.4-4
	c-0.1-2.2,0-4.4-0.3-6.6c-0.1-0.5-0.1-1.1,0.1-1.6c0.1-0.3,0.1-0.5,0.1-0.8c0-0.7-0.1-0.7-0.7-0.3c-0.2-0.1-0.2-0.3-0.2-0.5v0
	c-0.3-1-0.7-1.5-1.8-1.5c-0.6,0-1.2,0.3-1.7,0.7c-0.3,0.3-0.7,0.6-0.6,1c0.3,1.1-0.1,2.1,0,3.2c0.1,1.5,0,2.9-0.2,4.4
	c-0.2,1.7-0.2,3.4-0.3,5.1c-0.1,1.4-0.1,2.8,0.1,4.2c0.2,1,0.2,2.1,1,2.9c0.2,0.2,0.6,0.1,0.8,0.3c0.5,0.4,1.1,0.5,1.5,0.7
	c0.3,0.2,0.7,0.3,0.9,0.3s0.3-0.3,0.5-0.4c0.2,0,0.3,0.1,0.5,0.1c0.2,0,0.5-0.1,0.7-0.2l1-0.3c0.3-0.1,0.7-0.2,0.9-0.4
	c0.2-0.2,0.4-0.4,0.6-0.7c0.3-0.3,0.6-0.3,0.9-0.6c0.3-0.2,0.6-0.6,0.9-0.6c0.5-0.1,0.7-0.1,0.9-0.6c0.5-0.8,1-1.1,1.7-1.7
	c0.1-0.1,0.2-0.2,0.3-0.2c0,0.5,0,1,0,1.5c0.1,0.7,0.4,1.2,0.8,1.7c0.2,0.2,0.4,0.3,0.5,0.6c-0.3,0.9-1.2,0.4-1.7,0.8
	c0.5,1,1.1,1.5,2.1,1.4c1.4-0.3,3.1-0.2,4.5-0.4c1.4-0.1,2.9-0.3,4.3-0.2c1.3,0.1,2.6-0.3,3.8-0.2c0.9,0.1,1.5-0.4,2.2-0.7
	c0,0,0.1,0,0.1-0.1s0.1-0.1,0.1-0.1c0,0,0-0.1,0-0.1c0,0,0-0.1-0.1-0.1c-0.2-0.3-0.1-0.5,0.2-0.7C47.2,40.9,46.9,40.7,46.7,40.6z
	 M32.2,41.4c-0.1,0-0.2-0.1-0.1-0.2c0-0.2,0-0.4,0.2-0.4s0.2,0.2,0.2,0.3C32.5,41.4,32.4,41.5,32.2,41.4z M16.9,7.1
	c0.3-0.4,0.6-0.7,1-0.9c0.4-0.2,0.8-0.4,1.3-0.4C19.8,5.7,20,5.9,20,6.5c-0.1,0.5,0.2,0.6,0.6,1c1.1,1,1.4,1.9,0.3,2.9
	c-0.5,0.4-0.9,1.1-1.7,0.9c-0.4-0.4-0.9-0.1-1.4-0.3C16,10.1,15.7,8.8,16.9,7.1z M41.1,4c0.2-0.4,0.5-0.3,0.8-0.4
	c0.3-0.1,0.6-0.3,1-0.4c0.7-0.1,1.4-0.3,2,0.1c0.3,0.2,0.6,0.4,0.8,0.7c0.2,0.3,0.4,0.6,0.5,1C46.5,6,46.2,7,45.9,8
	c-0.1,0.3-0.1,0.5-0.1,0.8c0,0.6-0.1,1.2-0.5,1.6c-0.6,0.5-1,1.2-1.4,1.9c-0.3,0.5-0.8,0.4-1.2,0.5c-0.7,0.2-0.2-0.4-0.3-0.6
	l-0.1-0.3c-0.3,0.1-0.6,0.4-0.8,0.5c-0.1-0.1-0.1-0.2-0.1-0.3c0-0.1,0.1-0.2,0.1-0.3c0.4-0.6,0.7-1.3,0.9-2c0.2-0.4-0.1-0.8,0.2-1.2
	c0.1-0.1,0.1-0.2,0.1-0.2c0-0.1,0-0.2,0-0.3c0-0.1-0.1-0.2-0.1-0.2c-0.1-0.1-0.1-0.1-0.2-0.2c-0.1,0-0.1-0.1-0.2-0.1
	c0-0.1-0.1-0.1-0.1-0.2c0-0.1,0-0.1,0-0.2s0.1-0.1,0.1-0.2l-0.3-1c0-0.1-0.1-0.3-0.1-0.4c-0.1-0.1-0.2-0.2-0.3-0.3
	C40.8,4.9,40.8,4.6,41.1,4z"/>
</svg>
