<?xml version="1.0" encoding="utf-8"?>
<!-- Generator: Adobe Illustrator 26.5.0, SVG Export Plug-In . SVG Version: 6.00 Build 0)  -->
<svg version="1.1" id="Layer_1" xmlns="http://www.w3.org/2000/svg" xmlns:xlink="http://www.w3.org/1999/xlink" x="0px" y="0px"
	 viewBox="0 0 240 125" style="enable-background:new 0 0 240 125;" xml:space="preserve">
<style type="text/css">
	.st0{fill:#FFFFFF;}
	.st1{fill:#00BFF3;}
	.st2{fill:#F0C808;}
	.st3{fill:#FF715B;}
	.st4{fill:#4C5B5C;}
	.st5{fill:#FF583D;}
</style>
<path class="st0" d="M220.8,62c0-2.6,1-4.9,2.6-6.6h-45.3v2c0.6-0.2,1.3-0.3,2-0.3c1.4,0,2.7,0.4,3.8,1.2c0.9-1.1,2.4-1.8,4.1-1.8
	c2.8,0,5,1.9,5,4.3v4.2c0,0.4-0.3,0.7-0.7,0.7h-5.7c-0.8,2.8-3.4,4.8-6.4,4.8c-0.7,0-1.4-0.1-2-0.3v10.4h11V67.6
	c0-0.4,0.3-0.7,0.7-0.7h22.3c0.4,0,0.7,0.3,0.7,0.7v12.9h11V69.2C222,67.4,220.8,64.9,220.8,62z M219.1,64.9c0,0.4-0.3,0.7-0.7,0.7
	h-8.5c-0.4,0-0.7-0.3-0.7-0.7v-4.2c0-2.4,2.2-4.3,5-4.3c2.8,0,5,1.9,5,4.3V64.9z M224,36.1v2.6h-45.8v-2.6H224z M124.7,36.1h41v2
	c-1.5,0.8-2.7,2-3.6,3.4c-0.1,0-0.2,0-0.2,0h-29.1l-1-1.6c-0.1-0.2-0.4-0.3-0.6-0.3h-6.4V36.1z M162.4,64.1l3.3,3.3v13.1h-31V76
	h27.2c0.4,0,0.7-0.3,0.7-0.7v-7.8c0-0.4-0.3-0.7-0.7-0.7h-27.2V60c0.6,0.2,1.2,0.4,1.9,0.4c0.9,0,1.8-0.2,2.5-0.7h12.6
	c0.4,3.3,3.2,5.8,6.6,5.8C159.9,65.5,161.3,64.9,162.4,64.1z M165.7,55.1v10l-2.1-2.1c0.9-1.1,1.4-2.6,1.4-4.2c0-3.7-3-6.7-6.7-6.7
	c-3.5,0-6.4,2.7-6.7,6.1h-11c0.6-0.8,0.9-1.8,0.9-2.9c0,0,0,0,0-0.1c0-0.1,0-0.3-0.1-0.4l-2.7-4.1h22.8
	C162.4,52.6,163.9,54.1,165.7,55.1z M132,57.4c-0.1,0.3-0.3,0.5-0.5,0.8c-0.4,0.6-0.9,1.1-1.6,1.4c-0.7,0.4-1.6,0.7-2.5,0.7
	c-1,0-2-0.3-2.7-0.8c-0.6-0.4-1.1-0.8-1.4-1.4c-0.1-0.2-0.3-0.4-0.4-0.7c-0.8,1.7-2.5,2.9-4.6,2.9c-2,0-3.8-1.2-4.6-2.9
	c-0.8,1.7-2.5,2.9-4.6,2.9c-1.5,0-2.8-0.7-3.8-1.7c-0.3-0.4-0.6-0.8-0.8-1.2c-0.2,0.4-0.4,0.7-0.6,1c-0.9,1.1-2.3,1.9-3.9,1.9
	c-2,0-3.8-1.2-4.6-2.9c-0.5,1.1-1.4,1.9-2.4,2.4v20.6h13.9V65.1c0-0.4,0.3-0.7,0.7-0.7H118c0.4,0,0.7,0.3,0.7,0.7v5.3
	c1.3,0.3,2.3,1.4,2.3,2.8s-1,2.5-2.3,2.8v4.6h14.6V76V59.1c-0.3-0.3-0.5-0.5-0.8-0.9C132.3,58,132.2,57.7,132,57.4z M103.3,69.7
	c0,1.6-1.3,3-3,3c-1.6,0-3-1.3-3-3v-2.1c0-1.6,1.3-3,3-3c1.6,0,3,1.3,3,3V69.7z M129.1,69.7c0,1-0.5,1.9-1.2,2.4
	c-0.5,0.3-1.1,0.6-1.7,0.6c-0.5,0-1-0.1-1.4-0.4c-0.7-0.4-1.2-1-1.4-1.8c-0.1-0.3-0.1-0.5-0.1-0.8v-2.1c0-0.3,0-0.6,0.1-0.8
	c0.2-0.8,0.7-1.4,1.4-1.8c0.4-0.2,0.9-0.4,1.4-0.4c1.3,0,2.5,0.9,2.9,2.1c0.1,0.3,0.1,0.5,0.1,0.8V69.7z M64.6,65.5
	c0.1,0,0.2,0,0.4,0v15h-4.7V64.4l0.3-0.3C61.6,64.9,63,65.5,64.6,65.5z M94.9,15.1c0-1.4,0.9-2.6,2-2.6c1.1,0,2,1.2,2,2.6
	s-0.9,2.6-2,2.6C95.8,17.7,94.9,16.6,94.9,15.1z M91.1,60.3c0.2,0,0.5,0,0.7,0v20.2h-5.1v-4.6c1.2-0.3,2.1-1.4,2.1-2.8
	c0-1.3-0.9-2.4-2.1-2.8v-5.3c0-0.4-0.3-0.7-0.7-0.7H75.7c-0.4,0-0.7,0.3-0.7,0.7v15.4h-8.7V65.2c2.8-0.8,4.9-3.4,4.9-6.4
	c0-2.3-1.2-4.4-3-5.6h19.1l-1.1,1.7c-0.1,0.1-0.1,0.3-0.1,0.4c0,0,0,0,0,0.1C86,58.1,88.3,60.3,91.1,60.3z M80.2,15.1
	c0-1.4,0.9-2.6,2-2.6s2,1.2,2,2.6s-0.9,2.6-2,2.6C81.1,17.7,80.2,16.6,80.2,15.1z M95.2,41v-2.5H68.9c-0.4,0-0.7-0.3-0.7-0.7v-5.7
	h-2.7c-0.4,0-0.7-0.3-0.7-0.7v-7.8c0-0.4,0.3-0.7,0.7-0.7h33.2c0.4,0,0.7,0.3,0.7,0.7v7.8c0,0.4-0.3,0.7-0.7,0.7H69.6v5h26.3
	c0.4,0,0.7,0.3,0.7,0.7v1.8h7.5V7.8H60.2v32.8c1.3,1.6,2.1,3.7,2.1,6s-0.8,4.4-2.1,6v1.1c1.2-1,2.7-1.7,4.4-1.7c0.1,0,0.2,0,0.4,0
	v-7.5c0-0.4,0.3-0.7,0.7-0.7h27.7L95.2,41z M96.9,11.1c1.9,0,3.4,1.8,3.4,4c0,2.2-1.5,4-3.4,4c-1.9,0-3.4-1.8-3.4-4
	C93.5,12.9,95,11.1,96.9,11.1z M89,10.4h1.4v9.3H89V10.4z M82.1,11.1c1.9,0,3.4,1.8,3.4,4c0,2.2-1.5,4-3.4,4s-3.4-1.8-3.4-4
	C78.7,12.9,80.3,11.1,82.1,11.1z M72.3,11.1c1.9,0,3.4,1.8,3.4,4c0,2.2-1.5,4-3.4,4c-1.9,0-3.4-1.8-3.4-4
	C68.9,12.9,70.4,11.1,72.3,11.1z M64,19.7v-9.3h1.4v9.3H64z M70.3,15.1c0-1.4,0.9-2.6,2-2.6c1.1,0,2,1.2,2,2.6s-0.9,2.6-2,2.6
	C71.2,17.7,70.3,16.6,70.3,15.1z M37.7,59.3c-1.1,1.2-1.7,2.7-1.7,4.4c0,0.9,0.2,1.7,0.5,2.5L20.9,72v-5.6L37.7,59.3z M42.7,70.4
	c1.2,0,2.3-0.3,3.2-0.8v10.9h-4l-0.1-10.1C42.1,70.4,42.4,70.4,42.7,70.4z M15.4,42.1l30.5-14.3v12c-1.7,1.7-2.8,4.1-2.8,6.8
	c0,2.6,1.1,5.1,2.8,6.8v4.5c-1-0.5-2-0.8-3.2-0.8c-0.2,0-0.4,0-0.6,0c0,0,0-0.1,0-0.1v-9.5c0-0.2-0.1-0.5-0.3-0.6
	c-0.2-0.1-0.5-0.1-0.7-0.1l-20.2,9v-6.8l16.5-7.7c0.5,0.6,1.3,1,2.1,1c1.6,0,2.8-1.3,2.8-2.8s-1.3-2.8-2.8-2.8s-2.8,1.3-2.8,2.8
	c0,0.2,0,0.4,0.1,0.6L19.9,48c-0.3,0.1-0.4,0.4-0.4,0.6V57c0,0.2,0.1,0.5,0.3,0.6c0.2,0.1,0.5,0.1,0.7,0.1l20.2-9v7.9l-20.8,8.8
	c-0.3,0.1-0.4,0.4-0.4,0.7v14.5h-4V69.7c2.3-1.8,3.8-4.5,3.8-7.6c0-3.1-1.5-5.9-3.8-7.6V42.1z"/>
<path class="st1" d="M190.6,68.3h9.7v3.5c-1.2,0.3-2.1,1.4-2.1,2.8c0,1.3,0.9,2.4,2.1,2.8v3.2h-9.7V68.3z M201.8,71.8
	c1.2,0.3,2.1,1.4,2.1,2.8c0,1.3-0.9,2.4-2.1,2.8v3.2h9.7V68.3h-9.7V71.8z M192.7,44.6c-1.1,0-2,1.2-2,2.6s0.9,2.6,2,2.6
	c1.1,0,2-1.2,2-2.6S193.7,44.6,192.7,44.6z M227.6,40.1v12.8c-0.9,0.3-1.7,0.7-2.4,1.1h-48.9c2.1-1.8,3.5-4.4,3.5-7.4
	c0-2.5-1-4.8-2.5-6.5H227.6z M185.8,42.5h-1.4v9.3h1.4V42.5z M196.1,47.2c0-2.2-1.5-4-3.4-4s-3.4,1.8-3.4,4c0,2.2,1.5,4,3.4,4
	S196.1,49.4,196.1,47.2z M205.9,47.2c0-2.2-1.5-4-3.4-4c-1.9,0-3.4,1.8-3.4,4c0,2.2,1.5,4,3.4,4C204.4,51.2,205.9,49.4,205.9,47.2z
	 M210.8,42.5h-1.4v9.3h1.4V42.5z M220.7,47.2c0-2.2-1.5-4-3.4-4c-1.9,0-3.4,1.8-3.4,4c0,2.2,1.5,4,3.4,4
	C219.2,51.2,220.7,49.4,220.7,47.2z M202.5,44.6c-1.1,0-2,1.2-2,2.6s0.9,2.6,2,2.6c1.1,0,2-1.2,2-2.6S203.6,44.6,202.5,44.6z
	 M217.3,44.6c-1.1,0-2,1.2-2,2.6s0.9,2.6,2,2.6c1.1,0,2-1.2,2-2.6S218.4,44.6,217.3,44.6z M165.8,30.2h-41.3
	c0.5-9,9.5-16.1,20.6-16.1C156.3,14.1,165.3,21.2,165.8,30.2z M137.2,18.9h-1.4v8.7h1.4V18.9z M150,23.2c0-2.6-2.2-4.7-5-4.7
	c-2.8,0-5,2.1-5,4.7s2.2,4.7,5,4.7C147.8,27.9,150,25.8,150,23.2z M154.5,18.9h-1.4v8.7h1.4V18.9z M108.5,80.5h8.8v-4.6
	c-1.2-0.4-2-1.4-2-2.7s0.9-2.4,2-2.7v-4.6h-8.8V80.5z M66.3,51.8h21.8l4.2-6.4h-26V51.8z M29.8,77.8c-1-0.3-1.7-1.2-1.7-2.3
	c0-1.1,0.7-2,1.7-2.3v-3l-9,3.3v6.9h9c0-0.1,0-0.2,0-0.2V77.8z M37.2,67.5l-5.9,2.2v3.5c1,0.3,1.7,1.2,1.7,2.3c0,1.1-0.7,2-1.7,2.3
	v2.5c0,0.1,0,0.2,0,0.2h9.3L40.4,70C39.1,69.6,38,68.7,37.2,67.5z"/>
<path class="st2" d="M26.7,101.9c0,1.1-0.9,2.1-2.1,2.1c-1.1,0-2.1-0.9-2.1-2.1c0-1.1,0.9-2.1,2.1-2.1
	C25.8,99.9,26.7,100.8,26.7,101.9z M215.2,99.9c-1.1,0-2.1,0.9-2.1,2.1c0,1.1,0.9,2.1,2.1,2.1c1.1,0,2.1-0.9,2.1-2.1
	C217.3,100.8,216.3,99.9,215.2,99.9z M133.3,56.7c0.3,0.6,0.7,1.1,1.2,1.5c0.1,0.1,0.1,0.1,0.2,0.1c0.6,0.3,1.2,0.5,1.9,0.5
	c0.8,0,1.5-0.3,2.1-0.7c0.7-0.5,1.2-1.3,1.4-2.1h-7C133.1,56.3,133.2,56.5,133.3,56.7z M124.7,57.6c0.6,0.7,1.6,1.2,2.6,1.3
	c0,0,0.1,0,0.1,0c0.8,0,1.5-0.3,2.1-0.7c0.7-0.5,1.2-1.3,1.4-2.1h-7C124.1,56.7,124.4,57.2,124.7,57.6z M118.4,58.9
	c1.7,0,3.2-1.2,3.5-2.8h-7C115.2,57.7,116.7,58.9,118.4,58.9z M109.3,58.9c1.7,0,3.2-1.2,3.5-2.8h-7
	C106.1,57.7,107.5,58.9,109.3,58.9z M91.1,58.9c0.2,0,0.5,0,0.7-0.1c0.5-0.1,1-0.3,1.4-0.6c0.7-0.5,1.2-1.3,1.4-2.1h-7
	C87.9,57.7,89.3,58.9,91.1,58.9z M100.2,58.9c1.7,0,3.2-1.2,3.5-2.8h-7C97,57.7,98.4,58.9,100.2,58.9z M39.5,38.2
	c-0.8,0-1.4,0.6-1.4,1.4c0,0,0,0,0,0c0,0.5,0.3,1,0.7,1.2c0.2,0.1,0.5,0.2,0.7,0.2c0.8,0,1.4-0.6,1.4-1.4S40.3,38.2,39.5,38.2z
	 M201.8,73.3c-0.2-0.1-0.5-0.2-0.7-0.2c-0.3,0-0.5,0.1-0.7,0.2c-0.4,0.2-0.7,0.7-0.7,1.2s0.3,1,0.7,1.2c0.2,0.1,0.5,0.2,0.7,0.2
	c0.3,0,0.5-0.1,0.7-0.2c0.4-0.2,0.7-0.7,0.7-1.2S202.2,73.6,201.8,73.3z M188,57.8c-1.3,0-2.4,0.5-3,1.3c1.1,1.2,1.8,2.8,1.8,4.6
	c0,0.2,0,0.3,0,0.5h4.7v-3.5C191.6,59.1,190,57.8,188,57.8z M214.1,57.8c-2,0-3.6,1.3-3.6,2.9v3.5h7.1v-3.5
	C217.7,59.1,216.1,57.8,214.1,57.8z M170.2,44.8c-1,0-1.9,0.9-1.9,1.9c0,0.8,0.4,1.4,1.1,1.7c0.2,0.1,0.5,0.2,0.8,0.2
	s0.6-0.1,0.8-0.2c0.6-0.3,1.1-1,1.1-1.7C172.1,45.7,171.3,44.8,170.2,44.8z M137.9,49.3H161c-0.3-0.9-0.4-1.8-0.4-2.7
	c0-1.1,0.2-2.1,0.5-3.1v-0.6h-27.4L137.9,49.3z M145,26.5c2,0,3.6-1.5,3.6-3.3s-1.6-3.3-3.6-3.3c-2,0-3.6,1.5-3.6,3.3
	S143.1,26.5,145,26.5z M118.7,71.8c-0.2-0.1-0.4-0.1-0.6-0.1c-0.3,0-0.6,0.1-0.8,0.3c-0.4,0.3-0.6,0.7-0.6,1.2
	c0,0.5,0.2,0.9,0.6,1.2c0.2,0.2,0.5,0.3,0.8,0.3c0.2,0,0.4,0,0.6-0.1c0.5-0.2,0.8-0.7,0.8-1.3S119.2,72.1,118.7,71.8z M126.2,66
	c-0.6,0-1.2,0.4-1.4,1c-0.1,0.2-0.1,0.4-0.1,0.6v2.1c0,0.2,0,0.4,0.1,0.6c0.2,0.6,0.8,0.9,1.4,0.9c0.9,0,1.5-0.7,1.5-1.5v-2.1
	C127.7,66.7,127,66,126.2,66z M100.3,66c-0.9,0-1.5,0.7-1.5,1.5v2.1c0,0.9,0.7,1.5,1.5,1.5c0.8,0,1.5-0.7,1.5-1.5v-2.1
	C101.8,66.7,101.1,66,100.3,66z M86.6,71.9c-0.2-0.1-0.5-0.2-0.7-0.2c-0.3,0-0.5,0.1-0.7,0.2c-0.4,0.2-0.7,0.7-0.7,1.2
	s0.3,1,0.7,1.2c0.2,0.1,0.5,0.2,0.7,0.2c0.3,0,0.5-0.1,0.7-0.2c0.4-0.2,0.7-0.7,0.7-1.2S87.1,72.1,86.6,71.9z M98,24.2H66.2v6.4H98
	V24.2z M52.7,44.8c-1,0-1.9,0.9-1.9,1.9c0,0.7,0.4,1.3,1,1.7c0,0,0.1,0,0.1,0.1c0.2,0.1,0.5,0.2,0.8,0.2c0,0,0,0,0.1,0
	c0.2,0,0.4,0,0.6-0.1c0.7-0.3,1.2-1,1.2-1.8v0C54.6,45.7,53.7,44.8,52.7,44.8z M31.3,74.6c-0.2-0.2-0.4-0.2-0.7-0.2
	s-0.5,0.1-0.7,0.2c-0.3,0.2-0.5,0.6-0.5,0.9c0,0.4,0.2,0.7,0.5,0.9c0.2,0.2,0.4,0.2,0.7,0.2s0.5-0.1,0.7-0.2
	c0.3-0.2,0.5-0.6,0.5-0.9C31.7,75.1,31.5,74.8,31.3,74.6z M16.4,11.3c-0.9,0-1.7,0.7-1.7,1.7s0.7,1.7,1.7,1.7c0.1,0,0.2,0,0.3,0
	c0.3-0.1,0.6-0.2,0.8-0.4c0.3-0.3,0.5-0.7,0.5-1.2C18,12,17.3,11.3,16.4,11.3z"/>
<path class="st3" d="M238.4,62c0,4.1-3.1,7.5-7.2,7.9v-5.7c0.9-0.3,1.6-1.2,1.6-2.2c0-1.3-1.1-2.4-2.4-2.4c-1.3,0-2.4,1.1-2.4,2.4
	c0,1,0.7,1.9,1.6,2.2V70c-1.6-0.2-3-0.8-4.2-1.7c-0.5-0.4-1-0.9-1.4-1.5c-1-1.3-1.6-3-1.6-4.7c0-1.8,0.6-3.4,1.6-4.7
	c0.4-0.6,0.9-1.1,1.4-1.5c0.2-0.1,0.3-0.3,0.5-0.4c0.9-0.6,1.9-1,3-1.2c0.5-0.1,0.9-0.1,1.4-0.1C234.8,54.1,238.4,57.6,238.4,62z
	 M212.2,34.7h8.8v-6.2l-8.9-3.3L212.2,34.7z M183.2,59.7c-0.8-0.6-1.9-1-3-1c-0.7,0-1.4,0.1-2,0.4c-0.5,0.2-1,0.5-1.4,0.9
	c-1,0.9-1.6,2.3-1.6,3.7c0,1.1,0.4,2.2,1,3l0.6-0.6l1.4-1.4l0.2-0.2c-0.1-0.2-0.1-0.4-0.1-0.6c0-1,0.8-1.9,1.9-1.9
	c1,0,1.9,0.8,1.9,1.9s-0.9,1.9-1.9,1.9c-0.2,0-0.4,0-0.6-0.1l-1.4,1.4l-0.9,0.9c0.3,0.2,0.6,0.4,0.9,0.5c0.6,0.3,1.3,0.4,2,0.4
	c2.1,0,4-1.3,4.7-3.2c0.2-0.4,0.3-0.9,0.3-1.4c0-0.1,0-0.3,0-0.5c0-1-0.3-1.9-0.8-2.7C184.1,60.5,183.7,60.1,183.2,59.7z
	 M178.2,46.6c0-2.7-1.3-5.1-3.4-6.5c-0.5-0.4-1-0.7-1.6-0.9c-0.9-0.4-1.9-0.6-3-0.6c-1.1,0-2.1,0.2-3.1,0.6c-0.5,0.2-1,0.5-1.4,0.8
	c-1.5,1-2.6,2.6-3.1,4.3c-0.2,0.7-0.3,1.5-0.3,2.2c0,0.8,0.1,1.5,0.3,2.2c0.5,1.8,1.7,3.3,3.1,4.3c0.4,0.3,0.9,0.6,1.4,0.8
	c0.7,0.3,1.5,0.5,2.3,0.6V50c-1-0.3-1.9-1-2.3-2c-0.2-0.4-0.2-0.8-0.2-1.2c0-0.4,0.1-0.9,0.2-1.2c0.5-1.2,1.7-2.1,3.1-2.1
	c1.3,0,2.4,0.7,3,1.8c0.2,0.5,0.4,1,0.4,1.5c0,0.5-0.1,1-0.4,1.5c-0.4,0.8-1.2,1.5-2.2,1.7v4.6c0.8-0.1,1.5-0.3,2.2-0.5
	c0.5-0.2,1-0.5,1.4-0.8C176.8,51.8,178.2,49.3,178.2,46.6z M158.3,53.7c-2.6,0-4.8,2-5,4.5c0,0.2,0,0.4,0,0.6c0,0.3,0,0.6,0.1,0.9
	c0.4,2.4,2.5,4.2,5,4.2c1.1,0,2.1-0.4,2.9-0.9l-2.3-2.3c-0.2,0.1-0.4,0.1-0.6,0.1c-0.8,0-1.4-0.4-1.7-1.1c-0.1-0.2-0.2-0.5-0.2-0.8
	c0-0.2,0-0.4,0.1-0.6c0.3-0.7,1-1.3,1.8-1.3c1,0,1.9,0.8,1.9,1.9c0,0.2,0,0.4-0.1,0.6l2.3,2.3c0.6-0.8,1-1.9,1-3
	C163.4,56,161.1,53.7,158.3,53.7z M134.7,74.6h26.4v-6.4h-26.4V74.6z M123.3,47c-0.5-1.1-1.6-1.9-2.5-1.9c-1,0-1.6,0.9-1.3,2
	c0.3,1.3,1.5,2.4,2.7,2.4c0.5,0,0.9-0.2,1.2-0.6c0.3-0.4,0.3-1.1,0.1-1.8C123.4,47.1,123.3,47.1,123.3,47z M106.9,45.2
	c-0.4,0-0.9,0.2-1.3,0.5c-0.5,0.4-1,0.9-1.2,1.5c-0.1,0.3-0.2,0.5-0.2,0.7c0,0.1,0,0.3,0,0.4c0.1,0.8,0.6,1.3,1.4,1.3h0
	c1.2,0,2.4-1.1,2.7-2.4C108.5,46,107.9,45.2,106.9,45.2z M139.6,54.6H88.1l0.9-1.4l0.9-1.4l1.9-2.9l0.6-0.9l1.7-2.7l0.9-1.4l0.2-0.3
	l1.4-2.2l0.3-0.4h33.9l0.3,0.5l0.9,1.4l4.2,6.4l0.9,1.4L139.6,54.6z M101.4,43.8h-1.2l-0.6,0.9l-1.4,2.2L95,51.8h1.7l1.5-2.5
	l1.4-2.4L101.4,43.8z M107.2,44.2c-0.5,0-1.1,0.1-1.6,0.4c-0.5,0.2-1,0.5-1.4,0.9c-0.5,0.5-1,1-1.2,1.7c-0.8,1.7-0.2,3.3,1.2,3.8
	c0.3,0.1,0.6,0.1,0.9,0.1c0.2,0,0.3,0,0.5,0c2-0.3,3.8-2,4.1-3.9C109.9,45.5,108.8,44.2,107.2,44.2z M114.7,51.8l-0.2-8h-1.2l-0.2,8
	H114.7z M124.8,47.2l-0.1-0.1c-0.3-0.7-0.8-1.3-1.4-1.8c-0.9-0.7-1.9-1.1-2.8-1.1c-1.6,0-2.8,1.2-2.5,3c0.3,2,2.4,3.9,4.6,3.9
	c0.2,0,0.5,0,0.7-0.1c0.6-0.1,1.1-0.5,1.4-0.9C125.3,49.4,125.3,48.3,124.8,47.2z M132.7,51.8l-0.7-1l-0.9-1.4l-1.8-2.7l-1.4-2.2
	l-0.4-0.6h-1.2l1.6,2.7l1.4,2.4l0.2,0.4l0.8,1.4l0.6,1H132.7z M76.4,80.5h8.8v-4.6c-1.2-0.3-2.1-1.4-2.1-2.8c0-1.3,0.9-2.4,2.1-2.8
	v-4.6h-8.8V80.5z M107.2,1.4H57.1v5h50.1V1.4z M66.3,54c-0.4-0.2-0.9-0.3-1.4-0.3c-0.1,0-0.2,0-0.4,0c-1.9,0-3.5,1-4.4,2.5
	c-0.4,0.7-0.7,1.6-0.7,2.5s0.2,1.8,0.7,2.5c0.1,0.2,0.2,0.3,0.3,0.5l2.3-2.3c-0.1-0.2-0.1-0.4-0.1-0.6c0-1,0.8-1.9,1.9-1.9
	c0.1,0,0.2,0,0.4,0c0.7,0.1,1.2,0.6,1.4,1.2c0.1,0.2,0.1,0.4,0.1,0.7c0,0.2,0,0.5-0.1,0.7c-0.2,0.6-0.8,1.1-1.4,1.2
	c-0.1,0-0.2,0-0.4,0c-0.2,0-0.4,0-0.6-0.1l-2.3,2.3c0.8,0.6,1.8,0.9,2.9,0.9c0.1,0,0.2,0,0.4,0c0.5,0,1-0.1,1.4-0.3
	c1.9-0.7,3.3-2.6,3.3-4.7S68.3,54.8,66.3,54z M45.9,59.8c-0.9-0.7-2-1.1-3.2-1.1c-2.8,0-5.1,2.3-5.1,5.1c0,0.7,0.1,1.3,0.4,1.9
	c0.2,0.5,0.4,0.9,0.7,1.2c0.4,0.6,1,1,1.7,1.4c0.4,0.2,0.9,0.4,1.4,0.5c0.3,0,0.6,0.1,0.9,0.1c1.1,0,2.1-0.4,2.9-0.9l-2.3-2.3
	c-0.2,0.1-0.4,0.1-0.6,0.1c-0.3,0-0.6-0.1-0.9-0.2c-0.4-0.2-0.7-0.5-0.8-0.9c-0.1-0.2-0.2-0.5-0.2-0.8c0-1,0.8-1.9,1.9-1.9
	c1,0,1.9,0.8,1.9,1.9c0,0.2,0,0.4-0.1,0.6l1.4,1.4l0.9,0.9c0.2-0.3,0.4-0.6,0.6-0.9c0.3-0.6,0.4-1.3,0.4-2.1c0-0.7-0.2-1.4-0.4-2.1
	C47,61,46.5,60.3,45.9,59.8z M60.7,46.6c0-1-0.2-1.9-0.5-2.8c-0.3-0.9-0.8-1.7-1.4-2.4c-1.5-1.7-3.6-2.8-6.1-2.8
	c-2.1,0-3.9,0.8-5.3,2.1c-0.6,0.5-1,1.1-1.4,1.7c-0.8,1.2-1.2,2.7-1.2,4.2c0,1.6,0.4,3,1.2,4.2c0.4,0.6,0.9,1.2,1.4,1.7
	c1.2,1.1,2.8,1.8,4.5,2V50c0,0-0.1,0-0.1,0c-1.4-0.4-2.4-1.7-2.4-3.2c0-1.8,1.5-3.3,3.3-3.3c1.8,0,3.3,1.5,3.3,3.3
	c0,1.6-1.1,2.9-2.5,3.2v4.6c2.1-0.2,3.9-1.2,5.2-2.8c0.6-0.7,1.1-1.5,1.4-2.4C60.5,48.5,60.7,47.6,60.7,46.6z M21.1,20.4l-0.5,0.3
	l-6.2,3.7c1.1,1.5,2.6,2.5,4.4,2.9c2,0.5,4.1,0.2,5.9-0.9c3.4-2.1,4.7-6.4,3-10L21.1,20.4z M14,55.4c-1.3-0.8-2.8-1.3-4.4-1.3
	c-4.4,0-8,3.6-8,8c0,4.1,3.1,7.5,7.2,7.9v-5.7c-0.9-0.3-1.6-1.2-1.6-2.2c0-1.3,1.1-2.4,2.4-2.4c1.3,0,2.4,1.1,2.4,2.4
	c0,1-0.7,1.9-1.6,2.2V70c1.3-0.1,2.5-0.6,3.6-1.3c0.5-0.3,1-0.7,1.4-1.2c1.3-1.4,2.2-3.3,2.2-5.5c0-2.1-0.8-4-2.2-5.5
	C15,56.1,14.5,55.7,14,55.4z"/>
<path class="st4" d="M219.1,60.7v4.2c0,0.4-0.3,0.7-0.7,0.7h-8.5c-0.4,0-0.7-0.3-0.7-0.7v-4.2c0-2.4,2.2-4.3,5-4.3
	C216.9,56.4,219.1,58.3,219.1,60.7L219.1,60.7z M217.7,64.2v-3.5c0-1.6-1.6-2.9-3.6-2.9c-2,0-3.6,1.3-3.6,2.9v3.5H217.7z
	 M217.3,43.2c1.9,0,3.4,1.8,3.4,4c0,2.2-1.5,4-3.4,4c-1.9,0-3.4-1.8-3.4-4C213.9,45,215.4,43.2,217.3,43.2z M219.3,47.2
	c0-1.4-0.9-2.6-2-2.6c-1.1,0-2,1.2-2,2.6c0,1.4,0.9,2.6,2,2.6C218.4,49.8,219.3,48.6,219.3,47.2z M209.4,42.5v9.3h1.4v-9.3H209.4z
	 M202.5,43.2c1.9,0,3.4,1.8,3.4,4c0,2.2-1.5,4-3.4,4c-1.9,0-3.4-1.8-3.4-4C199.1,45,200.6,43.2,202.5,43.2z M204.5,47.2
	c0-1.4-0.9-2.6-2-2.6c-1.1,0-2,1.2-2,2.6c0,1.4,0.9,2.6,2,2.6C203.6,49.8,204.5,48.6,204.5,47.2z M192.7,43.2c1.9,0,3.4,1.8,3.4,4
	c0,2.2-1.5,4-3.4,4s-3.4-1.8-3.4-4C189.3,45,190.8,43.2,192.7,43.2z M194.6,47.2c0-1.4-0.9-2.6-2-2.6s-2,1.2-2,2.6
	c0,1.4,0.9,2.6,2,2.6C193.7,49.8,194.6,48.6,194.6,47.2z M184.3,42.5v9.3h1.4v-9.3H184.3z M167.2,30.9c0,0.4-0.3,0.7-0.7,0.7h-42.7
	c-0.4,0-0.7-0.3-0.7-0.7c0-9.9,9.5-17.9,21.4-18.2V6.6c-1.2-0.3-2.1-1.4-2.1-2.8c0-1.6,1.3-2.8,2.8-2.8s2.8,1.3,2.8,2.8
	c0,1.3-0.9,2.4-2.1,2.8v6.1C157.7,13,167.2,21,167.2,30.9z M124.5,30.2h41.3c-0.5-9-9.5-16.1-20.6-16.1
	C134.1,14.1,125,21.2,124.5,30.2L124.5,30.2z M153.1,18.9v8.7h1.4v-8.7H153.1z M145,18.5c2.8,0,5,2.1,5,4.7s-2.2,4.7-5,4.7
	c-2.8,0-5-2.1-5-4.7S142.3,18.5,145,18.5z M148.6,23.2c0-1.8-1.6-3.3-3.6-3.3c-2,0-3.6,1.5-3.6,3.3s1.6,3.3,3.6,3.3
	C147,26.5,148.6,25,148.6,23.2z M135.8,18.9v8.7h1.4v-8.7H135.8z M129.1,67.6v2.1c0,1-0.5,1.9-1.2,2.4c-0.5,0.3-1.1,0.6-1.7,0.6
	c-0.5,0-1-0.1-1.4-0.4c-0.7-0.4-1.2-1-1.4-1.8c-0.1-0.3-0.1-0.5-0.1-0.8v-2.1c0-0.3,0-0.6,0.1-0.8c0.2-0.8,0.7-1.4,1.4-1.8
	c0.4-0.2,0.9-0.4,1.4-0.4c1.3,0,2.5,0.9,2.8,2.1C129.1,67,129.1,67.3,129.1,67.6z M127.7,69.7v-2.1c0-0.9-0.7-1.5-1.5-1.5
	c-0.6,0-1.2,0.4-1.4,1c-0.1,0.2-0.1,0.4-0.1,0.6v2.1c0,0.2,0,0.4,0.1,0.6c0.2,0.6,0.8,0.9,1.4,0.9C127,71.2,127.7,70.5,127.7,69.7z
	 M103.3,67.6v2.1c0,1.6-1.3,3-3,3c-1.6,0-3-1.3-3-3v-2.1c0-1.6,1.3-3,3-3C101.9,64.6,103.3,65.9,103.3,67.6z M101.8,69.7v-2.1
	c0-0.9-0.7-1.5-1.5-1.5c-0.9,0-1.5,0.7-1.5,1.5v2.1c0,0.9,0.7,1.5,1.5,1.5C101.1,71.2,101.8,70.5,101.8,69.7z M131.1,49.3l-1.8-2.7
	l-1.4-2.2l-0.4-0.6h-1.2l1.6,2.7l1.4,2.4l0.2,0.4l0.8,1.4l0.6,1h1.7l-0.7-1L131.1,49.3L131.1,49.3z M124.8,47.2
	c0.5,1.1,0.4,2.2-0.1,2.9c-0.3,0.5-0.8,0.8-1.4,0.9c-0.2,0-0.4,0.1-0.7,0.1c-2.2,0-4.3-1.9-4.6-3.9c-0.3-1.7,0.8-3,2.5-3
	c1,0,2,0.4,2.8,1.1c0.6,0.5,1.1,1.1,1.4,1.8L124.8,47.2z M123.3,49c0.3-0.4,0.3-1.1,0.1-1.8c0,0,0-0.1-0.1-0.1
	c-0.5-1.1-1.6-1.9-2.5-1.9c-1,0-1.6,0.9-1.3,2c0.3,1.3,1.5,2.4,2.7,2.4C122.7,49.6,123.1,49.4,123.3,49L123.3,49z M113.2,43.8
	l-0.2,8h1.7l-0.2-8H113.2L113.2,43.8z M107.2,44.2c1.6,0,2.8,1.2,2.5,3c-0.3,1.9-2.1,3.6-4.1,3.9c-0.2,0-0.3,0-0.5,0
	c-0.3,0-0.7,0-0.9-0.1c-1.5-0.5-2-2.1-1.2-3.8c0.3-0.6,0.7-1.2,1.2-1.7c0.4-0.4,0.9-0.7,1.4-0.9C106.1,44.4,106.6,44.2,107.2,44.2z
	 M108.2,47.2c0.3-1.1-0.3-2-1.3-2c-0.4,0-0.9,0.2-1.3,0.5c-0.5,0.4-1,0.9-1.2,1.5c-0.1,0.3-0.2,0.5-0.2,0.7c0,0.1,0,0.3,0,0.4
	c0.1,0.8,0.6,1.3,1.4,1.3h0C106.7,49.6,107.9,48.4,108.2,47.2L108.2,47.2z M100.1,43.8l-0.6,0.9l-1.4,2.2L95,51.8h1.7l1.5-2.5
	l1.4-2.4l1.8-3H100.1z M96.9,11.1c1.9,0,3.4,1.8,3.4,4c0,2.2-1.5,4-3.4,4c-1.9,0-3.4-1.8-3.4-4C93.5,12.9,95,11.1,96.9,11.1z
	 M98.9,15.1c0-1.4-0.9-2.6-2-2.6c-1.1,0-2,1.2-2,2.6c0,1.4,0.9,2.6,2,2.6C98,17.7,98.9,16.6,98.9,15.1L98.9,15.1z M89,10.4v9.3h1.4
	v-9.3H89L89,10.4z M82.1,11.1c1.9,0,3.4,1.8,3.4,4c0,2.2-1.5,4-3.4,4c-1.9,0-3.4-1.8-3.4-4C78.7,12.9,80.3,11.1,82.1,11.1L82.1,11.1
	z M84.1,15.1c0-1.4-0.9-2.6-2-2.6c-1.1,0-2,1.2-2,2.6c0,1.4,0.9,2.6,2,2.6C83.2,17.7,84.1,16.6,84.1,15.1z M72.3,11.1
	c1.9,0,3.4,1.8,3.4,4c0,2.2-1.5,4-3.4,4c-1.9,0-3.4-1.8-3.4-4C68.9,12.9,70.4,11.1,72.3,11.1L72.3,11.1z M74.2,15.1
	c0-1.4-0.9-2.6-2-2.6c-1.1,0-2,1.2-2,2.6c0,1.4,0.9,2.6,2,2.6C73.4,17.7,74.2,16.6,74.2,15.1z M64,10.4v9.3h1.4v-9.3H64L64,10.4z
	 M1.6,62c0,4.1,3.1,7.5,7.2,7.9v-5.7c-0.9-0.3-1.6-1.2-1.6-2.2c0-1.3,1.1-2.4,2.4-2.4c1.3,0,2.4,1.1,2.4,2.4c0,1-0.7,1.9-1.6,2.2V70
	c1.3-0.1,2.5-0.6,3.6-1.3c0.5-0.3,1-0.7,1.4-1.2c1.3-1.4,2.2-3.3,2.2-5.5c0-2.1-0.8-4-2.2-5.5c-0.4-0.5-0.9-0.9-1.4-1.2
	c-1.3-0.8-2.8-1.3-4.4-1.3C5.2,54.1,1.6,57.6,1.6,62L1.6,62z M240,62c0,5-3.9,9.1-8.8,9.6v8.9h5.2c0.4,0,0.7,0.3,0.7,0.7V102
	c0,0.4-0.3,0.7-0.7,0.7h-17.7c-0.4,1.6-1.8,2.9-3.6,2.9c-2,0-3.6-1.6-3.6-3.6c0-2,1.6-3.6,3.6-3.6c1.8,0,3.3,1.3,3.6,3h17V81.9H4.3
	v19.4h16.8c0.3-1.7,1.8-3,3.6-3c2,0,3.6,1.6,3.6,3.6c0,2-1.6,3.6-3.6,3.6c-1.7,0-3.2-1.2-3.6-2.9H3.5c-0.4,0-0.7-0.3-0.7-0.7V81.2
	c0-0.4,0.3-0.7,0.7-0.7h5.2v-8.9C3.9,71.2,0,67.1,0,62c0-5.3,4.3-9.6,9.6-9.6c1.6,0,3.1,0.4,4.4,1.1V42.8l-3.2,1.5
	c0,0.1,0,0.2,0,0.3c0,1.6-1.3,2.8-2.8,2.8s-2.8-1.3-2.8-2.8s1.3-2.8,2.8-2.8c1,0,1.8,0.5,2.3,1.2l18.4-8.6L24.8,28
	c-1.3,0.7-2.7,1-4.1,1c-0.7,0-1.5-0.1-2.2-0.3c-2.4-0.6-4.4-2.1-5.6-4.2c-0.2-0.3-0.1-0.8,0.2-1l6.5-3.9l-2.4-3.8
	C16.9,16,16.6,16,16.4,16c-1.7,0-3.1-1.4-3.1-3.1c0-1.7,1.4-3.1,3.1-3.1s3.1,1.4,3.1,3.1c0,0.9-0.4,1.7-1,2.3l2.3,3.7l6.8-4.1
	c0.2-0.1,0.4-0.1,0.5-0.1c0.2,0,0.3,0.2,0.4,0.3c2.5,4.1,1.3,9.4-2.5,12.1l4,6.4l18.4-8.6c-0.1-0.2-0.1-0.5-0.1-0.7
	c0-1.6,1.3-2.8,2.8-2.8s2.8,1.3,2.8,2.8s-1.3,2.8-2.8,2.8c-0.8,0-1.6-0.4-2.1-0.9l-1.7,0.8v11.5c1.5-1,3.4-1.6,5.3-1.6
	c2.3,0,4.4,0.8,6.1,2.2V7.8h-2.4c-0.4,0-0.7-0.3-0.7-0.7V0.7C55.7,0.3,56,0,56.4,0h51.5c0.4,0,0.7,0.3,0.7,0.7v6.4
	c0,0.4-0.3,0.7-0.7,0.7h-2.4v31.8h17.8v-4.2c0-0.4,0.3-0.7,0.7-0.7h42.4c0.4,0,0.7,0.3,0.7,0.7v2.1c1-0.3,2-0.5,3.1-0.5
	c2,0,3.9,0.6,5.4,1.7h1.1v-3.3c0-0.4,0.3-0.7,0.7-0.7h33.4l-0.1-10l-1.9-0.7c-0.3,0.4-0.9,0.7-1.4,0.7c-1,0-1.9-0.9-1.9-1.9
	c0-1,0.8-1.9,1.9-1.9c1,0,1.8,0.8,1.9,1.8l15.7,5.8c0.3-0.4,0.9-0.7,1.4-0.7c1.1,0,1.9,0.8,1.9,1.9c0,1-0.8,1.9-1.9,1.9
	c-1,0-1.8-0.8-1.9-1.8l-2-0.7v5.6h2.3c0.4,0,0.7,0.3,0.7,0.7v3.3h2.8c0.4,0,0.7,0.3,0.7,0.7v13.2c0.5-0.1,0.9-0.1,1.4-0.1
	C235.7,52.5,240,56.8,240,62L240,62z M231.2,70c4-0.4,7.2-3.8,7.2-7.9c0-4.4-3.6-8-8-8c-0.5,0-1,0-1.4,0.1c-1.1,0.2-2.1,0.6-3,1.2
	c-0.2,0.1-0.3,0.2-0.5,0.4c-0.5,0.4-1,0.9-1.4,1.5c-1,1.3-1.6,3-1.6,4.7c0,1.8,0.6,3.4,1.6,4.7c0.4,0.6,0.9,1.1,1.4,1.5
	c1.2,0.9,2.6,1.6,4.2,1.7v-5.7c-0.9-0.3-1.6-1.2-1.6-2.2c0-1.3,1.1-2.4,2.4-2.4c1.3,0,2.4,1.1,2.4,2.4c0,1-0.7,1.9-1.6,2.2V70z
	 M229.6,80.5v-8.9c-1.5-0.1-2.9-0.6-4.2-1.4v10.3H229.6z M227.6,52.9V40.1h-50.3c1.6,1.7,2.5,4,2.5,6.5c0,3-1.4,5.6-3.5,7.4h48.9
	C225.9,53.5,226.7,53.2,227.6,52.9L227.6,52.9z M224,80.5V69.2c-2-1.8-3.2-4.3-3.2-7.1c0-2.6,1-4.9,2.6-6.6h-45.3v2
	c0.6-0.2,1.3-0.3,2-0.3c1.4,0,2.7,0.4,3.8,1.2c0.9-1.1,2.4-1.8,4.1-1.8c2.8,0,5,1.9,5,4.3v4.2c0,0.4-0.3,0.7-0.7,0.7h-5.7
	c-0.8,2.8-3.4,4.8-6.4,4.8c-0.7,0-1.4-0.1-2-0.3v10.4h11V67.6c0-0.4,0.3-0.7,0.7-0.7h22.3c0.4,0,0.7,0.3,0.7,0.7v12.9H224L224,80.5z
	 M224,38.7v-2.6h-45.8v2.6H224z M221,34.7v-6.2l-8.9-3.3l0.1,9.4H221L221,34.7z M217.3,101.9c0-1.1-0.9-2.1-2.1-2.1
	c-1.1,0-2.1,0.9-2.1,2.1c0,1.1,0.9,2.1,2.1,2.1C216.3,104,217.3,103.1,217.3,101.9z M211.5,80.5V68.3h-9.7v3.5
	c1.2,0.3,2.1,1.4,2.1,2.8s-0.9,2.4-2.1,2.8v3.2H211.5z M202.5,74.6c0-0.5-0.3-1-0.7-1.2c-0.2-0.1-0.5-0.2-0.7-0.2s-0.5,0.1-0.7,0.2
	c-0.4,0.2-0.7,0.7-0.7,1.2s0.3,1,0.7,1.2c0.2,0.1,0.5,0.2,0.7,0.2s0.5-0.1,0.7-0.2C202.2,75.5,202.5,75.1,202.5,74.6z M200.4,80.5
	v-3.2c-1.2-0.3-2.1-1.4-2.1-2.8s0.9-2.4,2.1-2.8v-3.5h-9.7v12.2H200.4z M191.6,64.2v-3.5c0-1.6-1.6-2.9-3.6-2.9
	c-1.3,0-2.4,0.5-3,1.3c1.1,1.2,1.8,2.8,1.8,4.6c0,0.2,0,0.3,0,0.5H191.6L191.6,64.2z M185.2,64.2c0-0.1,0-0.3,0-0.5
	c0-1-0.3-1.9-0.8-2.7c-0.3-0.5-0.8-1-1.3-1.4c-0.8-0.6-1.9-1-3-1c-0.7,0-1.4,0.1-2,0.4c-0.5,0.2-1,0.5-1.4,0.9
	c-1,0.9-1.6,2.3-1.6,3.7c0,1.1,0.4,2.2,1,3l0.6-0.6l1.4-1.4l0.2-0.2c-0.1-0.2-0.1-0.4-0.1-0.6c0-1,0.9-1.9,1.9-1.9
	c1,0,1.9,0.9,1.9,1.9c0,1-0.9,1.9-1.9,1.9c-0.2,0-0.4,0-0.6-0.1l-1.4,1.4l-0.9,0.9c0.3,0.2,0.6,0.4,0.9,0.5c0.6,0.3,1.3,0.4,2,0.4
	c2.1,0,4-1.3,4.7-3.2C185.1,65.2,185.2,64.7,185.2,64.2z M178.2,46.6c0-2.7-1.3-5.1-3.4-6.5c-0.5-0.4-1-0.7-1.6-0.9
	c-0.9-0.4-1.9-0.6-3-0.6c-1.1,0-2.1,0.2-3.1,0.6c-0.5,0.2-1,0.5-1.4,0.8c-1.5,1-2.6,2.6-3.1,4.3c-0.2,0.7-0.3,1.5-0.3,2.2
	s0.1,1.5,0.3,2.2c0.5,1.8,1.7,3.3,3.1,4.3c0.4,0.3,0.9,0.6,1.4,0.8c0.7,0.3,1.5,0.5,2.3,0.6V50c-1-0.3-1.9-1-2.3-2
	c-0.2-0.4-0.2-0.8-0.2-1.2c0-0.4,0.1-0.9,0.2-1.2c0.5-1.2,1.7-2.1,3.1-2.1c1.3,0,2.4,0.7,3,1.8c0.2,0.5,0.4,1,0.4,1.5
	c0,0.5-0.1,1-0.4,1.5c-0.4,0.9-1.2,1.5-2.2,1.7v4.6c0.8-0.1,1.5-0.3,2.2-0.5c0.5-0.2,1-0.5,1.4-0.8
	C176.8,51.8,178.2,49.4,178.2,46.6L178.2,46.6z M176.7,80.5v-11c-0.2-0.1-0.4-0.3-0.6-0.4l-5.1,5.1v6.4H176.7L176.7,80.5z M176.7,58
	v-2.6H174c-0.9,0.4-1.9,0.6-2.9,0.7v15.7l3.9-3.9c-0.9-1.1-1.4-2.6-1.4-4.2C173.5,61.3,174.8,59.2,176.7,58L176.7,58z M171,48.4
	c0.6-0.3,1.1-1,1.1-1.7c0-1-0.9-1.9-1.9-1.9s-1.9,0.9-1.9,1.9c0,0.8,0.4,1.4,1.1,1.7c0.2,0.1,0.5,0.2,0.8,0.2
	C170.5,48.6,170.8,48.6,171,48.4z M169.4,80.5V71l-2.3-2.3v11.7H169.4z M169.4,68.8V56.2c-0.8-0.1-1.6-0.2-2.3-0.5v10.8L169.4,68.8
	L169.4,68.8z M165.7,80.5V67.3l-3.3-3.3c-1.1,0.9-2.5,1.4-4.1,1.4c-3.4,0-6.2-2.5-6.6-5.8h-12.6c-0.7,0.4-1.6,0.7-2.5,0.7
	c-0.7,0-1.3-0.1-1.9-0.4v6.8h27.2c0.4,0,0.7,0.3,0.7,0.7v7.8c0,0.4-0.3,0.7-0.7,0.7h-27.2v4.5H165.7L165.7,80.5z M165.7,65.1v-10
	c-1.8-1-3.3-2.5-4.1-4.3h-22.8l2.7,4.1c0.1,0.1,0.1,0.3,0.1,0.4c0,0,0,0,0,0.1c0,1.1-0.3,2-0.9,2.9h11c0.3-3.4,3.2-6.1,6.7-6.1
	c3.7,0,6.7,3,6.7,6.7c0,1.6-0.5,3-1.4,4.2L165.7,65.1L165.7,65.1z M165.7,38.1v-2h-41v3.5h6.4c0.2,0,0.5,0.1,0.6,0.3l1,1.6h29.1
	c0.1,0,0.2,0,0.2,0C163,40.1,164.2,38.9,165.7,38.1L165.7,38.1z M162.4,61.8c0.6-0.8,1-1.9,1-3c0-2.8-2.3-5.1-5.1-5.1
	c-2.6,0-4.8,2-5,4.5c0,0.2,0,0.4,0,0.6c0,0.3,0,0.6,0.1,0.9c0.4,2.4,2.5,4.2,5,4.2c1.1,0,2.1-0.4,2.9-0.9l-2.3-2.3
	c-0.2,0.1-0.4,0.1-0.6,0.1c-0.8,0-1.4-0.4-1.7-1.1c-0.1-0.2-0.2-0.5-0.2-0.8c0-0.2,0-0.4,0.1-0.6c0.3-0.7,1-1.3,1.8-1.3
	c1,0,1.9,0.9,1.9,1.9c0,0.2,0,0.4-0.1,0.6L162.4,61.8L162.4,61.8z M161.1,74.6v-6.4h-26.4v6.4H161.1z M161.1,43.5v-0.6h-27.4
	l4.2,6.4H161c-0.3-0.9-0.4-1.8-0.4-2.7C160.6,45.5,160.8,44.5,161.1,43.5L161.1,43.5z M140.1,56.1h-7c0,0.2,0.1,0.4,0.2,0.6
	c0.3,0.6,0.7,1.1,1.2,1.5c0.1,0.1,0.1,0.1,0.2,0.1c0.6,0.3,1.2,0.5,1.9,0.5c0.8,0,1.5-0.3,2.1-0.7C139.4,57.7,139.9,56.9,140.1,56.1
	L140.1,56.1z M139.6,54.6l-2.5-3.8l-0.9-1.4l-4.2-6.4l-0.9-1.4l-0.3-0.5H96.9l-0.3,0.4l-1.4,2.2L95,43.9l-0.9,1.4L92.3,48l-0.6,0.9
	l-1.9,2.9L89,53.2l-0.9,1.4H139.6L139.6,54.6z M133.3,80.5V59.1c-0.3-0.3-0.5-0.5-0.8-0.9c-0.2-0.2-0.3-0.5-0.5-0.8
	c-0.1,0.3-0.3,0.5-0.5,0.8c-0.4,0.6-0.9,1.1-1.6,1.4c-0.7,0.4-1.6,0.7-2.5,0.7c-1,0-2-0.3-2.7-0.8c-0.6-0.4-1.1-0.8-1.4-1.4
	c-0.1-0.2-0.3-0.4-0.4-0.7c-0.8,1.7-2.5,2.9-4.6,2.9c-2,0-3.8-1.2-4.6-2.9c-0.8,1.7-2.5,2.9-4.6,2.9c-1.5,0-2.8-0.7-3.8-1.7
	c-0.3-0.4-0.6-0.8-0.8-1.2c-0.2,0.4-0.4,0.7-0.6,1c-0.9,1.1-2.3,1.9-3.9,1.9c-2,0-3.8-1.2-4.6-2.9c-0.5,1.1-1.4,1.9-2.4,2.4v20.6
	h13.9V65.1c0-0.4,0.3-0.7,0.7-0.7H118c0.4,0,0.7,0.3,0.7,0.7v5.3c1.3,0.3,2.3,1.4,2.3,2.8c0,1.4-1,2.5-2.3,2.8v4.6H133.3z M131,56.1
	h-7c0.1,0.6,0.4,1.1,0.8,1.6c0.6,0.7,1.6,1.2,2.6,1.3c0,0,0.1,0,0.1,0c0.8,0,1.5-0.3,2.1-0.7C130.3,57.7,130.8,56.9,131,56.1
	L131,56.1z M121.9,56.1h-7c0.3,1.6,1.8,2.8,3.5,2.8C120.1,58.9,121.6,57.7,121.9,56.1z M119.5,73.1c0-0.6-0.3-1.1-0.8-1.3
	c-0.2-0.1-0.4-0.1-0.6-0.1c-0.3,0-0.6,0.1-0.8,0.3c-0.4,0.3-0.6,0.7-0.6,1.2c0,0.5,0.2,0.9,0.6,1.2c0.2,0.2,0.5,0.3,0.8,0.3
	c0.2,0,0.4,0,0.6-0.1C119.2,74.2,119.5,73.7,119.5,73.1z M117.3,80.5v-4.6c-1.2-0.4-2-1.4-2-2.7s0.8-2.4,2-2.7v-4.6h-8.8v14.7H117.3
	z M112.8,56.1h-7c0.3,1.6,1.8,2.8,3.5,2.8S112.5,57.7,112.8,56.1z M107.2,6.4v-5H57.1v5H107.2L107.2,6.4z M104.1,39.6V7.8H60.2v32.8
	c1.3,1.6,2.1,3.7,2.1,6s-0.8,4.4-2.1,6v1.1c1.2-1,2.7-1.7,4.4-1.7c0.1,0,0.2,0,0.4,0v-7.5c0-0.4,0.3-0.7,0.7-0.7h27.7l1.9-2.9v-2.5
	H68.9c-0.4,0-0.7-0.3-0.7-0.7v-5.7h-2.7c-0.4,0-0.7-0.3-0.7-0.7v-7.8c0-0.4,0.3-0.7,0.7-0.7h33.2c0.4,0,0.7,0.3,0.7,0.7v7.8
	c0,0.4-0.3,0.7-0.7,0.7H69.6v5h26.3c0.4,0,0.7,0.3,0.7,0.7v1.8H104.1L104.1,39.6z M103.7,56.1h-7c0.3,1.6,1.8,2.8,3.5,2.8
	C101.9,58.9,103.3,57.7,103.7,56.1z M98,30.6v-6.4H66.2v6.4H98z M94.6,56.1h-7c0.3,1.6,1.8,2.8,3.5,2.8c0.2,0,0.5,0,0.7-0.1
	c0.5-0.1,1-0.3,1.4-0.6C93.9,57.7,94.4,56.9,94.6,56.1L94.6,56.1z M88.2,51.8l4.2-6.4h-26v6.4H88.2L88.2,51.8z M91.8,80.5V60.3
	c-0.2,0-0.5,0-0.7,0c-2.8,0-5-2.2-5-5c0,0,0,0,0-0.1c0-0.1,0-0.3,0.1-0.4l1.1-1.7H68.2c1.8,1.2,3,3.3,3,5.6c0,3.1-2.1,5.7-4.9,6.4
	v15.3H75V65.1c0-0.4,0.3-0.7,0.7-0.7h10.2c0.4,0,0.7,0.3,0.7,0.7v5.3c1.2,0.3,2.1,1.4,2.1,2.8c0,1.3-0.9,2.4-2.1,2.8v4.6H91.8
	L91.8,80.5z M87.4,73.1c0-0.5-0.3-1-0.7-1.2c-0.2-0.1-0.5-0.2-0.7-0.2s-0.5,0.1-0.7,0.2c-0.4,0.2-0.7,0.7-0.7,1.2s0.3,1,0.7,1.2
	c0.2,0.1,0.5,0.2,0.7,0.2s0.5-0.1,0.7-0.2C87.1,74.1,87.4,73.7,87.4,73.1z M85.2,80.5v-4.6c-1.2-0.3-2.1-1.4-2.1-2.8
	c0-1.3,0.9-2.4,2.1-2.8v-4.6h-8.8v14.7H85.2z M69.6,58.8c0-2.2-1.4-4-3.3-4.7c-0.4-0.2-0.9-0.3-1.4-0.3c-0.1,0-0.2,0-0.4,0
	c-1.9,0-3.5,1-4.4,2.5c-0.4,0.7-0.7,1.6-0.7,2.5c0,0.9,0.2,1.8,0.7,2.5c0.1,0.2,0.2,0.3,0.3,0.5l2.3-2.3c-0.1-0.2-0.1-0.4-0.1-0.6
	c0-1,0.8-1.9,1.9-1.9c0.1,0,0.2,0,0.4,0c0.7,0.1,1.2,0.6,1.4,1.2c0.1,0.2,0.1,0.4,0.1,0.7s0,0.5-0.1,0.7c-0.2,0.6-0.8,1.1-1.4,1.2
	c-0.1,0-0.2,0-0.4,0c-0.2,0-0.4,0-0.6-0.1l-2.3,2.3c0.8,0.6,1.8,0.9,2.9,0.9c0.1,0,0.2,0,0.4,0c0.5,0,1-0.1,1.4-0.3
	C68.3,62.8,69.6,60.9,69.6,58.8L69.6,58.8z M64.9,80.5v-15c-0.1,0-0.2,0-0.4,0c-1.5,0-3-0.5-4.1-1.4l-0.3,0.3v16.1H64.9L64.9,80.5z
	 M60.7,46.6c0-1-0.2-1.9-0.5-2.8c-0.3-0.9-0.8-1.7-1.4-2.4c-1.5-1.7-3.6-2.8-6.1-2.8c-2.1,0-3.9,0.8-5.3,2.1c-0.6,0.5-1,1.1-1.4,1.7
	c-0.8,1.2-1.2,2.7-1.2,4.2s0.4,3,1.2,4.2c0.4,0.6,0.9,1.2,1.4,1.7c1.2,1.1,2.8,1.8,4.5,2V50c0,0-0.1,0-0.1,0
	c-1.4-0.4-2.4-1.7-2.4-3.2c0-1.8,1.5-3.3,3.3-3.3s3.3,1.5,3.3,3.3c0,1.6-1.1,2.9-2.5,3.2v4.6c2.1-0.2,3.9-1.2,5.2-2.8
	c0.6-0.7,1.1-1.5,1.4-2.4C60.5,48.5,60.7,47.6,60.7,46.6z M58.7,80.5V65.8L53.5,71v9.4H58.7z M58.7,63.5v-1.4
	c-0.6-1-0.9-2.1-0.9-3.3c0-1.2,0.3-2.3,0.9-3.3V54c-1.5,1.2-3.3,2-5.2,2.1v12.6L58.7,63.5z M53.4,48.5c0.7-0.3,1.2-1,1.2-1.8
	c0-1-0.9-1.9-1.9-1.9s-1.9,0.9-1.9,1.9c0,0.7,0.4,1.3,1,1.7c0,0,0.1,0,0.1,0.1c0.2,0.1,0.5,0.2,0.8,0.2c0,0,0,0,0.1,0
	C53,48.6,53.2,48.6,53.4,48.5L53.4,48.5z M51.9,80.5v-6.4l-4.5-4.5v10.9H51.9z M51.9,71.8V56.2c-1.7-0.1-3.2-0.7-4.5-1.6V59
	c1.3,1.2,2.1,2.9,2.1,4.8c0,1.6-0.5,3-1.4,4.2L51.9,71.8L51.9,71.8z M47.8,63.8c0-0.7-0.2-1.4-0.4-2.1c-0.3-0.7-0.8-1.4-1.4-1.9
	c-0.9-0.7-2-1.1-3.2-1.1c-2.8,0-5.1,2.3-5.1,5.1c0,0.7,0.1,1.3,0.4,1.9c0.2,0.5,0.4,0.9,0.7,1.2c0.4,0.6,1,1,1.7,1.4
	c0.4,0.2,0.9,0.4,1.4,0.5c0.3,0,0.6,0.1,0.9,0.1c1.1,0,2.1-0.4,2.9-0.9l-2.3-2.3c-0.2,0.1-0.4,0.1-0.6,0.1c-0.3,0-0.6-0.1-0.9-0.2
	c-0.4-0.2-0.7-0.5-0.8-0.9c-0.1-0.2-0.2-0.5-0.2-0.8c0-1,0.8-1.9,1.9-1.9c1,0,1.9,0.9,1.9,1.9c0,0.2,0,0.4-0.1,0.6l1.4,1.4l0.9,0.9
	c0.2-0.3,0.4-0.6,0.6-0.9C47.6,65.2,47.8,64.5,47.8,63.8z M45.9,80.5V69.6c-1,0.5-2,0.8-3.2,0.8c-0.3,0-0.6,0-0.9-0.1l0.1,10.1H45.9
	z M45.9,57.9v-4.5c-1.7-1.7-2.8-4.1-2.8-6.8s1.1-5.1,2.8-6.8v-12L15.4,42.1v12.3c2.3,1.8,3.8,4.5,3.8,7.6c0,3.1-1.5,5.9-3.8,7.6
	v10.8h4V66c0-0.3,0.2-0.5,0.4-0.7l20.8-8.8v-7.9l-20.2,9c-0.2,0.1-0.5,0.1-0.7-0.1c-0.2-0.1-0.3-0.4-0.3-0.6v-8.3
	c0-0.3,0.2-0.5,0.4-0.6l16.9-7.8c0-0.2-0.1-0.4-0.1-0.6c0-1.6,1.3-2.8,2.8-2.8s2.8,1.3,2.8,2.8s-1.3,2.8-2.8,2.8
	c-0.9,0-1.6-0.4-2.1-1l-16.5,7.7v6.8l20.2-9c0.2-0.1,0.5-0.1,0.7,0.1c0.2,0.1,0.3,0.4,0.3,0.6V57c0,0,0,0.1,0,0.1c0.2,0,0.4,0,0.6,0
	C43.9,57.1,45,57.4,45.9,57.9L45.9,57.9z M40.9,39.6c0-0.8-0.6-1.4-1.4-1.4s-1.4,0.6-1.4,1.4c0,0,0,0,0,0c0,0.5,0.3,1,0.7,1.2
	c0.2,0.1,0.5,0.2,0.7,0.2C40.3,41,40.9,40.4,40.9,39.6z M40.5,80.5L40.4,70c-1.3-0.5-2.5-1.4-3.3-2.5l-5.9,2.2v3.5
	c1,0.3,1.7,1.2,1.7,2.3c0,1.1-0.7,2-1.7,2.3v2.5c0,0.1,0,0.2,0,0.2H40.5z M37.7,59.3l-16.9,7.2V72l15.6-5.8
	c-0.3-0.8-0.5-1.6-0.5-2.5C36,62.1,36.7,60.5,37.7,59.3z M31.7,75.5c0-0.4-0.2-0.7-0.5-0.9c-0.2-0.2-0.4-0.2-0.7-0.2
	c-0.3,0-0.5,0.1-0.7,0.2c-0.3,0.2-0.5,0.6-0.5,0.9c0,0.4,0.2,0.7,0.5,0.9c0.2,0.2,0.4,0.2,0.7,0.2c0.3,0,0.5-0.1,0.7-0.2
	C31.5,76.2,31.7,75.9,31.7,75.5z M20.9,80.5h9c0-0.1,0-0.2,0-0.2v-2.5c-1-0.3-1.7-1.2-1.7-2.3c0-1.1,0.7-2,1.7-2.3v-3l-9,3.3V80.5z
	 M24.6,26.5c3.5-2.1,4.7-6.4,3-10l-6.5,3.9l-0.5,0.3l-6.2,3.7c1.1,1.5,2.6,2.5,4.4,2.9C20.7,27.9,22.8,27.6,24.6,26.5L24.6,26.5z
	 M26.7,101.9c0-1.1-0.9-2.1-2.1-2.1c-1.1,0-2.1,0.9-2.1,2.1c0,1.1,0.9,2.1,2.1,2.1C25.8,104,26.7,103.1,26.7,101.9z M17.5,14.2
	c0.3-0.3,0.5-0.7,0.5-1.2c0-0.9-0.7-1.7-1.7-1.7c-0.9,0-1.7,0.7-1.7,1.7s0.7,1.7,1.7,1.7c0.1,0,0.2,0,0.3,0
	C17,14.5,17.3,14.4,17.5,14.2z M14,80.5v-9.9c-1.1,0.6-2.3,0.9-3.6,1v8.9H14z"/>
<path class="st5" d="M75.3,88.3h4.3v29.5h-3.3l-5.7-18.4v21.2h-4.3V88.3h4.3l4.6,15.6V88.3z M98.8,96.2v24.4h-4.3V106h-5v9.8h-4.3
	V96.2c0-3.7,1.7-5.5,5.2-5.5h3.2C97.1,90.7,98.8,92.5,98.8,96.2z M94.5,96.5c0-1.3-0.6-1.9-1.9-1.9h-1.2c-1.3,0-1.9,0.6-1.9,1.9v5.5
	h5V96.5z M114.9,107.1l3,13.5h-4.1l-2.8-13.1h-2.6v8.3h-2v4.1c0.4,0.1,0.7,0.5,0.7,1c0,0.6-0.5,1-1,1s-1-0.5-1-1
	c0-0.5,0.3-0.9,0.7-1v-4.1h-1.8V90.7h8.5c3.3,0,5,1.8,5,5.5v5.5C117.5,104.6,116.7,106.4,114.9,107.1z M113.2,97
	c0-1.6-0.6-2.3-1.9-2.3h-2.8v9.2h2.8c1.3,0,1.9-0.8,1.9-2.3V97z M146.5,112.9L143,88.3h-4.3l5.2,32.3h5.1l5.2-32.3H150L146.5,112.9z
	 M172.7,88.3h-4.3v26.1h10.3v-3.9h-5.9V88.3z M187.2,88.3h-4.3v29.5h10.3v-3.9h-5.9V88.3z M130.8,105.5c0,1.3-0.6,1.9-1.9,1.9h-1.2
	c-1.3,0-1.9-0.6-1.9-1.9V90.7h-4.3v15.1c0,3.5,1.5,5.3,4.6,5.5v9.3h4.3v-9.3c3.1-0.2,4.6-2,4.6-5.5V90.7h-4.3V105.5z M58.5,89.2
	c0.4-0.1,0.7-0.5,0.7-1c0-0.6-0.5-1-1-1c-0.6,0-1,0.5-1,1c0,0.5,0.3,0.9,0.7,1v4.3h-1.9v24.3H58v4.3c-0.4,0.1-0.7,0.5-0.7,1
	c0,0.6,0.5,1,1,1c0.6,0,1-0.5,1-1c0-0.5-0.3-0.9-0.7-1v-4.3h1.9V93.5h-1.9V89.2z M160.8,89.2c0.4-0.1,0.7-0.5,0.7-1c0-0.6-0.5-1-1-1
	c-0.6,0-1,0.5-1,1c0,0.5,0.3,0.9,0.7,1v4.3h-1.9v24.3h1.9v4.3c-0.4,0.1-0.7,0.5-0.7,1c0,0.6,0.5,1,1,1c0.6,0,1-0.5,1-1
	c0-0.5-0.3-0.9-0.7-1v-4.3h1.9V93.5h-1.9V89.2z M50.7,109.8v6c0,3.2-1.6,4.8-4.9,4.8h-8.7v0h-4.1c-0.1,0.4-0.5,0.7-1,0.7
	c-0.6,0-1-0.5-1-1c0-0.6,0.5-1,1-1c0.5,0,0.9,0.3,1,0.7h4.1v-14.9H33c-0.1,0.4-0.5,0.7-1,0.7c-0.6,0-1-0.5-1-1c0-0.6,0.5-1,1-1
	c0.5,0,0.9,0.3,1,0.7h4.1V88.8H33c-0.1,0.4-0.5,0.7-1,0.7c-0.6,0-1-0.5-1-1c0-0.6,0.5-1,1-1c0.5,0,0.9,0.3,1,0.7h11.4
	c3.8,0,5.8,1.9,5.8,5.9v8.3c0,1.9-1,3-3.1,3.4v0.2C49.5,106.7,50.7,108,50.7,109.8z M41.4,104h2c1.7,0,2.5-0.8,2.5-2.3v-7.1
	c0-1.6-0.6-2.3-1.9-2.3h-2.6V104z M46.4,110.2c0-1.5-0.9-2.3-2.6-2.3h-2.4v8.8h3.2c1.1,0,1.7-0.5,1.7-1.4V110.2z M213.3,117.6
	c-0.5,0-0.9,0.3-1,0.7h-4.1v-1.7h-6.4V108h5.7v-3.9h-5.7V92.2h6.4v-3.9h-10.7V90h-4.1c-0.1-0.4-0.5-0.7-1-0.7c-0.6,0-1,0.5-1,1
	c0,0.6,0.5,1,1,1c0.5,0,0.9-0.3,1-0.7h4.1v30.1h10.7v-1.7h4.1c0.1,0.4,0.5,0.7,1,0.7c0.6,0,1-0.5,1-1
	C214.3,118.1,213.8,117.6,213.3,117.6z"/>
</svg>
